<svg xmlns="http://www.w3.org/2000/svg" viewBox="0 0 778.8 295.97">
  <title>beethoven</title>
  <g id="b358efdf-00a5-484e-bed5-6df2d272a1be" data-name="Layer 2">
    <g id="7f15a4bf-0dd2-48ea-b83d-9110c65d4d9b" data-name="Capa 1">
      <g>
        <path d="M0,204.23c43,15.33,179.63,4.54,174.2-67.78-1.14-15.1-26-45.3-44.94-27.25-12.09,11.53,24.76,32.23-5.31,45.54-13.22,5.85-35.51-9.41-33.27-26.36C94,103.68,134,88.15,151.17,90.56c28.51,4,44.59,31,43.82,55.76C192.11,238.93,47.38,233,0,204.23Z" style="fill: #ff8000;fill-rule: evenodd"/>
        <circle cx="212.68" cy="126.8" r="11.31" style="fill: #ff8000"/>
        <circle cx="212.68" cy="168.34" r="11.31" style="fill: #ff8000"/>
        <path d="M48.19,9.29S110.34,137.94,97.74,296c0,0-20.23-191.21-61.5-256.35S48.19,9.29,48.19,9.29Z" style="fill: #ff8000;fill-rule: evenodd"/>
      </g>
      <g>
        <path d="M258.23,100.77v33.11a31.54,31.54,0,0,1,9.81-6.81,28.22,28.22,0,0,1,11.28-2.27,29.13,29.13,0,0,1,22.19,9.87q9.13,9.87,9.13,25.32,0,14.9-9.44,24.92t-22.38,10a27.8,27.8,0,0,1-10.73-2.05,32.77,32.77,0,0,1-9.87-6.71v7H241.62V100.77Zm17.6,39.49a17.48,17.48,0,0,0-13.12,5.39q-5.21,5.4-5.21,14.1,0,8.89,5.21,14.38a17.33,17.33,0,0,0,13.12,5.49A17,17,0,0,0,288.74,174q5.24-5.58,5.24-14.22t-5.15-14.07A17.07,17.07,0,0,0,275.83,140.25Z"/>
        <path d="M376.67,164.71H322.9A17.9,17.9,0,0,0,329.13,176q5.06,4.2,12.9,4.2a22.32,22.32,0,0,0,16.13-6.56l14.1,6.62a33.29,33.29,0,0,1-12.63,11.07,39.5,39.5,0,0,1-17.47,3.58q-15.69,0-25.57-9.9t-9.87-24.8q0-15.27,9.84-25.35t24.67-10.09q15.76,0,25.63,10.09t9.87,26.64Zm-16.74-13.18a16.76,16.76,0,0,0-6.54-9.07A19,19,0,0,0,342.07,139a20,20,0,0,0-12.28,3.92q-3.32,2.45-6.14,8.65Z"/>
        <path d="M442.24,164.71H388.48A17.88,17.88,0,0,0,394.7,176q5.06,4.2,12.91,4.2a22.32,22.32,0,0,0,16.12-6.56l14.1,6.62a33.32,33.32,0,0,1-12.63,11.07,39.54,39.54,0,0,1-17.48,3.58q-15.7,0-25.57-9.9t-9.87-24.8q0-15.27,9.84-25.35t24.68-10.09q15.75,0,25.62,10.09t9.87,26.64Zm-16.74-13.18a16.81,16.81,0,0,0-6.54-9.07A19,19,0,0,0,407.64,139a20,20,0,0,0-12.28,3.92q-3.32,2.45-6.14,8.65Z"/>
        <path d="M449.28,101.94H466v24.58H476v14.41H466v52.3H449.28v-52.3H440.7V126.52h8.58Z"/>
        <path d="M478.81,100.77h16.62v32.49a38.13,38.13,0,0,1,9.87-6.35,25.48,25.48,0,0,1,10.06-2.12,22.65,22.65,0,0,1,16.74,6.87q5.83,5.95,5.82,17.47v44.08H521.43V164q0-11.59-1.11-15.7a11,11,0,0,0-3.77-6.13,10.57,10.57,0,0,0-6.59-2,12.43,12.43,0,0,0-8.74,3.37,17.89,17.89,0,0,0-5.06,9.2q-.73,3-.73,13.73v26.79H478.81Z"/>
        <path d="M571,124.8a35.37,35.37,0,0,1,17.75,4.72,34.65,34.65,0,0,1,17.63,30.29,35.07,35.07,0,0,1-4.69,17.66,33.85,33.85,0,0,1-12.78,12.84,35.31,35.31,0,0,1-17.84,4.63,33.27,33.27,0,0,1-24.49-10.21,35.36,35.36,0,0,1,1.32-50.85A33.51,33.51,0,0,1,571,124.8Zm.27,15.76a17.22,17.22,0,0,0-13,5.42q-5.2,5.43-5.19,13.89,0,8.71,5.12,14.1a17.16,17.16,0,0,0,13,5.4,17.34,17.34,0,0,0,13.08-5.46q5.22-5.46,5.22-14t-5.13-13.95A17.35,17.35,0,0,0,571.29,140.56Z"/>
        <path d="M594.67,126.52h17.05l16.85,39.36,16.81-39.36h17L634,193.22H623.11Z"/>
        <path d="M720.79,164.71H667A17.87,17.87,0,0,0,673.24,176q5.06,4.2,12.9,4.2a22.32,22.32,0,0,0,16.13-6.56l14.1,6.62a33.29,33.29,0,0,1-12.63,11.07,39.52,39.52,0,0,1-17.47,3.58q-15.7,0-25.57-9.9t-9.87-24.8q0-15.27,9.84-25.35t24.68-10.09q15.76,0,25.62,10.09t9.87,26.64Zm-16.74-13.18a16.8,16.8,0,0,0-6.54-9.07A19,19,0,0,0,686.18,139a20,20,0,0,0-12.28,3.92q-3.32,2.45-6.15,8.65Z"/>
        <path d="M719.63,126.52h16.74v6.84a40.21,40.21,0,0,1,10.31-6.68,24.94,24.94,0,0,1,9.46-1.88A22.89,22.89,0,0,1,773,131.73q5.82,5.89,5.82,17.41v44.08H762.24V164q0-11.94-1.07-15.86a10.87,10.87,0,0,0-3.73-6,10.44,10.44,0,0,0-6.57-2.05,12.32,12.32,0,0,0-8.72,3.4,18.14,18.14,0,0,0-5,9.4q-.73,3.12-.73,13.53v26.76H719.63Z"/>
      </g>
    </g>
  </g>
</svg>
