<svg xmlns="http://www.w3.org/2000/svg" viewBox="0 0 471.22 203.54">
  <title>biut</title>
  <g id="8b091c76-25f3-48bc-9b21-37eff6795801" data-name="Layer 2">
    <g id="25425313-77fe-4d99-b0f5-dc754a9f1b6c" data-name="Capa 1">
      <path d="M0,196.61.06,0H37.53V71.34c10.66-15,25-22.44,42.69-22.44,9.36,0,17.72,1.73,25,5.36a53.71,53.71,0,0,1,18.57,15.32,67.94,67.94,0,0,1,11.51,23.57,104.52,104.52,0,0,1,4,30c0,12.15-1.51,23-4.62,32.51a74.76,74.76,0,0,1-13,24.24A56.71,56.71,0,0,1,102,195.24a61.56,61.56,0,0,1-25.05,5.11c-17.9,0-31.32-7.08-40-21.32l-.27,17.59Zm68.22-27.28c9.5,0,17.37-4,23.46-12s9-18.65,9-31.52c0-29.62-10.87-44.46-32.75-44.46-21.31,0-31.89,15.65-31.89,46.84,0,12.3,3.07,22.2,9.21,29.8S59.08,169.33,68.22,169.33Z" style="fill: #7e4a8f"/>
      <path d="M152.79,35.36,152.85,0h38V35.36Zm0,161.25.06-144h38v144Z" style="fill: #7e4a8f"/>
      <path d="M300.52,196.61V176.37c-9.73,16-24.73,24-44.73,24A48.93,48.93,0,0,1,236,196.61a44.52,44.52,0,0,1-15.35-10.86A49,49,0,0,1,210.62,169a58.74,58.74,0,0,1-3.69-21.64V52.62h38l0,88.92c0,18,8.05,26.92,24.26,26.92,9.71,0,17.06-3,22.08-9.16s7.46-13.92,7.46-23.57V52.62h37.77l0,144Z" style="fill: #7e4a8f"/>
      <path d="M433.38,101.83h35.17v40.93a71.35,71.35,0,0,1-3.44,21.77,49.78,49.78,0,0,1-28.62,31.21c-7.22,3.17-16,4.61-26.07,4.61-10.55,0-19.48-1.44-26.93-4.61a51.39,51.39,0,0,1-18.22-12.67A48.51,48.51,0,0,1,355,164.75a74.45,74.45,0,0,1-3.18-22.32V13.71h37.68V52.62h79.06V79.53l-79.06.05v59.05c0,9.19,1.65,16.31,5.12,21.23s8.93,7.42,16.65,7.42S424.44,165,428,160s5.39-11.74,5.39-20.83Z" style="fill: #7e4a8f"/>
      <path d="M2.82,199.77V3.08H40.26V74.49C51,59.42,65.18,51.91,83,51.91a55.3,55.3,0,0,1,25,5.51,52.51,52.51,0,0,1,18.57,15.31,70.36,70.36,0,0,1,11.57,23.6,106.82,106.82,0,0,1,4,29.94,104.48,104.48,0,0,1-4.69,32.47A74.22,74.22,0,0,1,124.51,183a54.39,54.39,0,0,1-19.74,15.24,59.11,59.11,0,0,1-25.09,5.29c-17.84,0-31.23-7.13-40-21.37l-.34,17.59ZM71,172.5c9.47,0,17.31-4,23.35-12.06,6-8.19,9.07-18.63,9.07-31.55q0-44.51-32.79-44.56c-21.29,0-31.9,15.75-31.9,46.87q0,18.53,9.25,29.91C54.13,168.74,61.83,172.5,71,172.5Z" style="fill: #7e4a8f;opacity: 0.3"/>
      <path d="M155.51,38.53V3.08h38v35.5Zm0,161.24V55.8h38v144Z" style="fill: #7e4a8f;opacity: 0.3"/>
      <path d="M303.3,199.77V179.55q-14.7,24-44.76,24a53.1,53.1,0,0,1-19.84-3.77,45.1,45.1,0,0,1-15.27-10.86,49.32,49.32,0,0,1-10.1-16.71,61.12,61.12,0,0,1-3.65-21.6V55.8h38v88.9c0,18,8.13,26.92,24.28,26.92,9.76,0,17.09-3.08,22-9.16s7.5-14,7.5-23.59V55.8h37.68l0,144Z" style="fill: #7e4a8f;opacity: 0.3"/>
      <path d="M436.14,105H471.2V145.9a70.71,70.71,0,0,1-3.36,21.8,50.23,50.23,0,0,1-28.62,31.21c-7.19,3.06-15.95,4.63-26.05,4.63-10.56,0-19.42-1.58-26.91-4.63A51.93,51.93,0,0,1,368,186.3a49.74,49.74,0,0,1-10.31-18.39,78.29,78.29,0,0,1-3.14-22.27V16.83h37.67v39h79V82.65h-79v59.16c0,9.25,1.67,16.14,5.07,21.25s9,7.36,16.72,7.36c7.53,0,13.11-2.39,16.7-7.26s5.42-11.8,5.42-20.78Z" style="fill: #7e4a8f;opacity: 0.3"/>
    </g>
  </g>
</svg>
