<svg xmlns="http://www.w3.org/2000/svg" viewBox="0 0 472.05 182.7">
  <title>culto</title>
  <g id="f6cd6b23-0422-4f5f-9df7-197416a2c82d" data-name="Layer 2">
    <g id="67344f34-fb6e-4901-8771-ccd4076d4963" data-name="Capa 1">
      <g>
        <polygon points="66.53 144.99 64.48 142.95 62.02 145.41 66.1 145.41 66.53 144.99" style="fill: #fff"/>
        <path d="M35.58,0V37.29H0V182.7H436.48V145.42h35.57V0ZM2.89,40.18H24L2.89,61.3Zm0,25.21L28.1,40.18h7.48V57.26L2.89,89.94ZM2.89,94,35.58,61.35V85.91L2.89,118.59Zm0,28.65L35.58,90v24.56L2.89,147.24Zm0,28.65,32.68-32.68v24.56L2.89,175.89Zm24.72,28.48H3.06l34.4-34.4H62Zm28.65,0H31.71l34.4-34.4H90.67Zm28.65,0H60.35l34.4-34.4h24.56Zm28.65,0H89l34.4-34.4H148Zm28.65,0H117.66l34.4-34.4h24.56Zm28.65,0H146.31l34.4-34.4h24.56Zm28.65,0H175l34.4-34.4h24.56Zm28.65,0H203.6l34.4-34.4h24.56Zm28.65,0H232.25l34.4-34.4h24.56Zm28.65,0H260.91l34.39-34.4h24.56Zm28.65,0H289.56l34.4-34.4h24.56Zm28.65,0H318.2l34.4-34.4h24.56Zm28.65,0H346.85l34.4-34.4h24.56Zm62.18,0H404.15l29.44-29.43Zm0-33.53-33.53,33.53H375.5l34.4-34.4h23.69Zm35.57-3.76H38.47V2.89H469.16Z" style="fill: #fff"/>
        <path d="M112.34,90.58c-7.81,0-13.39-6.58-13.39-16.38s5.58-16.37,13.39-16.37a13.06,13.06,0,0,1,10,4.24l6.9-10.45s-5.32-6.87-17-6.87a28.31,28.31,0,0,0-2.85.15A24.81,24.81,0,0,0,104.15,46C96.79,48.37,91.52,54,88.74,61.41a33.17,33.17,0,0,0-1.58,5.67,38.54,38.54,0,0,0-.68,7.13c0,16.19,9.56,29.56,25.7,29.56,11.72,0,17-7,17-7l-6.9-10.45a13.06,13.06,0,0,1-10,4.23" style="fill: #fff"/>
        <path d="M195.75,78.07c0,7.06-3.08,12.42-10.06,12.42-6.74,0-10.07-5.36-10.07-12.42V46H163.57V78.07c0,14.59,8.65,25.69,22.13,25.69,13.8,0,22.12-11.1,22.12-25.69V46H195.75Z" style="fill: #fff"/>
        <polygon points="258.63 45.98 246.57 45.98 246.57 102.44 280.93 102.44 280.93 90.68 258.63 90.68 258.63 45.98" style="fill: #fff"/>
        <polygon points="306.12 57.74 320.18 57.74 320.18 102.44 332.24 102.44 332.24 57.74 346.29 57.74 346.29 45.98 306.12 45.98 306.12 57.74" style="fill: #fff"/>
        <polygon points="258.63 45.98 246.57 45.98 246.57 102.44 280.93 102.44 280.93 90.68 258.63 90.68 258.63 45.98" style="fill: #fff"/>
        <path d="M195.75,78.07c0,7.06-3.08,12.42-10.06,12.42-6.74,0-10.07-5.36-10.07-12.42V46H163.57V78.07c0,14.59,8.65,25.69,22.13,25.69,13.8,0,22.12-11.1,22.12-25.69V46H195.75Z" style="fill: #fff"/>
        <polygon points="306.12 57.74 320.18 57.74 320.18 102.44 332.24 102.44 332.24 57.74 346.29 57.74 346.29 45.98 306.12 45.98 306.12 57.74" style="fill: #fff"/>
        <path d="M403.43,44.75c-15.05,0-25.53,13.27-25.53,29.46s10.48,29.55,25.53,29.55c15.22,0,25.71-13.37,25.71-29.55s-10.49-29.46-25.71-29.46m0,45.74c-7.24,0-13.05-6.5-13.05-16.28s5.81-16.28,13.05-16.28c7.41,0,13.22,6.5,13.22,16.28s-5.82,16.28-13.22,16.28" style="fill: #fff"/>
      </g>
    </g>
  </g>
</svg>
