<svg xmlns="http://www.w3.org/2000/svg" viewBox="0 0 470.47 182.09">
  <title>cultoblack</title>
  <g id="b3959926-480e-4742-9bc8-c6377c64e8a6" data-name="Layer 2">
    <g id="a1dcf92c-6eb6-491a-a1c6-1fd8a4b5c7b3" data-name="Layer 1">
      <g>
        <polygon points="66.31 144.51 64.27 142.47 61.81 144.93 65.89 144.93 66.31 144.51"/>
        <path d="M35.46,0V37.16H0V182.09H435V144.93h35.45V0ZM2.88,40h21l-21,21Zm0,25.12L28,40h7.46v17L2.88,89.64Zm0,28.55L35.46,61.14V85.62L2.88,118.19Zm0,28.55L35.46,89.7v24.48L2.88,146.75Zm0,28.55,32.57-32.57v24.48L2.88,175.3Zm24.64,28.39H3l34.28-34.28H61.81Zm28.55,0H31.6l34.29-34.28H90.37Zm28.55,0H60.15l34.28-34.28h24.48Zm28.55,0H88.71L123,144.93h24.48Zm28.55,0H117.26l34.29-34.28H176Zm28.55,0H145.82l34.28-34.28h24.48Zm28.55,0H174.37l34.29-34.28h24.48Zm28.55,0H202.92l34.29-34.28h24.48Zm28.55,0H231.48l34.29-34.28h24.48Zm28.56,0H260l34.28-34.28h24.48Zm28.55,0H288.59l34.28-34.28h24.48Zm28.55,0H317.14l34.28-34.28H375.9Zm28.56,0H345.69L380,144.93h24.48Zm62,0H402.8l29.34-29.34Zm0-33.41-33.41,33.41H374.25l34.28-34.28h23.61ZM467.59,142H38.34V2.88H467.59Z"/>
        <path d="M112,90.28c-7.79,0-13.35-6.57-13.35-16.32S104.17,57.64,112,57.64a13,13,0,0,1,9.95,4.22l6.88-10.41s-5.3-6.85-17-6.85a27.83,27.83,0,0,0-2.84.15,24.81,24.81,0,0,0-5.16,1.08c-7.32,2.37-12.59,8-15.36,15.36a33.27,33.27,0,0,0-1.58,5.65A38.25,38.25,0,0,0,86.18,74c0,16.14,9.54,29.46,25.62,29.46,11.69,0,17-6.94,17-6.94l-6.88-10.41A13,13,0,0,1,112,90.28"/>
        <path d="M195.1,77.81c0,7-3.07,12.38-10,12.38-6.71,0-10-5.35-10-12.38v-32H163v32c0,14.54,8.62,25.61,22,25.61,13.76,0,22-11.07,22-25.61v-32h-12Z"/>
        <polygon points="257.77 45.82 245.74 45.82 245.74 102.1 279.98 102.1 279.98 90.37 257.77 90.37 257.77 45.82"/>
        <polygon points="305.1 57.55 319.11 57.55 319.11 102.1 331.13 102.1 331.13 57.55 345.13 57.55 345.13 45.82 305.1 45.82 305.1 57.55"/>
        <polygon points="257.77 45.82 245.74 45.82 245.74 102.1 279.98 102.1 279.98 90.37 257.77 90.37 257.77 45.82"/>
        <path d="M195.1,77.81c0,7-3.07,12.38-10,12.38-6.71,0-10-5.35-10-12.38v-32H163v32c0,14.54,8.62,25.61,22.05,25.61,13.76,0,22-11.07,22-25.61v-32h-12Z"/>
        <polygon points="305.1 57.55 319.11 57.55 319.11 102.1 331.13 102.1 331.13 57.55 345.13 57.55 345.13 45.82 305.1 45.82 305.1 57.55"/>
        <path d="M402.08,44.6c-15,0-25.45,13.23-25.45,29.36s10.44,29.45,25.45,29.45c15.17,0,25.62-13.32,25.62-29.45S417.25,44.6,402.08,44.6m0,45.58c-7.21,0-13-6.47-13-16.22s5.8-16.23,13-16.23c7.38,0,13.18,6.48,13.18,16.23s-5.8,16.22-13.18,16.22"/>
      </g>
    </g>
  </g>
</svg>
