<svg xmlns="http://www.w3.org/2000/svg" viewBox="0 0 1243.14 179.42">
  <title>diarioconcepcion-alt</title>
  <g id="2705e09d-71ea-48c9-81cd-835215151ed9" data-name="Layer 2">
    <g id="adc49953-d52d-4ec7-b64f-18bb60eae1ff" data-name="Capa 1">
      <g>
        <path d="M43,36.69H32.89v73.57h11c9.19,0,16.54-4.59,16.54-40,0-29.72-7.53-33.58-17.46-33.58m39.14,85.49c-8.08,9.72-18.38,15.41-35.65,15.41H0V9.73H45.21c8.82,0,20.21.73,30.5,7.88,14.52,10.09,21,27.7,21,53.75,0,19.81-2.94,37.05-14.52,50.82" style="fill: #fff"/>
        <path d="M99.77,137.6V44.4l32-2.94V137.6h-32M115.58,36a18.19,18.19,0,0,1-18.2-18c0-9.91,8.46-18,18.75-18a17.91,17.91,0,0,1,18,18c0,9.9-8.27,18-18.56,18" style="fill: #fff"/>
        <path d="M166.29,108.79c0,5.51,3.31,9.17,8.82,9.17,2.76,0,6.43-1.65,7.53-3.12V98.33c-13.41-.37-16.36,5-16.36,10.46m25.18,23.31c-4.6,3.85-12.5,7.89-23.71,7.89-23.52,0-32.53-13.95-32.53-30.83,0-18,15.62-30.82,42.09-30.82a48.43,48.43,0,0,1,5.33.18V72.65c0-5.5-.73-8.81-7.72-8.81-10.66,0-18.93,3.86-27,9.9L136.33,53.94c11.76-7.16,27-13.4,42.64-13.4,18,0,30.69,6.05,34.18,17.25,1.28,4.22,1.47,7.7,1.47,14.67l-.36,32.66c0,7.88.73,14.3,7.34,18.53l-18.38,17.79c-4.59-1.46-10.29-6.42-11.76-9.35" style="fill: #fff"/>
        <path d="M277.48,68.62A17.2,17.2,0,0,0,268.1,66c-5.51,0-9,2.94-11.21,6.79V137.6h-32V80c0-12.11-.37-24-2.94-34.31l29.4-5a43,43,0,0,1,2,11.19c3.86-5.14,9.37-11.75,19.48-11.75,4.6,0,7.54.92,11.95,2.76l-7.35,25.68" style="fill: #fff"/>
        <path d="M288.36,137.6V44.4l32-2.94V137.6h-32M304.16,36A18.18,18.18,0,0,1,286,18c0-9.91,8.45-18,18.75-18a17.91,17.91,0,0,1,18,18c0,9.9-8.27,18-18.56,18" style="fill: #fff"/>
        <path d="M357.56,91.18c0,18.35,1.1,26.42,10.11,26.42,7.54,0,9.93-8.07,9.93-30.64,0-18.9-2.57-24.22-10.11-24.22-6.62,0-9.92,5-9.92,28.44m54.58-3.3c0,37.42-22.6,52.09-45.21,52.09C339.73,140,323,122,323,90.63c0-29.54,18-50.09,45.76-50.09,23.34,0,43.37,13.4,43.37,47.34" style="fill: #fff"/>
        <path d="M496.16,139.8c-15.8,0-30.14-4.78-41.9-17.61-10.1-11.19-14.7-27.89-14.7-46,0-16,2.57-28.07,8.82-39.62,10.84-20,29.4-29,51.83-29,13,0,26.83,3.67,32.72,9.35l-14,24.22a30.77,30.77,0,0,0-19.11-6.79c-5.7,0-11,1.46-14.33,5-6.25,6.42-8.27,13-8.27,28.07,0,21.1.92,31.18,6.25,37.42,4.23,5,9.56,8.08,16.36,8.08,8.27,0,14.89-2,22.06-8.44L536,126.77c-8.09,7.52-21.14,13-39.88,13" style="fill: #fff"/>
        <path d="M564.79,91.18c0,18.35,1.1,26.42,10.11,26.42,7.54,0,9.93-8.07,9.93-30.64,0-18.9-2.57-24.22-10.11-24.22-6.61,0-9.92,5-9.92,28.44m54.58-3.3c0,37.42-22.6,52.09-45.21,52.09-27.2,0-43.93-18-43.93-49.35,0-29.54,18-50.09,45.76-50.09,23.34,0,43.37,13.4,43.37,47.34" style="fill: #fff"/>
        <path d="M671.92,137.6V77.06c0-10.28-3.31-10.28-7.9-10.28-2.39,0-6.07,1.65-10.47,5.51V137.6h-32V77.42c0-11.38-.56-21.65-2.95-31.74l29.41-5a39.65,39.65,0,0,1,1.84,8.8,44.5,44.5,0,0,1,27.38-9c22.23,0,26.65,13,26.65,26.06v71h-32" style="fill: #fff"/>
        <path d="M749.54,140c-26.46,0-43-16.7-43-48.8,0-31.74,16.92-50.64,45.4-50.64,11.76,0,19.85,3.49,29.22,11.2L766.44,71c-3.68-3.86-9-7-13.42-7-7.53,0-11.57,4-11.57,25.13,0,19.26,2,27.15,11.2,27.15,7.17,0,13.05-3.49,17.46-8.44l13.42,18.71c-10.11,10.09-22.42,13.39-34,13.39" style="fill: #fff"/>
        <path d="M820,62.75c-6.8,0-11.21,4.22-11.21,16.88h21.32c.36-10.46-2.39-16.88-10.11-16.88m4,54.85c8.28,0,16.73-3.12,25-9.54L861.3,126.4C848.62,136.13,836.86,140,822.71,140c-30.32,0-47-18.53-47-49.17,0-31.19,16.35-50.27,43.18-50.27,30.51,0,43,19.45,42.82,51.92v7.88H808.74c0,5.87,2,17.24,15.25,17.24" style="fill: #fff"/>
        <path d="M897.64,69.9v42.38c.36,1.46,2.94,2.57,6.06,2.57,7.53,0,13.41-1.65,13.41-26.6,0-14.86-1.1-23.12-9.56-23.12-5.14,0-8.27,2.2-9.91,4.77M914,40.54c33.27,0,37.31,27.34,37.31,45,0,36.87-14.71,54.48-40.24,54.48a37.87,37.87,0,0,1-14.89-3.12c.92,2.56,1.48,6.79,1.48,14.5V170.8l-32,8.62v-102c0-11.38-.55-21.65-2.93-31.74l29.4-5a40.73,40.73,0,0,1,2,8.44c2-3.85,10.65-8.62,19.85-8.62" style="fill: #fff"/>
        <path d="M996.26,140c-26.47,0-43-16.7-43-48.8,0-31.74,16.91-50.64,45.39-50.64,11.76,0,19.85,3.49,29.22,11.2L1013.16,71c-3.67-3.86-9-7-13.41-7-7.53,0-11.58,4-11.58,25.13,0,19.26,2,27.15,11.21,27.15,7.17,0,13-3.49,17.46-8.44l13.42,18.71c-10.11,10.09-22.42,13.39-34,13.39" style="fill: #fff"/>
        <path d="M1034.06,137.6V44.4l32-2.94V137.6h-32M1049.86,36a18.18,18.18,0,0,1-18.19-18c0-9.91,8.45-18,18.74-18a17.91,17.91,0,0,1,18,18c0,9.9-8.27,18-18.57,18" style="fill: #fff"/>
        <path d="M1103.29,91.18c0,18.35,1.1,26.42,10.1,26.42,7.54,0,9.93-8.07,9.93-30.64,0-18.9-2.57-24.22-10.11-24.22-6.62,0-9.92,5-9.92,28.44m54.58-3.3c0,37.42-22.61,52.09-45.21,52.09-27.2,0-43.92-18-43.92-49.35,0-29.54,18-50.09,45.76-50.09,23.34,0,43.37,13.4,43.37,47.34" style="fill: #fff"/>
        <path d="M1211.16,137.6V77.06c0-10.28-3.31-10.28-7.91-10.28-2.39,0-6.06,1.65-10.47,5.51V137.6h-32V77.42c0-11.38-.55-21.65-2.94-31.74l29.41-5a39.43,39.43,0,0,1,1.83,8.8,44.51,44.51,0,0,1,27.38-9c22.24,0,26.65,13,26.65,26.06v71h-32" style="fill: #fff"/>
        <polyline points="1156.29 21.24 1113.25 52.91 1098.83 39.92 1131.85 6.97 1156.29 21.24" style="fill: #ffd918"/>
        <polygon points="1156.29 21.24 1113.25 52.91 1098.83 39.92 1131.85 6.97 1156.29 21.24" style="fill: none;stroke: #42595e;stroke-miterlimit: 10;stroke-width: 2.006580352783203px"/>
      </g>
    </g>
  </g>
</svg>
