<svg xmlns="http://www.w3.org/2000/svg" viewBox="0 0 812.14 96.01">
  <title>duna</title>
  <g id="b65606ac-788e-44ec-9eec-e3e7c4dd498b" data-name="Layer 2">
    <g id="6a0f7051-7849-4ebb-bfed-fc5d390138d3" data-name="Capa 1">
      <g>
        <path d="M617.53,39a11.93,11.93,0,0,1-4.7-9.8,13.74,13.74,0,0,1,3.64-9.54c2.44-2.74,6.21-4.18,11.56-4.18s9.37,1.44,11.92,4.18a13,13,0,0,1,3.93,9,13.28,13.28,0,0,1-4.08,9.72c-2.75,2.68-6.54,4-11.5,4A17,17,0,0,1,617.53,39Zm-2.69,42A17.59,17.59,0,0,1,610.39,69c0-5.25,1.68-9.46,5-12.44,3.2-3.06,7.62-4.48,12.89-4.48s9.89,1.43,13.29,4.48c3.55,2.9,5.25,7.2,5.25,12.83s-1.66,9.64-5.09,12.38A19.17,19.17,0,0,1,629.11,86C622.61,86,617.89,84.31,614.85,81ZM602,55.3a24,24,0,0,0-3.78,13.58c0,8.94,3,15.54,8.93,20.15s13.1,7,21.69,7c9.48,0,16.81-2.69,22.06-8a27.22,27.22,0,0,0,7.74-19.75c0-6.42-2-11.83-5.81-15.86a26.39,26.39,0,0,0-8.63-5.84,21.54,21.54,0,0,0,7.25-5.6c2.74-3.4,4.14-7.75,4.14-13.38a20,20,0,0,0-7.07-15.44c-4.86-4.54-11.46-6.7-19.81-6.7-8.74,0-15.53,2.35-20.21,7a22.32,22.32,0,0,0-7.15,16.82c0,5.26,1.55,9.51,4.71,12.76a23.06,23.06,0,0,0,7.18,4.62A25.31,25.31,0,0,0,602,55.3Z"/>
        <path d="M676.65,49.16c-2.74-3.35-4.08-7.94-4.08-13.64,0-6.06,1.55-10.94,4.65-14.58,3.29-3.63,7.48-5.4,12.86-5.4,5.13,0,9.23,1.56,12.39,4.79s4.92,7.9,4.92,14.37c0,7.23-1.76,12.26-5.36,15.16A18.6,18.6,0,0,1,690,54.15C683.87,54.15,679.46,52.61,676.65,49.16Zm-7.89,40Q675.44,96,688.32,96c12.89,0,22-7,27.3-20.66a80.5,80.5,0,0,0,4.89-28.71c0-9.57-1.41-17.56-4.13-23.8C711.45,11.18,702.64,5.49,690,5.49c-9.63,0-16.74,3-21.58,9A32.69,32.69,0,0,0,661,35.61c0,8.3,2.48,15.06,7.42,20.33S680,64,688.51,64a28.71,28.71,0,0,0,11.75-2.45,19.88,19.88,0,0,0,9.14-8.21c-1.55,13.41-4.25,22.43-8,26.86-3.74,4.21-8.19,6.56-13.53,6.56a15.54,15.54,0,0,1-7.59-1.9c-4.39-2.24-6.6-6.4-7.06-12.52H662.06A22.79,22.79,0,0,0,668.76,89.2Z"/>
        <path d="M729.77,93.51V80H742.4V93.51Z"/>
        <path d="M750.93,7.09h61.21v9.63c-2.92,2.68-6.57,7.49-11.28,14.38A131.76,131.76,0,0,0,788.3,53a179.68,179.68,0,0,0-8.14,21c-1.08,4.09-2.63,10.48-4.47,19.57H763.45c2.74-16.75,8.95-33.47,18.41-50.15a157.18,157.18,0,0,1,17.7-25.14H750.93Z"/>
        <path d="M146.35,0c22.83,0,35.5,2.2,45.43,8.23,12.52,7.67,19.65,21.22,19.65,37.12,0,19.55-10.76,35.47-28.77,42.92-8.69,3.44-22.06,5.64-36.31,5.64H105.41V0ZM121.27,84.92h25.85c13.72,0,25.19-2.58,32.41-7.55,9.57-6.79,14.73-17.63,14.73-31.56,0-15.15-6.32-26.73-17.73-32.45-7.15-3.66-12.83-4.45-29.41-4.45H121.27Z"/>
        <path d="M231.28,0V55.95c0,8.68.24,10.28.94,13.63,3.29,11.06,15.39,17.29,33.74,17.29,14,0,25.81-4.45,30.75-11.3,2.21-3.08,3.51-7.68,3.79-12.66V0h15.69V55.6c0,8.85-.09,12-1.32,16C310.26,87.37,293.33,95.71,266,95.71c-22.57,0-38.82-6-45.89-16.72a29.48,29.48,0,0,1-4.19-15.45,70.68,70.68,0,0,1-.27-7.94V0Z"/>
        <path d="M432.9,93.91H417.64L340.9,17.63V93.91H325.54V0H340.9l76.75,76.32V0H432.9Z"/>
        <path d="M550.5,93.91H533.6L517.19,63.54H463.8L448.11,93.91H431.18L483.43,0h14.63ZM490.19,13.84,468.95,54.33h43.19Z"/>
        <g>
          <line y1="23.49" style="fill: #5e6b96"/>
          <rect width="23.41" height="23.49" style="fill: #8092c4"/>
          <rect x="23.41" width="23.39" height="23.49" style="fill: #99aed3"/>
          <rect x="46.8" width="23.48" height="23.49" style="fill: #7a8bba"/>
          <rect x="70.28" width="23.52" height="23.49" style="fill: #caa594"/>
          <line y1="46.88" y2="23.49" style="fill: #7a6b50"/>
          <rect y="23.49" width="23.41" height="23.39" style="fill: #a08fa7"/>
          <rect x="23.41" y="23.49" width="23.39" height="23.39" style="fill: #b19fcc"/>
          <rect x="46.8" y="23.49" width="23.48" height="23.39" style="fill: #ceb067"/>
          <rect x="70.28" y="23.49" width="23.52" height="23.39" style="fill: #e39366"/>
          <line y1="70.29" y2="46.88" style="fill: #725f46"/>
          <rect y="46.88" width="23.41" height="23.41" style="fill: #80655f"/>
          <rect x="23.41" y="46.88" width="23.39" height="23.41" style="fill: #a98c50"/>
          <rect x="46.8" y="46.88" width="23.48" height="23.41" style="fill: #be8a78"/>
          <rect x="70.28" y="46.88" width="23.52" height="23.41" style="fill: #a98c50"/>
          <line y1="93.75" y2="70.29" style="fill: #9c7f53"/>
          <rect y="70.29" width="23.41" height="23.46" style="fill: #cba465"/>
          <rect x="23.41" y="70.29" width="23.39" height="23.46" style="fill: #b48d64"/>
          <rect x="46.8" y="70.29" width="23.48" height="23.46" style="fill: #a47d50"/>
          <rect x="70.28" y="70.29" width="23.52" height="23.46" style="fill: #896734"/>
        </g>
        <g>
          <path d="M522.44,19.25h-1.65V.69h9V2.87h-7.32V8.66h6.44v2.18h-6.44Z"/>
          <path d="M545.09,19.25V3.65h0l-3.54,15.59h-1.95L536.06,3.65H536c0,1.75.07,4.1.07,4.58v11h-1.68V.69h2.52l3.71,15.65h.18L544.5.69h2.38V19.25Z"/>
        </g>
      </g>
    </g>
  </g>
</svg>
