<svg xmlns="http://www.w3.org/2000/svg" viewBox="0 0 736.53 245.17">
  <title>holablack</title>
  <g id="69299d15-f460-480e-b0fa-89c387ea0fb0" data-name="Layer 2">
    <g id="ed16fd53-dea4-4cfd-8528-1509d7fb6dd3" data-name="Layer 1">
      <g>
        <path d="M159.31,233.9v-84h-21c-.12,2-.35,3.92-.35,5.89,0,24.16-.14,48.32.09,72.48,0,4.9-1.31,6.51-6.33,6.41-15.59-.3-31.18-.21-46.78,0-3.92,0-5.42-1-5.41-5.18q.15-107.18,0-214.36c0-3.87,1.36-4.95,5.11-4.91,15.93.18,31.87.2,47.8,0,4.25-.06,5.6,1.23,5.57,5.51-.18,22.62-.08,45.24-.08,67.85V90h21.37V10.26h10.22c14.05,0,28.1.12,42.15-.07,4-.06,5.71.83,5.7,5.33q-.19,106.92-.06,213.85c0,3-.08,5.29-4.2,5.25-16.79-.16-33.58-.06-50.38-.1A22.19,22.19,0,0,1,159.31,233.9Z"/>
        <path d="M494.59,234.2c2-11.47,3.79-22.23,5.67-33q8.57-49,17.19-98,7-39.64,14.1-79.26c0-.17.07-.33.1-.5.84-4.17.34-10.05,2.89-12.07,2.82-2.23,8.43-1.09,12.83-1.11,23.48-.07,47,0,70.44,0h6.83L655.48,234a40.32,40.32,0,0,1-4.62.56c-15.94,0-31.88,0-47.81.07-3.5,0-5.14-.83-5.56-4.74-1.06-9.86-2.7-19.65-4.15-29.83H558c-1.71,9.64-3.58,19.33-5.07,29.08-.59,3.86-1.88,5.6-6.14,5.54-15.59-.23-31.19-.08-46.78-.11C498.45,234.56,496.94,234.36,494.59,234.2Zm92-83.42-8.45-61.6-.79,0-10.79,61.64Z"/>
        <path d="M235.56,120.93c0-17,.52-33.94-.11-50.88C234.27,38.42,256.3,12,289.83,6.23c23.47-4,45,.75,63.15,16.95,13.42,12,19.36,27.58,19.43,45.34.15,35.12.25,70.24,0,105.36S345,236.34,309,237.74c-26.56,1-48.85-7.51-64.15-30.28a54.71,54.71,0,0,1-9.29-31Q235.54,148.68,235.56,120.93Zm58,1.57c0,16.95-.12,33.9.11,50.84a19.69,19.69,0,0,0,2.4,9.2c3.48,6,10.57,6.13,14,.08a21.48,21.48,0,0,0,2.48-10.2c.18-33.38.11-66.77.1-100.15a29,29,0,0,0-.21-4.61c-1-6.23-5-10.25-9.83-10s-8.56,4.93-9,10.88c-.11,1.36,0,2.74,0,4.11Q293.52,97.59,293.52,122.5Z"/>
        <path d="M392.19,10.29c17.87,0,35.16-.05,52.45.13,1,0,2.51,1.73,3,3s.14,3,.14,4.58q0,75.08,0,150.16v6.68h35.08c.19,2.25.45,3.91.45,5.57,0,16.28-.11,32.57.1,48.85.06,4.4-1.56,5.45-5.69,5.43q-40.37-.23-80.74,0c-4,0-5.27-1.06-5.27-5.2q.18-107.22.1-214.45C391.82,13.66,392,12.33,392.19,10.29Z"/>
        <path d="M677.26,10h54.13V171.78H677.26Z"/>
        <path d="M59,235.62H5.28c-.11-1.75-.31-3.38-.31-5q0-76-.1-152.07c0-4.13,1-5.67,5.38-5.59,14.89.26,29.8.18,44.69,0,3.29,0,4.55,1,4.54,4.36q-.12,77.58-.1,155.15C59.4,233.32,59.21,234.16,59,235.62Z"/>
        <path d="M0,33.76C-.06,15.28,15.27-.12,33.61,0A34.07,34.07,0,0,1,67.13,33.45C67.28,51.71,51.8,67.16,33.4,67.13A33.71,33.71,0,0,1,0,33.76Z"/>
        <path d="M702.63,245.17c-18.83-.09-33.14-14.74-33-33.82a33.12,33.12,0,0,1,33.6-32.87c18.27.12,33.39,15.3,33.33,33.44A33.46,33.46,0,0,1,702.63,245.17Z"/>
      </g>
    </g>
  </g>
</svg>
