<svg xmlns="http://www.w3.org/2000/svg" viewBox="0 0 823.38 305.98">
  <title>hola</title>
  <g id="a15d24a3-0a51-4225-be05-b462d21efd26" data-name="Layer 2">
    <g id="c62e47cc-5c9b-4a69-8b9e-37023fb9fe72" data-name="Capa 1">
      <g>
        <rect width="823.38" height="305.98" style="fill: #d83426"/>
        <g>
          <path d="M201.26,267V183h-21c-.12,2-.35,3.92-.35,5.89,0,24.16-.14,48.32.09,72.48,0,4.9-1.31,6.51-6.33,6.41-15.59-.3-31.18-.21-46.78,0-3.92,0-5.42-1-5.41-5.18q.15-107.18,0-214.36c0-3.87,1.36-4.95,5.11-4.91,15.93.18,31.87.2,47.8,0,4.25-.06,5.6,1.23,5.57,5.51-.18,22.62-.08,45.24-.08,67.85v6.43h21.37V43.38H211.5c14.05,0,28.1.12,42.15-.07,4-.06,5.71.83,5.7,5.33q-.19,106.92-.06,213.84c0,3-.08,5.29-4.2,5.25-16.79-.16-33.58-.06-50.38-.1A22.2,22.2,0,0,1,201.26,267Z" style="fill: #fff"/>
          <path d="M536.54,267.31c2-11.47,3.79-22.23,5.67-33q8.57-49,17.19-98,7-39.64,14.1-79.26c0-.17.07-.33.1-.5.84-4.17.34-10.05,2.89-12.07,2.82-2.23,8.43-1.09,12.83-1.11,23.48-.07,47,0,70.44,0h6.83L697.43,267.1a40.32,40.32,0,0,1-4.62.56c-15.94,0-31.88,0-47.81.07-3.5,0-5.14-.83-5.56-4.74-1.06-9.86-2.7-19.65-4.15-29.83H599.91c-1.71,9.64-3.58,19.33-5.07,29.08-.59,3.86-1.88,5.6-6.14,5.54-15.59-.23-31.19-.08-46.78-.11C540.4,267.67,538.89,267.48,536.54,267.31Zm92-83.42-8.45-61.6-.79,0L608.51,183.9Z" style="fill: #fff"/>
          <path d="M277.51,154c0-17,.52-33.94-.11-50.88-1.18-31.64,20.86-58.08,54.39-63.82,23.47-4,45,.75,63.15,16.95,13.42,12,19.36,27.58,19.43,45.34.15,35.12.25,70.24,0,105.36s-27.44,62.46-63.4,63.87c-26.56,1-48.85-7.51-64.15-30.28a54.71,54.71,0,0,1-9.29-31Q277.49,181.8,277.51,154Zm58,1.57c0,16.95-.12,33.9.11,50.84a19.68,19.68,0,0,0,2.4,9.2c3.48,6,10.57,6.13,14,.08a21.48,21.48,0,0,0,2.48-10.2c.18-33.38.11-66.77.1-100.15a29,29,0,0,0-.21-4.61c-1-6.23-5-10.25-9.83-10s-8.56,4.93-9,10.88c-.11,1.36,0,2.74,0,4.11Q335.47,130.71,335.47,155.62Z" style="fill: #fff"/>
          <path d="M434.13,43.4c17.87,0,35.16-.05,52.45.13,1,0,2.51,1.73,3,3s.14,3,.14,4.58q0,75.08,0,150.16v6.68h35.08c.19,2.25.45,3.91.45,5.57,0,16.28-.11,32.57.1,48.85.06,4.4-1.56,5.45-5.69,5.43q-40.37-.23-80.74,0c-4,0-5.27-1.06-5.27-5.2q.18-107.22.1-214.45C433.77,46.78,434,45.44,434.13,43.4Z" style="fill: #fff"/>
          <path d="M719.21,43.15h54.13V204.9H719.21Z" style="fill: #fff"/>
          <path d="M101,268.73H47.23c-.11-1.75-.31-3.38-.31-5q0-76-.1-152.07c0-4.13,1-5.67,5.38-5.59,14.89.26,29.8.18,44.69,0,3.29,0,4.55,1,4.54,4.36q-.12,77.58-.1,155.15C101.35,266.44,101.16,267.27,101,268.73Z" style="fill: #fff"/>
          <path d="M41.95,66.87C41.89,48.39,57.22,33,75.56,33.11a34.07,34.07,0,0,1,33.52,33.45c.15,18.26-15.32,33.71-33.73,33.68A33.71,33.71,0,0,1,41.95,66.87Z" style="fill: #fff"/>
          <path d="M744.58,278.29c-18.83-.09-33.14-14.74-33-33.82a33.12,33.12,0,0,1,33.6-32.87c18.27.12,33.39,15.3,33.33,33.44A33.46,33.46,0,0,1,744.58,278.29Z" style="fill: #fff"/>
        </g>
      </g>
    </g>
  </g>
</svg>
