<svg xmlns="http://www.w3.org/2000/svg" viewBox="0 0 844.04 211.75">
  <title>lacuarta-detodos</title>
  <g id="5d3cea92-6cd7-4ad7-b760-debf9054d0c4" data-name="Layer 2">
    <g id="38aef7c2-20ca-48a6-ad5a-afad58115d48" data-name="Capa 1">
      <g>
        <path d="M182.69,49.76a36.7,36.7,0,0,0-14.93-8.66A72,72,0,0,0,146,38.22c-8.57,0-16,.92-22,2.77a39.8,39.8,0,0,0-15.19,8.15A31.4,31.4,0,0,0,100.23,62a50,50,0,0,0-2.81,15.72l-.09,3.11h31.24l.39-2.57a16.73,16.73,0,0,1,4.34-9.53c2.15-2.2,6-3.32,11.46-3.32,4.77,0,8.54.82,11.23,2.42,2.27,1.37,3.28,3,3.28,5.33,0,3.49-1.29,4.77-2.26,5.43-1.38.92-4.69,2.27-12.67,3.4-6.92,1-13.41,2.11-19.28,3.32a50.59,50.59,0,0,0-16,6,29.78,29.78,0,0,0-11,11.6c-2.62,4.85-4,11.35-4,19.28,0,9.26,3.12,16.92,9.28,22.77s15.65,8.74,28.36,8.74a52.12,52.12,0,0,0,19.72-3.5,40.17,40.17,0,0,0,9.54-5.4,36.79,36.79,0,0,0,1,4l.67,2.11H193.4V82.2a63.51,63.51,0,0,0-2.46-18.29,33.34,33.34,0,0,0-8.25-14.15m-22.88,52.71-.11,5.91a16.65,16.65,0,0,1-1.69,7.44,20.91,20.91,0,0,1-11.5,10.56,23.77,23.77,0,0,1-8.7,1.58c-9.07,0-10.29-4.34-10.29-8.6,0-3.57,1.09-6.19,3.32-8,1.76-1.41,5.78-3.5,14.93-5.29a109.55,109.55,0,0,0,11.95-2.83c.74-.22,1.44-.49,2.1-.76" style="fill: #cb2128"/>
        <path d="M339.87,99.07c-1.82,8.21-5.17,14.51-9.94,18.78s-11.06,6.31-19,6.31c-10.42,0-18-3.81-23.13-11.63-5.34-8.12-8.05-19.81-8.05-34.76,0-14.68,2.74-26.31,8.16-34.56,5.22-8,13.24-11.82,24.5-11.82a26.79,26.79,0,0,1,17.13,6c5.07,4,8.54,9.73,10.34,17l.57,2.29h35l-.32-3.32a61.48,61.48,0,0,0-5.89-20.87,55.3,55.3,0,0,0-13-17.09A60,60,0,0,0,337,4.09,72.22,72.22,0,0,0,312.2,0a70.61,70.61,0,0,0-28.33,5.53,59.69,59.69,0,0,0-21.67,15.9,71.18,71.18,0,0,0-13.57,25.12,108.54,108.54,0,0,0-4.69,32.9c0,12.41,1.73,23.44,5.15,32.81a69.74,69.74,0,0,0,14.25,23.93A58.07,58.07,0,0,0,285,150.88a73.55,73.55,0,0,0,26.75,4.85,66.59,66.59,0,0,0,23.44-4A58.17,58.17,0,0,0,354,140.38a62.26,62.26,0,0,0,13.43-17.52,82.55,82.55,0,0,0,7.67-22.56l.69-3.6H340.4Z" style="fill: #cb2128"/>
        <path d="M453.6,103.94c0,6.25-1.54,11.18-4.71,15.09-3,3.72-7.46,5.53-13.59,5.53-10,0-14.51-5.06-14.51-16.4V41H387.31v71.43a47,47,0,0,0,2.83,16.69,40.14,40.14,0,0,0,7.88,13,34.71,34.71,0,0,0,12.13,8.54,38.91,38.91,0,0,0,15.43,3c12.14,0,22-3.84,29.28-11.45v8.72h32V41H453.6Z" style="fill: #cb2128"/>
        <path d="M582,49.76A36.66,36.66,0,0,0,567,41.11a72,72,0,0,0-21.72-2.89c-8.57,0-16,.92-22,2.77a39.71,39.71,0,0,0-15.18,8.15A31.42,31.42,0,0,0,499.49,62a50.27,50.27,0,0,0-2.82,15.72l-.08,3.11h31.24l.39-2.57a16.74,16.74,0,0,1,4.35-9.53c2.14-2.2,6-3.31,11.46-3.31,4.77,0,8.54.82,11.23,2.42,2.27,1.37,3.28,3,3.28,5.33,0,3.49-1.29,4.77-2.26,5.43-1.37.92-4.69,2.27-12.68,3.4-6.91,1-13.4,2.11-19.28,3.32a50.51,50.51,0,0,0-16,6,29.84,29.84,0,0,0-11,11.6c-2.62,4.85-4,11.35-4,19.28,0,9.27,3.12,16.93,9.28,22.77s15.66,8.74,28.37,8.74a52.2,52.2,0,0,0,19.72-3.5,39.89,39.89,0,0,0,9.52-5.4,38.94,38.94,0,0,0,1,4l.67,2.11h30.78V82.2a63.54,63.54,0,0,0-2.46-18.29A33.32,33.32,0,0,0,582,49.76m-44.89,78.18c-9.06,0-10.28-4.34-10.28-8.6,0-3.57,1.08-6.19,3.32-8,1.75-1.42,5.78-3.5,14.93-5.3A109.21,109.21,0,0,0,557,103.23c.74-.22,1.44-.49,2.1-.76l-.11,5.9a16.58,16.58,0,0,1-1.7,7.43,20.89,20.89,0,0,1-11.49,10.56,23.74,23.74,0,0,1-8.71,1.58" style="fill: #cb2128"/>
        <path d="M840.56,63.91a33.35,33.35,0,0,0-8.25-14.14,36.65,36.65,0,0,0-14.93-8.66,72,72,0,0,0-21.72-2.89c-8.57,0-16,.92-22,2.77a39.71,39.71,0,0,0-15.18,8.15A31.38,31.38,0,0,0,749.85,62,50.3,50.3,0,0,0,747,77.68l-.08,3.11h31.24l.39-2.57a16.7,16.7,0,0,1,4.35-9.53c2.14-2.2,6-3.31,11.45-3.31,4.78,0,8.55.82,11.23,2.42,2.27,1.37,3.29,3,3.29,5.33,0,3.49-1.29,4.77-2.27,5.43-1.37.92-4.68,2.27-12.67,3.4-6.92,1-13.4,2.11-19.28,3.32a50.49,50.49,0,0,0-16,6,29.79,29.79,0,0,0-11,11.6c-2.62,4.85-4,11.35-4,19.28,0,9.27,3.13,16.93,9.28,22.77s15.65,8.74,28.37,8.74a52.13,52.13,0,0,0,19.72-3.5,40,40,0,0,0,9.53-5.4,38.44,38.44,0,0,0,1,4l.67,2.11H843V82.2a63.82,63.82,0,0,0-2.45-18.29m-53.14,64c-9.07,0-10.28-4.34-10.28-8.6,0-3.57,1.08-6.19,3.32-8,1.76-1.42,5.77-3.5,14.93-5.3a109.85,109.85,0,0,0,12-2.83c.74-.22,1.43-.49,2.09-.76l-.11,5.9a16.53,16.53,0,0,1-1.69,7.43,20.88,20.88,0,0,1-11.49,10.56,23.72,23.72,0,0,1-8.71,1.58" style="fill: #cb2128"/>
        <path d="M652.87,39.34a31.62,31.62,0,0,0-8.74,2.2,34,34,0,0,0-8.36,5,29,29,0,0,0-2.17,1.94V39h-31.8V150.42H635.3V94.49c0-15.1,7-22.12,22.11-22.12a44,44,0,0,1,7.1.59l3.52.58V38.89h-6.6a81,81,0,0,0-8.55.44" style="fill: #cb2128"/>
        <polygon points="34.41 14.2 1.04 14.2 1.04 150.38 82.7 150.38 82.7 120.81 34.41 120.81 34.41 14.2" style="fill: #cb2128"/>
        <path d="M707.62,14.17H674.56v94.62A57.85,57.85,0,0,0,677,125.73a37.79,37.79,0,0,0,8.14,14.44A39.87,39.87,0,0,0,699.42,150c5.7,2.39,12.63,3.61,20.59,3.61a58.83,58.83,0,0,0,12.75-1.35V123.71H719.56v0c-4.13-.16-7-1.47-8.78-4-2.1-3.06-3.16-7.65-3.16-13.61V70.45h25.14V41H707.62Z" style="fill: #cb2128"/>
        <path d="M284.5,179.52c10.07,0,15.39,6.42,15.39,15.19,0,9.67-6.46,16.29-15.94,16.29H272.32V179.52Zm-1,4.11h-6v23.3h5.66c7.72,0,11.38-5.21,11.38-12.18,0-6.41-3.26-11.12-11-11.12" style="fill: #626365"/>
        <polygon points="336.76 179.52 336.76 183.63 322.73 183.63 322.73 193.05 334.86 193.05 334.86 197.06 322.73 197.06 322.73 206.94 336.76 206.94 336.76 210.99 317.57 210.99 317.57 179.52 336.76 179.52" style="fill: #626365"/>
        <polygon points="371.99 179.52 396.24 179.52 396.24 183.63 386.67 183.63 386.67 210.99 381.56 210.99 381.56 183.63 371.99 183.63 371.99 179.52" style="fill: #626365"/>
        <path d="M440.64,195.31c0,10.77-6.87,16.43-15.18,16.43-9,0-15-6.06-15-16.54s6.81-16.44,15.19-16.44c8.87,0,15,6.16,15,16.54m-24.66-.1c0,8.37,4.06,12.28,9.47,12.28s9.67-3.66,9.67-12.18S431.07,183,425.51,183c-5.36,0-9.52,3.41-9.52,12.18" style="fill: #626365"/>
        <path d="M470.51,179.52c10.07,0,15.39,6.42,15.39,15.19,0,9.67-6.47,16.29-15.94,16.29H458.33V179.52Zm-1,4.11h-6v23.3h5.66c7.72,0,11.38-5.21,11.38-12.18,0-6.41-3.25-11.12-11-11.12" style="fill: #626365"/>
        <path d="M531.84,195.31c0,10.77-6.86,16.43-15.18,16.43-9,0-15-6.06-15-16.54s6.82-16.44,15.18-16.44c8.87,0,15,6.16,15,16.54m-24.66-.1c0,8.37,4.06,12.28,9.47,12.28s9.67-3.66,9.67-12.18S522.27,183,516.7,183c-5.36,0-9.52,3.41-9.52,12.18" style="fill: #626365"/>
        <path d="M559.5,183c-3.81,0-5.92,1.6-5.92,4.06,0,2.25,1.81,3.71,4.91,4.51l4.51,1.15c6.31,1.65,8.72,4.56,8.72,8.92,0,6.21-5.06,10.12-12.23,10.12-6.22,0-11-2.71-12.73-9l4.36-1.65c1.3,4.61,4.41,6.46,8.52,6.46s6.82-2,6.82-5.21c0-2.41-1.4-3.81-5-4.76l-4.41-1.1c-5.66-1.45-8.62-4.56-8.62-8.92,0-5.16,4.41-8.82,11.42-8.82,6.07,0,10.18,2.61,11.48,7.47l-4.31,1.86c-1.1-3.21-3.46-5.11-7.57-5.11" style="fill: #626365"/>
        <rect y="190.86" width="235.67" height="4.57" style="fill: #626365"/>
        <rect x="608.37" y="190.86" width="235.67" height="4.57" style="fill: #626365"/>
      </g>
    </g>
  </g>
</svg>
