<svg xmlns="http://www.w3.org/2000/svg" viewBox="0 0 680.78 200.27">
  <title>lt-pulso</title>
  <g id="5575a39d-ad42-4be9-afba-8873bd2f507d" data-name="Layer 2">
    <g id="3afacf16-21f3-40e3-a0e1-a0490b8c0a59" data-name="Capa 1">
      <g>
        <g>
          <rect y="2.79" width="169.14" height="162.37" style="fill: #a21521"/>
          <polygon points="20.25 32.59 36.54 32.59 36.54 121.66 83.15 121.66 83.15 136.12 20.25 136.12 20.25 32.59" style="fill: #fff"/>
          <polygon points="101.79 47.04 71.04 47.04 71.04 32.59 148.84 32.59 148.84 47.04 118.08 47.04 118.08 136.12 101.79 136.12 101.79 47.04" style="fill: #fff"/>
          <g>
            <polygon points="39.89 178.46 32.82 178.46 32.82 175.12 50.73 175.12 50.73 178.46 43.65 178.46 43.65 198.97 39.89 198.97 39.89 178.46" style="fill: #a21521"/>
            <path d="M87.36,199H82.91l-4.06-5.8a10.75,10.75,0,0,1-1.72.11H74.77V199H71V175.12h6.1c6.56,0,10.17,3.61,10.17,9.12,0,3.67-1.65,6.52-4.77,8ZM77,190.05c4.58,0,6.44-2.17,6.44-5.81s-1.89-5.78-6.44-5.78H74.77v11.6Z" style="fill: #a21521"/>
            <path d="M88.83,187A12,12,0,0,1,101,174.81c4.42,0,7.46,1.72,9.54,4.62l-2.87,2a7.69,7.69,0,0,0-6.77-3.27c-4.74,0-8.17,3.79-8.17,8.84s3.52,8.84,8.3,8.84a8.46,8.46,0,0,0,7.16-3.48l2.91,2c-2.46,3.27-5.58,4.88-10.2,4.88A11.88,11.88,0,0,1,88.83,187" style="fill: #a21521"/>
            <path d="M147.23,199h-4.45l-4.08-5.8a10.51,10.51,0,0,1-1.7.11h-2.35V199H130.9V175.12H137c6.55,0,10.17,3.61,10.17,9.12,0,3.67-1.66,6.52-4.78,8Zm-10.39-8.91c4.61,0,6.46-2.17,6.46-5.81s-1.9-5.78-6.46-5.78h-2.19v11.6Z" style="fill: #a21521"/>
            <path d="M151.79,199H148l10.45-24.33h.21L169.14,199h-4l-1.37-3.33H153.16Zm6.73-16.1-4,9.43h7.86Z" style="fill: #a21521"/>
            <polygon points="128.65 195.63 116.88 195.63 116.88 191.6 127 191.6 127 188.34 116.88 188.34 116.88 178.46 128.65 178.46 128.65 175.12 113.13 175.12 113.13 198.97 128.65 198.97 128.65 195.63" style="fill: #a21521"/>
            <polygon points="56.83 191.6 66.96 191.6 66.96 188.34 56.83 188.34 56.83 178.46 68.74 178.46 68.74 175.12 53.08 175.12 53.08 198.97 68.75 198.97 68.75 195.63 56.83 195.63 56.83 191.6" style="fill: #a21521"/>
            <polygon points="0 175.14 3.75 175.14 3.75 195.65 14.52 195.65 14.52 198.98 0 198.98 0 175.14" style="fill: #a21521"/>
            <path d="M15.61,199H11.83l10.44-24.33h.23L33,199H29l-1.35-3.33H17Zm6.73-16.09-4,9.43h7.84Z" style="fill: #a21521"/>
          </g>
        </g>
        <g>
          <path d="M269.48,10.71l-75.57.21V22.59l85.33-.28a30.93,30.93,0,0,0-9.76-11.6"/>
          <path d="M276.26,109.53l-82.05.19.07,11.75,65-.17a33.92,33.92,0,0,0,16.94-11.77"/>
          <polygon points="194.14 84.5 226.19 84.33 226.19 72.54 194.14 72.67 194.14 84.5"/>
          <path d="M282,97.25l-87.8.17,0,11.69,82.59-.28A33.38,33.38,0,0,0,282,97.25"/>
          <path d="M283.46,85.3l0-.45-32.14.07v.43c0,7.89-3.78,11.28-11,11.28h-14V85l-32.06,0,.07,11.68,88-.21a50.38,50.38,0,0,0,1.28-11.23"/>
          <path d="M226.36,124h14A64.4,64.4,0,0,0,257,122l-62.72.11v11.72l32.09-.06V124"/>
          <polygon points="194.09 72.05 226.19 71.93 226.13 60.16 194.08 60.36 194.09 72.05"/>
          <polygon points="194.39 146.17 226.45 146.17 226.37 134.41 194.28 134.41 194.39 146.17"/>
          <polygon points="194.45 195.63 226.48 195.49 226.48 183.87 194.45 183.87 194.45 195.63"/>
          <polygon points="194.45 198.96 226.51 198.9 226.48 196.13 194.45 196.21 194.45 198.96"/>
          <polygon points="194.45 183.32 226.48 183.14 226.45 171.48 194.39 171.54 194.45 183.32"/>
          <polygon points="194.39 158.49 226.45 158.4 226.45 146.79 194.39 146.93 194.39 158.49"/>
          <polygon points="194.39 170.87 226.45 170.83 226.45 159.1 194.39 159.22 194.39 170.87"/>
          <polygon points="251.26 59.58 283.36 59.41 283.36 47.7 251.26 47.79 251.26 59.58"/>
          <path d="M226.11,30.26h14c4.44,0,7.77,1.65,9.57,4.63l33.16-.18a40.32,40.32,0,0,0-3.22-11.56l-85.65.11L194,35l32.06-.15V30.26"/>
          <path d="M283.36,41.37c-.15-2-.21-4.06-.43-6l-33,0a14.07,14.07,0,0,1,1.33,6l0,5.69,32.06,0,0-5.77"/>
          <polygon points="251.28 84.23 283.46 84.23 283.36 72.46 251.28 72.54 251.28 84.23"/>
          <polygon points="251.28 71.79 283.31 71.79 283.31 60.03 251.26 60.14 251.28 71.79"/>
          <polygon points="194.08 47.33 226.1 47.16 226.1 35.56 194.04 35.67 194.08 47.33"/>
          <polygon points="194.08 59.7 226.13 59.6 226.05 47.88 194.08 48.02 194.08 59.7"/>
          <path d="M240,2.79l-46.1.16,0,7.25,74.54-.2C261.53,5.39,252.14,2.73,240,2.79"/>
          <polygon points="295.75 9.97 327.82 9.86 327.82 2.54 295.71 2.62 295.75 9.97"/>
          <polygon points="353.78 22.02 385.9 22.06 385.9 10.34 353.73 10.34 353.78 22.02"/>
          <polygon points="295.75 22.31 327.89 22.19 327.82 10.52 295.75 10.52 295.75 22.31"/>
          <path d="M386.3,158.69H354.18l-.06,2c.06,4.9-1.95,8.09-5.48,9.85l36.66-.16a44.23,44.23,0,0,0,1-9.73v-1.93"/>
          <polygon points="354.08 145.74 386.18 145.54 386.18 133.87 354.08 133.96 354.08 145.74"/>
          <polygon points="354.03 96.38 386.08 96.23 386.08 84.5 353.94 84.56 354.03 96.38"/>
          <polygon points="354.03 108.61 386.08 108.54 386.08 96.82 354.03 96.93 354.03 108.61"/>
          <polygon points="354.03 120.96 386.18 120.88 386.08 109.17 354.03 109.35 354.03 120.96"/>
          <polygon points="354.08 133.3 386.18 133.3 386.18 121.58 354.03 121.58 354.08 133.3"/>
          <polygon points="295.98 108.83 328.11 108.66 328.06 97.02 295.98 97.02 295.98 108.83"/>
          <polygon points="296.11 133.55 328.16 133.4 328.16 121.7 296.03 121.81 296.11 133.55"/>
          <polygon points="354.18 158.09 386.3 158.04 386.18 146.29 354.08 146.32 354.18 158.09"/>
          <polygon points="295.98 121.12 328.12 121.08 328.12 109.36 295.98 109.53 295.98 121.12"/>
          <polygon points="295.89 59.36 327.95 59.27 327.93 47.6 295.82 47.67 295.89 59.36"/>
          <path d="M328.28,160.81v-2l-32.12,0v2a42,42,0,0,0,1.12,9.82l36.56-.13c-3.56-1.65-5.55-4.81-5.57-9.73"/>
          <polygon points="353.91 71.52 386.03 71.47 386 59.88 353.91 59.92 353.91 71.52"/>
          <polygon points="296.16 145.97 328.16 145.82 328.16 134.09 296.11 134.14 296.16 145.97"/>
          <polygon points="353.94 83.93 386.08 83.85 386.03 72.05 353.91 72.15 353.94 83.93"/>
          <path d="M341.34,171.94a18.88,18.88,0,0,1-5.83-.83l-38.1,0a33.9,33.9,0,0,0,4.9,11.81l77.95-.34A34.49,34.49,0,0,0,385.14,171l-38.1.07"/>
          <polygon points="296.17 158.28 328.28 158.11 328.2 146.48 296.16 146.54 296.17 158.28"/>
          <polygon points="295.89 71.79 328.01 71.67 327.98 60.02 295.89 60.03 295.89 71.79"/>
          <path d="M379.91,183.34l-77.19.24a35.23,35.23,0,0,0,14,11.66l49.33-.08a36,36,0,0,0,13.87-11.82"/>
          <path d="M341.46,200.27c9.09-.17,16.84-1.76,23.25-4.53l-46.68.07c6.46,2.92,14.22,4.45,23.42,4.45"/>
          <polygon points="353.91 59.15 386 59.06 385.98 47.42 353.91 47.47 353.91 59.15"/>
          <polygon points="295.8 34.67 327.95 34.57 327.89 22.99 295.75 22.99 295.8 34.67"/>
          <polygon points="295.8 46.92 327.95 46.84 327.95 35.24 295.82 35.31 295.8 46.92"/>
          <polygon points="353.82 34.57 385.95 34.47 385.9 22.73 353.78 22.73 353.82 34.57"/>
          <polygon points="353.91 46.84 385.95 46.63 385.95 35.04 353.82 35.24 353.91 46.84"/>
          <polygon points="295.89 84.18 328.06 83.98 328.01 72.3 295.89 72.38 295.89 84.18"/>
          <polygon points="295.98 96.53 328.06 96.38 328.06 84.74 295.94 84.74 295.98 96.53"/>
          <polygon points="353.73 9.8 385.9 9.73 385.8 2.4 353.73 2.51 353.73 9.8"/>
          <polygon points="406.04 170.29 438.18 170.18 438.15 158.44 405.98 158.63 406.04 170.29"/>
          <polygon points="405.92 120.88 438.09 120.88 437.96 109.05 405.84 109.12 405.92 120.88"/>
          <polygon points="405.82 83.76 437.94 83.61 437.91 71.93 405.74 72 405.82 83.76"/>
          <polygon points="438.22 171.11 438.15 170.83 406.04 170.9 406.04 182.61 481.22 182.37 481.09 170.9 438.22 171.11"/>
          <polygon points="405.95 145.54 438.15 145.52 438.12 133.73 405.95 133.87 405.95 145.54"/>
          <polygon points="405.84 108.47 438 108.36 437.94 96.64 405.84 96.75 405.84 108.47"/>
          <polygon points="405.95 133.21 438.09 133.15 438.09 121.35 405.92 121.54 405.95 133.21"/>
          <polygon points="405.87 96.1 437.94 96.07 437.94 84.33 405.84 84.5 405.87 96.1"/>
          <polygon points="405.98 157.87 438.15 157.84 438.15 146.17 405.95 146.17 405.98 157.87"/>
          <polygon points="406.18 198.3 481.25 198.03 481.22 195.36 406.13 195.63 406.18 198.3"/>
          <polygon points="405.74 59.06 437.86 58.99 437.86 47.16 405.74 47.33 405.74 59.06"/>
          <polygon points="405.77 71.35 437.91 71.35 437.86 59.6 405.74 59.7 405.77 71.35"/>
          <polygon points="406.18 195.01 481.25 194.72 481.18 183.09 406.04 183.32 406.18 195.01"/>
          <polygon points="405.65 34.38 437.83 34.29 437.77 22.51 405.6 22.73 405.65 34.38"/>
          <polygon points="405.74 46.63 437.86 46.54 437.83 34.89 405.65 35.04 405.74 46.63"/>
          <polygon points="405.6 21.87 437.77 21.87 437.77 10.16 405.6 10.2 405.6 21.87"/>
          <polygon points="405.6 9.73 437.77 9.57 437.77 2.22 405.6 2.37 405.6 9.73"/>
          <path d="M531.38.27c-13.83.1-24.24,3.31-31.58,9.13l62.27-.19c-7.2-5.63-17.47-9-30.68-8.94"/>
          <path d="M531.92,171.43a24.19,24.19,0,0,1-6-.75h-38a33.36,33.36,0,0,0,4.83,11.69l78.24-.21a35.62,35.62,0,0,0,4.83-11.66l-38.18,0a17.89,17.89,0,0,1-5.71.89"/>
          <path d="M541.55,132.76h34.26A53.78,53.78,0,0,0,572.46,121l-41.7.16c4.43,3.59,8.22,7.28,10.79,11.64"/>
          <polygon points="544.46 58.7 575.6 58.53 575.58 46.84 544.38 46.92 544.46 58.7"/>
          <path d="M486.67,160.32a49.24,49.24,0,0,0,1,9.7l36.48-.13c-3.65-1.58-6-4.73-6-9.66v-1.94l-31.48.08v2"/>
          <path d="M492.32,83.6l43.2-.25c-4.84-3.67-9.12-7.44-12.09-11.6l-34.94,0a52.58,52.58,0,0,0,3.82,11.8"/>
          <path d="M529.94,120.55l42.23-.14a52.59,52.59,0,0,0-7.05-11.75l-50.89.17c5.45,4.15,11,7.85,15.71,11.72"/>
          <path d="M513.41,108.23l51.23-.13a79.1,79.1,0,0,0-11.88-11.72l-52,.16a87.76,87.76,0,0,0,12.66,11.69"/>
          <polygon points="544.46 71 575.6 70.91 575.6 59.27 544.42 59.36 544.46 71"/>
          <path d="M487.17,46.45l32.07,0v-8a9.67,9.67,0,0,1,.7-3.77l-32.59,0c-.12,1.32-.18,2.57-.18,3.73v8"/>
          <path d="M544.67,144.42v.84l32.09-.2v-1.81a70.61,70.61,0,0,0-.84-10l-34,.1a22.83,22.83,0,0,1,2.78,11"/>
          <polygon points="486.71 157.7 518.15 157.66 518.12 145.97 486.61 145.99 486.71 157.7"/>
          <polygon points="544.67 157.52 576.77 157.46 576.77 145.74 544.67 145.86 544.67 157.52"/>
          <polygon points="487.22 58.74 519.31 58.74 519.24 47.06 487.17 47.14 487.22 58.74"/>
          <path d="M500.18,96l51.78-.3c-5.23-4.19-10.72-7.91-15.62-11.52l-43.77,0A58.83,58.83,0,0,0,500.18,96"/>
          <path d="M570.64,182.78l-77.59.31a35,35,0,0,0,13.84,11.61l49.65-.09a36,36,0,0,0,14.1-11.83"/>
          <polygon points="486.61 145.4 518.12 145.21 518.06 133.55 486.61 133.63 486.61 145.4"/>
          <path d="M487.22,59.58a60,60,0,0,0,1.18,11.6L523.05,71a21.83,21.83,0,0,1-3.72-11.63l-32.1.16"/>
          <path d="M487.31,34.15l32.83-.06c1.72-3.51,5.68-5.43,11.31-5.43,5.16-.12,9.31,1.79,11.37,5.34l32.38,0a43.42,43.42,0,0,0-3.13-11.77l-82,.25a40.1,40.1,0,0,0-2.78,11.72"/>
          <path d="M531.38,199.64c9.43,0,17.39-1.65,23.87-4.48l-47.05.12a57.71,57.71,0,0,0,23.18,4.36"/>
          <path d="M576.77,158.09l-32.09.17.05,3.32a8.8,8.8,0,0,1-5.31,8.3l36.48-.13a35.82,35.82,0,0,0,.87-8.76v-2.89"/>
          <polygon points="486.61 133 518.06 132.96 518.06 127.96 486.61 128.15 486.61 133"/>
          <path d="M544.38,39.76V46.3h31.2V39.58a45.75,45.75,0,0,0-.29-5H543.19a12.11,12.11,0,0,1,1.19,5.19"/>
          <path d="M490.35,21.8l81.37-.28A32.77,32.77,0,0,0,562.78,9.8l-63.73.2a31.79,31.79,0,0,0-8.7,11.8"/>
          <path d="M594.28,21.46l82.16-.15a32.88,32.88,0,0,0-9.21-11.73l-63.73.23a31.86,31.86,0,0,0-9.22,11.66"/>
          <polygon points="648.63 132.47 680.68 132.35 680.68 120.7 648.63 120.88 648.63 132.47"/>
          <polygon points="648.72 144.89 680.73 144.79 680.68 133.02 648.63 133.21 648.72 144.89"/>
          <polygon points="648.51 107.77 680.68 107.74 680.61 95.99 648.51 96.07 648.51 107.77"/>
          <polygon points="648.63 120.18 680.65 120.06 680.65 108.36 648.51 108.47 648.63 120.18"/>
          <polygon points="648.51 95.37 680.61 95.37 680.57 83.61 648.46 83.76 648.51 95.37"/>
          <polygon points="648.72 157.29 680.78 157.15 680.78 145.4 648.72 145.52 648.72 157.29"/>
          <polygon points="590.42 70.88 622.56 70.77 622.52 59.06 590.36 59.15 590.42 70.88"/>
          <path d="M648.72,159.79a10.59,10.59,0,0,1-6,9.83l37.05-.06a49,49,0,0,0,1-9.85v-2l-32.06.14v1.92"/>
          <polygon points="590.68 145.06 622.76 144.98 622.73 133.21 590.56 133.3 590.68 145.06"/>
          <polygon points="590.68 157.43 622.8 157.33 622.76 145.54 590.68 145.74 590.68 157.43"/>
          <polygon points="590.6 132.76 622.73 132.64 622.63 120.88 590.6 120.92 590.6 132.76"/>
          <path d="M611.17,194.35l49.3-.13a34.76,34.76,0,0,0,14-11.69l-77.19.26a33.69,33.69,0,0,0,13.92,11.57"/>
          <polygon points="648.46 83.06 680.57 82.94 680.53 71.23 648.46 71.35 648.46 83.06"/>
          <path d="M635.56,171.11a15.76,15.76,0,0,1-5.19-.82l-38.47.09a37.69,37.69,0,0,0,5,11.69l77.94-.18a34.25,34.25,0,0,0,4.86-11.71l-38.57.11a19.62,19.62,0,0,1-5.53.82"/>
          <path d="M590.74,33.8l33.19-.13c2.07-3.41,6.14-5.31,11.28-5.44,5.36,0,9.53,2,11.66,5.38l33.2,0a43.77,43.77,0,0,0-3.27-11.71l-82.9.16a42.39,42.39,0,0,0-3.15,11.77"/>
          <polygon points="590.56 120.41 622.66 120.29 622.66 108.54 590.5 108.66 590.56 120.41"/>
          <path d="M648.3,39.39l.16,6.62,32-.12V39.35a33.66,33.66,0,0,0-.35-5.13l-33,.16a11,11,0,0,1,1.13,5"/>
          <polygon points="590.5 95.64 622.6 95.64 622.56 83.85 590.42 83.93 590.5 95.64"/>
          <polygon points="590.42 83.24 622.56 83.06 622.56 71.35 590.42 71.47 590.42 83.24"/>
          <polygon points="648.46 58.32 680.56 58.25 680.47 46.45 648.46 46.6 648.46 58.32"/>
          <path d="M590.36,46.2l32.12-.08V39.5a11.44,11.44,0,0,1,1.12-5.12l-33,.09a48.42,48.42,0,0,0-.23,5.11V46.2"/>
          <polygon points="648.46 70.75 680.53 70.6 680.56 58.89 648.46 59.06 648.46 70.75"/>
          <path d="M590.74,160a48.22,48.22,0,0,0,1,9.71l37.05,0a10.31,10.31,0,0,1-6-9.72v-2l-32.16,0,.1,2"/>
          <polygon points="590.53 107.93 622.66 107.77 622.6 96.1 590.5 96.23 590.53 107.93"/>
          <polygon points="590.38 58.46 622.52 58.42 622.52 46.63 590.36 46.84 590.38 58.46"/>
          <path d="M635.69,199.36c9.22,0,17-1.59,23.44-4.48L612.5,195c6.37,2.87,14.09,4.35,23.19,4.35"/>
          <path d="M635.13,0C622,0,611.64,3.35,604.25,9.07L666.4,9c-7.49-5.71-17.94-9-31.27-9"/>
        </g>
      </g>
    </g>
  </g>
</svg>
