<svg xmlns="http://www.w3.org/2000/svg" viewBox="0 0 681.51 200.55">
  <title>lt-pulsoblack</title>
  <g id="c7f51246-4d3f-4eef-885f-946267573f6d" data-name="Layer 2">
    <g id="6c32c5fe-2025-4118-a822-580a8f8e8004" data-name="Layer 1">
      <g>
        <g>
          <path d="M270.2,10.71l-75.56.21V22.59L280,22.31a30.9,30.9,0,0,0-9.76-11.6"/>
          <path d="M277,109.53l-82.06.19.07,11.75,65-.17A33.91,33.91,0,0,0,277,109.53"/>
          <polygon points="194.86 84.5 226.92 84.33 226.92 72.54 194.86 72.67 194.86 84.5"/>
          <path d="M282.71,97.25l-87.8.17,0,11.69,82.59-.28a33.38,33.38,0,0,0,5.19-11.58"/>
          <path d="M284.19,85.3l0-.45L252,84.93v.43c0,7.89-3.78,11.28-11,11.28h-14V85l-32.06,0,.07,11.68,88-.21a50.39,50.39,0,0,0,1.28-11.23"/>
          <path d="M227.08,124h14A64.37,64.37,0,0,0,257.73,122l-62.73.11v11.72l32.09-.06V124"/>
          <polygon points="194.82 72.05 226.92 71.93 226.86 60.16 194.81 60.36 194.82 72.05"/>
          <polygon points="195.11 146.17 227.17 146.17 227.09 134.41 195 134.41 195.11 146.17"/>
          <polygon points="195.17 195.63 227.2 195.49 227.2 183.87 195.17 183.87 195.17 195.63"/>
          <polygon points="195.17 198.96 227.23 198.9 227.2 196.13 195.17 196.21 195.17 198.96"/>
          <polygon points="195.17 183.32 227.2 183.14 227.17 171.48 195.11 171.54 195.17 183.32"/>
          <polygon points="195.11 158.49 227.17 158.4 227.17 146.79 195.11 146.93 195.11 158.49"/>
          <polygon points="195.11 170.87 227.17 170.83 227.17 159.1 195.11 159.22 195.11 170.87"/>
          <polygon points="251.98 59.58 284.08 59.41 284.08 47.7 251.98 47.79 251.98 59.58"/>
          <path d="M226.83,30.26h14c4.44,0,7.77,1.65,9.57,4.63l33.16-.18a40.34,40.34,0,0,0-3.22-11.56l-85.65.11L194.76,35l32.06-.15V30.26"/>
          <path d="M284.08,41.37c-.15-2-.21-4.06-.43-6l-33,0a14.06,14.06,0,0,1,1.33,6l0,5.69,32.06,0,0-5.77"/>
          <polygon points="252 84.23 284.19 84.23 284.08 72.46 252 72.54 252 84.23"/>
          <polygon points="252 71.79 284.04 71.79 284.04 60.03 251.98 60.14 252 71.79"/>
          <polygon points="194.81 47.33 226.83 47.16 226.83 35.56 194.76 35.67 194.81 47.33"/>
          <polygon points="194.81 59.7 226.86 59.6 226.77 47.88 194.81 48.02 194.81 59.7"/>
          <path d="M240.69,2.79l-46.1.16,0,7.26,74.54-.2c-6.92-4.62-16.31-7.27-28.49-7.21"/>
          <polygon points="296.47 9.97 328.54 9.86 328.54 2.54 296.44 2.62 296.47 9.97"/>
          <polygon points="354.5 22.02 386.62 22.07 386.62 10.34 354.45 10.34 354.5 22.02"/>
          <polygon points="296.47 22.31 328.61 22.19 328.54 10.52 296.47 10.52 296.47 22.31"/>
          <path d="M387,158.69H354.9l-.06,2c.06,4.9-1.94,8.09-5.48,9.85l36.66-.16a44.26,44.26,0,0,0,1-9.73v-1.93"/>
          <polygon points="354.8 145.74 386.9 145.54 386.9 133.87 354.8 133.96 354.8 145.74"/>
          <polygon points="354.75 96.38 386.8 96.23 386.8 84.5 354.67 84.56 354.75 96.38"/>
          <polygon points="354.75 108.61 386.8 108.54 386.8 96.82 354.75 96.93 354.75 108.61"/>
          <polygon points="354.75 120.96 386.9 120.88 386.8 109.17 354.75 109.35 354.75 120.96"/>
          <polygon points="354.8 133.3 386.9 133.3 386.9 121.58 354.75 121.58 354.8 133.3"/>
          <polygon points="296.71 108.83 328.83 108.66 328.79 97.02 296.71 97.02 296.71 108.83"/>
          <polygon points="296.83 133.55 328.88 133.4 328.88 121.7 296.75 121.81 296.83 133.55"/>
          <polygon points="354.9 158.09 387.02 158.04 386.9 146.29 354.8 146.32 354.9 158.09"/>
          <polygon points="296.71 121.12 328.84 121.08 328.84 109.36 296.71 109.53 296.71 121.12"/>
          <polygon points="296.62 59.36 328.68 59.27 328.65 47.6 296.55 47.67 296.62 59.36"/>
          <path d="M329,160.81v-2l-32.11,0v2a42,42,0,0,0,1.12,9.82l36.56-.13c-3.56-1.65-5.55-4.81-5.57-9.73"/>
          <polygon points="354.64 71.52 386.75 71.47 386.72 59.88 354.64 59.92 354.64 71.52"/>
          <polygon points="296.88 145.97 328.88 145.82 328.88 134.09 296.83 134.14 296.88 145.97"/>
          <polygon points="354.67 83.93 386.8 83.85 386.75 72.05 354.64 72.15 354.67 83.93"/>
          <path d="M342.06,171.94a18.91,18.91,0,0,1-5.83-.83l-38.1,0A33.91,33.91,0,0,0,303,183l77.95-.34A34.5,34.5,0,0,0,385.86,171l-38.1.07"/>
          <polygon points="296.89 158.28 329 158.11 328.93 146.48 296.88 146.55 296.89 158.28"/>
          <polygon points="296.62 71.79 328.74 71.67 328.7 60.02 296.62 60.03 296.62 71.79"/>
          <path d="M380.63,183.34l-77.19.24a35.21,35.21,0,0,0,14,11.66l49.33-.08a36.07,36.07,0,0,0,13.87-11.82"/>
          <path d="M342.18,200.27c9.09-.17,16.84-1.76,23.25-4.53l-46.68.07c6.46,2.92,14.22,4.45,23.42,4.45"/>
          <polygon points="354.64 59.15 386.72 59.06 386.71 47.42 354.64 47.47 354.64 59.15"/>
          <polygon points="296.52 34.67 328.68 34.57 328.61 22.99 296.47 22.99 296.52 34.67"/>
          <polygon points="296.52 46.92 328.68 46.85 328.68 35.24 296.55 35.31 296.52 46.92"/>
          <polygon points="354.54 34.57 386.67 34.47 386.62 22.73 354.5 22.73 354.54 34.57"/>
          <polygon points="354.64 46.85 386.67 46.63 386.67 35.04 354.54 35.24 354.64 46.85"/>
          <polygon points="296.62 84.18 328.79 83.98 328.74 72.3 296.62 72.38 296.62 84.18"/>
          <polygon points="296.71 96.53 328.79 96.38 328.79 84.74 296.66 84.74 296.71 96.53"/>
          <polygon points="354.45 9.8 386.62 9.73 386.53 2.4 354.45 2.51 354.45 9.8"/>
          <polygon points="406.77 170.29 438.9 170.18 438.87 158.44 406.71 158.63 406.77 170.29"/>
          <polygon points="406.64 120.88 438.82 120.88 438.69 109.05 406.56 109.12 406.64 120.88"/>
          <polygon points="406.55 83.76 438.67 83.61 438.63 71.93 406.47 72 406.55 83.76"/>
          <polygon points="438.94 171.11 438.87 170.83 406.77 170.9 406.77 182.61 481.95 182.37 481.81 170.9 438.94 171.11"/>
          <polygon points="406.67 145.54 438.87 145.52 438.85 133.73 406.67 133.87 406.67 145.54"/>
          <polygon points="406.56 108.47 438.73 108.36 438.67 96.64 406.56 96.75 406.56 108.47"/>
          <polygon points="406.67 133.21 438.82 133.15 438.82 121.35 406.64 121.54 406.67 133.21"/>
          <polygon points="406.59 96.1 438.67 96.07 438.67 84.33 406.56 84.5 406.59 96.1"/>
          <polygon points="406.71 157.87 438.87 157.84 438.87 146.17 406.67 146.17 406.71 157.87"/>
          <polygon points="406.9 198.3 481.97 198.03 481.95 195.36 406.85 195.63 406.9 198.3"/>
          <polygon points="406.47 59.06 438.58 58.99 438.58 47.16 406.47 47.33 406.47 59.06"/>
          <polygon points="406.49 71.35 438.63 71.35 438.58 59.6 406.47 59.7 406.49 71.35"/>
          <polygon points="406.9 195.01 481.97 194.72 481.9 183.09 406.77 183.32 406.9 195.01"/>
          <polygon points="406.37 34.38 438.56 34.29 438.49 22.51 406.33 22.73 406.37 34.38"/>
          <polygon points="406.47 46.63 438.58 46.54 438.56 34.89 406.37 35.04 406.47 46.63"/>
          <polygon points="406.33 21.87 438.49 21.87 438.49 10.16 406.33 10.2 406.33 21.87"/>
          <polygon points="406.33 9.73 438.49 9.57 438.49 2.22 406.33 2.37 406.33 9.73"/>
          <path d="M532.1.27c-13.83.1-24.24,3.31-31.58,9.13l62.27-.19c-7.2-5.63-17.47-9-30.68-8.94"/>
          <path d="M532.64,171.43a24.2,24.2,0,0,1-6-.75h-38a33.38,33.38,0,0,0,4.83,11.69l78.24-.21a35.64,35.64,0,0,0,4.83-11.66l-38.18,0a17.91,17.91,0,0,1-5.71.89"/>
          <path d="M542.27,132.76h34.26a53.77,53.77,0,0,0-3.35-11.8l-41.7.16c4.42,3.59,8.22,7.28,10.78,11.64"/>
          <polygon points="545.19 58.7 576.33 58.53 576.3 46.85 545.11 46.92 545.19 58.7"/>
          <path d="M487.4,160.32a49.26,49.26,0,0,0,1,9.7l36.48-.13c-3.65-1.58-6-4.73-6-9.66v-1.94l-31.48.08v2"/>
          <path d="M493,83.6l43.2-.25c-4.84-3.67-9.12-7.44-12.08-11.6l-34.94,0A52.52,52.52,0,0,0,493,83.6"/>
          <path d="M530.67,120.55l42.23-.14a52.6,52.6,0,0,0-7.05-11.75l-50.89.17c5.45,4.15,11,7.85,15.72,11.72"/>
          <path d="M514.13,108.23l51.23-.13a79.06,79.06,0,0,0-11.88-11.72l-52,.16a87.73,87.73,0,0,0,12.66,11.69"/>
          <polygon points="545.19 71 576.33 70.91 576.33 59.27 545.14 59.36 545.19 71"/>
          <path d="M487.89,46.45l32.07,0v-8a9.66,9.66,0,0,1,.7-3.77l-32.59,0c-.12,1.32-.18,2.57-.18,3.73v8"/>
          <path d="M545.4,144.42v.84l32.09-.2v-1.81a70.75,70.75,0,0,0-.83-10l-34,.1a22.83,22.83,0,0,1,2.78,11"/>
          <polygon points="487.43 157.7 518.87 157.66 518.84 145.97 487.33 145.99 487.43 157.7"/>
          <polygon points="545.4 157.52 577.49 157.46 577.49 145.74 545.4 145.86 545.4 157.52"/>
          <polygon points="487.95 58.74 520.04 58.74 519.96 47.06 487.89 47.14 487.95 58.74"/>
          <path d="M500.9,96l51.78-.3c-5.23-4.19-10.72-7.91-15.62-11.51l-43.77,0A58.88,58.88,0,0,0,500.9,96"/>
          <path d="M571.36,182.78l-77.59.31a35,35,0,0,0,13.84,11.61l49.65-.09a36,36,0,0,0,14.1-11.83"/>
          <polygon points="487.33 145.4 518.84 145.21 518.78 133.55 487.33 133.63 487.33 145.4"/>
          <path d="M487.95,59.58a60,60,0,0,0,1.18,11.6L523.77,71a21.81,21.81,0,0,1-3.72-11.63l-32.1.16"/>
          <path d="M488,34.15l32.83-.06c1.72-3.51,5.68-5.43,11.32-5.43,5.16-.12,9.31,1.79,11.37,5.34l32.38,0a43.42,43.42,0,0,0-3.14-11.77l-82,.25A40.05,40.05,0,0,0,488,34.15"/>
          <path d="M532.1,199.64c9.43,0,17.39-1.65,23.87-4.48l-47.05.12a57.7,57.7,0,0,0,23.18,4.36"/>
          <path d="M577.49,158.09l-32.09.17.05,3.32a8.8,8.8,0,0,1-5.31,8.3l36.48-.13a35.81,35.81,0,0,0,.87-8.76v-2.89"/>
          <polygon points="487.33 133 518.78 132.96 518.78 127.96 487.33 128.15 487.33 133"/>
          <path d="M545.1,39.76V46.3h31.2V39.58a45.77,45.77,0,0,0-.29-5H543.92a12.12,12.12,0,0,1,1.19,5.19"/>
          <path d="M491.07,21.81l81.37-.28A32.74,32.74,0,0,0,563.51,9.8l-63.73.2a31.78,31.78,0,0,0-8.7,11.8"/>
          <path d="M595,21.46l82.16-.15A32.86,32.86,0,0,0,668,9.57l-63.73.23A31.86,31.86,0,0,0,595,21.46"/>
          <polygon points="649.35 132.47 681.41 132.35 681.41 120.7 649.35 120.88 649.35 132.47"/>
          <polygon points="649.45 144.89 681.46 144.79 681.41 133.02 649.35 133.21 649.45 144.89"/>
          <polygon points="649.24 107.77 681.41 107.74 681.33 95.99 649.24 96.07 649.24 107.77"/>
          <polygon points="649.35 120.19 681.38 120.06 681.38 108.36 649.24 108.47 649.35 120.19"/>
          <polygon points="649.24 95.37 681.33 95.37 681.3 83.61 649.19 83.76 649.24 95.37"/>
          <polygon points="649.45 157.29 681.5 157.15 681.5 145.4 649.45 145.52 649.45 157.29"/>
          <polygon points="591.14 70.88 623.28 70.77 623.25 59.06 591.09 59.15 591.14 70.88"/>
          <path d="M649.45,159.79a10.59,10.59,0,0,1-6,9.83l37.05-.06a48.88,48.88,0,0,0,1-9.85v-2l-32.06.14v1.92"/>
          <polygon points="591.4 145.06 623.49 144.98 623.45 133.21 591.28 133.3 591.4 145.06"/>
          <polygon points="591.4 157.43 623.53 157.33 623.49 145.54 591.4 145.74 591.4 157.43"/>
          <polygon points="591.32 132.76 623.45 132.64 623.35 120.88 591.32 120.92 591.32 132.76"/>
          <path d="M611.9,194.35l49.3-.13a34.76,34.76,0,0,0,14-11.69l-77.19.26a33.7,33.7,0,0,0,13.92,11.57"/>
          <polygon points="649.19 83.06 681.3 82.94 681.25 71.23 649.19 71.35 649.19 83.06"/>
          <path d="M636.28,171.11a15.73,15.73,0,0,1-5.19-.83l-38.47.1a37.66,37.66,0,0,0,5,11.69l77.94-.18a34.25,34.25,0,0,0,4.86-11.71l-38.57.11a19.59,19.59,0,0,1-5.53.83"/>
          <path d="M591.47,33.8l33.19-.13c2.07-3.41,6.14-5.31,11.28-5.44,5.36,0,9.53,2,11.65,5.38l33.2,0a43.75,43.75,0,0,0-3.27-11.71l-82.9.15a42.39,42.39,0,0,0-3.15,11.78"/>
          <polygon points="591.28 120.41 623.38 120.29 623.38 108.54 591.23 108.66 591.28 120.41"/>
          <path d="M649,39.39l.16,6.62,32-.12V39.35a33.71,33.71,0,0,0-.35-5.13l-33,.16a11,11,0,0,1,1.13,5"/>
          <polygon points="591.23 95.64 623.32 95.64 623.28 83.85 591.14 83.93 591.23 95.64"/>
          <polygon points="591.14 83.24 623.28 83.06 623.28 71.35 591.14 71.47 591.14 83.24"/>
          <polygon points="649.19 58.32 681.28 58.25 681.2 46.45 649.19 46.6 649.19 58.32"/>
          <path d="M591.09,46.2l32.12-.08V39.5a11.45,11.45,0,0,1,1.12-5.12l-33,.09a48.43,48.43,0,0,0-.23,5.11V46.2"/>
          <polygon points="649.19 70.75 681.25 70.6 681.28 58.89 649.19 59.06 649.19 70.75"/>
          <path d="M591.47,160a48.28,48.28,0,0,0,1,9.71l37.05,0a10.31,10.31,0,0,1-6-9.71v-2l-32.16,0,.1,2"/>
          <polygon points="591.26 107.93 623.38 107.77 623.32 96.1 591.23 96.23 591.26 107.93"/>
          <polygon points="591.1 58.46 623.25 58.42 623.25 46.63 591.09 46.85 591.1 58.46"/>
          <path d="M636.42,199.36c9.22,0,17-1.59,23.44-4.48l-46.63.13c6.37,2.87,14.09,4.35,23.19,4.35"/>
          <path d="M635.86,0C622.68,0,612.36,3.35,605,9.07L667.13,9c-7.49-5.71-17.94-9-31.27-9"/>
        </g>
        <path d="M0,4.06V166.43H169.14V4.06ZM83.15,137.39H20.25V33.86h16.3v89.07h46.6Zm65.69-89.07H118.08v89.07H101.79V48.31H71V33.86h77.8Z"/>
        <g>
          <polygon points="39.89 179.73 32.82 179.73 32.82 176.39 50.73 176.39 50.73 179.73 43.65 179.73 43.65 200.23 39.89 200.23 39.89 179.73"/>
          <path d="M87.36,200.23H82.91l-4.06-5.8a10.76,10.76,0,0,1-1.72.11H74.77v5.69H71V176.39h6.1c6.56,0,10.17,3.61,10.17,9.12,0,3.67-1.65,6.52-4.77,8ZM77,191.32c4.58,0,6.44-2.17,6.44-5.81s-1.89-5.78-6.44-5.78H74.77v11.6Z"/>
          <path d="M88.83,188.31A12,12,0,0,1,101,176.08c4.42,0,7.46,1.72,9.53,4.62l-2.87,2a7.69,7.69,0,0,0-6.77-3.27c-4.74,0-8.17,3.79-8.17,8.84s3.52,8.84,8.31,8.84a8.45,8.45,0,0,0,7.16-3.48l2.91,2c-2.46,3.27-5.58,4.88-10.2,4.88a11.88,11.88,0,0,1-12.06-12.24"/>
          <path d="M147.23,200.23h-4.45l-4.08-5.8a10.52,10.52,0,0,1-1.7.11h-2.34v5.69H130.9V176.39H137c6.55,0,10.17,3.61,10.17,9.12,0,3.67-1.66,6.52-4.78,8Zm-10.39-8.91c4.61,0,6.46-2.17,6.46-5.81s-1.9-5.78-6.46-5.78h-2.19v11.6Z"/>
          <path d="M151.79,200.23H148l10.45-24.33h.21l10.49,24.33h-4l-1.37-3.33H153.16Zm6.73-16.1-4,9.43h7.86Z"/>
          <polygon points="128.65 196.9 116.88 196.9 116.88 192.87 127 192.87 127 189.61 116.88 189.61 116.88 179.73 128.65 179.73 128.65 176.39 113.13 176.39 113.13 200.23 128.65 200.23 128.65 196.9"/>
          <polygon points="56.83 192.87 66.96 192.87 66.96 189.61 56.83 189.61 56.83 179.73 68.74 179.73 68.74 176.39 53.08 176.39 53.08 200.23 68.75 200.23 68.75 196.9 56.83 196.9 56.83 192.87"/>
          <polygon points="0 176.41 3.75 176.41 3.75 196.91 14.52 196.91 14.52 200.25 0 200.25 0 176.41"/>
          <path d="M15.61,200.25H11.83l10.44-24.33h.23L33,200.25H29l-1.35-3.33H17Zm6.73-16.09-4,9.43h7.84Z"/>
        </g>
      </g>
    </g>
  </g>
</svg>
