<svg xmlns="http://www.w3.org/2000/svg" viewBox="0 0 869.72 185.91">
  <title>lt-reportajes</title>
  <g id="94b47f03-060e-4d9f-9901-9d442de0920a" data-name="Layer 2">
    <g id="109437f3-e03a-4410-8c44-2b76b68eb8b9" data-name="Capa 1">
      <g>
        <g>
          <rect y="50.38" width="76.74" height="73.68" style="fill: #a21521"/>
          <polygon points="9.19 63.9 16.58 63.9 16.58 104.31 37.73 104.31 37.73 110.87 9.19 110.87 9.19 63.9" style="fill: #fff"/>
          <polygon points="46.18 70.46 32.23 70.46 32.23 63.9 67.53 63.9 67.53 70.46 53.57 70.46 53.57 110.87 46.18 110.87 46.18 70.46" style="fill: #fff"/>
          <g>
            <polygon points="18.1 130.08 14.89 130.08 14.89 128.57 23.02 128.57 23.02 130.08 19.8 130.08 19.8 139.38 18.1 139.38 18.1 130.08" style="fill: #a21521"/>
            <path d="M39.64,139.38h-2l-1.84-2.63a5.21,5.21,0,0,1-.78.05H33.92v2.58h-1.7V128.57H35c3,0,4.61,1.64,4.61,4.14a3.72,3.72,0,0,1-2.17,3.61Zm-4.7-4c2.08,0,2.92-1,2.92-2.64s-.86-2.62-2.92-2.62h-1v5.26Z" style="fill: #a21521"/>
            <path d="M40.3,134a5.43,5.43,0,0,1,5.52-5.55,5,5,0,0,1,4.33,2.1l-1.3.92A3.49,3.49,0,0,0,45.78,130a4,4,0,0,0,.06,8,3.84,3.84,0,0,0,3.25-1.58l1.32.91a5.31,5.31,0,0,1-4.63,2.21A5.39,5.39,0,0,1,40.3,134" style="fill: #a21521"/>
            <path d="M66.8,139.38h-2l-1.85-2.63a5.13,5.13,0,0,1-.77.05H61.1v2.58H59.39V128.57h2.77c3,0,4.62,1.64,4.62,4.14a3.73,3.73,0,0,1-2.17,3.61Zm-4.71-4c2.09,0,2.93-1,2.93-2.64s-.86-2.62-2.93-2.62h-1v5.26Z" style="fill: #a21521"/>
            <path d="M68.87,139.38H67.15l4.74-11H72l4.76,11h-1.8l-.62-1.51H69.49Zm3.05-7.3-1.8,4.28h3.57Z" style="fill: #a21521"/>
            <polygon points="58.37 137.87 53.03 137.87 53.03 136.04 57.62 136.04 57.62 134.56 53.03 134.56 53.03 130.08 58.37 130.08 58.37 128.57 51.33 128.57 51.33 139.38 58.37 139.38 58.37 137.87" style="fill: #a21521"/>
            <polygon points="25.78 136.04 30.38 136.04 30.38 134.56 25.78 134.56 25.78 130.08 31.19 130.08 31.19 128.57 24.08 128.57 24.08 139.38 31.19 139.38 31.19 137.87 25.78 137.87 25.78 136.04" style="fill: #a21521"/>
            <polygon points="0 128.57 1.7 128.57 1.7 137.88 6.59 137.88 6.59 139.39 0 139.39 0 128.57" style="fill: #a21521"/>
            <path d="M7.08,139.39H5.37l4.74-11h.1l4.75,11h-1.8l-.61-1.51H7.7Zm3.06-7.3-1.79,4.28H11.9Z" style="fill: #a21521"/>
          </g>
        </g>
        <g>
          <path d="M89,50.25h28.27l-.42,16.12c6.49-14.65,17-18,26.17-18a28.49,28.49,0,0,1,13.82,3.56l-9,25.75A24.65,24.65,0,0,0,137,75c-12.77,0-19.68,5.86-19.68,24.92v39.57H89Z" style="fill: #222221"/>
          <path d="M201,117.87a38.68,38.68,0,0,0,22.4-7.12l16.12,17.38c-8.58,7.54-19.47,13.19-38.1,13.19-31.82,0-52.34-19.26-52.34-46.69,0-27,21.56-46.27,49.2-46.27,32,0,49.41,23.87,47.32,55.06H178C180.71,112.64,188.25,117.87,201,117.87ZM217.14,87.1c-1.26-9.84-7.54-15.7-18.63-15.7s-18.63,5-20.94,15.7Z" style="fill: #222221"/>
          <path d="M249.17,50.25h28.26l-.63,13.82c5.44-9.63,14.86-15.7,28.68-15.7,21.56,0,39.78,18.84,39.78,46.27s-18.63,46.69-40.41,46.69c-13.61,0-22.82-5.65-27.43-13.82v56.32H249.17Zm67,44.39c0-13.19-7.54-21.36-19.47-21.36-12.14,0-20.1,8.17-20.1,21.36,0,14,8,22,20.1,22C308.63,116.62,316.17,108.66,316.17,94.63Z" style="fill: #222221"/>
          <path d="M345.69,95.05c0-27.22,21.56-46.69,49.2-46.69s49,19.47,49,46.69c0,27-21.36,46.27-49,46.27S345.69,122.06,345.69,95.05Zm69.3,0c0-13.4-7.54-22.4-20.1-22.4s-20.31,9-20.31,22.4c0,13.19,7.74,22.4,20.31,22.4S415,108.24,415,95.05Z" style="fill: #222221"/>
          <path d="M447.23,50.25h28.26l-.42,16.12c6.49-14.65,17-18,26.17-18a28.5,28.5,0,0,1,13.82,3.56l-9,25.75A24.62,24.62,0,0,0,495.17,75c-12.77,0-19.68,5.86-19.68,24.92v39.57H447.23Z" style="fill: #222221"/>
          <path d="M522.18,105.94V73.7H509V50.25h13.19V3.77h28.06V50.25h22.82V73.7H550.24v33.08c0,9,2.93,10.89,7.33,10.89,4.61,0,8-2.51,9.84-3.77l10.68,19.68c-4.39,3.56-11.93,8.17-24.91,8.17C535.16,141.74,522.18,132.73,522.18,105.94Z" style="fill: #222221"/>
          <path d="M617.65,71.6c-10.68,0-16.33,4.6-20.31,8.16L581.64,63c8.38-8.17,17.79-14.66,38.74-14.66,22.82,0,40.2,12.35,40.2,40.4v50.67H632.51l.63-12.35c-6.7,10.26-14.45,14.24-26.38,14.24-16.33,0-31.41-7.33-31.41-28.05,0-19.05,14.45-26.8,36.43-26.8h20.73C632.1,76.21,627.07,71.6,617.65,71.6Zm-4.4,31.61c-7.12,0-10.26,3.14-10.26,8.17s4.19,8,12.15,8c11.51,0,17.38-5,17.38-12.56v-3.56Z" style="fill: #222221"/>
          <path d="M640,175.24l14-16.75c2.3,2.09,4.6,3.35,6.91,3.35,4.4,0,6.49-2.51,6.49-7.12V50.25h28.26V153.67c0,20.52-11.09,32.24-32,32.24C653.24,185.91,644.24,180.47,640,175.24ZM663.71,17.59c0-10.26,8.37-17.59,18-17.59a17.47,17.47,0,0,1,17.79,17.59,17.9,17.9,0,0,1-35.8,0Z" style="fill: #222221"/>
          <path d="M751.85,117.87a38.7,38.7,0,0,0,22.4-7.12l16.12,17.38c-8.58,7.54-19.47,13.19-38.11,13.19-31.82,0-52.34-19.26-52.34-46.69,0-27,21.56-46.27,49.2-46.27,32,0,49.41,23.87,47.32,55.06H728.82C731.54,112.64,739.08,117.87,751.85,117.87ZM768,87.1c-1.26-9.84-7.54-15.7-18.64-15.7s-18.63,5-20.93,15.7Z" style="fill: #222221"/>
          <path d="M792.47,124.36,809,109.71a32,32,0,0,0,22.19,9.42c9.21,0,12.14-1.68,12.14-5.45,0-4.81-5.66-4.81-20.1-8.58C811.1,102,797.5,95.26,797.5,76.63c0-20.1,15.49-28.26,34.54-28.26,14.66,0,25.13,4.82,32.45,12.35L849.42,76.84c-4.19-3.56-10.47-6.7-17.17-6.7-6.49,0-9.63,1.67-9.63,5.23,0,5,5.65,5.65,17.8,8.38,13,2.93,29.31,9,29.31,27.84,0,16.33-8.58,29.73-36.64,29.73C812.36,141.32,800.21,133.57,792.47,124.36Z" style="fill: #222221"/>
        </g>
      </g>
    </g>
  </g>
</svg>
