<svg xmlns="http://www.w3.org/2000/svg" viewBox="0 0 828.38 166.6">
  <title>masdeco</title>
  <g id="a79c9355-4e84-4981-88ea-a4e90f3110fa" data-name="Layer 2">
    <g id="3742f8fa-4990-4214-ac90-fbc7025077d1" data-name="Capa 1">
      <g>
        <polygon points="62.54 11.22 0 11.22 0 164.37 45 164.37 45 108.13 43.94 82.18 44.35 82.18 65.23 141.83 99.04 141.83 120.01 82.18 120.48 82.18 119.31 108.13 119.31 164.42 168.84 164.37 168.87 11.22 105.17 11.22 93.94 47.28 85.59 77.95 85.07 77.95 75.36 47.28 62.54 11.22 62.54 11.22" style="fill: #101017"/>
        <path d="M771,81c9.44,0,10.06,10.64,10.06,27.11s-.62,27.06-10.12,27.06-10.15-10.65-10.15-27.06S761.51,81,771,81Zm0,85.58c41.6,0,57.33-26.94,57.33-58.47S812.65,49.59,771,49.59c-41.91,0-57.48,26.87-57.42,58.54S729.11,166.6,771,166.6Z" style="fill: #101017"/>
        <polygon points="260.26 24.74 246.8 0 208.5 24.74 219.75 42.84 260.26 24.74 260.26 24.74" style="fill: #101017"/>
        <path d="M218.8,80c7.46,0,12,3.81,12,9.48v4C195.86,95.66,170,110.3,170,137.36c0,18,11.87,29.24,30.37,29.24,10.38,0,21.86-3.39,29.91-13.5h.47l4.55,11.27H275.8V87.79c0-23.59-19.57-38.2-49.54-38.2-14.84,0-27.68,1.31-50.6,9l9,30.4c11.64-5.68,25.15-9,34.13-9Zm12,50.58a11.55,11.55,0,0,1-7.15,2.18c-2.45,0-7.49-1-7.46-6.68,0-5.87,5.67-10.15,14.61-11.23v15.73Z" style="fill: #101017"/>
        <path d="M376,127.19c0-35.53-47.33-34.94-47.29-43.92,0-2.85,3.17-3.31,5-3.31,9.64,0,25.44,4.7,33.36,7.82l6.07-32.35a167,167,0,0,0-44.42-5.85c-30.4,0-51.79,12.28-51.79,37.77,0,38.49,46.16,36,46.14,45.22,0,3-3.33,3.65-6.72,3.65-9.14,0-20.22-3.5-34.67-8l-7,32.76c12.61,3.48,31.53,5.66,48.46,5.66,31.53,0,52.87-13.1,52.87-39.41Z" style="fill: #101017"/>
        <path d="M434,164.42c51.72,0,74.25-32.44,74.25-76.64S485.7,11.22,434,11.22h-60.8l.06,153.15,60.74.05Zm-13.54-40.55V51.79H434c15.68,0,24.72,9,24.69,36s-9,36.08-24.69,36.08Z" style="fill: #101017"/>
        <path d="M620.85,117a118.83,118.83,0,0,0,2.23-21.37c0-28.16-19.88-46.08-52.89-46.08-38.27,0-62,24.66-62,58.54,0,33.7,20.33,58.47,65.33,58.47,7.91,0,25.89-1,42.73-7.79L611.8,127c-9.25,4-20.87,5.76-29.26,5.76-19.1,0-25.46-7.79-27-15.68ZM569,78.74c8.41,0,11.32,4.8,11.32,10.21a15.81,15.81,0,0,1-.71,4.5H555.56c0-7.88,4.94-14.71,13.45-14.71Z" style="fill: #101017"/>
        <path d="M620.85,108.13c0,35.92,22.45,58.47,60.81,58.47A123.8,123.8,0,0,0,718,160.75L712,128.34c-11.27,3.36-16.9,4.38-24.72,4.38-12.38,0-19.18-8.85-19.21-24.59s6.83-24.86,19.21-24.86c7.82,0,13.45,1.19,24.72,4.51L718,55.44a122.73,122.73,0,0,0-36.39-5.85c-38.31,0-60.81,22.45-60.81,58.54Z" style="fill: #101017"/>
      </g>
    </g>
  </g>
</svg>
