<svg xmlns="http://www.w3.org/2000/svg" viewBox="0 0 375.74 182.74">
  <title>radiodisneyblack</title>
  <g id="4b51bcb7-201f-443f-96f4-65c787eedf5c" data-name="Layer 2">
    <g id="343313cc-9e5d-4766-b276-c199e88804b2" data-name="Layer 1">
      <g>
        <path d="M319.92,113.8a4.59,4.59,0,1,0,4.61-4.54h0A4.59,4.59,0,0,0,319.92,113.8Z"/>
        <path d="M25.12,71.87c-3.37.15-14.69-.22-17.44,4.24,0,0-.94,2.59-.31,3.31a4.21,4.21,0,0,0,5.43.4s.64-.87-.63-1.36l-1.49-.14s-1.82-1.89,9.67-1.73,19.72,3.36,28.36,7c9.43,3.94,22.73,15.4,23,24,1.18,13.43-18.86,17.51-30.64,14.22-.4-.65-.55-.65-.55-1.58s-.22-14-.22-14a1,1,0,0,1,.94-.46c.69,0,12.56.71,15.16,2.9,0,0,.7.62.39,1.09s-2.67,2.68-2.67,2.68,2.19,1.8,4.4.94c.79-.54,3.62-1.8,3.45-5.1.09-.71,1.42-4.32-9.19-7.71-3-.63-4.26-1.18-11.54-1-.63.07-.72-1.11-.72-1.11s.23-6.21-.7-8.4c0,0-1-2.11-2.28-2.68a1.08,1.08,0,0,0-1.1.32L35.1,91A56.72,56.72,0,0,1,34,99.92c-15.47,3.15-16.74,7.7-16.74,7.7-2.51,6.45,15,15.88,15.33,16,1.3.32,1.27,1.24,1.27,1.24l.54,3.79.87,1.34s3.22,1,4.24-.49.55-.85.55-.85l.7-1.74a42.88,42.88,0,0,0,17.69.79s19-2.55,20.51-17.76a3.2,3.2,0,0,0-.09-1.73C80,107.32,71.55,76.5,25.12,71.87Zm8.4,47a.74.74,0,0,1-.65.51.88.88,0,0,1-.28-.05c-11.64-4.4-13.43-9.43-13.43-9.43a1.25,1.25,0,0,1,.54-1.48c3-1.74,13.52-2.66,13.52-2.66.78-.09.78.38.78.38Z"/>
        <path d="M82.09,102.12a69.17,69.17,0,0,0-.71,19.66c.71,4.87,5.42,2.75,5.51,1.57.62-15.79-.48-21.38-.79-21.84-.19-.3-1.29-1.67-2.34-1.67C83.1,99.83,82.46,100.38,82.09,102.12Z"/>
        <path d="M81.07,95.67a11.68,11.68,0,0,0,7.47,0c13-4.37,11.78-12.56,11.78-12.56-.38-2.05-4.56-3.29-4.56-3.29-1-2.06-3.76-2.49-5.89-2.49h0a16.81,16.81,0,0,0-2.69.22C75.18,81.63,75.57,88.13,75.57,88.13a6.82,6.82,0,0,0,1.8,5.28c-.94,3.68,1.73,4.3,1.73,4.3A16.54,16.54,0,0,0,81.07,95.67ZM92.55,83.44c.86-.16,7.22-1.42,2.74,4.39,0,0-2.34,3.62-9,3.62a20.66,20.66,0,0,1-2.43-.15C83.26,89.87,91.68,83.59,92.55,83.44Zm-13.12,3S81.7,83.59,83,83s1.64.17,1.64.17-4.4,4.88-5.18,5.65C78.54,88.46,79.42,86.49,79.42,86.49Z"/>
        <path d="M91.51,110.53c1.5,1.41,9,1,15.33,2.05,0,0,5.66,2.66.94,4.64,0,0-8.41,2.9-13,1.49-.29.2-1.56-.6-2-1.4s-.19-1.47,2.11-1.43c1.37,0,5,1.57,7.77,1.64.83,0,10.78-1.8-.93-4.4,0,0-5.9-1.65-9.75.62,0,0-3.29,3.62-.24,6.13.32,1.58,14,9.74,21.53-.31,0,0,3.14-7.35-4.08-10.05,0,0-11.55-1.8-12.56-1.64s-3.7-1.26,0-1.82c4.28-.65,3.46-.48,14.37-1.57,6.91-2,3.13-3.93-.78-4.57-1.37-.09-2.65-.13-3.85-.13-11,0-15.16,3.45-15.16,3.45S86.18,108.33,91.51,110.53Z"/>
        <path d="M120.12,122.48l.71-11.79s.15-.8,1.18-.39c0,0,2.59,7,5.5,10.19-.09.87,5.5,7.47,8.73-2.8,0,0,2.82-11.78-5.34-20.29,0,0-1.24-1.21-2-1.21-.51,0-.84.49-.57,2.07.71,4.09,3.77,14.47,2.92,17,0,0,.08,1-1,0s-6.67-11.46-8.33-12.57c0,0-1.81-1.65-3.31.09-2.83,2.91-3.37,18.46-3.37,18.46l.15.3C117.77,128,120.12,122.48,120.12,122.48Z"/>
        <path d="M155.84,100.5a8.32,8.32,0,0,0-2-.11,83.07,83.07,0,0,0-14.65,1.34s-.65,1.42,1.55,3.38l1.84.4-.72,4.23s-2.38.71-2.7,1.35a4.45,4.45,0,0,0,.33,2.44c-.22,1.95-1.8,3.05-1.63,7.77s5.34,5.19,5.34,5.19c10-1.34,12.26-5.58,12.26-5.58s.65-2.59-1.11-3c-1.11-.25-3.29.21-5.39.67-2.48.55-4.85,1.09-5.18.46s1.47-4.58,1.47-4.58,7.13.08,8.56-.55,1.25-3.69.31-3.86-6.91-.31-6.91-.31l.71-3.28s9.59.22,11.08-1.58A6,6,0,0,0,155.84,100.5Z"/>
        <path d="M170.08,117.84a63.6,63.6,0,0,1,7-9.51s2.74-3.07,2.74,1.48c0,0,.24,5.75-6.83,8.73a7.34,7.34,0,0,1-2.88,1.1c-1.23,0,0-1.81,0-1.81m-4.09-17c-6.28,6.61-6.43,12-7.14,14.61s1.25,5.2,1.25,5.2-5.89,15.87-5.25,21.36c0,0,1.89,5.11,5.34,4.18,1.34-7.31,5.42-20.21,5.42-20.21,8.73,1.58,14.55-7.3,14.55-7.3,8.38-11.39-1.19-16.65-1.19-16.65a4.15,4.15,0,0,0-2.75.46c-6.68,4.41-11.46,12.23-12.5,12.64s-.63-.69-.63-.69c.79-5,5.89-10.93,5.58-13,.33-1.21,0-1.58-.51-1.58a5.37,5.37,0,0,0-2.18.95"/>
        <g id="9895eba0-d04d-4b37-97e6-4a96eedab652" data-name="Copywrite">
          <path d="M1.82,56.94a1.59,1.59,0,0,0-.19.76,1,1,0,0,0,1.09,1.08,1,1,0,0,0,1.1-1.09,1.61,1.61,0,0,0-.2-.79l.29-.09a1.8,1.8,0,0,1,.24,1A1.35,1.35,0,0,1,2.75,59.2a1.43,1.43,0,0,1-1.45-1.49,1.59,1.59,0,0,1,.21-.86Zm-1.2.95a2,2,0,0,0,2.11,2,2,2,0,1,0,0-3.94,2,2,0,0,0-2.08,2Zm-.32,0a2.36,2.36,0,0,1,2.4-2.34,2.36,2.36,0,1,1,0,4.72,2.38,2.38,0,0,1-2.4-2.37Z"/>
          <path d="M4.82,54a4.47,4.47,0,0,0,0-.68,2,2,0,0,0-2.23-2.24,1.87,1.87,0,0,0-2,2.13,3.92,3.92,0,0,0,.07.8Zm-4.66.69a10.22,10.22,0,0,1-.11-1.45A3,3,0,0,1,.7,51.1a2.41,2.41,0,0,1,1.89-.75,2.81,2.81,0,0,1,2,.76,3.27,3.27,0,0,1,.76,2.33,9.61,9.61,0,0,1-.06,1.24Z"/>
          <path d="M5.35,49.49H1.57V48.8H5.35ZM.88,49.16a.42.42,0,0,1-.44.43A.43.43,0,0,1,0,49.14a.42.42,0,0,1,.44-.44.43.43,0,0,1,.44.44Z"/>
          <path d="M4.65,47.76a1.89,1.89,0,0,0,.26-.91c0-.49-.24-.72-.56-.72s-.51.19-.69.69c-.25.68-.61,1-1.07,1a1.17,1.17,0,0,1-1.11-1.3,1.75,1.75,0,0,1,.24-.92l.49.17a1.58,1.58,0,0,0-.22.77c0,.4.24.62.52.62s.46-.22.65-.71c.24-.65.57-1,1.14-1s1.14.52,1.14,1.41a2.17,2.17,0,0,1-.26,1.06Z"/>
          <path d="M2.6,44.58c-.4,0-.71,0-1,0V44l.62,0v0a1.4,1.4,0,0,1-.7-1.25c0-.52.31-1.33,1.61-1.33H5.35V42H3.17c-.61,0-1.12.23-1.12.88a1,1,0,0,0,.7.92,1.06,1.06,0,0,0,.32,0H5.35v.69Z"/>
          <path d="M3.09,37.85A1,1,0,0,0,2,38.79a1.13,1.13,0,0,0,1.12,1.05Zm.49,2a1.21,1.21,0,0,0,1.31-1.29,2.53,2.53,0,0,0-.19-1l.49-.13a3.17,3.17,0,0,1,.24,1.26,1.76,1.76,0,0,1-1.9,1.86,1.84,1.84,0,0,1-2-1.78,1.59,1.59,0,0,1,1.78-1.55l.33,0Z"/>
          <path d="M1.57,36.1l2.23-.82c.25-.1.55-.19.77-.26h0c-.23-.07-.51-.15-.79-.24L1.57,34v-.72l2.69,1a5.79,5.79,0,0,1,2.37,1.3,1.9,1.9,0,0,1,.44.84l-.58.17a1.57,1.57,0,0,0-.34-.6,2.16,2.16,0,0,0-.76-.58.51.51,0,0,0-.16-.05.4.4,0,0,0-.17.05L1.57,36.85Z"/>
        </g>
        <polygon id="ca7ad040-4767-4aa6-b0b7-a59a923cdd15" data-name="1" points="206.93 69.29 206.93 84.22 219.99 72.96 219.99 118.77 234.07 118.77 234.07 58.02 219.99 58.02 206.93 69.29"/>
        <path id="b08dd682-2387-44aa-b708-ba6832090da1" data-name="0" d="M255.92,57.5c-10.13,0-19.66,6.41-19.66,19v23.89c0,12.54,9.53,18.93,19.66,18.93s19.66-6.39,19.66-18.93V76.46C275.59,63.91,266.07,57.5,255.92,57.5Zm5.59,42.93c0,4.26-2.57,6.22-5.59,6.22s-5.58-2-5.58-6.22v-24c0-4.27,2.58-6.31,5.58-6.31s5.59,2,5.59,6.31Z"/>
        <path id="3d05f51d-9142-436c-aca1-1223d6ac1c52" data-name="9" d="M342.73,57.5c-11,0-20.36,6.68-20.36,19.55,0,12,8.85,18.35,16.32,18.35a10.2,10.2,0,0,0,3.43-.43L330,118.77h15.45l11.76-24.05c2.84-5.72,5.84-11.44,5.84-17.67C363.07,64.18,353.72,57.5,342.73,57.5Zm0,26.45c-3.45,0-6.29-2.38-6.29-6.91s2.84-6.91,6.29-6.91S349,72.53,349,77.05,346.16,84,342.73,84Z"/>
        <polygon id="b55ee0bd-d3ca-4d1f-8121-ea121252e2be" data-name="4" points="315.7 88.73 302.29 88.73 302.29 96.77 292.39 96.77 312.69 57.28 297.21 57.28 276.91 96.77 276.91 110.09 302.29 110.09 302.29 118.13 315.7 118.13 315.7 110.09 320.27 110.09 320.27 96.77 315.7 96.77 315.7 88.73"/>
        <path d="M164.78,79.63c-11.13,0-20.21-6.5-20.21-14.44s9.08-14.44,20.21-14.44S185,57.23,185,65.18s-9.12,14.44-20.22,14.44m0-19.4a4.94,4.94,0,1,0,5,5,5,5,0,0,0-5-5"/>
        <path d="M135.61,49c4.21,0,8.3-2.89,8.3-6.51S139.82,36,135.61,36s-7.51,2.88-7.51,6.46S131.47,49,135.61,49"/>
        <rect x="128.83" y="51.97" width="13.7" height="26.65"/>
        <path d="M112.7,38V51.84a33.57,33.57,0,0,0-3.68-.22c-10.91,0-19.81,6.37-19.81,14.17,0,7.54,6,13,17.09,13h19.13V38Zm-.06,32.32-2.29,0c-4.15,0-7-.56-7-4.88,0-3.79,2.83-5,7-5l2.29,0Z"/>
        <path d="M69.87,78.79h9.44a28.38,28.38,0,0,1,7.07-3.43l.15-.06.17,0s.42-.07,1-.13V51.81s0,0,0,0v0H70.44c-10.55,0-19.14,6.16-19.14,13.68,0,6.42,7.91,13.3,18.57,13.3m3.46-18.21,2.29,0V61h0v9.33l-2.29,0c-4.14,0-7-.56-7-4.88,0-3.79,2.84-4.88,7-4.88"/>
        <path d="M10.25,71.44a24.71,24.71,0,0,1,5.62-1.35,78.62,78.62,0,0,1,8.69-.5V59.68l7.25,10.74A79.46,79.46,0,0,1,55.75,78L43.85,59.49c4-2.74,6.64-6.93,6.64-11.65C50.48,39.69,42.59,33,32.91,33h-23V71.61l.39-.17M24.26,43h4.16c4.41,0,6.51,2.25,6.51,4.87s-2.1,5-6.51,5H24.26Z"/>
        <path d="M283.82,30.72c36,0,65.13,21.94,65.13,8.28S319.78,2,283.82,2,218.65,25.34,218.65,39,247.83,30.72,283.82,30.72Z" style="fill: none"/>
        <path d="M318.14,84.2a5.16,5.16,0,0,0-2.44-.62H305l10.81-21a44.53,44.53,0,0,0-23.52-7l-11.51,22.4V76.46a23.51,23.51,0,0,0-6.91-17.25,44.18,44.18,0,0,0-19.18,65.17c.41,0,.82,0,1.24,0a26,26,0,0,0,17.05-6,21.43,21.43,0,0,0,3-3.24,5.08,5.08,0,0,0,.89.09H297.1v2.88a5.17,5.17,0,0,0,1.53,3.64,5.22,5.22,0,0,0,3.67,1.51H315.7a5.14,5.14,0,0,0,3.6-1.44,9.64,9.64,0,0,0,7.89,1.24,5.26,5.26,0,0,0,1.9.75,44.05,44.05,0,0,0-9.32-58.43,25.77,25.77,0,0,0-2.59,11.65A26.33,26.33,0,0,0,318.14,84.2ZM333.8,99.92l-3.23,6.34a9.61,9.61,0,0,0-5.11-2V96.77a4.82,4.82,0,0,0-.19-1.29A21.62,21.62,0,0,0,333.8,99.92Z" style="fill: none"/>
        <path d="M360.46,58.59a26.59,26.59,0,0,0-17.73-6.23,28,28,0,0,0-13.93,3.52,57.13,57.13,0,0,1,2.89,68h13.79a5.19,5.19,0,0,0,4.67-2.91l11.75-24c2.73-5.63,6.32-12,6.37-19.93C368.32,69.38,365.33,62.83,360.46,58.59Z" style="fill: none"/>
        <path d="M238.72,55.79a5.11,5.11,0,0,0-4.65-2.91H220a5.3,5.3,0,0,0-3.41,1.26l-13,11.26a5.13,5.13,0,0,0-1.79,3.9V84.22a5.18,5.18,0,0,0,8.58,3.89l4.47-3.85v34.51a5.16,5.16,0,0,0,1.52,3.64,5.25,5.25,0,0,0,3.67,1.51h14.08a5.18,5.18,0,0,0,1.5-.24,57.18,57.18,0,0,1,3.15-67.9Z" style="fill: none"/>
        <path d="M325.46,104.26a9.61,9.61,0,0,1,5.11,2l3.23-6.34a21.62,21.62,0,0,1-8.54-4.44,4.82,4.82,0,0,1,.19,1.29Z"/>
        <path d="M315.81,62.55,305,83.58H315.7a5.16,5.16,0,0,1,2.44.62,26.33,26.33,0,0,1-1-7.15,25.77,25.77,0,0,1,2.59-11.65c-.28-.22-.55-.46-.84-.67C317.92,63.94,316.87,63.22,315.81,62.55Z"/>
        <path d="M307.27,3.06A92.73,92.73,0,0,0,283.7,0C243,0,205.77,27.07,194.87,68c-13,48.77,16.29,98.77,65.38,111.67s99.42-16.19,112.42-65S356.36,16,307.27,3.06ZM283.82,2C319.78,2,349,25.34,349,39s-29.18-8.28-65.13-8.28S218.65,52.65,218.65,39,247.83,2,283.82,2ZM361.89,97l-11.75,24a5.19,5.19,0,0,1-4.67,2.91H331.69a58,58,0,0,1-96.12-.24,5.18,5.18,0,0,1-1.5.24H220a5.25,5.25,0,0,1-3.67-1.51,5.16,5.16,0,0,1-1.52-3.64V84.26l-4.47,3.85a5.18,5.18,0,0,1-8.58-3.89V69.29a5.13,5.13,0,0,1,1.79-3.9l13-11.26A5.3,5.3,0,0,1,220,52.88h14.08a5.11,5.11,0,0,1,4.65,2.91A57.64,57.64,0,0,1,272.07,35.6,58,58,0,0,1,328.8,55.88a28,28,0,0,1,13.93-3.52,26.59,26.59,0,0,1,17.73,6.23c4.87,4.24,7.86,10.79,7.81,18.46C368.21,85,364.63,91.35,361.89,97Z"/>
        <path d="M280.78,77.91l11.51-22.4a45,45,0,0,0-18.43,3.7,23.51,23.51,0,0,1,6.91,17.25Z"/>
        <path d="M324.63,123.43a9.69,9.69,0,0,1-5.33-1.59,5.14,5.14,0,0,1-3.6,1.44H302.29a5.22,5.22,0,0,1-3.67-1.51,5.17,5.17,0,0,1-1.53-3.64v-2.88H276.91a5.08,5.08,0,0,1-.89-.09,21.43,21.43,0,0,1-3,3.24,26,26,0,0,1-17.05,6c-.41,0-.82,0-1.24,0a44.27,44.27,0,0,0,9.79,10.41,44.77,44.77,0,0,0,62.51-8c.75-1,1.45-2,2.11-3a5.26,5.26,0,0,1-1.9-.75A9.67,9.67,0,0,1,324.63,123.43Z"/>
      </g>
    </g>
  </g>
</svg>
