<svg xmlns="http://www.w3.org/2000/svg" viewBox="0 0 844.04 211.75">
  <title>lacuarta-detodos</title>
  <g id="Layer_2" data-name="Layer 2">
    <g id="Capa_1" data-name="Capa 1">
      <g>
        <path d="M182.69,49.76a36.57,36.57,0,0,0-14.93-8.65A72,72,0,0,0,146,38.22c-8.57,0-16,.92-22,2.77a39.65,39.65,0,0,0-15.18,8.15A31.38,31.38,0,0,0,100.23,62a50.14,50.14,0,0,0-2.81,15.72l-.09,3.11h31.24l.4-2.58a16.72,16.72,0,0,1,4.34-9.53c2.15-2.2,6-3.32,11.46-3.32,4.77,0,8.54.82,11.23,2.43,2.27,1.37,3.28,3,3.28,5.32,0,3.5-1.29,4.78-2.26,5.43-1.38.92-4.7,2.28-12.67,3.41-6.92,1-13.41,2.11-19.29,3.31a50.4,50.4,0,0,0-16,6,29.58,29.58,0,0,0-11,11.6c-2.63,4.85-4,11.34-4,19.28,0,9.26,3.12,16.92,9.28,22.77s15.65,8.74,28.36,8.74a52.17,52.17,0,0,0,19.72-3.5,40,40,0,0,0,9.54-5.4,34.23,34.23,0,0,0,1,4.05l.67,2.11H193.4V82.2a63.44,63.44,0,0,0-2.46-18.29,33.3,33.3,0,0,0-8.25-14.15m-22.88,52.71-.11,5.91a16.75,16.75,0,0,1-1.69,7.43,21.76,21.76,0,0,1-4.64,6.31,21.33,21.33,0,0,1-6.86,4.25,23.81,23.81,0,0,1-8.7,1.58c-9.07,0-10.29-4.35-10.29-8.6,0-3.57,1.08-6.19,3.31-8,1.77-1.41,5.78-3.5,14.94-5.29a112.8,112.8,0,0,0,11.95-2.83c.73-.23,1.43-.49,2.09-.76" fill="#cb2128"/>
        <path d="M339.87,99.07c-1.82,8.2-5.17,14.51-9.94,18.78s-11.07,6.31-19,6.31c-10.41,0-18-3.81-23.13-11.64-5.35-8.12-8.05-19.8-8.05-34.75,0-14.68,2.74-26.31,8.16-34.57,5.22-8,13.24-11.82,24.5-11.82a26.81,26.81,0,0,1,17.14,6c5.06,4,8.54,9.73,10.33,17.05l.57,2.29H375.5l-.33-3.32a61.24,61.24,0,0,0-5.89-20.86,55.53,55.53,0,0,0-12.95-17.1A60,60,0,0,0,337,4.09,72.1,72.1,0,0,0,312.2,0a70.69,70.69,0,0,0-28.34,5.53,59.63,59.63,0,0,0-21.66,15.9,71.28,71.28,0,0,0-13.58,25.12,108.75,108.75,0,0,0-4.68,32.9c0,12.4,1.73,23.44,5.15,32.81a69.84,69.84,0,0,0,14.24,23.93A58.17,58.17,0,0,0,285,150.88a73.57,73.57,0,0,0,26.74,4.85,66.5,66.5,0,0,0,23.44-4A58.12,58.12,0,0,0,354,140.38a62.06,62.06,0,0,0,13.43-17.52,82.62,82.62,0,0,0,7.68-22.56l.69-3.6H340.4Z" fill="#cb2128"/>
        <path d="M453.6,103.94c0,6.25-1.54,11.19-4.71,15.1-3,3.72-7.46,5.53-13.6,5.53-10,0-14.5-5.06-14.5-16.4V41H387.31v71.43a47,47,0,0,0,2.83,16.69,40,40,0,0,0,7.88,13,34.7,34.7,0,0,0,12.13,8.54,39,39,0,0,0,15.43,3c12.14,0,21.95-3.84,29.28-11.46v8.72h32V41H453.6Z" fill="#cb2128"/>
        <path d="M582,49.76A36.68,36.68,0,0,0,567,41.11a71.91,71.91,0,0,0-21.72-2.89c-8.57,0-16,.92-22,2.77a39.65,39.65,0,0,0-15.18,8.15A31.38,31.38,0,0,0,499.49,62a50.43,50.43,0,0,0-2.82,15.72l-.08,3.11h31.24l.39-2.58a16.73,16.73,0,0,1,4.35-9.53c2.14-2.2,6-3.31,11.46-3.31,4.77,0,8.54.81,11.23,2.42,2.26,1.37,3.28,3,3.28,5.32,0,3.5-1.29,4.78-2.27,5.43-1.37.92-4.69,2.28-12.67,3.41-6.92,1-13.41,2.11-19.29,3.31a50.4,50.4,0,0,0-16,6,29.82,29.82,0,0,0-11,11.6c-2.62,4.85-3.95,11.35-3.95,19.27,0,9.27,3.12,16.93,9.28,22.77s15.66,8.75,28.37,8.75a52.24,52.24,0,0,0,19.72-3.5,39.66,39.66,0,0,0,9.52-5.4,37.94,37.94,0,0,0,1,4.05l.66,2.11h30.78V82.2a63.45,63.45,0,0,0-2.45-18.29A33.3,33.3,0,0,0,582,49.76M537.06,128c-9.07,0-10.29-4.35-10.29-8.6,0-3.57,1.09-6.19,3.32-8,1.76-1.41,5.78-3.5,14.93-5.3a109.6,109.6,0,0,0,12-2.82c.74-.23,1.44-.49,2.1-.76l-.11,5.91a16.63,16.63,0,0,1-1.7,7.43,20.87,20.87,0,0,1-11.49,10.56,23.82,23.82,0,0,1-8.71,1.58" fill="#cb2128"/>
        <path d="M840.56,63.91a33.4,33.4,0,0,0-8.25-14.15,36.68,36.68,0,0,0-14.94-8.65,71.91,71.91,0,0,0-21.72-2.89c-8.57,0-16,.92-22,2.77a39.65,39.65,0,0,0-15.18,8.15A31.29,31.29,0,0,0,749.85,62,50.15,50.15,0,0,0,747,77.68L747,80.79h31.24l.39-2.58a16.67,16.67,0,0,1,4.35-9.53c2.14-2.2,6-3.31,11.45-3.31,4.78,0,8.55.81,11.23,2.42,2.27,1.37,3.29,3,3.29,5.32,0,3.5-1.3,4.78-2.27,5.43-1.38.92-4.69,2.28-12.68,3.41-6.91,1-13.4,2.11-19.28,3.31a50.4,50.4,0,0,0-16,6,29.82,29.82,0,0,0-11,11.6c-2.62,4.85-4,11.35-4,19.27,0,9.27,3.12,16.93,9.28,22.77s15.65,8.75,28.37,8.75a52.11,52.11,0,0,0,19.71-3.5,39.73,39.73,0,0,0,9.53-5.4,37.94,37.94,0,0,0,1,4.05l.66,2.11H843V82.2a63.81,63.81,0,0,0-2.44-18.29m-53.14,64c-9.07,0-10.29-4.35-10.29-8.6,0-3.57,1.08-6.19,3.32-8,1.76-1.41,5.77-3.5,14.93-5.3a109.6,109.6,0,0,0,12-2.82c.74-.23,1.43-.49,2.09-.76l-.11,5.91a16.62,16.62,0,0,1-1.69,7.43,21.73,21.73,0,0,1-4.63,6.31,21.49,21.49,0,0,1-6.87,4.25,23.73,23.73,0,0,1-8.7,1.58" fill="#cb2128"/>
        <path d="M652.87,39.33a31.72,31.72,0,0,0-8.74,2.21,33.89,33.89,0,0,0-8.35,5c-.73.58-1.45,1.24-2.17,1.94V39H601.82V150.42H635.3V94.49c0-15.1,7-22.12,22.11-22.12a44.85,44.85,0,0,1,7.1.59l3.52.58V38.89h-6.61a82.5,82.5,0,0,0-8.55.44" fill="#cb2128"/>
        <polygon points="34.41 14.2 1.04 14.2 1.04 150.38 82.7 150.38 82.7 120.81 34.41 120.81 34.41 14.2" fill="#cb2128"/>
        <path d="M707.62,14.17H674.56v94.62A57.78,57.78,0,0,0,677,125.73a37.79,37.79,0,0,0,8.14,14.44A39.77,39.77,0,0,0,699.42,150c5.7,2.4,12.62,3.62,20.59,3.62a58.79,58.79,0,0,0,12.74-1.35V123.71H719.56c-4.13-.17-7-1.48-8.78-4-2.1-3.07-3.16-7.65-3.16-13.62V70.45h25.13V41H707.62Z" fill="#cb2128"/>
        <path d="M284.5,179.52c10.07,0,15.39,6.42,15.39,15.19,0,9.67-6.47,16.28-15.94,16.28H272.32V179.52Zm-1,4.11h-6v23.3h5.67c7.72,0,11.37-5.21,11.37-12.17,0-6.42-3.25-11.13-11-11.13" fill="#626365"/>
        <polygon points="336.76 179.52 336.76 183.63 322.73 183.63 322.73 193.05 334.86 193.05 334.86 197.06 322.73 197.06 322.73 206.94 336.76 206.94 336.76 210.99 317.57 210.99 317.57 179.52 336.76 179.52" fill="#626365"/>
        <polygon points="371.99 179.52 396.24 179.52 396.24 183.63 386.67 183.63 386.67 210.99 381.56 210.99 381.56 183.63 371.99 183.63 371.99 179.52" fill="#626365"/>
        <path d="M440.64,195.31c0,10.77-6.87,16.43-15.18,16.43-9,0-15-6.06-15-16.53,0-10.63,6.81-16.44,15.19-16.44,8.87,0,15,6.16,15,16.54m-24.66-.1c0,8.37,4.06,12.28,9.48,12.28s9.67-3.66,9.67-12.18S431.07,183,425.51,183c-5.37,0-9.53,3.41-9.53,12.18" fill="#626365"/>
        <path d="M470.51,179.52c10.07,0,15.38,6.42,15.38,15.19,0,9.67-6.47,16.28-15.94,16.28H458.33V179.52Zm-1,4.11h-6v23.3h5.66c7.72,0,11.37-5.21,11.37-12.17,0-6.42-3.25-11.13-11-11.13" fill="#626365"/>
        <path d="M531.84,195.31c0,10.77-6.87,16.43-15.19,16.43-9,0-15-6.06-15-16.53,0-10.63,6.81-16.44,15.18-16.44,8.87,0,15,6.16,15,16.54m-24.66-.1c0,8.37,4.06,12.28,9.47,12.28s9.68-3.66,9.68-12.18S522.27,183,516.7,183c-5.36,0-9.52,3.41-9.52,12.18" fill="#626365"/>
        <path d="M559.5,183c-3.81,0-5.92,1.6-5.92,4.06,0,2.26,1.81,3.71,4.91,4.51l4.51,1.16c6.32,1.65,8.72,4.55,8.72,8.91,0,6.22-5.06,10.13-12.22,10.13-6.22,0-11-2.71-12.73-9l4.36-1.66c1.3,4.61,4.4,6.47,8.52,6.47s6.81-2,6.81-5.21c0-2.41-1.4-3.81-5-4.77l-4.41-1.1c-5.66-1.45-8.62-4.56-8.62-8.92,0-5.16,4.41-8.82,11.42-8.82,6.07,0,10.18,2.61,11.48,7.47l-4.31,1.85c-1.1-3.21-3.46-5.11-7.56-5.11" fill="#626365"/>
        <rect y="190.86" width="235.67" height="4.57" fill="#626365"/>
        <rect x="608.37" y="190.86" width="235.67" height="4.57" fill="#626365"/>
      </g>
    </g>
  </g>
</svg>
