<?xml version="1.0" encoding="utf-8"?>
<!-- Generator: Adobe Illustrator 24.1.0, SVG Export Plug-In . SVG Version: 6.00 Build 0)  -->
<svg version="1.1" id="Layer_1" xmlns="http://www.w3.org/2000/svg" xmlns:xlink="http://www.w3.org/1999/xlink" x="0px" y="0px"
	 viewBox="0 0 485.9 86.5" style="enable-background:new 0 0 485.9 86.5;" xml:space="preserve">
<style type="text/css">
	.st0{fill:#18283F;}
	.st1{opacity:0.5;fill:#18283F;}
</style>
<path class="st0" d="M371.7,56.1c0.1,0,1-0.5,2.5-2.8c2.1-3.1,3.3-6.5,4.7-9.9c5.3-13.2,10.7-26.5,16-39.7c0.1-0.3,0.2-0.5,0.4-1
	c0.2,0.5,0.4,0.8,0.5,1.1c6.2,14.5,12.5,29,18.7,43.4c1.4,3.3,3.2,6.5,5.9,9c0.4,0.4,0.9,0.7,1.4,1.1c-8.1,0-16.1,0-24.3,0
	c0.2-0.2,0.4-0.3,0.6-0.3c3.6-1.6,4.9-4.3,3.8-8c-0.7-2.3-1.7-4.6-2.6-6.8c-0.1-0.2-0.5-0.4-0.7-0.4c-5.8,0-11.6,0-17.3,0
	c-0.3,0-0.7,0.3-0.8,0.6c-0.8,2-1.7,4-2.4,6c-1.4,3.9-0.1,6.8,3.6,8.6c0.2,0.1,0.4,0.2,0.9,0.5c-3.8,0-7.4,0-11,0V56.1z M390,18.7
	c-3,7.5-5.8,14.6-8.7,21.9c5.9,0,11.7,0,17.6,0C395.9,33.3,393,26.1,390,18.7z"/>
<path class="st0" d="M487.1,4C486,5,484.9,5.7,484,6.7c-1.5,1.7-2.3,3.7-2.3,6c0,11.9-0.1,23.9,0,35.8c0,3.8,1.9,6.6,5.1,8.5
	c0.1,0.1,0.2,0.1,0.5,0.3c-7.8,0-15.5,0-23.2,0c0.8-0.6,1.7-1.1,2.4-1.8c2.2-2,3.2-4.5,3.2-7.4c0-12.7,0-25.4,0-38
	c0-0.1,0-0.2-0.1-0.5c-6.6,16.1-13.2,31.9-19.8,48c-6.8-15.4-13.4-30.6-20.1-45.7c-0.1,0-0.1,0-0.2,0c0,0.3,0,0.7,0,1
	c0,11.5,0,23,0,34.5c0,4.4,1.8,7.7,5.8,9.7c0.1,0,0.1,0.1,0.3,0.3c-4.3,0-8.6,0-12.9,0c0.6-0.4,1.1-0.7,1.6-1.1
	c2.5-1.8,3.9-4.3,4-7.4c0.1-12.1,0.1-24.2,0-36.3c0-3.5-1.9-6.3-5-8c-0.2-0.1-0.4-0.2-0.5-0.5c0.3,0,0.5,0,0.8,0c4.9,0,9.7,0,14.6,0
	c0.7,0,1,0.2,1.2,0.8c5.1,11.8,10.2,23.6,15.3,35.4c0.1,0.3,0.3,0.7,0.5,1.2c0.2-0.4,0.3-0.7,0.4-1c4.9-11.8,9.8-23.7,14.7-35.5
	c0.3-0.6,0.6-0.9,1.3-0.9C476.7,4.1,481.9,4,487.1,4z"/>
<path class="st0" d="M-2.9,9.5v46.2h48.3V9.5H-2.9z M20.8,47.3H3V17.9h4.6v25.3h13.2V47.3z M39.5,22h-8.7v25.3h-4.6V22h-8.7v-4.1
	h22.1V22z"/>
<polygon class="st0" points="115.7,17.5 128.2,17.5 128.2,53.6 134.8,53.6 134.8,17.5 147.3,17.5 147.3,11.6 115.7,11.6 "/>
<path class="st0" d="M211.7,27.7c0-9.7-6.4-16-17.9-16H183v42h6.6v-10h4.1c1.1,0,2.1-0.1,3-0.2l7.2,10.2h7.8l-8.5-11.9
	C208.8,39.1,211.7,34.1,211.7,27.7z M193.5,37.9h-3.9V17.5h3.9c8,0,11.3,3.8,11.3,10.2C204.9,34.1,201.6,37.9,193.5,37.9z"/>
<path class="st0" d="M235.8,48.2c-8.4,0-14.6-6.5-14.6-15.6c0-8.9,6.1-15.6,14.4-15.6c5.6,0,9.1,2,11.9,5.7l5.1-3.6
	c-3.6-5.1-9-8.1-16.8-8.1c-12,0-21.4,9.1-21.4,21.5c0,12.4,9.3,21.5,21.2,21.5c8.1,0,13.6-2.8,18-8.6l-5.1-3.5
	C245.3,46.1,241.3,48.2,235.8,48.2z"/>
<path class="st0" d="M317.1,27.7c0-9.7-6.4-16-17.9-16h-10.7v42h6.6v-10h4.1c1,0,2.1-0.1,3-0.2l7.2,10.2h7.8l-8.5-11.9
	C314.2,39.1,317.1,34.1,317.1,27.7z M298.9,37.9h-3.9V17.5h3.9c8,0,11.4,3.8,11.4,10.2C310.3,34.1,307,37.9,298.9,37.9z"/>
<path class="st0" d="M337.3,10.7h-0.4l-18.4,42.8h6.7l2.4-5.9h18.8l2.4,5.9h7L337.3,10.7z M330.1,41.9l7-16.6l6.9,16.6H330.1z"/>
<polygon class="st0" points="257.1,53.6 284.5,53.6 284.5,47.7 263.8,47.7 263.8,40.6 281.6,40.6 281.6,34.9 263.8,34.9 263.8,17.5 
	284.5,17.5 284.5,11.6 257.1,11.6 "/>
<polygon class="st0" points="158,40.6 175.9,40.6 175.9,34.9 158,34.9 158,17.5 179,17.5 179,11.6 151.4,11.6 151.4,53.6 179,53.6 
	179,47.7 158,47.7 "/>
<path class="st0" d="M97.2,10.8l-15.9,37H64.6V11.6H58v42h27.5l2.4-5.9h18.8l2.4,5.9h7L97.6,10.8H97.2z M90.3,41.9l7-16.6l6.8,16.6
	H90.3z"/>
<path class="st0" d="M381.6,73.4c0.6,0,1.2-0.5,1.2-1.2v-3c0-0.6-0.5-1.2-1.2-1.2s-1.2,0.5-1.2,1.2v3
	C380.4,72.8,380.9,73.4,381.6,73.4z"/>
<path class="st0" d="M373.4,76.1c0.2,0.2,0.5,0.3,0.8,0.3s0.6-0.1,0.8-0.3c0.5-0.5,0.5-1.2,0-1.7l-2.1-2.1c-0.5-0.5-1.2-0.5-1.7,0
	c-0.5,0.5-0.5,1.2,0,1.7L373.4,76.1z"/>
<path class="st0" d="M388.9,76.4c0.3,0,0.6-0.1,0.8-0.3l2.1-2.1c0.5-0.5,0.5-1.2,0-1.7c-0.5-0.5-1.2-0.5-1.7,0l-2.1,2.1
	c-0.5,0.5-0.5,1.2,0,1.7C388.3,76.3,388.6,76.4,388.9,76.4z"/>
<path class="st0" d="M395,81.4h-5.8c-0.6-3.7-3.8-6.5-7.6-6.5s-7,2.8-7.6,6.5h-5.8c-0.6,0-1.2,0.5-1.2,1.2s0.5,1.2,1.2,1.2h5.7h15.4
	h5.7c0.6,0,1.2-0.5,1.2-1.2S395.6,81.4,395,81.4z M376.3,81.4c0.5-2.4,2.7-4.2,5.2-4.2s4.7,1.8,5.2,4.2H376.3z"/>
<circle class="st1" cx="433.7" cy="78.5" r="2.8"/>
<circle class="st1" cx="488.1" cy="78.5" r="2.8"/>
</svg>
