<?xml version="1.0" encoding="utf-8"?>
<!-- Generator: Adobe Illustrator 24.1.0, SVG Export Plug-In . SVG Version: 6.00 Build 0)  -->
<svg version="1.1" id="Layer_1" xmlns="http://www.w3.org/2000/svg" xmlns:xlink="http://www.w3.org/1999/xlink" x="0px" y="0px"
	 viewBox="0 0 500.9 78.3" style="enable-background:new 0 0 500.9 78.3;" xml:space="preserve">
<style type="text/css">
	.st0{fill:#211914;}
	.st1{fill:#A01622;}
	.st2{fill:none;stroke:#A01622;stroke-width:0.208;stroke-miterlimit:10;}
	.st3{fill:#FFFFFF;}
</style>
<path class="st0" d="M211.2,77.2h2.4V21.6h-2.4V77.2z M273.3,77.2V1.1h-2.4v72.2l-48.6-60.8l-1.1,2.2l50,62.6H273.3z"/>
<polygon class="st0" points="213.8,19 222.8,0.4 149.4,0.4 126.9,0.4 107.7,44 87.2,0.4 65.6,0.4 65.6,77.2 87.3,77.2 87.2,38.5 
	102.3,77.2 112.8,77.2 127.8,38.5 127.8,77.2 149.4,77.2 149.4,19 170.2,19 170.2,18.9 170.2,18.9 170.2,77.2 193.8,77.2 193.8,19 
	"/>
<g>
	<path class="st0" d="M485.7,76.7c3.2-1.1,6-2.5,8.2-4.3c2.2-1.8,4-4,5.2-6.4c1.2-2.5,1.8-5.1,1.8-7.9v-0.2c0-2.6-0.4-4.9-1.3-7
		c-0.9-2.1-2.3-3.9-4.4-5.5c-2.1-1.6-4.8-3.1-8.1-4.4c-3.4-1.3-7.5-2.4-12.4-3.4c-4.7-0.9-8.6-2-11.7-3.1c-3.1-1.1-5.6-2.4-7.5-3.8
		c-1.9-1.4-3.3-3-4.1-4.8c-0.8-1.8-1.2-3.9-1.2-6.2v-0.2c0-2.2,0.5-4.4,1.6-6.5c1-2.1,2.6-3.9,4.5-5.5c2-1.6,4.3-2.9,7-3.8
		c2.7-0.9,5.7-1.4,9.1-1.4c4.7,0,9.1,0.8,13.2,2.3c4.1,1.6,7.9,3.6,11.3,6.1l1.5-2c-3.5-2.7-7.4-4.8-11.8-6.4
		c-4.4-1.6-9.1-2.3-14.1-2.3c-3.6,0-6.9,0.5-9.9,1.5c-3,1-5.6,2.4-7.8,4.2c-2.2,1.8-3.9,3.8-5.2,6.2c-1.2,2.4-1.8,4.9-1.8,7.6v0.2
		c0,2.7,0.5,5.1,1.4,7.1c0.9,2.1,2.4,3.9,4.5,5.5c2.1,1.6,4.7,3,8,4.2c3.3,1.2,7.3,2.3,12,3.2c4.8,1,8.8,2.1,12,3.2
		c3.2,1.1,5.8,2.4,7.7,3.9c1.9,1.5,3.2,3.1,4,4.9c0.8,1.8,1.2,3.9,1.2,6.3v0.2c0,2.5-0.5,4.9-1.6,7.1c-1.1,2.2-2.6,4.1-4.7,5.7
		c-2,1.6-4.5,2.8-7.4,3.8c-2.9,0.9-6.1,1.4-9.7,1.4c-5.6,0-10.8-1-15.5-3c-4.8-2-9.1-4.9-13-8.7l-1.7,1.7c4.1,3.9,8.7,6.9,13.7,9
		c5,2.1,10.5,3.2,16.3,3.2C478.9,78.3,482.5,77.8,485.7,76.7"/>
</g>
<polygon class="st0" points="367.5,77.8 369.6,77.8 392.6,5.3 415.8,77.8 417.8,77.8 443.1,1.1 440.7,1.1 416.8,74.1 393.6,0.9 
	391.8,0.9 368.6,73.9 344.7,1.1 342.2,1.1 "/>
<polygon class="st0" points="286.4,77.2 340.1,77.2 340.1,75 288.8,75 288.8,40 334.9,40 334.9,37.8 288.8,37.8 288.8,3.3 
	339.5,3.3 339.5,1.1 286.4,1.1 "/>
<rect x="0.1" y="13.9" class="st1" width="54.3" height="52.1"/>
<rect x="0.1" y="13.9" class="st2" width="54.3" height="52.1"/>
<polygon class="st3" points="6.6,23.4 11.8,23.4 11.8,52 26.8,52 26.8,56.7 6.6,56.7 "/>
<polygon class="st2" points="6.6,23.4 11.8,23.4 11.8,52 26.8,52 26.8,56.7 6.6,56.7 "/>
<polygon class="st3" points="32.8,28.1 22.9,28.1 22.9,23.4 47.8,23.4 47.8,28.1 38,28.1 38,56.7 32.8,56.7 "/>
<polygon class="st2" points="32.8,28.1 22.9,28.1 22.9,23.4 47.8,23.4 47.8,28.1 38,28.1 38,56.7 32.8,56.7 "/>
<polygon class="st1" points="12.9,70.2 10.6,70.2 10.6,69.2 16.4,69.2 16.4,70.2 14.1,70.2 14.1,76.8 12.9,76.8 "/>
<g>
	<path class="st1" d="M24.8,74c1.5,0,2.1-0.7,2.1-1.9c0-1.2-0.6-1.9-2.1-1.9h-0.7V74H24.8z M28.1,76.8h-1.4L25.4,75
		c-0.2,0-0.4,0-0.5,0h-0.8v1.8h-1.2v-7.6h2c2.1,0,3.3,1.2,3.3,2.9c0,1.2-0.5,2.1-1.5,2.6L28.1,76.8z"/>
	<path class="st1" d="M28.6,73c0-2.3,1.7-3.9,3.9-3.9c1.4,0,2.4,0.6,3.1,1.5l-0.9,0.7c-0.5-0.7-1.2-1-2.2-1c-1.5,0-2.6,1.2-2.6,2.8
		c0,1.7,1.1,2.8,2.7,2.8c1,0,1.7-0.4,2.3-1.1l0.9,0.6c-0.8,1-1.8,1.6-3.3,1.6C30.3,76.9,28.6,75.2,28.6,73"/>
	<path class="st1" d="M44,74c1.5,0,2.1-0.7,2.1-1.9c0-1.2-0.6-1.9-2.1-1.9h-0.7V74H44z M47.3,76.8h-1.4L44.6,75c-0.2,0-0.4,0-0.5,0
		h-0.8v1.8h-1.2v-7.6h2c2.1,0,3.3,1.2,3.3,2.9c0,1.2-0.5,2.1-1.5,2.6L47.3,76.8z"/>
</g>
<path class="st1" d="M51,71.6l-1.3,3h2.5L51,71.6z M48.8,76.8h-1.2l3.4-7.8H51l3.4,7.8h-1.3l-0.4-1.1h-3.4L48.8,76.8z"/>
<polygon class="st1" points="41.4,75.7 37.6,75.7 37.6,74.4 40.8,74.4 40.8,73.4 37.6,73.4 37.6,70.2 41.4,70.2 41.4,69.2 
	36.4,69.2 36.4,76.8 41.4,76.8 "/>
<polygon class="st1" points="18.3,74.4 21.6,74.4 21.6,73.4 18.3,73.4 18.3,70.2 22.1,70.2 22.1,69.2 17.1,69.2 17.1,76.8 
	22.2,76.8 22.2,75.7 18.3,75.7 "/>
<polygon class="st1" points="0.1,69.2 1.3,69.2 1.3,75.7 4.8,75.7 4.8,76.8 0.1,76.8 "/>
<path class="st1" d="M7.3,71.7l-1.3,3h2.5L7.3,71.7z M5.1,76.8H3.9L7.2,69h0.1l3.4,7.8H9.4L9,75.7H5.5L5.1,76.8z"/>
</svg>
