<svg version="1.1" id="Layer_1" xmlns="http://www.w3.org/2000/svg" x="0" y="0" viewBox="0 0 816.9 272.7" xml:space="preserve"><style>.st0{fill:#232020}.st1{font-family:&apos;ArialMT&apos;}.st2{font-size:111.98px}.st4{letter-spacing:-8}.st5{letter-spacing:-6}</style><path class="st0" d="M25.2 0v50.3c4.3-4.4 9.3-7.9 14.9-10.3 5.4-2.3 11.3-3.5 17.1-3.4 13.2 0 24.5 5 33.8 15 9.3 10 13.9 22.8 13.9 38.5 0 15.1-4.8 27.7-14.4 37.9-9.6 10.2-20.9 15.2-34 15.2-5.6 0-11.1-1-16.3-3.1-5.6-2.5-10.7-5.9-15-10.2v10.7H0V0h25.2zM52 60c-7.5-.2-14.8 2.8-20 8.2-5.3 5.5-7.9 12.6-7.9 21.4 0 9 2.6 16.3 7.9 21.9 5.2 5.5 12.4 8.6 20 8.3 7.5.1 14.6-3 19.6-8.5 5.3-5.7 8-12.9 8-21.6 0-8.8-2.6-15.9-7.8-21.4-5.1-5.4-12.3-8.5-19.8-8.3z"/><path class="st0" d="M205.4 97.2h-81.8c1.2 7.2 4.3 12.9 9.5 17.2 5.1 4.3 11.7 6.4 19.6 6.4 9.2.1 18-3.5 24.5-10l21.4 10.1c-4.8 7.2-11.5 13-19.2 16.9-7.5 3.6-16.3 5.4-26.6 5.4-15.9 0-28.9-5-38.9-15.1-10-10-15-22.6-15-37.7 0-15.5 5-28.3 15-38.5s22.5-15.3 37.5-15.4c16 0 29 5.1 39 15.3 10 10.2 15 23.7 15 40.5v4.9zm-25.5-20c-1.6-5.6-5.1-10.5-9.9-13.8-5-3.6-11.1-5.4-17.2-5.3-6.7-.1-13.3 2-18.7 6-3.3 2.5-6.4 6.9-9.3 13.1h55.1z"/><path class="st0" d="M305.1 97.2h-81.8c.9 6.7 4.3 12.8 9.5 17.2 5.1 4.2 11.7 6.4 19.6 6.4 9.2.1 18-3.5 24.5-10l21.4 10.1c-4.8 7.2-11.5 13-19.2 16.9-7.5 3.6-16.3 5.4-26.6 5.4-15.9 0-28.9-5-38.9-15.1-10-10-15-22.6-15-37.7 0-15.5 5-28.3 15-38.5s22.5-15.3 37.4-15.4c16 0 29 5.1 39 15.3s15 23.7 15 40.5l.1 4.9zm-25.5-20c-1.6-5.6-5.2-10.5-9.9-13.8-5-3.6-11.1-5.4-17.2-5.3-6.7-.1-13.3 2-18.7 6-3.4 2.5-6.5 6.9-9.3 13.1h55.1zm36.2-75.4h25.5v37.4h15.1v21.9h-15.1v79.5h-25.5V61.1h-13.1V39.2h13.1V1.8zM360.7 0H386v49.4c4.5-4 9.5-7.2 15-9.7 4.8-2.1 10-3.2 15.3-3.2 9.6-.2 18.8 3.6 25.5 10.4 5.9 6 8.9 14.9 8.8 26.6v67h-25.1V96.1c0-11.7-.6-19.7-1.7-23.9s-3-7.3-5.7-9.3c-2.9-2.1-6.4-3.2-10-3.1-4.9-.1-9.7 1.8-13.3 5.1-3.7 3.4-6.3 8.1-7.7 14-.7 3-1.1 10-1.1 20.9v40.7h-25.3V0z"/><path class="st0" d="M500.9 36.5c9.5 0 18.8 2.5 27 7.2 16.6 9.4 26.9 27 26.8 46.1 0 9.4-2.4 18.7-7.1 26.9-4.6 8.2-11.3 14.9-19.4 19.5-8.3 4.7-17.6 7.1-27.1 7-14 .2-27.5-5.4-37.2-15.5-10.3-10.3-15.4-22.9-15.4-37.7 0-15.9 5.8-29.1 17.4-39.6 10-9.3 21.8-13.8 35-13.9zm.4 24c-7.5-.2-14.6 2.8-19.7 8.3-5.3 5.5-7.9 12.5-7.9 21.1 0 8.8 2.6 16 7.8 21.4 5.2 5.5 11.8 8.2 19.8 8.2 7.5.2 14.7-2.8 19.9-8.3 5.3-5.5 7.9-12.6 7.9-21.4 0-8.7-2.6-15.8-7.8-21.2-5.2-5.4-11.9-8.1-20-8.1z"/><path class="st0" d="M536.8 39.2h25.9L588.4 99 614 39.2h25.8l-43.2 101.4h-16.5L536.8 39.2z"/><path class="st0" d="M728.6 97.2h-81.8c.9 6.7 4.3 12.8 9.5 17.2 5.1 4.3 11.7 6.4 19.6 6.4 9.2.1 18-3.5 24.5-10l21.4 10.1c-4.8 7.2-11.5 13-19.2 16.9-7.5 3.6-16.3 5.4-26.5 5.4-15.9 0-28.9-5-38.9-15.1-10-10-15-22.6-15-37.7 0-15.5 5-28.3 15-38.5s22.5-15.3 37.5-15.3c16 0 29 5.1 39 15.3 10 10.2 15 23.7 15 40.5l-.1 4.8zm-25.4-20c-1.6-5.6-5.2-10.5-10-13.8-5-3.6-11.1-5.4-17.2-5.3-6.7-.1-13.3 2-18.7 6-3.4 2.5-6.5 6.9-9.3 13.1h55.2z"/><path class="st0" d="M726.9 39.2h25.5v10.4c5.8-4.9 11-8.2 15.7-10.2 4.6-1.9 9.4-2.9 14.4-2.9 9.6-.2 18.9 3.6 25.6 10.5 5.9 6 8.8 14.8 8.8 26.5v67h-25.2V96.2c0-12.1-.5-20.1-1.6-24.1-.8-3.6-2.8-6.8-5.7-9.1-2.9-2.1-6.4-3.2-10-3.1-4.9-.1-9.7 1.8-13.2 5.2-3.7 3.4-6.2 8.2-7.7 14.3-.7 3.2-1.1 10-1.1 20.6v40.7h-25.5V39.2z"/><text transform="translate(472.28 236.32)" class="st0 st1 st2" letter-spacing="-15">9</text><text transform="translate(518.76 236.32)" class="st0 st1 st2 st4">6</text><text transform="translate(571.93 236.32)" class="st0 st1 st2 st5">.</text><text transform="translate(596.14 236.32)" class="st0 st1 st2 st5">5</text><text transform="translate(675.76 236.32)" class="st0 st1 st2 st4">F</text><text transform="translate(721.44 236.32)" class="st0 st1 st2 st5">M</text></svg>