<svg xmlns="http://www.w3.org/2000/svg" viewBox="0 0 466.73 201.6">
  <title>biutblack</title>
  <g id="5457b057-f39d-4d3c-9008-bd67fcdb2f7e" data-name="Layer 2">
    <g id="f0abc20f-e502-472a-bb44-2e6b1ef3980b" data-name="Layer 1">
      <g>
        <path d="M2.79,197.86V3.05H39.88V73.79C50.49,58.85,64.55,51.41,82.21,51.41A54.74,54.74,0,0,1,107,56.87,51.94,51.94,0,0,1,125.36,72a69.63,69.63,0,0,1,11.46,23.38,105.78,105.78,0,0,1,4,29.65,103.52,103.52,0,0,1-4.65,32.16,73.48,73.48,0,0,1-12.8,24,53.78,53.78,0,0,1-19.55,15.1,58.49,58.49,0,0,1-24.84,5.23c-17.68,0-30.94-7.06-39.58-21.16L39,197.86Zm67.57-27c9.38,0,17.15-4,23.13-11.94,6-8.11,9-18.45,9-31.25q0-44.08-32.47-44.13c-21.09,0-31.59,15.6-31.59,46.42q0,18.35,9.16,29.62C53.62,167.13,61.24,170.85,70.36,170.85Z" style="opacity: 0.30000000000000004"/>
        <path d="M154,38.16V3.05h37.66V38.22Zm0,159.7V55.27h37.66V197.86Z" style="opacity: 0.30000000000000004"/>
        <path d="M300.42,197.86v-20q-14.57,23.76-44.33,23.76a52.51,52.51,0,0,1-19.66-3.74A44.45,44.45,0,0,1,221.3,187.1a48.68,48.68,0,0,1-10-16.54,60.44,60.44,0,0,1-3.62-21.39V55.27h37.67v88c0,17.83,8,26.67,24,26.67,9.67,0,16.92-3.06,21.83-9.08s7.43-13.83,7.43-23.37V55.27H336l0,142.59Z" style="opacity: 0.30000000000000004"/>
        <path d="M432,104h34.72v40.55a70,70,0,0,1-3.32,21.59A49.78,49.78,0,0,1,435,197c-7.12,3-15.79,4.58-25.8,4.58-10.46,0-19.24-1.57-26.65-4.58a51.5,51.5,0,0,1-18.08-12.5,49.16,49.16,0,0,1-10.22-18.21,77.87,77.87,0,0,1-3.1-22.06V16.67h37.31v38.6h78.24v26.6H388.49v58.59c0,9.16,1.65,16,5,21.05s8.9,7.29,16.56,7.29c7.45,0,13-2.36,16.54-7.19S432,149.92,432,141Z" style="opacity: 0.30000000000000004"/>
        <path d="M0,194.74.05,0H37.18V70.66C47.73,55.78,61.89,48.44,79.46,48.44c9.27,0,17.54,1.71,24.75,5.31A53.09,53.09,0,0,1,122.6,68.92,67.4,67.4,0,0,1,134,92.27,103.6,103.6,0,0,1,138,122c0,12-1.5,22.75-4.59,32.2a74,74,0,0,1-12.85,24A56.13,56.13,0,0,1,101,193.37a60.85,60.85,0,0,1-24.81,5.07c-17.73,0-31-7-39.63-21.12l-.26,17.42Zm67.57-27c9.41,0,17.2-3.94,23.24-11.94s8.91-18.47,8.91-31.21c0-29.34-10.77-44-32.44-44-21.1,0-31.58,15.5-31.58,46.4,0,12.18,3,22,9.13,29.52S58.51,167.72,67.57,167.72Z"/>
        <path d="M151.34,35l0-35H189V35Zm0,159.72,0-142.62H189V194.74Z"/>
        <path d="M297.66,194.74v-20c-9.63,15.87-24.49,23.75-44.3,23.75a48.52,48.52,0,0,1-19.58-3.7A44.17,44.17,0,0,1,218.58,184a48.4,48.4,0,0,1-10-16.57A58,58,0,0,1,205,146V52.12h37.66l0,88.08c0,17.85,8,26.66,24,26.66,9.63,0,16.9-3,21.87-9.08s7.38-13.79,7.38-23.34V52.12h37.41l0,142.62Z"/>
        <path d="M429.24,100.85h34.83v40.54a70.61,70.61,0,0,1-3.4,21.56,49.3,49.3,0,0,1-28.35,30.91c-7.15,3.15-15.8,4.57-25.83,4.57-10.44,0-19.29-1.42-26.67-4.57a50.8,50.8,0,0,1-18-12.55,47.88,47.88,0,0,1-10.18-18.14,73.87,73.87,0,0,1-3.15-22.11V13.58h37.32V52.12h78.3V78.76l-78.3.06v58.49c0,9.1,1.63,16.15,5.06,21s8.85,7.35,16.49,7.35,13.07-2.27,16.59-7.19,5.33-11.63,5.33-20.63Z"/>
      </g>
    </g>
  </g>
</svg>
