<svg xmlns="http://www.w3.org/2000/svg" viewBox="0 0 720.39 140.56">
  <title>icaritoblack</title>
  <g id="a889827c-a2f1-4204-a7fa-64eb2d2585f2" data-name="Layer 2">
    <g id="98a650b2-59b3-451b-b5cc-a4e9d75f7e76" data-name="Layer 1">
      <g>
        <path d="M44,29.88v82.64q0,10.76-5.59,17.74c-4,5.13-9.49,7.65-16.55,7.65a21.15,21.15,0,0,1-16.25-7.17c-3.8-3.92-5.57-10-5.62-18.22V29.88C0,20.59,1.81,13.94,5.62,9.76A20.74,20.74,0,0,1,21.86,2.68a21,21,0,0,1,16.36,7C42,13.94,44,20.68,44,29.88Z"/>
        <path d="M123,0c16.25,0,31.08,5.4,44.74,16.34,10.68,8.68,16,17.47,16,26.68,0,7.85-3.17,13.82-9.75,18.11a21.44,21.44,0,0,1-12.08,3.66,22,22,0,0,1-10.27-2.51q-2-1.08-10.13-9.82a24.65,24.65,0,0,0-18.8-8.21,24.94,24.94,0,0,0-18.41,7.55A25.33,25.33,0,0,0,97,70.34a25.26,25.26,0,0,0,7.3,18.41,24.91,24.91,0,0,0,18.26,7.54c6,0,11.52-2.08,16.72-6.1,3.18-3,6.36-6.06,9.42-9.14,3.38-2.94,7.67-4.42,12.91-4.42a22.21,22.21,0,0,1,15.56,6.28,20.49,20.49,0,0,1,6.58,15.33c0,8.11-4.75,16.37-14.35,24.68-13.43,11.67-28.85,17.63-46.53,17.63a70,70,0,0,1-30.69-7,69,69,0,0,1-29-25.88A67.83,67.83,0,0,1,52.35,70.49c0-20.2,7.41-37.38,22.4-51.55Q94.6.31,123,0Z"/>
        <path d="M469.84,29.88v82.64q0,10.76-5.58,17.74c-4,5.13-9.46,7.65-16.47,7.65a21.29,21.29,0,0,1-16.29-7.17c-3.69-3.92-5.61-10-5.61-18.22V29.88c0-9.29,1.9-15.94,5.58-20.12a22.47,22.47,0,0,1,32.69-.06C467.88,13.94,469.84,20.68,469.84,29.88Z"/>
        <path d="M507.16,44.53H495.63c-6.47,0-11.78-1.75-16.07-5.25-4.48-3.81-6.7-8.82-6.7-15.16a21.09,21.09,0,0,1,3.14-11,18.21,18.21,0,0,1,8.2-7.29c3.39-1.51,11.36-2.24,23.85-2.24h44.32c10.89,0,17.93.69,21.07,2A17.44,17.44,0,0,1,582,12.91,19.84,19.84,0,0,1,585.34,24c0,6-2.49,11.28-7.32,15.81-3.44,3.14-9,4.74-16.84,4.74h-10v66.32c0,7.34-1.26,12.89-3.74,16.82-4.22,6.73-10.16,10.08-18.12,10.08s-13.93-3.15-18-9.21c-2.71-3.68-4-9.38-4-17.18Z"/>
        <path d="M308.76,105.47,266.62,16c-4.06-8.9-11-13.35-20.55-13.35s-16.17,4.29-20.2,13l-41.63,88.68a26.15,26.15,0,0,0-2.78,11.71,21.8,21.8,0,0,0,3.79,12.42,20.73,20.73,0,0,0,18,9.42,21.06,21.06,0,0,0,16.14-7.27c2.17-2.38,4.36-6.08,6.45-11h40.75c2.83,6.08,5.61,10.36,8.43,13a20.19,20.19,0,0,0,14.15,5.32,21,21,0,0,0,17-8,20.41,20.41,0,0,0,5.08-13.81A25.14,25.14,0,0,0,308.76,105.47ZM245.39,77.84H232.27l6.56-14.26,6.56-14.26,6.55,14.26,6.57,14.26Z"/>
        <path d="M411.74,102.07,401.35,85.52c9.59-10.63,14.33-22,14.33-34.08a48.89,48.89,0,0,0-4-19.14,46.72,46.72,0,0,0-17.31-20.62,44.69,44.69,0,0,0-25.6-8.05H340.85q-27.25,0-27.26,25.32v82c0,7.76,1.76,14,5.26,18.75,4,5.37,9.66,8.16,17.13,8.16a20.09,20.09,0,0,0,15.41-6.5,22,22,0,0,0,6.15-15.7V97.63l18.3,30c4.16,6.85,10.11,10.23,18,10.23a21.8,21.8,0,0,0,15.71-6.18A20.28,20.28,0,0,0,416,116.37,28,28,0,0,0,411.74,102.07ZM379.19,52.16c0,5.35-6.13,9.7-13.65,9.7H347.81l0-22.88h17.75c7.48,0,13.63,4.39,13.65,9.83Z"/>
        <path d="M713,39.08a69.66,69.66,0,0,0-25.76-28.46A66.77,66.77,0,0,0,649.92,0,70.47,70.47,0,0,0,612.2,11a68.39,68.39,0,0,0-26,29.79A66.7,66.7,0,0,0,579.82,69a73.49,73.49,0,0,0,7.39,32.6,69.26,69.26,0,0,0,25.72,28.29,67.9,67.9,0,0,0,36.66,10.65,70.53,70.53,0,0,0,37-10.17,69,69,0,0,0,24.7-25.79A69.23,69.23,0,0,0,713,39.08ZM664.67,85.13a20.87,20.87,0,0,1-35.5-14.73,19.49,19.49,0,0,1,6.23-14.64,20.8,20.8,0,0,1,29.27,0,19.34,19.34,0,0,1,6.17,14.64A19.63,19.63,0,0,1,664.67,85.13Z"/>
      </g>
    </g>
  </g>
</svg>
