<svg xmlns="http://www.w3.org/2000/svg" viewBox="0 0 499.87 169.09">
  <title>lahorablack</title>
  <g id="994a85bb-1412-44e8-a5b3-7a41a34a6469" data-name="Layer 2">
    <g id="ac2aefe5-2cd6-4f66-89bd-58426a8a9b00" data-name="Layer 1">
      <g>
        <path d="M354,99.05q0,30.26-13,50t-33.28,19.74q-20.39,0-33.41-19.53t-13.1-49.81q0-29.47,13.13-48.4t33.71-19q19.72,0,32.84,19.12T354,99.05m-33,1.08q-.05-44.87-13.64-44.83c-4.08,0-7.35,4.05-9.75,12.12S294,86.34,294,99.91q0,20.89,3.67,33.27c2.42,8.25,5.7,12.38,9.78,12.37q6.47,0,10-12c2.36-8,3.54-19.1,3.52-33.39"/>
        <path d="M423.88,42.26,415,80.88a15.79,15.79,0,0,0-9.92-3.39c-7.81,0-12.92,5.84-15.41,17.5-1,4.33-1.45,12.68-1.43,25l.05,45.37-32.05,0-.16-130.34,32.05,0,0,30.23,2.45-8.33q7.26-25.09,17.16-25.09,7.17,0,16.1,10.42"/>
        <path d="M499.87,165.33l-34,0A83.58,83.58,0,0,1,464.75,151q-11.47,17.53-25.22,17.55-9.7,0-17-11.73T415.22,129q0-21.34,11.41-36c5.48-7,14.1-12.44,25.95-16.46l13.08-4.44q-4.55-13-14.36-13t-20,14.06l-9-23.19q17.12-18,37-18.07,22.34,0,31.9,20,5.7,12,5.72,42.22l0,30.26q0,26.09,3,40.92M465.7,110.11V98.38q-1.94.78-6.79,2.87-14.38,6.27-14.34,20.89a21.13,21.13,0,0,0,2.58,10.54c1.72,3,3.67,4.58,5.83,4.58s4.29-1.08,6.39-3.15a18.87,18.87,0,0,0,4.58-8.35,60.13,60.13,0,0,0,1.76-15.65"/>
        <polygon points="259.95 165.56 229.38 165.61 229.29 90.13 196.47 90.18 196.55 165.65 165.86 165.69 165.67 0.64 196.36 0.6 196.42 58.63 229.25 58.59 229.18 0.56 259.75 0.51 259.95 165.56"/>
        <polygon points="32.24 136.62 32.07 0 0 0.05 0.2 166.02 17.74 166 17.74 166 59.27 165.96 59.23 136.57 32.24 136.62"/>
        <path d="M137.21,165.82l-34,.05a83.77,83.77,0,0,1-1.14-14.32q-11.47,17.53-25.22,17.54c-6.46,0-12.15-3.9-17-11.72s-7.3-17.1-7.31-27.9q0-21.34,11.42-36Q72.23,83,89.93,77L103,72.59q-4.54-13-14.36-13t-20,14.07L59.59,50.44q17.13-18,37-18.07,22.32,0,31.89,20.05,5.68,12,5.71,42.22l0,30.27q0,26.09,3,40.91m-34.16-55.21V98.88c-1.31.52-3.56,1.47-6.8,2.87Q81.86,108,81.9,122.64a20.78,20.78,0,0,0,2.59,10.54c1.74,3,3.67,4.58,5.83,4.58s4.28-1.08,6.38-3.14a18.78,18.78,0,0,0,4.61-8.35,60.26,60.26,0,0,0,1.74-15.65"/>
      </g>
    </g>
  </g>
</svg>
