<svg xmlns="http://www.w3.org/2000/svg" viewBox="0 0 846.16 132.53">
  <title>lt-tendenciasblack</title>
  <g id="51a5eb79-ef50-4758-9a1e-7b918fd108e4" data-name="Layer 2">
    <g id="688abe15-0747-45b4-b712-79c9813673d7" data-name="Layer 1">
      <g>
        <path d="M0,47.1V116H71.76V47.1Zm35.28,56.57H8.59V59.75H15.5V97.53H35.28ZM63.14,65.88h-13v37.79H43.18V65.88h-13V59.75h33Z"/>
        <g>
          <polygon points="16.92 121.63 13.93 121.63 13.93 120.22 21.52 120.22 21.52 121.63 18.52 121.63 18.52 130.33 16.92 130.33 16.92 121.63"/>
          <path d="M37.06,130.33H35.17l-1.73-2.46a5,5,0,0,1-.73,0h-1v2.41H30.13V120.22h2.59c2.78,0,4.31,1.53,4.31,3.87a3.48,3.48,0,0,1-2,3.38Zm-4.4-3.78c1.94,0,2.73-.92,2.73-2.47s-.8-2.45-2.73-2.45h-.95v4.92Z"/>
          <path d="M37.69,125.27a5.08,5.08,0,0,1,5.16-5.19,4.64,4.64,0,0,1,4,2l-1.22.86a3.26,3.26,0,0,0-2.87-1.39,3.76,3.76,0,0,0,.06,7.5,3.58,3.58,0,0,0,3-1.47l1.24.85a5,5,0,0,1-4.33,2.07,5,5,0,0,1-5.12-5.19"/>
          <path d="M62.46,130.33H60.58l-1.73-2.46a4.93,4.93,0,0,1-.73,0h-1v2.41h-1.6V120.22h2.59c2.78,0,4.32,1.53,4.32,3.87a3.48,3.48,0,0,1-2,3.38Zm-4.41-3.78c2,0,2.74-.92,2.74-2.47s-.81-2.45-2.74-2.45h-.93v4.92Z"/>
          <path d="M64.39,130.33H62.79L67.22,120h.09l4.45,10.32H70.08l-.58-1.41H65Zm2.86-6.83-1.68,4h3.33Z"/>
          <polygon points="54.58 128.92 49.59 128.92 49.59 127.21 53.88 127.21 53.88 125.83 49.59 125.83 49.59 121.63 54.58 121.63 54.58 120.22 48 120.22 48 130.33 54.58 130.33 54.58 128.92"/>
          <polygon points="24.11 127.21 28.41 127.21 28.41 125.83 24.11 125.83 24.11 121.63 29.16 121.63 29.16 120.22 22.52 120.22 22.52 130.33 29.17 130.33 29.17 128.92 24.11 128.92 24.11 127.21"/>
          <polygon points="0 120.22 1.59 120.22 1.59 128.92 6.16 128.92 6.16 130.34 0 130.34 0 120.22"/>
          <path d="M6.62,130.34H5L9.45,120h.09L14,130.34H12.3l-.57-1.41H7.2Zm2.86-6.83-1.68,4h3.33Z"/>
        </g>
        <path d="M83.26,99.06V4h26.23V47h21.34V68.91H109.49V99.84c0,8.42,2.74,10.18,6.85,10.18,4.31,0,7.44-2.35,9.2-3.52l10,18.4c-4.11,3.33-11.16,7.63-23.3,7.63C95.4,132.53,83.26,124.11,83.26,99.06Z"/>
        <path d="M179,110.21A36.2,36.2,0,0,0,200,103.52l15.11,16.22c-8,7.06-18.19,12.36-35.61,12.39-29.75.05-49-17.93-49-43.57,0-25.25,20.09-43.3,45.93-43.34,30-.05,46.24,22.24,44.33,51.41l-63.23.11C160,105.35,167.08,110.23,179,110.21Zm15-28.8c-1.19-9.2-7.08-14.67-17.45-14.65s-17.41,4.73-19.55,14.71Z"/>
        <path d="M452.41,110.21a36.19,36.19,0,0,0,20.93-6.69l15.11,16.22c-8,7.06-18.19,12.36-35.61,12.39-29.76.05-49-17.93-49-43.57,0-25.25,20.09-43.3,45.93-43.34,29.95-.05,46.24,22.24,44.33,51.41l-63.23.11C433.41,105.35,440.47,110.23,452.41,110.21Zm15-28.8c-1.19-9.2-7.07-14.67-17.45-14.65s-17.42,4.73-19.55,14.71Z"/>
        <path d="M224,47h26.43l-.59,13.7c5.09-10,14.88-15.46,26.43-15.46,18.21,0,31.32,13.31,31.32,37v48.16H281.18V84c0-9.4-4.5-14.68-13.9-14.68-10.57,0-16.83,5.87-16.83,16.44v44.64H224Z"/>
        <path d="M310.35,88.49c0-25.65,17.23-43.27,37.39-43.27,13.31,0,20.75,5.29,26,13.51V4h26.43V130.38H373.78l.59-12.14c-4.7,8.81-13.51,13.9-26.23,13.9C327.77,132.14,310.35,114.13,310.35,88.49Zm64.21,0c0-12.33-7.44-20-18.79-20-11.16,0-18.21,7.63-18.21,20,0,13.11,7,20.55,18.21,20.55C367.12,109,374.56,101.6,374.56,88.49Z"/>
        <path d="M496.92,47h26.43l-.58,13.7c5.09-10,14.88-15.46,26.42-15.46,18.21,0,31.33,13.31,31.33,37v48.16H554.08V84c0-9.4-4.5-14.68-13.9-14.68-10.57,0-16.84,5.87-16.84,16.44v44.64H496.92Z"/>
        <path d="M583.06,88.49c0-25.26,19.58-43.27,45.62-43.27,16.64,0,26.62,6.07,35,16.64l-18.8,15.27a19.64,19.64,0,0,0-16.25-8.81c-11.94,0-18.6,8.42-18.6,20.16,0,12.14,6.66,20.75,18.6,20.75,8.42,0,12.92-3.92,16.83-7.83l17.81,15.66c-8.22,9.2-18,15.07-34.65,15.07C602.63,132.14,583.06,114.13,583.06,88.49Z"/>
        <path d="M662.14,16.44C662.14,6.85,670,0,679,0a16.33,16.33,0,0,1,16.64,16.44,16.74,16.74,0,0,1-33.48,0ZM665.67,47H692.1v83.4H665.67Z"/>
        <path d="M734.38,67c-10,0-15.27,4.31-19,7.64L700.71,58.92c7.83-7.63,16.64-13.7,36.22-13.7,21.34,0,37.59,11.55,37.59,37.78v47.37H748.28l.59-11.55c-6.27,9.59-13.51,13.31-24.67,13.31-15.27,0-29.36-6.86-29.36-26.23,0-17.82,13.5-25.06,34.06-25.06h19.38C747.89,71.26,743.19,67,734.38,67Zm-4.12,29.56c-6.65,0-9.59,2.93-9.59,7.63s3.92,7.44,11.36,7.44c10.76,0,16.24-4.7,16.24-11.75V96.51Z"/>
        <path d="M773.93,116.29l15.47-13.71a29.86,29.86,0,0,0,20.75,8.81c8.62,0,11.35-1.57,11.35-5.09,0-4.5-5.28-4.5-18.79-8-11.35-2.94-24.08-9.2-24.08-26.62,0-18.79,14.48-26.43,32.3-26.43,13.71,0,23.49,4.5,30.35,11.55L827.18,71.85a25.74,25.74,0,0,0-16.06-6.27c-6.07,0-9,1.57-9,4.9,0,4.7,5.28,5.28,16.64,7.83,12.13,2.74,27.41,8.42,27.41,26,0,15.27-8,27.8-34.26,27.8C792.52,132.14,781.17,124.9,773.93,116.29Z"/>
      </g>
    </g>
  </g>
</svg>
