<svg xmlns="http://www.w3.org/2000/svg" viewBox="0 0 725.82 117.84">
  <title>zeroblack</title>
  <g id="82561aba-c56a-4329-bb6a-e5085c299458" data-name="Layer 2">
    <g id="14d2b879-f0a2-429d-ba28-dac8c3635262" data-name="Layer 1">
      <g>
        <polygon points="722.1 91.48 714.81 108.39 707.38 91.48 703.66 91.48 703.66 117.42 707.6 117.42 707.6 101.25 707.67 101.25 713.1 113.71 716.38 113.71 721.8 101.25 721.88 101.25 721.88 117.42 725.82 117.42 725.82 91.48 722.1 91.48"/>
        <polygon points="684.09 117.42 688.02 117.42 688.02 106.35 698.81 106.35 698.81 102.85 688.02 102.85 688.02 95.19 700.67 95.19 700.67 91.48 684.09 91.48 684.09 117.42"/>
        <polygon points="705.93 1.02 632.63 1.08 632.63 14.15 689.54 14.08 689.54 14.45 639.4 117.31 655.49 117.29 705.93 11.4 705.93 1.02"/>
        <path d="M607.63,96.8A10.24,10.24,0,0,0,597,107.3c0,6,4.29,10.54,10.37,10.54h.15c6.43,0,10.71-4.54,10.71-10.55C618.19,101.09,613.88,96.8,607.63,96.8Z"/>
        <polygon points="614.87 1.02 541.57 1.08 541.57 14.15 598.48 14.08 598.48 14.45 548.34 117.31 564.43 117.29 614.87 11.4 614.87 1.02"/>
        <path d="M492.86.38C469.7.42,454,19.22,454,40.49c0,19.53,13.11,34.88,33.52,34.88,11.49,0,20.52-4.54,26.82-12.25h.5c-2,13.39-7.41,23.35-14.94,30.11a40.38,40.38,0,0,1-23.71,11.06,65.88,65.88,0,0,1-12.36.71v12.56a89.7,89.7,0,0,0,14.1-.91,57.93,57.93,0,0,0,32.94-15.21C522.07,90.49,530.42,73,530.4,48.07,530.38,19,516.05.38,492.86.38Zm20.79,51.41c-4.15,6.78-12.16,11.88-22.45,11.88-13.25,0-21.82-10-21.83-24,0-16,9.22-27.51,22.15-27.51h.14c16,0,23.37,14.56,23.22,34.05A11.79,11.79,0,0,1,513.64,51.79Z"/>
        <path d="M352.5,0q-24.75,0-41.93,17c-11.44,11.38-17.13,25.29-17.12,41.62s5.73,30.1,17.23,41.44,25.4,17,41.94,17,30.58-5.71,42.05-17.12,17.22-25.18,17.2-41.44S406.15,28.31,394.6,17,369,0,352.5,0Zm35.69,94.29c-9.58,9.74-21.31,14.62-35.3,14.62s-25.77-4.79-35.48-14.58-14.56-21.58-14.56-35.67,4.8-26.16,14.51-35.88A48.18,48.18,0,0,1,352.81,8.16a47.62,47.62,0,0,1,35.32,14.59c9.53,9.73,14.4,21.65,14.4,35.83S397.75,84.56,388.18,94.29Z"/>
        <path d="M248.48,59.3c14.69-5.52,22.07-15.06,22-28.59,0-9.34-3.27-16.71-9.88-22.18S244.57.34,232.13.36H202.44l.12,117.31h9V61.52h15.6c7.22,0,12.71,1.3,16.51,4s9,9.32,15.73,20.09l20.31,32.07H290.1L263.92,77.13C257.41,67.13,252.3,61.16,248.48,59.3Zm-17.75-5.37H211.51l0-46h18.89c9.79,0,17.36,2,22.59,6s7.9,9.62,7.9,16.9-2.56,13-7.72,17.05S240.52,53.93,230.73,53.93Z"/>
        <polygon points="128.44 110.23 128.41 62.47 181.01 62.43 181.01 54.84 128.34 54.89 128.34 7.99 182.46 7.95 182.46 0.44 119.38 0.47 119.47 117.77 183.91 117.74 183.9 110.16 128.44 110.23"/>
        <polygon points="101.21 3.56 100.37 0.32 3.79 0.39 3.79 7.91 86.59 7.89 0 115.1 0.92 117.7 101.94 117.61 101.94 110.06 14.81 110.14 101.21 3.56"/>
      </g>
    </g>
  </g>
</svg>
