<svg xmlns="http://www.w3.org/2000/svg" viewBox="0 0 309.5 255">
  <title>zero-altblack</title>
  <g id="a3b6808a-67d5-4add-b334-d986450feedb" data-name="Layer 2">
    <g id="30091f71-31ac-4cee-b782-cd92079acc9e" data-name="Layer 1">
      <g>
        <polygon points="75.89 169.35 75.26 166.93 2.84 166.97 2.84 172.62 64.93 172.6 0 253 0.69 254.95 76.44 254.88 76.44 249.22 11.11 249.27 75.89 169.35"/>
        <polygon points="96.3 249.35 96.29 213.53 135.73 213.5 135.73 207.81 96.24 207.84 96.24 172.68 136.83 172.65 136.83 167.01 89.51 167.04 89.58 255 137.91 254.97 137.9 249.29 96.3 249.35"/>
        <path d="M186.33,211.15c11-4.14,16.55-11.29,16.53-21.44,0-7-2.45-12.53-7.41-16.63s-12-6.14-21.37-6.12H151.8l.09,88h6.72V212.82h11.7c5.41,0,9.53,1,12.38,3s6.71,7,11.79,15.07l15.23,24h7.83l-19.64-30.38C193,217,189.2,212.55,186.33,211.15Zm-13.31-4H158.61l0-34.5h14.17c7.34,0,13,1.5,16.93,4.53s5.92,7.22,5.92,12.68-1.91,9.77-5.79,12.79S180.37,207.12,173,207.12Z"/>
        <path d="M264.33,166.68q-18.56,0-31.44,12.79a44.1,44.1,0,0,0,.08,62.29,43,43,0,0,0,31.45,12.75q18.61,0,31.54-12.84a43.93,43.93,0,0,0-.06-62.25Q283,166.66,264.33,166.68Zm26.76,70.71a37.64,37.64,0,0,1-53.08,0c-7.3-7.25-10.91-16.18-10.91-26.75s3.6-19.62,10.88-26.91a36.11,36.11,0,0,1,26.59-11,35.74,35.74,0,0,1,26.49,10.94,38.78,38.78,0,0,1,0,53.66Z"/>
        <polygon points="281.07 107.16 281.07 102.97 262.34 102.97 262.34 132.29 266.79 132.29 266.79 119.77 278.98 119.77 278.98 115.81 266.79 115.81 266.79 107.16 281.07 107.16"/>
        <polygon points="305.3 102.97 297.06 122.07 288.66 102.97 284.46 102.97 284.46 132.29 288.9 132.29 288.9 114 288.99 114 295.12 128.09 298.83 128.09 304.97 114 305.06 114 305.06 132.29 309.5 132.29 309.5 102.97 305.3 102.97"/>
        <path d="M163.87,120.85c0,6.81,4.84,11.92,11.72,11.92h.17c7.27,0,12.1-5.13,12.1-11.93,0-7-4.87-11.86-11.94-11.85S163.83,114.06,163.87,120.85Z"/>
        <path d="M46.2,0C20,0,2.32,21.29,2.32,45.33c0,22.07,14.82,39.42,37.89,39.42,13,0,23.19-5.14,30.31-13.85h.57c-2.32,15.14-8.37,26.4-16.89,34a45.65,45.65,0,0,1-26.79,12.5,74.55,74.55,0,0,1-14,.81v14.2a101.36,101.36,0,0,0,15.93-1c13.82-1.63,27.42-7.74,37.23-17.19,12.61-12.37,22-32.11,22-60.32C88.61,21,72.41,0,46.2,0ZM69.69,58.1C65,65.77,55.94,71.53,44.32,71.53c-15,0-24.66-11.26-24.67-27.18,0-18.12,10.42-31.1,25-31.1h.16c18.09,0,26.42,16.46,26.24,38.49A13.3,13.3,0,0,1,69.69,58.1Z"/>
        <polygon points="165.57 15.9 108.91 132.16 127.09 132.14 184.1 12.45 184.1 0.72 101.26 0.79 101.26 15.56 165.57 15.48 165.57 15.9"/>
        <polygon points="268.5 15.9 211.83 132.16 230.01 132.14 287.02 12.45 287.02 0.72 204.18 0.79 204.18 15.56 268.5 15.48 268.5 15.9"/>
      </g>
    </g>
  </g>
</svg>
