<?xml version="1.0" encoding="utf-8"?>
<!-- Generator: Adobe Illustrator 23.0.1, SVG Export Plug-In . SVG Version: 6.00 Build 0)  -->
<svg version="1.1" id="Layer_1" xmlns="http://www.w3.org/2000/svg" xmlns:xlink="http://www.w3.org/1999/xlink" x="0px" y="0px"
	 viewBox="0 0 406.4 440.6" style="enable-background:new 0 0 406.4 440.6;" xml:space="preserve">
<style type="text/css">
	.st0{fill:#FFFFFF;}
	.st1{fill:#BA2334;}
</style>
<path class="st0" d="M166.6,341.8c2.9,1.5,4.8,3.7,6,6.7l-4.8,1.9c-0.7-1.8-1.9-3.2-3.7-4.1c-1.9-1-4.4-1.5-7.4-1.5
	c-4,0-7.1,0.9-9,2.6c-1.9,1.7-2.9,4.2-2.9,7.5v10.8c0,3.3,1,5.8,2.9,7.5c2,1.7,5.1,2.6,9,2.6c3,0,5.5-0.6,7.4-1.5
	c1.7-1,2.9-2.3,3.7-4.1l4.8,1.9c-1.2,2.9-3.2,5.2-6,6.7c-2.6,1.4-6,2.1-9.8,2.1c-5.2,0-9.4-1.3-12.4-3.9c-3-2.6-4.6-6.5-4.6-11.3
	v-10.8c0-4.8,1.6-8.6,4.6-11.3c2.9-2.5,7.1-3.9,12.4-3.9C160.6,339.6,164,340.3,166.6,341.8"/>
<path class="st0" d="M199.1,344.7c-4,0-7.1,0.9-9,2.6c-1.9,1.7-2.9,4.2-2.9,7.5v25.9h-5.1v-41.1h5.1v3.5c2.9-2.3,6.9-3.5,11.9-3.5
	h3.6v5.1H199.1z"/>
<path class="st0" d="M237.5,343.5c3,2.6,4.6,6.5,4.6,11.3v10.8c0,4.8-1.6,8.6-4.6,11.3c-2.9,2.5-7.1,3.9-12.3,3.9s-9.4-1.3-12.4-3.9
	c-3-2.6-4.6-6.5-4.6-11.3v-10.8c0-4.8,1.6-8.6,4.6-11.3c2.9-2.5,7.1-3.9,12.4-3.9S234.6,341,237.5,343.5 M216.2,347.3
	c-1.9,1.7-2.9,4.2-2.9,7.5v10.8c0,3.3,1,5.8,2.9,7.5c2,1.7,5.1,2.6,9,2.6c4,0,7-0.9,9-2.6c1.9-1.7,2.9-4.2,2.9-7.5v-10.8
	c0-3.3-1-5.8-2.9-7.5c-2-1.7-5-2.6-9-2.6C221.3,344.7,218.2,345.6,216.2,347.3 M219.1,335.7l-1.7-3.6l14-7l1.8,3.5L219.1,335.7z"/>
<path class="st0" d="M281,343.5c3,2.6,4.6,6.5,4.6,11.3v25.9h-5.1v-25.9c0-3.3-1-5.8-2.9-7.5c-2-1.7-5-2.6-9-2.6c-4,0-7.1,0.9-9,2.6
	c-1.9,1.7-2.9,4.2-2.9,7.5v25.9h-5.1v-41.1h5.1v3.5c2.9-2.3,6.9-3.5,11.9-3.5C273.9,339.6,278,341,281,343.5"/>
<path class="st0" d="M303.3,328.5c0,1.9-1.4,3.3-3.3,3.3c-1.9,0-3.3-1.4-3.3-3.3c0-1.9,1.4-3.3,3.3-3.3
	C301.9,325.2,303.3,326.6,303.3,328.5 M297.5,339.6h5.1v41.1h-5.1V339.6z"/>
<path class="st0" d="M339.6,341.8c2.9,1.5,4.8,3.7,6,6.7l-4.8,1.9c-0.7-1.8-1.9-3.2-3.7-4.1c-1.9-1-4.4-1.5-7.4-1.5
	c-4,0-7.1,0.9-9,2.6c-1.9,1.7-2.9,4.2-2.9,7.5v10.8c0,3.3,1,5.8,2.9,7.5c2,1.7,5.1,2.6,9,2.6c3,0,5.5-0.6,7.4-1.5
	c1.7-1,2.9-2.3,3.7-4.1l4.8,1.9c-1.2,2.9-3.2,5.2-6,6.7c-2.6,1.4-6,2.1-9.8,2.1c-5.2,0-9.4-1.3-12.4-3.9c-3-2.6-4.6-6.5-4.6-11.3
	v-10.8c0-4.8,1.6-8.6,4.6-11.3c2.9-2.5,7.1-3.9,12.4-3.9C333.7,339.6,337,340.3,339.6,341.8"/>
<path class="st0" d="M369.8,339.6c5.2,0,9.4,1.3,12.4,3.9c3,2.6,4.6,6.5,4.6,11.3v25.9h-5.1v-3.5c-2.9,2.3-6.9,3.5-11.9,3.5h-1.8
	c-4.5,0-8.2-1-10.8-2.8c-2.9-2.1-4.4-5.1-4.4-8.8c0-3.7,1.5-6.7,4.4-8.7c2.6-1.8,6.3-2.8,10.8-2.8h13.7v-2.9c0-3.3-1-5.8-2.9-7.5
	c-2-1.7-5-2.6-9-2.6h-0.1c-3.7,0-6.6,0.8-8.6,2.3c-1.8,1.3-2.9,3.5-3.3,6.3l-5-0.6c0.4-4.1,2.2-7.5,5.2-9.8
	C361,340.7,364.8,339.6,369.8,339.6L369.8,339.6z M367.9,362.7c-3.4,0-6.1,0.6-7.9,1.8c-1.5,1.1-2.2,2.6-2.2,4.6
	c0,2.1,0.7,3.6,2.2,4.7c1.7,1.2,4.4,1.8,7.9,1.8h1.8c4,0,7-0.9,9-2.6c1.9-1.7,2.9-4.2,2.9-7.5v-2.9H367.9z"/>
<path class="st0" d="M169.4,402.8c3.2,2.8,4.8,6.8,4.8,11.7v8.9h-27.4v1.3c0,2.7,0.8,4.7,2.2,6c1.7,1.4,4.3,2.1,7.7,2.1h0.9
	c4.9,0,8.1-1.5,9.3-4.4l7.1,2.9c-1.3,3-3.4,5.4-6.3,7c-2.7,1.5-6.1,2.2-10,2.2h-0.9c-5.4,0-9.6-1.3-12.7-4
	c-3.2-2.8-4.8-6.8-4.8-11.7v-10.2c0-4.9,1.7-9,4.8-11.7c3.1-2.7,7.3-4.1,12.7-4.1C162.1,398.7,166.3,400.1,169.4,402.8 M149.1,408.5
	c-1.4,1.3-2.2,3.3-2.2,6v1.3h19.8v-1.3c0-2.7-0.7-4.8-2.2-6c-1.7-1.4-4.3-2.2-7.6-2.2C153.3,406.3,150.7,407.1,149.1,408.5"/>
<path class="st0" d="M199.8,398.7c3.9,0,7.3,0.8,10,2.2c2.9,1.6,5.1,4,6.3,7.1l-7.1,2.9c-1.2-3-4.4-4.5-9.3-4.5h-0.9
	c-2.5,0-6,0.3-8.2,1.7c-1.2,0.8-1.7,1.7-1.7,3.1c0,1.4,0.6,2.4,1.7,3.2c1.2,0.7,3.6,1.6,8.2,1.6c5.1,0,9.1,1,12.1,2.9
	c3.4,2.1,5.3,5.5,5.3,9.5c0,4-1.9,7.5-5.3,9.6c-3,1.8-7.1,2.8-12.1,2.8h-1c-3.9,0-7.2-0.7-10-2.2c-2.9-1.6-5.1-4-6.3-7l7.1-2.9
	c1.2,2.9,4.3,4.4,9.2,4.4h1c2.5,0,6-0.3,8.1-1.7c1.3-0.7,1.7-1.7,1.7-3.1c0-1.4-0.5-2.3-1.7-3.1c-1.2-0.8-3.6-1.7-8.1-1.7
	c-5.2,0-9.2-1-12.2-2.8c-3.4-2.1-5.3-5.6-5.3-9.6c0-4,1.9-7.4,5.3-9.5c3-1.9,7.1-2.9,12.2-2.9H199.8z"/>
<path class="st0" d="M244.1,398.7v7.6h-9.8v18.5c0,2.7,0.7,4.7,2.2,6c1.7,1.4,4.3,2.1,7.6,2.1v7.6c-5.3,0-9.5-1.3-12.6-4
	c-3.2-2.8-4.8-6.8-4.8-11.7v-18.5h-4.8v-7.6h4.8V385h7.6v13.6H244.1z"/>
<path class="st0" d="M281.4,402.8c3.2,2.8,4.8,6.8,4.8,11.7v8.9h-27.4v1.3c0,2.7,0.8,4.7,2.2,6c1.7,1.4,4.3,2.1,7.7,2.1h0.9
	c4.9,0,8.1-1.5,9.3-4.4l7.1,2.9c-1.3,3-3.4,5.4-6.3,7c-2.7,1.5-6.1,2.2-10,2.2h-0.9c-5.4,0-9.6-1.3-12.7-4
	c-3.2-2.8-4.8-6.8-4.8-11.7v-10.2c0-4.9,1.7-9,4.8-11.7c3.1-2.7,7.3-4.1,12.7-4.1C274.1,398.7,278.3,400.1,281.4,402.8 M261.1,408.5
	c-1.4,1.3-2.2,3.3-2.2,6v1.3h19.8v-1.3c0-2.7-0.7-4.8-2.2-6c-1.7-1.4-4.3-2.2-7.6-2.2C265.4,406.3,262.8,407.1,261.1,408.5
	 M262.6,394.7l-1.7-3.6l14-7l1.8,3.5L262.6,394.7z"/>
<path class="st0" d="M313.3,406.3c-3.4,0-6,0.7-7.7,2.1c-1.4,1.3-2.2,3.3-2.2,6v26.1h-7.6v-41.9h7.6v2.1c2.7-1.4,6-2.1,9.9-2.1h3.4
	v7.6H313.3z"/>
<path class="st0" d="M352.5,402.8c3.2,2.8,4.8,6.8,4.8,11.7v8.9h-27.4v1.3c0,2.7,0.8,4.7,2.2,6c1.7,1.4,4.3,2.1,7.7,2.1h0.9
	c4.9,0,8.1-1.5,9.3-4.4l7.1,2.9c-1.3,3-3.4,5.4-6.3,7c-2.7,1.5-6.1,2.2-10,2.2h-0.9c-5.4,0-9.6-1.3-12.7-4
	c-3.2-2.8-4.8-6.8-4.8-11.7v-10.2c0-4.9,1.7-9,4.8-11.7c3.1-2.7,7.3-4.1,12.7-4.1C345.2,398.7,349.4,400.1,352.5,402.8 M332.1,408.5
	c-1.4,1.3-2.2,3.3-2.2,6v1.3h19.8v-1.3c0-2.7-0.7-4.8-2.2-6c-1.7-1.4-4.3-2.2-7.6-2.2C336.4,406.3,333.8,407.1,332.1,408.5"/>
<path class="st0" d="M394.6,402.8c3.2,2.8,4.8,6.8,4.8,11.7v10.2c0,4.9-1.7,9-4.8,11.7c-3.1,2.7-7.3,4-12.6,4c-5.4,0-9.6-1.3-12.7-4
	c-3.2-2.8-4.8-6.8-4.8-11.7v-10.2c0-4.9,1.7-9,4.8-11.7c3.1-2.7,7.3-4.1,12.7-4.1C387.3,398.7,391.5,400.1,394.6,402.8 M374.3,408.5
	c-1.4,1.3-2.2,3.3-2.2,6v10.2c0,2.7,0.8,4.7,2.2,6c1.7,1.4,4.3,2.1,7.7,2.1c3.3,0,6-0.7,7.6-2.1c1.5-1.3,2.2-3.3,2.2-6v-10.2
	c0-2.7-0.7-4.8-2.2-6c-1.7-1.4-4.3-2.2-7.6-2.2C378.6,406.3,376,407.1,374.3,408.5"/>
<path class="st0" d="M93.7,220.1c0-30.1,12.3-57.5,32.1-77.3l-9-9C94.7,156,81,186.5,81,220.1c0,33.6,13.7,64.1,35.8,86.2l9-9
	C106,277.6,93.7,250.3,93.7,220.1"/>
<path class="st0" d="M312.4,220.1c0,30.1-12.3,57.5-32.1,77.3l9,9c22.1-22.1,35.8-52.6,35.8-86.2c0-33.6-13.7-64.1-35.8-86.2l-9,9
	C300.1,162.7,312.4,190,312.4,220.1"/>
<path class="st0" d="M123.6,220.1c0-21.9,8.9-41.8,23.3-56.1l-9-9c-16.7,16.7-27,39.7-27,65.1c0,25.4,10.3,48.4,27,65.1l9-9
	C132.5,261.9,123.6,242,123.6,220.1"/>
<path class="st0" d="M282.5,220.1c0,21.9-8.9,41.8-23.3,56.1l9,9c16.7-16.7,27-39.7,27-65.1c0-25.4-10.3-48.4-27-65.1l-9,9
	C273.6,178.4,282.5,198.2,282.5,220.1"/>
<path class="st0" d="M155.2,220.1c0-13.2,5.4-25.2,14-33.8l-9-9c-11,11-17.8,26.1-17.8,42.8c0,16.7,6.8,31.8,17.8,42.8l9-9
	C160.6,245.3,155.2,233.3,155.2,220.1"/>
<path class="st0" d="M250.9,220.1c0,13.2-5.4,25.2-14,33.8l9,9c11-11,17.8-26.1,17.8-42.8c0-16.7-6.8-31.8-17.8-42.8l-9,9
	C245.6,195,250.9,206.9,250.9,220.1"/>
<path class="st0" d="M202.5,8C165.8,8,121,13.7,86.4,41.7c5.2,10.1,16.1,22,36.7,11.8c15.6-7.7,34.6-12.4,50.1-15.1
	c19.4-3.4,39.2-3.4,58.6,0c15.5,2.7,34.5,7.4,50.1,15.1c20.6,10.2,31.5-1.7,36.7-11.8C283.9,13.7,239.2,8,202.5,8"/>
<path class="st0" d="M382.4,261.4h-16.1v-70.3c0-117.8-53.6-175-163.8-175c-110.2,0-163.8,57.2-163.8,175v59.9H22.6v-59.9
	C22.6,64.3,83.1,0,202.5,0c119.4,0,179.9,64.3,179.9,191.1V261.4z"/>
<path class="st0" d="M22.6,169.3c-5,3.4-8,9.1-8,15.1v35.8v35.8c0,6.1,3,11.7,8,15.1l22.5,15.4v-66.2v-66.2L22.6,169.3z"/>
<path class="st0" d="M14.6,254.5L14.6,254.5v-68.8C8.2,185.8,3,191,3,197.4v45.6C3,249.3,8.2,254.5,14.6,254.5"/>
<path class="st0" d="M65,300h-8.4V140.3H65c16.4,0,29.7,13.3,29.7,29.7v100.4C94.7,286.7,81.4,300,65,300"/>
<path class="st0" d="M383.5,169.3c5,3.4,8,9.1,8,15.1v35.8v35.8c0,6.1-3,11.7-8,15.1L361,286.4v-66.2v-66.2L383.5,169.3z"/>
<path class="st0" d="M391.5,254.5L391.5,254.5v-68.8c6.4,0,11.6,5.2,11.6,11.6v45.6C403.1,249.3,397.9,254.5,391.5,254.5"/>
<path class="st0" d="M341.1,300h8.4V140.3h-8.4c-16.4,0-29.7,13.3-29.7,29.7v100.4C311.4,286.7,324.7,300,341.1,300"/>
<path class="st0" d="M234.2,220.1c0,17.2-14,31.2-31.2,31.2s-31.2-14-31.2-31.2c0-17.2,14-31.2,31.2-31.2S234.2,202.9,234.2,220.1"
	/>
<g>
	<rect x="10.1" y="338.1" class="st1" width="103.6" height="99.5"/>
	<polygon class="st0" points="22.5,356.4 32.4,356.4 32.4,410.9 61,410.9 61,419.8 22.5,419.8 	"/>
	<polygon class="st0" points="72.4,365.2 53.6,365.2 53.6,356.4 101.2,356.4 101.2,365.2 82.4,365.2 82.4,419.8 72.4,419.8 	"/>
</g>
</svg>
