<svg xmlns="http://www.w3.org/2000/svg" viewBox="0 0 472.05 182.7">
  <defs>
    <style>
      .cls-1 {
        fill: #fff;
      }

      .cls-2 {
        fill: #1891fb;
      }
    </style>
  </defs>
  <title>culto</title>
  <g id="Layer_2" data-name="Layer 2">
    <g id="Layer_1-2" data-name="Layer 1">
      <g>
        <g id="f6cd6b23-0422-4f5f-9df7-197416a2c82d">
          <g id="_67344f34-fb6e-4901-8771-ccd4076d4963" data-name="67344f34-fb6e-4901-8771-ccd4076d4963">
            <g>
              <polygon class="cls-1" points="66.53 144.99 64.48 142.95 62.02 145.41 66.1 145.41 66.53 144.99"/>
              <path class="cls-1" d="M35.58,0V37.29H0V182.7H436.48V145.42h35.57V0ZM2.89,40.18H24L2.89,61.3Zm0,25.21L28.1,40.18h7.48V57.26L2.89,89.94ZM2.89,94,35.58,61.35V85.91L2.89,118.59Zm0,28.65L35.58,90v24.56L2.89,147.24Zm0,28.65,32.68-32.68v24.56L2.89,175.89Zm24.72,28.48H3.06l34.4-34.4H62Zm28.65,0H31.71l34.4-34.4H90.67Zm28.65,0H60.35l34.4-34.4h24.56Zm28.65,0H89l34.4-34.4H148Zm28.65,0H117.66l34.4-34.4h24.56Zm28.65,0H146.31l34.4-34.4h24.56Zm28.65,0H175l34.4-34.4H234Zm28.65,0H203.6l34.4-34.4h24.56Zm28.65,0H232.25l34.4-34.4h24.56Zm28.65,0H260.91l34.39-34.4h24.56Zm28.65,0H289.56l34.4-34.4h24.56Zm28.65,0H318.2l34.4-34.4h24.56Zm28.65,0H346.85l34.4-34.4h24.56Zm62.18,0H404.15l29.44-29.43Zm0-33.53-33.53,33.53H375.5l34.4-34.4h23.69Zm35.57-3.76H38.47V2.89H469.16Z"/>
              <path class="cls-1" d="M112.34,90.58c-7.81,0-13.39-6.58-13.39-16.38s5.58-16.37,13.39-16.37a13.06,13.06,0,0,1,10,4.24l6.9-10.45s-5.32-6.87-17-6.87a28.31,28.31,0,0,0-2.85.15,24.81,24.81,0,0,0-5.24,1.1c-7.36,2.37-12.63,8-15.41,15.41a33.17,33.17,0,0,0-1.58,5.67,38.54,38.54,0,0,0-.68,7.13c0,16.19,9.56,29.56,25.7,29.56,11.72,0,17-7,17-7l-6.9-10.45a13.06,13.06,0,0,1-10,4.23"/>
              <path class="cls-1" d="M195.75,78.07c0,7.06-3.08,12.42-10.06,12.42-6.74,0-10.07-5.36-10.07-12.42V46h-12V78.07c0,14.59,8.65,25.69,22.13,25.69,13.8,0,22.12-11.1,22.12-25.69V46H195.75Z"/>
              <polygon class="cls-1" points="258.63 45.98 246.57 45.98 246.57 102.44 280.93 102.44 280.93 90.68 258.63 90.68 258.63 45.98"/>
              <polygon class="cls-1" points="306.12 57.74 320.18 57.74 320.18 102.44 332.24 102.44 332.24 57.74 346.29 57.74 346.29 45.98 306.12 45.98 306.12 57.74"/>
              <polygon class="cls-1" points="258.63 45.98 246.57 45.98 246.57 102.44 280.93 102.44 280.93 90.68 258.63 90.68 258.63 45.98"/>
              <path class="cls-1" d="M195.75,78.07c0,7.06-3.08,12.42-10.06,12.42-6.74,0-10.07-5.36-10.07-12.42V46h-12V78.07c0,14.59,8.65,25.69,22.13,25.69,13.8,0,22.12-11.1,22.12-25.69V46H195.75Z"/>
              <polygon class="cls-1" points="306.12 57.74 320.18 57.74 320.18 102.44 332.24 102.44 332.24 57.74 346.29 57.74 346.29 45.98 306.12 45.98 306.12 57.74"/>
              <path class="cls-1" d="M403.43,44.75c-15,0-25.53,13.27-25.53,29.46s10.48,29.55,25.53,29.55c15.22,0,25.71-13.37,25.71-29.55s-10.49-29.46-25.71-29.46m0,45.74c-7.24,0-13-6.5-13-16.28s5.81-16.28,13-16.28c7.41,0,13.22,6.5,13.22,16.28s-5.82,16.28-13.22,16.28"/>
            </g>
          </g>
        </g>
        <g>
          <polygon class="cls-2" points="35.58 40.18 28.1 40.18 2.89 65.39 2.89 89.94 35.58 57.26 35.58 40.18"/>
          <polygon class="cls-2" points="180.71 145.38 146.31 179.78 170.86 179.78 205.27 145.38 180.71 145.38"/>
          <polygon class="cls-2" points="152.06 145.38 117.66 179.78 142.21 179.78 176.62 145.38 152.06 145.38"/>
          <polygon class="cls-2" points="323.96 145.38 289.56 179.78 314.11 179.78 348.52 145.38 323.96 145.38"/>
          <polygon class="cls-2" points="295.3 145.38 260.91 179.78 285.46 179.78 319.86 145.38 295.3 145.38"/>
          <polygon class="cls-2" points="266.65 145.38 232.25 179.78 256.81 179.78 291.21 145.38 266.65 145.38"/>
          <polygon class="cls-2" points="238 145.38 203.6 179.78 228.16 179.78 262.56 145.38 238 145.38"/>
          <polygon class="cls-2" points="35.58 90 2.89 122.65 2.89 147.24 35.58 114.56 35.58 90"/>
          <polygon class="cls-2" points="35.57 118.62 2.89 151.3 2.89 175.89 35.57 143.18 35.57 118.62"/>
          <polygon class="cls-2" points="123.4 145.38 89 179.78 113.56 179.78 148 145.38 123.4 145.38"/>
          <polygon class="cls-2" points="35.58 61.35 2.89 94 2.89 118.59 35.58 85.91 35.58 61.35"/>
          <polygon class="cls-2" points="94.75 145.38 60.35 179.78 84.91 179.78 119.31 145.38 94.75 145.38"/>
          <polygon class="cls-2" points="66.13 145.38 66.1 145.41 66.08 145.41 31.71 179.78 56.26 179.78 90.67 145.38 66.13 145.38"/>
          <polygon class="cls-2" points="209.4 145.38 175 179.78 199.51 179.78 233.96 145.38 209.4 145.38"/>
          <polygon class="cls-2" points="2.89 40.18 2.89 61.3 24 40.18 2.89 40.18"/>
          <polygon class="cls-2" points="27.61 179.78 62 145.38 37.46 145.38 3.06 179.78 27.61 179.78"/>
          <path class="cls-2" d="M403.43,57.93c-7.24,0-13,6.5-13,16.28s5.81,16.28,13,16.28c7.4,0,13.22-6.5,13.22-16.28S410.84,57.93,403.43,57.93Z"/>
          <polygon class="cls-2" points="352.6 145.38 318.2 179.78 342.76 179.78 377.16 145.38 352.6 145.38"/>
          <path class="cls-2" d="M469.16,2.89H38.47v139.6H469.16ZM112.34,90.58l-.06,0a13.06,13.06,0,0,0,10-4.23l6.9,10.45s-5.28,7-17,7c-16.14,0-25.7-13.37-25.7-29.56a38.55,38.55,0,0,1,.68-7.13,33.17,33.17,0,0,1,1.58-5.67c2.78-7.41,8-13,15.41-15.41a24.81,24.81,0,0,1,5.24-1.1,28.31,28.31,0,0,1,2.85-.15c11.68,0,17,6.87,17,6.87l-6.9,10.45a13.06,13.06,0,0,0-10-4.24C104.53,57.83,99,64.4,99,74.2S104.53,90.58,112.34,90.58Zm95.48-12.51c0,14.59-8.32,25.69-22.12,25.69-13.48,0-22.13-11.1-22.13-25.69V46h12V78.07c0,7.06,3.33,12.42,10.07,12.42,7,0,10.06-5.36,10.06-12.42V46h12.07Zm73.11,24.37H246.57V46h12.06v44.7h22.3Zm65.36-44.7H332.24v44.7H320.18V57.74H306.12V46h40.17Zm57.14,46c-15,0-25.53-13.36-25.53-29.55s10.48-29.46,25.53-29.46c15.22,0,25.71,13.28,25.71,29.46S418.65,103.76,403.43,103.76Z"/>
          <polygon class="cls-2" points="433.59 179.78 433.59 150.35 404.15 179.78 433.59 179.78"/>
          <polygon class="cls-2" points="381.25 145.38 346.85 179.78 371.41 179.78 405.81 145.38 381.25 145.38"/>
          <polygon class="cls-2" points="375.5 179.78 400.06 179.78 433.59 146.25 433.59 145.38 409.9 145.38 375.5 179.78"/>
          <polygon class="cls-1" points="66.13 145.38 66.11 145.38 66.08 145.41 66.1 145.41 66.13 145.38"/>
          <path class="cls-1" d="M35.58,37.29H0V182.7H436.48V145.42h35.57V0H35.58ZM2.89,40.18H24L2.89,61.3Zm0,25.21L28.1,40.18h7.48V57.26L2.89,89.94ZM2.89,94,35.58,61.35V85.91L2.89,118.59Zm0,28.65L35.58,90v24.56L2.89,147.24Zm0,28.65,32.68-32.68v24.56L2.89,175.89Zm28.82,28.48,34.37-34.37H62L64.48,143l2.05,2-.4.39H90.67l-34.41,34.4Zm28.64,0,34.4-34.4h24.56l-34.4,34.4Zm28.65,0,34.4-34.4H148l-34.44,34.4Zm28.66,0,34.4-34.4h24.56l-34.41,34.4Zm28.65,0,34.4-34.4h24.56l-34.41,34.4Zm28.69,0,34.4-34.4H234l-34.45,34.4Zm28.6,0,34.4-34.4h24.56l-34.4,34.4Zm28.65,0,34.4-34.4h24.56l-34.4,34.4Zm28.66,0,34.39-34.4h24.56l-34.4,34.4Zm28.65,0,34.4-34.4h24.56l-34.41,34.4Zm28.64,0,34.4-34.4h24.56l-34.4,34.4Zm28.65,0,34.4-34.4h24.56l-34.4,34.4Zm86.74,0H404.15l29.44-29.43Zm0-33.53-33.53,33.53H375.5l34.4-34.4h23.69ZM38.47,2.89H469.16v139.6H38.47ZM62,145.38l-34.39,34.4H3.06l34.4-34.4Z"/>
          <polygon class="cls-1" points="66.13 145.38 66.53 144.99 64.48 142.95 62.02 145.41 66.08 145.41 66.11 145.38 66.13 145.38"/>
          <path class="cls-1" d="M112.34,57.83a13.06,13.06,0,0,1,10,4.24l6.9-10.45s-5.32-6.87-17-6.87a28.31,28.31,0,0,0-2.85.15,24.81,24.81,0,0,0-5.24,1.1c-7.36,2.37-12.63,8-15.41,15.41a33.17,33.17,0,0,0-1.58,5.67,38.55,38.55,0,0,0-.68,7.13c0,16.19,9.56,29.56,25.7,29.56,11.72,0,17-7,17-7l-6.9-10.45a13.06,13.06,0,0,1-10,4.23l.06,0C104.53,90.58,99,84,99,74.2S104.53,57.83,112.34,57.83Z"/>
          <polygon class="cls-1" points="258.63 45.98 246.57 45.98 246.57 102.44 280.93 102.44 280.93 90.68 258.63 90.68 258.63 45.98"/>
          <path class="cls-1" d="M195.75,78.07c0,7.06-3.08,12.42-10.06,12.42-6.74,0-10.07-5.36-10.07-12.42V46h-12V78.07c0,14.59,8.65,25.69,22.13,25.69,13.8,0,22.12-11.1,22.12-25.69V46H195.75Z"/>
          <polygon class="cls-1" points="306.12 57.74 320.18 57.74 320.18 102.44 332.24 102.44 332.24 57.74 346.29 57.74 346.29 45.98 306.12 45.98 306.12 57.74"/>
          <path class="cls-1" d="M403.43,44.75c-15,0-25.53,13.27-25.53,29.46s10.48,29.55,25.53,29.55c15.22,0,25.71-13.37,25.71-29.55S418.65,44.75,403.43,44.75Zm0,45.74c-7.24,0-13-6.5-13-16.28s5.81-16.28,13-16.28c7.41,0,13.22,6.5,13.22,16.28S410.83,90.49,403.43,90.49Z"/>
        </g>
      </g>
    </g>
  </g>
</svg>
