<svg xmlns="http://www.w3.org/2000/svg" viewBox="0 0 225.27 254.99">
  <title>grupocopesa-alt</title>
  <g id="ec66c3ed-af55-447c-85ef-30e95aad38e6" data-name="Layer 2">
    <g id="3ad343e7-091d-4ea7-a0e6-50ed3fecc8e8" data-name="grupo copesa">
      <g id="3002edfb-60e5-4e4b-a9c8-5543af5c28db" data-name="Page-1">
        <g id="1d71e0f5-e5b1-4f48-a43d-dcf9cd3af2c3" data-name="logo-grupocopesa">
          <path id="42b26099-30ec-402e-b7b8-90699eb07a81" data-name="Shape" d="M2.14,232h0C2.14,241.14,6.68,245,13.2,245A20.75,20.75,0,0,0,20,243.74v-9.12H11.67v-2H22.16v12.47A23.92,23.92,0,0,1,13,246.94c-7.63,0-13-4.12-13-14.91S5.91,217,13.2,217a22.43,22.43,0,0,1,7.63,1.53l-.46,2a20.94,20.94,0,0,0-7.29-1.53C7.29,218.95,2.14,222.45,2.14,232Z" style="fill: #81766e"/>
          <path id="b4337e81-a3e1-42e6-b2fc-f710b1188182" data-name="Shape" d="M38.68,228.86h0c-4.35-1.07-4.35-.5-8.66,4.54v13.08h-2.1V227l2.14-.31v4.12c3.51-4.88,5-4.73,9-3.81Z" style="fill: #81766e"/>
          <path id="8defb649-ad76-4ef4-87ca-fe7cf703f9ed" data-name="Shape" d="M55.23,227h0l2.14-.31v19.76H55.69l-.46-2.29a17.09,17.09,0,0,1-7.63,2.75c-2.75,0-5.61-1.53-5.61-6.52V227l2.14-.31v13.62c0,3.2,1.53,4.73,3.47,4.73A16.82,16.82,0,0,0,55.23,242Z" style="fill: #81766e"/>
          <path id="2f11f046-f74f-4576-ba27-e90c3935ade4" data-name="Shape" d="M65.22,254.84H63.09V227l2.14-.31v2.59a16.44,16.44,0,0,1,7.63-2.9c4.08,0,7,3.05,7,10.34S76,246.9,71.48,246.9a15.75,15.75,0,0,1-6.22-1.53Zm6.22-9.73h0c3.47,0,6.22-2.29,6.22-8.51s-2.14-8.2-4.84-8.2a17.43,17.43,0,0,0-7.63,2.9v12.32A17.66,17.66,0,0,0,71.44,245.11Z" style="fill: #81766e"/>
          <path id="952ef78b-bd66-4949-89e6-3c86f5b1cfdd" data-name="Shape" d="M92.84,226.42h0c5.3,0,8.81,3.17,8.81,10.34s-3.47,10.18-8.81,10.18-8.93-3.05-8.93-10.22S87.39,226.42,92.84,226.42Zm0,18.69h0c3.81,0,6.68-2.59,6.68-8.39s-2.75-8.35-6.68-8.35S86,231,86,236.72,88.76,245.11,92.84,245.11Z" style="fill: #81766e"/>
          <path id="12c4b439-27a4-477f-b47c-738b1befc258" data-name="Shape" d="M109.7,231.88h0c0,8.81,4.23,11.71,9.54,11.71a20.94,20.94,0,0,0,7-1.37l.76,3.36a24.6,24.6,0,0,1-8,1.37c-7,0-12.89-3.81-12.89-15.07S111.95,217,118.93,217a24.72,24.72,0,0,1,8,1.37l-.76,3.36a17.93,17.93,0,0,0-7-1.53C113.93,220.17,109.7,223.22,109.7,231.88Z" style="fill: #81766e"/>
          <path id="271a8c5e-beed-4ce1-a1e6-1e1f3ef408c4" data-name="Shape" d="M139,226.42h0c5.61,0,9.23,3.17,9.23,10.34s-3.81,10.18-9.23,10.18-9.27-3.2-9.27-10.22S133.5,226.42,139,226.42ZM139,244h0c3.47,0,5.91-2.29,5.91-7.29s-2.44-7.63-5.91-7.63-5.91,2.29-5.91,7.63,2.44,7.36,5.91,7.36Z" style="fill: #81766e"/>
          <path id="473dd370-1891-4906-8f75-10220dc14132" data-name="Shape" d="M155.66,254.69h0l-3.32.31V226.88h3.32v2a15.26,15.26,0,0,1,7.13-2.59c4.12,0,7,3.17,7,10.34s-3.81,10.18-8.35,10.18a13.24,13.24,0,0,1-5.76-1.37Zm5.3-10.57h0c3,0,5.45-2,5.45-7.63s-1.83-7.13-4.27-7.13a17.32,17.32,0,0,0-6.52,2.44v10.79a13,13,0,0,0,5.34,1.53Z" style="fill: #81766e"/>
          <path id="5b0f30cc-d06c-4d1e-b33a-05c7cacd03d7" data-name="Shape" d="M176.75,237.83h0c0,4.69,2.59,6.22,5.91,6.22a20.71,20.71,0,0,0,5.76-1.07l.46,2.71a18.84,18.84,0,0,1-6.52,1.22c-5.15,0-9-2.75-9-10.18s3.81-10.34,8.81-10.34,8.51,3.81,7.29,11.44Zm0-2.59h9.69c0-3.81-1.53-6.1-4.39-6.1S176.91,231.11,176.75,235.23Z" style="fill: #81766e"/>
          <path id="1437ec1a-42ef-42b4-8199-31d9cdabf8e9" data-name="Shape" d="M194.53,243h0a19.07,19.07,0,0,0,5.61,1.07c1.95,0,3.81-.76,3.81-3.05,0-3.81-10-2.75-10-9.12,0-3.81,2.75-5.49,6.83-5.49a15.68,15.68,0,0,1,5.76,1.22l-.46,2.75a16.71,16.71,0,0,0-5.45-1.07c-1.83,0-3.51.61-3.36,2.75,0,3.51,10,2.75,10,9.12,0,3.81-3.05,5.8-7.13,5.8a15.64,15.64,0,0,1-5.91-1.22Z" style="fill: #81766e"/>
          <path id="43607d0f-2375-4741-962d-99b11e6368f0" data-name="Shape" d="M222,232.94h0c0-2.59-1.22-3.81-3.05-3.81a29.22,29.22,0,0,0-7.44,1.68l-.46-2.9a28.87,28.87,0,0,1,8.2-1.68c3.81,0,6.06,1.68,6.06,6.37v13.69h-2.59l-.46-2.29a10.91,10.91,0,0,1-6.83,2.75,4.77,4.77,0,0,1-5.15-5.19c0-3.81,2.29-6,11.67-6.68Zm0,8.51h0v-3.81c-7,.46-8.51,2-8.51,3.81A2.36,2.36,0,0,0,216,244,8.35,8.35,0,0,0,222,241.45Z" style="fill: #81766e"/>
          <path id="ac2c0b26-3461-47ef-b9ff-9502f4d326dc" data-name="Shape" d="M25.29,33.34h0A44.89,44.89,0,0,1,35,21.06C58.89-2.86,97-5.91,132.13,9.39l1.37,10.18c-23.92-10.18-48.82-8.66-63.58,6.1A44.55,44.55,0,0,0,59.27,44.06Zm166.3,44.32h0c10.15,24,8.66,48.94-6.1,63.74a24.3,24.3,0,0,1-7.13,5.57L192.09,175c22.39-24,24.95-61,9.65-95.85Zm-24.41,74.45h0c-23.42,7.13-55.46-3.05-79.87-28C66.48,103,55.84,76.67,57.21,54.74l-39-6.64c-11.71,33.64.5,78.5,33.57,111.64,38.14,38.14,91,48.4,126.1,27Z" style="fill: #d62732"/>
        </g>
      </g>
    </g>
  </g>
</svg>
