<svg xmlns="http://www.w3.org/2000/svg" viewBox="0 0 774.58 154.42">
  <title>grupocopesa</title>
  <g id="e1461b1b-9eaf-42d0-abef-037d062a1c40" data-name="Layer 2">
    <g id="f00c581d-c77a-43ea-8f65-0530ed172b02" data-name="grupo copesa">
      <g>
        <path d="M190.43,57h0c0,23.87,11.9,33.83,29,33.83a54.38,54.38,0,0,0,17.88-3.17V63.85H215.45l.39-5.19h27V91.3c-10.73,4-17.08,4.77-23.84,4.77-19.86,0-34.15-10.75-34.15-39,0-29.06,15.47-39.4,34.53-39.4a58.68,58.68,0,0,1,20.28,4l-1.19,5.17a54.77,54.77,0,0,0-19.09-4C203.92,22.84,190.43,32,190.43,57Z" style="fill: #7d756e"/>
        <path d="M286.14,48.7h0c-11.12-2.78-11.92-1.22-22.66,11.92V94.89h-5.56v-51l5.56-.79V53.9c9.14-12.74,13.1-12.35,23.45-10.37Z" style="fill: #7d756e"/>
        <path d="M329.39,43.92h0l5.6-.79V94.89H330.6l-1.21-6c-7.12,4-13.87,7.18-19.83,7.18-7.15,0-14.67-4-14.67-17.12v-35l5.55-.79V78.95c0,8.34,4,12.35,9.12,12.35,6.37,0,13.9-4.38,19.83-8Z" style="fill: #7d756e"/>
        <path d="M355.62,116.76h0l-5.55.4V43.92l5.55-.79v6.76c7.56-4.37,13.9-7.55,19.86-7.55,10.71,0,18.25,8,18.25,27,0,19.51-9.91,26.68-21.82,26.68a41.28,41.28,0,0,1-16.29-4ZM371.92,91.3h0c9.11,0,16.27-6,16.27-22.31,0-15.52-5.56-21.51-12.7-21.51-6.35,0-13.5,4-19.86,7.59V87.29C360.39,89.3,366.75,91.3,371.92,91.3Z" style="fill: #7d756e"/>
        <path d="M427.91,42.34h0c13.9,0,23,8.33,23,27s-9.13,26.68-23,26.68c-14.31,0-23.42-8-23.42-26.68S413.59,42.34,427.91,42.34Zm0,49h0c10.33,0,17.48-6.78,17.48-21.92s-7.16-21.9-17.48-21.9c-10.72,0-17.86,6.79-17.86,21.9S417.19,91.3,427.91,91.3Z" style="fill: #7d756e"/>
        <path d="M472,56.67h0c0,23.09,11.12,30.62,25,30.62a54.82,54.82,0,0,0,18.28-3.57l2,8.75a64.35,64.35,0,0,1-21,3.59c-18.26,0-33.75-10.32-33.75-39.4,0-28.68,15.48-39,33.75-39a64.7,64.7,0,0,1,21,3.61l-2,8.76A47,47,0,0,0,497,26C483.11,26,472,34,472,56.67Z" style="fill: #7d756e"/>
        <path d="M548.63,42.34h0c14.7,0,24.21,8.33,24.21,27,0,18.33-9.51,26.68-24.21,26.68s-24.24-8.35-24.24-26.68C524.39,50.67,533.93,42.34,548.63,42.34Zm0,46.15h0c9.11,0,15.46-6,15.46-19.11,0-13.49-6.36-19.5-15.46-19.5s-15.48,6-15.48,19.5C533.15,82.53,539.51,88.49,548.63,88.49Z" style="fill: #7d756e"/>
        <path d="M592.31,116.38h0l-8.71.78V43.53l8.71-.4v6c6.75-4,13.11-6.75,18.66-6.75,10.73,0,18.27,8.33,18.27,27,0,19.11-9.92,26.68-21.84,26.68a34.6,34.6,0,0,1-15.09-3.59Zm13.9-27.89h0c7.93,0,14.29-5.17,14.29-19.5,0-13.54-4.79-18.7-11.14-18.7-5.14,0-11.53,3.61-17.05,6.38V84.93A34.14,34.14,0,0,0,606.21,88.49Z" style="fill: #7d756e"/>
        <path d="M647.5,72.2h0c.39,12.32,6.76,16.29,15.49,16.29,4.76,0,9.92-1.2,15.08-2.75l1.23,7.12a49.35,49.35,0,0,1-17.08,3.21c-13.52,0-23.46-7.18-23.46-26.68s9.53-27,23-27c13.12,0,22.24,10,19.07,29.86Zm0-6.76H672.9c.43-10-4-15.94-11.49-15.94C653,49.5,647.88,54.64,647.5,65.44Z" style="fill: #7d756e"/>
        <path d="M693.95,85.74h0a49.51,49.51,0,0,0,14.72,2.75c5.13,0,9.51-2,9.51-7.95,0-9.58-26.2-7.17-26.2-23.88,0-10,7.15-14.33,17.89-14.33a41,41,0,0,1,15.06,3.18l-1.18,7.16a43.72,43.72,0,0,0-14.28-2.79c-4.8,0-9.17,1.61-8.77,7.17,0,9.16,26.22,7.17,26.22,23.87,0,10.38-8,15.15-18.66,15.15a41,41,0,0,1-15.51-3.21Z" style="fill: #7d756e"/>
        <path d="M765.86,59.46h0c0-6.79-3.19-9.57-8-9.57-5.19,0-11.48,2-19.46,4.39l-1.18-7.56c7.17-2.4,15.46-4.37,21.43-4.37,9.52,0,15.89,4.37,15.89,16.71V94.89h-6.76l-1.18-6c-5.57,4.79-12.32,7.18-17.87,7.18-7.18,0-13.49-4-13.49-13.54S741.22,67,765.86,65Zm0,22.27h0v-10C747.57,73,743.61,77,743.61,82.15s3.57,6.75,6.72,6.75A21.9,21.9,0,0,0,765.86,81.73Z" style="fill: #7d756e"/>
        <path d="M9,26H9a35.06,35.06,0,0,1,7.55-9.56C35.17-2.23,64.95-4.61,92.35,7.32l1.19,7.95C74.87,7.32,55.41,8.52,43.89,20a34.76,34.76,0,0,0-8.32,14.34ZM138.81,60.63h0c7.94,18.71,6.76,38.22-4.78,49.77a19,19,0,0,1-5.57,4.35l10.74,21.92c17.48-18.71,19.48-47.78,7.54-74.83Zm-19.06,58.14h0c-18.28,5.56-43.3-2.39-62.36-21.9C41.1,80.55,32.79,59.86,34,42.73L3.39,37.57c-9.14,26.28.39,61.28,26.21,87.17,29.78,29.82,71.1,37.79,98.48,21.07Z" style="fill: #b72b35"/>
      </g>
    </g>
  </g>
</svg>
