<svg xmlns="http://www.w3.org/2000/svg" viewBox="0 0 288.13 87"><defs><style>.\31 e646a49-4ae1-486f-bcd2-23ec67608522{fill:#a21521;}.\31 6baadb0-0019-4f14-9138-431a1bfd4ad1{fill:#fff;}</style></defs><title>laboratorio-de-contenidos-de-marca</title><g id="eb6d204c-6a38-4004-86e9-936a4af9a771" data-name="Layer 2"><g id="c4b57398-a2b6-4341-a47b-1bb5efca4c3a" data-name="Layer 1"><g id="b37693d9-a389-4de0-b865-5b363f09e144" data-name="df68660e-49e3-4abb-b9ad-a70e30935025"><g id="59d748d4-de03-4508-8915-d147e1d0b26c" data-name="ad21b69e-0c02-4ed6-b44c-9ea997463434"><path d="M96,71.45c4.2,4.69,4.2,4.69,4,6.44-1.49-.66-5.54-4.39-7.48-7L92,78.4a1.43,1.43,0,0,1-1.83-1.16c-1-3.34-1.87-6.72-2.77-10.09l.22-.3c1.51-.29,1.56,1.49,2.6,2,.24-.46.47-.92.71-1.37A6.24,6.24,0,0,1,97.82,64a3.63,3.63,0,0,1,2.89,3.69c.06,2-.77,3.15-2.63,3.48C97.48,71.3,96.89,71.35,96,71.45Zm1.41-3.71-.14-.59-2,.56.11.44Z"/><path d="M42.66,18.45c.62.49,1.33,1,2,1.56,2.56,2.46,2.11,5.75-1,7.43a9.13,9.13,0,0,1-6.71.88c-1.74-3.65-1.78-13.8,0-17.21a4.28,4.28,0,0,1,.7.55,6.09,6.09,0,0,1,.52.88c.82-.3,1.53-.59,2.26-.81,1.1-.33,2.24-.52,3.14.42a3.1,3.1,0,0,1,.66,3.36A24.12,24.12,0,0,1,42.66,18.45Zm-5,2.43v4a9.49,9.49,0,0,0,2.52,1.31,8.3,8.3,0,0,0,2.58-.36c.3-3.53-1.37-5.13-5.11-5Zm3-6.85c-3,.6-3.42,1.41-2.62,4.43C41.09,17.38,41.3,17,40.56,14Z"/><path d="M69.43,18.44c-.32,2,1.59,3.77.49,5.94a3.66,3.66,0,0,1-2.21-2.72c-.55-2.31-1-4.66-1.37-6.72L69,13.11c.14-.1.24-.24.38-.35,2-1.67,4.9-2,6.09-.62,1.68,1.89,1.58,4.62-.33,6.79,1.22,1.09,3.36,1.1,3.83,3A10.89,10.89,0,0,1,79,24C75.67,22,71.76,21.91,69.43,18.44Zm2-2.32,2.45-.87c-1.33-.34-1.33-.34-2.41.87Z"/><path d="M52.75,81.82c-2.25-1.54-1.55-4.09-2.8-6.16-.67,1.51-1.26,2.83-1.84,4.16s-.71,2.82-2.4,4c-.08-.87-.35-1.56-.15-2.05,1.5-3.72,3.08-7.41,4.65-11.1,0-.12.28-.16.73-.39,1.57,2,1.31,4.78,2.49,7.24,2.06-2.78,2-6.62,5.13-8.93.56.67,1.25,1.15,1.45,1.78.74,2.36,1.4,4.75,1.92,7.16.26,1.2,0,1.44-1.53,2.95-1.1-2.44-.84-5.26-2.5-7.67C55.87,75.74,55.8,79.65,52.75,81.82Z"/><path d="M133.1,10.45l1.47,1.85a15.77,15.77,0,0,1,2.08-1.46,2.66,2.66,0,0,1,4.06,1.71A8.07,8.07,0,0,1,141,14c.26,2-.1,3.63-2.57,4.28,2.14,1.58,4.55,2.81,3.49,6a25.76,25.76,0,0,1-7.38-5.65V23.4c0,.2-.29.4-.47.62a2,2,0,0,1-1.33-2c-.19-3.33-.26-6.68-.33-10C132.42,11.7,132.68,11.4,133.1,10.45Zm5.53,4-.26-.42-1.17.6.15.31Z"/><path d="M116.56,18.71a43,43,0,0,1,.8-4.81c.47-1.69,1.25-3.24,3.52-3,.48.05,1-.28,1.49-.35a4.41,4.41,0,0,1,5.14,3.53q0,.15,0,.3a12,12,0,0,1-1.23,7.5A3.89,3.89,0,0,1,121.62,24a7.62,7.62,0,0,1-1.26-.26C117.9,22.88,116.25,21.63,116.56,18.71Zm2.63-4c-.1.72-.15,1.4-.29,2-.36,1.63.44,2.58,1.8,3.27s2.7,1.06,3.92.37.87-2.32.8-3.54A3,3,0,0,0,121.69,14a24.34,24.34,0,0,0-2.5.74Z"/><path d="M139.13,80.43l-2.83-6.37-7.24-.32c-.92,1.58-.8,4-3.36,4.88-.05-.63-.26-1.16-.11-1.53,1.6-3.78,3.23-7.55,4.95-11.27a3.68,3.68,0,0,1,1.7-1.71,2.15,2.15,0,0,1,2.82,1.14h0c1.85,3.56,3.7,7.14,5.37,10.79A3.24,3.24,0,0,1,139.13,80.43Zm-3.79-8.32c-1.14-1.84-1.63-3.58-3.28-5l-2.37,5Z"/><path d="M.15,79.39a21.08,21.08,0,0,0,0-3.09c-.37-2.46,1.47-3.52,3-4.71.91-.73,3.88,0,5,1.12.37.35.63.81,1,1.18,1.77,1.86.6,9.14-1.22,10.68-1.51,1.28-5.38,1.68-7,.42a2.69,2.69,0,0,1-.81-1.74A29.09,29.09,0,0,1,0,79.39Zm1.66,2.44a21.21,21.21,0,0,0,3.37.29C7.09,82,7.81,81,8,78.52c.13-2-.43-2.86-2.35-3.29-1-.23-2.13-.33-3.32-.51Z"/><path d="M1.09,56.24a11.68,11.68,0,0,1-.42-3c.45-3.69,0-7.49.93-11.13L2.2,42c.23.44.66.89.66,1.33,0,2.23-.11,4.46-.17,6.69v2.89a6.45,6.45,0,0,0,5.55-3,2.81,2.81,0,0,0,.33-2.37,6.21,6.21,0,0,0-3.33-3.41c-2.53-1-2.55-1-1.64-3.65,4.8.36,7.37,3.83,6.94,9.38C10.24,54,6.33,56.75,1.09,56.24Z"/><path d="M155.37,19.62a7.79,7.79,0,0,1,.07-1.28c.39-4.28,2.86-6,7.06-5a5,5,0,0,1,3.85,4.56A7.71,7.71,0,0,1,164.89,23a5.44,5.44,0,0,1-8.62.27c-.72-.92-.81-2.32-1.19-3.5Zm2.37-3c-.51,3.58,1.33,5.51,4.35,5.06a2.13,2.13,0,0,0,1.66-3.38,3,3,0,0,0-2.41-1.66c-1.16-.06-2.33,0-3.6,0Z"/><path d="M27.35,40.61c-2.06,1.91-4.59,1-7.06,1.57l-.8,3.44c2.4,1,5-.37,7.58.77-2.36,2.21-4.94,1.43-7.38,1.33-.5,2-.41,2.22,1.24,2.38s3.56.57,4.08-2.1c1.54,2.5.44,5.29-1.87,5.72a2.14,2.14,0,0,1-.51,0c-4.31-.25-5.64-.45-5.3-5.4.12-1.79.55-3.55.76-5.34a25.93,25.93,0,0,0,0-2.79C21.25,40.36,24.3,39.48,27.35,40.61Z"/><path d="M99.9,19.43a4.12,4.12,0,0,1,.27,3.44,1.11,1.11,0,0,1-2,.6,10,10,0,0,1-1.7-2.22c-.66-1.09-1.21-2.25-1.87-3.49H89c-1.56,1.07,0,3.56-1.77,5-.3-.38-.79-.7-.83-1.08-.4-4.17,1.22-7.68,3.9-10.75.86-1,1.93-.86,2.81.29,1.24,1.63,2.37,3.34,3.51,5,.42.64.69,1.37,1.08,2C98.28,19.32,98.4,19.37,99.9,19.43ZM93.42,16l-2-2.39L89.76,16Z"/><path d="M122.14,42c-1.2,2.85-1.06,6.06-3.16,8.53-1.29-.75-.81-1.89-.62-2.75.62-2.75,1.36-5.48,2.16-8.18a2.88,2.88,0,0,1,1.29-1.69c.34-.16,1.28.44,1.62.94,1,1.48,1.86,3.06,2.74,4.62.58,1,1.09,2.08,1.81,3.46,1.73-3,1-6.44,2.42-9.13H131a4.88,4.88,0,0,1,.5,1.8c-.39,2.71-.88,5.41-1.4,8.1a5.67,5.67,0,0,1-.7,1.65c-.69,1.22-1.76,1.39-2.7.34a10.55,10.55,0,0,1-1.34-2.17c-.8-1.51-1.53-3.06-2.33-4.57A5.77,5.77,0,0,0,122.14,42Z"/><path d="M19.27,20.23c-.56,1.51-1.1,3-1.67,4.53-.26.68-.28,1.57-1.29,1.7-1-.46-.78-1.36-.54-2,1.45-4,2.91-8.06,4.54-12,.66-1.6,2-1.55,2.79.1,1.26,2.53,2.29,5.16,3.4,7.76.34.79.64,1.59.9,2.41a3.62,3.62,0,0,1-.71,3.85c-1.61-1.14-1.26-3.3-2.71-4.81H20.7c-.94,0-1.7-.37-1.5-1.57,1.38-.16,2.84.12,4.25-.64-.67-1.44-1-2.92-2.36-4.35Z"/><path d="M58.74,47.13c.35-1.31.61-2.65,1.06-3.92.83-2.34,1.76-2.91,4.24-2.76a14,14,0,0,1,2,.28c1.75.37,2.82,1.43,2.7,3.18a18.43,18.43,0,0,1-1.11,5.2c-.89,2.34-2.54,2.94-5.25,2.36C59.87,50.93,59,49.81,58.74,47.13ZM64,43.91H63a1.71,1.71,0,0,0-2,1.59,1.85,1.85,0,0,0,1.22,2.27,9.31,9.31,0,0,0,2.78.35c1.19,0,1.51-.9,1.66-1.91a1.71,1.71,0,0,0-1.15-2A7,7,0,0,0,64,43.91Z"/><path d="M26.43,72.37c-2.42,1.48-4.64,1.36-7.08,1.36l-1,2.93c2.5.6,5-.19,7.44,1.27-2.56,1.68-5,.33-7.42.51A2.61,2.61,0,0,0,20,81.27c1.62.69,3.31.85,4.57-.86,1.33,2.29.08,4.82-2.26,4.89-3.9.11-6.12-2-6.07-6A16.46,16.46,0,0,1,17.53,73c.32-.76.71-1.17,1.43-1.21,2-.1,4.09-.14,6.14-.15C25.41,71.72,25.69,72,26.43,72.37Z"/><path d="M146.58,50.17a22.07,22.07,0,0,1-.41-3.21c.05-2.23.28-4.46.37-6.69a3.37,3.37,0,0,1,1.14-2.46c.54-.52.81-1.44,1.74-1.24s2.19.36,2.79,1a8.68,8.68,0,0,1,2,8.85c-.7,2.22-2.58,3.37-4.85,3.72A21,21,0,0,1,146.58,50.17Zm1.8-3.79c2.47,0,4.3-1.23,4.31-2.92,0-2-1.71-3.43-4.31-3.34Z"/><path d="M85.07,48.36c1-6.6,1-6.6,2.41-7,.64,2.9-.44,9.47-2,11.62-1.73-.48-2.29-2.15-3.21-3.39s-1.66-2.73-2.6-4.31c-1.19,2.36-.93,5-2.53,7.06a1.73,1.73,0,0,1-.74-2.12c.61-2.59,1.15-5.19,1.87-7.75A2.59,2.59,0,0,1,79.78,41c.31-.11,1.09.66,1.42,1.19,1.06,1.66,2,3.4,3,5.09A10.05,10.05,0,0,0,85.07,48.36Z"/><path d="M166.27,48.45c-3.41-.31-4.76-1.82-4.43-5.09a9.63,9.63,0,0,1,.36-2.28c1.38-3.85,2-4.32,6-3.45,2,.44,2.77,1.92,3.21,3.62a6.63,6.63,0,0,1-2.55,6.34A11.76,11.76,0,0,1,166.27,48.45Zm-2-7.54c-.2,1.37-.67,2.36.4,3.19a4,4,0,0,0,3.65.68,1.26,1.26,0,0,0,.84-1.84,2.72,2.72,0,0,0-2.4-2c-.8-.07-1.56,0-2.54,0Z"/><path d="M81,78.86,78.8,73.61l-4-.5L73.11,77c-.57,1.3-1,2.54-2.36,3.13-.82-.64-.55-1.31-.29-1.92q2.31-5.29,4.67-10.57a6.67,6.67,0,0,1,.63-1.12c.92-1.31,1.87-1.37,2.89-.1a8.26,8.26,0,0,1,1.19,2c.86,2.05,1.69,4.12,2.43,6.22S82.91,76.6,81,78.86Zm-4.42-10-1.27,3L78,71.5Z"/><path d="M57.07,23.38c-4.45,0-5.6-1.63-4.85-5.86a8.94,8.94,0,0,1,.9-2.39c1.2-2.37,1.77-2.66,4.24-2.25,2.13.35,3.46,1.59,3.45,3.82A19.68,19.68,0,0,1,59.9,22C59.5,23.37,58.2,23.51,57.07,23.38Zm1.7-3.74c-.08-2.57-.8-3.35-2.78-3.34A2.25,2.25,0,0,0,54,18c-.14.75.5,1.51,1.58,1.63a28.44,28.44,0,0,0,3.17,0Z"/><path d="M176.68,49c.95-.29,1.75-.51,2.54-.77a22.8,22.8,0,0,0,2.92-1c1.7-.72,1.68-.76,1.49-3.08-1.83-.37-3.67-1-4-3.22-.25-1.79-.34-3.61,1.55-4.83,1.36.46,1.63,1.64,2.08,2.86l-1.76,1.11a2.92,2.92,0,0,0,.67.5c2.84.92,4.92,4.8,4,7.58a2.46,2.46,0,0,1-.63,1.1,10.94,10.94,0,0,1-7.12,2.42C177.25,51.75,177,50.48,176.68,49Z"/><path d="M7.11,7.8c.79,1.35.31,2.55,0,3.75-.81,2.88-1.66,5.76-2.43,8.65A24.81,24.81,0,0,0,4.23,23c2.27,1.52,4.81.34,7,1,.13,2.43-.4,3.29-2.42,3.37A18.52,18.52,0,0,1,4.25,27c-1.71-.37-2.18-1-2-2.74a53,53,0,0,1,1.17-7.08C4,14.57,4.84,12,5.59,9.5A2.36,2.36,0,0,1,7.11,7.8Z"/><path d="M106.69,38.87c2.29-1.4,5.88-1.88,7.58-.9-1.38,2-3.8,1.15-5.67,2.08v1.63c1.79.43,3.59-1.14,5.42.37-1.71,1.53-3.63,1.23-5.65,1.09a1.89,1.89,0,0,0,.06,2.49c.81.87,2.86.64,4.59-.42a1.61,1.61,0,0,1,.21.46c.41,3.73-1.44,5.07-5.29,3.6a2.64,2.64,0,0,1-1.77-2.59c0-1.71.14-3.42.25-5.12C106.47,40.7,106.59,39.83,106.69,38.87Z"/><path d="M53.92,51c-1.42,3.32-3.33,4-6.09,2.5A5.53,5.53,0,0,1,45,49.4a9.72,9.72,0,0,1,.83-5.78c1-2.13,2.58-2.91,4.77-2.35A4.18,4.18,0,0,1,47.92,44C47,49.24,48.8,51.4,53.92,51Z"/><path d="M117.88,75.65c-.41,2.26-1.73,3.71-3.45,3.87a5.27,5.27,0,0,1-4.74-3.33c-1.05-2.7.6-7.63,3.11-9.11a1.83,1.83,0,0,1,1.56-.13c.69.43.2,1.06-.15,1.53a7.7,7.7,0,0,1-1,1.13,4,4,0,0,0-.28,5.44c1.21,1.32,2.1,1.48,3.82.7a4.51,4.51,0,0,1,.71-.24S117.6,75.55,117.88,75.65Z"/><path d="M106.78,10.19,107.55,7c1.66.57.81,2.1,1.52,2.87,1.29.64,2.91-.78,4.14.74-1.1,1.39-2.76,1.26-4.31,1.68-.21,3.51,1.4,7,0,10.68-1.41-.74-1.38-1.83-1.44-2.93-.12-2.46-.31-4.92-.47-7.55l-4.48.51C103.41,10.83,105.48,11.11,106.78,10.19Z"/><path d="M97.85,42.33c0-2-.67-4,.2-6.4,2.23,1.79,1.26,4.24,2,6.37l3.12,1.08-2.68,1.14c-1,2,1.26,4.19-.11,6.53C98.31,49.27,99,46.67,98,44.68l-3.42-.92C95.31,42.14,96.88,43.24,97.85,42.33Z"/><path d="M148.48,24.31c-1.41-2.29-1-4.77-1.26-7.08-.37-2.95-.15-3.73.79-5.78a5.54,5.54,0,0,1,.78,1.53c.33,3,.61,6,.86,8.93A2.1,2.1,0,0,1,148.48,24.31Z"/><path d="M139.19,36.87c.51.77,1,1.21,1.1,1.7.4,3,.71,5.9,1,8.86,0,.23-.36.49-.62.83-1.89-1.29-1.47-3.33-1.64-4.93C138.8,41.36,137.83,39.24,139.19,36.87Z"/><rect class="1e646a49-4ae1-486f-bcd2-23ec67608522" x="197.5" width="90.63" height="87"/><polygon class="16baadb0-0019-4f14-9138-431a1bfd4ad1" points="208.35 15.97 217.08 15.97 217.08 63.69 242.05 63.69 242.05 71.44 208.35 71.44 208.35 15.97"/><polygon class="16baadb0-0019-4f14-9138-431a1bfd4ad1" points="252.04 23.71 235.57 23.71 235.57 15.97 277.25 15.97 277.25 23.71 260.77 23.71 260.77 71.44 252.04 71.44 252.04 23.71"/></g></g></g></g></svg>