<svg xmlns="http://www.w3.org/2000/svg" viewBox="0 0 1403.18 423.69">
  <defs>
    <style>
      .cls-1 {
        fill: #a21521;
      }

      .cls-2 {
        fill: #fff;
      }
    </style>
  </defs>
  <title>laboratoriodecontenidosdemarca</title>
  <g id="Layer_2" data-name="Layer 2">
    <g id="grupo_copesa" data-name="grupo copesa">
      <g id="ad21b69e-0c02-4ed6-b44c-9ea997463434">
        <path d="M467.56,348C488,370.8,488,370.8,487,379.32c-7.26-3.21-27-21.38-36.43-34.09l-2.53,36.57a7,7,0,0,1-8.91-5.65c-4.87-16.27-9.11-32.73-13.49-49.14,0,0,.49-.63,1.07-1.46,7.35-1.41,7.6,7.26,12.66,9.74,1.17-2.24,2.29-4.48,3.46-6.67a30.39,30.39,0,0,1,33.51-16.95,17.68,17.68,0,0,1,14.07,18c.29,9.74-3.75,15.34-12.81,16.95C474.72,347.23,471.85,347.47,467.56,348Zm6.87-18.07-.68-2.87L464,329.74l.54,2.14Z"/>
        <path d="M207.75,89.85c3,2.39,6.48,4.87,9.5,7.6,12.47,12,10.28,28-4.87,36.18a44.46,44.46,0,0,1-32.68,4.29c-8.47-17.78-8.67-67.21.24-83.81a20.84,20.84,0,0,1,3.41,2.68,29.66,29.66,0,0,1,2.53,4.29c4-1.46,7.45-2.87,11-3.94,5.36-1.61,10.91-2.53,15.29,2a15.1,15.1,0,0,1,3.21,16.36A117.46,117.46,0,0,1,207.75,89.85Zm-24.59,11.83v19.48a46.22,46.22,0,0,0,12.27,6.38A40.42,40.42,0,0,0,208,125.79c1.46-17.19-6.67-25-24.89-24.11Zm14.61-33.36C183.16,71.25,181.11,75.19,185,89.9c15.1-5.26,16.12-7.11,12.52-21.72Z"/>
        <path d="M338.12,89.8c-1.56,9.74,7.74,18.36,2.39,28.93a17.82,17.82,0,0,1-10.76-13.25c-2.68-11.25-4.87-22.69-6.67-32.73l13-8.91c.68-.49,1.17-1.17,1.85-1.7,9.74-8.13,23.86-9.74,29.66-3,8.18,9.2,7.69,22.5-1.61,33.07,5.94,5.31,16.36,5.36,18.65,14.61a53,53,0,0,1,0,10.23C368.51,107.14,349.47,106.7,338.12,89.8Zm9.74-11.3,11.93-4.24c-6.48-1.66-6.48-1.66-11.74,4.24Z"/>
        <path d="M256.89,398.46c-11-7.5-7.55-19.92-13.64-30-3.26,7.35-6.14,13.78-9,20.26s-3.46,13.73-11.69,19.48c-.39-4.24-1.7-7.6-.73-10,7.3-18.12,15-36.09,22.65-54.06.24-.58,1.36-.78,3.56-1.9,7.65,9.74,6.38,23.28,12.13,35.26,10-13.54,9.74-32.24,25-43.49,2.73,3.26,6.09,5.6,7.06,8.67,3.6,11.49,6.82,23.13,9.35,34.87,1.27,5.84,0,7-7.45,14.37-5.36-11.88-4.09-25.62-12.17-37.35C272.09,368.85,271.74,387.89,256.89,398.46Z"/>
        <path d="M648.19,50.89l7.16,9a76.8,76.8,0,0,1,10.13-7.11,13,13,0,0,1,19.77,8.33,39.3,39.3,0,0,1,1.46,7.06C688,77.92,686.23,85.86,674.2,89c10.42,7.69,22.16,13.68,17,29.22a125.45,125.45,0,0,1-35.94-27.52V114c0,1-1.41,1.95-2.29,3a9.74,9.74,0,0,1-6.48-9.74c-.93-16.22-1.27-32.53-1.61-48.7C644.88,57,646.15,55.52,648.19,50.89Zm26.93,19.48-1.27-2-5.7,2.92.73,1.51Z"/>
        <path d="M567.64,91.12a209.41,209.41,0,0,1,3.9-23.42c2.29-8.23,6.09-15.78,17.14-14.61,2.34.24,4.87-1.36,7.26-1.7A21.48,21.48,0,0,1,621,68.55q.14.74.22,1.48a58.44,58.44,0,0,1-6,36.52c-5.16,9.4-12,12.52-22.94,10.47a37.11,37.11,0,0,1-6.14-1.27C574.17,111.42,566.13,105.34,567.64,91.12Zm12.81-19.48c-.49,3.51-.73,6.82-1.41,10-1.75,7.94,2.14,12.56,8.77,15.92s13.15,5.16,19.09,1.8,4.24-11.3,3.9-17.24a14.61,14.61,0,0,0-18.16-13.93,118.53,118.53,0,0,0-12.17,3.6Z"/>
        <path d="M677.56,391.69l-13.78-31-35.26-1.56c-4.48,7.69-3.9,19.48-16.36,23.77-.24-3.07-1.27-5.65-.54-7.45,7.79-18.41,15.73-36.77,24.11-54.88a17.92,17.92,0,0,1,8.28-8.33,10.47,10.47,0,0,1,13.73,5.54h0c9,17.34,18,34.77,26.15,52.55A15.78,15.78,0,0,1,677.56,391.69ZM659.1,351.17c-5.55-9-7.94-17.43-16-24.35l-11.54,24.35Z"/>
        <path d="M.73,386.63a102.66,102.66,0,0,0,0-15c-1.8-12,7.16-17.14,14.61-22.94,4.43-3.56,18.9,0,24.35,5.45,1.8,1.7,3.07,3.94,4.87,5.75,8.62,9.06,2.92,44.51-5.94,52-7.35,6.23-26.2,8.18-34.09,2a13.1,13.1,0,0,1-3.94-8.47c-.83-6.09-.54-12.52-.54-18.8Zm8.08,11.88a103.29,103.29,0,0,0,16.41,1.41c9.3-.58,12.81-5.45,13.78-17.53.63-9.74-2.09-13.93-11.44-16-5.11-1.12-10.37-1.61-16.17-2.48Z"/>
        <path d="M5.31,273.89a56.88,56.88,0,0,1-2-14.61c2.19-18,0-36.48,4.53-54.2l2.92-.54c1.12,2.14,3.21,4.33,3.21,6.48,0,10.86-.54,21.72-.83,32.58v14.07a31.41,31.41,0,0,0,27-14.61,13.68,13.68,0,0,0,1.61-11.54,30.24,30.24,0,0,0-16.22-16.61c-12.32-4.63-12.42-4.87-8-17.78,23.38,1.75,35.89,18.65,33.8,45.68C49.87,263,30.83,276.37,5.31,273.89Z"/>
        <path d="M756.65,95.55a37.93,37.93,0,0,1,.34-6.23c1.9-20.84,13.93-29.22,34.38-24.35a24.35,24.35,0,0,1,18.75,22.21A37.55,37.55,0,0,1,803,111.91a26.49,26.49,0,0,1-42,1.31c-3.51-4.48-3.94-11.3-5.8-17Zm11.54-14.61c-2.48,17.43,6.48,26.83,21.18,24.64a10.37,10.37,0,0,0,8.08-16.46A14.61,14.61,0,0,0,785.72,81c-5.65-.29-11.35,0-17.53,0Z"/>
        <path d="M133.19,197.77c-10,9.3-22.35,4.87-34.38,7.65l-3.9,16.75c11.69,4.87,24.35-1.8,36.91,3.75-11.49,10.76-24.06,7-35.94,6.48-2.43,9.74-2,10.81,6,11.59s17.34,2.78,19.87-10.23c7.5,12.17,2.14,25.76-9.11,27.86a10.42,10.42,0,0,1-2.48,0c-21-1.22-27.47-2.19-25.81-26.3.58-8.72,2.68-17.29,3.7-26a126.28,126.28,0,0,0,0-13.59C103.49,196.55,118.34,192.27,133.19,197.77Z"/>
        <path d="M486.51,94.62a20.06,20.06,0,0,1,1.31,16.75,5.41,5.41,0,0,1-9.74,2.92,48.7,48.7,0,0,1-8.28-10.81c-3.21-5.31-5.89-11-9.11-17H433.48c-7.6,5.21,0,17.34-8.62,24.35-1.46-1.85-3.85-3.41-4-5.26-1.95-20.31,5.94-37.4,19-52.35,4.19-4.87,9.4-4.19,13.68,1.41,6,7.94,11.54,16.27,17.09,24.35,2,3.12,3.36,6.67,5.26,9.74C478.62,94.09,479.2,94.33,486.51,94.62ZM455,78.16l-9.74-11.64-8.08,11.64Z"/>
        <path d="M594.82,204.54c-5.84,13.88-5.16,29.51-15.39,41.54-6.28-3.65-3.94-9.2-3-13.39,3-13.39,6.62-26.69,10.52-39.84a14,14,0,0,1,6.28-8.23c1.66-.78,6.23,2.14,7.89,4.58,4.87,7.21,9.06,14.9,13.34,22.5,2.82,4.87,5.31,10.13,8.81,16.85,8.43-14.61,4.87-31.36,11.79-44.46h3.07a23.77,23.77,0,0,1,2.43,8.77c-1.9,13.2-4.29,26.35-6.82,39.45a27.61,27.61,0,0,1-3.41,8c-3.36,5.94-8.57,6.77-13.15,1.66a51.38,51.38,0,0,1-6.53-10.57c-3.9-7.35-7.45-14.9-11.35-22.26A28.1,28.1,0,0,0,594.82,204.54Z"/>
        <path d="M93.85,98.52c-2.73,7.35-5.36,14.61-8.13,22.06-1.27,3.31-1.36,7.65-6.28,8.28-4.87-2.24-3.8-6.62-2.63-9.74C83.86,99.64,91,79.87,98.91,60.68c3.21-7.79,9.74-7.55,13.59.49C118.63,73.49,123.65,86.3,129.05,99c1.66,3.85,3.12,7.74,4.38,11.74A17.63,17.63,0,0,1,130,129.44c-7.84-5.55-6.14-16.07-13.2-23.42h-16c-4.58,0-8.28-1.8-7.3-7.65,6.72-.78,13.83.58,20.7-3.12-3.26-7-4.87-14.22-11.49-21.18Z"/>
        <path d="M286.06,229.52c1.7-6.38,3-12.91,5.16-19.09,4-11.4,8.57-14.17,20.65-13.44a68.18,68.18,0,0,1,9.74,1.36c8.52,1.8,13.73,7,13.15,15.49a89.75,89.75,0,0,1-5.41,25.32c-4.33,11.4-12.37,14.32-25.57,11.49C291.57,248,287.38,242.57,286.06,229.52Zm25.66-15.68h-4.87a8.33,8.33,0,0,0-9.74,7.74,9,9,0,0,0,5.94,11.05,45.34,45.34,0,0,0,13.54,1.7c5.8,0,7.35-4.38,8.08-9.3a8.33,8.33,0,0,0-5.6-9.74A34.09,34.09,0,0,0,311.73,213.84Z"/>
        <path d="M128.71,352.44c-11.79,7.21-22.6,6.62-34.48,6.62l-4.87,14.27c12.17,2.92,24.35-.93,36.23,6.18-12.47,8.18-24.35,1.61-36.14,2.48a12.71,12.71,0,0,0,8,13.78c7.89,3.36,16.12,4.14,22.26-4.19,6.48,11.15.39,23.47-11,23.81-19,.54-29.8-9.74-29.56-29.22a80.16,80.16,0,0,1,6.23-30.44c1.56-3.7,3.46-5.7,7-5.89,9.74-.49,19.92-.68,29.9-.73C123.75,349.27,125.11,350.64,128.71,352.44Z"/>
        <path d="M713.84,244.33a107.48,107.48,0,0,1-2-15.63c.24-10.86,1.36-21.72,1.8-32.58a16.41,16.41,0,0,1,5.55-12c2.63-2.53,3.94-7,8.47-6s10.67,1.75,13.59,4.87a42.27,42.27,0,0,1,9.74,43.1c-3.41,10.81-12.56,16.41-23.62,18.12A102.27,102.27,0,0,1,713.84,244.33Zm8.77-18.46c12,0,20.94-6,21-14.22,0-9.74-8.33-16.7-21-16.27Z"/>
        <path d="M414.29,235.51c4.87-32.14,4.87-32.14,11.74-34.09,3.12,14.12-2.14,46.12-9.74,56.59-8.43-2.34-11.15-10.47-15.63-16.51s-8.08-13.29-12.66-21c-5.8,11.49-4.53,24.35-12.32,34.38a8.43,8.43,0,0,1-3.6-10.32c3-12.61,5.6-25.28,9.11-37.74a12.61,12.61,0,0,1,7.35-7.16c1.51-.54,5.31,3.21,6.92,5.8,5.16,8.08,9.74,16.56,14.61,24.79A48.94,48.94,0,0,0,414.29,235.51Z"/>
        <path d="M809.73,235.95c-16.61-1.51-23.18-8.86-21.57-24.79a46.9,46.9,0,0,1,1.75-11.1c6.72-18.75,9.74-21,29.22-16.8,9.74,2.14,13.49,9.35,15.63,17.63a32.29,32.29,0,0,1-12.42,30.88A57.27,57.27,0,0,1,809.73,235.95ZM800,199.23c-1,6.67-3.26,11.49,1.95,15.54a19.48,19.48,0,0,0,17.78,3.31,6.14,6.14,0,0,0,4.09-9,13.25,13.25,0,0,0-11.69-9.74c-3.9-.34-7.6-.15-12.37-.15Z"/>
        <path d="M394.52,384l-10.76-25.57L364.27,356c-2.68,6.09-5.45,12.52-8.23,18.85s-4.87,12.37-11.49,15.24c-4-3.12-2.68-6.38-1.41-9.35q11.25-25.76,22.74-51.48a32.48,32.48,0,0,1,3.07-5.45c4.48-6.38,9.11-6.67,14.07-.49a40.23,40.23,0,0,1,5.8,9.74c4.19,10,8.23,20.06,11.83,30.29S403.77,373,394.52,384ZM373,335.34,366.81,350l13.1-1.75Z"/>
        <path d="M277.93,113.86c-21.67,0-27.27-7.94-23.62-28.54a43.54,43.54,0,0,1,4.38-11.64c5.84-11.54,8.62-13,20.65-11,10.37,1.7,16.85,7.74,16.8,18.6a95.84,95.84,0,0,1-4.43,25.81C289.76,113.81,283.43,114.49,277.93,113.86Zm8.28-18.21c-.39-12.52-3.9-16.31-13.54-16.27A11,11,0,0,0,263,87.66c-.68,3.65,2.43,7.35,7.69,7.94a138.5,138.5,0,0,0,15.44,0Z"/>
        <path d="M860.42,238.63c4.63-1.41,8.52-2.48,12.37-3.75,4.87-1.51,9.74-2.78,14.22-4.87,8.28-3.51,8.18-3.7,7.26-15-8.91-1.8-17.87-4.87-19.48-15.68-1.22-8.72-1.66-17.58,7.55-23.52,6.62,2.24,7.94,8,10.13,13.93l-8.57,5.41a14.22,14.22,0,0,0,3.26,2.43c13.83,4.48,24,23.38,19.48,36.91a12,12,0,0,1-3.07,5.36,53.28,53.28,0,0,1-34.67,11.79C863.2,252,862,245.83,860.42,238.63Z"/>
        <path d="M34.63,38c3.85,6.57,1.51,12.42,0,18.26-3.94,14-8.08,28.05-11.83,42.13A120.82,120.82,0,0,0,20.6,112c11.05,7.4,23.42,1.66,34.09,4.87.63,11.83-1.95,16-11.79,16.41a90.19,90.19,0,0,1-22.21-1.8c-8.33-1.8-10.62-4.87-9.74-13.34a258.11,258.11,0,0,1,5.7-34.48C19.53,71,23.57,58.44,27.22,46.26A11.49,11.49,0,0,1,34.63,38Z"/>
        <path d="M519.58,189.29c11.15-6.82,28.64-9.16,36.91-4.38-6.72,9.74-18.51,5.6-27.61,10.13V203c8.72,2.09,17.48-5.55,26.4,1.8-8.33,7.45-17.68,6-27.52,5.31a9.2,9.2,0,0,0,.29,12.13c3.94,4.24,13.93,3.12,22.35-2a7.84,7.84,0,0,1,1,2.24c2,18.16-7,24.69-25.76,17.53A12.86,12.86,0,0,1,517,227.33c0-8.33.68-16.66,1.22-24.93C518.5,198.21,519.09,194,519.58,189.29Z"/>
        <path d="M262.59,248.37c-6.92,16.17-16.22,19.48-29.66,12.17a26.93,26.93,0,0,1-13.73-20,47.34,47.34,0,0,1,4-28.15c4.87-10.37,12.56-14.17,23.23-11.44a20.36,20.36,0,0,1-13.1,13.29C228.94,239.8,237.65,250.32,262.59,248.37Z"/>
        <path d="M574.07,368.41c-2,11-8.43,18.07-16.8,18.85s-19.48-6.62-23.08-16.22c-5.11-13.15,2.92-37.16,15.15-44.37a8.91,8.91,0,0,1,7.6-.63c3.36,2.09,1,5.16-.73,7.45a37.5,37.5,0,0,1-4.87,5.5A19.48,19.48,0,0,0,550,365.49c5.89,6.43,10.23,7.21,18.6,3.41a22,22,0,0,1,3.46-1.17C572.27,367.63,572.71,367.92,574.07,368.41Z"/>
        <path d="M520,49.62l3.75-15.54c8.08,2.78,3.94,10.23,7.4,14,6.28,3.12,14.17-3.8,20.16,3.6-5.36,6.77-13.44,6.14-21,8.18-1,17.09,6.82,34.09,0,52-6.87-3.6-6.72-8.91-7-14.27-.58-12-1.51-24-2.29-36.77l-21.82,2.48C503.6,52.74,513.68,54.11,520,49.62Z"/>
        <path d="M476.53,206.14c0-9.74-3.26-19.48,1-31.17,10.86,8.72,6.14,20.65,9.74,31l15.19,5.26-13.05,5.55c-4.87,9.74,6.14,20.41-.54,31.8-10.08-8.67-7-21.33-11.79-31l-16.66-4.48C464.16,205.22,471.8,210.58,476.53,206.14Z"/>
        <path d="M723.09,118.39c-6.87-11.15-4.87-23.23-6.14-34.48-1.8-14.37-.73-18.16,3.85-28.15a27,27,0,0,1,3.8,7.45c1.61,14.61,3,29.22,4.19,43.49A10.23,10.23,0,0,1,723.09,118.39Z"/>
        <path d="M677.85,179.55c2.48,3.75,4.87,5.89,5.36,8.28,1.95,14.37,3.46,28.73,4.87,43.15,0,1.12-1.75,2.39-3,4-9.2-6.28-7.16-16.22-8-24C676,201.42,671.23,191.1,677.85,179.55Z"/>
        <rect class="cls-1" x="961.82" width="441.36" height="423.69"/>
        <polygon class="cls-2" points="1014.65 77.77 1057.17 77.77 1057.17 310.17 1178.77 310.17 1178.77 347.91 1014.65 347.91 1014.65 77.77"/>
        <polygon class="cls-2" points="1227.42 115.47 1147.21 115.47 1147.21 77.77 1350.19 77.77 1350.19 115.47 1269.94 115.47 1269.94 347.91 1227.42 347.91 1227.42 115.47"/>
      </g>
    </g>
  </g>
</svg>
