<svg xmlns="http://www.w3.org/2000/svg" viewBox="0 0 231.1 33.6">
  <defs>
    <style>
      .a {
        fill: #fff;
      }

      .b {
        fill: #b2292e;
      }

      .c {
        fill: #afb1b4;
      }
    </style>
  </defs>
  <title>latercera-pm</title>
  <g>
    <g>
      <polygon class="a" points="52.9 9.6 58.5 9.6 58.5 25.8 61.4 25.8 61.4 9.6 67 9.6 67 7 52.9 7 52.9 9.6"/>
      <g>
        <path class="a" d="M95.8,14.2c0-4.3-2.8-7.2-8-7.2H83V25.8h2.9V21.3h3.2l3.2,4.6h3.5L92,20.4a6.3,6.3,0,0,0,3.8-6.2m-8.1,4.6H86V9.6h1.7c3.6,0,5.1,1.7,5.1,4.6s-1.5,4.6-5.1,4.6"/>
        <path class="a" d="M106.6,23.3c-3.8,0-6.5-2.9-6.5-7s2.7-7,6.4-7a5.9,5.9,0,0,1,5.3,2.6l2.3-1.6c-1.6-2.3-4-3.6-7.5-3.6A9.5,9.5,0,0,0,97,16.3a9.8,9.8,0,0,0,17.5,5.8l-2.3-1.6a6.5,6.5,0,0,1-5.6,2.8"/>
        <path class="a" d="M142.9,14.2c0-4.3-2.8-7.2-8-7.2h-4.8V25.8h3V21.3h3.1l3.2,4.6h3.5l-3.8-5.3a6.5,6.5,0,0,0,3.8-6.3m-8.1,4.6h-1.7V9.6h1.7c3.6,0,5.1,1.7,5.1,4.6s-1.5,4.6-5.1,4.6"/>
        <path class="a" d="M151.9,6.6h-.2l-8.2,19.1h3l1.1-2.6H156l1.1,2.6h3.1Zm-3.2,13.9,3.1-7.4,3.1,7.4Z"/>
        <polygon class="a" points="116.1 25.8 128.3 25.8 128.3 23.1 119.1 23.1 119.1 20 127 20 127 17.4 119.1 17.4 119.1 9.6 128.3 9.6 128.3 7 116.1 7 116.1 25.8"/>
        <polygon class="a" points="71.8 20 79.8 20 79.8 17.4 71.8 17.4 71.8 9.6 81.2 9.6 81.2 7 68.9 7 68.9 25.8 81.2 25.8 81.2 23.1 71.8 23.1 71.8 20"/>
        <path class="a" d="M44.6,6.6,37.5,23.1H30V7H27.1V25.8H39.4l1.1-2.6h8.4L50,25.8h3L44.8,6.6Zm-3,13.9,3.1-7.4,3.1,7.4Z"/>
      </g>
      <g>
        <rect class="b" y="6.1" width="21.4" height="20.5"/>
        <polyline class="a" points="2.6 9.8 4.7 9.8 4.7 21.1 10.5 21.1 10.5 22.9 2.6 22.9 2.6 9.8"/>
        <polyline class="a" points="12.9 11.6 9 11.6 9 9.8 18.8 9.8 18.8 11.6 15 11.6 15 22.9 12.9 22.9 12.9 11.6"/>
      </g>
    </g>
    <path class="c" d="M198.9,7h4.7c5.2,0,8,2.8,8,7.1s-2.9,7.1-8,7.1h-1.8v4.5h-2.9Zm4.6,11.6c3.7,0,5.2-1.7,5.2-4.6s-1.5-4.6-5.2-4.6h-1.7v9.1h1.7Z"/>
    <path class="c" d="M212.8,6.8h.3L222,17.2l8.8-10.4h.3V25.7h-2.8V16c0-1,.1-2.7.1-2.7a22.7,22.7,0,0,1-1.7,2.3L222,21.3h-.3L217,15.6c-.7-.9-1.6-2.3-1.6-2.3s.1,1.6.1,2.7v9.7h-2.8V6.8Z"/>
    <g>
      <path class="c" d="M178.9,33.6a16.8,16.8,0,1,1,16.8-16.8A16.8,16.8,0,0,1,178.9,33.6Zm0-31.6a14.8,14.8,0,1,0,14.8,14.8A14.8,14.8,0,0,0,178.9,2Z"/>
      <path class="c" d="M178.9,33.6a16.8,16.8,0,1,1,16.8-16.8A16.8,16.8,0,0,1,178.9,33.6Zm0-31.6a14.8,14.8,0,1,0,14.8,14.8A14.8,14.8,0,0,0,178.9,2Z"/>
      <path class="c" d="M179.9,15.7a.8.8,0,0,1-.8.8h0a.9.9,0,0,1-.8-.8V6a.9.9,0,0,1,.8-.8h0a.9.9,0,0,1,.8.8Z"/>
      <path class="c" d="M183.8,10a.8.8,0,0,1,1,.1h0a.7.7,0,0,1,.1,1l-5.2,5.2a.8.8,0,0,1-1-.1h0a.7.7,0,0,1-.1-1Z"/>
    </g>
  </g>
</svg>
