<svg xmlns="http://www.w3.org/2000/svg" viewBox="0 0 873.38 167.32">
  <title>lt-eldeportivo</title>
  <g id="42269485-c527-445c-956e-b23d28050c55" data-name="Layer 2">
    <g id="11b07600-86a6-43b3-9bf9-6f97b3aa70dc" data-name="Capa 1">
      <g>
        <g>
          <rect y="45.85" width="69.85" height="67.06" style="fill: #a21521"/>
          <polygon points="8.36 58.16 15.09 58.16 15.09 94.94 34.34 94.94 34.34 100.92 8.36 100.92 8.36 58.16" style="fill: #fff"/>
          <polygon points="42.03 64.13 29.34 64.13 29.34 58.16 61.47 58.16 61.47 64.13 48.76 64.13 48.76 100.92 42.03 100.92 42.03 64.13" style="fill: #fff"/>
          <g>
            <polygon points="16.48 118.4 13.56 118.4 13.56 117.02 20.95 117.02 20.95 118.4 18.02 118.4 18.02 126.87 16.48 126.87 16.48 118.4" style="fill: #a21521"/>
            <path d="M36.08,126.87H34.24l-1.68-2.39a4.8,4.8,0,0,1-.71,0h-1v2.35H29.33V117h2.52c2.71,0,4.2,1.49,4.2,3.76a3.39,3.39,0,0,1-2,3.29Zm-4.28-3.68c1.89,0,2.66-.9,2.66-2.4s-.78-2.39-2.66-2.39h-.92v4.79Z" style="fill: #a21521"/>
            <path d="M36.69,121.95a4.94,4.94,0,0,1,5-5.05,4.51,4.51,0,0,1,3.94,1.91l-1.18.84a3.17,3.17,0,0,0-2.79-1.35,3.66,3.66,0,0,0,.06,7.3,3.49,3.49,0,0,0,3-1.44l1.2.83a4.83,4.83,0,0,1-4.21,2,4.91,4.91,0,0,1-5-5.05" style="fill: #a21521"/>
            <path d="M60.8,126.87H59l-1.68-2.39a4.73,4.73,0,0,1-.71,0h-1v2.35H54.06V117h2.52c2.71,0,4.2,1.49,4.2,3.76a3.39,3.39,0,0,1-2,3.29Zm-4.29-3.68c1.9,0,2.67-.9,2.67-2.4s-.79-2.39-2.67-2.39h-.9v4.79Z" style="fill: #a21521"/>
            <path d="M62.68,126.87H61.12l4.31-10h.09l4.33,10H68.22l-.57-1.38h-4.4Zm2.78-6.65-1.64,3.89h3.25Z" style="fill: #a21521"/>
            <polygon points="53.13 125.49 48.27 125.49 48.27 123.83 52.45 123.83 52.45 122.48 48.27 122.48 48.27 118.4 53.13 118.4 53.13 117.02 46.72 117.02 46.72 126.87 53.13 126.87 53.13 125.49" style="fill: #a21521"/>
            <polygon points="23.47 123.83 27.65 123.83 27.65 122.48 23.47 122.48 23.47 118.4 28.39 118.4 28.39 117.02 21.92 117.02 21.92 126.87 28.39 126.87 28.39 125.49 23.47 125.49 23.47 123.83" style="fill: #a21521"/>
            <polygon points="0 117.03 1.55 117.03 1.55 125.5 6 125.5 6 126.87 0 126.87 0 117.03" style="fill: #a21521"/>
            <path d="M6.45,126.87H4.88l4.31-10h.09l4.32,10H12l-.56-1.38H7Zm2.78-6.64-1.63,3.89h3.24Z" style="fill: #a21521"/>
          </g>
        </g>
        <g>
          <path d="M125.42,107.29a35.25,35.25,0,0,0,20.39-6.48l14.67,15.82c-7.81,6.86-17.72,12-34.68,12-29,0-47.64-17.53-47.64-42.5C78.16,61.55,97.79,44,122.94,44c29.16,0,45,21.73,43.07,50.12H104.46C106.93,102.52,113.79,107.29,125.42,107.29Zm14.67-28c-1.14-9-6.86-14.29-17-14.29s-17,4.57-19.06,14.29Z" style="fill: #222221"/>
          <path d="M169.82,3.93h25.54v123H169.82Z" style="fill: #222221"/>
          <path d="M199.17,86.13c0-25,16.77-42.11,36.4-42.11,13,0,20.2,5.15,25.35,13.15V3.93h25.72v123H260.91l.57-11.81c-4.57,8.57-13.15,13.53-25.54,13.53C216.13,128.63,199.17,111.1,199.17,86.13Zm62.5,0c0-12-7.24-19.44-18.29-19.44-10.86,0-17.72,7.43-17.72,19.44,0,12.77,6.86,20,17.72,20C254.43,106.14,261.67,98.9,261.67,86.13Z" style="fill: #222221"/>
          <path d="M336.94,107.29a35.26,35.26,0,0,0,20.39-6.48L372,116.63c-7.81,6.86-17.72,12-34.68,12-29,0-47.64-17.53-47.64-42.5,0-24.58,19.63-42.11,44.78-42.11,29.16,0,45,21.73,43.07,50.12H316C318.46,102.52,325.32,107.29,336.94,107.29Zm14.67-28c-1.14-9-6.86-14.29-17-14.29s-17,4.57-19.06,14.29Z" style="fill: #222221"/>
          <path d="M380.77,45.74H406.5l-.57,12.57C410.88,49.55,419.45,44,432,44c19.63,0,36.21,17.15,36.21,42.11s-17,42.5-36.78,42.5c-12.39,0-20.77-5.15-25-12.58v51.26H380.77Zm61,40.4c0-12-6.86-19.44-17.72-19.44-11.05,0-18.3,7.43-18.3,19.44,0,12.77,7.24,20,18.3,20C434.89,106.14,441.75,98.9,441.75,86.13Z" style="fill: #222221"/>
          <path d="M468.62,86.52c0-24.77,19.63-42.5,44.78-42.5S558,61.74,558,86.52c0,24.58-19.44,42.12-44.59,42.12S468.62,111.1,468.62,86.52Zm63.08,0c0-12.2-6.86-20.39-18.3-20.39s-18.48,8.2-18.48,20.39c0,12,7.05,20.39,18.48,20.39S531.7,98.52,531.7,86.52Z" style="fill: #222221"/>
          <path d="M561,45.74h25.73l-.38,14.67C592.3,47.07,601.83,44,610.21,44a26,26,0,0,1,12.58,3.24L614.6,70.7a22.4,22.4,0,0,0-9.91-2.48c-11.62,0-17.91,5.34-17.91,22.68v36H561Z" style="fill: #222221"/>
          <path d="M629.27,96.43V67.08h-12V45.74h12V3.43h25.54V45.74h20.77V67.08H654.81V97.19c0,8.2,2.67,9.91,6.67,9.91,4.19,0,7.24-2.29,9-3.43l9.72,17.91c-4,3.24-10.86,7.43-22.68,7.43C641.08,129,629.27,120.82,629.27,96.43Z" style="fill: #222221"/>
          <path d="M676.53,16c0-9.34,7.62-16,16.39-16a15.9,15.9,0,0,1,16.2,16,16.29,16.29,0,0,1-32.58,0ZM680,45.74h25.73v81.18H680Z" style="fill: #222221"/>
          <path d="M704.16,45.74h28.39L744,69.94c3.81,8.19,6.67,21.53,6.67,21.53s2.67-13.34,6.29-21.53L768,45.74h26.11l-43.45,82.89h-2.47Z" style="fill: #222221"/>
          <path d="M784,86.52C784,61.74,803.64,44,828.79,44s44.59,17.72,44.59,42.5c0,24.58-19.44,42.12-44.59,42.12S784,111.1,784,86.52Zm63.08,0c0-12.2-6.86-20.39-18.29-20.39s-18.48,8.2-18.48,20.39c0,12,7,20.39,18.48,20.39S847.08,98.52,847.08,86.52Z" style="fill: #222221"/>
        </g>
      </g>
    </g>
  </g>
</svg>
