<svg xmlns="http://www.w3.org/2000/svg" viewBox="0 0 854.33 263.83">
  <title>lt-finde</title>
  <g id="08fb7499-b06b-418d-89ea-6afbc2e6a026" data-name="Layer 2">
    <g id="327fe685-7ab7-4f8d-8f33-1edef55392df" data-name="Capa 1">
      <g>
        <g>
          <rect y="108.2" width="128.09" height="122.97" style="fill: #a21521"/>
          <polygon points="15.33 130.77 27.68 130.77 27.68 198.22 62.97 198.22 62.97 209.18 15.33 209.18 15.33 130.77" style="fill: #fff"/>
          <polygon points="77.08 141.72 53.8 141.72 53.8 130.77 112.72 130.77 112.72 141.72 89.42 141.72 89.42 209.18 77.08 209.18 77.08 141.72" style="fill: #fff"/>
          <g>
            <polygon points="30.21 241.24 24.86 241.24 24.86 238.72 38.42 238.72 38.42 241.24 33.05 241.24 33.05 256.77 30.21 256.77 30.21 241.24" style="fill: #a21521"/>
            <path d="M66.16,256.77H62.79l-3.08-4.39a8.28,8.28,0,0,1-1.3.08H56.62v4.31H53.79V238.72h4.62c5,0,7.7,2.74,7.7,6.9a6.22,6.22,0,0,1-3.61,6ZM58.31,250c3.47,0,4.87-1.64,4.87-4.4s-1.43-4.38-4.87-4.38H56.62V250Z" style="fill: #a21521"/>
            <path d="M67.28,247.74a9.06,9.06,0,0,1,9.21-9.26,8.29,8.29,0,0,1,7.22,3.5l-2.17,1.54A5.83,5.83,0,0,0,76.41,241c-3.59,0-6.19,2.87-6.19,6.69s2.67,6.69,6.29,6.69a6.41,6.41,0,0,0,5.42-2.63l2.21,1.51A8.86,8.86,0,0,1,76.41,257a9,9,0,0,1-9.13-9.27" style="fill: #a21521"/>
            <path d="M111.5,256.77h-3.37L105,252.38a8.1,8.1,0,0,1-1.29.08H102v4.31H99.13V238.72h4.62c5,0,7.71,2.74,7.71,6.9a6.23,6.23,0,0,1-3.62,6ZM103.63,250c3.49,0,4.89-1.64,4.89-4.4s-1.44-4.38-4.89-4.38H102V250Z" style="fill: #a21521"/>
            <path d="M115,256.77h-2.87L120,238.35h.16l7.94,18.43h-3l-1-2.52H116Zm5.1-12.19-3,7.14h6Z" style="fill: #a21521"/>
            <polygon points="97.43 254.25 88.51 254.25 88.51 251.19 96.18 251.19 96.18 248.72 88.51 248.72 88.51 241.24 97.43 241.24 97.43 238.72 85.67 238.72 85.67 256.77 97.43 256.77 97.43 254.25" style="fill: #a21521"/>
            <polygon points="43.04 251.19 50.71 251.19 50.71 248.72 43.04 248.72 43.04 241.24 52.06 241.24 52.06 238.72 40.2 238.72 40.2 256.77 52.07 256.77 52.07 254.25 43.04 254.25 43.04 251.19" style="fill: #a21521"/>
            <polygon points="0 238.73 2.84 238.73 2.84 254.26 11 254.26 11 256.78 0 256.78 0 238.73" style="fill: #a21521"/>
            <path d="M11.82,256.78H9l7.91-18.43H17L25,256.78H22l-1-2.52H12.86Zm5.1-12.19-3,7.14h5.94Z" style="fill: #a21521"/>
          </g>
        </g>
        <path d="M173.44,147.13H148.63V108h24.81V58c0-38.44,18.17-58,54.87-58,21,0,34.94,6.29,45.78,18.87L248.58,50.33c-3.5-4.19-7.69-8-15-8-7.69,0-12.93,4.19-12.93,15V108H260.8v39.14H220.61V256.86H173.44Z" style="fill: #222221"/>
        <path d="M265.36,53.47c0-17.12,14-29.35,30.05-29.35s29.71,12.23,29.71,29.35c0,17.48-13.63,29.7-29.71,29.7S265.36,70.95,265.36,53.47ZM271.65,108h47.18V256.86H271.65Z" style="fill: #222221"/>
        <path d="M328,108h47.18l-1,24.46c9.08-17.82,26.56-27.6,47.17-27.6,32.5,0,55.91,23.76,55.91,66v86H430V174c0-16.78-8-26.21-24.81-26.21-18.87,0-30.05,10.48-30.05,29.35v79.68H328Z" style="fill: #222221"/>
        <path d="M481,185.9c0-45.78,30.75-77.23,66.75-77.23,23.76,0,37,9.43,46.47,24.11V8.38H641.4V260.69H594.22L595.28,239c-8.39,15.72-24.12,24.81-46.83,24.81C512.1,263.83,481,231.68,481,185.9Zm114.63,0c0-22-13.28-35.65-33.55-35.65-19.92,0-32.5,13.63-32.5,35.65,0,23.41,12.58,36.69,32.5,36.69C582.34,222.6,595.62,209.31,595.62,185.9Z" style="fill: #222221"/>
        <path d="M729.31,224.23a64.59,64.59,0,0,0,37.31-12.12l27.09,28.84c-14.25,12.67-32.36,22.22-63.45,22.42-53.12.34-87.57-31.59-87.86-77.37-.29-45.08,35.5-77.46,81.63-77.75,53.46-.34,82.72,39.31,79.55,91.4l-112.87.72C695.35,215.71,708,224.36,729.31,224.23Zm26.58-51.54c-2.2-16.41-12.75-26.13-31.27-26s-31,8.59-34.78,26.42Z" style="fill: #222221"/>
        <path d="M795.28,229.24c0-17.12,13.63-29.35,29.71-29.35A29.53,29.53,0,0,1,825,259C808.9,259,795.28,246.72,795.28,229.24Z" style="fill: #222221"/>
      </g>
    </g>
  </g>
</svg>
