<svg xmlns="http://www.w3.org/2000/svg" viewBox="0 0 884.48 218.71">
  <title>lt-negocios</title>
  <g id="1d2f3153-69c6-4c09-b22b-73da90f88756" data-name="Layer 2">
    <g id="5e98acb7-7d9e-4740-94bc-13cacc201bc7" data-name="Capa 1">
      <g>
        <g>
          <rect y="59.26" width="90.28" height="86.67" style="fill: #a21521"/>
          <polygon points="10.81 75.17 19.51 75.17 19.51 122.71 44.38 122.71 44.38 130.43 10.81 130.43 10.81 75.17" style="fill: #fff"/>
          <polygon points="54.33 82.89 37.92 82.89 37.92 75.17 79.44 75.17 79.44 82.89 63.02 82.89 63.02 130.43 54.33 130.43 54.33 82.89" style="fill: #fff"/>
          <g>
            <polygon points="21.29 153.02 17.52 153.02 17.52 151.25 27.08 151.25 27.08 153.02 23.3 153.02 23.3 163.97 21.29 163.97 21.29 153.02" style="fill: #a21521"/>
            <path d="M46.63,164H44.25l-2.17-3.09a6.67,6.67,0,0,1-.92.06H39.91v3h-2V151.25h3.26c3.5,0,5.43,1.93,5.43,4.86A4.38,4.38,0,0,1,44,160.36Zm-5.53-4.75c2.45,0,3.43-1.16,3.43-3.1s-1-3.09-3.43-3.09H39.91v6.19Z" style="fill: #a21521"/>
            <path d="M47.42,157.61a6.39,6.39,0,0,1,6.49-6.53A5.84,5.84,0,0,1,59,153.55l-1.53,1.09a4.09,4.09,0,0,0-3.61-1.74,4.73,4.73,0,0,0,.07,9.43,4.5,4.5,0,0,0,3.82-1.85l1.55,1.07a6.24,6.24,0,0,1-5.44,2.6,6.34,6.34,0,0,1-6.44-6.53" style="fill: #a21521"/>
            <path d="M78.59,164H76.21L74,160.88a6.54,6.54,0,0,1-.91.06H71.88v3h-2V151.25h3.26c3.5,0,5.43,1.93,5.43,4.86A4.38,4.38,0,0,1,76,160.36ZM73,159.22c2.46,0,3.45-1.16,3.45-3.1S75.47,153,73,153H71.88v6.19Z" style="fill: #a21521"/>
            <path d="M81,164H79l5.58-13h.11l5.6,13H88.17l-.73-1.78H81.75Zm3.59-8.59-2.12,5h4.2Z" style="fill: #a21521"/>
            <polygon points="68.67 162.19 62.38 162.19 62.38 160.04 67.79 160.04 67.79 158.3 62.38 158.3 62.38 153.02 68.67 153.02 68.67 151.25 60.39 151.25 60.39 163.97 68.67 163.97 68.67 162.19" style="fill: #a21521"/>
            <polygon points="30.33 160.04 35.74 160.04 35.74 158.3 30.33 158.3 30.33 153.02 36.69 153.02 36.69 151.25 28.33 151.25 28.33 163.97 36.7 163.97 36.7 162.19 30.33 162.19 30.33 160.04" style="fill: #a21521"/>
            <polygon points="0 151.25 2 151.25 2 162.2 7.75 162.2 7.75 163.98 0 163.98 0 151.25" style="fill: #a21521"/>
            <path d="M8.33,164h-2l5.57-13H12l5.59,13H15.48l-.72-1.78H9.06Zm3.59-8.59-2.11,5H14Z" style="fill: #a21521"/>
          </g>
        </g>
        <g>
          <path d="M104.71,59.11H138l-.74,17.24c6.41-12.56,18.72-19.46,33.25-19.46,22.91,0,39.41,16.75,39.41,46.55V164H176.63V105.66c0-11.82-5.67-18.47-17.49-18.47-13.3,0-21.18,7.39-21.18,20.69V164H104.71Z" style="fill: #222221"/>
          <path d="M274.17,138.66a45.55,45.55,0,0,0,26.35-8.37l19,20.44c-10.1,8.87-22.9,15.52-44.83,15.52-37.43,0-61.57-22.66-61.57-54.92,0-31.77,25.37-54.43,57.88-54.43,37.68,0,58.12,28.08,55.66,64.78H247.08C250.27,132.5,259.14,138.66,274.17,138.66Zm19-36.2C291.65,90.88,284.26,84,271.21,84s-21.92,5.91-24.63,18.47Z" style="fill: #222221"/>
          <path d="M431.55,58.86V82.51H416a23,23,0,0,1,3.7,12.81c0,22.41-17.25,38.92-44.09,38.92-8.37,0-15.52-1.23-21.43-4.19a8.16,8.16,0,0,0-2.71,6.4c0,4.93,3.2,8.13,10.83,8.37l25.87,1.23c28.56,1.48,44.82,13.3,44.82,33.74,0,22.17-16.26,38.91-57.88,38.91-37.68,0-56.4-14.53-56.4-34.48,0-11.33,7.39-18.72,19.21-23.15-8.62-4.68-12.56-11.58-12.56-21.18,0-9.36,5.18-16.5,14.53-20.69a35,35,0,0,1-9.36-23.89c0-22.41,18.22-38.42,45.07-38.42a60.79,60.79,0,0,1,15.52,2ZM351,180c0,8.37,5.91,13.79,24.14,13.79,19.46,0,23.9-5.17,23.9-11.58,0-5.91-3.95-7.88-17.49-8.62L354,171.91A11.82,11.82,0,0,0,351,180Zm39.65-84.73c0-8.37-5.42-14-15.52-14s-15.51,5.67-15.51,14c0,8.87,5.42,14.78,15.51,14.78S390.66,104.18,390.66,95.31Z" style="fill: #222221"/>
          <path d="M424.9,111.82c0-32,25.37-54.92,57.88-54.92s57.63,22.91,57.63,54.92c0,31.77-25.12,54.43-57.63,54.43S424.9,143.59,424.9,111.82Zm81.52,0c0-15.76-8.87-26.35-23.65-26.35s-23.89,10.59-23.89,26.35c0,15.52,9.11,26.35,23.89,26.35S506.42,127.33,506.42,111.82Z" style="fill: #222221"/>
          <path d="M540.66,111.32c0-31.77,24.63-54.43,57.38-54.43,20.94,0,33.5,7.63,44.09,20.93L618.49,97C614.55,90.64,606.42,86,598,86c-15,0-23.4,10.59-23.4,25.37,0,15.27,8.38,26.11,23.4,26.11,10.59,0,16.26-4.93,21.19-9.85l22.41,19.7c-10.34,11.58-22.66,19-43.6,19C565.28,166.25,540.66,143.59,540.66,111.32Z" style="fill: #222221"/>
          <path d="M640.16,20.69C640.16,8.62,650,0,661.34,0s20.93,8.62,20.93,20.69a20.61,20.61,0,0,1-20.93,20.94C650,41.62,640.16,33,640.16,20.69Zm4.43,38.42h33.25V164H644.59Z" style="fill: #222221"/>
          <path d="M683,111.82c0-32,25.37-54.92,57.88-54.92s57.63,22.91,57.63,54.92c0,31.77-25.12,54.43-57.63,54.43S683,143.59,683,111.82Zm81.53,0c0-15.76-8.86-26.35-23.64-26.35S717,96.05,717,111.82c0,15.52,9.11,26.35,23.89,26.35S764.54,127.33,764.54,111.82Z" style="fill: #222221"/>
          <path d="M793.6,146.3l19.46-17.24c7.14,6.9,16.25,11.08,26.1,11.08,10.83,0,14.28-2,14.28-6.4,0-5.67-6.65-5.67-23.64-10.1-14.29-3.69-30.3-11.58-30.3-33.49,0-23.65,18.22-33.25,40.64-33.25,17.24,0,29.55,5.66,38.17,14.53l-17.74,19c-4.92-4.19-12.31-7.88-20.2-7.88-7.63,0-11.33,2-11.33,6.16,0,5.91,6.65,6.65,20.93,9.85,15.27,3.45,34.48,10.59,34.48,32.76,0,19.21-10.09,35-43.1,35C817,166.25,802.72,157.13,793.6,146.3Z" style="fill: #222221"/>
        </g>
      </g>
    </g>
  </g>
</svg>
