<svg xmlns="http://www.w3.org/2000/svg" viewBox="0 0 483.4 78.7">
  <defs>
    <style>
      .a {
        fill: #fff;
      }

      .b {
        fill: #c6232c;
      }
    </style>
  </defs>
  <title>lt-pulso-trader</title>
  <g>
    <g>
      <path class="a" d="M122.9,4.5H92.3V8.7h33.8A13.4,13.4,0,0,0,122.9,4.5Z"/>
      <path class="a" d="M126.9,38.1H92.3v4.2H125A11.5,11.5,0,0,0,126.9,38.1Z"/>
      <rect class="a" x="92.3" y="14.1" width="12.7" height="4.2"/>
      <rect class="a" x="92.3" y="33.3" width="12.7" height="4.2"/>
      <path class="a" d="M110.5.7H92.3V3.8h29.8C119.3,1.9,115.5.7,110.5.7Z"/>
      <path class="a" d="M114.9,33.3c0,2.5-1.1,3.8-3.1,4.2h15.3a18.6,18.6,0,0,0,.5-4.2Z"/>
      <path class="a" d="M104.9,11.5h5.5c1.9,0,3.2.7,3.8,2h13.1a14.4,14.4,0,0,0-1.1-4.2h-34v4.2h12.7Z"/>
      <rect class="a" x="114.9" y="23.7" width="12.7" height="4.2"/>
      <rect class="a" x="92.3" y="23.7" width="12.7" height="4.2"/>
      <rect class="a" x="92.3" y="18.9" width="12.7" height="4.2"/>
      <rect class="a" x="92.3" y="28.5" width="12.7" height="4.2"/>
      <rect class="a" x="92.3" y="62.1" width="12.7" height="4.2"/>
      <rect class="a" x="92.3" y="66.9" width="12.7" height="4.2"/>
      <rect class="a" x="92.3" y="71.8" width="12.7" height="4.2"/>
      <rect class="a" x="114.9" y="18.9" width="12.7" height="4.2"/>
      <path class="a" d="M124.6,42.9H92.3v4.2h26.4A12.3,12.3,0,0,0,124.6,42.9Z"/>
      <rect class="a" x="92.3" y="76.6" width="12.7" height="1.3"/>
      <rect class="a" x="92.3" y="52.5" width="12.7" height="4.2"/>
      <rect class="a" x="114.9" y="28.5" width="12.7" height="4.2"/>
      <path class="a" d="M104.9,48.5h5.5a28.8,28.8,0,0,0,6.3-.7H92.3V52H105V48.5Z"/>
      <path class="a" d="M127.5,16a12.1,12.1,0,0,0-.1-1.9H114.5a5.4,5.4,0,0,1,.3,1.9v2.4h12.7Z"/>
      <rect class="a" x="92.3" y="57.3" width="12.7" height="4.2"/>
      <rect class="a" x="132.5" y="57.3" width="12.7" height="4.2"/>
      <rect class="a" x="155.4" y="28.5" width="12.7" height="4.2"/>
      <rect class="a" x="132.5" y="42.9" width="12.7" height="4.2"/>
      <rect class="a" x="132.5" y="47.7" width="12.7" height="4.2"/>
      <rect class="a" x="132.5" y="52.5" width="12.7" height="4.2"/>
      <path class="a" d="M145.2,63v-.9H132.5V63a18.7,18.7,0,0,0,.3,3.4h13.8A4.3,4.3,0,0,1,145.2,63Z"/>
      <path class="a" d="M167.7,66.9H153a7.1,7.1,0,0,1-2.6.5,7.6,7.6,0,0,1-2.7-.5H133a15.2,15.2,0,0,0,1.6,4.2H166A13.2,13.2,0,0,0,167.7,66.9Z"/>
      <rect class="a" x="155.4" y="33.3" width="12.7" height="4.2"/>
      <rect class="a" x="155.4" y="4.5" width="12.7" height="4.2"/>
      <rect class="a" x="132.5" y="38.1" width="12.7" height="4.2"/>
      <rect class="a" x="132.5" y="4.5" width="12.7" height="4.2"/>
      <rect class="a" x="155.4" y="38.1" width="12.7" height="4.2"/>
      <rect class="a" x="155.4" y="9.3" width="12.7" height="4.2"/>
      <rect class="a" x="132.5" y="33.3" width="12.7" height="4.2"/>
      <path class="a" d="M168.1,62.1H155.4V63a4.3,4.3,0,0,1-1.4,3.4h13.8a18.7,18.7,0,0,0,.3-3.4v-.9Z"/>
      <rect class="a" x="155.4" y="42.9" width="12.7" height="4.2"/>
      <rect class="a" x="155.4" y="0.7" width="12.7" height="3.1"/>
      <rect class="a" x="132.5" y="9.3" width="12.7" height="4.2"/>
      <rect class="a" x="155.4" y="18.9" width="12.7" height="4.2"/>
      <rect class="a" x="132.5" y="14.1" width="12.7" height="4.2"/>
      <rect class="a" x="155.4" y="23.7" width="12.7" height="4.2"/>
      <path class="a" d="M150.3,78.5a21.5,21.5,0,0,0,9.7-2H140.5A22.2,22.2,0,0,0,150.3,78.5Z"/>
      <rect class="a" x="155.4" y="14.1" width="12.7" height="4.2"/>
      <rect class="a" x="155.4" y="52.5" width="12.7" height="4.2"/>
      <rect class="a" x="155.4" y="47.7" width="12.7" height="4.2"/>
      <rect class="a" x="132.5" y="0.7" width="12.7" height="3.1"/>
      <rect class="a" x="132.5" y="28.5" width="12.7" height="4.2"/>
      <path class="a" d="M165.7,71.8H135a13,13,0,0,0,4.5,4.2h21.8A14.7,14.7,0,0,0,165.7,71.8Z"/>
      <rect class="a" x="132.5" y="18.9" width="12.7" height="4.2"/>
      <rect class="a" x="155.4" y="57.3" width="12.7" height="4.2"/>
      <rect class="a" x="132.5" y="23.7" width="12.7" height="4.2"/>
      <rect class="a" x="175.9" y="23.7" width="12.7" height="4.2"/>
      <rect class="a" x="175.9" y="76.6" width="29.6" height="1.3"/>
      <rect class="a" x="175.9" y="57.3" width="12.7" height="4.2"/>
      <rect class="a" x="175.9" y="42.9" width="12.7" height="4.2"/>
      <rect class="a" x="175.9" y="47.7" width="12.7" height="4.2"/>
      <rect class="a" x="175.9" y="14.1" width="12.7" height="4.2"/>
      <polygon class="a" points="188.6 67.2 188.6 66.9 175.9 66.9 175.9 71.2 205.5 71.2 205.5 67.2 188.6 67.2"/>
      <rect class="a" x="175.9" y="52.5" width="12.7" height="4.2"/>
      <rect class="a" x="175.9" y="18.9" width="12.7" height="4.2"/>
      <rect class="a" x="175.9" y="71.8" width="29.6" height="4.2"/>
      <rect class="a" x="175.9" y="33.3" width="12.7" height="4.2"/>
      <rect class="a" x="175.9" y="4.5" width="12.7" height="4.2"/>
      <rect class="a" x="175.9" y="0.7" width="12.7" height="3.1"/>
      <rect class="a" x="175.9" y="28.5" width="12.7" height="4.2"/>
      <rect class="a" x="175.9" y="62.1" width="12.7" height="4.2"/>
      <rect class="a" x="175.9" y="38.1" width="12.7" height="4.2"/>
      <rect class="a" x="175.9" y="9.3" width="12.7" height="4.2"/>
      <path class="a" d="M207.7,63a18.7,18.7,0,0,0,.3,3.4h13.7a3.8,3.8,0,0,1-1.5-3.4v-.9H207.7Z"/>
      <path class="a" d="M225.6,67.4a8.2,8.2,0,0,1-2.8-.5H208.1a15.2,15.2,0,0,0,1.6,4.2h31.6a15.2,15.2,0,0,0,1.6-4.2H228.2A5.3,5.3,0,0,1,225.6,67.4Z"/>
      <rect class="a" x="208.1" y="18.9" width="12.7" height="4.2"/>
      <path class="a" d="M213,37.5h20.4l-5.6-4.2H210.3A21.7,21.7,0,0,0,213,37.5Z"/>
      <rect class="a" x="207.7" y="57.3" width="12.5" height="4.2"/>
      <rect class="a" x="230.7" y="57.3" width="12.7" height="4.2"/>
      <path class="a" d="M208.1,18.3h12.7V15.1a3.4,3.4,0,0,1,.1-1H208.1v4.2Z"/>
      <path class="a" d="M243.3,62.1H230.6v1.4a3.4,3.4,0,0,1-1.3,2.8H243a15.3,15.3,0,0,0,.3-3Z"/>
      <path class="a" d="M224.6,47.1h16.9a24.5,24.5,0,0,0-2.5-4.2H219C220.8,44.4,222.8,45.8,224.6,47.1Z"/>
      <path class="a" d="M208.1,13.5H221c.6-1.5,2.2-2.3,4.5-2.3a4.9,4.9,0,0,1,4.6,2.3h12.7a18.4,18.4,0,0,0-1-4.2H209A25.9,25.9,0,0,0,208.1,13.5Z"/>
      <rect class="a" x="207.7" y="52.5" width="12.5" height="4.2"/>
      <path class="a" d="M241,71.8H210.1a13.6,13.6,0,0,0,4.4,4.2h21.9A13.4,13.4,0,0,0,241,71.8Z"/>
      <path class="a" d="M225.6.1c-5.7,0-9.9,1.4-12.8,3.8H238C235.1,1.5,231,.1,225.6.1Z"/>
      <path class="a" d="M210,32.7h17a22.1,22.1,0,0,1-4.4-4.2h-14A18.8,18.8,0,0,0,210,32.7Z"/>
      <rect class="a" x="207.7" y="50.3" width="12.5" height="1.6"/>
      <path class="a" d="M218.1,42.3h20.3a28.3,28.3,0,0,0-4.3-4.2H213.5A35.7,35.7,0,0,0,218.1,42.3Z"/>
      <path class="a" d="M241.6,8.7a13.7,13.7,0,0,0-2.9-4.2H212.1a13.7,13.7,0,0,0-2.9,4.2Z"/>
      <path class="a" d="M230.7,56.7h12.7v-.4a23.8,23.8,0,0,0-.3-3.9H229.6A9.5,9.5,0,0,1,230.7,56.7Z"/>
      <rect class="a" x="230.7" y="18.9" width="12.3" height="4.2"/>
      <path class="a" d="M225.4,78.5a22.8,22.8,0,0,0,10-2H215.8A20.7,20.7,0,0,0,225.4,78.5Z"/>
      <rect class="a" x="230.7" y="23.7" width="12.3" height="4.2"/>
      <path class="a" d="M208.1,23.7a27.2,27.2,0,0,0,.4,4.2h13.7a8.7,8.7,0,0,1-1.4-4.2Z"/>
      <path class="a" d="M230.7,15.6v2.7H243V15.6a7.6,7.6,0,0,0-.1-1.5H230.4A4,4,0,0,1,230.7,15.6Z"/>
      <path class="a" d="M229.3,51.9H243a25.8,25.8,0,0,0-1.2-4.2H225.4A21.9,21.9,0,0,1,229.3,51.9Z"/>
      <rect class="a" x="271.8" y="52.5" width="12.7" height="4.2"/>
      <path class="a" d="M266.6.1C261.2.1,257,1.5,254,3.9h25.2C276.3,1.5,272.1.1,266.6.1Z"/>
      <rect class="a" x="271.8" y="47.7" width="12.7" height="4.2"/>
      <path class="a" d="M271.8,63a4.1,4.1,0,0,1-1.6,3.4h14a18.7,18.7,0,0,0,.3-3.4v-.9H271.8V63Z"/>
      <rect class="a" x="271.8" y="42.9" width="12.7" height="4.2"/>
      <path class="a" d="M255.7,76h21.8a13,13,0,0,0,4.5-4.2H251.3A14.7,14.7,0,0,0,255.7,76Z"/>
      <path class="a" d="M266.6,78.5a21.9,21.9,0,0,0,9.8-2H256.9A21.5,21.5,0,0,0,266.6,78.5Z"/>
      <path class="a" d="M266.6,67.4a6.6,6.6,0,0,1-2.5-.5H249.3a15.2,15.2,0,0,0,1.6,4.2h31.5a12.6,12.6,0,0,0,1.6-4.2H269.1A4.9,4.9,0,0,1,266.6,67.4Z"/>
      <rect class="a" x="271.8" y="38.1" width="12.7" height="4.2"/>
      <rect class="a" x="271.8" y="57.3" width="12.7" height="4.2"/>
      <path class="a" d="M249,13.5h13a4.9,4.9,0,0,1,4.6-2.3c2.2,0,3.9.8,4.7,2.3h13.1a18.4,18.4,0,0,0-1-4.2H250A18.4,18.4,0,0,0,249,13.5Z"/>
      <path class="a" d="M253.3,4.5a12.5,12.5,0,0,0-3,4.2H283a12.5,12.5,0,0,0-3-4.2Z"/>
      <path class="a" d="M248.9,63a18.7,18.7,0,0,0,.3,3.4h13.9a4.1,4.1,0,0,1-1.6-3.4v-.9H248.8V63Z"/>
      <path class="a" d="M271.8,15.6v2.7h12.7V15.6a7.6,7.6,0,0,0-.1-1.5H271.5A4,4,0,0,1,271.8,15.6Z"/>
      <rect class="a" x="271.8" y="28.5" width="12.7" height="4.2"/>
      <rect class="a" x="271.8" y="23.7" width="12.7" height="4.2"/>
      <rect class="a" x="271.8" y="18.9" width="12.7" height="4.2"/>
      <rect class="a" x="271.8" y="33.3" width="12.7" height="4.2"/>
      <rect class="a" x="248.9" y="42.9" width="12.7" height="4.2"/>
      <rect class="a" x="248.9" y="18.9" width="12.7" height="4.2"/>
      <rect class="a" x="248.9" y="38.1" width="12.7" height="4.2"/>
      <rect class="a" x="248.9" y="33.3" width="12.7" height="4.2"/>
      <rect class="a" x="248.9" y="47.7" width="12.7" height="4.2"/>
      <rect class="a" x="248.9" y="28.5" width="12.7" height="4.2"/>
      <rect class="a" x="248.9" y="52.5" width="12.7" height="4.2"/>
      <rect class="a" x="248.9" y="57.3" width="12.7" height="4.2"/>
      <rect class="a" x="248.9" y="23.7" width="12.7" height="4.2"/>
      <path class="a" d="M248.9,18.3h12.7V15.6a3.3,3.3,0,0,1,.3-1.5H249c0,.5-.1,1-.1,1.5Z"/>
      <path class="a" d="M104.9,37.5h6.9"/>
      <path class="a" d="M221.7,66.4l1.1.6"/>
      <path class="a" d="M228.3,66.9l1.1-.6"/>
    </g>
    <g>
      <path class="a" d="M289.3.5V2.8h13.9V78.6h3.2V2.8h14V0H289.3Z"/>
      <path class="a" d="M348.5,51.6a10.6,10.6,0,0,0-2.7-3.6,8.1,8.1,0,0,0,3.4-3.2,21.6,21.6,0,0,0,2.4-8.2c.4-4,.4-8,.4-12V19.8c0-3.9,0-7.9-1.1-11.8a10.2,10.2,0,0,0-3.5-5.6A12.3,12.3,0,0,0,339.6.1H328V78.7h3.2V49.1h10.7c1.9.1,3.1,2.1,3.8,3.6a35.5,35.5,0,0,1,2.1,9.6l2.1,16.3h3.2L351,62.1C350.5,58.6,350,54.9,348.5,51.6ZM331.1,2.8h8.3a9,9,0,0,1,5.5,1.5,7.9,7.9,0,0,1,2.7,4,28.5,28.5,0,0,1,1.1,7.6c.1,2.5.1,5.1.1,7.6v4.1a64.7,64.7,0,0,1-.8,11.6,11.7,11.7,0,0,1-2.4,5.6,5.5,5.5,0,0,1-3.9,1.5H331.2V2.8Z"/>
      <path class="a" d="M377.4.4V0h-6V.4L359.9,78v.6h3.3l2.7-19H383l2.7,19H389V78Q383.1,39.3,377.4.4Zm-2.7,2.4,7.7,54.1H366.2c2.1-14.9,4.3-29.8,6.4-44.7l1.3-9.4Z"/>
      <path class="a" d="M421,22.7a73.9,73.9,0,0,0-.6-11.5c-.7-4-1.9-6.7-3.9-8.6S410.7,0,408.3,0H396.4V78.6H409a10.6,10.6,0,0,0,8.5-3.7c2.5-3.3,3.1-7.5,3.4-11.3s.2-7.2.2-10.7C421,51.5,421,23.6,421,22.7Zm-3.2,9.9V60.1a43.5,43.5,0,0,1-.7,8.8c-.6,2.4-1.5,4.2-2.9,5.2a8.4,8.4,0,0,1-5.5,1.6h-9.1V2.6h9.2a7.8,7.8,0,0,1,5.6,2c1.4,1.3,2.3,3.3,2.8,6.2a53.2,53.2,0,0,1,.5,8.9Z"/>
      <path class="a" d="M430.4,78.6h20.5V75.8H433.6V40.7h16.2V37.9H433.6V2.8h17.3V0H430.4Z"/>
      <path class="a" d="M481.4,61.9a41.3,41.3,0,0,0-1.5-7.8,12.5,12.5,0,0,0-3.7-6.1,8.6,8.6,0,0,0,2.6-2c1.8-2.2,2.5-5.1,2.9-7.7a97.2,97.2,0,0,0,.6-13.2V20a53.5,53.5,0,0,0-.7-10.5c-.7-3.2-1.8-5.5-3.6-7A11.8,11.8,0,0,0,470.2,0H458.3V78.6h3.2V49h10.3a3.6,3.6,0,0,1,2.3.8,8.9,8.9,0,0,1,2.2,3.5,41.5,41.5,0,0,1,1.8,8.5l2.1,16.8h3.2Zm-2.2-35.5a76.7,76.7,0,0,1-.7,12.6c-.5,2.3-1.1,4.6-2.8,6a6.6,6.6,0,0,1-4.2,1.2h-9.8V2.8h8.8a8.1,8.1,0,0,1,5.9,2.3c1.7,1.9,2.3,4.6,2.6,6.7a73.9,73.9,0,0,1,.4,9.4v2.6A11.8,11.8,0,0,0,479.2,26.4Z"/>
    </g>
    <rect class="b" y="0.7" width="80.6" height="77.1"/>
    <polygon class="a" points="9.8 14.8 17.6 14.8 17.6 57 39.7 57 39.7 63.9 9.8 63.9 9.8 14.8"/>
    <polygon class="a" points="48.5 21.6 33.9 21.6 33.9 14.8 70.8 14.8 70.8 21.6 56.2 21.6 56.2 63.9 48.5 63.9 48.5 21.6"/>
  </g>
</svg>
