<svg xmlns="http://www.w3.org/2000/svg" viewBox="0 0 619.49 122.38">
  <title>mouse</title>
  <g id="aa0c51b3-7f80-4bc2-90de-26246b953fb1" data-name="Layer 2">
    <g id="a4af4bad-1b29-45b5-a11e-887e2f194d12" data-name="Capa 1">
      <g>
        <path d="M606.19,122.25c5.15,1-4.78-4.29-2.57-5.55,6-1.25.5-5.27-.46-7.15.56-1.88,6.62-2.52-.62-4.42,1.42-1.88,5.47-1.57,2.49-2.83-5.67-1.26.95-2.05.67-2.44a5.57,5.57,0,0,0-2.5-1.22c-.64,0-11.08-2.72-32.15-2.72-7.47,0-37.22,19.61-22.74,19.61C562.44,115.55,606.18,122.24,606.19,122.25Z" style="fill: #da0002"/>
        <path d="M273.74,58c2.84-19-5.55-32.41-20.06-35.66-19.11,3.81-29.23,21.3-31.5,36.48C219.76,75,226.3,90.56,242.49,94.16,258.42,90.85,270.88,77.17,273.74,58Z" style="fill: none"/>
        <path d="M261.54,21.59a39.88,39.88,0,0,0-7.86.77,27.9,27.9,0,0,1,4.16,1.28,25.57,25.57,0,0,1,3.77,1.86c0,.71,3,1.52,3.34,2.42-.43.89-1.65,1.87,2.88,2.94,2.55,1.07,4.56,2.22,2.39,3.44,4.38,1.23,2.76,2.54,1.87,3.92-5.36,1.38,5.14,2.83,1.32,4.35-1.73,1.52.24,3.12.74,4.78,2.42,1.66-2.65,3.38.12,5.16-1.1,1.78-5,3.63-.52,5.52,0,1.74-2.89,3.44-1,5.08.31,1.65-3.62,3.25-1.46,4.79-.76,1.54,2.53,3-1.88,4.47-6.1,1.43-6.41,2.82-2.28,4.14-2.24,1.32-.83,2.58-2.64,3.78-2.38,1.2,1.46,2.33-3,3.4-.08,1.07-2,2.07-3.29,3a37.39,37.39,0,0,1-3.57,2.57,36.47,36.47,0,0,1-12.14,4.92,34.39,34.39,0,0,0,7.42.78c19.45,0,35.51-14.84,38.82-36.92C292,36.1,280.33,21.59,261.54,21.59Z" style="fill: #66b1f2"/>
        <path d="M195.06,58.35c3.74-25,25.36-54.39,60.9-58Q252.3,0,248.3,0a70.38,70.38,0,0,0-15.79,1.75q-2.47.56-4.84,1.3c-1.21.49-8,1-4.63,1.63,2.58.59-.14,1.24-4.41,1.92-4.69.69-1.86,1.42-4.19,2.2-7.74.78-1.06,1.6-4,2.46.34.86-2.9,1.76-3.75,2.7.11.93-1.51,1.91-3.52,2.91-3.09,1-5.76,2-3.29,3.1C201,21,197,22.12,196.86,23.23c-2.37,1.12-.53,2.25-2.82,3.41-3.06,1.16-1,2.34-2.58,3.53.4,1.2-.28,2.41-2.33,3.64,2,1.22,1.64,2.46-2.09,3.71-4.87,1.25-.57,2.51-1.84,3.78.53,0-5.94.54-.22,1.48-2.76.94-.63,2.28-4.67,3.9,5.49,1.61,2.83,3.49,1.9,5.51-7,2,7.31,4.17.42,6.32-1.87.72-2.13,1.43-1.8,2.15-1.4.71,1.69,1.42,1.73,2.11-1.51.7-.51,1.38-.87,2.06-.63,1,3.77,2,1.2,2.91,2.2.92-1.45,1.8-2,2.6-.2.81,2.47,1.54,0,2.2-.11.66,2.25,1.22-.6,1.7,1.84.47-1.74.84-1.08,1.09-1.52.25-2.12.39.86.39.24.74-4.36,1.47.25,2.2-.89.73,1.68,1.45.61,2.17-2.61.72-2.27,1.44-.17,2.15-1.1.71,1,1.42,1.38,2.12a1.8,1.8,0,0,1,.64,2.08,1.71,1.71,0,0,0,.93,2c1.38,1.35,6.74,2.67,1.94,4-4.29,1.29,2.48,2.55,2.31,3.76s.72,2.4,2.68,3.54c6.72,1.14,9.45,2.24,3.06,3.29,2.38,1,7.17,2.05,3.44,3-.58,1,2.24,1.86,3.82,2.7-2.9.85,5.66,1.64,4.21,2.37,3.18.73,3.31,1.39,4.6,2q2.4.9,5,1.6a66.68,66.68,0,0,0,17.38,2.16c2.58,0,5.09-.13,7.53-.37C204.93,113,191.09,84.88,195.06,58.35Z" style="fill: #66b1f2"/>
        <path d="M328.84,96.59c-3-5.44-5.34-15-3.34-28.35l10-66.92h-15c.54,0,.52.56-.23,1.54,1.6,1-2.55,2.38-.61,4.06-.41,1.69-1.13,3.64-.86,5.75-4.91,2.11-.78,4.35-1,6.59-3.5,2.24-2.6,4.49-1,6.59,2.87,2.1-3.42,4.07-.86,5.75-1.36,1.69,1.3,3.08-.61,4.07,2.83,1,4.81,1.54-.23,1.54-.44,1.38,6.95,2.78.29,4.19.61,1.4.92,2.81-.73,4.22-2.83,1.41-2.42,2.82-1.27,4.22s.38,2.81-1.35,4.2c4.86,1.39-1.83,2.77-1,4.14,5.17,1.28-3.37,2.55-.21,3.85-2.86,1.29,1.58,2.58.22,3.88-.77,1.3-1.13,2.61.18,3.91,4,1.3-6.22,2.6-.3,3.9-4.5,1.3-.51,2.59-1.25,3.87-2,1.71.75,3.33.2,4.87-4.86,1.53,3.27,3,.58,4.34,1,1.36-1.83,2.63.89,3.81-2.25,1.17.23,2.27,1.12,3.26-3.29,1,2.15,1.91,1.28,2.72,0,1.71-.52,3.27,3,4.7,5,1.44,1.11,2.74,3.47,3.92,5,1.18-.3,2.25,3.87,3.21,3.81,1,4.4,1.81,4.18,2.56,1.63.75,3.37,1.41,4.41,2,1.5.58,3,1.07,4.54,1.49,7.62,2.1,15.42,2.41,21.49,2.41q3.45,0,6.88-.25C352.82,115.72,336.9,111.91,328.84,96.59Z" style="fill: #66b1f2"/>
        <path d="M400.11,84.06c6-7.25,8-20.27,8.54-24.06l8.78-58.68h-15c-1,0,1.07.35-.15,1-2.55.64-.65,1.58-.41,2.75-.89,1.18-2.72,2.59-.63,4.19-3,1.6-1.28,3.39-.79,5.31-1.27,1.92,1.31,4-.91,6.12,3.36,2.13.42,4.35-1,6.6,1.23,2.24-2.8,4.51-1,6.75-1.84,2.24,2.53,4.46-1,6.6-1.6,2.13.16,4.19-.92,6.11s.93,3.71-.79,5.32c-1,1.6-.11,3-.63,4.19,4.63,1.18-3.86,2.11-.41,2.75,2.78.64-.3,1-.15,1-.52.63.65,1.52-.41,2.59,2.45,1.08.09,2.34-.72,3.72-5.72,1.38.26,2.88-1.1,4.42.38,1.55,3.23,3.14-1.55,4.71-.5,1.57-2.71,3.12-2.08,4.58-4.06,1.46-4,2.83-2.69,4-3.53,1.16-.48,2.21-3,3.18-3.07,1-2.18,1.83-3.34,2.61a34,34,0,0,1-10.82,4.77,28.46,28.46,0,0,0,7.37,1C382.72,95.6,393.25,92.46,400.11,84.06Z" style="fill: #66b1f2"/>
        <path d="M492.26,21.62a41.6,41.6,0,0,1,14.39,7.06l1-6.95a30.82,30.82,0,0,0-8.08-1.13A24.74,24.74,0,0,0,492.26,21.62Z" style="fill: #66b1f2"/>
        <path d="M446.43,94a40.6,40.6,0,0,1-7.35-3.62,28.5,28.5,0,0,0-3.33-2.29c-1.07-.81-2.08-1.66-3-2.53,0,0-.1.7-.28,1.88a4.82,4.82,0,0,1-.7,4.7c-1,1.88,1.14,4-.91,6.11s-2.22,4.23-.91,6.11c1.59,1.88-7,3.53-.71,4.7-2.16,1.17-1.67,1.88-.28,1.88,0,.64,4.23,1.21,5,1.73-.7.52,3.9,1,4.5,1.4,1.43.41,2.78.77,4.09,1.08a59.48,59.48,0,0,0,14.36,1.73,57.71,57.71,0,0,0,7.37-.48c-5.69-.74-11.83-2.39-20.34-5.46Z" style="fill: #66b1f2"/>
        <path d="M490.87,83.4c.49-3.3.29-7.42-7.43-12-15.57-9.4-17.68-10.71-22.28-16.32a25.25,25.25,0,0,1-5.77-20.93C458,16.48,473.78,3.18,491.66.5a69.53,69.53,0,0,0-8.41-.5,45.62,45.62,0,0,0-18.14,3.81q-2.12.92-4.12,2c-2.66.75-.5,1.56-3.88,2.43a8,8,0,0,1-3.59,2.79c-.73,1-3,2-3.26,3.13s-6.57,2.25-2.89,3.45c-2.67,1.2-2.64,2.45-2.47,3.74-9.37,1.29-.88,2.63-2,4-3.64,1.38-6.54,2.79-1.51,4.25.87,1.45,2.75,2.94-1,4.46,2.92,1.48-1.91,2.95-.35,4.39,1.36,1.45-3.48,2.88.33,4.28-2,1.41,1.09,2.8,1.08,4.18,2.65,1.38-2.11,2.74,1.91,4.09-1.42,1.34.73,2.67,2.8,4,3.85.93,5.74,1.75,2.17,2.5,1.41.75-1.36,1.45,2.2,2.13,2,.69-.29,1.37,2.66,2.11.87.73-2.7,1.52,3.58,2.42a11.5,11.5,0,0,1,4.94,3.08c2.26,1.18.92,2.52,6.74,4.08-1.15,1.15,4.67,2.28,4.49,3.36-1.91,1.08,4.89,2.14,2.31,3.15.47,1-3.68,2,.77,2.9-1.13.92-3.89,1.8-.13,2.62,3.47.93,5.3,2-.93,3.07-.13,1.09,1.12,2.22-2,3.3,2.27,1.08.29,2.12-3.31,3a17.76,17.76,0,0,1-4.72,2.27,31.14,31.14,0,0,0,7.79,1C485.18,96.09,490.15,88.18,490.87,83.4Z" style="fill: #66b1f2"/>
        <path d="M531.68,1.32l-.09.58c-.06.38-.14.94-.25,1.67.58.73,2.08,1.62-.4,2.66-1.62,1,1.52,2.23-.53,3.55,3.34,1.32,3,2.78-.65,4.35-1.63,1.57,6.77,3.26-.75,5-1.93,1.79-5,3.67-.84,5.64-.17,2-3,4-.92,6.13a3,3,0,0,1,.27,3.22c-.42,1.09,0,2.19-1.25,3.31a36.16,36.16,0,0,1-1,6.39c-2.9,2.17,4.8,4.36-1,6.58,1.89,2.21-.23,4.43-1,6.67.69,2.23-3.23,4.46-1,6.69.89,2.22-1.93,4.43-1,6.62-3.71,2.19-4.16,4.35-1,6.47,2.86,2.13,3.83,4.21-.93,6.25,2.71,2-4.22,4-.89,5.93,2.44,1.92-1.06,3.77-.83,5.54,2.68,1.77,1.74,3.46-.76,5.07-3.49,1.6-3.16,3.11-.67,4.51-.46,1.4-2.17,2.7-.58,3.87,1.36,1.17-1.22,2.23-.47,3.16-2.64.92-4,1.71-.35,2.36,3,.64.27,1.13-.22,1.47-.73.33,3.07.51-.08.51h15L546.67,1.32Z" style="fill: #66b1f2"/>
        <path d="M140.59,63l-.18,1.22a7.82,7.82,0,0,1-.5,3.35c-1,1.42-2,3.12-.75,5a15.05,15.05,0,0,1-.54,3,10.56,10.56,0,0,0-.38,3.22c-3,.74.72,1.49,0,2.25a6.68,6.68,0,0,1,.76,2.31c0,.78-.42,1.56-1.82,2.35-.34,2.37,1.38,4.77-1.07,7.14-4.08,2.37,1.38,4.7-1,6.9-3.26,2.21,2.95,4.3-.92,6.19-8.33,1.89,2.92,3.59-.75,5,.12,1.42-1.09,2.57-.5,3.35,1.63.79,1.59,1.22-.18,1.22h15L158.4,44.17Z" style="fill: #66b1f2"/>
        <path d="M167.61,1.32h-15c.69,0-.06.47-1.21,1.29-.62.4-.63.89-1.37,1.45-2.81.56-3.74,1.18-1.76,1.86,5.33.68-2.43,1.41-2.29,2.17-1.68.76-4.51,1.55-2,2.37-1.3.81-1.87,1.64-3.19,2.47s-2.35,1.65-1.48,2.47a9.34,9.34,0,0,1-4.28,4.53,5.45,5.45,0,0,0-3.13,3.31l-1.21,1.28L127.9,43.34Z" style="fill: #66b1f2"/>
        <path d="M110.61,1.32h-15c-5.56,0,4,.13-.37.39-5.9.25-2.17.63-1.06,1.12,5.66.49-.09,1.1-1.71,1.8-4.14.71-3.31,1.52-2.29,2.43-1,.45-.8.93-.79,1.43s-.18,1-2,1.56c1.54.54,1.43,1.1,1.05,1.68.78.58-2.45,1.19-4.35,1.81-.31.62-2,1.26-1.81,1.91.85.66-4.61,1.33-1.91,2-5.66.6-.34,1.21-1.88,1.83-1.73.62-3,1.26-1.65,1.9-.11.64-.43,1.3-3.22,2a2.65,2.65,0,0,0-.54,2c-4.46,1.37-5.73,2.77-4,4.2-1.87,1.43.59,2.89-4.13,4.37-3.39,1.48-3.58,3-4.26,4.51a5.13,5.13,0,0,1-1.76,2.29c-.86.77-1.86,1.54-2.59,2.31-.49,1.64-2.21,3.3-4.68,5-3.83,1.66-2.17,3.32-4.7,5-4.36,1.65-2.86,3.31-4.67,4.95,1.24,1.64-5.55,3.26-4.6,4.87,1.16,1.61-5.36,3.19-4.48,4.75-5.76,1.56-1.28,3.09-4.33,4.58-.45.37-.92.74-1.35,1.11s-.51.74-1.23,1.1-.58.72-1,1.08c1,.35-4.8.71-.58,1.07,1.39.35-2.24.7-.75,1-3.72.35-.09.69-1.23,1,1.28.34-3.35.68-.94,1-2.75.34,1.76.67-1,1,1.32.88.47,1.74-1.37,2.57-2.93.83-4.17,1.64-3.34,2.41-4.48.78-3.09,1.53-3.38,2.25-.13.72-6.12,1.41-.7,2.07,4.2.66.91,1.29-1.76,1.88-.38.59-5.3,1.15-5,1.67-1.42.52-2.94,1-2.29,1.45a3.29,3.29,0,0,0-.23,1.22c0,.73.55,1.3-1.6,1.69.15.38-.86.59-.55.59-1.76,0,.6.69,1.56,1.8C6,104.45,19,115.55,19,115.55l7.83-8.29-7.8-9Z" style="fill: #66b1f2"/>
        <path d="M83.59,63s-.26,1.74-.68,4.58c-.21,1.42,2,3.12-.75,5-.28,1.89,1.18,4-.93,6.19a7.76,7.76,0,0,1-1,6.9c-.87,2.37-.07,4.77-1.07,7.14-7.16,2.37-10.84,4.7-1,6.9-1.73,2.21-2.71,4.3-.93,6.19-3.13,1.89-4.1,3.59-.75,5-.21,1.42-.38,2.57-.5,3.35l-.18,1.22.32-.38-.06.38L93.49,97l7.9-52.85Z" style="fill: #66b1f2"/>
        <path d="M222.18,58.84c-1.74-1.38,4.4-2.78.82-4.19-3.81-1.41.79-2.82,1.21-4.23-1.07-1.41-1.3-2.81,1.61-4.2,2-1.39-.25-2.76,2-4.1,4.42-1.34-.34-2.65,2.42-3.92-2.48-1.27,1.68-2.5,2.84-3.68-2.58-1.18-.17-2.3,3.26-3.36,4-1.06-.24-2.05,3.68-3a7.74,7.74,0,0,1,4.11-2.51,34.86,34.86,0,0,1,4.55-2,35.53,35.53,0,0,1,5-1.37,32.51,32.51,0,0,0-7.13-.77c-24.23,0-36.8,20.11-39.36,37.25-2.76,18.46,6.14,36.1,27.73,36.1a37.44,37.44,0,0,0,7.56-.78,26.28,26.28,0,0,1-8.56-3.5A24.09,24.09,0,0,1,230.51,88c.17-1-.73-2-2.86-3.17-4.46-1.13-2.31-2.34-2.29-3.62,4.59-1.27-1.65-2.6-1.74-4-7.5-1.38,0-2.82-1.18-4.3,2.6-1.48-3.84-3-.63-4.54a11.86,11.86,0,0,0-.08-4.72C221.74,62.07,217.68,60.46,222.18,58.84Z" style="fill: #da0002"/>
        <path d="M300.91,58.18c3.7-24.71-8.4-54.21-45-57.82-35.54,3.59-57.16,33-60.9,58-4,26.53,9.87,54.64,44.61,58.15C276.08,112.88,297.15,83.36,300.91,58.18Zm-51,36.76a34.39,34.39,0,0,1-7.42-.78,37.44,37.44,0,0,1-7.56.78c-21.59,0-30.49-17.64-27.73-36.1,2.56-17.15,15.13-37.25,39.36-37.25a32.51,32.51,0,0,1,7.13.77,39.88,39.88,0,0,1,7.86-.77c18.79,0,30.47,14.5,27.19,36.43C285.43,80.1,269.36,94.94,249.91,94.94Z" style="fill: #fff"/>
        <path d="M315.15,37.21q7.43-2-1.05-3.92c5.9-1.29-2.44-2.57-1.37-3.83.55-1.26,3.68-2.49-1.68-3.71.88-1.22,8-2.41-2-3.57-2.14-1.17-3.51-2.3-2.34-3.4-1.37-1.11-1.62-2.17-2.68-3.21-4.72-1,2.2-2-3-3-3-1-3.13-1.87-3.39-2.73-5.39-.86,2.32-1.68-3.75-2.45-6.62-.77-6.35-1.49-4.12-2.15-.84-.66,2.1-1.27-4.5-1.82.63-.55,3.2-1-4.89-1.46q-2.54-.64-5.28-1.08A74.49,74.49,0,0,0,263.29,0,72.69,72.69,0,0,0,256,.37c36.55,3.6,48.65,33.1,45,57.82-3.77,25.18-24.83,54.7-61.24,58.31a74.49,74.49,0,0,0,7.46.37,71.62,71.62,0,0,0,21.59-3.22q2.46-.77,4.79-1.71a15.53,15.53,0,0,1,4.55-2c6.22-.73,3.18-1.5,4.3-2.32,2.53-.81,4.24-1.68,4.05-2.58,2.72-.9,2.82-1.85,3.81-2.83,1.79-1,6.86-2,3.56-3-4.1-1-.61-2.13,3.3-3.24,2.7-1.11,7.09-2.25,3.05-3.41,1.53-1.16-1.9-2.35,2.79-3.56,1.37-1.21,8.67-2.44,2.54-3.69,8.36-1.24-3.13-2.51,2.28-3.78,5.8-1.27,4.22-2.56,2-3.86,3.06-1.28,3.89-2.57,1.74-3.87.79-1.3,2.3-2.6,1.49-3.9-1.28-1.3,1.79-2.6,1.23-3.91,1.74-1.3-3.46-2.6,1-3.88,5.57-1.29-1.82-2.57.7-3.85,2.86-1.37-4.54-2.75.47-4.14,3.18-1.39-1.32-2.79.17-4.2.32-1.41,2.37-2.82-.14-4.22,2.43-1.41.86-2.82-.46-4.22C317.61,40,319.46,38.59,315.15,37.21Z" style="fill: #da0002"/>
        <path d="M341.14,87.2c4.58,5.77,12.09,8.41,19.18,8.41a32.09,32.09,0,0,0,7.62-1,24.7,24.7,0,0,1-6.5-2.76c-1-.62-.72-1.31-2.85-2.09.08-.78-2.83-1.64-2.47-2.58a6.55,6.55,0,0,0-1.88-2.87c-1.75-1,2.76-2-1.29-3.12.44-1.09-3.77-2.23-.77-3.42-3.52-1.2-1.26-2.45-.3-3.78,1.51-1.32-3.42-2.72.1-4.19-2.61-1.47.67-3,.43-4.65-2.27-1.63,4.32-3.36.7-5.17,2,0,3.45-.35.15-1-3.64-.64.33-1.58.41-2.75,6-1.18,1.88-2.59.63-4.19-4-1.6-3.14-3.39.79-5.32,1.71-1.92.62-4,.92-6.11-2-2.14,1.64-4.36,1-6.6.91-2.24,1.59-4.51,1-6.75,0-2.24,5.11-4.46,1-6.6.07-2.14-1.63-4.19.91-6.12,1.5-1.92,1.82-3.71.79-5.31-.46-1.6-.5-3,.63-4.19-1.41-1.18,1.51-2.11.41-2.75-1.27-.64-.67-1,.15-1h-15L338.12,60C336.22,72.69,336,80.76,341.14,87.2Z" style="fill: #da0002"/>
        <path d="M443.8,1.32h-15l-9.76,65.27c-1.13,7.58-3.1,19.61-13,31-11.07,12.86-25.44,17.92-40.35,19,2.9.2,5.65.25,8.12.25a84.33,84.33,0,0,0,14-1.11c1.54-.26,2.84-.58,4.57-.94a22.62,22.62,0,0,1,4.49-1.26c1.74-.48,5.59-1,4.39-1.62-1.91-.61,3.13-1.27,4.27-2,2.49-.74,2.3-1.54,4.12-2.41-.43-.88,3.63-1.82,4-2.84.92-1,.34-2.12,3.79-3.3,2-1.18-.52-2.44,3.59-3.79-1.12-.71-.29-1.42,2.22-2.14,8.8-.71,4-1.43,1.15-2.15-2.4-.71.72-1.43,2.47-2.15.37-.71,2.38-1.43.23-2.14,4.39-.47,2.81-.95,3.77-1.42,1.75-.47.59-.94.24-1.41a6.41,6.41,0,0,0-1.88-1.4c5.85-1.39,2.45-2.77,1.63-4.11-2.22-1.34,3.71-2.65,1.21-3.93,3.54-1.27-1.73-2.51.89-3.7.75-1.19-7.46-2.32.64-3.4,1.79-.54,1.53-1.06,2.1-1.57s-1.7-1-1.62-1.47c3.44,0,1.63-.08,1.06-.25.89-.16-1.38-.4-.92-.71-1.85-.31.45-.69.1-1.13,3.64-.45-2.85-1,.3-1.53,5.29-.57-.89-1.21-.06-1.89-2.52-.68-3.14-1.42.67-2.2a3.49,3.49,0,0,1-.26-2.49c-2.2-.87,1.21-1.79,1-2.74-1.1-.95-.18-1.94.64-3,1.16-1,2.61-2.07.27-3.13,1.79-.71,2.64-1.44-1.33-2.17.58-.73-2.49-1.47,1-2.22-3.81-.75-1.89-1.51,1.36-2.27,2.26-.76-.42-1.53-1-2.3-.19-.77,2.87-1.54,1.45-2.32,2-.78-.82-1.55.61-2.33,1.53-1.16.74-2.33.29-3.49,3.5-1.16-1.41-2.31.75-3.46-3.69-1.14,3.59-2.27,1.62-3.38-.41-1.11-3.75-2.21-.62-3.28,1.77-1.07-1.12-2.12.31-3.14-1.12-1-4-2,.6-3-.32-1,.58-1.87.54-2.74,1.46-.88,2.35-1.71.24-2.49,1.38-.78,4.35-1.52,1.78-2.2,2.14-.69-3.31-1.32-1.17-1.89.61-.57.23-1.08.51-1.53s.46-.83-.11-1.13C442.72,1.65,442.49,1.32,443.8,1.32Z" style="fill: #da0002"/>
        <path d="M406,97.58c9.94-11.37,11.91-23.41,13-31l9.76-65.27H417.43L408.65,60c-.57,3.79-2.51,16.81-8.54,24.06-6.86,8.4-17.38,11.54-24.8,11.54a28.46,28.46,0,0,1-7.37-1,32.09,32.09,0,0,1-7.62,1c-7.08,0-14.6-2.64-19.18-8.41-5.14-6.43-4.92-14.51-3-27.2l8.78-58.68H335.51l-10,66.92c-2,13.35.36,22.91,3.34,28.35,8.06,15.32,24,19.13,36.82,20C380.57,115.5,394.93,110.44,406,97.58Z" style="fill: #fff"/>
        <path d="M464.86,95.06a41.59,41.59,0,0,1-17.17-9.52L446.43,94a32.48,32.48,0,0,0,11.23,2.11A23.87,23.87,0,0,0,464.86,95.06Z" style="fill: #da0002"/>
        <path d="M507.68,21.73A37.44,37.44,0,0,1,512,23.17c1.35.55,4.13,1.15,3.81,1.77,2.3.62-.15,1.27,3.26,1.91-.14.63-.65,1.26,2.61,1.83,1.58,0,.73-.9.35-2.35.77-1.44,4.39-3.43.84-5.6,3.15-2.17,5.91-4.52,1-6.69,4.87-2.16-.22-4.15.84-5.6C520.23,7,522.3,6.1,525,6.1c-1.65-.71-1.31-1.36-4.07-1.94-1.39-.58-2.82-1.09-4.27-1.55A62.21,62.21,0,0,0,498.23,0a44.19,44.19,0,0,0-6.57.5A51.69,51.69,0,0,1,510,6.1Z" style="fill: #da0002"/>
        <path d="M511.21,62c1-.41-.65-.8-2-1.17s-2.3-.72-.09-1.07c-3.35-.69-7.09-1.34-2.18-2,5.8-.65-7-1.3-2.67-2,1.65-.71-.14-1.47-3.49-2.33-2.59-.86-2-1.82-4.68-2.93-.48-1.11,2.47-2.37-6.21-3.83-3.6-1,.62-2-4.13-3,1.36-1-2-2.12-2.7-3.23-4.86-1.11-6.28-2.26-1.33-3.47-3.2-1.2-5.06-2.46,0-3.78,6.15-.5-1.91-1.3.59-2.28,4.37-1,.71-2.1,1.62-3.25,5.06-1.15-1.32-2.32,3.15-3.37a16.19,16.19,0,0,1,5.16-2.62,30.78,30.78,0,0,0-7.65-1c-14.83,0-17.49,10.06-17.86,12.53-.79,5.27,1.7,9.56,8.2,13.51C489.13,55.38,492,57,496.23,62c3.39,3.79,7.17,11.54,5.64,21.76-2.61,17.49-17.88,30.12-37.63,32.65a58.53,58.53,0,0,0,7.62.48c1.79,0,3.55-.08,5.28-.24s3.43-.39,5.09-.7c.58-.3,12.07-.68,4.87-1.13-.75-.45,1.82-1,4.62-1.56-.93-.58.12-1.24,4.34-2,.53-.71-1-1.49,4-2.33,6.82-.84.35-1.74,3.68-2.69,0-.47,1.21-1,2.2-1.47s2.57-1,1.11-1.55c3.68-.53.33-1.08,1.77-1.64,2.34-.56,4.34-1.13,1.13-1.71,2.91-.58-2.25-1.18,1.18-1.79,2.45-.61,1.26-1.23,1.28-1.86-1.89-.63,2.74-1.27,1.22-1.93,3.34-.66-3-1.32.76-2,.3-.68.25-1.36,1.41-2.06-4-.7,1.42-1.4.08-2.12s-2.77-1.44-.43-2.18c4.7-.74.18-1.48,1.38-2.24-2.79-.85.08-1.69-.1-2.5,1.08-.82-2.83-1.62.45-2.4s-3-1.54.86-2.28c.34-.74-.05-1.46-1.24-2.16-3.05-.7-1.35-1.38-3-2-.37-.66,2.8-1.3,2-1.91,3.16-.62-.89-1.2-.13-1.78-2.41-.57-2.33-1.12-1.23-1.63,2.79-.52,3.28-1,.81-1.49-.44-.47-2.34-.92-2.42-1.35-1.25-.42-.27-.82.32-1.18C515.1,62.63,514.37,62.29,511.21,62Z" style="fill: #da0002"/>
        <path d="M501.87,83.73c1.53-10.22-2.25-18-5.64-21.76C492,57,489.13,55.38,474.95,46.64c-6.5-4-9-8.24-8.2-13.51.37-2.47,3-12.53,17.86-12.53a30.78,30.78,0,0,1,7.65,1,24.74,24.74,0,0,1,7.34-1,30.82,30.82,0,0,1,8.08,1.13L510,6.1A51.69,51.69,0,0,0,491.66.5c-17.88,2.67-33.63,16-36.27,33.62a25.25,25.25,0,0,0,5.77,20.93c4.6,5.61,6.71,6.92,22.28,16.32,7.72,4.61,7.92,8.74,7.43,12-.72,4.78-5.69,12.69-18.21,12.69a31.14,31.14,0,0,1-7.79-1,23.87,23.87,0,0,1-7.2,1A32.48,32.48,0,0,1,446.43,94l-2.53,16.95c8.51,3.07,14.65,4.72,20.34,5.46C484,113.85,499.26,101.22,501.87,83.73Z" style="fill: #fff"/>
        <path d="M543.9,95.93h15l.24-1.65c-.48-1,1.8-2.51.63-4.24,0-1.73,6-3.72.87-5.8-1.31-2.08-1.33-4.24.94-6.32-.41-2.07-2.05-4.07.87-5.79.26-1.73.48-3.2.63-4.24l.24-1.64h-15Z" style="fill: #da0002"/>
        <path d="M615.93,20.93c4.64,0,1-.78.31-2,.88-1.26,3-3,.73-4.86-2.81-1.88,6.06-3.92.87-5.81-5.37-1.88-1.32-3.61.73-4.86a1.88,1.88,0,0,1,.31-2h-15l-2.93,19.61h15Z" style="fill: #da0002"/>
        <path d="M555.12,20.93l-3.85,25.71h15s.11-.71.28-1.9c-.17-1.19-2.25-2.86.71-4.76-4.17-1.9-.84-4,.93-6.19,5.17-2.14-5.26-4.29.93-6.19,7.18-1.9-1.39-3.57.71-4.76.18-1.19.29-1.9.29-1.9Z" style="fill: #da0002"/>
        <path d="M607.33,66.26c-2.73,0,5.23-.78.31-2-5.08-1.25,3.24-3,.73-4.86a4.32,4.32,0,0,1,.87-5.81c-2.49-1.88,1.85-3.61.73-4.87-3.11-1.25-.69-2,.3-2h-15l-2.93,19.62h15Z" style="fill: #da0002"/>
        <polygon points="555.12 20.93 570.11 20.93 600.94 20.93 603.87 1.32 546.67 1.32 529.58 115.55 587.61 115.55 590.55 95.93 558.89 95.93 543.9 95.93 548.34 66.26 563.33 66.26 592.35 66.26 595.28 46.65 566.26 46.65 551.27 46.65 555.12 20.93" style="fill: #fff"/>
        <path d="M26.83,107.25,34,115.55l.63-.67L36.4,113c5.64-.81.34-1.79,2.75-2.91,3.51-1.12,7.4-2.38,3.54-3.75,3.46-1.37-.18-2.85,4.16-4.4,3.41-1.56,5.24-3.19,4.6-4.87,4.32-1.68,7.13-3.41,4.86-5.15,2.57-1.74-1.93-3.5,5-5.25,2.6-1.74.29-3.47,4.87-5.15A12.44,12.44,0,0,0,69.91,79c0-.81,1-1.61.82-2.39.82-1.56,1.23-3,4.16-4.4-5-1.37,2.44-2.63,3.54-3.75-1.78-1.12,2.59-2.1,2.75-2.91L83,63.7l.63-.67,2.82-18.86Z" style="fill: #da0002"/>
        <path d="M130.71,24.5l.25-1.71c-1.83-1.08.42-2.58.64-4.29,1.64-1.72,5.81-3.65.83-5.58,10.08-1.93-2-3.86.83-5.58.34-1.72,2.06-3.22.65-4.29,1.94-1.07,4.39-1.72.25-1.72h-15l-6.28,42Z" style="fill: #da0002"/>
        <path d="M93.49,97l-2.77,18.53.32-.38-.05.38.51-.54c.33-.36,1.51-.88,1.45-1.54-1.73-.67,4.32-1.47,2.27-2.41.46-.93,2.08-2,3-3.13.44-1.15-2.12-2.39,3.51-3.72.6-1.32,4.66-2.72,3.94-4.18-1.35-1.45-.54-3,4.24-4.49.38-1.53.59-3.1,4.42-4.67-.19-1.58,3.61-3.15,4.46-4.72,4.25-1.57,4.4-3.12,4.37-4.63,2-.84-4.59-1.67,2.22-2.48,3.42-.81.15-1.61,2.38-2.39a4.24,4.24,0,0,0,1.84-2.27c0-.74.18-1.45,2.32-2.13a28.5,28.5,0,0,0,3-2c.75-.63,1.08-1.22.53-1.78,3.08-1.12,4.71-2.1,2.75-2.91L140,63.7l.63-.67,2.82-18.86Z" style="fill: #da0002"/>
        <path d="M176.19,1.32,159.11,115.55h15c-.81,0,.18-.49.21-1.37.3-.87-.83-2.13.54-3.66,3.72-1.53,3.4-3.33.79-5.3-1.3-2,1.45-4.1.94-6.29,4.23-2.19,4.45-4.43,1-6.61,3.52-2.18,3.08-4.32.94-6.28-2.31-2,2.91-3.77,2.84-5.3,2.43-1.53-3.57-2.79-1.5-3.66.34-.88,5.2-1.37,5.66-1.37-4.67,0-7-.54-2.5-1.48-.52-.94-2.13-2.29-.78-3.9,3.84-1.61.68-3.49-.54-5.51,0-2,2-4.16,2.31-6.32,1.81-2.15-.95-4.3-.42-6.32,2.93-2,0-3.89.82-5.51s4.27-3,.58-3.9c2.16-.94,2.25-1.48.22-1.48,5.1,0,1.86-.49.2-1.37,2-.88-1-2.14.55-3.67,6.75-1.54.46-3.35.8-5.32s-.61-4.12.94-6.31c3.71-2.19,3.29-4.44,1-6.64,4.6-2.19-4.73-4.33.94-6.31,1-2,2.77-3.78.79-5.32-1-1.53-3.94-2.79.55-3.67l.21-1.37Z" style="fill: #da0002"/>
        <polygon points="167.61 1.32 127.9 43.34 130.71 24.5 112.91 43.34 119.19 1.32 110.61 1.32 19.03 98.22 26.83 107.25 86.41 44.17 83.59 63.03 101.4 44.17 93.49 97.02 143.41 44.17 140.59 63.03 158.4 44.17 147.72 115.55 159.11 115.55 176.19 1.32 167.61 1.32" style="fill: #fff"/>
      </g>
    </g>
  </g>
</svg>
