<svg xmlns="http://www.w3.org/2000/svg" viewBox="0 0 637.9 110.38">
  <title>mtonline</title>
  <g id="862095bf-980c-409a-aaed-1c73dd7b42c3" data-name="Layer 2">
    <g id="1dc130ae-2f6a-48ff-bce9-cc29f4f8537a" data-name="Capa 1">
      <g>
        <path d="M292.37,55.34V55a58.51,58.51,0,0,0-3.74-20.89A54.81,54.81,0,0,0,278,16.61,51.28,51.28,0,0,0,261.19,4.5,51.89,51.89,0,0,0,239.32,0a57.29,57.29,0,0,0-11.43,1.1l-2.06,3.65a50.34,50.34,0,0,1,13.33-1.69A47,47,0,0,1,259.51,7.4a49.72,49.72,0,0,1,15.79,11.5,50.9,50.9,0,0,1,10.13,16.63A55.13,55.13,0,0,1,289,55.19v.3a56.15,56.15,0,0,1-3.5,19.75,49.14,49.14,0,0,1-10.06,16.45,49.74,49.74,0,0,1-15.7,11.37,47.66,47.66,0,0,1-20.29,4.27A47,47,0,0,1,219.13,103a49.49,49.49,0,0,1-15.77-11.51,51.14,51.14,0,0,1-10.16-16.61,55.39,55.39,0,0,1-3.57-19.66v-.32a56.06,56.06,0,0,1,3.5-19.66c.15-.37.3-.74.46-1.12l-3.56,0s0,.06,0,.08A58.75,58.75,0,0,0,186.28,55v.3A58.76,58.76,0,0,0,190,76.23a54.18,54.18,0,0,0,10.68,17.52,51.25,51.25,0,0,0,16.69,12.13,55.63,55.63,0,0,0,43.83,0A51,51,0,0,0,278,93.75a54.49,54.49,0,0,0,10.67-17.52,58.52,58.52,0,0,0,3.74-20.9" style="fill: #221a17"/>
        <polygon points="297.95 110.38 301.3 110.38 301.3 9.14 382.26 110.38 385.16 110.38 385.16 19.83 381.79 19.83 381.79 104.88 300.85 3.66 297.95 3.66 297.95 110.38" style="fill: #221a17"/>
        <polygon points="408.17 110.38 463.63 110.38 463.63 107.33 411.53 107.33 411.53 3.55 408.17 3.55 408.17 110.38" style="fill: #221a17"/>
        <polygon points="460.29 98.31 463.63 98.31 463.63 9.14 544.59 110.38 547.48 110.38 547.48 3.66 544.14 3.66 544.14 104.88 463.18 3.66 460.29 3.66 460.29 98.31" style="fill: #221a17"/>
        <rect x="434.33" y="19.84" width="3.34" height="78.47" style="fill: #221a17"/>
        <rect x="434.33" y="3.55" width="3.41" height="10.95" style="fill: #221a17"/>
        <polygon points="117.48 2.76 85.96 2.76 59.05 63.86 30.34 2.76 0 2.76 0 110.34 30.43 110.34 30.34 56.08 51.38 110.38 66.09 110.38 87.11 56.08 87.22 110.38 117.48 110.34 117.48 28.72 146.52 28.72 146.52 28.62 146.62 28.62 146.62 110.38 179.65 110.38 179.65 28.72 207.64 28.72 220.26 2.76 117.48 2.76" style="fill: #221a17"/>
        <path d="M562.53,58.16h8.34v0h59.7v-3h-68Zm8.34-51.58h66.29v-3H562.53v3Zm67,103.8v-3H562.53v3Z" style="fill: #221a17"/>
      </g>
    </g>
  </g>
</svg>
