<svg xmlns="http://www.w3.org/2000/svg" viewBox="0 0 644.67 176.67">
  <title>paula</title>
  <g id="8f5fe3f9-05c1-4ced-8a24-be78c4c4ca36" data-name="Layer 2">
    <g id="cf1098b7-82a8-4e73-b952-81aa22fb4469" data-name="Capa 1">
      <path d="M612,173.74h32.7V140.06H612Zm-60.51-44.17c0,15.86-17.81,22.69-31.72,22.69-10.74,0-19.28-6.1-19.28-15.37,0-11.71,9.28-14.88,20.5-17.08l16.35-3.42A53.63,53.63,0,0,0,551.46,112Zm29.77-41.73c0-35.14-26.6-40.5-53.19-40.5-27.09,0-52.71,11.23-52.71,40.26l29.77,1.22c0-13.42,5.61-18.55,22.94-18.55,12.93,0,23.42,3.42,23.42,15.62v3.66c-7.57,2.68-21.47,5.13-32.21,7.32l-12.45,2.44c-18.3,3.66-37.58,14.4-37.58,38.56,0,23.91,18.55,38.8,42,38.8a62.34,62.34,0,0,0,40.26-14.15c0,3.17,1,8.3,2.93,11.23h31.48c-1.71-2.68-4.64-8.05-4.64-20.74ZM419,173.74h29.77V0H419ZM389.69,50.27H359.91v66.37c0,14.89-6.83,31.23-29.28,31.23-15.13,0-22-7.32-22-24.4V50.27H278.9V132c0,35.87,24.16,44.66,45.14,44.66,16.84,0,28.79-6.59,35.38-15.13h.49v12.2h29.77Zm-168.37,79.3c0,15.86-17.82,22.69-31.72,22.69-10.74,0-19.28-6.1-19.28-15.37,0-11.71,9.27-14.88,20.5-17.08l16.35-3.42A53.63,53.63,0,0,0,221.32,112Zm29.77-41.73c0-35.14-26.6-40.5-53.2-40.5-27.08,0-52.71,11.23-52.71,40.26L175,88.82c0-13.42,5.61-18.55,22.94-18.55,12.94,0,23.43,3.42,23.43,15.62v3.66c-7.56,2.68-21.47,5.13-32.21,7.32l-12.44,2.44c-18.3,3.66-37.58,14.4-37.58,38.56,0,23.91,18.54,38.8,42,38.8a62.32,62.32,0,0,0,40.26-14.15c0,3.17,1,8.3,2.93,11.23h31.48c-1.71-2.68-4.63-8.05-4.63-20.74ZM32.7,27.33H63.93c18.79,0,31.72,7.08,31.72,31.24,0,17.08-10,29.28-30.5,29.28H32.7ZM0,173.74H32.7V115.17H71.25c34.41,0,58.56-22.2,58.56-56.61C129.82,24.89,109.8,0,69.06,0H0Z" style="fill: #222221"/>
    </g>
  </g>
</svg>
