<?xml version="1.0" encoding="utf-8"?>
<!-- Generator: Adobe Illustrator 21.1.0, SVG Export Plug-In . SVG Version: 6.00 Build 0)  -->
<svg version="1.1" id="Layer_1" xmlns="http://www.w3.org/2000/svg" xmlns:xlink="http://www.w3.org/1999/xlink" x="0px" y="0px"
	 viewBox="0 0 391.5 78.7" style="enable-background:new 0 0 391.5 78.7;" xml:space="preserve">
<style type="text/css">
	.st0{fill:#FFFFFF;}
</style>
<title>lt-pulso-trader</title>
<g>
	<g>
		<path class="st0" d="M31,4.5H0.4v4.2h33.8C33.4,7.1,32.4,5.7,31,4.5z"/>
		<path class="st0" d="M35,38.1H0.4v4.2h32.7C34,41,34.7,39.6,35,38.1z"/>
		<rect x="0.4" y="14.1" class="st0" width="12.7" height="4.2"/>
		<rect x="0.4" y="33.3" class="st0" width="12.7" height="4.2"/>
		<path class="st0" d="M18.6,0.7H0.4v3.1h29.8C27.4,1.9,23.6,0.7,18.6,0.7z"/>
		<path class="st0" d="M23,33.3c0,2.5-1.1,3.8-3.1,4.2h15.3c0.3-1.4,0.5-2.8,0.5-4.2H23z"/>
		<path class="st0" d="M13,11.5h5.5c1.9,0,3.2,0.7,3.8,2h13.1c-0.2-1.4-0.5-2.9-1.1-4.2h-34v4.2H13V11.5z"/>
		<rect x="23" y="23.7" class="st0" width="12.7" height="4.2"/>
		<rect x="0.4" y="23.7" class="st0" width="12.7" height="4.2"/>
		<rect x="0.4" y="18.9" class="st0" width="12.7" height="4.2"/>
		<rect x="0.4" y="28.5" class="st0" width="12.7" height="4.2"/>
		<rect x="0.4" y="62.1" class="st0" width="12.7" height="4.2"/>
		<rect x="0.4" y="66.9" class="st0" width="12.7" height="4.2"/>
		<rect x="0.4" y="71.8" class="st0" width="12.7" height="4.2"/>
		<rect x="23" y="18.9" class="st0" width="12.7" height="4.2"/>
		<path class="st0" d="M32.7,42.9H0.4v4.2h26.4C29.2,46.3,31.2,44.9,32.7,42.9z"/>
		<rect x="0.4" y="76.6" class="st0" width="12.7" height="1.3"/>
		<rect x="0.4" y="52.5" class="st0" width="12.7" height="4.2"/>
		<rect x="23" y="28.5" class="st0" width="12.7" height="4.2"/>
		<path class="st0" d="M13,48.5h5.5c2.1,0,4.2-0.2,6.3-0.7H0.4V52h12.7L13,48.5L13,48.5z"/>
		<path class="st0" d="M35.6,16c0-0.6,0-1.3-0.1-1.9H22.6c0.2,0.6,0.3,1.3,0.3,1.9v2.4h12.7V16z"/>
		<rect x="0.4" y="57.3" class="st0" width="12.7" height="4.2"/>
		<rect x="40.6" y="57.3" class="st0" width="12.7" height="4.2"/>
		<rect x="63.5" y="28.5" class="st0" width="12.7" height="4.2"/>
		<rect x="40.6" y="42.9" class="st0" width="12.7" height="4.2"/>
		<rect x="40.6" y="47.7" class="st0" width="12.7" height="4.2"/>
		<rect x="40.6" y="52.5" class="st0" width="12.7" height="4.2"/>
		<path class="st0" d="M53.3,63v-0.9H40.6V63c0,1.1,0.1,2.3,0.3,3.4h13.8C53.8,65.5,53.3,64.3,53.3,63z"/>
		<path class="st0" d="M75.8,66.9H61.1c-0.8,0.3-1.7,0.5-2.6,0.5c-0.9,0-1.8-0.2-2.7-0.5H41.1c0.3,1.5,0.9,2.9,1.6,4.2h31.4
			C74.9,69.8,75.5,68.4,75.8,66.9z"/>
		<rect x="63.5" y="33.3" class="st0" width="12.7" height="4.2"/>
		<rect x="63.5" y="4.5" class="st0" width="12.7" height="4.2"/>
		<rect x="40.6" y="38.1" class="st0" width="12.7" height="4.2"/>
		<rect x="40.6" y="4.5" class="st0" width="12.7" height="4.2"/>
		<rect x="63.5" y="38.1" class="st0" width="12.7" height="4.2"/>
		<rect x="63.5" y="9.3" class="st0" width="12.7" height="4.2"/>
		<rect x="40.6" y="33.3" class="st0" width="12.7" height="4.2"/>
		<path class="st0" d="M76.2,62.1H63.5V63c0.1,1.3-0.4,2.5-1.4,3.4h13.8c0.2-1.1,0.3-2.3,0.3-3.4V62.1z"/>
		<rect x="63.5" y="42.9" class="st0" width="12.7" height="4.2"/>
		<rect x="63.5" y="0.7" class="st0" width="12.7" height="3.1"/>
		<rect x="40.6" y="9.3" class="st0" width="12.7" height="4.2"/>
		<rect x="63.5" y="18.9" class="st0" width="12.7" height="4.2"/>
		<rect x="40.6" y="14.1" class="st0" width="12.7" height="4.2"/>
		<rect x="63.5" y="23.7" class="st0" width="12.7" height="4.2"/>
		<path class="st0" d="M58.4,78.5c3.3,0.1,6.7-0.6,9.7-2H48.6C51.7,77.9,55,78.6,58.4,78.5z"/>
		<rect x="63.5" y="14.1" class="st0" width="12.7" height="4.2"/>
		<rect x="63.5" y="52.5" class="st0" width="12.7" height="4.2"/>
		<rect x="63.5" y="47.7" class="st0" width="12.7" height="4.2"/>
		<rect x="40.6" y="0.7" class="st0" width="12.7" height="3.1"/>
		<rect x="40.6" y="28.5" class="st0" width="12.7" height="4.2"/>
		<path class="st0" d="M73.8,71.8H43.1c1.1,1.7,2.7,3.2,4.5,4.2h21.8C71.2,74.9,72.7,73.5,73.8,71.8z"/>
		<rect x="40.6" y="18.9" class="st0" width="12.7" height="4.2"/>
		<rect x="63.5" y="57.3" class="st0" width="12.7" height="4.2"/>
		<rect x="40.6" y="23.7" class="st0" width="12.7" height="4.2"/>
		<rect x="84" y="23.7" class="st0" width="12.7" height="4.2"/>
		<rect x="84" y="76.6" class="st0" width="29.6" height="1.3"/>
		<rect x="84" y="57.3" class="st0" width="12.7" height="4.2"/>
		<rect x="84" y="42.9" class="st0" width="12.7" height="4.2"/>
		<rect x="84" y="47.7" class="st0" width="12.7" height="4.2"/>
		<rect x="84" y="14.1" class="st0" width="12.7" height="4.2"/>
		<polygon class="st0" points="96.7,67.2 96.7,66.9 84,66.9 84,71.2 113.6,71.2 113.6,67.2 		"/>
		<rect x="84" y="52.5" class="st0" width="12.7" height="4.2"/>
		<rect x="84" y="18.9" class="st0" width="12.7" height="4.2"/>
		<rect x="84" y="71.8" class="st0" width="29.6" height="4.2"/>
		<rect x="84" y="33.3" class="st0" width="12.7" height="4.2"/>
		<rect x="84" y="4.5" class="st0" width="12.7" height="4.2"/>
		<rect x="84" y="0.7" class="st0" width="12.7" height="3.1"/>
		<rect x="84" y="28.5" class="st0" width="12.7" height="4.2"/>
		<rect x="84" y="62.1" class="st0" width="12.7" height="4.2"/>
		<rect x="84" y="38.1" class="st0" width="12.7" height="4.2"/>
		<rect x="84" y="9.3" class="st0" width="12.7" height="4.2"/>
		<path class="st0" d="M115.8,63c0,1.1,0.1,2.3,0.3,3.4h13.7c-1.1-0.8-1.6-2.1-1.5-3.4v-0.9h-12.5V63z"/>
		<path class="st0" d="M133.7,67.4c-1,0-1.9-0.2-2.8-0.5h-14.7c0.3,1.5,0.9,2.9,1.6,4.2h31.6c0.7-1.3,1.3-2.7,1.6-4.2h-14.7
			C135.5,67.3,134.6,67.5,133.7,67.4z"/>
		<rect x="116.2" y="18.9" class="st0" width="12.7" height="4.2"/>
		<path class="st0" d="M121.1,37.5h20.4l-5.6-4.2h-17.5C119.2,34.8,120.1,36.2,121.1,37.5z"/>
		<rect x="115.8" y="57.3" class="st0" width="12.5" height="4.2"/>
		<rect x="138.8" y="57.3" class="st0" width="12.7" height="4.2"/>
		<path class="st0" d="M116.2,18.3h12.7v-3.2c0-0.3,0-0.7,0.1-1h-12.8V18.3z"/>
		<path class="st0" d="M151.4,62.1h-12.7v1.4c0,1.1-0.4,2.1-1.3,2.8h13.7c0.2-1,0.3-2,0.3-3V62.1z"/>
		<path class="st0" d="M132.7,47.1h16.9c-0.7-1.5-1.5-2.9-2.5-4.2h-20C128.9,44.4,130.9,45.8,132.7,47.1z"/>
		<path class="st0" d="M116.2,13.5h12.9c0.6-1.5,2.2-2.3,4.5-2.3c1.8-0.2,3.6,0.7,4.6,2.3h12.7c-0.2-1.4-0.5-2.8-1-4.2h-32.8
			C116.7,10.7,116.4,12.1,116.2,13.5z"/>
		<rect x="115.8" y="52.5" class="st0" width="12.5" height="4.2"/>
		<path class="st0" d="M149.1,71.8h-30.9c1.1,1.7,2.6,3.2,4.4,4.2h21.9C146.4,75,147.9,73.5,149.1,71.8z"/>
		<path class="st0" d="M133.7,0.1c-5.7,0-9.9,1.4-12.8,3.8h25.2C143.2,1.5,139.1,0.1,133.7,0.1z"/>
		<path class="st0" d="M118.1,32.7h17c-1.7-1.2-3.1-2.6-4.4-4.2h-14C117,30,117.5,31.4,118.1,32.7z"/>
		<rect x="115.8" y="50.3" class="st0" width="12.5" height="1.6"/>
		<path class="st0" d="M126.2,42.3h20.3c-1.3-1.5-2.7-3-4.3-4.2h-20.6C123,39.6,124.6,41,126.2,42.3z"/>
		<path class="st0" d="M149.7,8.7c-0.7-1.6-1.7-3-2.9-4.2h-26.6c-1.2,1.2-2.2,2.6-2.9,4.2H149.7z"/>
		<path class="st0" d="M138.8,56.7h12.7v-0.4c0-1.3-0.1-2.6-0.3-3.9h-13.5C138.4,53.7,138.8,55.2,138.8,56.7z"/>
		<rect x="138.8" y="18.9" class="st0" width="12.3" height="4.2"/>
		<path class="st0" d="M133.5,78.5c3.4,0.1,6.9-0.6,10-2h-19.6C126.9,77.9,130.2,78.6,133.5,78.5z"/>
		<rect x="138.8" y="23.7" class="st0" width="12.3" height="4.2"/>
		<path class="st0" d="M116.2,23.7c0,1.4,0.2,2.8,0.4,4.2h13.7c-0.8-1.3-1.3-2.7-1.4-4.2H116.2z"/>
		<path class="st0" d="M138.8,15.6v2.7h12.3v-2.7c0-0.5,0-1-0.1-1.5h-12.5C138.7,14.6,138.8,15.1,138.8,15.6z"/>
		<path class="st0" d="M137.4,51.9h13.7c-0.3-1.4-0.7-2.8-1.2-4.2h-16.4C135,48.9,136.3,50.3,137.4,51.9z"/>
		<rect x="179.9" y="52.5" class="st0" width="12.7" height="4.2"/>
		<path class="st0" d="M174.7,0.1c-5.4,0-9.6,1.4-12.6,3.8h25.2C184.4,1.5,180.2,0.1,174.7,0.1z"/>
		<rect x="179.9" y="47.7" class="st0" width="12.7" height="4.2"/>
		<path class="st0" d="M179.9,63c0,1.3-0.5,2.6-1.6,3.4h14c0.2-1.1,0.3-2.3,0.3-3.4v-0.9h-12.7V63z"/>
		<rect x="179.9" y="42.9" class="st0" width="12.7" height="4.2"/>
		<path class="st0" d="M163.8,76h21.8c1.8-1,3.4-2.5,4.5-4.2h-30.7C160.6,73.5,162.1,74.9,163.8,76z"/>
		<path class="st0" d="M174.7,78.5c3.4,0.1,6.7-0.6,9.8-2H165C168.1,77.9,171.4,78.6,174.7,78.5z"/>
		<path class="st0" d="M174.7,67.4c-0.9,0-1.7-0.2-2.5-0.5h-14.8c0.3,1.5,0.9,2.9,1.6,4.2h31.5c0.8-1.3,1.3-2.7,1.6-4.2h-14.9
			C176.5,67.3,175.6,67.5,174.7,67.4z"/>
		<rect x="179.9" y="38.1" class="st0" width="12.7" height="4.2"/>
		<rect x="179.9" y="57.3" class="st0" width="12.7" height="4.2"/>
		<path class="st0" d="M157.1,13.5h13c1-1.6,2.8-2.5,4.6-2.3c2.2,0,3.9,0.8,4.7,2.3h13.1c-0.2-1.4-0.5-2.8-1-4.2h-33.4
			C157.6,10.7,157.3,12.1,157.1,13.5z"/>
		<path class="st0" d="M161.4,4.5c-1.3,1.2-2.3,2.6-3,4.2h32.7c-0.7-1.6-1.7-3-3-4.2H161.4z"/>
		<path class="st0" d="M157,63c0,1.1,0.1,2.3,0.3,3.4h13.9c-1.1-0.8-1.6-2.1-1.6-3.4v-0.9h-12.7L157,63L157,63z"/>
		<path class="st0" d="M179.9,15.6v2.7h12.7v-2.7c0-0.5,0-1-0.1-1.5h-12.9C179.8,14.6,179.9,15.1,179.9,15.6z"/>
		<rect x="179.9" y="28.5" class="st0" width="12.7" height="4.2"/>
		<rect x="179.9" y="23.7" class="st0" width="12.7" height="4.2"/>
		<rect x="179.9" y="18.9" class="st0" width="12.7" height="4.2"/>
		<rect x="179.9" y="33.3" class="st0" width="12.7" height="4.2"/>
		<rect x="157" y="42.9" class="st0" width="12.7" height="4.2"/>
		<rect x="157" y="18.9" class="st0" width="12.7" height="4.2"/>
		<rect x="157" y="38.1" class="st0" width="12.7" height="4.2"/>
		<rect x="157" y="33.3" class="st0" width="12.7" height="4.2"/>
		<rect x="157" y="47.7" class="st0" width="12.7" height="4.2"/>
		<rect x="157" y="28.5" class="st0" width="12.7" height="4.2"/>
		<rect x="157" y="52.5" class="st0" width="12.7" height="4.2"/>
		<rect x="157" y="57.3" class="st0" width="12.7" height="4.2"/>
		<rect x="157" y="23.7" class="st0" width="12.7" height="4.2"/>
		<path class="st0" d="M157,18.3h12.7v-2.7c0-0.5,0.1-1,0.3-1.5h-12.9c0,0.5-0.1,1-0.1,1.5V18.3z"/>
		<path class="st0" d="M13,37.5h6.9"/>
		<path class="st0" d="M129.8,66.4l1.1,0.6"/>
		<path class="st0" d="M136.4,66.9l1.1-0.6"/>
	</g>
	<g>
		<path class="st0" d="M197.4,0.5v2.3h13.9v75.8h3.2V2.8h14V0h-31.1V0.5z"/>
		<path class="st0" d="M256.6,51.6c-0.6-1.4-1.6-2.6-2.7-3.6c1.4-0.7,2.6-1.8,3.4-3.2c1.3-2.5,2.2-5.3,2.4-8.2c0.4-4,0.4-8,0.4-12
			v-4.8c0-3.9,0-7.9-1.1-11.8c-0.5-2.2-1.7-4.2-3.5-5.6c-2.3-1.6-5-2.4-7.8-2.3h-11.6v78.6h3.2V49.1H250c1.9,0.1,3.1,2.1,3.8,3.6
			c1.1,3.1,1.8,6.3,2.1,9.6l2.1,16.3h3.2l-2.1-16.5C258.6,58.6,258.1,54.9,256.6,51.6z M239.2,2.8h8.3c1.9-0.1,3.9,0.4,5.5,1.5
			c1.3,1,2.2,2.4,2.7,4c0.7,2.5,1.1,5,1.1,7.6c0.1,2.5,0.1,5.1,0.1,7.6v4.1c0.1,3.9-0.2,7.8-0.8,11.6c-0.3,2-1.1,4-2.4,5.6
			c-1.1,1-2.5,1.5-3.9,1.5h-10.5V2.8H239.2z"/>
		<path class="st0" d="M285.5,0.4V0h-6v0.4L268,78v0.6h3.3l2.7-19h17.1l2.7,19h3.3V78C293.2,52.2,289.3,26.3,285.5,0.4z M282.8,2.8
			l7.7,54.1h-16.2c2.1-14.9,4.3-29.8,6.4-44.7l1.3-9.4L282.8,2.8z"/>
		<path class="st0" d="M329.1,22.7c0.1-3.8-0.1-7.7-0.6-11.5c-0.7-4-1.9-6.7-3.9-8.6S318.8,0,316.4,0h-11.9v78.6h12.6
			c3.3,0.1,6.4-1.2,8.5-3.7c2.5-3.3,3.1-7.5,3.4-11.3s0.2-7.2,0.2-10.7C329.1,51.5,329.1,23.6,329.1,22.7z M325.9,32.6v27.5
			c0.1,2.9-0.2,5.9-0.7,8.8c-0.6,2.4-1.5,4.2-2.9,5.2c-1.6,1.2-3.5,1.7-5.5,1.6h-9.1V2.6h9.2c2.1-0.1,4.1,0.6,5.6,2
			c1.4,1.3,2.3,3.3,2.8,6.2c0.4,2.9,0.6,5.9,0.5,8.9L325.9,32.6z"/>
		<path class="st0" d="M338.5,78.6H359v-2.8h-17.3V40.7h16.2v-2.8h-16.2V2.8H359V0h-20.5V78.6z"/>
		<path class="st0" d="M389.5,61.9c-0.2-2.6-0.8-5.3-1.5-7.8c-0.6-2.3-1.9-4.5-3.7-6.1c1-0.5,1.9-1.2,2.6-2c1.8-2.2,2.5-5.1,2.9-7.7
			c0.5-4.4,0.7-8.8,0.6-13.2V20c0.1-3.5-0.1-7-0.7-10.5c-0.7-3.2-1.8-5.5-3.6-7c-2.2-1.7-5-2.6-7.8-2.5h-11.9v78.6h3.2V49h10.3
			c0.8,0,1.6,0.3,2.3,0.8c1,1,1.8,2.2,2.2,3.5c0.9,2.8,1.5,5.6,1.8,8.5l2.1,16.8h3.2L389.5,61.9z M387.3,26.4
			c0.1,4.2-0.1,8.4-0.7,12.6c-0.5,2.3-1.1,4.6-2.8,6c-1.2,0.9-2.7,1.3-4.2,1.2h-9.8V2.8h8.8c2.2-0.1,4.3,0.8,5.9,2.3
			c1.7,1.9,2.3,4.6,2.6,6.7c0.3,3.1,0.5,6.3,0.4,9.4v2.6C387.4,24.7,387.3,25.5,387.3,26.4L387.3,26.4z"/>
	</g>
</g>
</svg>
