<?xml version="1.0" encoding="utf-8"?>
<!-- Generator: Adobe Illustrator 21.1.0, SVG Export Plug-In . SVG Version: 6.00 Build 0)  -->
<svg version="1.1" id="Layer_1" xmlns="http://www.w3.org/2000/svg" xmlns:xlink="http://www.w3.org/1999/xlink" x="0px" y="0px"
	 viewBox="0 0 486.7 200.3" style="enable-background:new 0 0 486.7 200.3;" xml:space="preserve">
<title>lt-pulso</title>
<g id="_x35_575a39d-ad42-4be9-afba-8873bd2f507d">
	<g id="_x33_afacf16-21f3-40e3-a0e1-a0490b8c0a59">
		<g>
			<g>
				<path d="M75.4,10.7l-75.6,0.2v11.7l85.3-0.3C82.9,17.7,79.6,13.7,75.4,10.7"/>
				<path d="M82.2,109.5l-82.1,0.2l0.1,11.8l65-0.2C71.9,119.2,77.8,115.1,82.2,109.5"/>
				<polygon points="0.1,84.5 32.1,84.3 32.1,72.5 0.1,72.7 				"/>
				<path d="M87.9,97.2L0.1,97.4v11.7l82.6-0.3C85.2,105.3,86.9,101.4,87.9,97.2"/>
				<path d="M89.4,85.3v-0.4l-32.1,0.1v0.4c0,7.9-3.8,11.3-11,11.3h-14V85H0.2l0.1,11.7l88-0.2c0.8-3.7,1.3-7.5,1.3-11.2"/>
				<path d="M32.3,124h14c5.6,0.1,11.2-0.6,16.6-2l-62.7,0.1v11.7l32.1-0.1L32.3,124"/>
				<polygon points="0,72.1 32.1,71.9 32,60.2 0,60.4 				"/>
				<polygon points="0.3,146.2 32.4,146.2 32.3,134.4 0.2,134.4 				"/>
				<polygon points="0.4,195.6 32.4,195.5 32.4,183.9 0.4,183.9 				"/>
				<polygon points="0.4,199 32.4,198.9 32.4,196.1 0.4,196.2 				"/>
				<polygon points="0.4,183.3 32.4,183.1 32.4,171.5 0.3,171.5 				"/>
				<polygon points="0.3,158.5 32.4,158.4 32.4,146.8 0.3,146.9 				"/>
				<polygon points="0.3,170.9 32.4,170.8 32.4,159.1 0.3,159.2 				"/>
				<polygon points="57.2,59.6 89.3,59.4 89.3,47.7 57.2,47.8 				"/>
				<path d="M32,30.3h14c4.4,0,7.8,1.6,9.6,4.6l33.2-0.2c-0.5-4-1.6-7.9-3.2-11.6l-85.6,0.1l0,11.7L32,34.8L32,30.3"/>
				<path d="M89.3,41.4c-0.1-2-0.2-4.1-0.4-6h-33c0.9,1.9,1.3,3.9,1.3,6v5.7h32.1L89.3,41.4"/>
				<polygon points="57.2,84.2 89.4,84.2 89.3,72.5 57.2,72.5 				"/>
				<polygon points="57.2,71.8 89.2,71.8 89.2,60 57.2,60.1 				"/>
				<polygon points="0,47.3 32,47.2 32,35.6 -0.1,35.7 				"/>
				<polygon points="0,59.7 32,59.6 32,47.9 0,48 				"/>
				<path d="M45.9,2.8L-0.2,3v7.2L74.4,10C67.4,5.4,58.1,2.7,45.9,2.8"/>
				<polygon points="101.7,10 133.7,9.9 133.7,2.5 101.6,2.6 				"/>
				<polygon points="159.7,22 191.8,22.1 191.8,10.3 159.6,10.3 				"/>
				<polygon points="101.7,22.3 133.8,22.2 133.7,10.5 101.7,10.5 				"/>
				<path d="M192.2,158.7h-32.1l-0.1,2c0.1,4.9-2,8.1-5.5,9.9l36.7-0.2c0.7-3.2,1-6.5,1-9.7V158.7"/>
				<polygon points="160,145.7 192.1,145.5 192.1,133.9 160,134 				"/>
				<polygon points="159.9,96.4 192,96.2 192,84.5 159.9,84.6 				"/>
				<polygon points="159.9,108.6 192,108.5 192,96.8 159.9,96.9 				"/>
				<polygon points="159.9,121 192.1,120.9 192,109.2 159.9,109.3 				"/>
				<polygon points="160,133.3 192.1,133.3 192.1,121.6 159.9,121.6 				"/>
				<polygon points="101.9,108.8 134,108.7 134,97 101.9,97 				"/>
				<polygon points="102,133.6 134.1,133.4 134.1,121.7 101.9,121.8 				"/>
				<polygon points="160.1,158.1 192.2,158 192.1,146.3 160,146.3 				"/>
				<polygon points="101.9,121.1 134,121.1 134,109.4 101.9,109.5 				"/>
				<polygon points="101.8,59.4 133.9,59.3 133.8,47.6 101.7,47.7 				"/>
				<path d="M134.2,160.8v-2h-32.1v2c0,3.3,0.4,6.6,1.1,9.8l36.6-0.1C136.2,168.9,134.2,165.7,134.2,160.8"/>
				<polygon points="159.8,71.5 191.9,71.5 191.9,59.9 159.8,59.9 				"/>
				<polygon points="102.1,146 134.1,145.8 134.1,134.1 102,134.1 				"/>
				<polygon points="159.9,83.9 192,83.8 191.9,72.1 159.8,72.2 				"/>
				<path d="M147.2,171.9c-2,0-3.9-0.3-5.8-0.8h-38.1c0.9,4.2,2.5,8.2,4.9,11.8l78-0.3c2.3-3.5,4-7.5,4.9-11.6l-38.1,0.1"/>
				<polygon points="102.1,158.3 134.2,158.1 134.1,146.5 102.1,146.5 				"/>
				<polygon points="101.8,71.8 133.9,71.7 133.9,60 101.8,60 				"/>
				<path d="M185.8,183.3l-77.2,0.2c3.6,5,8.4,9.1,14,11.7l49.3-0.1C177.5,192.5,182.3,188.4,185.8,183.3"/>
				<path d="M147.4,200.3c9.1-0.2,16.8-1.8,23.2-4.5l-46.7,0.1C130.4,198.7,138.2,200.3,147.4,200.3"/>
				<polygon points="159.8,59.2 191.9,59.1 191.9,47.4 159.8,47.5 				"/>
				<polygon points="101.7,34.7 133.9,34.6 133.8,23 101.7,23 				"/>
				<polygon points="101.7,46.9 133.9,46.8 133.9,35.2 101.7,35.3 				"/>
				<polygon points="159.7,34.6 191.9,34.5 191.8,22.7 159.7,22.7 				"/>
				<polygon points="159.8,46.8 191.9,46.6 191.9,35 159.7,35.2 				"/>
				<polygon points="101.8,84.2 134,84 133.9,72.3 101.8,72.4 				"/>
				<polygon points="101.9,96.5 134,96.4 134,84.7 101.9,84.7 				"/>
				<polygon points="159.6,9.8 191.8,9.7 191.7,2.4 159.6,2.5 				"/>
				<polygon points="212,170.3 244.1,170.2 244.1,158.4 211.9,158.6 				"/>
				<polygon points="211.8,120.9 244,120.9 243.9,109.1 211.8,109.1 				"/>
				<polygon points="211.7,83.8 243.9,83.6 243.8,71.9 211.6,72 				"/>
				<polygon points="244.1,171.1 244.1,170.8 212,170.9 212,182.6 287.1,182.4 287,170.9 				"/>
				<polygon points="211.9,145.5 244.1,145.5 244,133.7 211.9,133.9 				"/>
				<polygon points="211.8,108.5 243.9,108.4 243.9,96.6 211.8,96.8 				"/>
				<polygon points="211.9,133.2 244,133.1 244,121.3 211.8,121.5 				"/>
				<polygon points="211.8,96.1 243.9,96.1 243.9,84.3 211.8,84.5 				"/>
				<polygon points="211.9,157.9 244.1,157.8 244.1,146.2 211.9,146.2 				"/>
				<polygon points="212.1,198.3 287.2,198 287.1,195.4 212,195.6 				"/>
				<polygon points="211.6,59.1 243.8,59 243.8,47.2 211.6,47.3 				"/>
				<polygon points="211.7,71.3 243.8,71.3 243.8,59.6 211.6,59.7 				"/>
				<polygon points="212.1,195 287.2,194.7 287.1,183.1 212,183.3 				"/>
				<polygon points="211.6,34.4 243.7,34.3 243.7,22.5 211.5,22.7 				"/>
				<polygon points="211.6,46.6 243.8,46.5 243.7,34.9 211.6,35 				"/>
				<polygon points="211.5,21.9 243.7,21.9 243.7,10.2 211.5,10.2 				"/>
				<polygon points="211.5,9.7 243.7,9.6 243.7,2.2 211.5,2.4 				"/>
				<path d="M337.3,0.3c-13.8,0.1-24.2,3.3-31.6,9.1L368,9.2C360.8,3.6,350.5,0.2,337.3,0.3"/>
				<path d="M337.8,171.4c-2,0-4-0.3-6-0.8h-38c0.8,4.2,2.5,8.1,4.8,11.7l78.2-0.2c2.3-3.6,3.9-7.5,4.8-11.7h-38.2
					C341.7,171.1,339.8,171.4,337.8,171.4"/>
				<path d="M347.5,132.8h34.3c-0.7-4-1.8-8-3.3-11.8l-41.7,0.2C341.1,124.8,344.9,128.4,347.5,132.8"/>
				<polygon points="350.4,58.7 381.5,58.5 381.5,46.8 350.3,46.9 				"/>
				<path d="M292.6,160.3c0,3.3,0.3,6.5,1,9.7l36.5-0.1c-3.7-1.6-6-4.7-6-9.7v-1.9l-31.5,0.1V160.3"/>
				<path d="M298.2,83.6l43.2-0.2c-4.8-3.7-9.1-7.4-12.1-11.6h-34.9C295.2,75.8,296.5,79.8,298.2,83.6"/>
				<path d="M335.9,120.6l42.2-0.1c-1.8-4.2-4.2-8.2-7-11.8l-50.9,0.2C325.6,113,331.1,116.7,335.9,120.6"/>
				<path d="M319.3,108.2l51.2-0.1c-3.5-4.3-7.5-8.2-11.9-11.7l-52,0.2C310.5,100.8,314.7,104.8,319.3,108.2"/>
				<polygon points="350.4,71 381.5,70.9 381.5,59.3 350.3,59.4 				"/>
				<path d="M293.1,46.5h32.1v-8c0-1.3,0.2-2.6,0.7-3.8h-32.6c-0.1,1.3-0.2,2.6-0.2,3.7V46.5"/>
				<path d="M350.6,144.4v0.8l32.1-0.2v-1.8c0-3.3-0.3-6.7-0.8-10l-34,0.1C349.7,136.7,350.6,140.5,350.6,144.4"/>
				<polygon points="292.6,157.7 324.1,157.7 324,146 292.5,146 				"/>
				<polygon points="350.6,157.5 382.7,157.5 382.7,145.7 350.6,145.9 				"/>
				<polygon points="293.1,58.7 325.2,58.7 325.1,47.1 293.1,47.1 				"/>
				<path d="M306.1,96l51.8-0.3c-5.2-4.2-10.7-7.9-15.6-11.5h-43.8C300.5,88.4,303.1,92.4,306.1,96"/>
				<path d="M376.6,182.8l-77.6,0.3c3.5,5,8.3,9,13.8,11.6l49.7-0.1C368.1,192,373,187.9,376.6,182.8"/>
				<polygon points="292.5,145.4 324,145.2 324,133.6 292.5,133.6 				"/>
				<path d="M293.1,59.6c0,3.9,0.4,7.8,1.2,11.6L329,71c-2.3-3.4-3.6-7.5-3.7-11.6L293.1,59.6"/>
				<path d="M293.2,34.2l32.8-0.1c1.7-3.5,5.7-5.4,11.3-5.4c5.2-0.1,9.3,1.8,11.4,5.3h32.4c-0.5-4.1-1.5-8-3.1-11.8l-82,0.2
					C294.5,26.2,293.5,30.2,293.2,34.2"/>
				<path d="M337.3,199.6c9.4,0,17.4-1.6,23.9-4.5l-47,0.1C321.5,198.3,329.3,199.8,337.3,199.6"/>
				<path d="M382.7,158.1l-32.1,0.2l0,3.3c0.1,3.6-2,6.9-5.3,8.3l36.5-0.1c0.6-2.9,0.9-5.8,0.9-8.8L382.7,158.1"/>
				<polygon points="292.5,133 324,133 324,128 292.5,128.1 				"/>
				<path d="M350.3,39.8v6.5h31.2v-6.7c0-1.7-0.1-3.3-0.3-5h-32.1C349.9,36.2,350.3,38,350.3,39.8"/>
				<path d="M296.3,21.8l81.4-0.3c-2.1-4.5-5.1-8.5-8.9-11.7L305,10C301.2,13.2,298.2,17.2,296.3,21.8"/>
				<path d="M400.2,21.5l82.2-0.1c-2.1-4.6-5.3-8.6-9.2-11.7l-63.7,0.2C405.5,12.9,402.3,16.9,400.2,21.5"/>
				<polygon points="454.5,132.5 486.6,132.4 486.6,120.7 454.5,120.9 				"/>
				<polygon points="454.6,144.9 486.6,144.8 486.6,133 454.5,133.2 				"/>
				<polygon points="454.4,107.8 486.6,107.7 486.5,96 454.4,96.1 				"/>
				<polygon points="454.5,120.2 486.6,120.1 486.6,108.4 454.4,108.5 				"/>
				<polygon points="454.4,95.4 486.5,95.4 486.5,83.6 454.4,83.8 				"/>
				<polygon points="454.6,157.3 486.7,157.1 486.7,145.4 454.6,145.5 				"/>
				<polygon points="396.3,70.9 428.5,70.8 428.4,59.1 396.3,59.2 				"/>
				<path d="M454.6,159.8c0.1,4.2-2.2,8-6,9.8l37-0.1c0.7-3.2,1-6.5,1-9.9v-2l-32.1,0.1L454.6,159.8"/>
				<polygon points="396.6,145.1 428.7,145 428.6,133.2 396.5,133.3 				"/>
				<polygon points="396.6,157.4 428.7,157.3 428.7,145.5 396.6,145.7 				"/>
				<polygon points="396.5,132.8 428.6,132.6 428.5,120.9 396.5,120.9 				"/>
				<path d="M417.1,194.4l49.3-0.1c5.6-2.6,10.5-6.6,14-11.7l-77.2,0.3C406.7,187.8,411.5,191.8,417.1,194.4"/>
				<polygon points="454.4,83.1 486.5,82.9 486.4,71.2 454.4,71.3 				"/>
				<path d="M441.5,171.1c-1.8,0-3.5-0.3-5.2-0.8l-38.5,0.1c1,4.2,2.7,8.1,5,11.7l77.9-0.2c2.3-3.6,4-7.5,4.9-11.7l-38.6,0.1
					C445.2,170.8,443.4,171.1,441.5,171.1"/>
				<path d="M396.6,33.8l33.2-0.1c2.1-3.4,6.1-5.3,11.3-5.4c5.4,0,9.5,2,11.7,5.4H486c-0.5-4-1.6-8-3.3-11.7l-82.9,0.2
					C398.2,25.8,397.1,29.8,396.6,33.8"/>
				<polygon points="396.5,120.4 428.6,120.3 428.6,108.5 396.4,108.7 				"/>
				<path d="M454.2,39.4l0.2,6.6l32-0.1v-6.5c0-1.7-0.1-3.4-0.3-5.1l-33,0.2C453.8,35.9,454.2,37.6,454.2,39.4"/>
				<polygon points="396.4,95.6 428.5,95.6 428.5,83.8 396.3,83.9 				"/>
				<polygon points="396.3,83.2 428.5,83.1 428.5,71.3 396.3,71.5 				"/>
				<polygon points="454.4,58.3 486.5,58.2 486.4,46.5 454.4,46.6 				"/>
				<path d="M396.3,46.2l32.1-0.1v-6.6c0-1.8,0.4-3.5,1.1-5.1l-33,0.1c-0.2,1.7-0.2,3.4-0.2,5.1L396.3,46.2"/>
				<polygon points="454.4,70.8 486.4,70.6 486.5,58.9 454.4,59.1 				"/>
				<path d="M396.6,160c0,3.3,0.3,6.5,1,9.7h37c-3.8-1.7-6.1-5.6-6-9.7v-2h-32.2L396.6,160"/>
				<polygon points="396.4,107.9 428.6,107.8 428.5,96.1 396.4,96.2 				"/>
				<polygon points="396.3,58.5 428.4,58.4 428.4,46.6 396.3,46.8 				"/>
				<path d="M441.6,199.4c9.2,0,17-1.6,23.4-4.5l-46.6,0.1C424.8,197.9,432.5,199.4,441.6,199.4"/>
				<path d="M441,0c-13.1,0-23.5,3.3-30.9,9.1L472.3,9C464.8,3.3,454.4,0,441,0"/>
			</g>
		</g>
	</g>
</g>
</svg>
