<svg xmlns="http://www.w3.org/2000/svg" xmlns:xlink="http://www.w3.org/1999/xlink" viewBox="0 0 375.74 182.74">
  <defs>
    <radialGradient id="cf78b6b6-9329-4605-b37b-6fb1038038d3" cx="254.68" cy="0.83" r="165.96" gradientUnits="userSpaceOnUse">
      <stop offset="0" stop-color="#f20000"/>
      <stop offset="0.46" stop-color="#f20000"/>
      <stop offset="0.55" stop-color="#ed0000"/>
      <stop offset="0.67" stop-color="#de0000"/>
      <stop offset="0.8" stop-color="#c50000"/>
      <stop offset="0.94" stop-color="#a20001"/>
      <stop offset="1" stop-color="#910001"/>
    </radialGradient>
    <radialGradient id="7c9ab9a4-6481-4780-be57-5f26e66db6da" cx="267.36" cy="13.04" r="100.73" gradientUnits="userSpaceOnUse">
      <stop offset="0" stop-color="#dedcc4"/>
      <stop offset="0.25" stop-color="#9c9a8a"/>
      <stop offset="0.51" stop-color="#5f5d54"/>
      <stop offset="0.73" stop-color="#33312c"/>
      <stop offset="0.9" stop-color="#171514"/>
      <stop offset="1" stop-color="#0d0b0b"/>
    </radialGradient>
    <linearGradient id="74895356-84f7-40bb-88b4-e14c06c0ea05" x1="283.83" y1="34.25" x2="283.98" y2="2.23" gradientUnits="userSpaceOnUse">
      <stop offset="0" stop-color="#f32127"/>
      <stop offset="0.96" stop-color="#fbd3d7"/>
    </linearGradient>
    <radialGradient id="53183067-85b0-406e-be78-143006d0c4e4" cx="324.5" cy="109.26" r="9.13" xlink:href="#cf78b6b6-9329-4605-b37b-6fb1038038d3"/>
    <linearGradient id="4debc674-5624-44d0-b1d5-3b348077b27a" x1="315.46" y1="111.59" x2="327.39" y2="111.59" gradientUnits="userSpaceOnUse">
      <stop offset="0" stop-color="#fbd3d7"/>
      <stop offset="0.13" stop-color="#fac3c8"/>
      <stop offset="0.38" stop-color="#f89a9f"/>
      <stop offset="0.73" stop-color="#f6595e"/>
      <stop offset="1" stop-color="#f32127"/>
    </linearGradient>
  </defs>
  <title>radiodisney</title>
  <g id="8183ce37-4df9-4b02-8e32-56e490e66288" data-name="Layer 2">
    <g id="41388368-be99-4980-9111-2edf149441a8" data-name="Capa 1">
      <path id="424b7995-21fe-4e59-9847-354bbbaa7d04" data-name="Globa Mayor" d="M307.27,3.06A92.73,92.73,0,0,0,283.7,0C243,0,205.77,27.07,194.87,68c-13,48.77,16.29,98.77,65.37,111.67s99.42-16.19,112.42-65S356.36,16,307.27,3.06Z" style="fill: url(#cf78b6b6-9329-4605-b37b-6fb1038038d3)"/>
      <path id="e1ef5d63-ca23-4cb2-998b-7f300b394763" data-name="Globa Interior" d="M295.38,148.14a57.42,57.42,0,0,0-11.6-113.73,58.47,58.47,0,0,0-11.71,1.19,57.46,57.46,0,1,0,23.31,112.54Z" style="fill: url(#7c9ab9a4-6481-4780-be57-5f26e66db6da)"/>
      <path d="M318.93,64.72A44.07,44.07,0,0,1,327,126.8a44.77,44.77,0,0,1-62.51,8,44.07,44.07,0,0,1-8-62.07,44.75,44.75,0,0,1,62.49-8" style="fill: #0d0b0b;opacity: 0.4"/>
      <path id="2d7cad8c-a278-45b6-bee3-72df9b2d0c0e" data-name="Destello Arriva" d="M283.82,2c-36,0-65.17,23.29-65.17,36.95s29.18-8.28,65.17-8.28S349,52.65,349,39,319.78,2,283.82,2Z" style="fill: url(#74895356-84f7-40bb-88b4-e14c06c0ea05)"/>
      <path id="f8fbf354-f742-45d9-a864-f4eafa07af5a" data-name="Sombra 2" d="M360.13,66.2a28.34,28.34,0,0,0-35.49,0c-4.86,4.24-7.84,10.78-7.79,18.45a26.07,26.07,0,0,0,1,7.16,5.16,5.16,0,0,0-2.43-.63h-10.7L317,67.23a5.11,5.11,0,0,0-.2-5,5.18,5.18,0,0,0-4.42-2.47H296.88a5.21,5.21,0,0,0-4.63,2.81l-11.81,23V84.06A23.28,23.28,0,0,0,272.64,66a27.08,27.08,0,0,0-33.72-.29v-.09A5.1,5.1,0,0,0,237.4,62a5.19,5.19,0,0,0-3.67-1.51H219.65a5.27,5.27,0,0,0-3.41,1.27L203.2,73a5.14,5.14,0,0,0-1.79,3.89V91.82A5.19,5.19,0,0,0,210,95.71l4.47-3.85v34.52a5.15,5.15,0,0,0,5.19,5.15h14.08a5.15,5.15,0,0,0,5.19-5.15v-.08a27.08,27.08,0,0,0,33.72-.29,20.6,20.6,0,0,0,3-3.24,4.92,4.92,0,0,0,.89.09h20.2v2.88a5.17,5.17,0,0,0,1.51,3.64,5.24,5.24,0,0,0,3.67,1.5h13.42a5.14,5.14,0,0,0,3.59-1.44,9.79,9.79,0,0,0,5.33,1.6,9.36,9.36,0,0,0,2.56-.37,5.19,5.19,0,0,0,2.82.85h15.45a5.19,5.19,0,0,0,4.67-2.9l11.76-24c2.73-5.63,6.31-12,6.37-19.94,0-7.67-2.93-14.21-7.8-18.45m-29.9,47.66a9.66,9.66,0,0,0-5.12-2v-7.5a4.93,4.93,0,0,0-.19-1.29,21.46,21.46,0,0,0,8.53,4.44Z" style="fill: #0d0b0b;opacity: 0.2"/>
      <path id="d73970dd-9867-4531-844a-7723aceabbba" data-name="Sombra 1" d="M360.46,58.59a28.36,28.36,0,0,0-35.48,0c-4.86,4.23-7.85,10.79-7.8,18.46a26.33,26.33,0,0,0,1,7.15,5.17,5.17,0,0,0-2.44-.62H305l12.32-24a5.12,5.12,0,0,0-.2-5,5.19,5.19,0,0,0-4.42-2.47H297.21a5.17,5.17,0,0,0-4.62,2.82l-11.81,23V76.46A23.33,23.33,0,0,0,273,58.4a27.09,27.09,0,0,0-33.72-.3V58a5.18,5.18,0,0,0-5.19-5.14H220a5.3,5.3,0,0,0-3.41,1.26l-13,11.26a5.13,5.13,0,0,0-1.79,3.9V84.22a5.18,5.18,0,0,0,8.58,3.89l4.47-3.85v34.51a5.16,5.16,0,0,0,1.52,3.64,5.25,5.25,0,0,0,3.67,1.51h14.08a5.16,5.16,0,0,0,3.66-1.51,5.1,5.1,0,0,0,1.53-3.64v-.08A27.08,27.08,0,0,0,273,118.4a21.45,21.45,0,0,0,3-3.24,5.08,5.08,0,0,0,.89.09H297.1v2.88a5.17,5.17,0,0,0,1.53,3.64,5.22,5.22,0,0,0,3.67,1.51H315.7a5.14,5.14,0,0,0,3.6-1.44,9.64,9.64,0,0,0,7.89,1.24,5.19,5.19,0,0,0,2.82.85h15.46a5.19,5.19,0,0,0,4.67-2.91l11.75-24c2.73-5.63,6.32-12,6.37-19.93.05-7.67-2.93-14.22-7.81-18.46m-29.89,47.66a9.61,9.61,0,0,0-5.11-2V96.77a4.82,4.82,0,0,0-.19-1.29,21.62,21.62,0,0,0,8.54,4.44Z" style="fill: #0d0b0b;opacity: 0.4"/>
      <path d="M319.92,113.8a4.59,4.59,0,1,0,4.61-4.54h0A4.59,4.59,0,0,0,319.92,113.8Z" style="fill: url(#53183067-85b0-406e-be78-143006d0c4e4)"/>
      <path d="M320.82,112c0,.91,1.65,1.64,3.69,1.62s3.66-.74,3.66-1.65-1.59-2.4-3.62-2.4h0C322.5,109.57,320.81,111.08,320.82,112Z" style="fill: url(#4debc674-5624-44d0-b1d5-3b348077b27a)"/>
      <path d="M25.12,71.87c-3.37.15-14.69-.22-17.44,4.24,0,0-.94,2.59-.31,3.31a4.21,4.21,0,0,0,5.43.4s.64-.87-.63-1.36l-1.49-.14s-1.82-1.89,9.67-1.73,19.72,3.36,28.36,7c9.43,3.94,22.73,15.4,23,24,1.18,13.43-18.86,17.51-30.64,14.22-.4-.65-.55-.65-.55-1.58s-.22-14-.22-14a1,1,0,0,1,.94-.46c.69,0,12.56.71,15.16,2.9,0,0,.7.62.39,1.09s-2.67,2.68-2.67,2.68,2.19,1.8,4.4.94c.79-.54,3.62-1.8,3.45-5.1.09-.71,1.42-4.32-9.19-7.71-3-.63-4.26-1.18-11.54-1-.63.07-.72-1.11-.72-1.11s.23-6.21-.7-8.4c0,0-1-2.11-2.28-2.68a1.08,1.08,0,0,0-1.1.32L35.1,91A56.72,56.72,0,0,1,34,99.92c-15.47,3.15-16.74,7.7-16.74,7.7-2.51,6.45,15,15.88,15.33,16,1.3.32,1.27,1.24,1.27,1.24l.54,3.79.87,1.34s3.22,1,4.24-.49.55-.85.55-.85l.7-1.74a42.88,42.88,0,0,0,17.69.79s19-2.55,20.51-17.76a3.2,3.2,0,0,0-.09-1.73C80,107.32,71.55,76.5,25.12,71.87Zm8.4,47a.74.74,0,0,1-.65.51.88.88,0,0,1-.28-.05c-11.64-4.4-13.43-9.43-13.43-9.43a1.25,1.25,0,0,1,.54-1.48c3-1.74,13.52-2.66,13.52-2.66.78-.09.78.38.78.38Z"/>
      <path d="M82.09,102.12a69.17,69.17,0,0,0-.71,19.66c.71,4.87,5.42,2.75,5.51,1.57.62-15.79-.48-21.38-.79-21.84-.19-.29-1.29-1.67-2.34-1.67C83.1,99.83,82.46,100.38,82.09,102.12Z"/>
      <path d="M81.07,95.67a11.68,11.68,0,0,0,7.47,0c13-4.37,11.78-12.56,11.78-12.56-.38-2.05-4.56-3.29-4.56-3.29-1-2.06-3.76-2.49-5.89-2.49h0a16.81,16.81,0,0,0-2.69.22C75.18,81.63,75.57,88.13,75.57,88.13a6.82,6.82,0,0,0,1.8,5.28c-.94,3.68,1.73,4.3,1.73,4.3A16.54,16.54,0,0,0,81.07,95.67ZM92.55,83.44c.86-.16,7.22-1.42,2.74,4.39,0,0-2.34,3.62-9,3.62a20.66,20.66,0,0,1-2.43-.15C83.26,89.87,91.68,83.59,92.55,83.44Zm-13.12,3S81.7,83.59,83,83s1.64.17,1.64.17-4.4,4.88-5.18,5.65C78.54,88.46,79.42,86.48,79.42,86.48Z"/>
      <path d="M91.51,110.52c1.5,1.41,9,1,15.33,2.05,0,0,5.66,2.66.94,4.64,0,0-8.41,2.9-13,1.49-.29.2-1.56-.6-2-1.4s-.19-1.47,2.11-1.43c1.37,0,5,1.57,7.77,1.64.83,0,10.78-1.8-.93-4.4,0,0-5.9-1.65-9.75.62,0,0-3.29,3.62-.24,6.13.32,1.58,14,9.74,21.53-.31,0,0,3.14-7.35-4.08-10.05,0,0-11.55-1.8-12.56-1.64s-3.7-1.26,0-1.82c4.28-.65,3.46-.48,14.37-1.57,6.91-2,3.13-3.93-.78-4.57-1.37-.09-2.65-.13-3.85-.13-11,0-15.16,3.45-15.16,3.45S86.18,108.33,91.51,110.52Z"/>
      <path d="M120.12,122.48l.71-11.79s.15-.8,1.18-.39c0,0,2.59,7,5.5,10.19-.09.87,5.5,7.47,8.73-2.8,0,0,2.82-11.78-5.34-20.29,0,0-1.24-1.21-2-1.21-.51,0-.84.49-.57,2.07.71,4.09,3.77,14.47,2.92,17,0,0,.08,1-1,0s-6.67-11.46-8.33-12.57c0,0-1.81-1.65-3.31.09-2.83,2.91-3.37,18.46-3.37,18.46l.15.3C117.77,128,120.12,122.48,120.12,122.48Z"/>
      <path d="M155.84,100.5a8.32,8.32,0,0,0-2-.11,83.07,83.07,0,0,0-14.65,1.34s-.65,1.42,1.55,3.38l1.84.4-.72,4.23s-2.38.71-2.7,1.35a4.45,4.45,0,0,0,.33,2.44c-.22,1.95-1.8,3.05-1.63,7.77s5.34,5.19,5.34,5.19c10-1.34,12.26-5.58,12.26-5.58s.65-2.59-1.11-3c-1.11-.25-3.29.21-5.39.67-2.48.55-4.85,1.09-5.18.46s1.47-4.58,1.47-4.58,7.13.08,8.56-.55,1.25-3.69.31-3.86-6.91-.31-6.91-.31l.71-3.28s9.59.22,11.08-1.58A6,6,0,0,0,155.84,100.5Z"/>
      <path d="M170.08,117.84a63.6,63.6,0,0,1,7-9.51s2.74-3.07,2.74,1.48c0,0,.24,5.75-6.83,8.73a7.34,7.34,0,0,1-2.88,1.1c-1.23,0,0-1.81,0-1.81m-4.09-17c-6.28,6.61-6.43,12-7.14,14.61s1.25,5.2,1.25,5.2-5.89,15.87-5.25,21.36c0,0,1.89,5.11,5.34,4.18,1.34-7.31,5.42-20.21,5.42-20.21,8.73,1.58,14.55-7.3,14.55-7.3,8.38-11.39-1.19-16.65-1.19-16.65a4.15,4.15,0,0,0-2.75.46c-6.68,4.41-11.46,12.23-12.5,12.64s-.63-.69-.63-.69c.79-5,5.89-10.93,5.58-13,.33-1.21,0-1.58-.51-1.58a5.37,5.37,0,0,0-2.18.95"/>
      <g id="75d8d82a-4872-4de8-95c6-26a4e99e26e8" data-name="Copywrite">
        <path d="M1.82,56.94a1.59,1.59,0,0,0-.19.76,1,1,0,0,0,1.09,1.08,1,1,0,0,0,1.1-1.09,1.61,1.61,0,0,0-.2-.79l.29-.09a1.8,1.8,0,0,1,.24,1A1.35,1.35,0,0,1,2.75,59.2a1.43,1.43,0,0,1-1.45-1.49,1.59,1.59,0,0,1,.21-.86Zm-1.2.95a2,2,0,0,0,2.11,2,2,2,0,1,0,0-3.94,2,2,0,0,0-2.08,2Zm-.32,0a2.36,2.36,0,0,1,2.4-2.34,2.36,2.36,0,1,1,0,4.72,2.38,2.38,0,0,1-2.4-2.37Z" style="fill: #151011"/>
        <path d="M4.82,54a4.47,4.47,0,0,0,0-.68,2,2,0,0,0-2.23-2.24,1.87,1.87,0,0,0-2,2.13,3.92,3.92,0,0,0,.07.8Zm-4.66.68a10.22,10.22,0,0,1-.11-1.45A3,3,0,0,1,.7,51.1a2.41,2.41,0,0,1,1.89-.75,2.81,2.81,0,0,1,2,.76,3.27,3.27,0,0,1,.76,2.33,9.61,9.61,0,0,1-.06,1.24Z" style="fill: #151011"/>
        <path d="M5.35,49.49H1.57V48.8H5.35ZM.88,49.16a.42.42,0,0,1-.44.43A.43.43,0,0,1,0,49.14a.42.42,0,0,1,.44-.44.43.43,0,0,1,.44.44Z" style="fill: #151011"/>
        <path d="M4.65,47.75a1.89,1.89,0,0,0,.26-.91c0-.49-.24-.72-.56-.72s-.51.19-.69.69c-.25.68-.61,1-1.07,1a1.17,1.17,0,0,1-1.11-1.3,1.75,1.75,0,0,1,.24-.92l.49.17a1.58,1.58,0,0,0-.22.77c0,.4.24.62.52.62s.46-.22.65-.71c.24-.65.57-1,1.14-1s1.14.52,1.14,1.41a2.17,2.17,0,0,1-.26,1.06Z" style="fill: #151011"/>
        <path d="M2.6,44.58c-.4,0-.71,0-1,0V44l.62,0v0a1.4,1.4,0,0,1-.7-1.25c0-.52.31-1.33,1.61-1.33H5.35V42H3.17c-.61,0-1.12.23-1.12.88a1,1,0,0,0,.7.92,1.06,1.06,0,0,0,.32,0H5.35v.69Z" style="fill: #151011"/>
        <path d="M3.09,37.85A1,1,0,0,0,2,38.79a1.13,1.13,0,0,0,1.12,1.05Zm.49,2a1.21,1.21,0,0,0,1.31-1.29,2.53,2.53,0,0,0-.19-1l.49-.13a3.17,3.17,0,0,1,.24,1.26,1.76,1.76,0,0,1-1.9,1.86,1.84,1.84,0,0,1-2-1.78,1.59,1.59,0,0,1,1.78-1.55l.33,0Z" style="fill: #151011"/>
        <path d="M1.57,36.1l2.23-.82c.25-.1.55-.19.77-.26h0c-.23-.07-.51-.15-.79-.24L1.57,34v-.72l2.69,1a5.79,5.79,0,0,1,2.37,1.3,1.9,1.9,0,0,1,.44.84l-.58.17a1.57,1.57,0,0,0-.34-.6,2.16,2.16,0,0,0-.76-.58.51.51,0,0,0-.16-.05.4.4,0,0,0-.17.05L1.57,36.85Z" style="fill: #151011"/>
      </g>
      <polygon id="66b5c8ab-15b6-4cec-853a-6c109319adf9" data-name="1" points="206.93 69.29 206.93 84.22 219.99 72.96 219.99 118.77 234.07 118.77 234.07 58.02 219.99 58.02 206.93 69.29" style="fill: #fff"/>
      <path id="7b45af0a-1a6b-402f-91cb-dd05e2eb219e" data-name="0" d="M255.92,57.5c-10.13,0-19.66,6.41-19.66,19v23.89c0,12.54,9.53,18.93,19.66,18.93s19.66-6.39,19.66-18.93V76.46C275.59,63.91,266.07,57.5,255.92,57.5Zm5.59,42.93c0,4.26-2.57,6.22-5.59,6.22s-5.58-2-5.58-6.22v-24c0-4.27,2.58-6.31,5.58-6.31s5.59,2,5.59,6.31Z" style="fill: #fff"/>
      <path id="320d35d9-49c1-49d6-b825-6e9aa5d9c4ab" data-name="9" d="M342.73,57.5c-11,0-20.36,6.68-20.36,19.55,0,12,8.85,18.35,16.32,18.35a10.2,10.2,0,0,0,3.43-.43L330,118.77h15.45l11.76-24.05c2.84-5.72,5.84-11.44,5.84-17.67C363.07,64.18,353.72,57.5,342.73,57.5Zm0,26.45c-3.45,0-6.29-2.38-6.29-6.91s2.84-6.91,6.29-6.91S349,72.53,349,77.05,346.16,84,342.73,84Z" style="fill: #fff"/>
      <polygon id="80bb6266-1aca-47c3-a211-e51bd4570cf3" data-name="4" points="315.7 88.73 302.29 88.73 302.29 96.77 292.39 96.77 312.69 57.28 297.21 57.28 276.91 96.77 276.91 110.09 302.29 110.09 302.29 118.13 315.7 118.13 315.7 110.09 320.27 110.09 320.27 96.77 315.7 96.77 315.7 88.73" style="fill: #fff"/>
      <path d="M164.78,79.63c-11.13,0-20.21-6.5-20.21-14.44s9.08-14.44,20.21-14.44S185,57.23,185,65.18s-9.12,14.44-20.22,14.44m0-19.4a4.94,4.94,0,1,0,5,5,5,5,0,0,0-5-5" style="fill: #ff0600"/>
      <path d="M135.61,49c4.21,0,8.3-2.89,8.3-6.51S139.82,36,135.61,36s-7.51,2.88-7.51,6.46S131.47,49,135.61,49" style="fill: #ff0600"/>
      <rect x="128.83" y="51.97" width="13.7" height="26.65" style="fill: #ff0600"/>
      <path d="M112.7,38V51.84a33.57,33.57,0,0,0-3.68-.22c-10.91,0-19.81,6.37-19.81,14.17,0,7.54,6,13,17.09,13h19.13V38Zm-.06,32.32-2.29,0c-4.15,0-7-.56-7-4.88,0-3.79,2.83-5,7-5l2.29,0Z" style="fill: #ff0600"/>
      <path d="M69.87,78.79h9.44a28.38,28.38,0,0,1,7.07-3.43l.15-.06.17,0s.42-.07,1-.13V51.81s0,0,0,0v0H70.44c-10.55,0-19.14,6.16-19.14,13.68,0,6.42,7.91,13.3,18.57,13.3m3.46-18.21,2.29,0V61h0v9.33l-2.29,0c-4.14,0-7-.56-7-4.88,0-3.79,2.84-4.88,7-4.88" style="fill: #ff0600"/>
      <path d="M10.25,71.44a24.71,24.71,0,0,1,5.62-1.35,78.62,78.62,0,0,1,8.69-.5V59.68l7.25,10.74A79.46,79.46,0,0,1,55.75,78L43.85,59.49c4-2.74,6.64-6.93,6.64-11.65C50.48,39.69,42.59,33,32.91,33h-23V71.61l.39-.17M24.26,43h4.16c4.41,0,6.51,2.25,6.51,4.87s-2.1,5-6.51,5H24.26Z" style="fill: #ff0600"/>
    </g>
  </g>
</svg>
