<svg version="1.1" id="Layer_1" xmlns="http://www.w3.org/2000/svg" x="0" y="0" viewBox="0 0 616.3 124" xml:space="preserve"><style>.st0{fill:#fff}</style><path class="st0" d="M46.5 8.3H0v114h33.5V80.4l-.8-19.3h.3l15.5 44.4h25.2l15.6-44.4h.3l-.8 19.3v41.9h36.8V8.3H78.2l-8.3 26.9L63.7 58h-.4l-7.2-22.8-9.6-26.9zm527.1 52c7 0 7.5 7.9 7.5 20.2s-.5 20.1-7.5 20.1-7.5-7.9-7.5-20.1.4-20.2 7.5-20.2zm0 63.7c31 0 42.7-20 42.7-43.5s-11.7-43.6-42.7-43.6c-31.2 0-42.8 20-42.7 43.6s11.6 43.5 42.7 43.5zm-380-105.6L183.6 0l-28.5 18.4 8.4 13.5 30.1-13.5zm-30.8 41.1c5.5 0 8.9 2.8 8.9 7v3c-26 1.7-45.2 12.5-45.2 32.7 0 13.4 8.8 21.8 22.6 21.8 7.7 0 16.3-2.5 22.3-10h.4l3.4 8.4h30.1v-57c0-17.6-14.6-28.4-36.9-28.4-11 0-20.6 1-37.6 6.7l6.7 22.6c8.5-4.3 18.6-6.8 25.3-6.8zm8.9 37.6c-1.5 1.1-3.4 1.7-5.3 1.6-1.8 0-5.6-.8-5.5-5 0-4.4 4.2-7.6 10.9-8.4v11.8h-.1z"/><path class="st0" d="M279.7 94.6c0-26.4-35.2-26-35.2-32.7 0-2.1 2.4-2.5 3.7-2.5 7.2 0 18.9 3.5 24.8 5.8l4.5-24.1c-10.8-2.9-21.9-4.4-33-4.3C221.9 36.9 206 46 206 65c0 28.6 34.4 26.8 34.3 33.6 0 2.2-2.5 2.7-5 2.7-6.8 0-15-2.6-25.8-6l-5.2 24.4c9.4 2.6 23.4 4.2 36 4.2 23.6 0 39.4-9.7 39.4-29.3z"/><path class="st0" d="M322.9 122.3c38.5 0 55.2-24.1 55.2-57S361.4 8.4 322.9 8.4h-45.3v114l45.3-.1zm-10-30.1V38.5H323c11.7 0 18.4 6.7 18.4 26.8s-6.7 26.8-18.4 26.8h-10.1zm149-5.1c1-5.2 1.6-10.6 1.7-15.9 0-21-14.8-34.3-39.4-34.3-28.5 0-46.1 18.3-46.1 43.5s15.1 43.5 48.6 43.5c5.9 0 19.3-.8 31.8-5.8l-3.4-23.7c-6.9 2.8-14.3 4.3-21.8 4.3-14.2 0-18.9-5.8-20.1-11.7l48.7.1zm-38.6-28.5c6.3 0 8.4 3.6 8.4 7.6 0 1.1-.2 2.3-.5 3.3h-17.9c0-5.8 3.7-10.9 10-10.9z"/><path class="st0" d="M461.9 80.4c0 26.7 16.7 43.5 45.2 43.5 9.2-.1 18.3-1.6 27.1-4.4l-4.5-24.1c-8.4 2.5-12.6 3.3-18.4 3.3-9.2 0-14.3-6.6-14.3-18.3S502.1 62 511.3 62c5.8 0 10 .9 18.4 3.4l4.5-24.1c-8.8-2.8-17.9-4.3-27.1-4.3-28.4-.1-45.2 16.6-45.2 43.4z"/></svg>