<?xml version="1.0" encoding="utf-8"?>
<!-- Generator: Adobe Illustrator 23.0.1, SVG Export Plug-In . SVG Version: 6.00 Build 0)  -->
<svg version="1.1" id="Layer_1" xmlns="http://www.w3.org/2000/svg" xmlns:xlink="http://www.w3.org/1999/xlink" x="0px" y="0px"
	 viewBox="0 0 623.7 108.4" style="enable-background:new 0 0 623.7 108.4;" xml:space="preserve">
<title>Logo_Tendencias_black_sinLT_RGB</title>
<path d="M0,81V3.3h21.4v35.1h17.4v17.9H21.4v25.3c0,6.9,2.2,8.3,5.6,8.3c3.5,0,6.1-1.9,7.5-2.9l8.2,15.1c-3.4,2.7-9.1,6.2-19,6.2
	C9.9,108.4,0,101.5,0,81z"/>
<path d="M78.3,90.1c6.1,0,12.1-1.9,17.1-5.5l12.3,13.3c-6.6,5.8-14.9,10.1-29.1,10.1c-24.3,0.1-40-14.6-40.1-35.6
	C38.6,51.8,55,37,76.1,37c24.5,0,37.8,18.2,36.2,42l-51.7,0.1C62.8,86.2,68.5,90.2,78.3,90.1z M90.5,66.6c-1-7.5-5.8-12-14.3-12
	s-14.2,3.9-16,12H90.5z"/>
<path d="M301.8,90.1c6.1,0,12.1-1.9,17.1-5.5l12.4,13.3c-6.6,5.8-14.9,10.1-29.1,10.1c-24.3,0.1-40-14.6-40.1-35.6
	c0-20.6,16.4-35.4,37.5-35.4c24.5,0,37.8,18.2,36.2,42l-51.7,0.1C286.2,86.2,292,90.2,301.8,90.1z M314.1,66.6
	c-1-7.5-5.8-12-14.3-12s-14.2,3.9-16,12H314.1z"/>
<path d="M115.1,38.4h21.6l-0.5,11.2c4.2-8.2,12.2-12.6,21.6-12.6c14.9,0,25.6,10.9,25.6,30.2v39.4h-21.6V68.7c0-7.7-3.7-12-11.4-12
	c-8.6,0-13.8,4.8-13.8,13.4v36.5h-21.6V38.4z"/>
<path d="M185.6,72.3c0-21,14.1-35.4,30.6-35.4c10.9,0,17,4.3,21.3,11V3.3h21.6v103.3h-21.6l0.5-9.9c-3.8,7.2-11,11.4-21.4,11.4
	C199.9,108,185.6,93.3,185.6,72.3z M238.1,72.3c0-10.1-6.1-16.3-15.4-16.3c-9.1,0-14.9,6.2-14.9,16.3c0,10.7,5.8,16.8,14.9,16.8
	C232.1,89.2,238.1,83.1,238.1,72.3z"/>
<path d="M338.2,38.4h21.6l-0.5,11.2c4.2-8.2,12.2-12.6,21.6-12.6c14.9,0,25.6,10.9,25.6,30.2v39.4h-21.6V68.7c0-7.7-3.7-12-11.4-12
	c-8.6,0-13.8,4.8-13.8,13.4v36.5h-21.6V38.4z"/>
<path d="M408.6,72.3c0-20.7,16-35.4,37.3-35.4c13.6,0,21.8,5,28.7,13.6l-15.4,12.5c-3-4.5-7.9-7.2-13.3-7.2
	c-9.8,0-15.2,6.9-15.2,16.5c0,9.9,5.5,17,15.2,17c6.9,0,10.6-3.2,13.8-6.4l14.6,12.8c-6.7,7.5-14.7,12.3-28.3,12.3
	C424.6,108,408.6,93.3,408.6,72.3z"/>
<path d="M473.2,13.4C473.3,6,479.3,0,486.8,0c0.1,0,0.2,0,0.2,0c7.5-0.2,13.7,5.7,13.9,13.2c0.2,7.5-5.7,13.7-13.2,13.9
	c-0.2,0-0.5,0-0.7,0c-7.5,0.1-13.6-5.8-13.8-13.3C473.2,13.7,473.2,13.6,473.2,13.4z M476.1,38.4h21.6v68.2h-21.6V38.4z"/>
<path d="M532.3,54.7c-8.2,0-12.5,3.5-15.5,6.2l-12-12.8c6.4-6.2,13.6-11.2,29.6-11.2c17.4,0,30.7,9.4,30.7,30.9v38.7h-21.4l0.5-9.4
	C539,105,533.1,108,524,108c-12.5,0-24-5.6-24-21.4c0-14.6,11-20.5,27.8-20.5h15.8C543.3,58.3,539.5,54.7,532.3,54.7z M528.9,78.9
	c-5.4,0-7.8,2.4-7.8,6.2c0,3.8,3.2,6.1,9.3,6.1c8.8,0,13.3-3.8,13.3-9.6v-2.7L528.9,78.9z"/>
<path d="M564.6,95.1l12.6-11.2c4.5,4.5,10.6,7.1,17,7.2c7,0,9.3-1.3,9.3-4.2c0-3.7-4.3-3.7-15.4-6.6c-9.3-2.4-19.7-7.5-19.7-21.8
	c0-15.4,11.8-21.6,26.4-21.6c11.2,0,19.2,3.7,24.8,9.4l-11.5,12.3c-3.7-3.2-8.3-5-13.1-5.1c-5,0-7.4,1.3-7.4,4
	c0,3.8,4.3,4.3,13.6,6.4c9.9,2.2,22.4,6.9,22.4,21.3c0,12.5-6.6,22.7-28,22.7C579.8,108,570.5,102.1,564.6,95.1z"/>
</svg>
