<svg xmlns="http://www.w3.org/2000/svg" viewBox="0 0 712 118.4"><path d="M712 111.8c0-3.7-2.9-6.6-6.6-6.7-3.7 0-6.6 2.9-6.7 6.6s2.9 6.6 6.6 6.7c3.7 0 6.6-3 6.7-6.6zm-38.8 1.4c7-3.2 13.4-7.4 19.2-12.5V59h-45.3v3.6h41.7v36.8c-2.5 2.2-5.1 4.1-7.9 5.9-3 1.9-6.2 3.6-9.5 5-3.5 1.5-7.1 2.7-10.8 3.5-3.9.9-8 1.3-12 1.3-7.6.1-15.2-1.4-22.1-4.5-6.3-2.8-11.9-7-16.4-12.2-4.5-5.2-8-11.3-10.3-17.8-2.4-6.8-3.6-14-3.6-21.2V59c0-7 1.3-14 3.8-20.6 2.4-6.5 5.9-12.6 10.5-17.8 4.6-5.2 10.1-9.5 16.3-12.6 6.7-3.2 14.1-4.8 21.6-4.7 8.1 0 15 1.3 20.7 3.8 5.9 2.7 11.5 6.2 16.5 10.4l2.3-2.8c-2.7-2.3-5.5-4.4-8.5-6.3-2.9-1.8-5.9-3.3-9-4.6-3.2-1.3-6.6-2.2-10-2.8-3.9-.7-7.9-1-11.8-1-8-.1-16 1.6-23.3 5-6.7 3.2-12.7 7.6-17.6 13.2-4.9 5.5-8.7 11.9-11.1 18.9-2.6 7.1-3.9 14.6-3.9 22.1v.3c0 7.7 1.2 15.3 3.7 22.6 2.3 6.9 6.1 13.3 10.9 18.7 4.9 5.4 10.9 9.8 17.5 12.8 7.4 3.3 15.5 4.9 23.6 4.7 8.5.2 17-1.6 24.8-5.1zm-67.9 5.2L548.3 0h-3.2l-53.3 110.6V.9h-3.4l-51.6 72.8-39.7-56.1-1.7 3.5 41.3 58.4h.2L488.1 7v111.3h3.9L546.6 4.9l54.6 113.5h4.1zM385.4 28.6l14-28.6H250.6l-29.8 67.2L188.9 0h-33.7v118.3H189l-.1-59.7 23.3 59.7h16.3l23.3-59.7.1 59.7h33.5V28.6h32.2v-.1h.1v89.9h36.6V28.6h31.1zm.1 6.2h-3.7v83.6h3.7V34.8zM0 0v118.4h123.2V0H0zm60.6 97.2H14.8V21.8h11.9v64.9h34l-.1 10.5zm47.9-64.9H86v64.9H74.2V32.3H51.8V21.8h56.7v10.5z" fill="#fff"/></svg>