<svg id="Layer_1" data-name="Layer 1" xmlns="http://www.w3.org/2000/svg" viewBox="0 0 200 200.01"><title>Logo_Reportajes_corto_02_RGB</title><path d="M41.11,66.5H62.35L62,78.61c4.88-11,12.74-13.52,19.66-13.52a21.44,21.44,0,0,1,10.38,2.67L85.31,87.11a18.51,18.51,0,0,0-8.18-2c-9.59,0-14.78,4.41-14.78,18.72v29.73H41.11Z"/><path d="M125.26,117.31A29.09,29.09,0,0,0,142.09,112L154.2,125c-6.45,5.66-14.63,9.91-28.63,9.91-23.9,0-39.32-14.47-39.32-35.07,0-20.29,16.2-34.76,37-34.76,24.07,0,37.12,17.93,35.55,41.36H108C110,113.37,115.67,117.31,125.26,117.31Zm12.11-23.12c-.94-7.4-5.66-11.8-14-11.8s-14,3.77-15.73,11.8Z"/></svg>