<svg id="Layer_1" data-name="Layer 1" xmlns="http://www.w3.org/2000/svg" viewBox="0 0 272.84 286.65"><defs><style>.cls-1{fill:#f6911e;fill-rule:evenodd;}</style></defs><title>Logo_Beethoven_corto_02_RGB</title><path class="cls-1" d="M52.24,185.6c32.35,11.53,135,3.41,130.94-50.94-.86-11.36-19.55-34-33.78-20.49-9.09,8.67,18.61,24.23-4,34.23-9.93,4.4-26.68-7.07-25-19.81,2.46-18.57,32.52-30.25,45.47-28.43,21.43,3,33.51,23.3,32.93,41.91C196.64,211.68,87.85,207.23,52.24,185.6Z"/><path class="cls-1" d="M220.6,127.4a8.5,8.5,0,1,1-8.5-8.51A8.51,8.51,0,0,1,220.6,127.4Z"/><path class="cls-1" d="M220.6,158.62a8.5,8.5,0,1,1-8.5-8.5A8.5,8.5,0,0,1,220.6,158.62Z"/><path class="cls-1" d="M88.46,39.07s46.72,96.7,37.24,215.49c0,0-15.21-143.73-46.22-192.69S88.46,39.07,88.46,39.07Z"/></svg>