<?xml version="1.0" encoding="utf-8"?>
<!-- Generator: Adobe Illustrator 23.0.1, SVG Export Plug-In . SVG Version: 6.00 Build 0)  -->
<svg version="1.1" id="Layer_1" xmlns="http://www.w3.org/2000/svg" xmlns:xlink="http://www.w3.org/1999/xlink" x="0px" y="0px"
	 viewBox="0 0 200 200" style="enable-background:new 0 0 200 200;" xml:space="preserve">
<style type="text/css">
	.st0{clip-path:url(#SVGID_2_);}
	.st1{clip-path:url(#SVGID_4_);fill:#231F20;}
	.st2{clip-path:url(#SVGID_6_);fill:#16B2F4;}
	.st3{clip-path:url(#SVGID_6_);fill:#FD0001;}
	.st4{clip-path:url(#SVGID_6_);fill:#FFFFFF;}
	.st5{clip-path:url(#SVGID_8_);}
	.st6{clip-path:url(#SVGID_10_);fill:#FFFFFF;}
	.st7{clip-path:url(#SVGID_12_);fill:#00FFFF;}
	.st8{clip-path:url(#SVGID_12_);fill:#FD0001;}
	.st9{clip-path:url(#SVGID_12_);fill:#231F20;}
</style>
<title>Logo_Negocios_corto_02_RGB</title>
<g id="Mouse_Anaglyph_3_1_">
	<g>
		<defs>
			<rect id="SVGID_1_" x="2" y="2" width="196" height="196"/>
		</defs>
		<clipPath id="SVGID_2_">
			<use xlink:href="#SVGID_1_"  style="overflow:visible;"/>
		</clipPath>
		<g class="st0">
			<defs>
				<rect id="SVGID_3_" x="2" y="2" width="196" height="196"/>
			</defs>
			<clipPath id="SVGID_4_">
				<use xlink:href="#SVGID_3_"  style="overflow:visible;"/>
			</clipPath>
			<path class="st1" d="M198,100c0,54.1-43.9,98-98,98c-54.1,0-98-43.9-98-98S45.9,2,100,2C154.1,2,198,45.9,198,100"/>
		</g>
		<g class="st0">
			<defs>
				<ellipse id="SVGID_5_" transform="matrix(0.7071 -0.7071 0.7071 0.7071 -41.425 100.0014)" cx="100" cy="100" rx="98" ry="98"/>
			</defs>
			<clipPath id="SVGID_6_">
				<use xlink:href="#SVGID_5_"  style="overflow:visible;"/>
			</clipPath>
			<path class="st2" d="M117.2,104.8c0,0-0.1,0.4-0.2,1.1c-0.1,0.7,0.2,1.7-0.4,2.9c-0.9,1.2-1.8,2.7-0.7,4.4c0,0.8-0.3,1.7-0.5,2.6
				c-0.2,0.9-0.4,1.9-0.3,2.8c-2.6,0.6,0.6,1.3,0,2c0.3,0.7,0.7,1.3,0.7,2c0,0.7-0.4,1.4-1.6,2.1c-0.3,2.1,1.2,4.2-0.9,6.3
				c-3.6,2.1,1.2,4.1-0.9,6.1c-2.9,1.9,2.6,3.8-0.8,5.4c-7.3,1.7,2.6,3.2-0.7,4.4c0.1,1.2-1,2.3-0.4,2.9c1.4,0.7,1.4,1.1-0.2,1.1
				h2.1h4.5h6.6l9.4-62.7L117.2,104.8z"/>
			<path class="st2" d="M140.9,50.6h-2.1h-4.5h-4.5h-2.1c0.6,0-0.1,0.4-1.1,1.1c-0.5,0.4-0.6,0.8-1.2,1.3c-2.5,0.5-3.3,1-1.5,1.6
				c4.7,0.6-2.1,1.2-2,1.9c-1.5,0.7-4,1.4-1.7,2.1c-1.1,0.7-1.6,1.4-2.8,2.2c-1.2,0.7-2.1,1.5-1.3,2.2c-0.5,1.4-1.8,2.8-3.8,4
				c-2.3,1.2-2.3,2.2-2.8,2.9c-0.7,0.7-1.1,1.1-1.1,1.1L106,87.5L140.9,50.6z"/>
			<path class="st2" d="M90.9,50.6h-2.1h-4.5h-4.5h-2.1c-4.9,0,3.5,0.1-0.3,0.3c-5.2,0.2-1.9,0.6-0.9,1c5,0.4-0.1,1-1.5,1.6
				c-3.6,0.6-2.9,1.3-2,2.1c-0.9,0.4-0.7,0.8-0.7,1.3c0,0.4-0.2,0.9-1.8,1.4c1.4,0.5,1.3,1,0.9,1.5c0.7,0.5-2.2,1-3.8,1.6
				c-0.3,0.5-1.8,1.1-1.6,1.7c0.7,0.6-4.1,1.2-1.7,1.8c-5,0.5-0.3,1.1-1.7,1.6c-1.5,0.5-2.6,1.1-1.5,1.7c-0.1,0.6-0.4,1.1-2.8,1.7
				c-0.5,0.6-0.5,1.2-0.5,1.8c-3.9,1.2-5,2.4-3.5,3.7c-1.6,1.3,0.5,2.5-3.6,3.8c-3,1.3-3.1,2.6-3.7,4c-0.2,0.7-0.8,1.3-1.5,2
				c-0.8,0.7-1.6,1.4-2.3,2c-0.4,1.4-1.9,2.9-4.1,4.4c-3.4,1.5-1.9,2.9-4.1,4.4c-3.8,1.5-2.5,2.9-4.1,4.3c1.1,1.4-4.9,2.9-4,4.3
				c1,1.4-4.7,2.8-3.9,4.2c-5.1,1.4-1.1,2.7-3.8,4c-0.4,0.3-0.8,0.7-1.2,1c-0.4,0.3-0.5,0.6-1.1,1c-0.6,0.3-0.5,0.6-0.8,1
				c0.8,0.3-4.2,0.6-0.5,0.9c1.2,0.3-2,0.6-0.7,0.9c-3.3,0.3-0.1,0.6-1.1,0.9c1.1,0.3-2.9,0.6-0.8,0.9c-2.4,0.3,1.5,0.6-0.8,0.9
				c1.2,0.8,0.4,1.5-1.2,2.3c-2.6,0.7-3.7,1.4-2.9,2.1c-3.9,0.7-2.7,1.3-3,2c-0.1,0.6-5.4,1.2-0.6,1.8c3.7,0.6,0.8,1.1-1.5,1.7
				c-0.3,0.5-1.7,1-1.4,1.5c-1.3,0.5-2.6,0.9-2,1.3c-0.2,0.4-0.1,0.8-0.2,1.1c0,0.6,0.5,1.1-1.4,1.5c0.1,0.3-0.8,0.5-0.5,0.5
				c-1.5,0,0.5,0.6,1.4,1.6c3.4,3.9,11.8,13.6,11.8,13.6l6.9-7.3l-6.9-7.9L90.9,50.6z"/>
			<path class="st2" d="M67.1,104.8c0,0-0.2,1.5-0.6,4c-0.2,1.2,1.7,2.7-0.7,4.4c-0.2,1.7,1,3.5-0.8,5.4c0.5,1.9,0.6,4-0.9,6.1
				c-0.8,2.1-0.1,4.2-0.9,6.3c-6.3,2.1-9.5,4.1-0.9,6.1c-1.5,1.9-2.4,3.8-0.8,5.4c-2.7,1.7-3.6,3.2-0.7,4.4
				c-0.2,1.2-0.3,2.3-0.4,2.9c-0.1,0.7-0.2,1.1-0.2,1.1l0.3-0.3l0,0.3l15.4-16.3l6.9-46.4L67.1,104.8z"/>
			<path class="st3" d="M9.9,151.3l6.3,7.3c0,0,7.5-7.8,7.9-8.2c0.4-0.4,0.9-0.9,1.6-1.7c5-0.7,0.3-1.6,2.4-2.6
				c3.1-1,6.5-2.1,3.1-3.3c3-1.2-0.2-2.5,3.7-3.9c3-1.4,4.6-2.8,4-4.3c3.8-1.5,6.3-3,4.3-4.5c2.3-1.5-1.7-3.1,4.4-4.6
				c2.3-1.5,0.3-3,4.3-4.5c1.6-0.7,2.7-1.5,3.3-2.2c0-0.7,0.9-1.4,0.7-2.1c0.7-1.4,1.1-2.7,3.7-3.9c-4.4-1.2,2.1-2.3,3.1-3.3
				c-1.6-1,2.3-1.8,2.4-2.6c0.7-0.7,1.2-1.3,1.6-1.7c0.4-0.4,0.6-0.6,0.6-0.6l2.5-16.6L9.9,151.3z"/>
			<path class="st3" d="M108.5,70.9c0,0,0.1-0.6,0.2-1.5c-1.6-0.9,0.4-2.3,0.6-3.8c1.4-1.5,5.1-3.2,0.7-4.9c8.9-1.7-1.7-3.4,0.7-4.9
				c0.3-1.5,1.8-2.8,0.6-3.8c1.7-0.9,3.9-1.5,0.2-1.5h-2.1H105h-6.6l-5.5,36.9L108.5,70.9z"/>
			<path class="st3" d="M75.8,134.7l-2.4,16.3l0.3-0.3l0,0.3c0,0,0.2-0.2,0.5-0.5c0.3-0.3,1.3-0.8,1.3-1.4c-1.5-0.6,3.8-1.3,2-2.1
				c0.4-0.8,1.8-1.7,2.6-2.8c0.4-1-1.9-2.1,3.1-3.3c0.5-1.2,4.1-2.4,3.5-3.7c-1.2-1.3-0.5-2.6,3.7-3.9c0.3-1.3,0.5-2.7,3.9-4.1
				c-0.2-1.4,3.2-2.8,3.9-4.1c3.7-1.4,3.9-2.7,3.8-4.1c1.8-0.7-4-1.5,1.9-2.2c3-0.7,0.1-1.4,2.1-2.1c1.1-0.7,1.3-1.4,1.6-2
				c0-0.6,0.2-1.3,2-1.9c1-0.6,2-1.2,2.6-1.7c0.7-0.6,0.9-1.1,0.5-1.6c2.7-1,4.1-1.8,2.4-2.6c0.7-0.7,1.2-1.3,1.6-1.7
				c0.4-0.4,0.6-0.6,0.6-0.6l2.5-16.6L75.8,134.7z"/>
			<path class="st3" d="M148.5,50.6l-15,100.4h6.6h4.5h2.1c-0.7,0,0.2-0.4,0.2-1.2c0.3-0.8-0.7-1.9,0.5-3.2c3.3-1.3,3-2.9,0.7-4.7
				c-1.1-1.7,1.3-3.6,0.8-5.5c3.7-1.9,3.9-3.9,0.9-5.8c3.1-1.9,2.7-3.8,0.8-5.5c-2-1.7,2.6-3.3,2.5-4.7c2.1-1.3-3.1-2.4-1.3-3.2
				c0.3-0.8,4.6-1.2,5-1.2c-4.1,0-6.2-0.5-2.2-1.3c-0.5-0.8-1.9-2-0.7-3.4c3.4-1.4,0.6-3.1-0.5-4.8c0-1.8,1.7-3.7,2-5.5
				c1.6-1.9-0.8-3.8-0.4-5.5c2.6-1.8,0-3.4,0.7-4.8c0.7-1.4,3.8-2.6,0.5-3.4c1.9-0.8,2-1.3,0.2-1.3c4.5,0,1.6-0.4,0.2-1.2
				c1.8-0.8-0.9-1.9,0.5-3.2c5.9-1.3,0.4-2.9,0.7-4.7c0.3-1.7-0.5-3.6,0.8-5.5c3.3-1.9,2.9-3.9,0.9-5.8c4-1.9-4.2-3.8,0.8-5.5
				c0.8-1.7,2.4-3.3,0.7-4.7c-0.8-1.3-3.5-2.5,0.5-3.2c0.1-0.8,0.2-1.2,0.2-1.2H148.5z"/>
			<polygon class="st4" points="140.9,50.6 106,87.5 108.5,70.9 92.9,87.5 98.4,50.6 90.9,50.6 3.1,143.3 9.9,151.3 69.6,88.2 
				67.1,104.8 82.8,88.2 75.8,134.7 119.7,88.2 117.2,104.8 132.9,88.2 123.5,150.9 133.5,150.9 148.5,50.6 			"/>
		</g>
	</g>
</g>
<g id="Mouse_Anaglyph_4_1_">
	<g>
		<defs>
			<rect id="SVGID_7_" x="2" y="2" width="196" height="196"/>
		</defs>
		<clipPath id="SVGID_8_">
			<use xlink:href="#SVGID_7_"  style="overflow:visible;"/>
		</clipPath>
		<g class="st5">
			<defs>
				<rect id="SVGID_9_" x="2" y="2" width="196" height="196"/>
			</defs>
			<clipPath id="SVGID_10_">
				<use xlink:href="#SVGID_9_"  style="overflow:visible;"/>
			</clipPath>
			<path class="st6" d="M198,100c0,54.1-43.9,98-98,98c-54.1,0-98-43.9-98-98S45.9,2,100,2C154.1,2,198,45.9,198,100"/>
		</g>
		<g class="st5">
			<defs>
				
					<ellipse id="SVGID_11_" transform="matrix(0.7071 -0.7071 0.7071 0.7071 -41.425 100.0014)" cx="100" cy="100" rx="98" ry="98"/>
			</defs>
			<clipPath id="SVGID_12_">
				<use xlink:href="#SVGID_11_"  style="overflow:visible;"/>
			</clipPath>
			<path class="st7" d="M117.2,104.8c0,0-0.1,0.4-0.2,1.1c-0.1,0.7,0.2,1.7-0.4,2.9c-0.9,1.2-1.8,2.7-0.7,4.4c0,0.8-0.3,1.7-0.5,2.6
				c-0.2,0.9-0.4,1.9-0.3,2.8c-2.6,0.6,0.6,1.3,0,2c0.3,0.7,0.7,1.3,0.7,2c0,0.7-0.4,1.4-1.6,2.1c-0.3,2.1,1.2,4.2-0.9,6.3
				c-3.6,2.1,1.2,4.1-0.9,6.1c-2.9,1.9,2.6,3.8-0.8,5.4c-7.3,1.7,2.6,3.2-0.7,4.4c0.1,1.2-1,2.3-0.4,2.9c1.4,0.7,1.4,1.1-0.2,1.1
				h2.1h4.5h6.6l9.4-62.7L117.2,104.8z"/>
			<path class="st7" d="M140.9,50.6h-2.1h-4.5h-4.5h-2.1c0.6,0-0.1,0.4-1.1,1.1c-0.5,0.4-0.6,0.8-1.2,1.3c-2.5,0.5-3.3,1-1.5,1.6
				c4.7,0.6-2.1,1.2-2,1.9c-1.5,0.7-4,1.4-1.7,2.1c-1.1,0.7-1.6,1.4-2.8,2.2c-1.2,0.7-2.1,1.5-1.3,2.2c-0.5,1.4-1.8,2.8-3.8,4
				c-2.3,1.2-2.3,2.2-2.8,2.9c-0.7,0.7-1.1,1.1-1.1,1.1L106,87.5L140.9,50.6z"/>
			<path class="st7" d="M90.9,50.6h-2.1h-4.5h-4.5h-2.1c-4.9,0,3.5,0.1-0.3,0.3c-5.2,0.2-1.9,0.6-0.9,1c5,0.4-0.1,1-1.5,1.6
				c-3.6,0.6-2.9,1.3-2,2.1c-0.9,0.4-0.7,0.8-0.7,1.3c0,0.4-0.2,0.9-1.8,1.4c1.4,0.5,1.3,1,0.9,1.5c0.7,0.5-2.2,1-3.8,1.6
				c-0.3,0.5-1.8,1.1-1.6,1.7c0.7,0.6-4.1,1.2-1.7,1.8c-5,0.5-0.3,1.1-1.7,1.6c-1.5,0.5-2.6,1.1-1.5,1.7c-0.1,0.6-0.4,1.1-2.8,1.7
				c-0.5,0.6-0.5,1.2-0.5,1.8c-3.9,1.2-5,2.4-3.5,3.7c-1.6,1.3,0.5,2.5-3.6,3.8c-3,1.3-3.1,2.6-3.7,4c-0.2,0.7-0.8,1.3-1.5,2
				c-0.8,0.7-1.6,1.4-2.3,2c-0.4,1.4-1.9,2.9-4.1,4.4c-3.4,1.5-1.9,2.9-4.1,4.4c-3.8,1.5-2.5,2.9-4.1,4.3c1.1,1.4-4.9,2.9-4,4.3
				c1,1.4-4.7,2.8-3.9,4.2c-5.1,1.4-1.1,2.7-3.8,4c-0.4,0.3-0.8,0.7-1.2,1c-0.4,0.3-0.5,0.6-1.1,1c-0.6,0.3-0.5,0.6-0.8,1
				c0.8,0.3-4.2,0.6-0.5,0.9c1.2,0.3-2,0.6-0.7,0.9c-3.3,0.3-0.1,0.6-1.1,0.9c1.1,0.3-2.9,0.6-0.8,0.9c-2.4,0.3,1.5,0.6-0.8,0.9
				c1.2,0.8,0.4,1.5-1.2,2.3c-2.6,0.7-3.7,1.4-2.9,2.1c-3.9,0.7-2.7,1.3-3,2c-0.1,0.6-5.4,1.2-0.6,1.8c3.7,0.6,0.8,1.1-1.5,1.7
				c-0.3,0.5-1.7,1-1.4,1.5c-1.3,0.5-2.6,0.9-2,1.3c-0.2,0.4-0.1,0.8-0.2,1.1c0,0.6,0.5,1.1-1.4,1.5c0.1,0.3-0.8,0.5-0.5,0.5
				c-1.5,0,0.5,0.6,1.4,1.6c3.4,3.9,11.8,13.6,11.8,13.6l6.9-7.3l-6.9-7.9L90.9,50.6z"/>
			<path class="st7" d="M67.1,104.8c0,0-0.2,1.5-0.6,4c-0.2,1.2,1.7,2.7-0.7,4.4c-0.2,1.7,1,3.5-0.8,5.4c0.5,1.9,0.6,4-0.9,6.1
				c-0.8,2.1-0.1,4.2-0.9,6.3c-6.3,2.1-9.5,4.1-0.9,6.1c-1.5,1.9-2.4,3.8-0.8,5.4c-2.7,1.7-3.6,3.2-0.7,4.4
				c-0.2,1.2-0.3,2.3-0.4,2.9c-0.1,0.7-0.2,1.1-0.2,1.1l0.3-0.3l0,0.3l15.4-16.3l6.9-46.4L67.1,104.8z"/>
			<path class="st8" d="M9.9,151.3l6.3,7.3c0,0,7.5-7.8,7.9-8.2c0.4-0.4,0.9-0.9,1.6-1.7c5-0.7,0.3-1.6,2.4-2.6
				c3.1-1,6.5-2.1,3.1-3.3c3-1.2-0.2-2.5,3.7-3.9c3-1.4,4.6-2.8,4-4.3c3.8-1.5,6.3-3,4.3-4.5c2.3-1.5-1.7-3.1,4.4-4.6
				c2.3-1.5,0.3-3,4.3-4.5c1.6-0.7,2.7-1.5,3.3-2.2c0-0.7,0.9-1.4,0.7-2.1c0.7-1.4,1.1-2.7,3.7-3.9c-4.4-1.2,2.1-2.3,3.1-3.3
				c-1.6-1,2.3-1.8,2.4-2.6c0.7-0.7,1.2-1.3,1.6-1.7c0.4-0.4,0.6-0.6,0.6-0.6l2.5-16.6L9.9,151.3z"/>
			<path class="st8" d="M108.5,70.9c0,0,0.1-0.6,0.2-1.5c-1.6-0.9,0.4-2.3,0.6-3.8c1.4-1.5,5.1-3.2,0.7-4.9c8.9-1.7-1.7-3.4,0.7-4.9
				c0.3-1.5,1.8-2.8,0.6-3.8c1.7-0.9,3.9-1.5,0.2-1.5h-2.1H105h-6.6l-5.5,36.9L108.5,70.9z"/>
			<path class="st8" d="M75.8,134.7l-2.4,16.3l0.3-0.3l0,0.3c0,0,0.2-0.2,0.5-0.5c0.3-0.3,1.3-0.8,1.3-1.4c-1.5-0.6,3.8-1.3,2-2.1
				c0.4-0.8,1.8-1.7,2.6-2.8c0.4-1-1.9-2.1,3.1-3.3c0.5-1.2,4.1-2.4,3.5-3.7c-1.2-1.3-0.5-2.6,3.7-3.9c0.3-1.3,0.5-2.7,3.9-4.1
				c-0.2-1.4,3.2-2.8,3.9-4.1c3.7-1.4,3.9-2.7,3.8-4.1c1.8-0.7-4-1.5,1.9-2.2c3-0.7,0.1-1.4,2.1-2.1c1.1-0.7,1.3-1.4,1.6-2
				c0-0.6,0.2-1.3,2-1.9c1-0.6,2-1.2,2.6-1.7c0.7-0.6,0.9-1.1,0.5-1.6c2.7-1,4.1-1.8,2.4-2.6c0.7-0.7,1.2-1.3,1.6-1.7
				c0.4-0.4,0.6-0.6,0.6-0.6l2.5-16.6L75.8,134.7z"/>
			<path class="st8" d="M148.5,50.6l-15,100.4h6.6h4.5h2.1c-0.7,0,0.2-0.4,0.2-1.2c0.3-0.8-0.7-1.9,0.5-3.2c3.3-1.3,3-2.9,0.7-4.7
				c-1.1-1.7,1.3-3.6,0.8-5.5c3.7-1.9,3.9-3.9,0.9-5.8c3.1-1.9,2.7-3.8,0.8-5.5c-2-1.7,2.6-3.3,2.5-4.7c2.1-1.3-3.1-2.4-1.3-3.2
				c0.3-0.8,4.6-1.2,5-1.2c-4.1,0-6.2-0.5-2.2-1.3c-0.5-0.8-1.9-2-0.7-3.4c3.4-1.4,0.6-3.1-0.5-4.8c0-1.8,1.7-3.7,2-5.5
				c1.6-1.9-0.8-3.8-0.4-5.5c2.6-1.8,0-3.4,0.7-4.8c0.7-1.4,3.8-2.6,0.5-3.4c1.9-0.8,2-1.3,0.2-1.3c4.5,0,1.6-0.4,0.2-1.2
				c1.8-0.8-0.9-1.9,0.5-3.2c5.9-1.3,0.4-2.9,0.7-4.7c0.3-1.7-0.5-3.6,0.8-5.5c3.3-1.9,2.9-3.9,0.9-5.8c4-1.9-4.2-3.8,0.8-5.5
				c0.8-1.7,2.4-3.3,0.7-4.7c-0.8-1.3-3.5-2.5,0.5-3.2c0.1-0.8,0.2-1.2,0.2-1.2H148.5z"/>
			<polygon class="st9" points="140.9,50.6 106,87.5 108.5,70.9 92.9,87.5 98.4,50.6 90.9,50.6 3.1,143.3 9.9,151.3 69.6,88.2 
				67.1,104.8 82.8,88.2 75.8,134.7 119.7,88.2 117.2,104.8 132.9,88.2 123.5,150.9 133.5,150.9 148.5,50.6 			"/>
		</g>
	</g>
</g>
</svg>
