<svg xmlns="http://www.w3.org/2000/svg" viewBox="0 0 636.8 244.5"><path d="M547.6 244.5H89.2c-38.5 0-69.9-33.3-69.9-74.2v-22.7c-1.5-10.8-8.5-19.9-18.6-24.2-.5-.2-.8-.7-.8-1.2s.3-1 .8-1.2c10-4.2 17.1-13.4 18.6-24.1V74.1C19.4 33.2 50.7 0 89.2 0h458.4c38.5 0 69.8 33.3 69.8 74.2v22.7c1.5 10.8 8.6 19.9 18.6 24.1.5.2.8.7.8 1.2s-.3 1-.8 1.2c-10 4.2-17.1 13.4-18.6 24.2v22.7c0 40.9-31.3 74.2-69.8 74.2" fill="#1d1d1b"/><path d="M146.5 123.6l-3.8-73.5h-.2c-1.1 7.8-3.5 19.7-5.5 27.8l-11.4 45.7h-18l-11-45.7c-1.9-8.1-4.3-20-5.4-27.8H91l-4.3 73.5H72.2l6.9-86.5h21l12 48.8c2 8.3 3.6 16.8 4.8 25.3h.2c1.1-7.1 2.8-16.4 5-25.3l11.7-48.8h20.7l6.7 86.5m14.5 0V37.2h45v12.2h-29.9v23.5h26.8v12.5h-26.8v25.9h29.9v12.3M257 76c10.2 0 13.4-3.6 13.4-14.2 0-10-4.2-12.4-11.6-12.4h-8.5V76m24.6 47.6l-8-24.7c-2.4-7.6-5.6-11-11.3-11h-5.2v35.6h-15.1V37.2h24.4c18.2 0 26.6 8.7 26.6 23.9 0 12.5-6.6 20-16.2 21.8v.2c6 3.4 9.5 8.1 12.6 16.7l8.6 23.8h-16.4zm73.8-1.9c-5.5 1.9-11.3 2.8-17.1 2.9-20 0-32.6-13.5-32.6-44.3 0-30.4 12.6-44.1 32.6-44.1 5.8.1 11.6 1.1 17.1 2.9v10.3h-14.5c-13.6 0-19.4 9.3-19.4 30.9s6.1 30.9 19.4 30.9h14.5M393 70.3c-1.5-5.8-3.6-14.2-5.1-20.9h-.2c-1.5 6.7-3.6 15.2-5.1 20.8l-4.1 16.5h18.7m9.6 36.9l-6.4-24.5h-25.1l-6.3 24.5h-15.3l24.7-86.5h19.9l24.4 86.5h-15.9zm50.8-12.3c8.4 0 18.1-3.6 18.1-30.9s-9.6-30.9-18.1-30.9h-10v61.8m-15 12.3V37.2h25.5c21.6 0 33.7 16.4 33.7 43.2s-12.1 43.3-33.7 43.3h-25.5zm118.5-43.4c0-25-5.4-31.9-16.3-31.9-10.5 0-16.4 6.9-16.4 31.9 0 25.4 5.9 32.2 16.4 32.2 10.9 0 16.3-6.8 16.3-32.2m-48.6 0c0-34.8 15.9-44.4 32.3-44.4s32.3 9.6 32.3 44.4c0 32.8-13 44.8-32.3 44.8s-32.3-12-32.3-44.8m64.6 64H72.2c-.7 0-1.3-.6-1.3-1.3 0-.7.6-1.3 1.3-1.3h494.9c.7 0 1.3.6 1.3 1.3 0 .7-.6 1.3-1.3 1.3m-305.9 72.5h10.2v-11.1h-10.2v11.1zm-18.9-14.6c0 5.2-5.5 7.5-9.9 7.5-3.4 0-6-2-6-5.1 0-3.9 2.9-4.9 6.4-5.6l5.1-1.1c1.5-.3 3-.8 4.4-1.4v5.7zm9.3-13.8c0-11.6-8.3-13.4-16.6-13.4-8.5 0-16.4 3.7-16.4 13.3l9.3.4c0-4.4 1.8-6.1 7.2-6.1 4 0 7.3 1.1 7.3 5.2v1.2c-3.3 1-6.6 1.8-10 2.4l-3.9.8c-5.7 1.2-11.7 4.8-11.7 12.8s5.8 12.8 13.1 12.8c4.6 0 9.1-1.6 12.5-4.6 0 1.3.3 2.6.9 3.7h9.8c-.5-.9-1.5-2.7-1.5-6.9v-21.6zM201 216.7h9.3v-57.5H201v57.5zm-9.1-40.9h-9.3v22c0 4.9-2.1 10.3-9.1 10.3-4.7 0-6.9-2.4-6.9-8.1v-24.3h-9.3v27.1c0 11.9 7.5 14.8 14.1 14.8 5.2 0 9-2.2 11-5h.1v4h9.3l.1-40.8zm-52.5 26.3c0 5.2-5.6 7.5-9.9 7.5-3.3 0-6-2-6-5.1 0-3.9 2.9-4.9 6.4-5.6l5.1-1.1c1.5-.3 3-.8 4.4-1.4v5.7zm9.3-13.8c0-11.6-8.3-13.4-16.6-13.4-8.4 0-16.4 3.7-16.4 13.3l9.3.4c0-4.4 1.8-6.1 7.2-6.1 4 0 7.3 1.1 7.3 5.2v1.2c-3.3 1-6.7 1.8-10.1 2.4l-3.9.8c-5.7 1.2-11.7 4.8-11.7 12.8s5.8 12.8 13.1 12.8c4.6.1 9.1-1.6 12.6-4.6 0 1.3.3 2.6.9 3.7h9.9c-.5-.9-1.4-2.7-1.4-6.9l-.2-21.6zm-68.1-20h9.7c5.9 0 9.9 2.4 9.9 10.3 0 5.6-3.1 9.7-9.5 9.7H80.6v-20zm-10.2 48.4h10.2v-19.4h12c10.7 0 18.3-7.4 18.3-18.7 0-11.1-6.2-19.4-18.9-19.4H70.4v57.5zm256-.7H319l-1.5-7.8s-1.6 8.7-13.6 8.7c-14.5 0-23.4-9.7-23.2-28.2.2-16.8 9.7-25.9 23.6-25.9 16.7 0 20.6 13.5 20.6 13.5l-9.3 2.9s-1.2-7.2-11.5-7.2c-11.9 0-13.1 11.9-13.1 17.6 0 4.6 1.1 9.8 3.2 12.8 4.7 6.5 14.9 6.5 19.3 2.4 3.2-3 3-9.1 3-9.1h-10.8l-.1-9.4 20.7.1v1.8l.1 27.8zm42.8-19.2c0 8.5-3.3 19.7-18.8 20-9.5.2-18.4-6.2-18.7-19.7-.4-14.7 10.6-20.4 18.1-20.4 12.5 0 19.4 9 19.4 20.1m-10.8-.4c0-8.1-3.6-12.4-8.6-12.2-4.7.2-7.5 4.8-7.5 11.1 0 6.5 2.4 12.8 7.6 12.8 5.8.1 8.5-3.6 8.5-11.7m15.3-18.5h10.5l.1 20.8c0 8.3 2.7 10.8 6.9 10.2 3.1-.3 5.6-2.5 6.4-5.5.6-1.9.5-3.8.5-9v-16.6h10.3v38h-10v-5.4s-2.6 6.1-11 6.1c-6.1 0-11.3-2.8-12.9-10.2-.6-3.9-.8-7.9-.7-11.9l-.1-16.5zm58.4 8.1c-3 .4-5.5 2.5-6.3 5.4-.6 1.9-.5 2.9-.5 8v16.5H415v-38.2h10v5.6s2.6-6 10.9-6c4 0 5.7 1.1 5.7 1.1l-3.9 8.7c-1.6-1-3.6-1.4-5.6-1.1m70.8 29.8h-10.5l-.2-20.8c0-8.3-2.1-11.2-6.5-10.6-3.1.7-5.4 3.2-6.1 6.3-.3 1.7-.2 3.4-.2 8.6v16.6l-9.8-.1-.1-20.8c0-8.2-2.7-10.7-6.5-10.2-3.1.3-5.6 2.5-6.4 5.5-.6 1.9-.5 3.8-.5 9v16.6h-10.3v-38h10v5.4s2.6-6.1 11-6.1c4.8 0 9 1.7 11.4 6.1 0 0 2.6-6.1 11-6.1 6.2 0 11.3 2.8 12.9 10.2.6 3.9.8 7.9.7 11.9l.1 16.5zm30.5-15.5h-15.6c.3 4.6 3.7 8 7.5 8 3.3.2 6.3-1.5 7.9-4.4l8.7 4.2s-3.7 8.8-16.2 8.7c-7.7-.1-12.9-3.4-16.1-9.2-2.9-5.1-3.5-16 .4-22.1 3.2-5.4 9-8.6 15.3-8.4 7.2 0 11.6 2.6 14.8 8.3 3.1 5.5 2.9 14.9 2.9 14.9h-9.6zm-.6-7.5c-.3-3.9-2.5-7.7-7.4-7.7-4.4 0-7 3.6-7.5 7.7h14.9zm28.1 11.1c.6 4.6 7.3 2.5 7.3 2.5l1.5 9.6c-17.2 3.3-19.1-6.1-19.1-12.6V190l.2-3.9-5.5.2v-8.8l5.5.1-.1-5.5v-6.5l10.1-2.1v8.7l-.2 5.5 4.3-.1h4v8.8h-4.4l-3.9-.2.2 4.9v7.1c0 1.8.1 3.7.1 5.7" fill="#fff"/></svg>