<svg id="Layer_1" data-name="Layer 1" xmlns="http://www.w3.org/2000/svg" viewBox="0 0 790.88 252.22"><defs><style>.cls-1{fill:#df4a92;}.cls-2{fill:#fff;}.cls-3{fill:#0092d1;}</style></defs><title>Logo_LaHora_color_original_RGB</title><rect class="cls-1" x="449.35" y="0.29" width="341.54" height="251.93"/><polygon class="cls-2" points="601.55 87.87 595.59 87.87 595.59 56.9 584.19 56.9 584.19 51.32 612.91 51.32 612.91 56.9 601.55 56.9 601.55 87.87"/><path class="cls-2" d="M622,72.64c0,7.07,2.82,10.68,8.21,10.68s8.11-3.66,8.11-10.84V51.32h5.29V72.59c0,10.68-5.48,16.47-13.54,16.47-8.83,0-14.08-5.68-14.08-16.37V51.32h6Z"/><path class="cls-2" d="M588.24,103.71h10.07c7.49,0,11.26,3.25,11.26,9.29a7.74,7.74,0,0,1-5.35,7.74c3.87,1,6.11,4.29,6.11,8.83,0,7.18-4.3,10.69-12.93,10.69h-9.16Zm9.21,15.18c4,0,6.3-2.12,6.3-5.42,0-3.46-2.15-4.91-6.54-4.91H594v10.33Zm.71,16.26c4,0,6.3-2.13,6.3-5.84,0-3.51-2.19-5.57-6.34-5.57H594v11.41Z"/><path class="cls-2" d="M621.64,125c0,7.07,2.82,10.68,8.21,10.68s8.11-3.66,8.11-10.84V103.71h5.29V125c0,10.68-5.48,16.46-13.55,16.46-8.82,0-14.07-5.68-14.07-16.36V103.71h6Z"/><polygon class="cls-2" points="650.27 103.71 669.93 103.71 669.93 109.34 656.05 109.34 656.05 118.32 667.97 118.32 667.97 123.89 656.05 123.89 656.05 134.58 670.17 134.58 670.17 140.26 650.27 140.26 650.27 103.71"/><polygon class="cls-2" points="676.04 102.52 676.66 102.52 698.42 126.94 698.42 103.71 704.19 103.71 704.19 141.44 703.57 141.44 681.77 117.03 681.77 140.26 676.04 140.26 676.04 102.52"/><path class="cls-2" d="M706.54,140.26l16.6-37.74h.47l16,37.74h-6.26l-2.71-6.51H715.31l-2.76,6.51Zm22-11.72-5.49-13.63-5.58,13.63Z"/><polygon class="cls-2" points="588.24 154.91 588.86 154.91 610.62 179.33 610.62 156.1 616.39 156.1 616.39 193.83 615.77 193.83 593.97 169.42 593.97 192.64 588.24 192.64 588.24 154.91"/><path class="cls-2" d="M625,162.35a16.08,16.08,0,0,1,13.31-7.44,15.76,15.76,0,0,1,11.88,5.58,20.72,20.72,0,0,1,4.92,13.88,20.49,20.49,0,0,1-4.92,13.83,15.34,15.34,0,0,1-23.71.05,20.45,20.45,0,0,1-5-13.88,21.2,21.2,0,0,1,3.48-12m13.31,25.29c6,0,10.74-5.57,10.74-13.27s-4.73-13.27-10.74-13.27-10.68,5.58-10.68,13.27,4.72,13.27,10.68,13.27"/><polygon class="cls-2" points="673.51 192.64 667.55 192.64 667.55 161.67 656.15 161.67 656.15 156.1 684.87 156.1 684.87 161.67 673.51 161.67 673.51 192.64"/><rect class="cls-2" x="688.4" y="156.1" width="5.97" height="36.54"/><path class="cls-2" d="M716.65,193.83a15.87,15.87,0,0,1-10.5-4c-4.15-3.62-6.53-9.09-6.53-15.49,0-11.25,7.39-19.51,17.17-19.51a16,16,0,0,1,9.92,3.46l-.62,7.12c-2.67-3.09-5.58-4.64-8.92-4.64-6.58,0-11.45,5.47-11.45,13.52,0,7.69,4.63,13.26,11.12,13.26,3.77,0,7-1.8,10.3-5.41l-.33,8.1a16.5,16.5,0,0,1-10.16,3.56"/><rect class="cls-2" x="732.11" y="156.1" width="5.97" height="36.54"/><path class="cls-2" d="M740.56,192.64l16.6-37.72h.48l16,37.72h-6.25l-2.72-6.5H749.34l-2.77,6.5Zm22-11.72-5.48-13.62-5.59,13.62Z"/><path class="cls-3" d="M0,0H450.13c67.15,0,121.59,56.46,121.59,126.11S517.28,252.22,450.13,252.22H0"/><path class="cls-2" d="M377.71,136.88q0,26.3-12.14,43.41T334.72,197.4q-18.87,0-30.92-17t-12.07-43.28q0-25.62,12.22-42t31.24-16.43q18.24,0,30.38,16.66t12.14,41.58m-30.6.91q0-39-12.57-39c-3.79,0-6.82,3.51-9.05,10.52s-3.37,16.43-3.37,28.22q0,18.15,3.37,28.9c2.23,7.17,5.26,10.76,9.05,10.76q6,0,9.28-10.43c2.19-6.95,3.29-16.59,3.29-29"/><path class="cls-2" d="M442.49,87.63l-8.26,33.54a15.23,15.23,0,0,0-9.18-3c-7.23,0-12,5.07-14.29,15.19-.89,3.76-1.35,11-1.35,21.74v39.41H379.73V81.31h29.68v26.26l2.27-7.24q6.75-21.78,15.92-21.77c4.42,0,9.37,3,14.89,9.07"/><path class="cls-2" d="M512.72,194.63H481.27a68.21,68.21,0,0,1-1.06-12.44q-10.63,15.21-23.37,15.21-9,0-15.73-10.2T434.38,163q0-18.54,10.6-31.24c5.09-6.05,13.08-10.8,24.06-14.27l12.11-3.84q-4.2-11.34-13.29-11.35t-18.54,12.2L441,94.29q15.87-15.63,34.3-15.65,20.69,0,29.51,17.46Q510,106.5,510,132.79v26.29q0,22.66,2.69,35.55m-31.57-48V136.44q-1.8.66-6.29,2.48c-8.89,3.62-13.3,9.68-13.3,18.12a17.43,17.43,0,0,0,2.38,9.17c1.58,2.64,3.4,4,5.39,4a8.86,8.86,0,0,0,5.92-2.72,16.17,16.17,0,0,0,4.25-7.25,49.41,49.41,0,0,0,1.65-13.6"/><polygon class="cls-2" points="290.55 194.55 262.24 194.55 262.24 128.98 231.85 128.98 231.85 194.55 203.43 194.55 203.43 51.16 231.85 51.16 231.85 101.58 262.24 101.58 262.24 51.16 290.55 51.16 290.55 194.55"/><polygon class="cls-2" points="79.72 169.13 79.72 50.44 50.02 50.44 50.02 194.64 66.27 194.64 66.27 194.65 104.72 194.65 104.72 169.13 79.72 169.13"/><path class="cls-2" d="M176.89,194.63H145.43a68.33,68.33,0,0,1-1-12.44Q133.75,197.4,121,197.4c-6,0-11.24-3.41-15.73-10.2S98.56,172.34,98.56,163q0-18.54,10.61-31.24,7.64-9.08,24-14.27l12.1-3.84q-4.19-11.34-13.29-11.35t-18.53,12.2l-8.36-20.16Q121,78.66,139.46,78.64q20.67,0,29.5,17.46,5.25,10.4,5.24,36.69v26.29q0,22.66,2.69,35.55m-31.57-48V136.44c-1.2.44-3.29,1.27-6.29,2.48-8.88,3.62-13.31,9.68-13.31,18.12a17.26,17.26,0,0,0,2.4,9.17c1.6,2.64,3.39,4,5.38,4a8.78,8.78,0,0,0,5.91-2.72,16,16,0,0,0,4.27-7.25,49.06,49.06,0,0,0,1.64-13.6"/></svg>