<svg id="Layer_1" data-name="Layer 1" xmlns="http://www.w3.org/2000/svg" viewBox="0 0 273.75 200.01"><title>Logo_MasDeco_corto_RGB</title><polygon points="67.8 43.01 21.27 43.01 21.27 156.96 54.75 156.96 54.75 115.11 53.96 95.8 54.27 95.8 69.8 140.19 94.96 140.19 110.56 95.8 110.91 95.8 110.04 115.11 110.04 157 146.88 156.96 146.91 43.01 99.51 43.01 91.16 69.85 84.94 92.66 84.56 92.66 77.34 69.85 67.8 43.01 67.8 43.01"/><path d="M197.24,157c38.48,0,55.24-24.14,55.24-57s-16.76-57-55.24-57H152l.05,114,45.19,0Zm-10.07-30.18V73.19h10.07c11.66,0,18.39,6.68,18.37,26.79s-6.71,26.84-18.37,26.84Z"/></svg>