<svg id="Layer_1" data-name="Layer 1" xmlns="http://www.w3.org/2000/svg" viewBox="0 0 590.57 346.1"><title>Logo_Laboratorio_corto_RGB</title><path d="M372.78,251.44c-5.32-2.25-7-6.14-5.94-11.15a77.67,77.67,0,0,1,3.73-13c9.55-23.51,19.28-46.93,29-70.37a24,24,0,0,1,3.18-5.93c5.35-6.64,10.69-6.11,13.2,1.84,3.76,11.9,6.65,24.07,9.91,36.14,1,3.88,2.06,7.78,3.09,11.67l2.49.35c2.81-6.3,5.65-12.59,8.42-18.91,5.32-12.12,10.48-24.33,16-36.36a21,21,0,0,1,5.66-7c6.11-5.09,12.22-4.65,16.17,2.35,4.8,8.5,9.19,17.53,11.84,26.88,3.49,12.3,5.5,25.07,7.35,37.76.95,6.5-1.43,12.74-6,17.74-4.21,4.63-9,3.81-11.48-2.07-1-2.39-1.1-5.16-1.57-7.77-1.61-8.92-2.69-18-4.95-26.71-1.68-6.48-4.86-12.57-8.32-21.19-3,6-5.18,10.1-7,14.35-6.08,13.88-11.74,27.95-18.21,41.64-2,4.23-5.67,7.93-9.27,11.09-5.42,4.78-10.38,4-13.85-2.39-2.68-4.93-4.33-10.5-5.85-16-2.22-8-3.91-16.12-6.39-26.55-5,11.63-9.29,21.18-13.27,30.85-2.89,7-5.26,14.2-8.12,21.2C380.58,244.76,378.28,249.6,372.78,251.44Z"/><path d="M131.8,92c4.65,2.56,5.67,6,5.53,11.3-.33,12.49-6.09,23.37-9.07,35-4.38,17.14-9.43,34.1-14,51.19-1.17,4.37-1.65,8.93-2.4,13.41-1.21,7.34.26,10.73,7.25,11.39a324.18,324.18,0,0,0,38.41,1.44c8.2-.22,11.13,1.74,9.82,9.82-2.28,14.08-9.37,20.24-22.92,19.66-9.45-.4-18.9-1-28.34-1.62-12.75-.87-24.11-8.66-22.43-25.45a338.49,338.49,0,0,1,11.51-58.78c5.15-18.15,10.13-36.35,15.53-54.43C122.39,99.22,125.12,93.75,131.8,92Z"/><path d="M306.85,221.61c5.24,3.81,4.62,7.93,1.58,12.1-14,19.22-25.32,26.93-51.37,14.14-12.8-6.29-21.1-18.49-22.07-33.69-1-16,.49-31.69,8.23-46.39,5.16-9.8,14-14.62,23.16-19,2.44-1.18,6-.63,8.89-.09,6.46,1.21,8.29,4.74,5.45,10.65-4.17,8.7-9.85,15.58-21.23,13.42C255.84,190,254,205.61,267.15,219c9.94,10.11,22.23,11.88,34.78,4.72A44.44,44.44,0,0,1,306.85,221.61Z"/></svg>