<?xml version="1.0" encoding="utf-8"?>
<!-- Generator: Adobe Illustrator 23.0.1, SVG Export Plug-In . SVG Version: 6.00 Build 0)  -->
<svg version="1.1" id="Layer_1" xmlns="http://www.w3.org/2000/svg" xmlns:xlink="http://www.w3.org/1999/xlink" x="0px" y="0px"
	 viewBox="0 0 395.1 395.1" style="enable-background:new 0 0 395.1 395.1;" xml:space="preserve">
<style type="text/css">
	.st0{fill:#00C7BD;}
	.st1{fill:#FFFFFF;}
</style>
<title>Logo_QuePasa_circulo_original_RGB</title>
<path class="st0" d="M395.1,197.5c0,109.1-88.4,197.5-197.5,197.5S0,306.6,0,197.5S88.4,0,197.5,0S395.1,88.4,395.1,197.5"/>
<path class="st1" d="M243.5,218.9c1.1-1.3,1.9-5,1.9-8.6c0-8.2,0.2-31.2,0-39c0-3-0.7-5.6-3-6.3c-1.7-0.7-3.5-1.2-5.4-1.5
	c-2.4-0.6-3.4-1.5-3.4-2.6s1.9-1.3,3.4-1.3c3.5,0,21.4-1.3,22.3-1.3s1.5,1.9,1.5,6c0,8-0.6,18.2-0.6,51.3c0,8.7,0.7,10.6,3.7,10.6
	c2.6-0.2,8.9-1.5,9.9-1.5c0.7,0,1.3,0.6,1.3,1.3c0,0.7-0.6,3.3-1.7,3.5c-6.5,0.9-17.7,3.7-21.8,4.8c-1.4,0.5-2.9,0.8-4.5,0.9
	c-0.8,0-1.7-1.7-1.7-3.4c0-3.3,0.2-7.8,0.4-9.9c0-0.4-0.8-0.4-0.9-0.2c-1.7,1.3-8.5,7.2-13.8,9.9c-3.8,2-8,2.9-12.3,2.8
	c-6.1,0-11.5-2.2-15.1-6.1c-3-3.2-4.8-8.4-4.8-14.9c0-15.2,0.4-35.5-0.2-41.8c-0.4-4.8-0.2-5.9-6-8c-1.5-0.6-3.5-1.5-3.5-2.6
	s1.5-1.5,4.1-1.5c10,0,16.4-1.1,20.6-1.1c0.4,0,1.1,1.1,0.9,2.6c-0.4,11.9-0.9,33.1-0.9,45.4c0,8.4,1.5,12.8,5.2,15.2
	c2.8,2,6.9,3,11.1,2.8C238.3,224.6,241,221.6,243.5,218.9"/>
<path class="st1" d="M198.2,245.1c1.5,0,12.1-0.2,15-0.2c5.3,0,7.9-0.2,11.1,1.3s4.5,4,4.5,6c0,3.7-2,7.1-5.4,8.6
	c-5.1,2.9-9.1,3-9.9,3s-1.4-0.1-1.5-0.7c0-0.4,0.3-0.7,0.6-0.9c4-1.7,8.8-3.4,8.8-9.4c0-5.2-4.1-6.1-9.1-6.1c-0.8,0-1.5,0.2-2.2,0.5
	c-0.2,0.1-0.4,0.4-0.5,1.1c-0.1,6.1-0.1,25.4,0.2,27.7c0.4,4.9,0.4,5.6,4.5,6.7c1.2,0.3,1.6,0.5,1.6,1s-1,0.9-1.9,0.9
	c-2.3,0-13.8-0.1-15.6-0.1c-1,0-1.9-0.3-1.9-0.8s0.5-0.9,1.7-1.1c3.2-0.7,3.9-1.7,4.1-5.3c0.1-2.9,0.3-6.1,0.3-14.5
	c0-6.9-0.3-10.1-0.4-12s-0.4-3.1-4-3.8c-1.4-0.4-1.8-0.8-1.8-1.1S196.8,245.1,198.2,245.1"/>
<path class="st1" d="M245,248.5c0.3-0.5,0.4-1.1,0.4-1.7V246c0.1-0.4,0.4-0.8,0.8-1c1.3-0.1,2.6-0.1,3.9,0c0.3,0,0.7,0.5,0.7,0.8
	c0.3,1.2,0.7,2.5,1.2,3.6c1.4,3.8,8.9,23.4,10.6,27.1c1.9,4.1,2.3,5.2,5.9,6.6c1.1,0.4,1.6,0.7,1.6,1.1s-1,0.4-1.9,0.4h-15.1
	c-1.5,0-1.9-0.4-1.9-1s0.8-0.9,1.9-1.1c1.9-0.6,2.6-1.1,2.6-2.5c0-0.9-1.8-5.3-3-8.7c-0.2-0.7-0.8-1.2-1.5-1.3
	c-1.9-0.2-9.7-0.1-10.6,0c-0.6,0-1.1,0.7-1.3,1c-0.7,1.7-2.5,7.3-2.5,8.4c0,1.6,0.9,2.3,4.1,3.2c1,0.4,1.6,0.8,1.6,1.1
	c0,0.6-1,0.9-1.8,0.9h-12.2c-1.4,0-2.3-0.3-2.3-0.8s0.5-1,1.9-1.3c3-0.8,4-1.6,6.5-6.9C236.7,271.1,243.8,251.8,245,248.5
	 M246.3,253c-0.2-0.2-0.5-0.1-0.7,0.3c-1.1,2.9-3.9,10.6-4.5,12.5c-0.1,0.3,0.1,1,0.4,1c1,0.1,7.4,0.1,9.2-0.1
	c0.2,0,0.5-0.3,0.4-0.8C249.8,262.5,247.9,256.9,246.3,253"/>
<path class="st1" d="M290,244.3c1.3,0.3,2.7,0.4,4,0.5c0.6,0.1,1,1,1,1.9c0,1.4,0.4,4.8,0.4,6c0,0.7-0.3,1.4-0.9,1.8
	c-0.6,0-0.8-0.5-1.2-1.7c-0.5-2-1.6-3.7-3.2-5c-1.5-1.3-3.3-2-5.3-2c-3.6-0.2-6.7,2.6-6.8,6.2c0,0.2,0,0.4,0,0.6
	c0,3.2,1.8,5,4.4,6.5c2.7,1.6,4.9,2.8,7.4,4.3c3.7,2.2,7,5.8,7,10.3c-0.1,3.8-2,7.4-5.3,9.4c-3.1,1.7-6.5,2.6-10,2.6
	c-1.6,0-3.2-0.1-4.8-0.4c-3.1-0.6-5.6-2.9-6.5-5.9c-0.3-1.3-0.6-2.7-0.7-4.1c0-0.8,0.1-2,0.8-2c0.9,0,2.1,2.9,2.5,3.7
	c2,3.9,5,6.8,9.5,6.8c3.9,0,7.1-3,7.3-6.8c0-2.9-1.6-5-4.9-7.1c-2.1-1.4-3.6-2.2-5.4-3.3c-4.1-2.3-8-6.3-8-11.3
	c0-6,5.2-11.3,13.9-11.3C286.8,243.9,288.4,244,290,244.3"/>
<path class="st1" d="M313.3,248.5c0.3-0.5,0.4-1.1,0.4-1.7V246c0.1-0.4,0.4-0.8,0.8-1c1.3-0.1,2.6-0.1,3.9,0c0.3,0,0.7,0.5,0.7,0.8
	c0.3,1.2,0.7,2.5,1.2,3.6c1.4,3.8,8.9,23.4,10.6,27.1c1.9,4.1,1.9,4.9,6,6.1c1.1,0.4,1.6,0.6,1.6,1c0,0.6-1,1-1.9,1h-15.2
	c-1.5,0-1.9-0.4-1.9-1s0.8-0.9,1.9-1.1c1.9-0.6,2.6-1.1,2.6-2.5c0-0.9-1.8-5.3-3-8.7c-0.2-0.7-0.8-1.2-1.5-1.3
	c-1.9-0.2-9.7-0.1-10.6,0c-0.6,0-1.1,0.7-1.3,1c-0.7,1.7-2.5,7.3-2.5,8.4c0,1.6,0.9,2.3,4.2,3.2c1,0.4,1.5,0.8,1.5,1.1
	c0,0.6-1,0.9-1.8,0.9h-12.2c-1.4,0-2.4-0.3-2.3-0.8s0.7-0.3,2.1-0.8c3.1-1.1,3.8-2,6.3-7.4C304.9,271.1,312.1,251.8,313.3,248.5
	 M314.6,252.9c-0.2-0.2-0.5-0.1-0.7,0.3c-1.1,2.9-3.9,10.6-4.5,12.5c-0.1,0.3,0.1,1,0.4,1c1,0.1,7.4,0.1,9.2-0.1
	c0.2,0,0.5-0.3,0.4-0.8C318,262.5,316.1,256.9,314.6,252.9"/>
<path class="st1" d="M334.7,179.1c0,2-2.6,3.5-5.2,3.3c-11.9-0.6-31.6-0.6-38.1,0c-1,0.4-1.8,1.2-2.2,2.2c-0.4,1.3-0.4,4.5-0.4,7.4
	c0,14.9,11.9,31,27.7,31c10.2,0,14.3-3.9,18.2-9.1c1.1-1.5,2.6-1.5,2.6,0.9c0,1.7-1.7,3.9-2.6,5c-6.5,8.5-16.9,14.7-27.5,14.7
	c-20.5,0-32.2-17.5-32.2-37c0-13,5.2-28.1,20.1-36.4c3.9-2.4,9.3-4.1,16.2-4.1C324.8,157.1,334.7,166.2,334.7,179.1 M290.3,177.2
	c0,0.4,0.4,1.5,0.9,1.5c7.4,0,18.2-0.4,22.7-0.4c4.6-0.6,6.9-1.5,6.9-6.1c-0.2-6.7-7.2-11.7-11.5-11.7
	C301.4,160.4,293.2,167.1,290.3,177.2 M302.8,148.5c0.4,1.3,1.6,2.2,3,2l22.2-23.1c1.8-1.8,2.8-3.7,2.8-4.8c0-1.4-1.2-3.2-3-4.6
	c-2.1-1.8-4.3-2.7-5.5-2.7c-1.8,0-3.2,2.3-4.3,4.3L302.8,148.5z"/>
<path class="st1" d="M125.3,230.4c-35.9-1.2-49.1-40.4-49.8-60.8c-1.3-37.8,18.6-55.2,38.7-55.2c33.4,0,50.4,32.2,50.4,62.4
	C164.5,219,139.4,230.9,125.3,230.4 M198.4,265.8c-2.6,1.1-8.6,1.6-10.5,1.6c-5.8,0-11.5-0.8-17-2.6c-14.7-4.8-32.4-19.7-34.4-30.2
	c-0.3-1.5,1.1-1.9,2.1-2.2c25.9-8.6,45.2-31,45.3-60.2c0.1-32.2-25.2-62.8-63.6-62.8c-34,0-64.5,25.1-63.7,63
	c0.5,24.9,14.1,46.8,39,57.6c5.1,2.3,10.6,3.8,16.1,4.7c5.1,0.9,3.6,1.8,9.1,7.3c6.8,6.6,15.3,17.9,30.3,24.9
	c10.8,4.9,17.5,6.5,25.9,6.5c6.4,0,16.1-2.5,22.1-5.5C200.4,267.2,199.7,265.3,198.4,265.8"/>
</svg>
