<?xml version="1.0" encoding="utf-8"?>
<!-- Generator: Adobe Illustrator 23.0.1, SVG Export Plug-In . SVG Version: 6.00 Build 0)  -->
<svg version="1.1" id="Layer_1" xmlns="http://www.w3.org/2000/svg" xmlns:xlink="http://www.w3.org/1999/xlink" x="0px" y="0px"
	 viewBox="0 0 691.7 108.7" style="enable-background:new 0 0 691.7 108.7;" xml:space="preserve">
<style type="text/css">
	.st0{fill:#B2292E;}
	.st1{fill:#FFFFFF;}
	.st2{fill:#1C1C1B;}
</style>
<title>Logo_Tendencias_color_RGB</title>
<rect y="38.8" class="st0" width="58.7" height="56.3"/>
<polygon class="st1" points="7,49.2 12.7,49.2 12.7,80.1 28.8,80.1 28.8,85.1 7,85.1 "/>
<polygon class="st1" points="35.3,54.2 24.6,54.2 24.6,49.2 51.6,49.2 51.6,54.2 41,54.2 41,85.1 35.3,85.1 "/>
<polygon class="st0" points="13.8,99.8 11.4,99.8 11.4,98.6 17.6,98.6 17.6,99.8 15.1,99.8 15.1,106.9 13.8,106.9 "/>
<path class="st0" d="M30.3,106.9h-1.5l-1.4-2c-0.2,0-0.4,0-0.6,0h-0.8v2h-1.3v-8.3h2.1c2.3,0,3.5,1.2,3.5,3.2
	c0.1,1.2-0.6,2.2-1.7,2.7L30.3,106.9z M26.7,103.8c1.6,0,2.2-0.8,2.2-2s-0.7-2-2.2-2h-0.8v4H26.7z"/>
<path class="st0" d="M30.8,102.7c0-2.3,1.8-4.2,4.1-4.2c0.1,0,0.1,0,0.2,0c1.3-0.1,2.6,0.5,3.3,1.6l-1,0.7c-0.5-0.8-1.4-1.2-2.3-1.1
	c-1.7,0.1-3,1.5-2.9,3.2c0.1,1.6,1.3,2.8,2.9,2.9c1,0.1,2-0.4,2.6-1.2l1,0.7c-0.8,1.1-2.1,1.8-3.5,1.7c-2.3,0-4.1-1.8-4.2-4.1
	C30.8,102.9,30.8,102.8,30.8,102.7"/>
<path class="st0" d="M51.1,106.9h-1.5l-1.4-2c-0.2,0-0.4,0-0.6,0h-0.8v2h-1.3v-8.3h2.1c2.3,0,3.5,1.2,3.5,3.2
	c0.1,1.2-0.6,2.3-1.7,2.7L51.1,106.9z M47.5,103.8c1.6,0,2.2-0.8,2.2-2s-0.7-2-2.2-2h-0.8v4H47.5z"/>
<path class="st0" d="M52.6,106.9h-1.3l3.6-8.4H55l3.6,8.4h-1.4l-0.5-1.2h-3.7L52.6,106.9z M55,101.3l-1.4,3.3h2.7L55,101.3z"/>
<polygon class="st0" points="44.6,105.7 40.5,105.7 40.5,104.3 44,104.3 44,103.2 40.5,103.2 40.5,99.8 44.6,99.8 44.6,98.6 
	39.2,98.6 39.2,106.9 44.6,106.9 "/>
<polygon class="st0" points="19.7,104.3 23.2,104.3 23.2,103.2 19.7,103.2 19.7,99.8 23.8,99.8 23.8,98.6 18.4,98.6 18.4,106.9 
	23.8,106.9 23.8,105.7 19.7,105.7 "/>
<polygon class="st0" points="0,98.6 1.3,98.6 1.3,105.7 5,105.7 5,106.9 0,106.9 "/>
<path class="st0" d="M5.4,106.9H4.1l3.6-8.4h0.1l3.6,8.4h-1.4l-0.5-1.2H5.9L5.4,106.9z M7.8,101.3l-1.4,3.3h2.7L7.8,101.3z"/>
<path class="st2" d="M68.1,81.3V3.6h21.5v35.1H107v17.9H89.6v25.3c0,6.9,2.2,8.3,5.6,8.3c3.5,0,6.1-1.9,7.5-2.9l8.2,15.1
	c-3.4,2.7-9.1,6.2-19.1,6.2C78,108.7,68.1,101.8,68.1,81.3z"/>
<path class="st2" d="M146.4,90.4c6.1,0,12.1-1.9,17.1-5.5l12.4,13.3c-6.6,5.8-14.9,10.1-29.1,10.1c-24.3,0.1-40-14.6-40.1-35.6
	c0-20.6,16.4-35.4,37.6-35.4c24.5,0,37.8,18.2,36.2,42l-51.7,0.1C130.8,86.5,136.6,90.5,146.4,90.4z M158.6,66.9
	c-1-7.5-5.8-12-14.3-12s-14.2,3.9-16,12H158.6z"/>
<path class="st2" d="M369.9,90.4c6.1,0,12.1-1.9,17.1-5.5l12.4,13.3c-6.5,5.8-14.9,10.1-29.1,10.1c-24.3,0.1-40-14.6-40.1-35.6
	c0-20.6,16.4-35.4,37.5-35.4c24.5,0,37.8,18.2,36.2,42l-51.7,0.1C354.3,86.5,360.1,90.5,369.9,90.4z M382.1,66.9
	c-1-7.5-5.8-12-14.3-12s-14.2,3.9-16,12H382.1z"/>
<path class="st2" d="M183.1,38.7h21.6l-0.5,11.2c4.2-8.2,12.2-12.6,21.6-12.6c14.9,0,25.6,10.9,25.6,30.2v39.4h-21.6V69
	c0-7.7-3.7-12-11.4-12c-8.6,0-13.8,4.8-13.8,13.4v36.5h-21.6V38.7z"/>
<path class="st2" d="M253.7,72.7c0-21,14.1-35.4,30.6-35.4c10.9,0,17,4.3,21.3,11V3.6h21.6v103.3h-21.6L306,97
	c-3.9,7.2-11,11.4-21.5,11.4C268,108.4,253.7,93.6,253.7,72.7z M306.2,72.7c0-10.1-6.1-16.3-15.4-16.3c-9.1,0-14.9,6.2-14.9,16.3
	c0,10.7,5.8,16.8,14.9,16.8C300.1,89.5,306.2,83.4,306.2,72.7z"/>
<path class="st2" d="M406.2,38.7h21.6l-0.5,11.2c4.2-8.2,12.2-12.6,21.6-12.6c14.9,0,25.6,10.9,25.6,30.2v39.4H453V69
	c0-7.7-3.7-12-11.4-12c-8.6,0-13.8,4.8-13.8,13.4v36.5h-21.6V38.7z"/>
<path class="st2" d="M476.7,72.7c0-20.7,16-35.4,37.3-35.4c13.6,0,21.8,5,28.7,13.6l-15.4,12.5c-3-4.5-7.9-7.2-13.3-7.2
	c-9.8,0-15.2,6.9-15.2,16.5c0,9.9,5.4,17,15.2,17c6.9,0,10.6-3.2,13.8-6.4l14.6,12.8c-6.7,7.5-14.7,12.3-28.3,12.3
	C492.7,108.4,476.7,93.6,476.7,72.7z"/>
<path class="st2" d="M541.3,13.8c0-7.6,6-13.7,13.6-13.8c7.6,0,13.7,6,13.8,13.6c0,7.6-6,13.7-13.6,13.8c0,0,0,0,0,0
	c-7.4,0.1-13.6-5.8-13.8-13.2C541.3,14,541.3,13.9,541.3,13.8z M544.2,38.8h21.6v68.2h-21.6V38.8z"/>
<path class="st2" d="M600.4,55.1c-8.2,0-12.5,3.5-15.5,6.2l-12-12.8c6.4-6.2,13.6-11.2,29.6-11.2c17.5,0,30.7,9.4,30.7,30.9v38.7
	h-21.5l0.5-9.4c-5.1,7.8-11,10.9-20.2,10.9c-12.5,0-24-5.6-24-21.4c0-14.6,11-20.5,27.8-20.5h15.8C611.4,58.6,607.6,55.1,600.4,55.1
	z M597,79.2c-5.4,0-7.8,2.4-7.8,6.2c0,3.8,3.2,6.1,9.3,6.1c8.8,0,13.3-3.8,13.3-9.6v-2.7L597,79.2z"/>
<path class="st2" d="M632.7,95.4l12.7-11.2c4.5,4.5,10.6,7.1,17,7.2c7,0,9.3-1.3,9.3-4.2c0-3.7-4.3-3.7-15.4-6.6
	c-9.3-2.4-19.7-7.5-19.7-21.8c0-15.4,11.8-21.6,26.4-21.6c11.2,0,19.2,3.7,24.8,9.4l-11.5,12.3c-3.7-3.2-8.3-5-13.1-5.1
	c-5,0-7.4,1.3-7.4,4c0,3.8,4.3,4.3,13.6,6.4c9.9,2.2,22.4,6.9,22.4,21.3c0,12.5-6.6,22.7-28,22.7
	C647.9,108.4,638.6,102.4,632.7,95.4z"/>
</svg>
