<?xml version="1.0" encoding="utf-8"?>
<!-- Generator: Adobe Illustrator 23.0.1, SVG Export Plug-In . SVG Version: 6.00 Build 0)  -->
<svg version="1.1" id="Layer_1" xmlns="http://www.w3.org/2000/svg" xmlns:xlink="http://www.w3.org/1999/xlink" x="0px" y="0px"
	 viewBox="0 0 1012 116.9" style="enable-background:new 0 0 1012 116.9;" xml:space="preserve">
<title>Logo_MtMotores_black_RGB</title>
<path d="M989.5,114.3c4.4-1.4,8.5-3.5,12.2-6.4c3.2-2.6,5.9-5.8,7.7-9.5c1.8-3.7,2.7-7.7,2.7-11.8v-0.3c0.1-3.6-0.6-7.1-1.9-10.4
	c-1.4-3.3-3.7-6.1-6.5-8.2c-3.7-2.8-7.8-4.9-12.1-6.4c-6-2.2-12.2-3.9-18.5-5.1c-5.9-1.1-11.7-2.6-17.4-4.6c-4-1.3-7.8-3.2-11.2-5.7
	c-2.6-1.8-4.7-4.3-6-7.2c-1.2-2.9-1.8-6-1.8-9.2v-0.3c0-3.3,0.8-6.6,2.3-9.6c1.6-3.2,3.9-5.9,6.7-8.2c3.1-2.5,6.6-4.4,10.4-5.7
	c4.3-1.4,8.9-2.1,13.4-2.1c6.7-0.1,13.4,1.1,19.7,3.5c6,2.2,11.7,5.3,16.8,9.1l2.2-2.9c-5.3-4-11.2-7.2-17.5-9.5
	c-6.7-2.3-13.8-3.5-20.9-3.5c-5-0.1-10,0.7-14.8,2.3c-4.2,1.4-8.1,3.5-11.6,6.2c-3.2,2.5-5.8,5.6-7.7,9.2c-1.8,3.5-2.8,7.3-2.8,11.2
	v0.3c-0.1,3.6,0.6,7.2,2.1,10.6c1.5,3.2,3.8,6,6.7,8.2c3.7,2.7,7.7,4.8,12,6.2c5.8,2,11.8,3.6,17.8,4.8c6,1.2,12,2.8,17.8,4.8
	c4.1,1.3,7.9,3.2,11.4,5.7c2.6,1.9,4.7,4.4,6,7.3c1.2,2.9,1.8,6.1,1.8,9.3v0.3c0,3.7-0.8,7.3-2.4,10.6c-1.6,3.3-4,6.2-6.9,8.5
	c-3.3,2.5-7,4.4-11,5.6c-4.7,1.4-9.5,2.1-14.4,2c-7.9,0.1-15.8-1.5-23.1-4.5c-7.2-3.1-13.8-7.5-19.4-12.9l-2.6,2.6
	c5.9,5.7,12.8,10.2,20.4,13.4c7.7,3.2,16,4.8,24.3,4.7C979,116.7,984.4,115.9,989.5,114.3"/>
<path d="M849.4,59.8h8.8l0,0h63.2v-3.2h-72 M858.2,5.2h70.1V2h-79v3.2L858.2,5.2z M929.1,115v-3.2h-79.8v3.2H929.1z"/>
<path d="M837.9,46.7c1.9-4,2.8-8.3,2.7-12.8v-0.3c0-8.6-2.7-15.6-8.1-21C825.5,5.5,814.6,2,800.1,2h-46.2v113h3.5V5.2h42.3
	c11.7,0,20.9,2.5,27.4,7.5c6.6,5,9.8,12,9.8,21.1v0.3c0,3.8-0.8,7.6-2.3,11.1c-1.6,3.5-4.1,6.6-7.2,9c-3.6,2.8-7.7,4.8-12.1,6
	c-5.2,1.5-10.6,2.2-16,2.2v3.2l0,0l37.5,49.4h4.4l-37.6-49.4c5.1-0.3,10.2-1.2,15-2.8c4.2-1.4,8.2-3.6,11.6-6.4
	C833.5,53.8,836.1,50.5,837.9,46.7"/>
<path d="M690.4,0c-15.5-0.3-30.4,6.1-40.9,17.6c-4.9,5.4-8.8,11.7-11.3,18.6c-2.6,7.1-4,14.6-4,22.1v0.3c0,7.5,1.3,15,4,22.1
	c2.5,6.9,6.4,13.2,11.3,18.6c5,5.4,11,9.8,17.7,12.8c14.8,6.3,31.6,6.3,46.4,0c6.7-3,12.8-7.4,17.8-12.8c4.9-5.4,8.8-11.7,11.3-18.6
	c2.2-5.9,3.5-12.2,3.9-18.5H743c-0.3,6-1.5,11.9-3.6,17.5c-4.8,13.1-14.6,23.7-27.3,29.5c-13.7,6.1-29.3,6-43-0.1
	c-6.3-2.9-12-7.1-16.7-12.2c-4.7-5.1-8.3-11.1-10.7-17.6c-2.5-6.7-3.8-13.7-3.8-20.8v-0.3c0-7.1,1.2-14.2,3.7-20.8
	c2.4-6.5,6-12.4,10.7-17.5c4.7-5,10.3-9.1,16.5-12c6.8-3.1,14.1-4.6,21.5-4.5h0.1"/>
<path d="M524,116.9c8,0.1,15.9-1.5,23.2-4.8c6.7-3,12.7-7.4,17.7-12.8c4.9-5.4,8.8-11.7,11.3-18.6c2.7-7.1,4-14.6,4-22.1v-0.3
	c0-7.6-1.3-15.1-4-22.1c-2.5-6.9-6.4-13.2-11.3-18.6c-5-5.4-11-9.8-17.7-12.8c-14.8-6.3-31.6-6.3-46.4,0c-6.7,3-12.8,7.4-17.8,12.8
	c-4.9,5.4-8.7,11.7-11.3,18.6c-2.2,5.9-3.5,12.2-3.8,18.5h3.5c0.3-6,1.5-11.9,3.6-17.5c4.8-13.1,14.6-23.7,27.3-29.5
	c13.7-6.1,29.3-6,43,0.1c6.3,2.9,12,7.1,16.7,12.2c4.7,5.1,8.3,11.1,10.7,17.6c2.5,6.7,3.8,13.7,3.8,20.8v0.3
	c0,7.1-1.2,14.2-3.7,20.8c-2.4,6.5-6,12.4-10.7,17.5c-4.7,5-10.3,9.1-16.5,12c-6.8,3.1-14.1,4.6-21.5,4.5h-0.2"/>
<polyline points="605.4,115 609,115 609,5.2 649.8,5.2 649.8,2 564.6,2 564.6,5.2 605.4,5.2 "/>
<path d="M354.6,115h3.5V34.4h-3.5V115z M459.7,115V2h-3.2l-49.2,70l-38.1-54.2l-1.7,3.5L407,77.7h0.2L456.1,8V115H459.7z"/>
<polyline points="357.9,28.6 371.2,1.2 229.2,1.2 200.7,65.8 170.4,1.2 138.3,1.2 138.3,115 170.4,115 170.4,57.6 192.6,115 
	208.2,115 230.4,57.6 230.5,115 262.5,115 262.5,28.6 293.2,28.6 293.2,28.5 293.3,28.5 293.3,115 328.3,115 328.3,28.6 "/>
<path d="M0,1.2V115h118.6V1.2H0z M58.3,94.6H14.2V22h11.4v62.4h32.7L58.3,94.6z M104.3,32.2H82.8v62.4H71.4V32.2H49.8V22h54.5V32.2z
	"/>
</svg>
