<svg version="1.1" id="Layer_1" xmlns="http://www.w3.org/2000/svg" x="0" y="0" viewBox="0 0 671.4 140" xml:space="preserve"><style>.st0{fill:#fff}</style><path class="st0" d="M0 38.1v67.5h70.3V38.1H0zm34.6 55.4H8.4v-43h6.8v37h19.4v6zm27.2-37H49.1v37h-6.8v-37H29.5v-6h32.3v6zm23.1-18.4h21.2l-.3 12.1c4.9-11 12.7-13.5 19.6-13.5 3.6 0 7.2.9 10.4 2.7L129 58.8c-2.5-1.3-5.3-2-8.2-2-9.6 0-14.8 4.4-14.8 18.7v29.7H84.9V38.1zM169 88.9c6 0 11.9-1.9 16.8-5.3l12.2 13c-6.4 5.7-14.6 9.9-28.6 9.9-23.9 0-39.3-14.5-39.3-35.1-.1-20.3 16.1-34.8 36.9-34.8 24.1 0 37.1 17.9 35.5 41.4h-50.8c2.1 6.9 7.7 10.9 17.3 10.9zm12.1-23.2c-.9-7.4-5.7-11.8-14-11.8s-14 3.8-15.7 11.8h29.7zm24.1-27.6h21.2l-.4 10.3c4.1-7.2 11.2-11.8 21.5-11.8 16.2 0 29.9 14.2 29.9 34.8s-14 35.1-30.4 35.1c-10.2 0-17.1-4.2-20.6-10.4v42.3h-21.2V38.1zm50.3 33.3c0-9.9-5.7-16-14.6-16-9.1 0-15.1 6.1-15.1 16 0 10.5 6 16.5 15.1 16.5 9 0 14.6-6 14.6-16.5zm22.2.3c0-20.4 16.2-35.1 37-35.1s36.8 14.6 36.8 35.1c0 20.3-16 34.8-36.8 34.8s-37-14.5-37-34.8zm52.1 0c0-10.1-5.7-16.8-15.1-16.8s-15.3 6.8-15.3 16.8c0 9.9 5.8 16.8 15.3 16.8s15.1-6.9 15.1-16.8zM354 38.1h21.2l-.3 12.1c4.9-11 12.7-13.5 19.7-13.5 3.6 0 7.2.9 10.4 2.7l-6.8 19.3c-2.5-1.3-5.3-2-8.2-2-9.6 0-14.8 4.4-14.8 18.7v29.7H354v-67z"/><path class="st0" d="M410.3 79.9V55.7h-9.9V38.1h9.9v-35h21.1V38h17.1v17.6h-17.1v24.9c0 6.8 2.2 8.2 5.5 8.2 3.5 0 6-1.9 7.4-2.8l8 14.8c-3.3 2.7-9 6.1-18.7 6.1-13.5 0-23.3-6.8-23.3-26.9z"/><path class="st0" d="M482 54.1c-8 0-12.3 3.5-15.3 6.1L455 47.7c6.3-6.1 13.4-11 29.1-11 17.1 0 30.2 9.3 30.2 30.4v38.1h-21.1l.5-9.3c-5 7.7-10.8 10.7-19.8 10.7-12.3 0-23.6-5.5-23.6-21.1 0-14.3 10.9-20.1 27.4-20.1h15.6c-.4-7.8-4.2-11.3-11.3-11.3zm-3.3 23.8c-5.4 0-7.7 2.4-7.7 6.1s3.1 6 9.1 6c8.7 0 13.1-3.8 13.1-9.4v-2.7h-14.5z"/><path class="st0" d="M498.9 132l10.5-12.6c1.7 1.6 3.5 2.5 5.2 2.5 3.3 0 4.9-1.9 4.9-5.4V38.1h21.2v77.7c0 15.4-8.3 24.2-24.1 24.2-7.8 0-14.6-4.1-17.7-8zm17.7-118.5c0-7.4 6-13.5 13.4-13.5s13.5 5.9 13.5 13.4c0 7.4-5.9 13.5-13.4 13.5-7.3.1-13.4-5.7-13.5-13v-.4zm66.2 75.4c6 0 11.9-1.9 16.8-5.3l12.1 13.1c-6.5 5.7-14.6 9.9-28.6 9.9-23.9 0-39.3-14.5-39.3-35.1 0-20.3 16.2-34.8 37-34.8 24.1 0 37.1 17.9 35.5 41.4h-50.8c2.1 6.8 7.7 10.8 17.3 10.8zM595 65.7c-1-7.4-5.7-11.8-14-11.8s-14 3.8-15.7 11.8H595z"/><path class="st0" d="M613.4 93.7l12.4-11c4.4 4.4 10.4 7 16.7 7.1 6.9 0 9.1-1.3 9.1-4.1 0-3.6-4.2-3.6-15.1-6.4-9.1-2.4-19.3-7.4-19.3-21.4 0-15.1 11.6-21.2 26-21.2 11 0 18.9 3.6 24.4 9.3l-11.5 12c-3.6-3.1-8.1-4.9-12.9-5-4.9 0-7.2 1.3-7.2 3.9 0 3.8 4.2 4.2 13.4 6.3 9.8 2.2 22 6.8 22 20.9 0 12.3-6.5 22.3-27.5 22.3-15.6.1-24.7-5.7-30.5-12.7z"/></svg>