<?xml version="1.0" encoding="utf-8"?>
<!-- Generator: Adobe Illustrator 23.0.1, SVG Export Plug-In . SVG Version: 6.00 Build 0)  -->
<svg version="1.1" id="Layer_1" xmlns="http://www.w3.org/2000/svg" xmlns:xlink="http://www.w3.org/1999/xlink" x="0px" y="0px"
	 viewBox="0 0 955.6 116.6" style="enable-background:new 0 0 955.6 116.6;" xml:space="preserve">
<style type="text/css">
	.st0{fill:#232020;}
</style>
<title>Logo_Beethoven_black_RGB</title>
<path class="st0" d="M20.6,0v41c3.5-3.6,7.6-6.4,12.2-8.4c4.4-1.9,9.2-2.8,14-2.8c10.8,0,19.9,4.1,27.5,12.2
	c7.5,8.1,11.3,18.6,11.3,31.4c0,12.3-3.9,22.6-11.7,30.9c-7.8,8.3-17,12.4-27.7,12.4c-4.6,0.1-9.1-0.8-13.4-2.6
	c-4.5-2-8.7-4.8-12.2-8.3v8.7H0V0H20.6z M42.4,48.9c-6.1-0.2-12,2.3-16.2,6.7C21.8,60,19.7,65.9,19.7,73c0,7.3,2.2,13.3,6.5,17.8
	c4.2,4.5,10.1,7,16.2,6.8c6.1,0.1,11.9-2.4,16-6.9c4.3-4.6,6.5-10.5,6.5-17.6c0-7.1-2.1-12.9-6.4-17.4
	C54.3,51.2,48.5,48.7,42.4,48.9z"/>
<path class="st0" d="M167.2,79.2h-66.6c0.7,5.5,3.5,10.5,7.7,14c4.2,3.5,9.5,5.2,16,5.2c7.5,0.1,14.7-2.8,20-8.1l17.5,8.2
	c-4,5.8-9.3,10.6-15.6,13.7c-6.1,3-13.3,4.4-21.6,4.4c-12.9,0-23.5-4.1-31.7-12.3S80.7,85.9,80.7,73.6c0-12.6,4.1-23.1,12.2-31.4
	c8.1-8.3,18.3-12.5,30.5-12.5c13,0,23.6,4.2,31.7,12.5c8.2,8.3,12.2,19.3,12.2,33L167.2,79.2z M146.5,62.9
	c-1.3-4.6-4.2-8.5-8.1-11.2c-4.1-2.9-9-4.4-14-4.3c-5.5-0.1-10.8,1.6-15.2,4.9c-2.7,2-5.3,5.6-7.6,10.7H146.5z"/>
<path class="st0" d="M248.5,79.2h-66.6c0.7,5.5,3.5,10.5,7.7,14c4.2,3.5,9.5,5.2,16,5.2c7.5,0.1,14.7-2.8,20-8.1l17.5,8.2
	c-4,5.8-9.3,10.6-15.6,13.7c-6.1,3-13.3,4.4-21.6,4.4c-13,0-23.5-4.1-31.7-12.3c-8.2-8.2-12.3-18.4-12.3-30.7
	c0-12.6,4.1-23.1,12.2-31.4c8.1-8.3,18.3-12.5,30.6-12.5c13,0,23.6,4.2,31.7,12.5c8.2,8.3,12.2,19.3,12.2,33L248.5,79.2z
	 M227.7,62.9c-1.3-4.6-4.2-8.5-8.1-11.2c-4.1-2.9-9-4.4-14-4.3c-5.5-0.1-10.8,1.6-15.2,4.9c-2.7,2-5.3,5.6-7.6,10.7H227.7z"/>
<path class="st0" d="M257.2,1.4h20.7v30.4h12.3v17.9h-12.3v64.8h-20.7V49.8h-10.6V31.9h10.6V1.4z"/>
<path class="st0" d="M293.8,0h20.6v40.2c3.6-3.2,7.8-5.9,12.2-7.9c3.9-1.7,8.1-2.6,12.4-2.6c7.8-0.2,15.3,2.9,20.7,8.5
	c4.8,4.9,7.2,12.1,7.2,21.6v54.6h-20.4V78.3c0-9.6-0.5-16-1.4-19.4c-0.7-3-2.3-5.7-4.7-7.6c-2.4-1.7-5.2-2.6-8.2-2.5
	c-4-0.1-7.9,1.4-10.8,4.2c-3.2,3.1-5.4,7-6.3,11.4c-0.6,2.5-0.9,8.1-0.9,17v33.2h-20.5V0z"/>
<path class="st0" d="M407.9,29.8c7.7,0,15.3,2,22,5.8c13.5,7.6,21.9,22,21.8,37.5c0,7.7-2,15.2-5.8,21.9
	c-3.7,6.6-9.2,12.1-15.8,15.9c-6.7,3.8-14.3,5.8-22.1,5.7c-11.4,0.2-22.4-4.4-30.3-12.6c-8.2-8.1-12.8-19.2-12.6-30.7
	c0-12.9,4.7-23.7,14.2-32.3C387.1,33.7,397.3,29.7,407.9,29.8z M408.3,49.3c-6.1-0.2-11.9,2.3-16.1,6.7c-4.3,4.5-6.4,10.2-6.4,17.2
	c0,7.2,2.1,13,6.4,17.5c4.2,4.4,10,6.9,16.1,6.7c6.1,0.2,12-2.3,16.2-6.8c4.3-4.5,6.5-10.3,6.5-17.4c0-7.1-2.1-12.8-6.3-17.3
	C420.3,51.5,414.4,49.1,408.3,49.3L408.3,49.3z"/>
<path class="st0" d="M437.2,31.9h21.1l20.9,48.7L500,31.9h21l-35.2,82.6h-13.4L437.2,31.9z"/>
<path class="st0" d="M593.4,79.2h-66.6c0.7,5.5,3.5,10.5,7.7,14c4.2,3.5,9.5,5.2,16,5.2c7.5,0.1,14.7-2.8,20-8.1l17.5,8.2
	c-4,5.8-9.3,10.6-15.6,13.7c-6.1,3-13.3,4.4-21.6,4.4c-13,0-23.5-4.1-31.7-12.3c-8.1-8.2-12.2-18.4-12.2-30.7
	c0-12.6,4.1-23.1,12.2-31.4c8.1-8.3,18.3-12.5,30.6-12.5c13,0,23.6,4.2,31.7,12.5c8.2,8.3,12.2,19.3,12.2,33L593.4,79.2z
	 M572.7,62.9c-1.3-4.6-4.2-8.5-8.1-11.2c-4.1-2.9-9-4.4-14-4.3c-5.5-0.1-10.8,1.6-15.2,4.9c-2.7,2-5.3,5.6-7.6,10.7H572.7z"/>
<path class="st0" d="M592,31.9h20.7v8.5c3.8-3.4,8.1-6.2,12.8-8.3c3.7-1.5,7.7-2.3,11.7-2.3c7.8-0.1,15.4,3,20.8,8.6
	c4.8,4.9,7.2,12,7.2,21.6v54.6h-20.5V78.3c0-9.9-0.4-16.4-1.3-19.6c-0.7-2.9-2.3-5.5-4.6-7.4c-2.3-1.7-5.2-2.6-8.1-2.5
	c-4-0.1-7.9,1.4-10.8,4.2c-3,2.8-5.1,6.7-6.2,11.6c-0.6,2.6-0.9,8.2-0.9,16.8v33.1H592V31.9z"/>
<path class="st0" d="M691.4,114.5L686,111l17.8-26.8c-2.2,0.7-4.4,1.1-6.7,1.2c-5,0.1-9.9-1.9-13.3-5.6c-3.6-3.7-5.6-8.7-5.5-13.9
	c-0.1-3.6,0.9-7.1,2.6-10.2c1.8-3.1,4.4-5.6,7.5-7.3c3.2-1.8,6.7-2.8,10.4-2.8c3.5,0,7,0.9,10,2.6c3.1,1.7,5.6,4.3,7.2,7.4
	c1.8,3.1,2.7,6.6,2.7,10.1c0,2.9-0.6,5.8-1.6,8.5c-1.5,3.8-3.5,7.3-5.8,10.7L691.4,114.5z M698.6,79.6c7.6,0,13.7-6.2,13.7-13.8
	c0-7.6-6.2-13.7-13.8-13.7c-7.6,0-13.7,6.2-13.7,13.8c0,3.6,1.5,7.1,4.1,9.7C691.4,78.3,694.9,79.7,698.6,79.6z"/>
<path class="st0" d="M745.3,45.7l5.4,3.5L732.9,76c2.1-0.8,4.4-1.2,6.7-1.2c5-0.1,9.8,2,13.2,5.6c3.6,3.7,5.6,8.7,5.4,13.9
	c0,3.6-0.9,7.1-2.6,10.2c-1.8,3.1-4.4,5.6-7.5,7.3c-3.2,1.8-6.8,2.7-10.4,2.7c-3.5,0-6.9-0.9-10-2.6c-3.1-1.7-5.6-4.3-7.2-7.3
	c-1.7-3.1-2.6-6.6-2.6-10.1c0-2.9,0.6-5.7,1.6-8.4c1.5-3.8,3.5-7.4,5.8-10.7L745.3,45.7z M738.1,80.6c-7.6,0-13.8,6.2-13.7,13.8
	c0,7.6,6.2,13.8,13.8,13.7c7.6,0,13.8-6.2,13.7-13.8c0-3.7-1.5-7.2-4.1-9.7C745.3,81.9,741.7,80.5,738.1,80.6z"/>
<path class="st0" d="M768.9,103.1c1.5,0,2.9,0.6,3.9,1.6c2.1,2.2,2.1,5.7,0,7.8c-2.1,2.1-5.5,2.2-7.7,0.1c0,0,0,0-0.1-0.1
	c-2.1-2.2-2.1-5.7,0-7.8C766,103.6,767.4,103,768.9,103.1z"/>
<path class="st0" d="M819.6,47.3v6.2h-23.3l-3.3,17.9c2.5-0.8,5.1-1.2,7.7-1.2c5.5-0.2,10.9,2,14.8,6c3.9,4,5.8,9.1,5.8,15.3
	c0,4.1-1,8.2-3,11.8c-1.9,3.5-4.7,6.3-8.1,8.3c-3.6,2-7.7,3-11.8,2.9c-4.9,0.1-9.7-1.6-13.5-4.9c-3.7-3.3-6-7.8-6.5-12.6h6.7
	c0.4,2.2,1.2,4.3,2.6,6.1c1.3,1.6,2.9,2.9,4.8,3.8c2,1,4.1,1.4,6.3,1.4c4.2,0,8.3-1.7,11.1-4.9c3.1-3.3,4.8-7.7,4.6-12.2
	c0.2-4-1.4-7.9-4.2-10.8c-2.8-2.8-6.5-4.1-11.2-4.1c-3.9,0-8.5,1.2-14,3.5l6-32.6L819.6,47.3z"/>
<path class="st0" d="M847.6,47.3h32.8v6.4h-26.3v20.5h26.3v6.4h-26.3v32.2h-6.6V47.3z"/>
<path class="st0" d="M881.8,112.9l9.4-65.5h1.1l26.6,53.8l26.4-53.8h1l9.4,65.5h-6.4L942.8,66l-23.2,46.9h-1.7l-23.4-47.2l-6.4,47.2
	H881.8z"/>
</svg>
