<svg id="Layer_1" data-name="Layer 1" xmlns="http://www.w3.org/2000/svg" viewBox="0 0 361.26 303.16"><title>Logo_PulsoTrader_corto_RGB</title><path d="M193.8,37.56v6.76h40.84V267.06h9.41V44.32h41.14V36.09H193.8Z"/><path d="M179.58,102.2c0,24.19,2.85,47.81-10.08,61.73-10.92,11.77-22.32,16.39-56.21,14.66V265H76.08V37.81h53.64c19.84,0,37.49,6.28,45.4,23.62,4.58,10.34,4.46,25.94,4.46,40.77m-37.26-.54c0-9.66.51-17.53-.48-22.18-2-9.17-8-9.5-16.85-9.5h-11.7V146.9h15.23c5.75.09,12.17-1.51,13.21-7.59,1.14-6.54.59-17.09.59-37.65"/></svg>