<?xml version="1.0" encoding="utf-8"?>
<!-- Generator: Adobe Illustrator 23.0.1, SVG Export Plug-In . SVG Version: 6.00 Build 0)  -->
<svg version="1.1" id="Layer_1" xmlns="http://www.w3.org/2000/svg" xmlns:xlink="http://www.w3.org/1999/xlink" x="0px" y="0px"
	 viewBox="0 0 719.5 135.4" style="enable-background:new 0 0 719.5 135.4;" xml:space="preserve">
<title>Logo_ElDeportivo_black_RGB</title>
<path d="M0,37.2v65.5h68.3V37.2H0z M33.6,91.1H8.2V49.3h6.6v36h18.8V91.1z M60.1,55.1H47.7v36h-6.6v-36H28.7v-5.8h31.4L60.1,55.1z"
	/>
<path d="M115.5,86.9c5.9,0,11.6-1.8,16.5-5.2l11.9,12.8c-6.3,5.5-14.3,9.7-28,9.7c-23.4,0-38.5-14.2-38.5-34.3
	c0-19.8,15.8-34,36.2-34c23.5,0,36.3,17.5,34.8,40.5H98.6C100.6,83.1,106.2,86.9,115.5,86.9z M127.4,64.3
	c-0.9-7.2-5.5-11.5-13.7-11.5S100,56.5,98.3,64.3H127.4z"/>
<path d="M151.4,3.5H172v99.3h-20.6V3.5z"/>
<path d="M175.1,69.9c0-20.2,13.5-34,29.4-34c10.5,0,16.3,4.2,20.5,10.6v-43h20.8v99.3H225l0.5-9.5c-3.7,6.9-10.6,10.9-20.6,10.9
	C188.8,104.2,175.1,90,175.1,69.9z M225.6,69.9c0-9.7-5.8-15.7-14.8-15.7c-8.8,0-14.3,6-14.3,15.7c0,10.3,5.5,16.2,14.3,16.2
	C219.7,86,225.6,80.2,225.6,69.9z"/>
<path d="M286.4,86.9c5.9,0,11.7-1.8,16.5-5.2l11.9,12.8c-6.3,5.5-14.3,9.7-28,9.7c-23.4,0-38.5-14.2-38.5-34.3
	c0-19.8,15.8-34,36.2-34c23.5,0,36.3,17.5,34.8,40.5h-49.7C271.5,83.1,277,86.9,286.4,86.9z M298.2,64.3
	c-0.9-7.2-5.5-11.5-13.7-11.5s-13.7,3.7-15.4,11.5H298.2z"/>
<path d="M321.8,37.2h20.8l-0.5,10.2c4-7.1,10.9-11.5,21.1-11.5c15.9,0,29.2,13.8,29.2,34s-13.7,34.3-29.7,34.3
	c-10,0-16.8-4.1-20.2-10.2v41.4h-20.8V37.2z M371,69.9c0-9.7-5.5-15.7-14.3-15.7c-8.9,0-14.8,6-14.8,15.7c0,10.3,5.9,16.2,14.8,16.2
	C365.5,86,371,80.2,371,69.9z"/>
<path d="M392.7,70.2c0-20,15.8-34.3,36.2-34.3s36,14.3,36,34.3c0,19.8-15.7,34-36,34S392.7,90,392.7,70.2z M443.6,70.2
	c0-9.8-5.5-16.5-14.8-16.5s-14.9,6.6-14.9,16.5c0,9.7,5.7,16.5,14.9,16.5S443.6,79.9,443.6,70.2L443.6,70.2z"/>
<path d="M467.3,37.2h20.8l-0.3,11.8c4.8-10.8,12.5-13.2,19.2-13.2c3.6,0,7,0.9,10.2,2.6l-6.6,18.9c-2.5-1.3-5.2-2-8-2
	c-9.4,0-14.5,4.3-14.5,18.3v29.1h-20.8V37.2z"/>
<path d="M522.5,78.2V54.5h-9.7V37.2h9.7V3.1h20.6v34.2h16.8v17.2H543v24.3c0,6.6,2.2,8,5.4,8s5.8-1.8,7.2-2.8l7.8,14.5
	c-3.2,2.6-8.8,6-18.3,6C532,104.5,522.5,97.9,522.5,78.2z"/>
<path d="M560.6,13.2C560.5,6,566.4,0,573.7,0c7.3,0,13.2,5.8,13.2,13.1s-5.8,13.2-13.1,13.2c0,0,0,0,0,0
	c-7.2,0.1-13.1-5.6-13.2-12.8C560.6,13.4,560.6,13.3,560.6,13.2z M563.4,37.2h20.8v65.6h-20.8V37.2z"/>
<path d="M582.9,37.2h22.9l9.2,19.5c3.1,6.6,5.4,17.4,5.4,17.4s2.2-10.8,5.1-17.4l8.9-19.5h21.1l-35.1,66.9h-2L582.9,37.2z"/>
<path d="M647.4,70.2c0-20,15.8-34.3,36.2-34.3s36,14.3,36,34.3c0,19.8-15.7,34-36,34S647.4,90,647.4,70.2z M698.3,70.2
	c0-9.8-5.5-16.5-14.8-16.5s-14.9,6.6-14.9,16.5c0,9.7,5.7,16.5,14.9,16.5S698.3,79.9,698.3,70.2z"/>
</svg>
