<svg id="Layer_1" data-name="Layer 1" xmlns="http://www.w3.org/2000/svg" viewBox="0 0 200 200.01"><title>Logo_ElDeportivo_corto_02_RGB</title><path d="M66,133.49a28.42,28.42,0,0,0,16.42-5.35l11.94,12.69c-6.27,5.58-14.24,9.8-27.94,9.89-23.39.17-38.56-13.89-38.71-34-.13-19.85,15.62-34.11,35.93-34.26,23.54-.16,36.43,17.29,35.06,40.23L49,123C51,129.75,56.61,133.55,66,133.49Zm11.68-22.71c-1-7.22-5.61-11.5-13.77-11.44S50.24,103.13,48.6,111Z"/><path d="M101.43,116.16C101.29,96,114.73,82.06,130.58,82c10.46-.08,16.34,4,20.54,10.47l-.3-43,20.77-.14.7,99.3-20.77.15.39-9.54c-3.64,7-10.54,11-20.55,11.07C115.36,150.38,101.57,136.32,101.43,116.16Zm50.47-.35c-.07-9.7-6-15.66-14.88-15.6s-14.27,6.11-14.2,15.8c.07,10.31,5.65,16.12,14.42,16.06S152,126.12,151.9,115.81Z"/></svg>