<svg id="Layer_1" data-name="Layer 1" xmlns="http://www.w3.org/2000/svg" viewBox="0 0 570.89 481.26"><defs><style>.cls-1{fill:#19181b;}.cls-2{fill:#fff;}</style></defs><title>Logo_QuePasa_circulo_white_RGB</title><rect id="Fondo" class="cls-1" width="570.89" height="481.26"/><path class="cls-2" d="M252.37,220c0-30.22-17-62.45-50.36-62.45-20,0-40,17.46-38.65,55.21.71,20.38,13.9,59.53,49.79,60.78C227.31,274,252.37,262.13,252.37,220Z"/><path class="cls-2" d="M379.09,221.82c7.43,0,18.21-.37,22.67-.37,4.65-.56,6.88-1.49,6.88-6.13-.18-6.69-7.25-11.71-11.52-11.71-7.81,0-16,6.69-19,16.73C378.16,220.71,378.53,221.82,379.09,221.82Z"/><path class="cls-2" d="M285.44,43.09c-109.1,0-197.54,88.44-197.54,197.54s88.44,197.55,197.54,197.55S483,349.73,483,240.63,394.55,43.09,285.44,43.09ZM405.91,162.64c1.06-2,2.49-4.26,4.26-4.26,1.25,0,3.38.88,5.51,2.66,1.78,1.42,3,3.2,3,4.62,0,1.06-1.07,3-2.84,4.8l-22.21,23.09a2.76,2.76,0,0,1-3-2ZM383,204.35c3.9-2.41,9.29-4.09,16.17-4.09,13.57,0,23.42,9.11,23.42,21.94,0,2-2.6,3.53-5.2,3.34-11.9-.56-31.6-.56-38.11,0a3.78,3.78,0,0,0-2.23,2.23c-.37,1.3-.37,4.46-.37,7.44,0,14.87,11.9,31,27.7,31,10.22,0,14.31-3.9,18.21-9.11,1.12-1.49,2.6-1.49,2.6.93,0,1.67-1.67,3.9-2.6,5-6.51,8.55-16.91,14.68-27.51,14.68-20.44,0-32.15-17.47-32.15-37C362.92,227.77,368.12,212.72,383,204.35Zm-101.55-1.67c10,0,16.35-1.12,20.63-1.12.37,0,1.11,1.12.93,2.61-.38,11.89-.93,33.08-.93,45.35,0,8.36,1.49,12.82,5.2,15.24,2.79,2.05,6.88,3,11.15,2.79,7.81,0,10.6-3,13-5.58,1.11-1.3,1.85-5,1.85-8.55,0-8.17.19-31.22,0-39,0-3-.74-5.58-3-6.32a30.31,30.31,0,0,0-5.39-1.49c-2.42-.55-3.35-1.48-3.35-2.6s1.86-1.3,3.35-1.3c3.53,0,21.37-1.3,22.3-1.3s1.49,1.86,1.49,6c0,8-.56,18.21-.56,51.3,0,8.73.75,10.59,3.72,10.59,2.6-.18,8.93-1.48,9.85-1.48A1.39,1.39,0,0,1,363,269c0,.74-.55,3.34-1.67,3.53-6.5.93-17.66,3.71-21.75,4.83a15.34,15.34,0,0,1-4.46.93c-.74,0-1.67-1.67-1.67-3.35,0-3.34.19-7.8.37-9.85,0-.37-.74-.37-.93-.18-1.67,1.3-8.55,7.25-13.75,9.85a25.16,25.16,0,0,1-12.27,2.79c-6.13,0-11.52-2.24-15.06-6.14-3-3.16-4.83-8.36-4.83-14.87,0-15.24.37-35.5-.18-41.82-.38-4.83-.19-5.95-5.95-8-1.49-.56-3.53-1.49-3.53-2.6S278.83,202.68,281.44,202.68ZM239.07,309.93c-15-7-23.52-18.27-30.29-24.86-5.5-5.5-4-6.37-9.15-7.29a66.52,66.52,0,0,1-16.11-4.73c-24.82-10.73-38.42-32.64-39-57.55-.8-37.89,29.65-63,63.69-63,38.32,0,63.67,30.6,63.57,62.84-.1,29.24-19.41,51.66-45.32,60.23-1,.33-2.42.68-2.14,2.21,2,10.54,19.77,25.49,34.42,30.25a54.65,54.65,0,0,0,17,2.56c1.84,0,7.91-.58,10.48-1.65,1.2-.49,1.91,1.4.77,2-6,3.06-15.64,5.54-22.05,5.54C256.59,316.44,249.88,314.87,239.07,309.93Zm61.24-20.1a5.78,5.78,0,0,0-2.25.52,1.49,1.49,0,0,0-.52,1.12c-.08,6.06-.08,25.36.18,27.69.34,4.85.43,5.63,4.5,6.67,1.21.26,1.64.52,1.64,1s-.95.87-1.9.87c-2.34,0-13.85-.09-15.58-.09-1,0-1.9-.34-1.9-.78s.52-.86,1.73-1.12c3.2-.69,3.89-1.73,4.07-5.28.08-2.94.25-6.14.25-14.54,0-6.92-.25-10.12-.34-12s-.43-3.12-4-3.81c-1.39-.35-1.82-.78-1.82-1.13s.35-.78,1.73-.78,12.12-.25,15.06-.25c5.28,0,7.88-.21,11.06,1.34s4.55,4,4.55,6a9.48,9.48,0,0,1-5.37,8.65c-5.12,2.85-9.06,3-9.91,3s-1.42-.1-1.52-.69a.89.89,0,0,1,.63-.87c4.05-1.69,8.78-3.42,8.78-9.35C309.4,290.81,305.24,289.83,300.31,289.83Zm55.89,37.81H341.05c-1.47,0-1.9-.43-1.9-.95s.78-.86,1.9-1.12c1.91-.61,2.6-1.13,2.6-2.51,0-.87-1.82-5.28-3-8.74a1.75,1.75,0,0,0-1.47-1.3c-1.9-.17-9.69-.09-10.64,0-.61,0-1.13.69-1.3,1-.69,1.73-2.51,7.27-2.51,8.39,0,1.56.87,2.34,4.15,3.2,1,.35,1.56.78,1.56,1.13,0,.6-1,.86-1.82.86h-12.2c-1.38,0-2.33-.26-2.33-.78s.52-1,1.9-1.29c3-.78,4-1.56,6.49-6.93,2.08-4.41,9.26-23.71,10.47-27.08a4.57,4.57,0,0,0,.43-1.73v-.78a1.88,1.88,0,0,1,.78-1,19.55,19.55,0,0,1,3.9,0c.25,0,.69.52.69.78a24.63,24.63,0,0,0,1.21,3.64c1.38,3.8,8.91,23.36,10.64,27.08,1.91,4.15,2.3,5.19,5.91,6.61,1.12.45,1.62.67,1.62,1.12S357.15,327.64,356.2,327.64Zm23.17-1.47a20.21,20.21,0,0,1-10,2.6,25.69,25.69,0,0,1-4.74-.44,8.47,8.47,0,0,1-6.49-5.94,26.46,26.46,0,0,1-.71-4.09c0-.78.09-2,.78-2,.87,0,2.08,2.85,2.51,3.72,2,3.89,5,6.75,9.52,6.75a7.25,7.25,0,0,0,7.35-6.75c0-2.86-1.64-5-4.93-7.1-2.08-1.38-3.63-2.25-5.36-3.29-4.07-2.33-8-6.31-8-11.33,0-6,5.19-11.34,13.84-11.34a33.38,33.38,0,0,1,4.76.44,30.09,30.09,0,0,0,4,.51c.61.09.95,1,1,1.91,0,1.38.35,4.76.35,6a2.06,2.06,0,0,1-.87,1.82c-.61,0-.78-.52-1.21-1.73a9.46,9.46,0,0,0-3.2-5,8.42,8.42,0,0,0-5.28-2,6.52,6.52,0,0,0-6.84,6.75c0,3.2,1.82,5,4.42,6.49,2.68,1.64,4.84,2.76,7.35,4.32,3.72,2.25,7,5.8,7,10.3A11.41,11.41,0,0,1,379.37,326.17Zm45.07,1.47H409.29c-1.47,0-1.9-.43-1.9-.95s.78-.86,1.9-1.12c1.91-.61,2.6-1.13,2.6-2.51,0-.87-1.82-5.28-3-8.74a1.75,1.75,0,0,0-1.47-1.3c-1.9-.17-9.69-.09-10.65,0-.6,0-1.12.69-1.29,1-.69,1.73-2.51,7.27-2.51,8.39,0,1.56.86,2.34,4.15,3.2,1,.35,1.56.78,1.56,1.13,0,.6-.95.86-1.82.86h-12.2c-1.38,0-2.4-.26-2.33-.78s.7-.28,2.13-.81c3.07-1.14,3.75-2,6.26-7.41,2.07-4.41,9.26-23.71,10.47-27.08a4.57,4.57,0,0,0,.43-1.73v-.78a1.88,1.88,0,0,1,.78-1,19.45,19.45,0,0,1,3.89,0c.26,0,.7.52.7.78a24.63,24.63,0,0,0,1.21,3.64c1.38,3.8,8.91,23.36,10.64,27.08,1.9,4.15,1.9,4.85,6,6.14,1.13.44,1.56.61,1.56,1C426.34,327.3,425.39,327.64,424.44,327.64Z"/><path class="cls-2" d="M334.22,296.06c-.17-.17-.52-.09-.69.26-1.13,2.94-3.9,10.64-4.5,12.46-.09.34.08,1,.34,1,1,.09,7.44.09,9.18-.08.17,0,.52-.26.34-.78C337.68,305.58,335.78,300,334.22,296.06Z"/><path class="cls-2" d="M402.46,296.06c-.18-.17-.52-.09-.69.26-1.13,2.94-3.9,10.64-4.5,12.46-.09.34.08,1,.34,1,1,.09,7.44.09,9.17-.08.18,0,.52-.26.35-.78C405.92,305.58,404,300,402.46,296.06Z"/></svg>