<?xml version="1.0" encoding="utf-8"?>
<!-- Generator: Adobe Illustrator 23.0.1, SVG Export Plug-In . SVG Version: 6.00 Build 0)  -->
<svg version="1.1" id="Layer_1" xmlns="http://www.w3.org/2000/svg" xmlns:xlink="http://www.w3.org/1999/xlink" x="0px" y="0px"
	 viewBox="0 0 674 256.2" style="enable-background:new 0 0 674 256.2;" xml:space="preserve">
<style type="text/css">
	.st0{fill-rule:evenodd;clip-rule:evenodd;fill:#F6911E;}
	.st1{fill:#232020;}
	.st2{font-family:'ArialMT';}
	.st3{font-size:63.74px;}
	.st4{letter-spacing:-8;}
	.st5{letter-spacing:-5;}
	.st6{letter-spacing:-3;}
</style>
<title>Logo_Beethoven_original_RGB</title>
<path class="st0" d="M0,176.8c37.2,13.3,155.5,3.9,150.8-58.7c-1-13.1-22.5-39.2-38.9-23.6c-10.5,10,21.4,27.9-4.6,39.4
	c-11.4,5.1-30.7-8.1-28.8-22.8c2.8-21.4,37.5-34.8,52.4-32.8c24.7,3.5,38.6,26.8,37.9,48.3C166.3,206.8,41,201.7,0,176.8z"/>
<path class="st0" d="M193.9,109.8c0,5.4-4.4,9.8-9.8,9.8c-5.4,0-9.8-4.4-9.8-9.8c0-5.4,4.4-9.8,9.8-9.8
	C189.5,100,193.9,104.3,193.9,109.8C193.9,109.7,193.9,109.7,193.9,109.8z"/>
<path class="st0" d="M193.9,145.7c0,5.4-4.4,9.8-9.8,9.8c-5.4,0-9.8-4.4-9.8-9.8c0-5.4,4.4-9.8,9.8-9.8h0
	C189.5,135.9,193.9,140.3,193.9,145.7z"/>
<path class="st0" d="M41.7,8c0,0,53.8,111.4,42.9,248.1c0,0-17.5-165.5-53.2-221.9S41.7,8,41.7,8z"/>
<path class="st1" d="M223.5,87.2v28.6c2.4-2.5,5.3-4.5,8.5-5.9c3.1-1.3,6.4-2,9.8-2c7.3-0.1,14.4,3.1,19.2,8.6
	c5.3,5.7,7.9,13,7.9,21.9c0,8.6-2.7,15.8-8.2,21.6c-5.4,5.8-11.9,8.7-19.4,8.7c-3.2,0-6.3-0.6-9.3-1.8c-3.2-1.4-6.1-3.4-8.5-5.8v6.1
	h-14.4v-80L223.5,87.2z M238.7,121.4c-4.3-0.1-8.4,1.6-11.4,4.7c-3,3.1-4.5,7.2-4.5,12.2s1.5,9.3,4.5,12.4c2.9,3.1,7.1,4.9,11.4,4.8
	c4.2,0.1,8.3-1.7,11.2-4.8c6-7,6.1-17.4,0.1-24.5C247.1,123,243,121.3,238.7,121.4z"/>
<path class="st1" d="M326,142.6h-46.5c0.5,3.8,2.4,7.3,5.4,9.8c3.2,2.5,7.1,3.8,11.2,3.6c5.2,0.1,10.3-2,14-5.7l12.2,5.7
	c-2.8,4.1-6.5,7.4-10.9,9.6c-4.7,2.2-9.9,3.2-15.1,3.1c-9.1,0-16.4-2.9-22.1-8.6c-5.7-5.7-8.5-12.9-8.5-21.5
	c0-8.8,2.8-16.1,8.5-21.9s12.8-8.7,21.4-8.7c9.1,0,16.5,2.9,22.2,8.7c5.7,5.8,8.5,13.5,8.5,23.1L326,142.6z M311.5,131.2
	c-0.9-3.2-2.9-6-5.7-7.9c-2.9-2-6.3-3.1-9.8-3c-3.8-0.1-7.6,1.1-10.6,3.4c-1.9,1.4-3.7,3.9-5.3,7.5L311.5,131.2z"/>
<path class="st1" d="M382.8,142.6h-46.6c0.5,3.8,2.4,7.3,5.4,9.8c3.2,2.5,7.1,3.8,11.2,3.6c5.2,0.1,10.3-2,14-5.7l12.2,5.7
	c-2.8,4.1-6.5,7.4-10.9,9.6c-4.7,2.2-9.9,3.2-15.1,3.1c-9.1,0-16.4-2.9-22.1-8.6c-5.7-5.7-8.5-12.9-8.5-21.5
	c0-8.8,2.8-16.1,8.5-21.9s12.8-8.7,21.4-8.7c9.1,0,16.5,2.9,22.2,8.7s8.5,13.5,8.5,23.1L382.8,142.6z M368.3,131.2
	c-0.9-3.2-2.9-6-5.7-7.9c-2.9-2-6.3-3.1-9.8-3c-3.8-0.1-7.5,1.1-10.6,3.4c-1.9,1.4-3.7,3.9-5.3,7.5H368.3z"/>
<path class="st1" d="M388.9,88.2h14.5v21.3h8.6V122h-8.6v45.3h-14.5V122h-7.4v-12.4h7.4V88.2z"/>
<path class="st1" d="M414.4,87.2h14.4v28.1c2.5-2.3,5.4-4.1,8.5-5.5c2.7-1.2,5.7-1.8,8.7-1.8c5.4-0.1,10.7,2,14.5,5.9
	c3.4,3.4,5,8.5,5,15.1v38.1h-14.2v-25.3c0-6.7-0.3-11.2-1-13.6c-0.5-2.1-1.6-4-3.3-5.3c-1.7-1.2-3.7-1.8-5.7-1.8
	c-2.8-0.1-5.5,1-7.6,2.9c-2.2,2.2-3.8,5-4.4,8c-0.4,1.7-0.6,5.7-0.6,11.9v23.2h-14.3V87.2z"/>
<path class="st1" d="M494.2,108c5.4,0,10.7,1.4,15.4,4.1c9.5,5.3,15.3,15.4,15.3,26.2c0,5.3-1.4,10.6-4,15.2
	c-2.6,4.6-6.4,8.5-11.1,11.1c-4.7,2.7-10,4.1-15.4,4c-8,0.1-15.7-3.1-21.2-8.8c-11.8-12.1-11.7-31.4,0.4-43.3
	c0.2-0.2,0.5-0.5,0.8-0.7C479.6,110.8,486.8,108,494.2,108z M494.4,121.7c-4.2-0.1-8.3,1.6-11.2,4.7c-3,3.2-4.7,7.6-4.5,12
	c0,5,1.5,9.1,4.4,12.2c2.9,3.1,7,4.8,11.2,4.7c4.3,0.1,8.4-1.6,11.3-4.7c3.1-3.3,4.7-7.7,4.5-12.1c0-4.9-1.5-9-4.4-12.1
	C502.9,123.2,498.7,121.5,494.4,121.7L494.4,121.7z"/>
<path class="st1" d="M514.7,109.6h14.8l14.6,34l14.6-34h14.7l-24.6,57.7h-9.4L514.7,109.6z"/>
<path class="st1" d="M623.9,142.6h-46.5c0.5,3.8,2.4,7.3,5.4,9.8c3.2,2.5,7.1,3.8,11.2,3.6c5.2,0.1,10.3-2,14-5.7l12.2,5.7
	c-2.8,4.1-6.5,7.4-10.9,9.6c-4.7,2.2-9.9,3.2-15.1,3.1c-9,0-16.4-2.9-22.1-8.6c-5.7-5.7-8.6-12.9-8.5-21.5c0-8.8,2.8-16.1,8.5-21.9
	s12.8-8.7,21.3-8.7c9.1,0,16.5,2.9,22.2,8.7c5.7,5.8,8.5,13.5,8.5,23.1L623.9,142.6z M609.4,131.2c-0.9-3.2-2.9-6-5.7-7.9
	c-2.9-2-6.3-3.1-9.8-3c-3.8-0.1-7.6,1.1-10.6,3.4c-1.9,1.4-3.7,3.9-5.3,7.5L609.4,131.2z"/>
<path class="st1" d="M622.9,109.6h14.5v5.9c2.7-2.4,5.7-4.3,8.9-5.8c2.6-1.1,5.4-1.6,8.2-1.6c5.5-0.1,10.8,2.1,14.6,6
	c3.3,3.4,5,8.4,5,15.1v38.1h-14.3V142c0-6.9-0.3-11.5-0.9-13.7c-0.5-2-1.6-3.9-3.2-5.2c-1.6-1.2-3.6-1.8-5.7-1.8
	c-2.8,0-5.5,1-7.5,2.9c-2.2,2.2-3.8,5-4.4,8.1c-0.4,1.8-0.6,5.7-0.6,11.7v23.2h-14.5V109.6z"/>
<text transform="matrix(1 0 0 1 477.95 221.7319)" class="st1 st2 st3 st4">9</text>
<text transform="matrix(1 0 0 1 504.6199 221.7319)" class="st1 st2 st3 st5">6</text>
<text transform="matrix(1 0 0 1 535.0599 221.7319)" class="st1 st2 st3 st6">.</text>
<text transform="matrix(1 0 0 1 548.9901 221.7319)" class="st1 st2 st3 st6">5 </text>
<text transform="matrix(1 0 0 1 594.3099 221.7319)" class="st1 st2 st3 st5">F</text>
<text transform="matrix(1 0 0 1 620.3099 221.7319)" class="st1 st2 st3 st6">M</text>
</svg>
