<svg version="1.1" id="Layer_1" xmlns="http://www.w3.org/2000/svg" x="0" y="0" viewBox="0 0 690.5 118.3" xml:space="preserve"><style>.st0{fill:#fff}.st1{fill:#b2292e}</style><path class="st0" d="M690.5 111.8c0-3.7-2.9-6.6-6.6-6.7-3.7 0-6.6 2.9-6.7 6.6s2.9 6.6 6.6 6.7c3.7-.1 6.7-3 6.7-6.6zm-38.7 1.4c7-3.2 13.4-7.4 19.2-12.5V59h-45.2v3.6h41.7v36.8c-2.5 2.2-5.1 4.1-7.9 5.9-3 1.9-6.2 3.6-9.5 5-3.5 1.5-7.1 2.7-10.8 3.5-4 .9-8 1.3-12 1.3-7.6.1-15.2-1.4-22.1-4.5-6.3-2.9-11.8-7-16.4-12.2-4.5-5.2-8-11.3-10.2-17.8-2.4-6.8-3.6-14-3.6-21.2v-.3c0-7.1 1.3-14.1 3.7-20.7 2.4-6.5 5.9-12.6 10.5-17.8 4.6-5.2 10.1-9.5 16.4-12.5 6.7-3.2 14.1-4.8 21.6-4.7 8.1 0 15 1.3 20.7 3.8 5.9 2.7 11.5 6.2 16.5 10.4l2.3-2.8c-2.7-2.3-5.5-4.4-8.5-6.3-2.9-1.8-5.9-3.3-9-4.6-3.2-1.3-6.6-2.2-10-2.8-3.9-.7-7.9-1-11.8-1-8-.1-16 1.6-23.3 5-6.7 3.2-12.7 7.6-17.6 13.2-4.9 5.5-8.7 11.9-11.1 18.9-2.6 7.1-3.9 14.6-3.9 22.1v.3c0 7.7 1.2 15.3 3.7 22.6 2.3 6.9 6.1 13.3 10.9 18.7 4.9 5.4 10.9 9.8 17.5 12.8 7.4 3.3 15.5 4.9 23.6 4.7 8.3.1 16.8-1.7 24.6-5.2zm-67.9 5.1L526.9 0h-3.2l-53.3 110.6V.9H467l-51.6 72.8-39.8-56.1-1.7 3.5 41.3 58.4h.2L466.6 7v111.3h3.9L525.2 4.9l54.6 113.4h4.1zM364 28.6L378 0H229.2l-29.9 67.2L167.5 0h-33.6v118.3h33.8l-.1-59.6 23.3 59.7h16.3l23.3-59.7.1 59.7h33.5V28.6h32.2v-.1h.1v89.9H333V28.6h31zm.1 6.1h-3.7v83.6h3.7V34.7z"/><path class="st1" d="M0 0h101.8v97.8H0z"/><path class="st0" d="M12.2 18H22v53.6h28.1v8.7H12.2zm49.1 8.7H42.8V18h46.8v8.7H71.1v53.6h-9.8z"/><path class="st1" d="M24 105.8h-4.2v-2h10.7v2h-4.2v12.3H24zm28.6 12.3h-2.7l-2.4-3.5c-.3 0-.7.1-1 .1H45v3.4h-2.3v-14.4h3.7c4 0 6.1 2.2 6.1 5.5.1 2-1 3.9-2.9 4.8l3 4.1zm-6.2-5.3c2.8 0 3.9-1.3 3.9-3.5s-1.1-3.5-3.9-3.5H45v7h1.4zm7.1-1.8c-.1-4 3.1-7.3 7-7.4h.3c2.3-.1 4.4.9 5.7 2.8l-1.7 1.2c-.9-1.3-2.5-2.1-4.1-2-2.9 0-4.9 2.3-4.9 5.3-.2 2.8 1.9 5.1 4.7 5.3h.3c1.7.1 3.3-.7 4.3-2.1l1.8 1.2c-1.4 2-3.7 3.1-6.1 2.9-4 .1-7.2-3.1-7.3-7.1v-.1m35.1 7.1H86l-2.5-3.5c-.3 0-.7.1-1 .1h-1.4v3.4h-2.2v-14.4h3.7c3.9 0 6.1 2.2 6.1 5.5.1 2-1 3.9-2.9 4.8l2.8 4.1zm-6.2-5.3c2.8 0 3.9-1.3 3.9-3.5s-1.1-3.5-3.9-3.5H81v7h1.4zm9 5.3h-2.3l6.3-14.6h.1l6.3 14.6h-2.4l-.8-2h-6.4l-.8 2zm4.1-9.6l-2.4 5.7h4.7l-2.3-5.7zm-18 7.6h-7.1v-2.4h6.1v-2h-6.1v-5.9h7.1v-2h-9.4v14.3h9.4zm-43.3-2.4h6.1v-2h-6.1v-5.9h7.2v-2H32v14.3h9.4v-2h-7.2zM0 103.8h2.3v12.3h6.5v2.1H0z"/><path class="st1" d="M9.4 118.2H7.1l6.3-14.7h.1l6.3 14.7h-2.4l-.8-2h-6.4l-.8 2zm4.1-9.8l-2.4 5.7h4.7l-2.3-5.7z"/></svg>