<?xml version="1.0" encoding="utf-8"?>
<!-- Generator: Adobe Illustrator 23.0.1, SVG Export Plug-In . SVG Version: 6.00 Build 0)  -->
<svg version="1.1" id="Layer_1" xmlns="http://www.w3.org/2000/svg" xmlns:xlink="http://www.w3.org/1999/xlink" x="0px" y="0px"
	 viewBox="0 0 578.2 160.5" style="enable-background:new 0 0 578.2 160.5;" xml:space="preserve">
<title>Logo_Pulso2_black_RGB</title>
<path d="M0,2.1v157.1h163.7V2.1H0z M80.5,131.1H19.6V31h15.8v86.2h45.1V131.1z M144,44.9h-29.8v86.2H98.5V45H68.8V31H144V44.9z"/>
<polygon points="357.5,1.8 357.5,159 418.1,159 418.1,137.4 416.9,137.4 383.6,137.4 383.6,1.8 "/>
<path d="M259.4,46.4c0,16.7,2,33.1-7,42.7c-7.6,8.1-15.4,11.3-38.9,10.1V159h-25.7V1.9h37.1c13.7,0,25.9,4.3,31.4,16.3
	C259.5,25.4,259.4,36.1,259.4,46.4 M233.6,46c0-6.7,0.4-12.1-0.3-15.3c-1.4-6.3-5.5-6.6-11.6-6.6h-8.1v53.2h10.5
	c4,0.1,8.4-1,9.1-5.2C234,67.5,233.7,60.3,233.6,46"/>
<path d="M341.6,2h-25.7l0.3,128.1c0,0,0,7.3-10.6,7.6c-11,0.4-10.1-10.3-10.1-9V2h-26.1l0.4,126c0,0-2.3,31.7,34.5,32.5
	c5.9,0,35.5,0.1,37.5-29C342.1,122.2,341.6,1.9,341.6,2"/>
<path d="M578.2,127.1c0,9.3-2.2,17.6-9.2,24c-7.1,6.4-17.1,8.7-26.9,8.7c-10.6,0-19.1-2.1-26.1-8c-7-5.9-10.1-14.3-10.1-24.2
	l-0.2-95.5c0-9.3,3.2-18.3,10.4-24.4c7-5.6,16.2-7.8,26.6-7.8c9.5,0,18.7,2.6,25.9,8.8s9.2,15,9.2,22.5L578.2,127.1z M552.2,126.8
	V32.4c0-2.3-0.4-9.7-10.2-9.7c-9.3,0-10.3,6.3-10.3,9.7v94.4c0,3.3,0.3,10.4,10.3,10.3C552,137,552.2,130.3,552.2,126.8"/>
<path d="M494.8,120.7c0,15.5-1.5,21.6-7.3,28.7c-5.2,6.4-15.7,10.6-28.2,10.6c-9.7,0-19.3-1.8-26.4-7.6
	c-7.8-6.1-10.5-14.6-10.5-24.4v-25.5h25.3V120c0.1,5.9-0.7,10.3,1.3,13.2c2,2.9,4.6,4.4,10.1,4.1c4.7-0.2,8-2.1,9.3-4.8
	c1.2-2.5,0.6-5.7,0.6-11c0-8.7,0.4-16-11.1-24.4s-19-13.2-26.4-22.6c-10.6-13.4-8.3-31.6-8.4-35.5c-0.5-14.6,0.4-20.6,5.9-27.4
	c6.2-8,17.3-11.5,29.8-11.5c11.1,0,20.5,3.1,27.1,9.9c6,6.3,7.9,14.5,7.9,24v22.8h-25c0.3-1.8,0-9.8,0-15.5s0.5-9.9-0.5-12.6
	c-1.8-4.2-4.6-6.1-10.3-5.9c-2.5-0.1-5,0.7-7,2.2c-2.6,2.1-2.9,6-2.4,14.6c0.2,3.8-0.3,7.5,0.4,10.8c0.9,4.7,3.5,8.8,8.9,13.3
	c8.5,7,19,13.1,26.2,21.7C494.3,97.7,494.8,107.4,494.8,120.7"/>
</svg>
