<?xml version="1.0" encoding="utf-8"?>
<!-- Generator: Adobe Illustrator 23.0.1, SVG Export Plug-In . SVG Version: 6.00 Build 0)  -->
<svg version="1.1" id="Layer_1" xmlns="http://www.w3.org/2000/svg" xmlns:xlink="http://www.w3.org/1999/xlink" x="0px" y="0px"
	 viewBox="0 0 1367.1 116" style="enable-background:new 0 0 1367.1 116;" xml:space="preserve">
<style type="text/css">
	.st0{fill:#FFFFFF;}
</style>
<title>Logo_WallStreetJournal_white_color_RGB</title>
<path class="st0" d="M468.7,110.9h-6.5V11.7c0-4.6,1.4-6.3,4.8-6.8l4.5-0.8V0.9h-34.4v2.8l3.7,0.9c3.4,0.8,4.8,2.3,4.8,6.8v92.1
	c0,4.6-1.4,6.2-4.8,7.1l-3.7,0.9v2.8h54V76.5H488C486.3,94.7,482.9,110.9,468.7,110.9z"/>
<path class="st0" d="M411,110.9h-6.5V11.7c0-4.6,1.4-6.3,4.8-6.8l4.5-0.8V0.9h-34.4v2.8l3.7,0.9c3.4,0.8,4.8,2.3,4.8,6.8v92.9
	c0,4.6-1.7,6.8-6.8,6.8c-6,0-6.8-2-9.1-11.6L350.8,0.3h-6.5l-20.2,96.1c-2.3,10.8-3.4,13.4-8,14.5l-2.8,0.9v2.8h23.6v-2.8l-3.4-0.6
	c-4.8-0.9-6.2-3.7-3.7-16.2l2-10.8h19.9l2.8,14.5c1.7,9.4,1.7,11.4-5.4,12.5l-3.4,0.6v2.8h88.1V76.7h-3.1
	C428.4,94.7,424.9,110.9,411,110.9z M332,79.6l9.1-46.3l9.4,46.3H332z"/>
<path class="st0" d="M570.5,38.4h3.1c1.1-17.3,4.6-33.9,14.8-33.9h3.7v99.2c0,4.6-1.4,6.3-4.8,7.1l-4.3,0.9v2.8h35v-2.8l-4.3-0.9
	c-4.3-0.9-4.8-4.3-4.8-7.1V4.5h3.7c10.2,0,13.6,16.5,14.8,33.8h3.1V0.6h-60.3L570.5,38.4z"/>
<path class="st0" d="M326.9,4.5l3.1-0.8V0.9h-23.3v2.8l3.4,0.6c4.8,0.9,6.3,4,3.7,16.2l-11.9,59.4l-12.2-62.8
	c-1.4-6.6-2.3-11.7,3.4-12.8l3.7-0.6V0.9h-32.1v2.8l2.3,0.6c3.4,0.9,3.7,2.8,5.1,9.1l3.1,15.1l-9.7,51.2l-12.8-62.5
	c-1.4-6.8-2-11.9,3.4-12.8l2.6-0.6V0.9h-33v2.8l3.1,0.9c2.8,0.8,4.5,2.3,6.5,11.4l21,99.2h6.9l14.2-75.6l15.6,75.6h6l20.2-96.1
	C321.8,9.1,322.9,5.4,326.9,4.5z"/>
<path class="st0" d="M105.2,3.7l3.7,0.9c2.8,0.8,4.8,2,4.8,6.8V54h-25V11.4c0-4.6,1.7-6,4.8-6.8l3.7-0.8V0.9H63.1v2.8l3.7,0.9
	c3.4,0.8,4.8,2.3,4.8,6.8v92.1c0,4.6-1.4,6.2-4.8,7.1l-3.7,0.9v2.8h34.1v-2.8l-3.7-0.9c-2.8-0.6-4.8-2.6-4.8-7.4V58.5h25v45.2
	c0,4.6-2,6.5-4.8,7.4l-3.7,0.9v2.9h34.1V112l-3.7-0.9c-3.4-0.9-4.8-2.6-4.8-7.4v-92c0-4.6,1.4-6.3,4.8-6.8l3.7-0.8V1.2h-34.1V3.7z"
	/>
<path class="st0" d="M0,38.4h3.1C4.3,21.1,7.7,4.5,17.9,4.5h3.7v99.2c0,4.6-1.4,6.3-4.8,7.1l-4.3,0.9v2.8h35.8v-2.8l-5.1-1.1
	c-3.1-0.9-4.8-1.7-4.8-7.1V4.3h3.7c10.2,0,13.6,16.5,14.8,33.8H60V0.3H0L0,38.4z"/>
<path class="st0" d="M179.7,110.9h-11.4V57.5l0,0l5.1,0.3c7.4,0.3,9.7,2.8,11.1,21h3.1v-46h-3.1c-1.7,14.5-3.7,20.5-10.8,20.8
	l-5.4,0.3V4.9h11.4c12.8,0,15.6,16.5,17.3,33.8h3.1V0.9H143v2.8l3.7,0.9c3.7,0.8,4.8,3.4,4.8,7.1v92.1c0,4.6-1.4,6.3-4.8,7.1
	l-3.7,0.9v2.8h58.8V76.7h-3.1C196.7,94.4,194.4,110.9,179.7,110.9z"/>
<path class="st0" d="M543.7,4.3c11.9,0,16.5,15.3,18.5,34.1h3.1V0.6h-2c-0.8,3.7-2.3,5.4-4.5,5.4c-3.7,0-5.7-6-14.8-6
	c-14.2,0-23.6,11.7-23.6,27.3c0,28.1,37.2,39.8,37.2,65.6c0,11.7-5.4,18.5-12.8,18.5c-11.1,0-18.5-13.1-20.5-34.1h-3.1v37.8h2
	c1.7-5.4,3.7-6,5.7-6c3.1,0,6.5,6.5,16.2,6.5c14.8,0,26.2-12.8,26.2-30.4l0,0c0-34.1-37.2-42.9-37.2-67.7
	C533.5,12.2,535.5,4.3,543.7,4.3z"/>
<path class="st0" d="M1161.1,98.9c0,6.2-0.8,10.5-3.1,10.5s-2.3-1.7-2.8-9.4l-0.9-14.5c-1.4-19.6-3.7-26.4-18.2-29
	c13.6-3.7,22.2-13.6,22.2-28.1c0-18.8-14.8-27.6-28.7-27.6h-56.6v2.8l3.1,0.6c6,1.4,6.2,4.5,6.2,17.9v66c0,14.8-4.3,21.9-13.6,21.9
	c-8.5,0-13.1-4.3-13.1-20.2V11.4c0-4.6,1.4-6,5.1-6.8l4.6-0.8V0.9h-34.7v2.8l3.7,0.9c3.4,0.8,4.6,2.3,4.6,6.8v77
	c0,17.3,10.2,27,25.6,27s23-9.7,23-27.6V16c0-8.8,1.7-12.2,9.1-12.2c5.7,0,8.2,2,8.2,7.4v92.1c0,4.6-1.4,6.3-4.8,7.1l-3.7,0.9v2.8
	h33.5v-2.8l-3.7-0.9c-3.4-0.9-4.8-2.6-4.8-7.4V57.7h7.7c4.8,0,7.4,1.1,7.7,11.4l0.8,21.3c0.6,19,6.2,24.4,15.3,24.4
	c9.4,0,11.9-6.5,11.9-15.6v-3.7h-3.4L1161.1,98.9L1161.1,98.9z M1126.4,54.9h-5.4v-50h6.5c6.5,0,12.8,4.3,12.8,25.9
	C1140.3,52.6,1135.8,54.9,1126.4,54.9L1126.4,54.9z"/>
<path class="st0" d="M1231.5,3.7V0.9h-25v2.8l2.8,0.6c8.5,1.4,8.5,4.8,8.5,17.3v52.9l-29.3-73.9H1165v2.8l2.3,0.6
	c2.6,0.8,4.3,3.7,6.8,9.4l0,0v79.3c0,11.9,0,17.6-6,18.5l-2.8,0.6v2.8h24.4v-2.8c-10.5-1.4-10.5-5.1-10.5-18.2V24.5l36.7,90.1h6.8
	v-92c0-13.7,0-16.5,6.5-18.5L1231.5,3.7z"/>
<path class="st0" d="M1359.7,99.8c-4.1,0.1-7.4,3.5-7.4,7.7c-0.1,4.1,3.1,7.5,7.1,7.7c0.1,0,0.2,0,0.2,0c4.2-0.2,7.6-3.7,7.4-8
	C1367,103.2,1363.8,99.9,1359.7,99.8L1359.7,99.8z"/>
<path class="st0" d="M1325.1,110.9h-6.5V11.7l0,0c0-4.6,1.4-6.3,4.8-6.8l4.6-0.8V0.9h-34.4v2.8l3.7,0.8c3.4,0.8,4.8,2.3,4.8,6.8v93
	c0,4.6-1.7,6.8-6.8,6.8c-6,0-6.8-2-8.8-11.6l-21.3-99.2h-6.5l-20.2,96.1c-2.3,10.8-3.4,13.4-8,14.5l-2.8,0.9v2.8h23.6v-2.8l-3.4-0.6
	c-4.8-0.9-6.2-3.7-3.7-16.2l2-10.8h19.9l2.8,14.5c2,9.4,1.7,11.4-5.4,12.5l-3.4,0.6v2.8h87.8V76.7h-3.1
	C1342.7,94.7,1339.2,110.9,1325.1,110.9z M1246.3,79.6l8.8-46l9.4,46H1246.3z"/>
<path class="st0" d="M998.2,0c-20.8,0-30.4,26.1-30.4,58s10.2,58,30.4,58c21,0,30.7-26.1,30.7-58C1028.6,26.2,1018.7,0,998.2,0z
	 M998.2,111.5c-8.5,0-12.5-6.8-12.5-54.3c0-46,4.3-52.6,12.5-52.6c8.5,0,12.5,6.5,12.5,52.3C1010.7,104.6,1006.7,111.5,998.2,111.5z
	"/>
<path class="st0" d="M739,110.9h-11.4V57.5l5.1,0.3c7.4,0.3,9.7,2.8,11.1,21h3.1v-46h-3.1c-1.7,14.5-3.7,20.5-10.8,20.8l-5.4,0.3
	V4.9H739c12.8,0,15.6,16.5,17.3,33.8h3.1V0.9h-58.8v2.8l5.4,0.9c3.7,0.8,4.8,3.4,4.8,7.1v92.1c0,4.6-1.4,6.3-4.8,7.1l-3.7,0.9v2.8
	h58.8V76.7H758C756.1,94.4,753.8,110.9,739,110.9z"/>
<path class="st0" d="M801.2,110.9h-11.4V57.5l5.1,0.3c7.4,0.3,9.7,2.8,11.1,21h3.2v-46h-3.1c-1.7,14.5-3.7,20.5-10.8,20.8l-5.4,0.3
	V4.9h11.3c12.8,0,15.6,16.2,17.3,33.8h3.1V0.9h-57.1v2.8l3.7,0.8c3.7,0.8,4.8,3.4,4.8,7.1v92.1c0,4.6-1.4,6.3-4.8,7.1l-3.7,0.9v2.8
	h59.1V76.7h-3.1C818.6,94.4,816.3,110.9,801.2,110.9z"/>
<path class="st0" d="M697.8,98.9c0,6.2-0.9,10.5-3.1,10.5s-2.3-1.7-2.8-9.4l-1.1-14.5c-1.4-20.2-4-26.4-18.2-29
	c13.6-3.7,22.2-13.6,22.2-28.1c0-18.8-14.8-27.6-28.7-27.6h-31.5v2.8l3.7,0.8c3.4,0.9,4.8,2.3,4.8,6.8v92.2c0,4.6-1.4,6.2-4.8,7.1
	l-3.7,0.9v2.8h33.5v-2.8l-3.7-0.9c-3.4-0.9-4.8-2.6-4.8-7.4V58h6.2c4.8,0,7.4,2,7.7,11.4l0.9,21.3c0.6,19,6.2,24.4,15.3,24.4
	c9.4,0,11.9-6.5,11.9-15.6v-3.7h-3.4L697.8,98.9L697.8,98.9z M663.1,54.9h-3.7v-50h4.8c6.5,0,12.8,4.3,12.8,25.9
	S672.5,54.9,663.1,54.9z"/>
<path class="st0" d="M827.1,38.4h3.1c1.1-17.3,4.6-33.9,14.8-33.9h3.7v99.2c0,4.6-1.4,6.3-4.8,7.1l-4.3,0.9v2.8h35.8v-2.8l-5.1-1.1
	c-3.1-0.9-4.8-1.7-4.8-7.1V4.3h3.7c10.2,0,13.6,16.5,14.8,33.8h3.1V0.3h-60.3v38.1H827.1z"/>
<path class="st0" d="M931.7,3.7l4.3,0.9c3.4,0.8,5.1,2,5.1,6.8V91c0,11.1-1.1,20.2-9.4,20.2c-5.4,0-9.4-4.3-9.1-7.1
	c0.6-5.1,9.1-4.8,9.7-13.1c0.6-6-3.4-8.5-6.8-8.8c-5.1-0.6-11.4,3.7-11.7,12.2c-0.3,11.1,7.1,21.3,19.6,21.3
	c13.7,0,24.4-9.4,24.4-27v-77l0,0c0-4.6,1.1-6.3,4.5-6.8l3.7-0.8V1.2h-34.4C931.7,1.2,931.7,3.7,931.7,3.7z"/>
</svg>
