<svg version="1.1" id="Layer_1" xmlns="http://www.w3.org/2000/svg" x="0" y="0" viewBox="0 0 873.8 116.9" xml:space="preserve"><style>.st0{fill:#fff}</style><path class="st0" d="M851.3 114.3c4.4-1.4 8.5-3.5 12.2-6.4 3.2-2.6 5.9-5.8 7.7-9.5 1.8-3.7 2.7-7.7 2.7-11.8v-.3c.1-3.6-.6-7.1-1.9-10.4-1.4-3.3-3.7-6.1-6.5-8.2-3.7-2.8-7.8-4.9-12.1-6.5-6-2.2-12.2-3.9-18.5-5.1-5.9-1.1-11.7-2.6-17.4-4.6-4-1.3-7.8-3.2-11.2-5.7-2.6-1.8-4.7-4.3-6-7.2-1.2-2.9-1.8-6-1.8-9.2v-.3c0-3.3.8-6.6 2.3-9.6 1.6-3.2 3.9-5.9 6.7-8.2 3.1-2.5 6.6-4.4 10.4-5.7 4.3-1.4 8.9-2.1 13.5-2.1 6.7-.1 13.4 1.1 19.7 3.5 6 2.2 11.6 5.3 16.8 9.1l2.3-2.9c-5.3-4-11.2-7.2-17.5-9.5C846 1.4 838.9.2 831.8.2c-5-.1-10 .7-14.8 2.3-4.2 1.4-8.1 3.5-11.6 6.2-3.2 2.5-5.8 5.6-7.7 9.2-1.8 3.5-2.8 7.3-2.8 11.2v.3c-.1 3.6.6 7.2 2.1 10.6 1.5 3.2 3.8 6 6.7 8.2 3.7 2.7 7.7 4.8 12 6.2 5.8 2 11.8 3.6 17.8 4.8 6 1.2 12 2.8 17.8 4.8 4.1 1.3 7.9 3.2 11.4 5.7 2.6 1.9 4.7 4.4 6 7.3 1.2 2.9 1.8 6.1 1.8 9.3v.3c0 3.7-.8 7.3-2.4 10.6-1.6 3.3-4 6.2-6.9 8.5-3.3 2.5-7 4.4-11 5.6-4.7 1.4-9.5 2.1-14.4 2-7.9.1-15.8-1.5-23.1-4.5-7.2-3.1-13.8-7.5-19.4-12.9l-2.6 2.6c5.9 5.7 12.8 10.2 20.4 13.4 7.7 3.2 16 4.8 24.3 4.7 5.4.1 10.7-.7 15.9-2.3M711.1 59.8h72v-3.2h-72M720 5.2h70V2h-78.9v3.2h8.9zM790.9 115v-3.2h-79.8v3.2h79.8zm-91.3-68.3c1.9-4 2.8-8.3 2.7-12.8v-.3c0-8.6-2.7-15.6-8.1-21-7-7.1-17.8-10.6-32.4-10.6h-46.2v113h3.5V5.2h42.3c11.7 0 20.9 2.5 27.4 7.5 6.6 5 9.9 12 9.8 21.1v.3c0 3.8-.8 7.6-2.3 11.1-1.6 3.5-4.1 6.6-7.2 9-3.6 2.8-7.7 4.8-12.1 6-5.2 1.5-10.6 2.2-16 2.2v3.2l37.5 49.4h4.4l-37.6-49.4c5.1-.3 10.2-1.2 15-2.8 4.2-1.4 8.2-3.6 11.6-6.4 3.3-2.6 5.9-5.9 7.7-9.7M552.2 0c-15.5-.3-30.4 6.1-40.9 17.6-4.9 5.4-8.7 11.7-11.3 18.6-2.6 7.1-4 14.6-4 22.1v.3c0 7.5 1.3 15 4 22.1 2.5 6.9 6.4 13.2 11.3 18.6 10.5 11.5 25.4 17.9 40.9 17.6 8 .1 15.9-1.5 23.2-4.8 6.7-3 12.8-7.4 17.8-12.8 4.9-5.4 8.8-11.7 11.3-18.6 2.2-5.9 3.5-12.2 3.9-18.5h-3.6c-.3 6-1.5 11.9-3.6 17.5-4.8 13.1-14.6 23.7-27.3 29.5-13.7 6.1-29.3 6-43-.1-6.3-2.9-12-7.1-16.7-12.2-4.7-5.1-8.3-11.1-10.7-17.6-2.5-6.7-3.8-13.7-3.8-20.8v-.3c0-7.1 1.2-14.2 3.7-20.8 2.4-6.5 6-12.4 10.7-17.5 4.7-5 10.3-9.1 16.5-12 6.8-3.1 14.1-4.6 21.5-4.5h.2M385.7 116.9c15.5.3 30.5-6.1 40.9-17.6 4.9-5.4 8.8-11.7 11.3-18.6 2.7-7.1 4-14.6 4-22.1v-.3c0-7.6-1.3-15-4-22.1-2.6-6.8-6.4-13.1-11.3-18.6C416.2 6.1 401.2-.3 385.7 0c-8-.1-15.9 1.5-23.2 4.8-6.7 3-12.8 7.4-17.8 12.8-4.9 5.4-8.7 11.7-11.3 18.6-2.2 5.9-3.5 12.2-3.9 18.5h3.5c.3-6 1.5-11.9 3.6-17.5 4.8-13.1 14.6-23.7 27.3-29.5 13.7-6.1 29.3-6 43 .1 6.3 2.9 12 7.1 16.7 12.2 4.7 5.1 8.3 11.1 10.7 17.6 2.5 6.7 3.8 13.7 3.8 20.8v.3c0 7.1-1.2 14.2-3.7 20.8-4.8 13.1-14.6 23.7-27.2 29.5-6.8 3.1-14.1 4.6-21.6 4.5h-.2"/><path class="st0" d="M467.2 115h3.5V5.2h40.9V2h-85.3v3.2h40.9M216.3 115h3.5V34.4h-3.5V115zm105.1 0V2h-3.2L269 72l-38.1-54.2-1.6 3.4 39.6 56.4h.2L317.9 8v107h3.5z"/><path class="st0" d="M219.6 28.6l13.3-27.4h-142L62.4 65.8 32.1 1.2H0V115h32.2l-.1-57.4L54.3 115h15.6l22.2-57.4.2 57.4h31.9V28.6H155v-.1h.1V115H190V28.6"/></svg>