<svg version="1.1" id="Layer_1" xmlns="http://www.w3.org/2000/svg" x="0" y="0" viewBox="0 0 764 110.4" xml:space="preserve"><style>.st0{fill:#fff}</style><path class="st0" d="M418.5 55.3V55c0-7.1-1.2-14.2-3.7-20.9-2.4-6.5-6-12.4-10.7-17.5-4.7-5.1-10.4-9.3-16.8-12.1C380.4 1.4 373-.1 365.4 0c-3.8 0-7.7.4-11.4 1.1l-2 3.7c4.3-1.2 8.8-1.7 13.3-1.7 7-.1 14 1.4 20.3 4.3 6 2.8 11.3 6.7 15.8 11.5 4.4 4.8 7.9 10.5 10.1 16.6 2.4 6.3 3.6 13 3.6 19.7v.3c0 6.7-1.2 13.4-3.5 19.8-2.2 6.1-5.7 11.7-10.1 16.4-4.4 4.8-9.8 8.7-15.7 11.4-6.4 2.9-13.3 4.4-20.3 4.3-7 .1-14-1.4-20.3-4.4-6-2.8-11.3-6.7-15.8-11.5-4.4-4.8-7.9-10.5-10.2-16.6-2.4-6.3-3.6-12.9-3.6-19.7v-.3c0-6.7 1.2-13.4 3.5-19.7.1-.4.3-.7.5-1.1h-3.5v.1c-2.5 6.7-3.8 13.8-3.7 20.9v.3c0 7.1 1.2 14.2 3.7 20.9 2.4 6.5 6 12.4 10.7 17.5 4.7 5.1 10.3 9.2 16.7 12.1 14 6 29.8 6 43.8 0 6.4-2.9 12.1-7 16.8-12.1 4.6-5.1 8.3-11.1 10.7-17.5 2.5-6.7 3.7-13.8 3.7-21m5.6 55.1h3.3V9.2l81 101.2h2.9V19.8h-3.4v85.1L427 3.7h-2.9zm110.2 0h55.5v-3.1h-52.1V3.6h-3.4zm52.1-12.1h3.4V9.2l80.9 101.2h2.9V3.7h-3.3v101.2l-81-101.2h-2.9z"/><path class="st0" d="M560.5 19.9h3.3v78.5h-3.3zm0-16.3h3.4v11h-3.4zm-316.9-.8h-31.5l-26.9 61.1-28.7-61.1h-30.4v107.5h30.5l-.1-54.2 21 54.3h14.7l21-54.3.1 54.3 30.3-.1V28.7h29v-.1h.1v81.8h33.1V28.7h28l12.6-25.9zm445.1 55.4h68v-3h-68v3zM697 6.6h66.3v-3h-74.6v3h8.3zm67 103.8v-3h-75.3v3H764zM0 2.8v107.6h112.1V2.8H0zm55.1 88.3H13.4V22.5h10.8v59h30.9v9.6zm43.6-59H78.2v59H67.4v-59H47.1v-9.6h51.6v9.6z"/></svg>