<svg xmlns="http://www.w3.org/2000/svg" xmlns:xlink="http://www.w3.org/1999/xlink" viewBox="0 0 228 228"><path d="M113.8 212.9c-54.6 0-98.9-44.3-98.9-98.9s44.3-99 98.9-99 98.9 44.3 98.9 98.9c.1 54.5-44 98.8-98.6 98.9-.1.1-.2.1-.3.1z" fill="#161617"/><linearGradient id="a" gradientUnits="userSpaceOnUse" x1="163.109" y1="87.982" x2="70.619" y2="159.912" gradientTransform="matrix(1 0 0 -1 -7.89 234.33)"><stop offset="0" stop-color="#d5dbd9"/><stop offset=".16" stop-color="#dee2e0"/><stop offset=".37" stop-color="#cfd4d3"/><stop offset=".64" stop-color="#b6bdbf"/><stop offset=".8" stop-color="#221e20"/><stop offset=".93" stop-color="#a7adb5"/><stop offset="1" stop-color="#fff"/></linearGradient><path d="M113.8 63c-28.2-.1-51.1 22.6-51.2 50.8-.1 28.2 22.6 51.1 50.8 51.2 28.2.1 51.1-22.6 51.2-50.8v-.2c0-28.1-22.7-50.9-50.8-51zm0 97.6c-25.8 0-46.7-21-46.7-46.8S88.1 67 114 67.1c25.8 0 46.7 21 46.7 46.8 0 25.8-20.9 46.7-46.7 46.7h-.2z" opacity=".2" fill="url(#a)"/><linearGradient id="b" gradientUnits="userSpaceOnUse" x1="182.555" y1="50.305" x2="60.675" y2="191.225" gradientTransform="matrix(1 0 0 -1 -7.89 234.33)"><stop offset="0" stop-color="#e8eae8"/><stop offset=".06" stop-color="#e4e6e4"/><stop offset=".4" stop-color="#cfd5d3"/><stop offset=".62" stop-color="#c8cfcd"/><stop offset=".71" stop-color="#d1d6d4"/><stop offset="1" stop-color="#e8eae8"/></linearGradient><path d="M113.8 18.6c-52.7.1-95.3 42.9-95.1 95.6.1 52.7 42.9 95.3 95.6 95.1 52.6-.1 95.2-42.8 95.1-95.4.1-52.6-42.5-95.2-95.1-95.3h-.5zm0 186.4C63.6 205 23 164.1 23 113.9c.1-50.2 40.9-90.7 91.1-90.6s90.7 40.9 90.6 91.1c-.1 50.1-40.8 90.7-90.9 90.6z" opacity=".36" fill="url(#b)"/><linearGradient id="c" gradientUnits="userSpaceOnUse" x1="175.203" y1="48.631" x2="65.113" y2="192.321" gradientTransform="matrix(1 0 0 -1 -7.89 234.33)"><stop offset=".01" stop-color="#ececeb"/><stop offset=".2" stop-color="#b8b9b8"/><stop offset=".6" stop-color="#585859"/><stop offset=".87" stop-color="#1b1c1d"/><stop offset="1" stop-color="#030406"/></linearGradient><path d="M113.8 23.1c-50.1 0-90.7 40.5-90.8 90.6v.2c0 50.2 40.5 91.1 90.8 91.1 50.2-1.7 89.6-43.7 87.9-94-1.5-47.8-40-86.3-87.9-87.9zm0 176.2c-47.1 0-85.1-38.6-85.1-85.4.1-47.1 38.4-85.1 85.4-85s85.1 38.4 85 85.4c-.1 47.1-38.3 85.1-85.3 85z" opacity=".63" fill="url(#c)"/><linearGradient id="d" gradientUnits="userSpaceOnUse" x1="155.708" y1="67.849" x2="78.788" y2="185.669" gradientTransform="matrix(1 0 0 -1 -7.89 234.33)"><stop offset=".01" stop-color="#ececeb"/><stop offset=".2" stop-color="#b8b9b8"/><stop offset=".6" stop-color="#585859"/><stop offset=".87" stop-color="#1b1c1d"/><stop offset="1" stop-color="#030406"/></linearGradient><path d="M113.8 28.6c-47 0-85.1 38.1-85.1 85.1v.2c0 46.9 38 85.4 85.1 85.4 47.2-.5 85-39.2 84.5-86.3-.5-46.4-38-83.9-84.5-84.4zm0 160.8c-41.7 0-75.5-33.8-75.4-75.5 0-41.7 33.8-75.5 75.5-75.4 41.6 0 75.4 33.8 75.4 75.4 0 41.7-33.7 75.5-75.4 75.5h-.1z" opacity=".8" fill="url(#d)"/><linearGradient id="e" gradientUnits="userSpaceOnUse" x1="65.119" y1="81.033" x2="176.779" y2="158.703" gradientTransform="matrix(1 0 0 -1 -7.89 234.33)"><stop offset="0" stop-color="#1b1b1f"/><stop offset=".13" stop-color="#3e4043"/><stop offset=".43" stop-color="#979d9e"/><stop offset=".55" stop-color="#bdc5c5"/><stop offset=".59" stop-color="#9fa5a6"/><stop offset=".66" stop-color="#767a7c"/><stop offset=".73" stop-color="#545659"/><stop offset=".79" stop-color="#3a3b3e"/><stop offset=".86" stop-color="#27272a"/><stop offset=".93" stop-color="#1c1b1f"/><stop offset="1" stop-color="#18171b"/></linearGradient><path d="M113.8 42c-39.8 0-72 32.2-72.1 71.9s32.2 72 71.9 72.1 72-32.2 72.1-71.9v-.1c.1-39.6-31.9-71.8-71.5-71.9-.1-.1-.3-.1-.4-.1zm0 133.5c-34 .1-61.6-27.4-61.6-61.4s27.4-61.6 61.4-61.6 61.6 27.4 61.6 61.4v.1c0 33.9-27.4 61.4-61.4 61.5z" opacity=".36" fill="url(#e)"/><linearGradient id="f" gradientUnits="userSpaceOnUse" x1="163.016" y1="80.031" x2="78.436" y2="162.581" gradientTransform="matrix(1 0 0 -1 -7.89 234.33)"><stop offset="0" stop-color="#d5dbd9"/><stop offset=".16" stop-color="#dee2e0"/><stop offset=".37" stop-color="#cfd4d3"/><stop offset=".64" stop-color="#b6bdbf"/><stop offset=".8" stop-color="#221e20"/><stop offset=".93" stop-color="#a7adb5"/><stop offset="1" stop-color="#fff"/></linearGradient><path d="M113.8 56.2C81.9 56.2 56 82 56 113.9s25.8 57.8 57.7 57.8c31.9 0 57.8-25.8 57.8-57.7 0-31.9-25.8-57.8-57.7-57.8zm0 112.8c-30.4-.1-54.9-24.8-54.8-55.2S83.9 58.9 114.3 59c30.3.1 54.7 24.7 54.8 54.9 0 30.4-24.6 55-54.9 55.1h-.4z" opacity=".6" fill="url(#f)"/><image width="176" height="175" xlink:href="FE6D889E41FB3702.png" transform="translate(26.385 26.942) scale(.9943)" overflow="visible"/><path d="M113.8 75.7c21-.1 38.2 16.9 38.2 37.9.1 21-16.9 38.2-37.9 38.2-21 .1-38.2-16.9-38.2-37.9-.2-20.9 16.5-38 37.4-38.2h.5m0-.1c-10.1 0-19.8 4-26.9 11.2-14.9 14.9-14.9 39.1 0 54 14.8 14.9 38.9 14.9 53.7 0 7.1-7.1 11.2-16.8 11.1-26.9.1-10.2-3.9-19.9-11-27.1-7-7.3-16.7-11.3-26.9-11.2z" fill="#f0f2f1" opacity=".15"/><linearGradient id="g" gradientUnits="userSpaceOnUse" x1="102.537" y1="137.591" x2="143.847" y2="100.742" gradientTransform="matrix(1 0 0 -1 -7.89 234.33)"><stop offset=".01" stop-color="#ececeb"/><stop offset=".2" stop-color="#b8b9b8"/><stop offset=".6" stop-color="#585859"/><stop offset=".87" stop-color="#1b1c1d"/><stop offset="1" stop-color="#030406"/></linearGradient><path d="M148 113.9c0 18.9-15.4 34.2-34.2 34.1-18.9 0-34.2-15.4-34.1-34.2 0-18.8 15.3-34.1 34.2-34.1 18.8 0 34.1 15.2 34.2 34-.1.1-.1.2-.1.2z" opacity=".8" fill="url(#g)"/><linearGradient id="h" gradientUnits="userSpaceOnUse" x1="95.029" y1="88.693" x2="186.859" y2="197.563" gradientTransform="matrix(1 0 0 -1 -7.89 234.33)"><stop offset="0" stop-color="#1b1b1f"/><stop offset=".13" stop-color="#3e4043"/><stop offset=".43" stop-color="#979d9e"/><stop offset=".55" stop-color="#bdc5c5"/><stop offset=".59" stop-color="#9fa5a6"/><stop offset=".66" stop-color="#767a7c"/><stop offset=".73" stop-color="#545659"/><stop offset=".79" stop-color="#3a3b3e"/><stop offset=".86" stop-color="#27272a"/><stop offset=".93" stop-color="#1c1b1f"/><stop offset="1" stop-color="#18171b"/></linearGradient><path d="M141.1 113.9c.1 15.1-12.1 27.4-27.2 27.5-15.1.1-27.4-12.1-27.5-27.2 0-15.2 12.2-27.5 27.3-27.5h.1c15.1 0 27.3 12.2 27.3 27.2z" opacity=".15" fill="url(#h)"/><linearGradient id="i" gradientUnits="userSpaceOnUse" x1="111.781" y1="130.641" x2="127.991" y2="114.031" gradientTransform="matrix(1 0 0 -1 -7.89 234.33)"><stop offset="0" stop-color="#fff"/><stop offset="1"/></linearGradient><path d="M136.4 113.9c0 12.5-10.1 22.6-22.6 22.5-12.5 0-22.6-10.1-22.6-22.6 0-12.5 10.1-22.5 22.5-22.5 12.3-.1 22.4 9.8 22.6 22.2.1.2.1.3.1.4z" opacity=".06" fill="url(#i)"/><path d="M113.8 205C63.6 205 23 164.1 23 113.9c.1-50.2 40.9-90.7 91.1-90.6s90.7 40.9 90.6 91.1c-.1 50.1-40.8 90.7-90.9 90.6z" opacity=".8" fill="none" stroke="#e9ecea" stroke-width=".03"/><path d="M113.8 205C63.6 205 23 164.1 23 113.9c.1-50.2 40.9-90.7 91.1-90.6s90.7 40.9 90.6 91.1c-.1 50.1-40.8 90.7-90.9 90.6z" opacity=".27" fill="none" stroke="#f0f2f1" stroke-width=".03"/><linearGradient id="j" gradientUnits="userSpaceOnUse" x1="157.072" y1="77.329" x2="87.872" y2="161.499" gradientTransform="matrix(1 0 0 -1 -7.89 234.33)"><stop offset="0" stop-color="#d5dbd9"/><stop offset=".16" stop-color="#dee2e0"/><stop offset=".37" stop-color="#cfd4d3"/><stop offset=".55" stop-color="#b6bdbf"/><stop offset=".69" stop-color="#221e20"/><stop offset=".84" stop-color="#a7adb5"/><stop offset=".87" stop-color="#c6cacf"/><stop offset=".9" stop-color="#dfe1e4"/><stop offset=".93" stop-color="#f1f2f3"/><stop offset=".96" stop-color="#fcfcfc"/><stop offset="1" stop-color="#fff"/></linearGradient><path d="M113.8 56.2C81.9 56.2 56 82 56 113.9s25.8 57.8 57.7 57.8c31.9 0 57.8-25.8 57.8-57.7 0-31.9-25.8-57.8-57.7-57.8zm0 112.8c-30.4-.1-54.9-24.8-54.8-55.2S83.9 58.9 114.3 59c30.3.1 54.7 24.7 54.8 54.9 0 30.4-24.6 55-54.9 55.1h-.4z" fill="url(#j)"/><linearGradient id="k" gradientUnits="userSpaceOnUse" x1="176.191" y1="54.319" x2="111.741" y2="132.319" gradientTransform="matrix(1 0 0 -1 -7.89 234.33)"><stop offset="0" stop-color="#fff"/><stop offset=".15" stop-color="#c4c4c4"/><stop offset=".32" stop-color="#898989"/><stop offset=".49" stop-color="#585858"/><stop offset=".64" stop-color="#323232"/><stop offset=".78" stop-color="#161616"/><stop offset=".91" stop-color="#060606"/><stop offset="1"/></linearGradient><path d="M113.8 52.5c-34-.1-61.6 27.4-61.6 61.4-.1 34 27.4 61.6 61.4 61.6s61.6-27.4 61.6-61.4v-.1c.1-34-27.4-61.5-61.4-61.5zm0 119.2C81.9 171.7 56 145.9 56 114c0-31.9 25.8-57.8 57.7-57.8 31.9 0 57.7 25.8 57.8 57.7.1 31.9-25.8 57.8-57.7 57.8z" opacity=".7" fill="url(#k)"/><path d="M113.8 175.5c-34 .1-61.6-27.4-61.6-61.4s27.4-61.6 61.4-61.6 61.6 27.4 61.6 61.4v.1c0 33.9-27.4 61.4-61.4 61.5z" opacity=".7" fill="none" stroke="#221e20" stroke-width=".05"/><path d="M113.8 171.7C81.9 171.7 56 145.9 56 114c0-31.9 25.8-57.8 57.7-57.8 31.9 0 57.7 25.8 57.8 57.7.1 31.9-25.8 57.8-57.7 57.8z" opacity=".8" fill="none" stroke="#000" stroke-width=".05"/><path d="M100.4 79.7c1.6 2.1-.7 7.1-5.2 10.8s-9.7 5.1-11.8 3.1c-1.6-2.1.6-6.9 5.2-10.8s9.9-5.2 11.8-3.1z" opacity=".4" fill="#fff"/><path d="M127.9 124.6c1.1 1.1.4 2.4-1.1 3.7-1.3 1.1-2.8 1.4-3.6.4-.5-.9-.3-2.4 1.1-3.6 1.2-1.1 3.1-1.5 3.6-.5z" opacity=".2" fill="#fff"/><path d="M106.3 95.8c1.2 1.6-.4 4.3-3.1 6.8s-6 3.4-7 2.1c-1.2-1.2.1-4.3 2.8-6.7 3-2.6 6.1-3.5 7.3-2.2z" opacity=".1" fill="#fff"/><linearGradient id="l" gradientUnits="userSpaceOnUse" x1="188.168" y1="32.547" x2="55.938" y2="207.647" gradientTransform="matrix(1 0 0 -1 -7.89 234.33)"><stop offset="0" stop-color="#c8cfcd"/><stop offset=".08" stop-color="#d1d6d4"/><stop offset=".33" stop-color="#e8eae8"/><stop offset=".62" stop-color="#c8cfcd"/><stop offset=".67" stop-color="#d1d6d4"/><stop offset=".82" stop-color="#e8eae8"/><stop offset="1" stop-color="#c8cfcd"/></linearGradient><path d="M113.8 0C50.9.1-.1 51.3 0 114.2c.1 63 51.2 113.9 114.2 113.8 62.9-.1 113.8-51.2 113.8-114.1C228 51.1 176.9 0 113.8 0zm0 212.9c-54.6 0-98.9-44.3-98.9-98.9s44.3-99 98.9-99 98.9 44.3 98.9 98.9c.1 54.5-44 98.8-98.6 98.9-.1.1-.2.1-.3.1z" fill="url(#l)"/><linearGradient id="m" gradientUnits="userSpaceOnUse" x1="190.597" y1="29.327" x2="53.192" y2="211.288" gradientTransform="matrix(1 0 0 -1 -7.89 234.33)"><stop offset="0" stop-color="#221e20"/><stop offset=".03" stop-color="#383536"/><stop offset=".18" stop-color="#969595"/><stop offset=".28" stop-color="#d1d2d1"/><stop offset=".33" stop-color="#e8eae8"/><stop offset=".62" stop-color="#ececec"/><stop offset=".82" stop-color="#e8eae8"/><stop offset="1" stop-color="#221e20"/></linearGradient><path d="M113.8 0C50.9.1-.1 51.3 0 114.2c.1 63 51.2 113.9 114.2 113.8 62.9-.1 113.8-51.2 113.8-114.1C228 51.1 176.9 0 113.8 0zm0 212.9c-54.6 0-98.9-44.3-98.9-98.9s44.3-99 98.9-99 98.9 44.3 98.9 98.9c.1 54.5-44 98.8-98.6 98.9-.1.1-.2.1-.3.1h0z" fill="url(#m)" stroke="#e8eae8" stroke-width=".03"/><path d="M113.8 212.9c-54.6 0-98.9-44.3-98.9-98.9s44.3-99 98.9-99 98.9 44.3 98.9 98.9c.1 54.5-44 98.8-98.6 98.9-.1.1-.2.1-.3.1z" fill="none" stroke="#e8eae8" stroke-width=".03"/><path d="M113.8 214.3c-55.3 0-100-45.1-100-100.3.6-55.3 45.8-99.6 101.1-99.1 54.5.5 98.5 44.6 99.1 99.1 0 55.1-44.9 100.3-100.2 100.3z" opacity=".2" fill="none" stroke="#f0f2f1" stroke-width=".08"/></svg>