<?xml version="1.0" encoding="utf-8"?>
<!-- Generator: Adobe Illustrator 23.0.1, SVG Export Plug-In . SVG Version: 6.00 Build 0)  -->
<svg version="1.1" id="Layer_1" xmlns="http://www.w3.org/2000/svg" xmlns:xlink="http://www.w3.org/1999/xlink" x="0px" y="0px"
	 viewBox="0 0 602.7 71.3" style="enable-background:new 0 0 602.7 71.3;" xml:space="preserve">
<style type="text/css">
	.st0{fill:#FFFFFF;}
	.st1{fill:#6B84AD;}
	.st2{fill:#7F9FD3;}
	.st3{fill:#96B6E0;}
	.st4{fill:#7D9ACA;}
	.st5{fill:#CCB0A7;}
	.st6{fill:#8F8577;}
	.st7{fill:#A59FB7;}
	.st8{fill:#B0ACD5;}
	.st9{fill:#D2B886;}
	.st10{fill:#E2A380;}
	.st11{fill:#897C6E;}
	.st12{fill:#8D7E79;}
	.st13{fill:#B39C75;}
	.st14{fill:#C19B90;}
	.st15{fill:#A89379;}
	.st16{fill:#D0B085;}
	.st17{fill:#BC9E84;}
	.st18{fill:#AF9174;}
	.st19{fill:#987E5A;}
</style>
<g>
	<path class="st0" d="M458.3,28.9c-2.2-1.8-3.5-4.2-3.5-7.3c0-2.8,0.9-5.1,2.7-7.1c1.8-2,4.6-3.1,8.6-3.1c4,0,7,1.1,8.9,3.1
		c1.9,2,2.9,4.3,2.9,6.7c0,2.9-1,5.2-3,7.2c-2,2-4.9,2.9-8.5,2.9C463.2,31.4,460.5,30.7,458.3,28.9z M456.3,60.1
		c-2.2-2.5-3.3-5.4-3.3-8.8c0-3.9,1.2-7,3.7-9.2c2.4-2.3,5.7-3.3,9.6-3.3c4,0,7.3,1.1,9.9,3.3c2.6,2.2,3.9,5.3,3.9,9.5
		c0,4.1-1.2,7.2-3.8,9.2c-2.5,2-5.6,3.1-9.4,3.1C462,63.8,458.5,62.6,456.3,60.1z M446.7,41c-1.9,2.8-2.8,6.2-2.8,10.1
		c0,6.6,2.2,11.5,6.6,15c4.4,3.5,9.7,5.2,16.1,5.2c7,0,12.5-2,16.4-6c3.9-4,5.8-8.9,5.8-14.6c0-4.8-1.5-8.8-4.3-11.8
		c-1.5-1.6-3.6-3.1-6.4-4.3c2.6-1.3,4.2-2.7,5.4-4.2c2-2.5,3.1-5.7,3.1-9.9c0-4.4-1.7-8.2-5.3-11.5c-3.6-3.4-8.5-5-14.7-5
		c-6.5,0-11.5,1.7-15,5.2c-3.6,3.5-5.3,7.6-5.3,12.5c0,3.9,1.1,7.1,3.5,9.5c1.3,1.3,3.1,2.5,5.3,3.4C451.4,36.1,448.7,38.3,446.7,41
		z"/>
	<path class="st0" d="M502.1,36.5c-2-2.5-3-5.9-3-10.1c0-4.5,1.2-8.1,3.5-10.8c2.4-2.7,5.6-4,9.5-4c3.8,0,6.8,1.2,9.2,3.6
		c2.4,2.3,3.6,5.9,3.6,10.7c0,5.4-1.3,9.1-4,11.3c-2.7,2.2-5.7,3.2-9,3.2C507.5,40.2,504.2,39,502.1,36.5z M496.3,66.2
		c3.3,3.4,8.1,5.1,14.5,5.1c9.6,0,16.3-5.2,20.3-15.3c2.4-6.2,3.6-13.3,3.6-21.3c0-7.1-1-13-3.1-17.7C528,8.3,521.4,4.1,512,4.1
		c-7.1,0-12.4,2.2-16,6.7c-3.6,4.5-5.5,9.7-5.5,15.6c0,6.2,1.8,11.2,5.5,15.1c3.6,3.9,8.6,6,14.9,6c3.1,0,6-0.6,8.7-1.8
		c2.7-1.1,4.9-3.1,6.8-6.1c-1.2,10-3.2,16.6-5.9,19.9c-2.8,3.1-6.1,4.9-10,4.9c-2.1,0-3.9-0.5-5.6-1.4c-3.3-1.7-4.9-4.7-5.2-9.3
		h-8.3C491.3,58.7,493,62.9,496.3,66.2z"/>
	<path class="st0" d="M541.6,69.4v-10h9.4v10H541.6z"/>
	<path class="st0" d="M557.3,5.3h45.4v7.1c-2.2,2-4.9,5.6-8.4,10.7c-3.6,5-6.6,10.4-9.3,16.2c-2.6,5.7-4.6,10.9-6,15.6
		c-0.8,3-2,7.8-3.3,14.5h-9.1c2-12.4,6.6-24.8,13.7-37.2c4.2-7.2,8.5-13.4,13.1-18.7h-36.1V5.3z"/>
	<path class="st0" d="M108.6,0c16.9,0,26.3,1.6,33.7,6.1c9.3,5.7,14.6,15.8,14.6,27.6c0,14.5-8,26.3-21.4,31.8
		c-6.4,2.6-16.4,4.2-26.9,4.2H78.2V0H108.6z M90,63h19.2c10.2,0,18.7-1.9,24-5.6c7.1-5,10.9-13.1,10.9-23.4
		c0-11.2-4.7-19.8-13.2-24.1c-5.3-2.7-9.5-3.3-21.8-3.3H90V63z"/>
	<path class="st0" d="M171.6,0v41.5c0,6.4,0.2,7.6,0.7,10.1c2.5,8.2,11.4,12.8,25.1,12.8c10.4,0,19.1-3.3,22.8-8.4
		c1.6-2.3,2.6-5.7,2.8-9.4v-5.2V0h11.7v41.3c0,6.6-0.1,8.9-1,11.9c-3.4,11.7-16,17.9-36.3,17.9c-16.8,0-28.8-4.4-34.1-12.4
		c-1.9-2.9-3.1-7.2-3.1-11.5c-0.2-1.7-0.2-3.6-0.2-5.9V0H171.6z"/>
	<path class="st0" d="M321.2,69.7h-11.3l-57-56.6v56.6h-11.4V0H253l57,56.6V0h11.3V69.7z"/>
	<path class="st0" d="M408.5,69.7H396l-12.2-22.5h-39.6l-11.6,22.5H320L358.7,0h10.8L408.5,69.7z M363.8,10.3L348,40.3h32
		L363.8,10.3z"/>
	<g>
		<line class="st1" x1="0" y1="17.4" x2="0" y2="0"/>
		<rect class="st2" width="17.4" height="17.4"/>
		<rect x="17.4" class="st3" width="17.3" height="17.4"/>
		<rect x="34.7" class="st4" width="17.4" height="17.4"/>
		<rect x="52.2" class="st5" width="17.5" height="17.4"/>
		<line class="st6" x1="0" y1="34.8" x2="0" y2="17.4"/>
		<rect y="17.4" class="st7" width="17.4" height="17.4"/>
		<rect x="17.4" y="17.4" class="st8" width="17.3" height="17.4"/>
		<rect x="34.7" y="17.4" class="st9" width="17.4" height="17.4"/>
		<rect x="52.2" y="17.4" class="st10" width="17.5" height="17.4"/>
		<line class="st11" x1="0" y1="52.2" x2="0" y2="34.8"/>
		<rect y="34.8" class="st12" width="17.4" height="17.4"/>
		<rect x="17.4" y="34.8" class="st13" width="17.3" height="17.4"/>
		<rect x="34.7" y="34.8" class="st14" width="17.4" height="17.4"/>
		<rect x="52.2" y="34.8" class="st13" width="17.5" height="17.4"/>
		<line class="st15" x1="0" y1="69.6" x2="0" y2="52.2"/>
		<rect y="52.2" class="st16" width="17.4" height="17.4"/>
		<rect x="17.4" y="52.2" class="st17" width="17.3" height="17.4"/>
		<rect x="34.7" y="52.2" class="st18" width="17.4" height="17.4"/>
		<rect x="52.2" y="52.2" class="st19" width="17.5" height="17.4"/>
	</g>
	<g>
		<path class="st0" d="M387.7,14.3h-1.2V0.5h6.7v1.6h-5.4v4.3h4.8V8h-4.8V14.3z"/>
		<path class="st0" d="M404.5,14.3V6.1c0-0.4,0-2.1,0-3.4l0,0l-2.6,11.6h-1.4l-2.6-11.6h-0.1c0,1.3,0.1,3,0.1,3.4v8.2h-1.3V0.5h1.9
			l2.7,11.6h0.1l2.8-11.6h1.8v13.8H404.5z"/>
	</g>
</g>
</svg>
