<?xml version="1.0" encoding="utf-8"?>
<!-- Generator: Adobe Illustrator 23.0.1, SVG Export Plug-In . SVG Version: 6.00 Build 0)  -->
<svg version="1.1" id="Layer_1" xmlns="http://www.w3.org/2000/svg" xmlns:xlink="http://www.w3.org/1999/xlink" x="0px" y="0px"
	 viewBox="0 0 579.3 182" style="enable-background:new 0 0 579.3 182;" xml:space="preserve">
<style type="text/css">
	.st0{fill:#1D1D1B;}
	.st1{fill:#B2292E;}
	.st2{fill:#FFFFFF;}
</style>
<title>Logo_MT_color_RGB</title>
<path class="st0" d="M557.8,43.9L579.3,0H350.5l-45.9,103.3L255.7,0H204v181.9h51.9l-0.1-91.7l35.9,91.8h25.1l35.9-91.8l0.2,91.8
	l51.5-0.1v-138h49.5v-0.2h0.1V182h56.3V44L557.8,43.9z"/>
<rect class="st1" width="156.6" height="150.3"/>
<polygon class="st2" points="18.8,27.6 33.8,27.6 33.8,110.1 77,110.1 77,123.5 18.8,123.5 "/>
<polygon class="st2" points="94.2,41 65.8,41 65.8,27.6 137.8,27.6 137.8,41 109.3,41 109.3,123.5 94.2,123.5 "/>
<polygon class="st1" points="36.9,162.6 30.4,162.6 30.4,159.6 47,159.6 47,162.6 40.4,162.6 40.4,181.6 36.9,181.6 "/>
<path class="st1" d="M80.9,181.6h-4.1l-3.8-5.4c-0.5,0.1-1.1,0.1-1.6,0.1h-2.2v5.3h-3.5v-22.1h5.7c6.1,0,9.4,3.3,9.4,8.4
	c0.2,3.1-1.6,6.1-4.4,7.4L80.9,181.6z M71.3,173.4c4.2,0,5.9-2,5.9-5.4s-1.7-5.4-5.9-5.4h-2.1v10.7H71.3z"/>
<path class="st1" d="M82.2,170.6c-0.1-6.1,4.7-11.2,10.9-11.3c0.1,0,0.2,0,0.4,0c3.5-0.2,6.8,1.4,8.8,4.3l-2.6,1.9
	c-1.4-2-3.8-3.2-6.3-3c-4.4,0-7.6,3.5-7.6,8.2s3.3,8.2,7.7,8.2c2.6,0.1,5.1-1.1,6.6-3.2l2.7,1.9c-2.3,3-5.2,4.5-9.4,4.5
	c-6.1,0.1-11.1-4.7-11.2-10.8C82.2,171,82.2,170.8,82.2,170.6"/>
<path class="st1" d="M136.3,181.6h-4.1l-3.7-5.4c-0.5,0.1-1.1,0.1-1.6,0.1h-2.2v5.3h-3.5v-22.1h5.6c6.1,0,9.4,3.3,9.4,8.4
	c0.2,3.1-1.6,6.1-4.4,7.4L136.3,181.6z M126.7,173.4c4.3,0,6-2,6-5.4s-1.8-5.4-6-5.4h-2v10.7H126.7z"/>
<path class="st1" d="M140.5,181.6H137l9.7-22.5h0.2l9.7,22.5H153l-1.3-3.1h-9.9L140.5,181.6z M146.8,166.7l-3.7,8.7h7.3L146.8,166.7
	z"/>
<polygon class="st1" points="119.1,178.6 108.2,178.6 108.2,174.8 117.6,174.8 117.6,171.8 108.2,171.8 108.2,162.6 119.1,162.6 
	119.1,159.6 104.8,159.6 104.8,181.6 119.1,181.6 "/>
<polygon class="st1" points="52.6,174.8 62,174.8 62,171.8 52.6,171.8 52.6,162.6 63.6,162.6 63.6,159.6 49.1,159.6 49.1,181.6 
	63.7,181.6 63.7,178.6 52.6,178.6 "/>
<polygon class="st1" points="0,159.6 3.5,159.6 3.5,178.6 13.5,178.6 13.5,181.6 0,181.6 "/>
<path class="st1" d="M14.5,181.6H11l9.7-22.5h0.2l9.7,22.5h-3.7l-1.2-3.1h-9.9L14.5,181.6z M20.7,166.8l-3.7,8.7h7.3L20.7,166.8z"/>
</svg>
