<svg xmlns="http://www.w3.org/2000/svg" viewBox="0 0 545.9 341.5"><path d="M362.1 212.1c2.2-2.5 3.6-9.7 3.6-16.6 0-15.8.4-60.5 0-75.6 0-5.8-1.4-10.8-5.8-12.2-3.4-1.3-6.9-2.2-10.4-2.9-4.7-1.1-6.5-2.9-6.5-5s3.6-2.5 6.5-2.5c6.8 0 41.4-2.5 43.2-2.5s2.9 3.6 2.9 11.5c0 15.5-1.1 35.3-1.1 99.4 0 16.9 1.4 20.5 7.2 20.5 5-.4 17.3-2.9 19.1-2.9 1.4.1 2.4 1.2 2.5 2.5 0 1.4-1.1 6.5-3.2 6.8-12.6 1.8-34.2 7.2-42.1 9.4-2.8 1-5.7 1.6-8.6 1.8-1.4 0-3.2-3.2-3.2-6.5 0-6.5.4-15.1.7-19.1 0-.7-1.4-.7-1.8-.4-3.2 2.5-16.6 14-26.7 19.1-7.3 3.8-15.5 5.6-23.8 5.4-11.9 0-22.3-4.3-29.2-11.9-5.8-6.1-9.4-16.2-9.4-28.8 0-29.5.7-68.8-.4-81-.7-9.4-.4-11.5-11.5-15.5-2.9-1.1-6.8-2.9-6.8-5s2.9-2.9 7.9-2.9c19.5 0 31.7-2.2 40-2.2.7 0 2.2 2.2 1.8 5-.7 23-1.8 64.1-1.8 87.9 0 16.2 2.9 24.9 10.1 29.5 5.4 4 13.3 5.8 21.6 5.4 15.1.2 20.5-5.6 25.2-10.7m-87.8 50.8c2.9 0 23.5-.5 29.2-.5 10.2 0 15.3-.4 21.4 2.6 5.9 2.9 8.8 7.7 8.8 11.6 0 9.1-5.4 14-10.4 16.8-9.9 5.5-17.5 5.9-19.2 5.8s-2.8-.2-3-1.3c0-.8.5-1.5 1.2-1.7 7.8-3.3 17-6.6 17-18.1 0-10-8-11.9-17.6-11.9-1.5 0-3 .4-4.4 1-.6.5-1 1.3-1 2.2-.2 11.7-.2 49.1.3 53.6.7 9.4.8 10.9 8.7 12.9 2.3.5 3.2 1 3.2 2 0 1.2-1.8 1.7-3.7 1.7-4.5 0-26.8-.2-30.2-.2-2 0-3.7-.7-3.7-1.5s1-1.7 3.4-2.2c6.2-1.3 7.5-3.4 7.9-10.2.2-5.7.5-11.9.5-28.2 0-13.4-.5-19.6-.7-23.3s-.8-6-7.7-7.4c-2.7-.7-3.5-1.5-3.5-2.2.1-.5.7-1.5 3.5-1.5m90.6 6.5c.5-1.1.8-2.2.8-3.4v-1.5c.2-.8.8-1.5 1.5-2 1-.2 6.5-.3 7.5 0 .5 0 1.3 1 1.3 1.5.3 1.9 1 3.4 2.3 7 2.7 7.4 17.3 45.3 20.6 52.5 3.7 8 4.5 10 11.5 12.8 2.2.9 3.1 1.3 3.1 2.2s-1.8.8-3.7.8h-29.3c-2.9 0-3.7-.8-3.7-1.8s1.5-1.7 3.7-2.2c3.7-1.2 5-2.2 5-4.9 0-1.7-3.5-10.2-5.9-16.9-.4-1.3-1.5-2.3-2.8-2.5-3.7-.3-18.8-.2-20.6 0-1.2 0-2.2 1.3-2.5 2-1.3 3.4-4.9 14.1-4.9 16.3 0 3 1.7 4.5 8 6.2 2 .7 3 1.5 3 2.2 0 1.2-1.8 1.7-3.5 1.7h-23.6c-2.7 0-4.5-.5-4.5-1.5 0-1.2 1-2 3.7-2.5 5.9-1.5 7.7-3 12.6-13.4 4.2-8.7 18.1-46.1 20.4-52.6m2.6 8.7c-.3-.3-1-.2-1.3.5-2.2 5.7-7.5 20.6-8.7 24.1-.2.7.2 1.8.7 1.8 2 .2 14.4.2 17.8-.2.3 0 1-.5.7-1.5-2.5-6.3-6.2-17.2-9.2-24.7m84.6-16.7c2.5.5 5.1.8 7.7 1 1.2.2 1.8 1.8 2 3.7 0 2.7.7 9.2.7 11.6.1 1.4-.5 2.7-1.7 3.5-1.2 0-1.5-1-2.3-3.4-1-3.8-3.1-7.2-6.2-9.7-2.9-2.4-6.5-3.8-10.2-3.9-7.9 0-13.2 5.5-13.2 13.1 0 6.2 3.5 9.7 8.5 12.6 5.2 3.2 9.4 5.4 14.2 8.4 7.2 4.4 13.6 11.2 13.6 20 0 8.9-5.5 15.2-10.2 18.3-4.5 2.9-12.1 5-19.4 5-3.1 0-6.2-.3-9.2-.9-6-1.2-10.8-5.6-12.6-11.5-.7-2.6-1.1-5.3-1.4-7.9 0-1.5.2-3.9 1.5-3.9 1.7 0 4 5.5 4.9 7.2 3.8 7.5 9.7 13.1 18.4 13.1 8.5 0 14.2-7 14.2-13.1 0-5.5-3.2-9.7-9.6-13.8-4-2.7-7-4.4-10.4-6.4-7.9-4.5-15.4-12.2-15.4-22 0-11.6 10.1-22 26.8-22 3.1.1 6.2.4 9.3 1m45 8c.5-1.1.8-2.2.8-3.4v-1.5c.2-.8.8-1.5 1.5-2 1-.2 6.5-.3 7.5 0 .5 0 1.3 1 1.3 1.5.3 1.9 1 3.4 2.3 7 2.7 7.4 17.3 45.3 20.6 52.5 3.7 8 3.7 9.4 11.6 11.9 2.2.8 3 1.2 3 2 0 1.2-1.8 1.8-3.7 1.8h-29.3c-2.8 0-3.7-.8-3.7-1.8s1.5-1.7 3.7-2.2c3.7-1.2 5-2.2 5-4.9 0-1.7-3.5-10.2-5.9-16.9-.4-1.3-1.5-2.3-2.8-2.5-3.7-.3-18.8-.2-20.6 0-1.2 0-2.2 1.3-2.5 2-1.3 3.4-4.9 14.1-4.9 16.3 0 3 1.7 4.5 8 6.2 2 .7 3 1.5 3 2.2 0 1.2-1.8 1.7-3.5 1.7H465c-2.7 0-4.6-.5-4.5-1.5.1-.7 1.4-.6 4.1-1.6 6-2.2 7.3-4 12.1-14.4 4.2-8.5 18.1-45.9 20.4-52.4m2.5 8.7c-.3-.3-1-.2-1.3.5-2.2 5.7-7.5 20.6-8.7 24.1-.2.7.2 1.8.7 1.8 2 .2 14.4.2 17.8-.2.3 0 1-.5.7-1.5-2.5-6.2-6.1-17.1-9.2-24.7m39-143.1c0 4-5 6.8-10.1 6.5-23-1.1-61.2-1.1-73.8 0-1.8.4-3.6 2.5-4.3 4.3-.7 2.5-.7 8.6-.7 14.4 0 28.8 23 60.1 53.7 60.1 19.8 0 27.7-7.6 35.3-17.6 2.2-2.9 5-2.9 5 1.8 0 3.2-3.2 7.6-5 9.7-12.6 16.6-32.8 28.5-53.3 28.5-39.6 0-62.3-33.9-62.3-71.7 0-25.2 10.1-54.4 38.9-70.6 7.6-4.7 18-7.9 31.3-7.9 26.2.1 45.3 17.7 45.3 42.5m-86-3.6c0 .7.7 2.9 1.8 2.9 14.4 0 35.3-.7 43.9-.7 9-1.1 13.3-2.9 13.3-11.9-.4-13-14-22.7-22.3-22.7-15.1 0-31 13-36.7 32.4m24.2-55.6c.3 2.4 3.4 4.1 5.8 3.8l43-44.7c3.4-3.4 5.5-7.2 5.5-9.3 0-2.8-2.4-6.2-5.8-9-4.1-3.4-8.3-5.2-10.7-5.2-3.4 0-6.2 4.5-8.2 8.3l-29.6 56.1z"/><path d="M132.9 234.4c-69.5-2.4-95.1-78.3-96.5-117.8-2.5-73 36.1-106.9 74.9-106.9 64.7 0 97.6 62.4 97.6 121 0 81.7-48.6 104.7-76 103.7m141.7 68.7c-5 2.1-16.7 3.2-20.3 3.2-11.2.1-22.3-1.6-33-5-28.4-9.2-62.8-38.2-66.7-58.6-.5-3 2.2-3.6 4.1-4.3 50.2-16.6 87.6-60 87.8-116.7C246.7 59.3 197.6 0 123.4 0 57.5 0-1.5 48.7 0 122.1c1 48.3 27.4 90.7 75.5 111.5 10 4.3 20.5 7.4 31.2 9.2 9.9 1.8 7.1 3.5 17.7 14.1 13.1 12.8 29.6 34.7 58.7 48.2 20.9 9.6 33.9 12.6 50.2 12.6 12.4 0 31.1-4.8 42.7-10.7 2.3-1.2.9-4.9-1.4-3.9"/></svg>