<svg xmlns="http://www.w3.org/2000/svg" viewBox="0 0 1367.1 116"><path d="M468.7 110.9h-6.5V11.7c0-4.6 1.4-6.3 4.8-6.8l4.5-.8V.9h-34.4v2.8l3.7.9c3.4.8 4.8 2.3 4.8 6.8v92.1c0 4.6-1.4 6.2-4.8 7.1l-3.7.9v2.8h54V76.5H488c-1.7 18.2-5.1 34.4-19.3 34.4zm-57.7 0h-6.5V11.7c0-4.6 1.4-6.3 4.8-6.8l4.5-.8V.9h-34.4v2.8l3.7.9c3.4.8 4.8 2.3 4.8 6.8v92.9c0 4.6-1.7 6.8-6.8 6.8-6 0-6.8-2-9.1-11.6L350.8.3h-6.5l-20.2 96.1c-2.3 10.8-3.4 13.4-8 14.5l-2.8.9v2.8h23.6v-2.8l-3.4-.6c-4.8-.9-6.2-3.7-3.7-16.2l2-10.8h19.9l2.8 14.5c1.7 9.4 1.7 11.4-5.4 12.5l-3.4.6v2.8h88.1V76.7h-3.1c-2.3 18-5.8 34.2-19.7 34.2zm-79-31.3l9.1-46.3 9.4 46.3H332zm238.5-41.2h3.1c1.1-17.3 4.6-33.9 14.8-33.9h3.7v99.2c0 4.6-1.4 6.3-4.8 7.1l-4.3.9v2.8h35v-2.8l-4.3-.9c-4.3-.9-4.8-4.3-4.8-7.1V4.5h3.7c10.2 0 13.6 16.5 14.8 33.8h3.1V.6h-60.3l.3 37.8zM326.9 4.5l3.1-.8V.9h-23.3v2.8l3.4.6c4.8.9 6.3 4 3.7 16.2l-11.9 59.4-12.2-62.8c-1.4-6.6-2.3-11.7 3.4-12.8l3.7-.6V.9h-32.1v2.8l2.3.6c3.4.9 3.7 2.8 5.1 9.1l3.1 15.1-9.7 51.2-12.8-62.5c-1.4-6.8-2-11.9 3.4-12.8l2.6-.6V.9h-33v2.8l3.1.9c2.8.8 4.5 2.3 6.5 11.4l21 99.2h6.9l14.2-75.6 15.6 75.6h6l20.2-96.1c2.6-10 3.7-13.7 7.7-14.6zm-221.7-.8l3.7.9c2.8.8 4.8 2 4.8 6.8V54h-25V11.4c0-4.6 1.7-6 4.8-6.8l3.7-.8V.9H63.1v2.8l3.7.9c3.4.8 4.8 2.3 4.8 6.8v92.1c0 4.6-1.4 6.2-4.8 7.1l-3.7.9v2.8h34.1v-2.8l-3.7-.9c-2.8-.6-4.8-2.6-4.8-7.4V58.5h25v45.2c0 4.6-2 6.5-4.8 7.4l-3.7.9v2.9h34.1V112l-3.7-.9c-3.4-.9-4.8-2.6-4.8-7.4v-92c0-4.6 1.4-6.3 4.8-6.8l3.7-.8V1.2h-34.1v2.5zM0 38.4h3.1C4.3 21.1 7.7 4.5 17.9 4.5h3.7v99.2c0 4.6-1.4 6.3-4.8 7.1l-4.3.9v2.8h35.8v-2.8l-5.1-1.1c-3.1-.9-4.8-1.7-4.8-7.1V4.3h3.7c10.2 0 13.6 16.5 14.8 33.8H60V.3H0v38.1zm179.7 72.5h-11.4V57.5l5.1.3c7.4.3 9.7 2.8 11.1 21h3.1v-46h-3.1c-1.7 14.5-3.7 20.5-10.8 20.8l-5.4.3v-49h11.4c12.8 0 15.6 16.5 17.3 33.8h3.1V.9H143v2.8l3.7.9c3.7.8 4.8 3.4 4.8 7.1v92.1c0 4.6-1.4 6.3-4.8 7.1l-3.7.9v2.8h58.8V76.7h-3.1c-2 17.7-4.3 34.2-19 34.2zm364-106.6c11.9 0 16.5 15.3 18.5 34.1h3.1V.6h-2c-.8 3.7-2.3 5.4-4.5 5.4-3.7 0-5.7-6-14.8-6-14.2 0-23.6 11.7-23.6 27.3 0 28.1 37.2 39.8 37.2 65.6 0 11.7-5.4 18.5-12.8 18.5-11.1 0-18.5-13.1-20.5-34.1h-3.1v37.8h2c1.7-5.4 3.7-6 5.7-6 3.1 0 6.5 6.5 16.2 6.5 14.8 0 26.2-12.8 26.2-30.4 0-34.1-37.2-42.9-37.2-67.7-.6-5.3 1.4-13.2 9.6-13.2zm617.4 94.6c0 6.2-.8 10.5-3.1 10.5s-2.3-1.7-2.8-9.4l-.9-14.5c-1.4-19.6-3.7-26.4-18.2-29 13.6-3.7 22.2-13.6 22.2-28.1 0-18.8-14.8-27.6-28.7-27.6H1073v2.8l3.1.6c6 1.4 6.2 4.5 6.2 17.9v66c0 14.8-4.3 21.9-13.6 21.9-8.5 0-13.1-4.3-13.1-20.2V11.4c0-4.6 1.4-6 5.1-6.8l4.6-.8V.9h-34.7v2.8l3.7.9c3.4.8 4.6 2.3 4.6 6.8v77c0 17.3 10.2 27 25.6 27s23-9.7 23-27.6V16c0-8.8 1.7-12.2 9.1-12.2 5.7 0 8.2 2 8.2 7.4v92.1c0 4.6-1.4 6.3-4.8 7.1l-3.7.9v2.8h33.5v-2.8l-3.7-.9c-3.4-.9-4.8-2.6-4.8-7.4V57.7h7.7c4.8 0 7.4 1.1 7.7 11.4l.8 21.3c.6 19 6.2 24.4 15.3 24.4 9.4 0 11.9-6.5 11.9-15.6v-3.7h-3.4l-.2 3.4zm-34.7-44h-5.4v-50h6.5c6.5 0 12.8 4.3 12.8 25.9 0 21.8-4.5 24.1-13.9 24.1zm105.1-51.2V.9h-25v2.8l2.8.6c8.5 1.4 8.5 4.8 8.5 17.3v52.9L1188.5.6H1165v2.8l2.3.6c2.6.8 4.3 3.7 6.8 9.4v79.3c0 11.9 0 17.6-6 18.5l-2.8.6v2.8h24.4v-2.8c-10.5-1.4-10.5-5.1-10.5-18.2V24.5l36.7 90.1h6.8v-92c0-13.7 0-16.5 6.5-18.5l2.3-.4zm128.2 96.1c-4.1.1-7.4 3.5-7.4 7.7-.1 4.1 3.1 7.5 7.1 7.7h.2c4.2-.2 7.6-3.7 7.4-8 0-4-3.2-7.3-7.3-7.4zm-34.6 11.1h-6.5V11.7c0-4.6 1.4-6.3 4.8-6.8l4.6-.8V.9h-34.4v2.8l3.7.8c3.4.8 4.8 2.3 4.8 6.8v93c0 4.6-1.7 6.8-6.8 6.8-6 0-6.8-2-8.8-11.6L1265.2.3h-6.5l-20.2 96.1c-2.3 10.8-3.4 13.4-8 14.5l-2.8.9v2.8h23.6v-2.8l-3.4-.6c-4.8-.9-6.2-3.7-3.7-16.2l2-10.8h19.9l2.8 14.5c2 9.4 1.7 11.4-5.4 12.5l-3.4.6v2.8h87.8V76.7h-3.1c-2.1 18-5.6 34.2-19.7 34.2zm-78.8-31.3l8.8-46 9.4 46h-18.2zM998.2 0c-20.8 0-30.4 26.1-30.4 58s10.2 58 30.4 58c21 0 30.7-26.1 30.7-58-.3-31.8-10.2-58-30.7-58zm0 111.5c-8.5 0-12.5-6.8-12.5-54.3 0-46 4.3-52.6 12.5-52.6 8.5 0 12.5 6.5 12.5 52.3 0 47.7-4 54.6-12.5 54.6zm-259.2-.6h-11.4V57.5l5.1.3c7.4.3 9.7 2.8 11.1 21h3.1v-46h-3.1c-1.7 14.5-3.7 20.5-10.8 20.8l-5.4.3v-49H739c12.8 0 15.6 16.5 17.3 33.8h3.1V.9h-58.8v2.8l5.4.9c3.7.8 4.8 3.4 4.8 7.1v92.1c0 4.6-1.4 6.3-4.8 7.1l-3.7.9v2.8h58.8V76.7H758c-1.9 17.7-4.2 34.2-19 34.2zm62.2 0h-11.4V57.5l5.1.3c7.4.3 9.7 2.8 11.1 21h3.2v-46h-3.1c-1.7 14.5-3.7 20.5-10.8 20.8l-5.4.3v-49h11.3c12.8 0 15.6 16.2 17.3 33.8h3.1V.9h-57.1v2.8l3.7.8c3.7.8 4.8 3.4 4.8 7.1v92.1c0 4.6-1.4 6.3-4.8 7.1l-3.7.9v2.8h59.1V76.7h-3.1c-1.9 17.7-4.2 34.2-19.3 34.2zm-103.4-12c0 6.2-.9 10.5-3.1 10.5s-2.3-1.7-2.8-9.4l-1.1-14.5c-1.4-20.2-4-26.4-18.2-29 13.6-3.7 22.2-13.6 22.2-28.1C694.8 9.6 680 .8 666.1.8h-31.5v2.8l3.7.8c3.4.9 4.8 2.3 4.8 6.8v92.2c0 4.6-1.4 6.2-4.8 7.1l-3.7.9v2.8h33.5v-2.8l-3.7-.9c-3.4-.9-4.8-2.6-4.8-7.4V58h6.2c4.8 0 7.4 2 7.7 11.4l.9 21.3c.6 19 6.2 24.4 15.3 24.4 9.4 0 11.9-6.5 11.9-15.6v-3.7h-3.4l-.4 3.1zm-34.7-44h-3.7v-50h4.8c6.5 0 12.8 4.3 12.8 25.9s-4.5 24.1-13.9 24.1zm164-16.5h3.1c1.1-17.3 4.6-33.9 14.8-33.9h3.7v99.2c0 4.6-1.4 6.3-4.8 7.1l-4.3.9v2.8h35.8v-2.8l-5.1-1.1c-3.1-.9-4.8-1.7-4.8-7.1V4.3h3.7c10.2 0 13.6 16.5 14.8 33.8h3.1V.3h-60.3v38.1h.3zM931.7 3.7l4.3.9c3.4.8 5.1 2 5.1 6.8V91c0 11.1-1.1 20.2-9.4 20.2-5.4 0-9.4-4.3-9.1-7.1.6-5.1 9.1-4.8 9.7-13.1.6-6-3.4-8.5-6.8-8.8-5.1-.6-11.4 3.7-11.7 12.2-.3 11.1 7.1 21.3 19.6 21.3 13.7 0 24.4-9.4 24.4-27v-77c0-4.6 1.1-6.3 4.5-6.8l3.7-.8V1.2h-34.4c.1 0 .1 2.5.1 2.5z" fill="#fff"/></svg>