<svg xmlns="http://www.w3.org/2000/svg" viewBox="0 0 389.7 160.3"><path d="M60.5 8.6L0 8.7V18l68.3-.2c-1.8-3.6-4.5-6.8-7.8-9.2m5.4 79.1l-65.7.1.1 9.4 52.1-.1c5.4-1.7 10.1-5 13.5-9.4M.2 67.6l25.6-.1v-9.4l-25.6.1zm70.3 10.2L.2 78v9.4l66.1-.2c2-2.9 3.4-6 4.2-9.4m1.2-9.5v-.4H45.9v.3c0 6.3-3 9-8.8 9H25.8V68H.2l.1 9.3 70.4-.2c.7-3 1-6 1-9M26 99.3h11.2c4.5 0 9-.5 13.3-1.6H.3v9.4H26v-7.8M.2 57.7l25.6-.1v-9.4l-25.6.1zM.4 117h25.7l-.1-9.4H.3zm0 39.6l25.7-.1v-9.3H.4zm0 2.6h25.7V157H.4zm0-12.5l25.7-.1v-9.4l-25.7.1zm0-19.9h25.7v-9.3l-25.7.1zm0 10l25.7-.1v-9.4l-25.7.1zm45.5-89.1l25.7-.1v-9.4l-25.7.1zM25.8 24.2H37c3.6 0 6.2 1.3 7.7 3.7l26.5-.2c-.4-3.2-1.3-6.3-2.6-9.2L0 18.6.1 28l25.7-.1v-3.7m45.8 8.9l-.3-4.8H44.8c.7 1.5 1.1 3.2 1.1 4.8v4.6h25.7v-4.6M45.9 67.4h25.8l-.1-9.4-25.7.1zm0-9.9h25.7v-9.4H45.9zM.2 37.9l25.6-.1v-9.3l-25.7.1zm0 9.9l25.6-.1-.1-9.4-25.5.1zM36.9 2.2L0 2.4v5.8L59.7 8c-5.6-3.7-13-5.8-22.8-5.8M81.5 8l25.7-.1V2l-25.7.1zm46.5 9.6l25.7.1V8.3h-25.8zm-46.5.3l25.7-.1V8.4H81.5zM154 127h-25.7l-.1 1.6c.1 3.9-1.6 6.5-4.4 7.9l29.3-.1c.6-2.6.8-5.2.8-7.8V127m-25.7-10.3l25.7-.2v-9.3h-25.7zm0-39.6l25.6-.1v-9.4l-25.7.1zm0 9.8h25.6v-9.4l-25.6.1zm0 9.9h25.7l-.1-9.4-25.6.1zm0 9.9h25.7v-9.4h-25.7zM81.7 87.1l25.7-.1v-9.3H81.7zm.1 19.8l25.7-.1v-9.4l-25.8.1zm46.5 19.6H154l-.1-9.4h-25.7zM81.7 96.9h25.7v-9.4l-25.7.2zm-.1-49.4l25.7-.1v-9.3l-25.7.1zm26 81.2v-1.6H81.9v1.6c0 2.6.3 5.3.9 7.9l29.3-.1c-2.9-1.4-4.5-3.9-4.5-7.8m20.5-71.5h25.7v-9.3l-25.7.1zm-46.3 59.6l25.7-.1v-9.4l-25.7.1zm46.3-49.6l25.7-.1v-9.4l-25.7.1zM118 137.6c-1.6 0-3.2-.2-4.7-.7H82.8c.7 3.4 2 6.6 3.9 9.5l62.4-.3c1.9-2.8 3.2-6 3.9-9.3l-30.5.1m-40.6-10.2l25.7-.1-.1-9.4-25.7.1zm-.3-69.2l25.7-.1V48l-25.7.1zm67.3 89.3l-61.8.2c2.8 4 6.7 7.3 11.2 9.3l39.5-.1c4.4-2.1 8.2-5.4 11.1-9.4m-30.8 13.5c6.4 0 12.7-1.2 18.6-3.6l-37.4.1c6 2.4 12.4 3.6 18.8 3.5m10-112.9l25.7-.1-.1-9.3h-25.6zM81.6 27.8l25.7-.1-.1-9.3H81.5zm0 9.8l25.7-.1v-9.3l-25.7.1zm46.4-9.9l25.7-.1v-9.4H128zm.1 9.8l25.6-.2v-9.2l-25.7.1zM81.6 67.4l25.8-.2-.1-9.3H81.6zm.1 9.9l25.7-.2v-9.3H81.7zm46.2-69.4l25.8-.1-.1-5.9-25.7.1zm41.9 128.4l25.7-.1v-9.4l-25.7.2zm-.1-39.5h25.8l-.2-9.5h-25.7zm-.1-29.8l25.7-.1v-9.3h-25.7zm25.9 70v-.3l-25.7.1v9.4l60.2-.2-.1-9.2zm-25.8-20.5h25.8V107l-25.8.2zm-.1-29.7l25.8-.1-.1-9.3h-25.7zm.1 19.8h25.8v-9.5l-25.8.2zm-.1-29.7h25.7v-9.4l-25.7.1zm.2 49.5l25.7-.1V117h-25.8zm.1 32.3l60.1-.2v-2.1l-60.1.2zm-.3-111.4l25.7-.1v-9.4l-25.7.1zm0 9.8h25.7v-9.4l-25.7.1zm.3 99l60.1-.2-.1-9.4-60.1.2zm-.4-128.6h25.7V18l-25.8.2zm.1 9.8h25.7l-.1-9.4-25.7.2zm-.2-19.8h25.8V8.1l-25.8.1zm0-9.7l25.8-.1V1.8l-25.8.1zM270.1.2c-11.1.1-19.4 2.7-25.3 7.3l49.8-.2C288.9 2.9 280.7.2 270.1.2m.4 137c-1.6 0-3.2-.2-4.8-.6h-30.5c.7 3.3 2 6.5 3.9 9.4l62.6-.2c1.8-2.9 3.1-6 3.9-9.3H275c-1.4.5-2.9.7-4.5.7m7.7-30.9h27.4c-.5-3.2-1.4-6.4-2.7-9.4l-33.4.1c3.5 2.5 6.5 5.7 8.7 9.3m2.4-59.3l24.9-.1v-9.4l-25 .1zm-46.3 81.3c0 2.6.3 5.2.8 7.8l29.2-.1c-2.9-1.3-4.8-3.8-4.8-7.7v-1.5l-25.2.1v1.4m4.6-61.4l34.6-.2c-3.7-2.6-6.9-5.7-9.7-9.3h-28c.6 3.3 1.6 6.5 3.1 9.5M269 96.5l33.8-.1c-1.5-3.4-3.4-6.5-5.6-9.4l-40.7.1c4.3 3.3 8.7 6.3 12.5 9.4m-13.3-9.9l41-.1c-2.8-3.5-6-6.6-9.5-9.4l-41.6.1c3 3.5 6.4 6.6 10.1 9.4m24.9-29.8h24.9v-9.4l-25 .1zm-45.9-19.6h25.7v-6.4c0-1 .2-2 .6-3h-26.1c-.1 1.1-.1 2.1-.1 3l-.1 6.4m46.1 78.4v.7l25.7-.2v-1.4c0-2.7-.3-5.4-.7-8l-27.2.1c1.4 2.6 2.2 5.7 2.2 8.8m-46.4 10.6h25.1v-9.4h-25.2zm46.4-.1l25.6-.1v-9.3l-25.6.1zm-46-79.1h25.7l-.1-9.3h-25.7zm10.3 29.8l41.4-.2c-4.2-3.3-8.6-6.3-12.5-9.2h-35c1.7 3.3 3.8 6.5 6.1 9.4m56.4 69.5l-62.1.2c2.8 4 6.6 7.2 11.1 9.3l39.7-.1c4.6-2.1 8.5-5.3 11.3-9.4m-67.2-29.9l25.2-.2v-9.3l-25.2.1zm.5-68.7c0 3.1.3 6.2.9 9.3l27.7-.1c-1.9-2.8-2.9-6-3-9.3l-25.6.1m0-20.4h26.3c1.4-2.8 4.5-4.3 9-4.3 4.1-.1 7.5 1.4 9.1 4.3h25.9c-.4-3.2-1.2-6.4-2.5-9.4l-65.5.1c-1.2 3-2 6.2-2.3 9.3m35.3 132.5c6.5.1 13-1.1 19.1-3.6l-37.7.1c5.9 2.4 12.2 3.6 18.6 3.5m36.3-33.2l-25.7.1v2.7c.1 2.9-1.6 5.5-4.2 6.6l29.2-.1c.5-2.3.8-4.6.7-7v-2.3m-72.1-20.1l25.2-.1v-4l-25.2.2zm46.2-74.7V37h25v-5.4c0-1.3-.1-2.7-.2-4h-25.7c.6 1.4.9 2.8.9 4.2m-43.2-14.3l65.1-.2c-1.6-3.6-4.1-6.8-7.2-9.4l-51 .2c-3 2.5-5.4 5.7-6.9 9.4m83.2-.3l65.8-.1c-1.7-3.7-4.2-6.9-7.4-9.4l-51 .2c-3.2 2.4-5.7 5.6-7.4 9.3M364 106l25.6-.1v-9.3l-25.6.2zm0 10l25.6-.1v-9.4l-25.6.1zm-.1-29.7l25.7-.1-.1-9.4-25.6.1zm.1 9.9l25.6-.1v-9.4l-25.7.1zm-.1-19.9h25.6v-9.4l-25.7.1zm.1 49.6l25.7-.1v-9.4l-25.7.1zm-46.6-69.2l25.7-.1v-9.3l-25.8.1zm46.6 71.2c.1 3.3-1.8 6.4-4.8 7.9h29.7c.5-2.6.8-5.2.8-7.9v-1.6l-25.7.1v1.5m-46.4-11.8l25.6-.1v-9.4l-25.7.1zm0 9.9l25.7-.1-.1-9.4-25.6.2zm-.1-19.7l25.7-.1-.1-9.4h-25.6zm16.5 49.3l39.5-.1c4.5-2.1 8.4-5.3 11.2-9.4l-61.8.2c2.8 4 6.6 7.2 11.1 9.3m29.8-89.1l25.7-.1V57l-25.7.1zM353.5 137c-1.4 0-2.8-.2-4.1-.7l-30.8.1c.8 3.3 2.1 6.5 4 9.4l62.4-.1c1.9-2.9 3.2-6 3.9-9.4l-30.9.1c-1.5.3-3 .6-4.5.6M317.6 27.1l26.6-.1c1.7-2.7 4.9-4.3 9-4.4 4.3 0 7.6 1.6 9.3 4.3h26.6c-.4-3.2-1.3-6.4-2.6-9.3l-66.4.1c-1.2 3-2.1 6.2-2.5 9.4m-.1 69.3l25.7-.1v-9.4l-25.8.1zm46.2-64.8l.1 5.3 25.6-.1v-5.3c0-1.4-.1-2.7-.3-4.1l-26.4.2c.7 1.2 1 2.6 1 4m-46.3 45h25.7v-9.5l-25.7.1zm0-10l25.7-.1v-9.4l-25.7.1zm46.4-19.9l25.7-.1-.1-9.4-25.6.1zM317.3 37l25.7-.1v-5.3c0-1.4.3-2.8.9-4.1h-26.4c-.1 1.4-.2 2.7-.2 4.1V37m46.5 19.6l25.7-.1v-9.4l-25.7.2zm-46.2 71.5c0 2.6.3 5.2.8 7.8h29.7c-3-1.4-4.9-4.5-4.8-7.8v-1.6h-25.7v1.6m-.1-41.7l25.7-.1-.1-9.4-25.7.1zm-.2-39.6h25.8v-9.5l-25.8.2zm36.3 112.8c6.4.1 12.8-1.1 18.8-3.6l-37.3.1c5 2.3 11.2 3.5 18.5 3.5M353.1 0c-10.5 0-18.8 2.7-24.7 7.3l49.8-.1c-6-4.6-14.4-7.2-25.1-7.2"/></svg>