<?xml version="1.0" encoding="utf-8"?>
<!-- Generator: Adobe Illustrator 23.0.1, SVG Export Plug-In . SVG Version: 6.00 Build 0)  -->
<svg version="1.1" id="Layer_1" xmlns="http://www.w3.org/2000/svg" xmlns:xlink="http://www.w3.org/1999/xlink" x="0px" y="0px"
	 viewBox="0 0 524.2 147.1" style="enable-background:new 0 0 524.2 147.1;" xml:space="preserve">
<title>Logo_Negocios_black_sinLT_RGB</title>
<path d="M0,39.8h22.4l-0.5,11.6c4.3-8.5,12.6-13.1,22.4-13.1c15.4,0,26.5,11.3,26.5,31.3v40.7H48.4V71.1c0-7.9-3.8-12.4-11.8-12.4
	c-8.9,0-14.2,5-14.2,13.9v37.8H0V39.8z"/>
<path d="M113.9,93.3c6.3,0,12.5-2,17.7-5.6l12.8,13.8c-6.8,6-15.4,10.4-30.1,10.4c-25.2,0-41.4-15.2-41.4-36.9
	c0-21.4,17.1-36.6,38.9-36.6c25.3,0,39.1,18.9,37.4,43.5H95.7C97.9,89.1,103.8,93.3,113.9,93.3z M126.7,68.9
	c-1-7.8-6-12.4-14.7-12.4s-14.7,4-16.6,12.4H126.7z"/>
<path d="M219.8,39.6v15.9h-10.5c1.7,2.6,2.5,5.6,2.5,8.6c0,15.1-11.6,26.2-29.6,26.2c-5.6,0-10.4-0.8-14.4-2.8
	c-1.2,1.1-1.9,2.7-1.8,4.3c0,3.3,2.2,5.5,7.3,5.6l17.4,0.8c19.2,1,30.1,8.9,30.1,22.7c0,14.9-10.9,26.2-38.9,26.2
	c-25.3,0-37.9-9.8-37.9-23.2c0-7.6,5-12.6,12.9-15.6c-5.8-3.1-8.4-7.8-8.4-14.2c0-6.3,3.5-11.1,9.8-13.9c-4-4.4-6.3-10.1-6.3-16.1
	c0-15.1,12.2-25.8,30.3-25.8c3.5,0,7,0.4,10.4,1.3L219.8,39.6z M165.6,121.1c0,5.6,4,9.3,16.2,9.3c13.1,0,16.1-3.5,16.1-7.8
	c0-4-2.6-5.3-11.8-5.8l-18.5-1.1C166.3,117.1,165.5,119.1,165.6,121.1z M192.2,64.1c0-5.6-3.6-9.4-10.4-9.4s-10.4,3.8-10.4,9.4
	c0,6,3.6,9.9,10.4,9.9C188.6,74,192.2,70.1,192.2,64.1L192.2,64.1z"/>
<path d="M215.3,75.2c0-21.5,17-36.9,38.9-36.9s38.8,15.4,38.8,36.9c0,21.4-16.9,36.6-38.8,36.6S215.3,96.6,215.3,75.2z M270.1,75.2
	c0-10.6-6-17.7-15.9-17.7s-16.1,7.1-16.1,17.7c0,10.4,6.1,17.7,16.1,17.7S270.1,85.7,270.1,75.2z"/>
<path d="M293.1,74.9c0-21.4,16.6-36.6,38.6-36.6c14.1,0,22.5,5.1,29.6,14.1l-15.9,12.9c-3.1-4.6-8.2-7.4-13.8-7.4
	c-10.1,0-15.7,7.1-15.7,17c0,10.3,5.6,17.5,15.7,17.5c7.1,0,10.9-3.3,14.2-6.6L361,99c-7,7.8-15.2,12.8-29.3,12.8
	C309.6,111.8,293.1,96.6,293.1,74.9z"/>
<path d="M360,13.9c0-7.7,6.4-14,14.1-13.9c0.1,0,0.1,0,0.2,0c7.7,0,14,6.3,14,14s-6.3,14-14,14c-7.7,0.1-14.1-6-14.2-13.8
	C360,14.1,360,14,360,13.9z M363,39.7h22.4v70.5H363L363,39.7z"/>
<path d="M388.8,75.2c0-21.5,17.1-36.9,38.9-36.9s38.8,15.4,38.8,36.9c0,21.4-16.9,36.6-38.8,36.6S388.8,96.6,388.8,75.2z
	 M443.6,75.2c0-10.6-6-17.7-15.9-17.7s-16.1,7.1-16.1,17.7c0,10.4,6.1,17.7,16.1,17.7S443.6,85.7,443.6,75.2L443.6,75.2z"/>
<path d="M463.1,98.4l13.1-11.6c4.7,4.7,11,7.4,17.6,7.4c7.3,0,9.6-1.3,9.6-4.3c0-3.8-4.5-3.8-15.9-6.8c-9.6-2.5-20.4-7.8-20.4-22.5
	c0-15.9,12.2-22.3,27.3-22.3c11.6,0,19.9,3.8,25.7,9.8l-11.9,12.8c-3.8-3.3-8.6-5.1-13.6-5.3c-5.1,0-7.6,1.3-7.6,4.1
	c0,4,4.5,4.5,14.1,6.6c10.3,2.3,23.2,7.1,23.2,22c0,12.9-6.8,23.5-29,23.5C478.9,111.8,469.3,105.7,463.1,98.4z"/>
</svg>
