<?xml version="1.0" encoding="utf-8"?>
<!-- Generator: Adobe Illustrator 23.0.1, SVG Export Plug-In . SVG Version: 6.00 Build 0)  -->
<svg version="1.1" id="Layer_1" xmlns="http://www.w3.org/2000/svg" xmlns:xlink="http://www.w3.org/1999/xlink" x="0px" y="0px"
	 viewBox="0 0 127.8 158.7" style="enable-background:new 0 0 127.8 158.7;" xml:space="preserve">
<style type="text/css">
	.st0{fill:#80766E;}
	.st1{fill:#D42732;}
</style>
<title>Logo_Copesa_corto_01</title>
<path class="st0" d="M88.8,126.4L88.8,126.4l-2.3,0.2v-30l2.3-0.3V99c3.1-1.8,5.7-3.1,8.1-3.1c4.4,0,7.5,3.3,7.5,11.1
	c0,8-4.1,10.9-8.9,10.9c-2.3-0.1-4.6-0.6-6.7-1.6L88.8,126.4z M95.5,116L95.5,116c3.7,0,6.7-2.4,6.7-9.1c0-6.4-2.3-8.8-5.2-8.8
	c-2.6,0-5.5,1.6-8.1,3.1v13.2C90.9,115.3,93.1,115.9,95.5,116z"/>
<path class="st0" d="M124.3,135.1L124.3,135.1c0-2.8-1.3-3.9-3.3-3.9c-2.1,0-4.7,0.8-8,1.8l-0.5-3.1c2.8-1,5.8-1.6,8.8-1.8
	c3.9,0,6.5,1.8,6.5,6.9v14.7H125l-0.5-2.5c-2,1.8-4.6,2.8-7.3,2.9c-2.9,0-5.5-1.6-5.5-5.6s2.4-6.4,12.5-7.2L124.3,135.1z
	 M124.3,144.2L124.3,144.2v-4.1c-7.5,0.5-9.1,2.1-9.1,4.2c-0.1,1.4,0.9,2.6,2.3,2.8c0.1,0,0.3,0,0.4,0
	C120.3,147.1,122.6,146,124.3,144.2L124.3,144.2z"/>
<path class="st0" d="M21.1,102L21.1,102c0,9.8,4.9,13.9,11.9,13.9c2.5,0,5-0.5,7.3-1.3v-9.8h-8.9l0.2-2.1h11.1V116
	c-3.1,1.3-6.4,1.9-9.8,1.9c-8.1,0-14-4.4-14-16c0-11.9,6.3-16.1,14.1-16.1c2.8,0.1,5.7,0.6,8.3,1.6l-0.5,2.1c-2.5-1-5.1-1.6-7.8-1.6
	C26.6,88,21.1,91.7,21.1,102z"/>
<path class="st0" d="M60.3,98.6L60.3,98.6c-4.6-1.1-4.9-0.5-9.3,4.9v14h-2.3V96.6l2.3-0.3v4.4c3.7-5.2,5.4-5.1,9.6-4.2L60.3,98.6z"
	/>
<path class="st0" d="M78,96.6L78,96.6l2.3-0.3v21.2h-1.8L78,115c-2.9,1.6-5.7,2.9-8.1,2.9c-2.9,0-6-1.6-6-7V96.6l2.3-0.3v14.7
	c0,3.4,1.6,5.1,3.7,5.1c2.6,0,5.7-1.8,8.1-3.3L78,96.6z"/>
<path class="st0" d="M118.4,95.9L118.4,95.9c5.7,0,9.4,3.4,9.4,11.1s-3.7,10.9-9.4,10.9c-5.9,0-9.6-3.3-9.6-10.9
	S112.5,95.9,118.4,95.9z M118.4,116L118.4,116c4.2,0,7.2-2.8,7.2-9s-2.9-9-7.2-9c-4.4,0-7.3,2.8-7.3,9S114,116,118.4,116z"/>
<path class="st0" d="M3.9,133.9L3.9,133.9c0,9.5,4.6,12.6,10.2,12.6c2.6-0.1,5.1-0.6,7.5-1.5l0.8,3.6c-2.8,1-5.7,1.5-8.6,1.5
	c-7.5,0-13.8-4.2-13.8-16.1c0-11.8,6.3-16,13.8-16c2.9,0,5.8,0.5,8.6,1.5l-0.8,3.6c-2.4-1-4.9-1.6-7.5-1.6
	C8.4,121.4,3.9,124.6,3.9,133.9z"/>
<path class="st0" d="M35.3,128.1L35.3,128.1c6,0,9.9,3.4,9.9,11.1s-3.9,10.9-9.9,10.9s-9.9-3.4-9.9-10.9S29.2,128.1,35.3,128.1z
	 M35.3,147L35.3,147c3.7,0,6.3-2.4,6.3-7.8c0-5.5-2.6-8-6.3-8s-6.3,2.5-6.3,8C28.9,144.5,31.5,147,35.3,147L35.3,147z"/>
<path class="st0" d="M53.2,158.4L53.2,158.4l-3.6,0.3v-30.1l3.6-0.2v2.4c2.8-1.6,5.4-2.8,7.6-2.8c4.4,0,7.5,3.4,7.5,11.1
	c0,7.8-4.1,10.9-8.9,10.9c-2.1,0-4.3-0.5-6.2-1.5V158.4z M58.9,147L58.9,147c3.2,0,5.8-2.1,5.8-8c0-5.6-2-7.7-4.6-7.7
	c-2.1,0-4.7,1.5-7,2.6v11.6C55,146.4,56.9,146.9,58.9,147z"/>
<path class="st0" d="M75.8,140.4L75.8,140.4c0.2,5,2.8,6.7,6.3,6.7c2.1-0.1,4.2-0.5,6.2-1.1l0.5,2.9c-2.2,0.8-4.6,1.3-7,1.3
	c-5.5,0-9.6-2.9-9.6-10.9s3.9-11.1,9.4-11.1s9.1,4.1,7.8,12.2H75.8z M75.8,137.6h10.4c0.2-4.1-1.6-6.5-4.7-6.5
	C78,131,75.9,133.1,75.8,137.6L75.8,137.6z"/>
<path class="st0" d="M94.8,145.8L94.8,145.8c1.9,0.7,4,1.1,6,1.1c2.1,0,3.9-0.8,3.9-3.3c0-3.9-10.7-2.9-10.7-9.8
	c0-4.1,2.9-5.9,7.3-5.9c2.1,0,4.2,0.5,6.2,1.3l-0.5,3c-1.9-0.7-3.8-1.1-5.8-1.1c-2,0-3.8,0.7-3.6,2.9c0,3.8,10.7,2.9,10.7,9.8
	c0,4.2-3.3,6.2-7.6,6.2c-2.2,0-4.3-0.5-6.4-1.3L94.8,145.8z"/>
<path class="st1" d="M28.5,12.3L28.5,12.3c0.9-1.7,2.1-3.2,3.6-4.5c8.8-8.8,22.9-9.9,35.8-4.3l0.6,3.7c-8.8-3.7-18-3.2-23.4,2.2
	c-1.8,1.9-3.2,4.2-3.9,6.8L28.5,12.3z M89.7,28.6L89.7,28.6c3.7,8.8,3.2,18-2.3,23.5c-0.7,0.8-1.6,1.5-2.6,2.1l5,10.3
	c8.2-8.8,9.2-22.5,3.6-35.3L89.7,28.6z M80.7,56L80.7,56c-8.6,2.6-20.4-1.1-29.4-10.3c-7.7-7.7-11.6-17.5-11-25.5l-14.5-2.4
	C21.5,30.1,26,46.6,38.2,58.9c14,14.1,33.5,17.8,46.5,9.9L80.7,56z"/>
</svg>
