<svg version="1.1" id="Layer_1" xmlns="http://www.w3.org/2000/svg" x="0" y="0" viewBox="0 0 705.3 135.4" xml:space="preserve"><style>.st0{fill:#b2292e}.st1{fill:#fff}</style><path class="st0" d="M0 37.3h56.4v54.2H0z"/><path class="st1" d="M6.8 47.3h5.4V77h15.5v4.8H6.8zm27.1 4.8H23.7v-4.8h25.9v4.8H39.4v29.7h-5.5z"/><path class="st0" d="M13.3 95.9h-2.4v-1.1h6v1.1h-2.4v6.9h-1.2zm15.8 6.9h-1.5l-1.3-1.9H25v1.9h-1.3v-8h2c2.2 0 3.4 1.2 3.4 3 .1 1.1-.6 2.2-1.6 2.6l1.6 2.4zm-3.4-3c1.5 0 2.2-.7 2.2-1.9s-.6-1.9-2.2-1.9H25v3.9h.7zm3.9-1c0-2.2 1.7-4 3.9-4.1h.1c1.3-.1 2.5.5 3.2 1.6l-1 .7c-.5-.7-1.3-1.1-2.2-1.1-1.6.3-2.7 1.9-2.3 3.5.2 1.2 1.2 2.1 2.4 2.4.9 0 1.8-.4 2.4-1.2l1 .7c-.8 1.1-2.1 1.7-3.4 1.6-2.2 0-4-1.8-4-4 0 0 0-.1-.1-.1m19.5 4h-1.5l-1.4-1.9h-1.4v1.9h-1.2v-8h2c2.2 0 3.4 1.2 3.4 3 .1 1.1-.6 2.2-1.6 2.6l1.7 2.4zm-3.5-3c1.5 0 2.2-.7 2.2-1.9s-.6-1.9-2.2-1.9h-.7v3.9h.7zm5 3h-1.3l3.5-8.1h.1l3.5 8.1h-1.3l-.5-1.1H51l-.4 1.1zm2.3-5.4l-1.3 3.1h2.6l-1.3-3.1zm-10 4.2H39v-1.3h3.3v-1.1H39v-3.3h3.9v-1.1h-5.2v8h5.2zM19 100.3h3.3v-1.1H19v-3.3h3.9v-1.1h-5.2v8h5.2v-1.2H19zM0 94.8h1.2v6.8h3.6v1.2H0z"/><path class="st0" d="M5.2 102.8H3.9l3.5-8.1h.1l3.5 8.1H9.7l-.5-1.1H5.7l-.5 1.1zm2.3-5.4l-1.3 3.1h2.6l-1.3-3.1z"/><path class="st1" d="M101.3 86.9c5.9 0 11.7-1.8 16.5-5.2l11.9 12.8c-6.3 5.5-14.3 9.7-28 9.7-23.4 0-38.5-14.2-38.5-34.3 0-19.8 15.8-34 36.2-34 23.6 0 36.3 17.5 34.8 40.5H84.3c2 6.7 7.6 10.5 17 10.5zm11.8-22.6c-.9-7.2-5.5-11.5-13.7-11.5S85.7 56.5 84 64.3h29.1zm24-60.8h20.6v99.3h-20.6V3.5zm23.7 66.4c0-20.2 13.5-34 29.4-34 10.5 0 16.3 4.2 20.5 10.6v-43h20.8v99.3h-20.8l.4-9.5c-3.7 6.9-10.6 10.9-20.6 10.9-16 0-29.7-14.2-29.7-34.3zm50.5 0c0-9.7-5.9-15.7-14.8-15.7s-14.3 6-14.3 15.7c0 10.3 5.5 16.2 14.3 16.2 8.8-.1 14.8-5.9 14.8-16.2zm60.8 17c5.9 0 11.7-1.8 16.5-5.2l11.9 12.8c-6.3 5.5-14.3 9.7-28 9.7-23.4 0-38.5-14.2-38.5-34.3 0-19.8 15.9-34 36.2-34 23.5 0 36.3 17.5 34.8 40.5h-49.7c1.9 6.7 7.4 10.5 16.8 10.5zm11.8-22.6c-.9-7.2-5.5-11.5-13.7-11.5s-13.7 3.7-15.4 11.5h29.1zm23.6-27.1h20.8l-.5 10.2c4-7.1 10.9-11.5 21.1-11.5 15.9 0 29.2 13.8 29.2 34s-13.7 34.3-29.7 34.3c-10 0-16.8-4.1-20.2-10.2v41.4h-20.8V37.2zm49.2 32.7c0-9.7-5.5-15.7-14.3-15.7-8.9 0-14.8 6-14.8 15.7 0 10.3 5.8 16.2 14.8 16.2 8.8-.1 14.3-5.9 14.3-16.2zm21.7.3c0-20 15.9-34.3 36.2-34.3s36 14.3 36 34.3c0 19.8-15.7 34-36 34s-36.2-14.2-36.2-34zm51 0c0-9.8-5.5-16.5-14.8-16.5s-14.9 6.6-14.9 16.5c0 9.7 5.7 16.5 14.9 16.5s14.7-6.8 14.8-16.5zm23.7-33h20.8l-.3 11.8c4.8-10.8 12.5-13.2 19.2-13.2 3.6 0 7 .9 10.2 2.6l-6.6 18.9c-2.5-1.3-5.2-2-8-2-9.4 0-14.5 4.3-14.5 18.3v29.1h-20.8V37.2z"/><path class="st1" d="M508.1 78.2V54.5h-9.7V37.2h9.7V3.1h20.6v34.2h16.8v17.2h-16.8v24.3c0 6.6 2.2 8 5.4 8 3.4 0 5.8-1.8 7.2-2.8l7.8 14.5c-3.2 2.6-8.8 6-18.3 6-13.1 0-22.7-6.6-22.7-26.3z"/><path class="st1" d="M546.3 13.2C546.3 6 552.1 0 559.4 0s13.2 5.8 13.2 13.1-5.8 13.2-13.1 13.2c-7.2.1-13.1-5.6-13.2-12.8v-.3zm2.8 24h20.8v65.6h-20.8V37.2z"/><path class="st1" d="M568.6 37.2h22.9l9.2 19.5c3.1 6.6 5.4 17.4 5.4 17.4s2.2-10.8 5.1-17.4l8.9-19.6h21.1L606.1 104h-2l-35.5-66.8zm64.5 33c0-20 15.8-34.3 36.2-34.3s36 14.3 36 34.3c0 19.8-15.7 34-36 34s-36.2-14.2-36.2-34zm50.9 0c0-9.8-5.5-16.5-14.8-16.5s-14.9 6.6-14.9 16.5c0 9.7 5.7 16.5 14.9 16.5S684 79.9 684 70.2z"/></svg>