<?xml version="1.0" encoding="utf-8"?>
<!-- Generator: Adobe Illustrator 23.0.1, SVG Export Plug-In . SVG Version: 6.00 Build 0)  -->
<svg version="1.1" id="Layer_1" xmlns="http://www.w3.org/2000/svg" xmlns:xlink="http://www.w3.org/1999/xlink" x="0px" y="0px"
	 viewBox="0 0 548.1 70.5" style="enable-background:new 0 0 548.1 70.5;" xml:space="preserve">
<style type="text/css">
	.st0{fill:#FFFFFF;}
</style>
<title>Logo_LaTercera_Black_RGB</title>
<rect width="73.7" height="70.5"/>
<polyline class="st0" points="9,12.8 16.1,12.8 16.1,51.5 36.3,51.5 36.3,57.7 9,57.7 9,12.8 "/>
<polyline class="st0" points="44.4,19.1 31,19.1 31,12.8 64.8,12.8 64.8,19.1 51.4,19.1 51.4,57.7 44.4,57.7 44.4,19.1 "/>
<polyline points="200.4,12.4 181.3,12.4 181.3,3.4 229.5,3.4 229.5,12.4 210.4,12.4 210.4,67.6 200.4,67.6 200.4,12.4 "/>
<path d="M328.1,67.6h-12L305.1,52c-1.5,0.2-3.1,0.3-4.6,0.3h-6.3v15.3h-10.1V3.4h16.4c17.6,0,27.4,9.7,27.4,24.5
	c0,9.9-4.4,17.6-12.8,21.4L328.1,67.6 M300.2,43.6c12.3,0,17.3-5.8,17.3-15.7s-5.1-15.6-17.3-15.6h-6v31.2H300.2z"/>
<path d="M332.1,35.5c0-19,14.4-32.9,32.7-32.9c11.9,0,20.1,4.6,25.7,12.4l-7.7,5.5c-4.3-5.8-9.7-8.8-18.2-8.8
	c-12.7,0-22,10.2-22,23.8c0,13.9,9.5,23.8,22.4,23.8c8.3,0,14.4-3.1,19.3-9.4l7.8,5.4c-6.6,8.8-15,13.1-27.5,13.1
	C346.2,68.4,332.1,54.4,332.1,35.5"/>
<path d="M489.2,67.6h-12l-11-15.6c-1.5,0.2-3.1,0.3-4.6,0.3h-6.3v15.3h-10.1V3.4h16.4c17.6,0,27.4,9.7,27.4,24.5
	c0,9.9-4.4,17.6-12.8,21.4L489.2,67.6 M461.2,43.6c12.4,0,17.4-5.8,17.4-15.7s-5.1-15.6-17.4-15.6h-5.9v31.2H461.2z"/>
<path d="M501.4,67.6h-10.2l28.1-65.5h0.6l28.2,65.5h-10.7l-3.7-9h-28.7L501.4,67.6 M519.6,24.3l-10.7,25.4h21.2L519.6,24.3z"/>
<polyline points="439.2,58.6 407.5,58.6 407.5,47.8 434.8,47.8 434.8,39 407.5,39 407.5,12.4 439.2,12.4 439.2,3.4 397.4,3.4 
	397.4,67.6 439.2,67.6 439.2,58.6 "/>
<polyline points="245.9,47.8 273.2,47.8 273.2,39 245.9,39 245.9,12.4 277.9,12.4 277.9,3.4 235.8,3.4 235.8,67.6 278,67.6 
	278,58.6 245.9,58.6 245.9,47.8 "/>
<polyline points="93,3.5 103.1,3.5 103.1,58.6 132,58.6 132,67.6 93,67.6 93,3.5 "/>
<path d="M135.1,67.6h-10.2L153,2.1h0.6l28.2,65.5h-10.7l-3.6-9h-28.7L135.1,67.6 M153.1,24.3l-10.6,25.4h21.1L153.1,24.3z"/>
</svg>
