<svg data-name="Layer 1" xmlns="http://www.w3.org/2000/svg" viewBox="0 0 200 200.01"><path d="M16.67 62.9h25l-.56 13c4.82-9.45 14.09-14.64 25-14.64 17.24 0 29.65 12.6 29.65 35v45.6h-25V97.93C70.8 89 66.54 84 57.64 84c-10 0-15.94 5.56-15.94 15.57v42.26h-25zm127.54 59.87a34.27 34.27 0 0019.83-6.3l14.27 15.38c-7.6 6.68-17.23 11.68-33.73 11.68-28.18 0-46.35-17-46.35-41.33 0-23.92 19.1-41 43.57-41 28.36 0 43.74 21.13 41.89 48.75h-59.87c2.4 8.19 9.08 12.82 20.39 12.82zm14.27-27.25c-1.12-8.71-6.67-13.9-16.5-13.9s-16.5 4.45-18.53 13.9z"/></svg>