<?xml version="1.0" encoding="utf-8"?>
<!-- Generator: Adobe Illustrator 23.0.1, SVG Export Plug-In . SVG Version: 6.00 Build 0)  -->
<svg version="1.1" id="Layer_1" xmlns="http://www.w3.org/2000/svg" xmlns:xlink="http://www.w3.org/1999/xlink" x="0px" y="0px"
	 viewBox="0 0 340.7 67.3" style="enable-background:new 0 0 340.7 67.3;" xml:space="preserve">
<style type="text/css">
	.st0{fill:#FD0001;}
	.st1{fill:#16B2F4;}
	.st2{fill:#FFFFFF;}
</style>
<title>Logo_Negocios_corto_02_RGB</title>
<g id="Mouse_Anaglyph_2_1_">
	<g>
		<g>
			<path class="st0" d="M333.4,67.2c2.8,0.6-2.6-2.4-1.4-3c3.3-0.7,0.3-2.9-0.3-3.9c0.3-1,3.6-1.4-0.3-2.4c0.8-1,3-0.9,1.4-1.6
				c-3.1-0.7,0.5-1.1,0.4-1.3c-0.3-0.4-1.3-0.7-1.4-0.7c-0.4,0-6.1-1.5-17.7-1.5c-4.1,0-20.5,10.8-12.5,10.8
				C309.3,63.5,333.4,67.2,333.4,67.2"/>
			<path class="st1" d="M143.8,11.9c-1.5,0-3,0.2-4.3,0.4c0.8,0.2,1.6,0.4,2.3,0.7c0.7,0.3,1.4,0.6,2.1,1c0,0.4,1.7,0.8,1.8,1.3
				c-0.2,0.5-0.9,1,1.6,1.6c1.4,0.6,2.5,1.2,1.3,1.9c2.4,0.7,1.5,1.4,1,2.2c-2.9,0.8,2.8,1.6,0.7,2.4c-1,0.8,0.1,1.7,0.4,2.6
				c1.3,0.9-1.5,1.9,0.1,2.8c-0.6,1-2.7,2-0.3,3c0,1-1.6,1.9-0.6,2.8c0.2,0.9-2,1.8-0.8,2.6c-0.4,0.9,1.4,1.7-1,2.5
				c-3.4,0.8-3.5,1.5-1.3,2.3c-1.2,0.7-0.5,1.4-1.5,2.1c-1.3,0.7,0.8,1.3-1.6,1.9c0,0.6-1.1,1.1-1.8,1.6c-0.6,0.5-1.3,1-2,1.4
				c-2,1.3-4.3,2.2-6.7,2.7c1.3,0.3,2.6,0.4,4.1,0.4c10.7,0,19.5-8.2,21.3-20.3C160.6,19.9,154.2,11.9,143.8,11.9"/>
			<path class="st1" d="M107.3,32.1c2.1-13.8,14-29.9,33.5-31.9C139.4,0.1,138,0,136.6,0c-3.1,0-6,0.3-8.7,1
				c-0.9,0.2-1.8,0.4-2.7,0.7c-0.7,0.3-4.4,0.6-2.5,0.9c1.4,0.3-0.1,0.7-2.4,1.1c-2.6,0.4-1,0.8-2.3,1.2c-4.3,0.4-0.6,0.9-2.2,1.4
				c0.2,0.5-1.6,1-2.1,1.5c0.1,0.5-0.8,1-1.9,1.6c-1.7,0.6-3.2,1.1-1.8,1.7c0.6,0.6-1.6,1.2-1.7,1.8c-1.3,0.6-0.3,1.2-1.5,1.9
				c-1.7,0.6-0.5,1.3-1.4,1.9c0.2,0.7-0.2,1.3-1.3,2c1.1,0.7,0.9,1.4-1.1,2c-2.7,0.7-0.3,1.4-1,2.1c0.3,0-3.3,0.3-0.1,0.8
				c-1.5,0.5-0.3,1.3-2.6,2.1c3,0.9,1.6,1.9,1,3c-3.8,1.1,4,2.3,0.2,3.5c-1,0.4-1.2,0.8-1,1.2c-0.8,0.4,0.9,0.8,1,1.2
				c-0.8,0.4-0.3,0.8-0.5,1.1c-0.3,0.6,2.1,1.1,0.7,1.6c1.2,0.5-0.8,1-1.1,1.4c-0.1,0.4,1.4,0.8,0,1.2c-0.1,0.4,1.2,0.7-0.3,0.9
				c1,0.3-1,0.5-0.6,0.6c-0.8,0.1-1.2,0.2,0.5,0.2c0.1,0.4-2.4,0.8,0.1,1.2c-0.5,0.4,0.9,0.8,0.3,1.2c-1.4,0.4-1.3,0.8-0.1,1.2
				c-0.6,0.4,0.5,0.8,0.8,1.2c0.5,0.4,0.4,0.8,0.4,1.1c-0.1,0.4-0.1,0.8,0.5,1.1c0.8,0.7,3.7,1.5,1.1,2.2c-2.4,0.7,1.4,1.4,1.3,2.1
				c-0.1,0.7,0.4,1.3,1.5,1.9c3.7,0.6,5.2,1.2,1.7,1.8c1.3,0.6,3.9,1.1,1.9,1.7c-0.3,0.5,1.2,1,2.1,1.5c-1.6,0.5,3.1,0.9,2.3,1.3
				c1.7,0.4,1.8,0.8,2.5,1.1c0.9,0.3,1.8,0.6,2.7,0.9c2.9,0.8,6,1.2,9.6,1.2c1.4,0,2.8-0.1,4.1-0.2
				C112.7,62.1,105.1,46.7,107.3,32.1"/>
			<path class="st1" d="M180.9,53.1c-1.6-3-2.9-8.2-1.8-15.6l5.5-36.8h-4.1h-2.8h-1.3c0.3,0,0.3,0.3-0.1,0.8
				c0.9,0.5-1.4,1.3-0.3,2.2c-0.2,0.9-0.6,2-0.5,3.2c-2.7,1.2-0.4,2.4-0.5,3.6c-1.9,1.2-1.4,2.5-0.5,3.6c1.6,1.2-1.9,2.2-0.5,3.2
				c-0.7,0.9,0.7,1.7-0.3,2.2c1.6,0.5,2.6,0.8-0.1,0.8c-0.2,0.8,3.8,1.5,0.2,2.3c0.3,0.8,0.5,1.5-0.4,2.3c-1.6,0.8-1.3,1.6-0.7,2.3
				c0.6,0.8,0.2,1.5-0.7,2.3c2.7,0.8-1,1.5-0.5,2.3c2.8,0.7-1.9,1.4-0.1,2.1c-1.6,0.7,0.9,1.4,0.1,2.1c-0.4,0.7-0.6,1.4,0.1,2.1
				c2.2,0.7-3.4,1.4-0.2,2.1c-2.5,0.7-0.3,1.4-0.7,2.1c-1.1,0.9,0.4,1.8,0.1,2.7c-2.7,0.8,1.8,1.6,0.3,2.4c0.5,0.7-1,1.4,0.5,2.1
				c-1.2,0.6,0.1,1.2,0.6,1.8c-1.8,0.5,1.2,1,0.7,1.5c0,0.9-0.3,1.8,1.6,2.6c2.8,0.8,0.6,1.5,1.9,2.2c2.8,0.7-0.2,1.2,2.1,1.8
				c2.1,0.5,2.4,1,2.3,1.4c0.9,0.4,1.9,0.8,2.4,1.1c0.8,0.3,1.7,0.6,2.5,0.8c4.2,1.2,8.5,1.3,11.8,1.3c1.3,0,2.5,0,3.8-0.1
				C194,63.6,185.3,61.6,180.9,53.1"/>
			<path class="st1" d="M220.1,46.2c3.3-4,4.4-11.1,4.7-13.2l4.8-32.3h-4.1h-2.8h-1.3c-0.5,0,0.6,0.2-0.1,0.5
				c-1.4,0.4-0.4,0.9-0.2,1.5c-0.5,0.6-1.5,1.4-0.3,2.3C219,6,220,7,220.3,8c-0.7,1.1,0.7,2.2-0.5,3.4c1.8,1.2,0.2,2.4-0.5,3.6
				c0.7,1.2-1.5,2.5-0.6,3.7c-1,1.2,1.4,2.5-0.5,3.6c-0.9,1.2,0.1,2.3-0.5,3.4c-0.6,1.1,0.5,2-0.4,2.9c-0.6,0.9-0.1,1.7-0.3,2.3
				c2.5,0.6-2.1,1.2-0.2,1.5c1.5,0.4-0.2,0.5-0.1,0.5c-0.3,0.3,0.4,0.8-0.2,1.4c1.3,0.6,0,1.3-0.4,2c-3.1,0.8,0.1,1.6-0.6,2.4
				c0.2,0.9,1.8,1.7-0.9,2.6c-0.3,0.9-1.5,1.7-1.1,2.5c-2.2,0.8-2.2,1.6-1.5,2.2c-1.9,0.6-0.3,1.2-1.7,1.7c-1.7,0.5-1.2,1-1.8,1.4
				c-1.9,1.3-4,2.1-5.9,2.6c1.3,0.4,2.7,0.5,4.1,0.5C210.5,52.6,216.3,50.9,220.1,46.2"/>
			<path class="st1" d="M270.7,11.9c3.4,0.9,6.2,2.6,7.9,3.9l0.6-3.8c-1.4-0.4-2.9-0.6-4.4-0.6C273.2,11.3,271.9,11.5,270.7,11.9"/>
			<path class="st1" d="M245.5,51.7c-1.4-0.5-2.8-1.2-4-2c-0.6-0.4-0.9-0.8-1.8-1.3c-0.6-0.4-1.1-0.9-1.7-1.4c0,0-0.1,0.4-0.2,1
				c0.2,0.6,0.4,1.6-0.4,2.6c-0.6,1,0.6,2.2-0.5,3.4c-1.2,1.2-1.2,2.3-0.5,3.4c0.9,1-3.9,1.9-0.4,2.6c-1.2,0.6-0.9,1-0.2,1
				c0,0.3,2.3,0.7,2.8,1c-0.4,0.3,2.1,0.5,2.5,0.8c0.8,0.2,1.5,0.4,2.3,0.6c2.9,0.7,5.3,1,7.9,1c1.4,0,2.7-0.1,4.1-0.3
				c-3.1-0.4-6.5-1.3-11.2-3L245.5,51.7z"/>
			<path class="st1" d="M270,45.9c0.3-1.8,0.2-4.1-4.1-6.6c-8.6-5.2-9.7-5.9-12.3-9c-3-3.6-3.8-7.4-3.2-11.5
				c1.5-9.7,10.1-17,20-18.5c-1.5-0.2-3.1-0.3-4.6-0.3c-3.5,0-6.9,0.7-10,2.1c-0.8,0.3-1.5,0.7-2.3,1.1c-1.5,0.4-0.3,0.9-2.1,1.3
				c-0.5,0.5-0.7,1-2,1.5c-0.4,0.5-1.6,1.1-1.8,1.7c-0.1,0.6-3.6,1.2-1.6,1.9c-1.5,0.7-1.5,1.3-1.4,2.1c-5.2,0.7-0.5,1.4-1.1,2.2
				c-2,0.8-3.6,1.5-0.8,2.3c0.5,0.8,1.5,1.6-0.5,2.5c1.6,0.8-1,1.6-0.2,2.4c0.8,0.8-1.9,1.6,0.2,2.4c-1.1,0.8,0.6,1.5,0.6,2.3
				c1.5,0.8-1.2,1.5,1,2.2c-0.8,0.7,0.4,1.5,1.5,2.2c2.1,0.5,3.2,1,1.2,1.4c0.8,0.4-0.7,0.8,1.2,1.2c1.1,0.4-0.2,0.8,1.5,1.2
				c0.5,0.4-1.5,0.8,2,1.3c1.4,0.5,2.1,1,2.7,1.7c1.2,0.6,0.5,1.4,3.7,2.2c-0.6,0.6,2.6,1.3,2.5,1.8c-1.1,0.6,2.7,1.2,1.3,1.7
				c0.3,0.6-2,1.1,0.4,1.6c-0.6,0.5-2.1,1-0.1,1.4c1.9,0.5,2.9,1.1-0.5,1.7c-0.1,0.6,0.6,1.2-1.1,1.8c1.2,0.6,0.2,1.2-1.8,1.7
				c-0.7,0.5-1.6,0.9-2.6,1.2c1.4,0.4,2.8,0.6,4.3,0.6C266.8,52.9,269.6,48.5,270,45.9"/>
			<path class="st1" d="M292.4,0.7c0,0,0,0.1,0,0.3c0,0.2-0.1,0.5-0.1,0.9c0.3,0.4,1.1,0.9-0.2,1.5c-0.9,0.6,0.8,1.2-0.3,2
				c1.8,0.7,1.7,1.5-0.4,2.4c-0.9,0.9,3.7,1.8-0.4,2.8c-1.1,1-2.8,2-0.5,3.1c-0.1,1.1-1.7,2.2-0.5,3.4c0.5,0.6,0.4,1.2,0.2,1.8
				c-0.2,0.6,0,1.2-0.7,1.8c-0.2,1.2-0.1,2.3-0.5,3.5c-1.6,1.2,2.6,2.4-0.5,3.6c1,1.2-0.1,2.4-0.5,3.7c0.4,1.2-1.8,2.5-0.6,3.7
				c0.5,1.2-1.1,2.4-0.5,3.6c-2,1.2-2.3,2.4-0.5,3.6c1.6,1.2,2.1,2.3-0.5,3.4c1.5,1.1-2.3,2.2-0.5,3.3c1.3,1.1-0.6,2.1-0.5,3
				c1.5,1,1,1.9-0.4,2.8c-1.9,0.9-1.7,1.7-0.4,2.5c-0.3,0.8-1.2,1.5-0.3,2.1c0.7,0.6-0.7,1.2-0.3,1.7c-1.5,0.5-2.2,0.9-0.2,1.3
				c1.7,0.4,0.1,0.6-0.1,0.8c-0.4,0.2,1.7,0.3,0,0.3h1.3h2.8h2.8h1.3l9.4-62.8H292.4z"/>
			<path class="st1" d="M77.3,34.7c0,0,0,0.2-0.1,0.7c-0.1,0.4,0.1,1.1-0.3,1.8c-0.5,0.8-1.1,1.7-0.4,2.8c0,0.5-0.2,1.1-0.3,1.6
				c-0.1,0.6-0.3,1.2-0.2,1.8c-1.6,0.4,0.4,0.8,0,1.2c0.2,0.4,0.4,0.8,0.4,1.3c0,0.4-0.2,0.9-1,1.3c-0.2,1.3,0.8,2.6-0.6,3.9
				c-2.2,1.3,0.8,2.6-0.6,3.8c-1.8,1.2,1.6,2.4-0.5,3.4c-4.6,1,1.6,2-0.4,2.8c0.1,0.8-0.6,1.4-0.3,1.8c0.9,0.4,0.9,0.7-0.1,0.7h1.3
				h2.8h4.1l5.9-39.3L77.3,34.7z"/>
			<path class="st1" d="M92.2,0.7h-1.3h-2.8h-2.8h-1.3c0.4,0,0,0.3-0.7,0.7c-0.3,0.2-0.3,0.5-0.8,0.8c-1.5,0.3-2.1,0.7-1,1
				c2.9,0.4-1.3,0.8-1.3,1.2c-0.9,0.4-2.5,0.9-1.1,1.3c-0.7,0.4-1,0.9-1.8,1.4c-0.7,0.5-1.3,0.9-0.8,1.4c-0.3,0.9-1.1,1.7-2.4,2.5
				c-1.5,0.7-1.5,1.4-1.7,1.8c-0.4,0.4-0.7,0.7-0.7,0.7l-1.5,10.4L92.2,0.7z"/>
			<path class="st1" d="M60.8,0.7h-1.3h-2.8h-2.8h-1.3c-3.1,0,2.2,0.1-0.2,0.2c-3.2,0.1-1.2,0.3-0.6,0.6c3.1,0.3,0,0.6-0.9,1
				c-2.3,0.4-1.8,0.8-1.3,1.3c-0.6,0.2-0.4,0.5-0.4,0.8c0,0.3-0.1,0.6-1.1,0.9c0.8,0.3,0.8,0.6,0.6,0.9c0.4,0.3-1.3,0.7-2.4,1
				c-0.2,0.3-1.1,0.7-1,1.1c0.5,0.4-2.5,0.7-1,1.1c-3.1,0.3-0.2,0.7-1,1c-0.9,0.3-1.6,0.7-0.9,1c-0.1,0.4-0.2,0.7-1.8,1.1
				c-0.3,0.4-0.3,0.7-0.3,1.1c-2.5,0.8-3.2,1.5-2.2,2.3c-1,0.8,0.3,1.6-2.3,2.4c-1.9,0.8-2,1.6-2.3,2.5c-0.1,0.4-0.5,0.8-1,1.3
				c-0.5,0.4-1,0.8-1.4,1.3c-0.3,0.9-1.2,1.8-2.6,2.7c-2.1,0.9-1.2,1.8-2.6,2.7c-2.4,0.9-1.6,1.8-2.6,2.7c0.7,0.9-3.1,1.8-2.5,2.7
				c0.6,0.9-2.9,1.8-2.5,2.6c-3.2,0.9-0.7,1.7-2.4,2.5c-0.3,0.2-0.5,0.4-0.7,0.6c-0.2,0.2-0.3,0.4-0.7,0.6c-0.4,0.2-0.3,0.4-0.5,0.6
				c0.5,0.2-2.6,0.4-0.3,0.6c0.8,0.2-1.2,0.4-0.4,0.6c-2,0.2,0,0.4-0.7,0.6c0.7,0.2-1.8,0.4-0.5,0.6c-1.5,0.2,1,0.4-0.5,0.5
				c0.7,0.5,0.3,1-0.8,1.4c-1.6,0.5-2.3,0.9-1.8,1.3c-2.5,0.4-1.7,0.8-1.9,1.2C7,48.6,3.7,49,6.6,49.3c2.3,0.4,0.5,0.7-1,1
				c-0.2,0.3-2.9,0.6-2.8,0.9c-0.8,0.3-1.6,0.6-1.3,0.8c-0.1,0.2-0.1,0.5-0.1,0.7c0,0.4,0.3,0.7-0.9,0.9C0.7,53.9,0.2,54,0.3,54
				c-1,0,0.3,0.4,0.9,1c2.1,2.4,9.2,8.5,9.2,8.5l4.3-4.6l-4.3-5L60.8,0.7z"/>
			<path class="st1" d="M46,34.7c0,0-0.1,1-0.4,2.5c-0.1,0.8,1.1,1.7-0.4,2.8c-0.2,1,0.7,2.2-0.5,3.4c0.3,1.2,0.4,2.5-0.6,3.8
				c-0.5,1.3,0,2.6-0.6,3.9c-3.9,1.3-6,2.6-0.6,3.8c-0.9,1.2-1.5,2.4-0.5,3.4c-1.7,1-2.3,2-0.4,2.8c-0.1,0.8-0.2,1.4-0.3,1.8
				c-0.1,0.4-0.1,0.7-0.1,0.7l0.2-0.2l0,0.2l9.6-10.2l4.3-29.1L46,34.7z"/>
			<path class="st0" d="M122.2,32.4c-1-0.8,2.4-1.5,0.4-2.3c-2.1-0.8,0.4-1.6,0.7-2.3c-0.6-0.8-0.7-1.5,0.9-2.3
				c1.1-0.8-0.1-1.5,1.1-2.3c2.4-0.7-0.2-1.5,1.3-2.2c-1.4-0.7,0.9-1.4,1.6-2c-1.4-0.6-0.1-1.3,1.8-1.8c2.2-0.6-0.1-1.1,2-1.6
				c0.6-0.5,0.8-1,2.3-1.4c0.8-0.4,1.6-0.8,2.5-1.1c0.9-0.3,1.8-0.6,2.7-0.8c-1.2-0.3-2.5-0.4-3.9-0.4c-13.3,0-20.2,11.1-21.6,20.5
				c-1.5,10.2,3.4,19.9,15.3,19.9c1.4,0,2.8-0.1,4.2-0.4c-1.8-0.4-3.3-1.1-4.7-1.9c-0.7-0.4-1.3-0.9-1.9-1.5
				c0.1-0.5-0.4-1.1-1.6-1.7c-2.5-0.6-1.3-1.3-1.3-2c2.5-0.7-0.9-1.4-1-2.2c-4.1-0.8,0-1.6-0.6-2.4c1.4-0.8-2.1-1.6-0.3-2.5
				c0.2-0.9,0.1-1.7,0-2.6C122,34.1,119.7,33.3,122.2,32.4"/>
			<path class="st2" d="M165.5,32c2-13.6-4.6-29.8-24.7-31.8c-19.5,2-31.4,18.1-33.5,31.9c-2.2,14.6,5.4,30.1,24.5,32
				C151.8,62.1,163.4,45.8,165.5,32 M137.5,52.2c-1.5,0-2.8-0.1-4.1-0.4c-1.3,0.3-2.7,0.4-4.2,0.4c-11.9,0-16.8-9.7-15.3-19.9
				c1.4-9.4,8.3-20.5,21.6-20.5c1.4,0,2.7,0.1,3.9,0.4c1.4-0.3,2.8-0.4,4.3-0.4c10.3,0,16.8,8,15,20C157,44.1,148.1,52.2,137.5,52.2
				"/>
			<path class="st0" d="M173.3,20.5c2.7-0.7,2.5-1.4-0.6-2.2c3.2-0.7-1.3-1.4-0.8-2.1c0.3-0.7,2-1.4-0.9-2c0.5-0.7,4.4-1.3-1.1-2
				c-1.2-0.6-1.9-1.3-1.3-1.9c-0.8-0.6-0.9-1.2-1.5-1.8c-2.6-0.6,1.2-1.1-1.7-1.6c-1.7-0.5-1.7-1-1.9-1.5c-3-0.5,1.3-0.9-2.1-1.4
				c-3.6-0.4-3.5-0.8-2.3-1.2c-0.5-0.4,1.2-0.7-2.5-1c0.3-0.3,1.8-0.6-2.7-0.8c-0.9-0.2-1.9-0.4-2.9-0.6c-2-0.3-4.2-0.5-6.5-0.5
				c-1.4,0-2.7,0.1-4,0.2c20.1,2,26.8,18.2,24.7,31.8c-2.1,13.8-13.7,30.1-33.7,32.1c1.3,0.1,2.7,0.2,4.1,0.2
				c4.3,0,8.3-0.6,11.9-1.8c0.9-0.3,1.8-0.6,2.6-0.9c0.4-0.3,1.3-0.7,2.5-1.1c3.4-0.4,1.7-0.8,2.4-1.3c1.4-0.5,2.3-0.9,2.2-1.4
				c1.5-0.5,1.6-1,2.1-1.6c1-0.5,3.8-1.1,2-1.7c-2.3-0.6-0.3-1.2,1.8-1.8c1.5-0.6,3.9-1.2,1.7-1.9c0.8-0.6-1-1.3,1.5-2
				c0.8-0.7,4.8-1.3,1.4-2c4.6-0.7-1.7-1.4,1.3-2.1c3.2-0.7,2.3-1.4,1.1-2.1c1.7-0.7,2.1-1.4,1-2.1c0.4-0.7,1.3-1.4,0.8-2.1
				c-0.7-0.7,1-1.4,0.7-2.1c1-0.7-1.9-1.4,0.5-2.1c3.1-0.7-1-1.4,0.4-2.1c1.6-0.8-2.5-1.5,0.3-2.3c1.8-0.8-0.7-1.5,0.1-2.3
				c0.2-0.8,1.3-1.5-0.1-2.3c1.3-0.8,0.5-1.5-0.3-2.3C174.7,22,175.7,21.2,173.3,20.5"/>
			<path class="st0" d="M187.6,48c2.5,3.2,6.7,4.6,10.5,4.6c1.3,0,2.7-0.2,4.2-0.5c-1.3-0.3-2.5-0.8-3.6-1.5
				c-0.6-0.3-0.4-0.7-1.6-1.1c0-0.4-1.6-0.9-1.4-1.4c-0.3-0.5-0.4-1-1-1.6c-1-0.5,1.5-1.1-0.7-1.7c0.2-0.6-2.1-1.2-0.4-1.9
				c-1.9-0.7-0.7-1.4-0.2-2.1c0.8-0.7-1.9-1.5,0.1-2.3c-1.4-0.8,0.4-1.7,0.2-2.6c-1.2-0.9,2.4-1.8,0.4-2.8c1.1,0,1.9-0.2,0.1-0.5
				c-2-0.4,0.2-0.9,0.2-1.5c3.3-0.6,1-1.4,0.3-2.3c-2.2-0.9-1.7-1.9,0.4-2.9c0.9-1.1,0.3-2.2,0.5-3.4c-1.1-1.2,0.9-2.4,0.5-3.6
				c0.5-1.2,0.9-2.5,0.6-3.7c0-1.2,2.8-2.5,0.5-3.6c0-1.2-0.9-2.3,0.5-3.4c0.8-1.1,1-2,0.4-2.9c-0.3-0.9-0.3-1.7,0.3-2.3
				c-0.8-0.6,0.8-1.2,0.2-1.5c-0.7-0.4-0.4-0.5,0.1-0.5h-1.3h-2.8h-2.8h-1.3L186,33C184.9,40,184.8,44.4,187.6,48"/>
			<path class="st0" d="M244.1,0.7h-1.3H240h-2.8h-1.3l-5.4,35.9c-0.6,4.2-1.7,10.8-7.2,17c-6.1,7.1-14,9.9-22.2,10.5
				c1.6,0.1,3.1,0.1,4.5,0.1c2.6,0,5.2-0.2,7.7-0.6c0.8-0.1,1.6-0.3,2.5-0.5c0.4-0.2,1.2-0.4,2.5-0.7c1-0.3,3.1-0.6,2.4-0.9
				c-1-0.3,1.7-0.7,2.3-1.1c1.4-0.4,1.3-0.8,2.3-1.3c-0.2-0.5,2-1,2.2-1.6c0.5-0.6,0.2-1.2,2.1-1.8c1.1-0.6-0.3-1.3,2-2.1
				c-0.6-0.4-0.2-0.8,1.2-1.2c4.8-0.4,2.2-0.8,0.6-1.2c-1.3-0.4,0.4-0.8,1.4-1.2c0.2-0.4,1.3-0.8,0.1-1.2c2.4-0.3,1.5-0.5,2.1-0.8
				c1-0.3,0.3-0.5,0.1-0.8c-0.2-0.3-0.6-0.5-1-0.8c3.2-0.8,1.3-1.5,0.9-2.3c-1.2-0.7,2-1.5,0.7-2.2c1.9-0.7-1-1.4,0.5-2
				c0.4-0.7-4.1-1.3,0.4-1.9c1-0.3,0.8-0.6,1.2-0.9c0.4-0.3-0.9-0.5-0.9-0.8c1.9,0,0.9,0,0.6-0.1c0.5-0.1-0.8-0.2-0.5-0.4
				c-1-0.2,0.2-0.4,0.1-0.6c2-0.2-1.6-0.5,0.2-0.8c2.9-0.3-0.5-0.7,0-1c-1.4-0.4-1.7-0.8,0.4-1.2c-0.1-0.4-0.3-0.9-0.1-1.4
				c-1.2-0.5,0.7-1,0.6-1.5c-0.6-0.5-0.1-1.1,0.4-1.6c0.6-0.6,1.4-1.1,0.1-1.7c1-0.4,1.5-0.8-0.7-1.2c0.3-0.4-1.4-0.8,0.5-1.2
				c-2.1-0.4-1-0.8,0.7-1.2c1.2-0.4-0.2-0.8-0.6-1.3c-0.1-0.4,1.6-0.8,0.8-1.3c1.1-0.4-0.4-0.9,0.3-1.3c0.8-0.6,0.4-1.3,0.2-1.9
				c1.9-0.6-0.8-1.3,0.4-1.9c-2-0.6,2-1.2,0.9-1.9c-0.2-0.6-2.1-1.2-0.3-1.8c1-0.6-0.6-1.2,0.2-1.7c-0.6-0.6-2.2-1.1,0.3-1.6
				c-0.2-0.5,0.3-1,0.3-1.5c0.8-0.5,1.3-0.9,0.1-1.4c0.8-0.4,2.4-0.8,1-1.2c1.2-0.4-1.8-0.7-0.6-1c0.3-0.3,0.1-0.6,0.3-0.8
				c0.2-0.2,0.3-0.5-0.1-0.6C243.5,0.9,243.4,0.7,244.1,0.7"/>
			<path class="st2" d="M223.3,53.7c5.5-6.3,6.5-12.9,7.2-17l5.4-35.9h-6.3L224.8,33c-0.3,2.1-1.4,9.2-4.7,13.2
				c-3.8,4.6-9.6,6.3-13.6,6.3c-1.3,0-2.7-0.2-4.1-0.5c-1.5,0.4-2.9,0.5-4.2,0.5c-3.9,0-8-1.5-10.5-4.6c-2.8-3.5-2.7-8-1.7-15
				l4.8-32.3h-6.3L179,37.5c-1.1,7.3,0.2,12.6,1.8,15.6c4.4,8.4,13.2,10.5,20.2,11C209.3,63.5,217.2,60.7,223.3,53.7"/>
			<path class="st0" d="M255.7,52.3c-3.6-0.9-6.9-2.9-9.4-5.2l-0.7,4.6c2,0.7,4.1,1.2,6.2,1.2C253.2,52.9,254.5,52.6,255.7,52.3"/>
			<path class="st0" d="M279.2,12c0.8,0.2,1.6,0.5,2.3,0.8c0.7,0.3,2.3,0.6,2.1,1c1.3,0.3-0.1,0.7,1.8,1c-0.1,0.3-0.4,0.7,1.4,1
				c0.9,0,0.4-0.5,0.2-1.3c0.4-0.8,2.4-1.9,0.5-3.1c1.7-1.2,3.2-2.5,0.6-3.7c2.7-1.2-0.1-2.3,0.5-3.1c-2.4-0.8-1.3-1.3,0.2-1.3
				c-0.9-0.4-0.7-0.7-2.2-1.1c-0.8-0.3-1.5-0.6-2.3-0.9C281,0.4,277.5,0,274,0c-1.2,0-2.4,0.1-3.6,0.3c3.6,0.4,7,1.4,10.1,3.1
				L279.2,12z"/>
			<path class="st0" d="M281.2,34.1c0.5-0.2-0.4-0.4-1.1-0.6c-0.7-0.2-1.3-0.4,0-0.6c-1.8-0.4-3.9-0.7-1.2-1.1
				c3.2-0.4-3.8-0.7-1.5-1.1c0.9-0.4-0.1-0.8-1.9-1.3c-1.4-0.5-1.1-1-2.6-1.6c-0.3-0.6,1.4-1.3-3.4-2.1c-2-0.5,0.3-1.1-2.3-1.7
				c0.7-0.6-1.1-1.2-1.5-1.8c-2.7-0.6-3.5-1.2-0.7-1.9c-1.8-0.7-2.8-1.4,0-2.1c3.4-0.3-1.1-0.7,0.3-1.2c2.4-0.5,0.4-1.2,0.9-1.8
				c2.8-0.6-0.7-1.3,1.7-1.9c0.7-0.6,1.7-1.1,2.8-1.4c-1.3-0.3-2.7-0.6-4.2-0.6c-8.2,0-9.6,5.5-9.8,6.9c-0.4,2.9,0.9,5.3,4.5,7.4
				c7.8,4.8,9.4,5.7,11.7,8.4c1.9,2.1,3.9,6.3,3.1,12c-1.4,9.6-9.8,16.6-20.7,18c1.4,0.2,2.8,0.3,4.2,0.3c1,0,2,0,2.9-0.1
				c1-0.1,1.9-0.2,2.8-0.4c0.3-0.2,6.6-0.4,2.7-0.6c-0.4-0.2,1-0.5,2.5-0.9c-0.5-0.3,0.1-0.7,2.4-1.1c0.3-0.4-0.5-0.8,2.2-1.3
				c3.8-0.5,0.2-1,2-1.5c0-0.3,0.7-0.5,1.2-0.8c0.6-0.3,1.4-0.6,0.6-0.9c2-0.3,0.2-0.6,1-0.9c1.3-0.3,2.4-0.6,0.6-0.9
				c1.6-0.3-1.2-0.6,0.7-1c1.3-0.3,0.7-0.7,0.7-1c-1-0.3,1.5-0.7,0.7-1.1c1.8-0.4-1.7-0.7,0.4-1.1c0.2-0.4,0.1-0.7,0.8-1.1
				c-2.2-0.4,0.8-0.8,0-1.2c-0.8-0.4-1.5-0.8-0.2-1.2c2.6-0.4,0.1-0.8,0.8-1.2c-1.5-0.5,0-0.9-0.1-1.4c0.6-0.4-1.6-0.9,0.2-1.3
				c1.7-0.4-1.7-0.8,0.5-1.3c0.2-0.4,0-0.8-0.7-1.2c-1.7-0.4-0.7-0.8-1.6-1.1c-0.2-0.4,1.5-0.7,1.1-1.1c1.7-0.3-0.5-0.7-0.1-1
				c-1.3-0.3-1.3-0.6-0.7-0.9c1.5-0.3,1.8-0.6,0.4-0.8c-0.2-0.3-1.3-0.5-1.3-0.7c-0.7-0.2-0.1-0.5,0.2-0.7
				C283.3,34.4,282.9,34.3,281.2,34.1"/>
			<path class="st2" d="M276,46.1c0.8-5.6-1.2-9.9-3.1-12c-2.3-2.7-3.9-3.6-11.7-8.4c-3.6-2.2-4.9-4.5-4.5-7.4
				c0.2-1.4,1.7-6.9,9.8-6.9c1.5,0,2.9,0.2,4.2,0.6c1.1-0.3,2.5-0.6,4-0.6c1.5,0,3,0.2,4.4,0.6l1.3-8.6c-3.1-1.7-6.5-2.6-10.1-3.1
				c-9.8,1.5-18.5,8.8-20,18.5c-0.6,4.1,0.2,7.9,3.2,11.5c2.5,3.1,3.7,3.8,12.3,9c4.2,2.5,4.4,4.8,4.1,6.6c-0.4,2.6-3.1,7-10,7
				c-1.5,0-2.9-0.2-4.3-0.6c-1.1,0.4-2.4,0.6-4,0.6c-2.1,0-4.2-0.4-6.2-1.2l-1.4,9.3c4.7,1.7,8.1,2.6,11.2,3
				C266.2,62.6,274.6,55.7,276,46.1"/>
			<path class="st0" d="M299.1,52.8h8.2c0,0,0-0.3,0.1-0.9c-0.3-0.6,1-1.4,0.3-2.3c0-1,3.3-2,0.5-3.2c-0.7-1.1-0.7-2.3,0.5-3.5
				c-0.2-1.1-1.1-2.2,0.5-3.2c0.1-1,0.3-1.8,0.3-2.3c0.1-0.6,0.1-0.9,0.1-0.9h-8.2L299.1,52.8z"/>
			<path class="st0" d="M338.8,11.5c2.6,0,0.6-0.4,0.2-1.1c0.5-0.7,1.6-1.6,0.4-2.7c-1.5-1,3.3-2.2,0.5-3.2c-3-1-0.7-2,0.4-2.7
				c-0.3-0.7,0.2-1.1,0.2-1.1h-8.2l-1.6,10.8h4.1h2.8H338.8z"/>
			<path class="st0" d="M305.3,11.5l-2.1,14.1h8.2c0,0,0.1-0.4,0.2-1c-0.1-0.7-1.2-1.6,0.4-2.6c-2.3-1-0.5-2.2,0.5-3.4
				c2.8-1.2-2.9-2.4,0.5-3.4c4-1-0.8-2,0.4-2.6c0.1-0.7,0.2-1,0.2-1H305.3z"/>
			<path class="st0" d="M334,36.4c-1.5,0,2.9-0.4,0.2-1.1c-2.8-0.7,1.8-1.6,0.4-2.7c-0.6-1-0.6-2.2,0.5-3.2c-1.4-1,1-2,0.4-2.7
				c-1.7-0.7-0.4-1.1,0.2-1.1h-1.3h-2.8h-2.8h-1.3l-1.6,10.8h4.1h2.8H334z"/>
			<polygon class="st2" points="305.3,11.5 313.6,11.5 330.5,11.5 332.1,0.7 300.7,0.7 291.3,63.5 323.2,63.5 324.8,52.8 
				307.4,52.8 299.1,52.8 301.6,36.4 309.8,36.4 325.8,36.4 327.4,25.7 311.4,25.7 303.2,25.7 			"/>
			<path class="st0" d="M14.8,59l3.9,4.6c0,0,0.1-0.1,0.3-0.4c0.2-0.2,0.6-0.6,1-1c3.1-0.4,0.2-1,1.5-1.6c1.9-0.6,4.1-1.3,1.9-2.1
				c1.9-0.8-0.1-1.6,2.3-2.4c1.9-0.9,2.9-1.8,2.5-2.7c2.4-0.9,3.9-1.9,2.7-2.8c1.4-1-1.1-1.9,2.7-2.9c1.4-1,0.2-1.9,2.7-2.8
				c1-0.5,1.7-0.9,2.1-1.4c0-0.4,0.6-0.9,0.5-1.3c0.5-0.9,0.7-1.7,2.3-2.4c-2.7-0.8,1.3-1.4,1.9-2.1c-1-0.6,1.4-1.2,1.5-1.6
				c0.4-0.4,0.8-0.8,1-1c0.2-0.2,0.3-0.4,0.3-0.4l1.6-10.4L14.8,59z"/>
			<path class="st0" d="M71.9,13.5c0,0,0.1-0.4,0.1-0.9c-1-0.6,0.2-1.4,0.4-2.4c0.9-0.9,3.2-2,0.5-3.1C78.4,6,71.8,5,73.3,4
				c0.2-0.9,1.1-1.8,0.4-2.4c1.1-0.6,2.4-0.9,0.1-0.9h-1.3h-2.8h-4.1l-3.5,23.1L71.9,13.5z"/>
			<path class="st0" d="M51.4,53.4l-1.5,10.2l0.2-0.2l0,0.2c0,0,0.1-0.1,0.3-0.3c0.2-0.2,0.8-0.5,0.8-0.8c-1-0.4,2.4-0.8,1.2-1.3
				c0.3-0.5,1.1-1.1,1.6-1.7c0.2-0.6-1.2-1.3,1.9-2c0.3-0.7,2.6-1.5,2.2-2.3c-0.7-0.8-0.3-1.6,2.3-2.5c0.2-0.8,0.3-1.7,2.4-2.6
				c-0.1-0.9,2-1.7,2.5-2.6c2.3-0.9,2.4-1.7,2.4-2.5c1.1-0.5-2.5-0.9,1.2-1.4c1.9-0.4,0.1-0.9,1.3-1.3c0.7-0.4,0.8-0.8,1-1.2
				c0-0.4,0.1-0.8,1.3-1.2c0.6-0.4,1.2-0.7,1.7-1.1c0.4-0.3,0.6-0.7,0.3-1c1.7-0.6,2.6-1.2,1.5-1.6c0.4-0.4,0.8-0.8,1-1
				c0.2-0.2,0.3-0.4,0.3-0.4l1.6-10.4L51.4,53.4z"/>
			<path class="st0" d="M96.9,0.7l-9.4,62.8h4.1h2.8h1.3c-0.4,0,0.1-0.3,0.1-0.8c0.2-0.5-0.5-1.2,0.3-2c2-0.8,1.9-1.8,0.4-2.9
				c-0.7-1.1,0.8-2.3,0.5-3.5c2.3-1.2,2.4-2.4,0.5-3.6c1.9-1.2,1.7-2.4,0.5-3.5c-1.3-1.1,1.6-2.1,1.6-2.9c1.3-0.8-2-1.5-0.8-2
				c0.2-0.5,2.9-0.8,3.1-0.8c-2.6,0-3.9-0.3-1.4-0.8c-0.3-0.5-1.2-1.3-0.4-2.1c2.1-0.9,0.4-1.9-0.3-3c0-1.1,1.1-2.3,1.3-3.5
				c1-1.2-0.5-2.4-0.2-3.5c1.6-1.1,0-2.1,0.5-3c0.4-0.9,2.3-1.6,0.3-2.1c1.2-0.5,1.2-0.8,0.1-0.8c2.8,0,1-0.3,0.1-0.8
				c1.1-0.5-0.5-1.2,0.3-2c3.7-0.8,0.3-1.8,0.4-2.9c0.2-1.1-0.3-2.3,0.5-3.5c2-1.2,1.8-2.4,0.5-3.6c2.5-1.2-2.6-2.4,0.5-3.5
				c0.5-1.1,1.5-2.1,0.4-2.9c-0.5-0.8-2.2-1.5,0.3-2c0.1-0.5,0.1-0.8,0.1-0.8H96.9z"/>
			<polygon class="st2" points="92.2,0.7 70.3,23.8 71.9,13.5 62.1,23.8 65.6,0.7 60.8,0.7 10.5,54 14.8,59 47.5,24.3 46,34.7 
				55.8,24.3 51.4,53.4 78.9,24.3 77.3,34.7 87.1,24.3 81.2,63.5 87.5,63.5 96.9,0.7 			"/>
		</g>
	</g>
</g>
</svg>
