<svg id="Layer_1" data-name="Layer 1" xmlns="http://www.w3.org/2000/svg" viewBox="0 0 274.13 288"><defs><style>.cls-1{fill:#f6911e;fill-rule:evenodd;}.cls-2{fill:#232020;}</style></defs><title>Logo_Beethoven_corto_01_RGB</title><path class="cls-1" d="M29.79,182.85C59.51,193.44,153.85,186,150.1,136c-.78-10.43-18-31.29-31-18.82-8.35,8,17.1,22.25-3.67,31.45-9.13,4-24.52-6.5-23-18.2,2.26-17.07,29.88-27.8,41.78-26.13,19.68,2.76,30.79,21.4,30.26,38.51C162.47,206.81,62.51,202.72,29.79,182.85Z"/><path class="cls-1" d="M184.49,129.37a7.82,7.82,0,1,1-7.82-7.82A7.82,7.82,0,0,1,184.49,129.37Z"/><path class="cls-1" d="M184.49,158.06a7.82,7.82,0,1,1-7.82-7.82A7.82,7.82,0,0,1,184.49,158.06Z"/><path class="cls-1" d="M63.08,48.21s42.92,88.85,34.21,198c0,0-14-132-42.47-177S63.08,48.21,63.08,48.21Z"/><path class="cls-2" d="M208.14,111.39v22.87a21.93,21.93,0,0,1,6.77-4.71A19.6,19.6,0,0,1,222.7,128,20.1,20.1,0,0,1,238,134.81q6.32,6.81,6.31,17.48a24.11,24.11,0,0,1-6.52,17.21,20.53,20.53,0,0,1-15.45,6.93A19.25,19.25,0,0,1,215,175a22.59,22.59,0,0,1-6.82-4.64v4.87H196.66V111.39Zm12.15,27.27a12.08,12.08,0,0,0-9.06,3.72,13.45,13.45,0,0,0-3.6,9.74,13.8,13.8,0,0,0,3.6,9.93,12,12,0,0,0,9.06,3.79A11.73,11.73,0,0,0,229.2,162a15.11,15.11,0,0,0,.07-19.54A11.78,11.78,0,0,0,220.29,138.66Z"/></svg>