<svg version="1.1" id="Layer_1" xmlns="http://www.w3.org/2000/svg" x="0" y="0" viewBox="0 0 335.2 66.2" xml:space="preserve"><style>.st0{fill:#fd0001}.st2{fill:#231f20}</style><g id="Mouse_Anaglyph_1_"><path class="st0" d="M328 66.1c2.8.6-2.6-2.3-1.4-3 3.3-.7.3-2.9-.3-3.9.3-1 3.6-1.4-.3-2.4.8-1 3-.9 1.3-1.5-3.1-.7.5-1.1.4-1.3-.3-.4-1.3-.7-1.4-.7-.3 0-6-1.5-17.4-1.5-4 0-20.1 10.6-12.3 10.6 7.7.1 31.4 3.7 31.4 3.7"/><path d="M141.5 11.7c-1.5 0-2.9.1-4.3.4.8.2 1.5.4 2.3.7.7.3 1.4.6 2 1 0 .4 1.6.8 1.8 1.3-.2.5-.9 1 1.6 1.6 1.4.6 2.5 1.2 1.3 1.9 2.4.7 1.5 1.4 1 2.1-2.9.7 2.8 1.5.7 2.4-.9.8.1 1.7.4 2.6 1.3.9-1.4 1.8.1 2.8-.6 1-2.7 2-.3 3 0 .9-1.6 1.9-.5 2.8.2.9-2 1.8-.8 2.6-.4.8 1.4 1.6-1 2.4-3.3.8-3.5 1.5-1.2 2.2-1.2.7-.4 1.4-1.4 2-1.3.6.8 1.3-1.6 1.8 0 .6-1.1 1.1-1.8 1.6-.6.5-1.3 1-1.9 1.4-2 1.3-4.2 2.2-6.6 2.7 1.2.3 2.6.4 4 .4 10.5 0 19.2-8 21-20 1.7-11.9-4.6-19.7-14.8-19.7m-36 19.9c2-13.5 13.7-29.4 32.9-31.4-1.3-.1-2.7-.2-4.1-.2-3 0-5.9.3-8.5.9-.9.2-1.8.4-2.6.7-.7.3-4.3.6-2.5.9 1.4.3-.1.7-2.4 1-2.5.4-1 .8-2.3 1.2-4.2.4-.6.9-2.1 1.3.2.5-1.6 1-2 1.5.1.5-.8 1-1.9 1.6-1.7.5-3.1 1.1-1.8 1.7.6.6-1.6 1.2-1.7 1.8-1.3.6-.3 1.2-1.5 1.8-1.7.6-.5 1.3-1.4 1.9.2.6-.2 1.3-1.3 2 1.1.7.9 1.3-1.1 2-2.6.7-.3 1.4-1 2 .3 0-3.2.3-.1.8-1.5.5-.3 1.2-2.5 2.1 3 .9 1.5 1.9 1 3-3.8 1.1 4 2.3.2 3.4-1 .4-1.2.8-1 1.2-.8.4.9.8.9 1.1-.8.4-.3.7-.5 1.1-.3.5 2 1.1.6 1.6 1.2.5-.8 1-1.1 1.4-.1.4 1.3.8 0 1.2-.1.4 1.2.7-.3.9 1 .3-.9.5-.6.6-.8.1-1.1.2.5.2.1.4-2.4.8.1 1.2-.5.4.9.8.3 1.2-1.4.4-1.2.8-.1 1.2-.6.4.5.8.7 1.1.5.4.4.8.3 1.1-.1.4-.1.7.5 1.1.7.7 3.6 1.4 1 2.1-2.3.7 1.3 1.4 1.3 2-.1.7.4 1.3 1.5 1.9 3.6.6 5.1 1.2 1.7 1.8 1.3.6 3.9 1.1 1.9 1.6-.3.5 1.2 1 2.1 1.5-1.6.5 3.1.9 2.3 1.3 1.7.4 1.8.8 2.5 1.1l2.7.9c2.8.8 5.9 1.2 9.4 1.2 1.4 0 2.8-.1 4.1-.2-18.7-1.9-26.2-17.1-24.1-31.4m72.4 20.7c-1.6-2.9-2.9-8.1-1.8-15.3L181.5.8h-8.2c.3 0 .3.3-.1.8.9.5-1.4 1.3-.3 2.2-.2.9-.6 2-.5 3.1-2.7 1.1-.4 2.4-.5 3.6-1.9 1.2-1.4 2.4-.5 3.6 1.6 1.1-1.9 2.2-.5 3.1-.7.9.7 1.7-.3 2.2 1.5.5 2.6.8-.1.8-.2.7 3.8 1.5.2 2.3.3.8.5 1.5-.4 2.3-1.5.8-1.3 1.5-.7 2.3.6.8.2 1.5-.7 2.3 2.6.8-1 1.5-.5 2.2 2.8.7-1.8 1.4-.1 2.1-1.5.7.9 1.4.1 2.1-.4.7-.6 1.4.1 2.1 2.2.7-3.4 1.4-.2 2.1-2.4.7-.3 1.4-.7 2.1-1.1.9.4 1.8.1 2.6-2.6.8 1.8 1.6.3 2.3.5.7-1 1.4.5 2.1-1.2.6.1 1.2.6 1.8-1.8.5 1.2 1 .7 1.5 0 .9-.3 1.8 1.6 2.5 2.7.8.6 1.5 1.9 2.1 2.7.6-.2 1.2 2.1 1.7 2.1.5 2.4 1 2.3 1.4.9.4 1.8.8 2.4 1.1.8.3 1.6.6 2.5.8 4.1 1.1 8.3 1.3 11.6 1.3 1.2 0 2.5 0 3.7-.1-7-.6-15.6-2.6-20-10.9m38.6-6.8c3.3-3.9 4.3-11 4.6-13L225.8.8h-8.1c-.5 0 .6.2-.1.5-1.4.3-.4.9-.2 1.5-.4.6-1.4 1.3-.3 2.2-1.6.9-.7 1.8-.4 2.9-.7 1 .7 2.2-.5 3.3 1.8 1.2.2 2.4-.5 3.6.7 1.2-1.5 2.4-.5 3.7-1 1.2 1.4 2.4-.5 3.6-.9 1.2.1 2.3-.5 3.3s.5 2-.4 2.9c-.6.9-.1 1.6-.3 2.3 2.5.6-2.1 1.1-.2 1.5 1.5.3-.2.5-.1.5-.3.3.4.8-.2 1.4 1.3.6 0 1.3-.4 2-3.1.7.1 1.6-.6 2.4.2.8 1.7 1.7-.8 2.5-.3.9-1.5 1.7-1.1 2.5-2.2.8-2.2 1.5-1.5 2.2-1.9.6-.3 1.2-1.6 1.7-1.7.5-1.2 1-1.8 1.4-1.9 1.3-3.9 2.1-5.9 2.6 1.3.4 2.7.5 4 .5 3.8-.1 9.5-1.8 13.2-6.3m49.8-33.8c3.3.9 6.1 2.5 7.8 3.8l.6-3.8c-1.4-.4-2.8-.6-4.4-.6-1.5 0-2.9.3-4 .6m-24.8 39.1c-1.4-.5-2.7-1.2-4-2-.6-.4-.9-.8-1.8-1.2-.6-.4-1.1-.9-1.6-1.4 0 0-.1.4-.2 1 .2.6.3 1.5-.4 2.5-.5 1 .6 2.2-.5 3.3-1.2 1.1-1.2 2.3-.5 3.3.9 1-3.8 1.9-.4 2.5-1.2.6-.9 1-.2 1 0 .3 2.3.7 2.7.9-.4.3 2.1.5 2.4.8.8.2 1.5.4 2.2.6 2.8.7 5.2.9 7.8.9 1.4 0 2.7-.1 4-.3-3.1-.4-6.4-1.3-11-3l1.5-8.9zm24.1-5.7c.3-1.8.2-4-4-6.5-8.4-5.1-9.6-5.8-12.1-8.8-2.9-3.6-3.7-7.3-3.1-11.3C247.8 9 256.4 1.8 266 .3c-1.5-.2-3-.3-4.6-.3-3.4 0-6.8.7-9.8 2.1-.8.3-1.5.7-2.2 1.1-1.4.4-.3.8-2.1 1.3-.5.5-.7 1-1.9 1.5-.4.5-1.6 1.1-1.8 1.7-.1.6-3.6 1.2-1.6 1.9-1.4.6-1.4 1.3-1.3 2-5.1.7-.5 1.4-1.1 2.2-2 .7-3.5 1.5-.8 2.3.5.8 1.5 1.6-.5 2.4 1.6.8-1 1.6-.2 2.4.7.8-1.9 1.6.2 2.3-1.1.8.6 1.5.6 2.3 1.4.7-1.1 1.5 1 2.2-.8.7.4 1.4 1.5 2.2 2.1.5 3.1.9 1.2 1.4.8.4-.7.8 1.2 1.2 1.1.4-.2.7 1.4 1.1.5.4-1.5.8 1.9 1.3 1.4.5 2.1 1 2.7 1.7 1.2.6.5 1.4 3.6 2.2-.6.6 2.5 1.2 2.4 1.8-1 .6 2.6 1.2 1.2 1.7.3.5-2 1.1.4 1.6-.6.5-2.1 1-.1 1.4 1.9.5 2.9 1.1-.5 1.7-.1.6.6 1.2-1.1 1.8 1.2.6.2 1.1-1.8 1.6-.7.5-1.6.9-2.6 1.2 1.4.4 2.8.6 4.2.6 7-.2 9.7-4.5 10.1-7.1M287.7.7V1c0 .2-.1.5-.1.9.3.4 1.1.9-.2 1.4-.9.6.8 1.2-.3 1.9 1.8.7 1.6 1.5-.4 2.4-.9.8 3.7 1.8-.4 2.7-1 1-2.7 2-.5 3-.1 1.1-1.6 2.2-.5 3.3.5.6.4 1.2.1 1.7-.2.6 0 1.2-.7 1.8-.2 1.1-.1 2.3-.5 3.5-1.6 1.2 2.6 2.4-.5 3.6 1 1.2-.1 2.4-.5 3.6.4 1.2-1.7 2.4-.5 3.6.5 1.2-1 2.4-.5 3.6-2 1.2-2.3 2.4-.5 3.5 1.5 1.1 2.1 2.3-.5 3.4 1.5 1.1-2.3 2.2-.5 3.2 1.3 1-.6 2-.4 3 1.4 1 .9 1.9-.4 2.7-1.9.9-1.7 1.7-.4 2.4-.2.8-1.2 1.5-.3 2.1.7.6-.7 1.2-.3 1.7-1.4.5-2.2.9-.2 1.3 1.6.3.1.6-.1.8-.4.2 1.7.3 0 .3h8.2L296 .6h-8.3zM76.1 34.1s0 .2-.1.7c-.1.4.1 1-.3 1.8-.5.8-1.1 1.7-.4 2.7 0 .5-.2 1.1-.3 1.6-.1.6-.3 1.1-.2 1.7-1.6.4.4.8 0 1.2.2.4.4.8.4 1.2 0 .4-.2.8-1 1.3-.2 1.4.8 2.7-.5 3.9-2.2 1.3.7 2.5-.6 3.7-1.8 1.2 1.6 2.3-.5 3.4-4.5 1 1.6 1.9-.4 2.7.1.8-.6 1.4-.3 1.8.9.4.9.7-.1.7H80l5.8-38.6-9.7 10.2zM90.7.7h-8.2c.4 0 0 .3-.7.7-.3.2-.3.5-.7.8-1.5.3-2 .6-1 1 3 .4-1.2.8-1.1 1.2-.9.4-2.4.8-1.1 1.3-.7.4-1 .9-1.7 1.3s-1.3.9-.8 1.3c-.3.9-1.1 1.7-2.3 2.4-1.4.7-1.4 1.4-1.7 1.8l-.7.7-1.5 10.2L90.7.7zM59.8.7h-8.1c-3 0 2.2.1-.2.2-3.2.1-1.2.3-.6.6 3.1.3 0 .6-.9 1-2.2.4-1.8.8-1.2 1.3-.6.2-.4.5-.4.8 0 .3-.1.6-1.1.8.8.3.7.6.5 1 .4.3-1.3.6-2.4 1-.2.3-1.1.7-1 1 .5.4-2.5.7-1 1.1-3.1.3-.2.7-1 1-.9.3-1.6.7-.9 1-.1.3-.2.7-1.7 1.1-.3.4-.3.7-.3 1.1-2.4.7-3.1 1.5-2.1 2.3-1 .8.3 1.6-2.2 2.4-1.8.8-1.9 1.6-2.3 2.4-.1.4-.5.8-1 1.2-.5.4-1 .8-1.4 1.3-.3.9-1.2 1.8-2.5 2.7-2.1.9-1.2 1.8-2.5 2.7-2.4.9-1.5 1.8-2.5 2.7.7.9-3 1.8-2.5 2.6.6.9-2.9 1.7-2.4 2.6-3.1.8-.7 1.7-2.3 2.5-.2.2-.5.4-.7.6-.2.2-.3.4-.7.6-.4.2-.3.4-.5.6.5.2-2.6.4-.3.6.8.2-1.2.4-.4.6-2 .2 0 .4-.7.6.7.2-1.8.4-.5.6-1.5.2 1 .4-.5.5.7.5.3.9-.7 1.4-1.6.4-2.3.9-1.8 1.3-2.4.4-1.7.8-1.8 1.2-.1.4-3.3.8-.4 1.1 2.3.4.5.7-1 1-.2.3-2.9.6-2.7.9-.8.3-1.6.5-1.2.8-.1.2-.1.5-.1.7 0 .4.3.7-.9.9.1.2-.5.3-.3.3-1 0 .3.4.8 1 2.1 2.4 9.1 8.4 9.1 8.4l4.2-4.5-4.2-4.9L59.8.7zM45.2 34.1s-.1.9-.4 2.5c-.1.8 1.1 1.7-.4 2.7-.2 1 .6 2.2-.5 3.4.3 1.2.4 2.5-.6 3.7-.5 1.3 0 2.6-.6 3.9-3.9 1.3-5.9 2.5-.6 3.7-.9 1.2-1.5 2.3-.5 3.4-1.7 1-2.2 1.9-.4 2.7-.1.8-.2 1.4-.3 1.8.1.4.1.6.1.6l.2-.2v.2l9.5-10L55 23.9l-9.8 10.2z" fill="#0ff"/><path class="st0" d="M120.2 31.8c-.9-.7 2.4-1.5.4-2.3-2.1-.8.4-1.5.7-2.3-.6-.8-.7-1.5.9-2.3 1.1-.8-.1-1.5 1.1-2.2 2.4-.7-.2-1.4 1.3-2.1-1.3-.7.9-1.4 1.5-2-1.4-.6-.1-1.2 1.8-1.8 2.2-.6-.1-1.1 2-1.6.6-.5.8-1 2.2-1.4.8-.4 1.6-.8 2.5-1.1.9-.3 1.8-.6 2.7-.7-1.2-.3-2.5-.4-3.9-.4-13.1 0-19.9 10.9-21.3 20.2-1.5 10 3.3 19.5 15 19.5 1.4 0 2.8-.1 4.1-.4-1.8-.4-3.3-1-4.6-1.9-.7-.4-1.3-.9-1.9-1.4.1-.5-.4-1.1-1.5-1.7-2.4-.6-1.3-1.3-1.2-2 2.5-.7-.9-1.4-.9-2.2-4.1-.7 0-1.5-.6-2.3 1.4-.8-2.1-1.6-.3-2.5.2-.8.1-1.7 0-2.6-.2-.7-2.4-1.6 0-2.5"/><path class="st2" d="M162.8 31.5c2-13.4-4.5-29.3-24.3-31.3-19.2 1.9-30.9 17.8-33 31.4-2.1 14.4 5.3 29.6 24.1 31.5 19.8-2 31.2-18 33.2-31.6m-27.6 19.9c-1.4 0-2.8-.1-4-.4-1.3.3-2.7.4-4.1.4-11.7 0-16.5-9.5-15-19.5 1.4-9.3 8.2-20.2 21.3-20.2 1.4 0 2.6.1 3.9.4 1.3-.3 2.8-.4 4.3-.4 10.2 0 16.5 7.8 14.7 19.7-1.9 11.9-10.6 20-21.1 20"/><path class="st0" d="M170.5 20.1c2.7-.7 2.5-1.4-.6-2.1 3.2-.7-1.3-1.4-.7-2.1.3-.7 2-1.4-.9-2 .5-.7 4.3-1.3-1.1-1.9-1.2-.6-1.9-1.2-1.3-1.8-.7-.6-.9-1.2-1.5-1.7-2.6-.6 1.2-1.1-1.6-1.6-1.6-.5-1.7-1-1.8-1.5-2.9-.5 1.3-.9-2-1.3-3.6-.4-3.4-.8-2.2-1.2-.5-.4 1.1-.7-2.4-1 .3-.3 1.7-.6-2.6-.8-.9-.2-1.9-.4-2.9-.6-2-.3-4.1-.5-6.4-.5-1.4 0-2.7.1-4 .2 19.8 1.9 26.3 17.9 24.3 31.3-2 13.6-13.4 29.6-33.1 31.5 1.3.1 2.6.2 4 .2 4.2 0 8.1-.6 11.7-1.7.9-.3 1.8-.6 2.6-.9.4-.3 1.2-.7 2.5-1.1 3.4-.4 1.7-.8 2.3-1.3 1.4-.4 2.3-.9 2.2-1.4 1.5-.5 1.5-1 2.1-1.5 1-.5 3.7-1.1 1.9-1.6-2.2-.6-.3-1.2 1.8-1.8 1.5-.6 3.8-1.2 1.7-1.8.8-.6-1-1.3 1.5-1.9.7-.7 4.7-1.3 1.4-2 4.5-.7-1.7-1.4 1.2-2 3.1-.7 2.3-1.4 1.1-2.1 1.7-.7 2.1-1.4.9-2.1.4-.7 1.2-1.4.8-2.1-.7-.7 1-1.4.7-2.1.9-.7-1.9-1.4.5-2.1 3-.7-1-1.4.4-2.1 1.5-.7-2.5-1.5.3-2.2 1.7-.8-.7-1.5.1-2.3.2-.8 1.3-1.5-.1-2.3 1.3-.8.5-1.5-.2-2.3.7-.9 1.7-1.6-.6-2.4m14.1 27.1c2.5 3.1 6.5 4.5 10.4 4.5 1.2 0 2.7-.2 4.1-.5-1.2-.3-2.4-.8-3.5-1.5-.5-.3-.4-.7-1.5-1.1 0-.4-1.5-.9-1.3-1.4-.3-.5-.3-1-1-1.5-.9-.5 1.5-1.1-.7-1.7.2-.6-2-1.2-.4-1.9-1.9-.6-.7-1.3-.2-2 .8-.7-1.8-1.5.1-2.3-1.4-.8.4-1.6.2-2.5-1.2-.9 2.3-1.8.4-2.8 1.1 0 1.9-.2.1-.5-2-.3.2-.9.2-1.5 3.3-.6 1-1.4.3-2.3-2.2-.9-1.7-1.8.4-2.9.9-1 .3-2.2.5-3.3-1.1-1.2.9-2.4.5-3.6.5-1.2.9-2.4.5-3.7 0-1.2 2.8-2.4.5-3.6 0-1.2-.9-2.3.5-3.3.8-1 1-2 .4-2.9-.2-.9-.3-1.6.3-2.3-.8-.6.8-1.1.2-1.5-.7-.3-.4-.5.1-.5h-8L183 32.3c-1.1 7-1.2 11.4 1.6 14.9M240.1.7H232L226.7 36c-.6 4.1-1.7 10.6-7.1 16.8-6 7-13.8 9.7-21.8 10.3 1.6.1 3.1.1 4.4.1 2.6 0 5.1-.2 7.6-.6.8-.1 1.5-.3 2.5-.5.4-.2 1.2-.4 2.4-.7.9-.3 3-.6 2.4-.9-1-.3 1.7-.7 2.3-1.1 1.3-.4 1.2-.8 2.2-1.3-.2-.5 2-1 2.1-1.5.5-.6.2-1.1 2-1.8 1.1-.6-.3-1.3 1.9-2.1-.6-.4-.2-.8 1.2-1.2 4.8-.4 2.1-.8.6-1.2-1.3-.4.4-.8 1.3-1.2.2-.4 1.3-.8.1-1.2 2.4-.3 1.5-.5 2-.8.9-.3.3-.5.1-.8-.2-.3-.6-.5-1-.8 3.2-.8 1.3-1.5.9-2.2-1.2-.7 2-1.4.7-2.1 1.9-.7-.9-1.4.5-2 .4-.6-4-1.3.3-1.8 1-.3.8-.6 1.1-.8.4-.3-.9-.5-.9-.8 1.9 0 .9 0 .6-.1.5-.1-.7-.2-.5-.4-1-.2.2-.4.1-.6 2-.2-1.5-.5.2-.8 2.9-.3-.5-.6 0-1-1.4-.4-1.7-.8.4-1.2-.1-.4-.3-.9-.1-1.3-1.2-.5.7-1 .6-1.5-.6-.5-.1-1 .3-1.6.6-.6 1.4-1.1.1-1.7 1-.4 1.4-.8-.7-1.2.3-.4-1.3-.8.5-1.2-2.1-.4-1-.8.7-1.2 1.2-.4-.2-.8-.6-1.2-.1-.4 1.6-.8.8-1.3 1.1-.4-.4-.8.3-1.3.8-.6.4-1.3.2-1.9 1.9-.6-.8-1.3.4-1.9-2-.6 1.9-1.2.9-1.8-.2-.6-2-1.2-.3-1.8 1-.6-.6-1.1.2-1.7-.6-.6-2.2-1.1.3-1.6-.2-.5.3-1 .3-1.5.8-.5 1.3-.9.1-1.3.7-.4 2.4-.8 1-1.2 1.2-.4-1.8-.7-.6-1 .3-.3.1-.6.3-.8.2-.2.2-.4-.1-.6-.4-.2-.5-.4.2-.4"/><path class="st2" d="M219.7 52.8c5.4-6.2 6.4-12.7 7.1-16.8L232 .7h-6.2l-4.7 31.7c-.3 2.1-1.4 9.1-4.6 13-3.7 4.5-9.4 6.2-13.4 6.2-1.3 0-2.7-.2-4-.5-1.5.4-2.9.5-4.1.5-3.8 0-7.9-1.4-10.4-4.5-2.8-3.5-2.7-7.8-1.6-14.7L187.7.7h-6.2l-5.4 36.2c-1.1 7.2.2 12.4 1.8 15.3 4.4 8.3 13 10.4 19.9 10.8 8.1-.5 15.9-3.2 21.9-10.2"/><path class="st0" d="M251.5 51.4c-3.5-.9-6.8-2.8-9.3-5.1l-.7 4.6c1.9.7 4 1.1 6.1 1.1 1.5 0 2.8-.2 3.9-.6m23.2-39.6c.8.2 1.6.5 2.3.8.7.3 2.2.6 2.1 1 1.2.3-.1.7 1.8 1-.1.3-.4.7 1.4 1 .9 0 .4-.5.2-1.3.4-.8 2.4-1.9.5-3 1.7-1.2 3.2-2.4.5-3.6 2.6-1.2-.1-2.2.5-3-2.4-.8-1.3-1.3.2-1.3-.9-.4-.7-.7-2.2-1-.8-.3-1.5-.6-2.3-.8-3.1-1-6.5-1.4-10-1.4-1.2 0-2.4.1-3.6.3 3.5.4 6.9 1.4 9.9 3l-1.3 8.3zm1.9 21.7c.5-.2-.4-.4-1.1-.6-.7-.2-1.2-.4 0-.6-1.8-.4-3.8-.7-1.2-1.1 3.1-.4-3.8-.7-1.4-1.1.9-.4-.1-.8-1.9-1.3-1.4-.5-1.1-1-2.5-1.6-.3-.6 1.3-1.3-3.4-2.1-1.9-.5.3-1.1-2.2-1.6.7-.6-1.1-1.1-1.5-1.7-2.6-.6-3.4-1.2-.7-1.9-1.7-.7-2.7-1.3 0-2 3.3-.3-1-.7.3-1.2 2.4-.5.4-1.1.9-1.8 2.7-.6-.7-1.3 1.7-1.8.7-.6 1.7-1.1 2.8-1.4-1.3-.3-2.7-.5-4.1-.5-8 0-9.5 5.4-9.7 6.8-.4 2.9.9 5.2 4.4 7.3 7.7 4.7 9.2 5.6 11.5 8.3 1.8 2.1 3.9 6.2 3.1 11.8-1.4 9.5-9.7 16.3-20.4 17.7 1.4.2 2.7.3 4.1.3 1 0 1.9 0 2.9-.1.9-.1 1.9-.2 2.8-.4.3-.2 6.5-.4 2.6-.6-.4-.2 1-.5 2.5-.8-.5-.3.1-.7 2.3-1.1.3-.4-.5-.8 2.2-1.3 3.7-.5.2-.9 2-1.5 0-.3.7-.5 1.2-.8.6-.3 1.4-.6.6-.8 2-.3.2-.6 1-.9 1.3-.3 2.4-.6.6-.9 1.6-.3-1.2-.6.6-1 1.3-.3.7-.7.7-1-1-.3 1.5-.7.7-1 1.8-.4-1.6-.7.4-1.1.2-.4.1-.7.8-1.1-2.2-.4.8-.8 0-1.1-.8-.4-1.5-.8-.2-1.2 2.5-.4.1-.8.7-1.2-1.5-.5 0-.9-.1-1.4.6-.4-1.5-.9.2-1.3s-1.6-.8.5-1.2c.2-.4 0-.8-.7-1.2-1.7-.4-.7-.7-1.6-1.1-.2-.4 1.5-.7 1.1-1 1.7-.3-.5-.7-.1-1-1.3-.3-1.3-.6-.7-.9 1.5-.3 1.8-.6.4-.8-.2-.3-1.3-.5-1.3-.7-.7-.2-.1-.4.2-.6 1.1-.4.7-.6-1-.8"/><path class="st2" d="M271.5 45.3c.8-5.5-1.2-9.7-3.1-11.8-2.3-2.7-3.8-3.6-11.5-8.3-3.5-2.1-4.9-4.5-4.4-7.3.2-1.3 1.6-6.8 9.7-6.8 1.4 0 2.8.2 4.1.5 1.1-.3 2.4-.5 4-.5 1.5 0 3 .2 4.4.6l1.3-8.5c-3-1.6-6.4-2.6-9.9-3-9.7 1.4-18.2 8.6-19.6 18.2-.6 4 .2 7.8 3.1 11.3 2.5 3 3.6 3.7 12.1 8.8 4.2 2.5 4.3 4.7 4 6.5-.4 2.6-3.1 6.9-9.9 6.9-1.4 0-2.8-.2-4.2-.6-1.1.4-2.4.6-3.9.6-2.1 0-4.1-.4-6.1-1.1l-1.4 9.2c4.6 1.7 7.9 2.6 11 3 10.7-1.4 18.9-8.2 20.3-17.7"/><path class="st0" d="M294.3 51.9h8.1s0-.3.1-.9c-.3-.6 1-1.4.3-2.3 0-.9 3.3-2 .5-3.1-.7-1.1-.7-2.3.5-3.4-.2-1.1-1.1-2.2.5-3.1.1-.9.3-1.7.3-2.3.1-.6.1-.9.1-.9h-8.1l-2.3 16zm39-40.6c2.5 0 .5-.4.2-1.1.5-.7 1.6-1.6.4-2.6-1.5-1 3.3-2.1.5-3.1-2.9-1-.7-2 .4-2.6-.3-.7.2-1.1.2-1.1h-8.1l-1.6 10.6h8zm-32.9 0l-2.1 13.9h8.1s.1-.4.2-1c-.1-.6-1.2-1.5.4-2.6-2.3-1-.5-2.2.5-3.3 2.8-1.2-2.8-2.3.5-3.3 3.9-1-.8-1.9.4-2.6.1-.6.2-1 .2-1h-8.2zm28.2 24.6c-1.5 0 2.8-.4.2-1.1-2.7-.7 1.8-1.6.4-2.6-.6-1-.6-2.1.5-3.1-1.3-1 1-2 .4-2.6-1.7-.7-.4-1.1.2-1.1h-8.2L320.5 36h8.1z"/><path class="st2" d="M300.4 11.3h24.7L326.7.7h-30.9l-9.3 61.8h31.4l1.6-10.6h-25.2l2.4-16h23.8l1.6-10.7h-23.8z"/><path class="st0" d="M14.5 58l3.9 4.5s.1-.1.3-.4c.2-.2.5-.6 1-1 3.1-.4.2-1 1.5-1.6 1.9-.6 4-1.3 1.9-2 1.9-.7-.1-1.5 2.3-2.4 1.8-.8 2.8-1.7 2.5-2.6 2.3-.9 3.9-1.8 2.6-2.8 1.4-.9-1-1.9 2.7-2.8 1.4-.9.2-1.9 2.6-2.8 1-.5 1.6-.9 2-1.3 0-.4.5-.9.4-1.3.4-.8.7-1.6 2.3-2.4-2.7-.7 1.3-1.4 1.9-2-1-.6 1.4-1.1 1.5-1.6.4-.4.7-.8 1-1 .2-.2.3-.4.3-.4l1.5-10.2L14.5 58zm56.2-44.7s.1-.3.1-.9c-1-.6.2-1.4.3-2.3.9-.9 3.1-2 .5-3 5.5-1-1.1-2.1.5-3 .2-.9 1.1-1.7.3-2.3 1.1-.6 2.4-.9.1-.9h-8.2l-3.4 22.7 9.8-10.3zM50.6 52.5l-1.5 10 .2-.2v.2l.3-.3c.2-.2.8-.5.8-.8-.9-.4 2.3-.8 1.2-1.3.2-.5 1.1-1.1 1.6-1.7.2-.6-1.1-1.3 1.9-2 .3-.7 2.5-1.5 2.1-2.3-.7-.8-.3-1.6 2.3-2.4.2-.8.3-1.7 2.4-2.5-.1-.9 2-1.7 2.4-2.6 2.3-.8 2.4-1.7 2.4-2.5 1.1-.5-2.5-.9 1.2-1.3 1.8-.4.1-.9 1.3-1.3.7-.4.8-.8 1-1.2 0-.4.1-.8 1.3-1.2.6-.4 1.2-.7 1.6-1.1.4-.3.6-.7.3-1 1.7-.6 2.5-1.1 1.5-1.6.4-.4.7-.8 1-1 .2-.2.3-.4.3-.4l1.5-10.2-27.1 28.7zM95.3.7l-9.2 61.8h8.2c-.4 0 .1-.3.1-.7.2-.5-.4-1.2.3-2 2-.8 1.8-1.8.4-2.9-.7-1.1.8-2.2.5-3.4 2.3-1.2 2.4-2.4.5-3.6 1.9-1.2 1.7-2.3.5-3.4s1.6-2 1.5-2.9c1.3-.8-1.9-1.5-.8-2 .2-.5 2.8-.7 3.1-.7-2.5 0-3.8-.3-1.4-.8-.3-.5-1.2-1.2-.4-2.1 2.1-.9.4-1.9-.3-3 0-1.1 1.1-2.3 1.2-3.4 1-1.2-.5-2.3-.2-3.4 1.6-1.1 0-2.1.4-3 .4-.9 2.3-1.6.3-2.1 1.2-.5 1.2-.8.1-.8 2.8 0 1-.3.1-.7 1.1-.5-.5-1.2.3-2 3.7-.8.2-1.8.4-2.9.2-1.1-.3-2.2.5-3.4 2-1.2 1.8-2.4.5-3.6 2.5-1.2-2.6-2.3.5-3.4.5-1.1 1.5-2 .4-2.9-.5-.8-2.1-1.5.3-2 .1-.5.1-.7.1-.7h-7.9z"/><path class="st2" d="M90.7.7L69.2 23.4l1.5-10.1-9.6 10.1L64.5.7h-4.7L10.3 53.1l4.2 4.9 32.3-34.1-1.6 10.2 9.7-10.2-4.3 28.6 27-28.6-1.5 10.2 9.6-10.2-5.8 38.6h6.2L95.3.7z"/></g></svg>