<?xml version="1.0" encoding="utf-8"?>
<!-- Generator: Adobe Illustrator 23.0.1, SVG Export Plug-In . SVG Version: 6.00 Build 0)  -->
<svg version="1.1" id="Layer_1" xmlns="http://www.w3.org/2000/svg" xmlns:xlink="http://www.w3.org/1999/xlink" x="0px" y="0px"
	 viewBox="0 0 228 228" style="enable-background:new 0 0 228 228;" xml:space="preserve">
<style type="text/css">
	.st0{fill:#161617;}
	.st1{opacity:0.2;fill:url(#SVGID_1_);enable-background:new    ;}
	.st2{opacity:0.36;fill:url(#SVGID_2_);enable-background:new    ;}
	.st3{opacity:0.63;fill:url(#SVGID_3_);enable-background:new    ;}
	.st4{opacity:0.8;fill:url(#SVGID_4_);enable-background:new    ;}
	.st5{opacity:0.36;fill:url(#SVGID_5_);enable-background:new    ;}
	.st6{opacity:0.6;fill:url(#SVGID_6_);enable-background:new    ;}
	.st7{opacity:0.15;}
	.st8{fill:#F0F2F1;}
	.st9{opacity:0.8;fill:url(#SVGID_7_);enable-background:new    ;}
	.st10{opacity:0.15;fill:url(#SVGID_8_);enable-background:new    ;}
	.st11{opacity:6.000000e-02;fill:url(#SVGID_9_);enable-background:new    ;}
	.st12{opacity:0.8;fill:none;stroke:#E9ECEA;stroke-width:3.000000e-02;enable-background:new    ;}
	.st13{opacity:0.27;fill:none;stroke:#F0F2F1;stroke-width:3.000000e-02;enable-background:new    ;}
	.st14{fill:url(#SVGID_10_);}
	.st15{opacity:0.7;fill:url(#SVGID_11_);enable-background:new    ;}
	.st16{opacity:0.7;fill:none;stroke:#221E20;stroke-width:5.000000e-02;enable-background:new    ;}
	.st17{opacity:0.8;fill:none;stroke:#000000;stroke-width:5.000000e-02;enable-background:new    ;}
	.st18{opacity:0.4;fill:#FFFFFF;enable-background:new    ;}
	.st19{opacity:0.2;fill:#FFFFFF;enable-background:new    ;}
	.st20{opacity:0.1;fill:#FFFFFF;enable-background:new    ;}
	.st21{fill:url(#SVGID_12_);}
	.st22{fill:url(#SVGID_13_);stroke:#E8EAE8;stroke-width:3.000000e-02;}
	.st23{fill:none;stroke:#E8EAE8;stroke-width:3.000000e-02;}
	.st24{opacity:0.2;fill:none;stroke:#F0F2F1;stroke-width:8.000000e-02;enable-background:new    ;}
</style>
<title>Logo_Glamorama_corto_04_RGB</title>
<g>
	<g>
		<path class="st0" d="M113.8,212.9c-54.6,0-98.9-44.3-98.9-98.9S59.2,15,113.8,15s98.9,44.3,98.9,98.9c0.1,54.5-44,98.8-98.6,98.9
			C114,212.9,113.9,212.9,113.8,212.9z"/>
		
			<linearGradient id="SVGID_1_" gradientUnits="userSpaceOnUse" x1="163.1092" y1="87.9818" x2="70.6192" y2="159.9118" gradientTransform="matrix(1 0 0 -1 -7.89 234.33)">
			<stop  offset="0" style="stop-color:#D5DBD9"/>
			<stop  offset="0.16" style="stop-color:#DEE2E0"/>
			<stop  offset="0.37" style="stop-color:#CFD4D3"/>
			<stop  offset="0.64" style="stop-color:#B6BDBF"/>
			<stop  offset="0.8" style="stop-color:#221E20"/>
			<stop  offset="0.93" style="stop-color:#A7ADB5"/>
			<stop  offset="1" style="stop-color:#FFFFFF"/>
		</linearGradient>
		<path class="st1" d="M113.8,63c-28.2-0.1-51.1,22.6-51.2,50.8c-0.1,28.2,22.6,51.1,50.8,51.2c28.2,0.1,51.1-22.6,51.2-50.8
			c0-0.1,0-0.1,0-0.2C164.6,85.9,141.9,63.1,113.8,63z M113.8,160.6c-25.8,0-46.7-21-46.7-46.8S88.1,67,114,67.1
			c25.8,0,46.7,21,46.7,46.8c0,25.8-20.9,46.7-46.7,46.7C113.9,160.6,113.9,160.6,113.8,160.6z"/>
		
			<linearGradient id="SVGID_2_" gradientUnits="userSpaceOnUse" x1="182.5554" y1="50.3046" x2="60.6754" y2="191.2246" gradientTransform="matrix(1 0 0 -1 -7.89 234.33)">
			<stop  offset="0" style="stop-color:#E8EAE8"/>
			<stop  offset="6.000000e-02" style="stop-color:#E4E6E4"/>
			<stop  offset="0.4" style="stop-color:#CFD5D3"/>
			<stop  offset="0.62" style="stop-color:#C8CFCD"/>
			<stop  offset="0.71" style="stop-color:#D1D6D4"/>
			<stop  offset="1" style="stop-color:#E8EAE8"/>
		</linearGradient>
		<path class="st2" d="M113.8,18.6c-52.7,0.1-95.3,42.9-95.1,95.6c0.1,52.7,42.9,95.3,95.6,95.1c52.6-0.1,95.2-42.8,95.1-95.4
			c0.1-52.6-42.5-95.2-95.1-95.3C114.2,18.6,114,18.6,113.8,18.6z M113.8,205C63.6,205,23,164.1,23,113.9
			c0.1-50.2,40.9-90.7,91.1-90.6s90.7,40.9,90.6,91.1C204.6,164.5,163.9,205.1,113.8,205z"/>
		
			<linearGradient id="SVGID_3_" gradientUnits="userSpaceOnUse" x1="175.2032" y1="48.6311" x2="65.1132" y2="192.3211" gradientTransform="matrix(1 0 0 -1 -7.89 234.33)">
			<stop  offset="1.000000e-02" style="stop-color:#ECECEB"/>
			<stop  offset="0.2" style="stop-color:#B8B9B8"/>
			<stop  offset="0.6" style="stop-color:#585859"/>
			<stop  offset="0.87" style="stop-color:#1B1C1D"/>
			<stop  offset="1" style="stop-color:#030406"/>
		</linearGradient>
		<path class="st3" d="M113.8,23.1c-50.1,0-90.7,40.5-90.8,90.6c0,0.1,0,0.1,0,0.2c0,50.2,40.5,91.1,90.8,91.1
			c50.2-1.7,89.6-43.7,87.9-94C200.2,63.2,161.7,24.7,113.8,23.1L113.8,23.1z M113.8,199.3c-47.1,0-85.1-38.6-85.1-85.4
			c0.1-47.1,38.4-85.1,85.4-85s85.1,38.4,85,85.4C199,161.4,160.8,199.4,113.8,199.3z"/>
		
			<linearGradient id="SVGID_4_" gradientUnits="userSpaceOnUse" x1="155.7082" y1="67.8486" x2="78.7882" y2="185.6686" gradientTransform="matrix(1 0 0 -1 -7.89 234.33)">
			<stop  offset="1.000000e-02" style="stop-color:#ECECEB"/>
			<stop  offset="0.2" style="stop-color:#B8B9B8"/>
			<stop  offset="0.6" style="stop-color:#585859"/>
			<stop  offset="0.87" style="stop-color:#1B1C1D"/>
			<stop  offset="1" style="stop-color:#030406"/>
		</linearGradient>
		<path class="st4" d="M113.8,28.6c-47,0-85.1,38.1-85.1,85.1c0,0.1,0,0.1,0,0.2c0,46.9,38,85.4,85.1,85.4
			c47.2-0.5,85-39.2,84.5-86.3C197.8,66.6,160.3,29.1,113.8,28.6z M113.8,189.4c-41.7,0-75.5-33.8-75.4-75.5
			c0-41.7,33.8-75.5,75.5-75.4c41.6,0,75.4,33.8,75.4,75.4c0,41.7-33.7,75.5-75.4,75.5C113.9,189.4,113.9,189.4,113.8,189.4z"/>
		
			<linearGradient id="SVGID_5_" gradientUnits="userSpaceOnUse" x1="65.1193" y1="81.0331" x2="176.7793" y2="158.7031" gradientTransform="matrix(1 0 0 -1 -7.89 234.33)">
			<stop  offset="0" style="stop-color:#1B1B1F"/>
			<stop  offset="0.13" style="stop-color:#3E4043"/>
			<stop  offset="0.43" style="stop-color:#979D9E"/>
			<stop  offset="0.55" style="stop-color:#BDC5C5"/>
			<stop  offset="0.59" style="stop-color:#9FA5A6"/>
			<stop  offset="0.66" style="stop-color:#767A7C"/>
			<stop  offset="0.73" style="stop-color:#545659"/>
			<stop  offset="0.79" style="stop-color:#3A3B3E"/>
			<stop  offset="0.86" style="stop-color:#27272A"/>
			<stop  offset="0.93" style="stop-color:#1C1B1F"/>
			<stop  offset="1" style="stop-color:#18171B"/>
		</linearGradient>
		<path class="st5" d="M113.8,42c-39.8,0-72,32.2-72.1,71.9s32.2,72,71.9,72.1s72-32.2,72.1-71.9c0,0,0-0.1,0-0.1
			c0.1-39.6-31.9-71.8-71.5-71.9C114.1,42,113.9,42,113.8,42z M113.8,175.5c-34,0.1-61.6-27.4-61.6-61.4s27.4-61.6,61.4-61.6
			s61.6,27.4,61.6,61.4c0,0,0,0,0,0.1C175.2,147.9,147.8,175.4,113.8,175.5z"/>
		
			<linearGradient id="SVGID_6_" gradientUnits="userSpaceOnUse" x1="163.0162" y1="80.0311" x2="78.4361" y2="162.5811" gradientTransform="matrix(1 0 0 -1 -7.89 234.33)">
			<stop  offset="0" style="stop-color:#D5DBD9"/>
			<stop  offset="0.16" style="stop-color:#DEE2E0"/>
			<stop  offset="0.37" style="stop-color:#CFD4D3"/>
			<stop  offset="0.64" style="stop-color:#B6BDBF"/>
			<stop  offset="0.8" style="stop-color:#221E20"/>
			<stop  offset="0.93" style="stop-color:#A7ADB5"/>
			<stop  offset="1" style="stop-color:#FFFFFF"/>
		</linearGradient>
		<path class="st6" d="M113.8,56.2c-31.9,0-57.8,25.8-57.8,57.7s25.8,57.8,57.7,57.8c31.9,0,57.8-25.8,57.8-57.7c0,0,0,0,0,0
			C171.5,82.1,145.7,56.2,113.8,56.2z M113.8,169c-30.4-0.1-54.9-24.8-54.8-55.2S83.9,58.9,114.3,59c30.3,0.1,54.7,24.7,54.8,54.9
			c0,30.4-24.6,55-54.9,55.1C114,169,113.9,169,113.8,169z"/>
		<g>
			
				<image style="overflow:visible;enable-background:new    ;" width="176" height="175" xlink:href="FE6D889E41FB3702.png"  transform="matrix(0.9943 0 0 0.9943 26.385 26.9422)">
			</image>
		</g>
		<g class="st7">
			<path class="st8" d="M113.8,75.7c21-0.1,38.2,16.9,38.2,37.9c0.1,21-16.9,38.2-37.9,38.2c-21,0.1-38.2-16.9-38.2-37.9
				c0,0,0,0,0,0c-0.2-20.9,16.5-38,37.4-38.2C113.4,75.7,113.6,75.7,113.8,75.7 M113.8,75.6c-10.1,0-19.8,4-26.9,11.2
				c-14.9,14.9-14.9,39.1,0,54c14.8,14.9,38.9,14.9,53.7,0c7.1-7.1,11.2-16.8,11.1-26.9c0.1-10.2-3.9-19.9-11-27.1
				C133.7,79.5,124,75.5,113.8,75.6L113.8,75.6z"/>
		</g>
		
			<linearGradient id="SVGID_7_" gradientUnits="userSpaceOnUse" x1="102.5375" y1="137.5915" x2="143.8475" y2="100.7415" gradientTransform="matrix(1 0 0 -1 -7.89 234.33)">
			<stop  offset="1.000000e-02" style="stop-color:#ECECEB"/>
			<stop  offset="0.2" style="stop-color:#B8B9B8"/>
			<stop  offset="0.6" style="stop-color:#585859"/>
			<stop  offset="0.87" style="stop-color:#1B1C1D"/>
			<stop  offset="1" style="stop-color:#030406"/>
		</linearGradient>
		<path class="st9" d="M148,113.9c0,18.9-15.4,34.2-34.2,34.1c-18.9,0-34.2-15.4-34.1-34.2c0-18.8,15.3-34.1,34.2-34.1
			c18.8,0,34.1,15.2,34.2,34C148,113.8,148,113.9,148,113.9z"/>
		
			<linearGradient id="SVGID_8_" gradientUnits="userSpaceOnUse" x1="95.0293" y1="88.6929" x2="186.8593" y2="197.5629" gradientTransform="matrix(1 0 0 -1 -7.89 234.33)">
			<stop  offset="0" style="stop-color:#1B1B1F"/>
			<stop  offset="0.13" style="stop-color:#3E4043"/>
			<stop  offset="0.43" style="stop-color:#979D9E"/>
			<stop  offset="0.55" style="stop-color:#BDC5C5"/>
			<stop  offset="0.59" style="stop-color:#9FA5A6"/>
			<stop  offset="0.66" style="stop-color:#767A7C"/>
			<stop  offset="0.73" style="stop-color:#545659"/>
			<stop  offset="0.79" style="stop-color:#3A3B3E"/>
			<stop  offset="0.86" style="stop-color:#27272A"/>
			<stop  offset="0.93" style="stop-color:#1C1B1F"/>
			<stop  offset="1" style="stop-color:#18171B"/>
		</linearGradient>
		<path class="st10" d="M141.1,113.9c0.1,15.1-12.1,27.4-27.2,27.5c-15.1,0.1-27.4-12.1-27.5-27.2C86.4,99,98.6,86.7,113.7,86.7
			c0,0,0.1,0,0.1,0C128.9,86.7,141.1,98.9,141.1,113.9z"/>
		
			<linearGradient id="SVGID_9_" gradientUnits="userSpaceOnUse" x1="111.7813" y1="130.641" x2="127.9913" y2="114.031" gradientTransform="matrix(1 0 0 -1 -7.89 234.33)">
			<stop  offset="0" style="stop-color:#FFFFFF"/>
			<stop  offset="1" style="stop-color:#000000"/>
		</linearGradient>
		<path class="st11" d="M136.4,113.9c0,12.5-10.1,22.6-22.6,22.5c-12.5,0-22.6-10.1-22.6-22.6c0-12.5,10.1-22.5,22.5-22.5
			c12.3-0.1,22.4,9.8,22.6,22.2C136.4,113.7,136.4,113.8,136.4,113.9z"/>
		<path class="st12" d="M113.8,205C63.6,205,23,164.1,23,113.9c0.1-50.2,40.9-90.7,91.1-90.6s90.7,40.9,90.6,91.1
			C204.6,164.5,163.9,205.1,113.8,205z"/>
		<path class="st13" d="M113.8,205C63.6,205,23,164.1,23,113.9c0.1-50.2,40.9-90.7,91.1-90.6s90.7,40.9,90.6,91.1
			C204.6,164.5,163.9,205.1,113.8,205z"/>
		
			<linearGradient id="SVGID_10_" gradientUnits="userSpaceOnUse" x1="157.0716" y1="77.3294" x2="87.8716" y2="161.4994" gradientTransform="matrix(1 0 0 -1 -7.89 234.33)">
			<stop  offset="0" style="stop-color:#D5DBD9"/>
			<stop  offset="0.16" style="stop-color:#DEE2E0"/>
			<stop  offset="0.37" style="stop-color:#CFD4D3"/>
			<stop  offset="0.55" style="stop-color:#B6BDBF"/>
			<stop  offset="0.69" style="stop-color:#221E20"/>
			<stop  offset="0.84" style="stop-color:#A7ADB5"/>
			<stop  offset="0.87" style="stop-color:#C6CACF"/>
			<stop  offset="0.9" style="stop-color:#DFE1E4"/>
			<stop  offset="0.93" style="stop-color:#F1F2F3"/>
			<stop  offset="0.96" style="stop-color:#FCFCFC"/>
			<stop  offset="1" style="stop-color:#FFFFFF"/>
		</linearGradient>
		<path class="st14" d="M113.8,56.2c-31.9,0-57.8,25.8-57.8,57.7s25.8,57.8,57.7,57.8c31.9,0,57.8-25.8,57.8-57.7c0,0,0,0,0,0
			C171.5,82.1,145.7,56.2,113.8,56.2z M113.8,169c-30.4-0.1-54.9-24.8-54.8-55.2S83.9,58.9,114.3,59c30.3,0.1,54.7,24.7,54.8,54.9
			c0,30.4-24.6,55-54.9,55.1C114,169,113.9,169,113.8,169z"/>
		
			<linearGradient id="SVGID_11_" gradientUnits="userSpaceOnUse" x1="176.1909" y1="54.3186" x2="111.7409" y2="132.3186" gradientTransform="matrix(1 0 0 -1 -7.89 234.33)">
			<stop  offset="0" style="stop-color:#FFFFFF"/>
			<stop  offset="0.15" style="stop-color:#C4C4C4"/>
			<stop  offset="0.32" style="stop-color:#898989"/>
			<stop  offset="0.49" style="stop-color:#585858"/>
			<stop  offset="0.64" style="stop-color:#323232"/>
			<stop  offset="0.78" style="stop-color:#161616"/>
			<stop  offset="0.91" style="stop-color:#060606"/>
			<stop  offset="1" style="stop-color:#000000"/>
		</linearGradient>
		<path class="st15" d="M113.8,52.5c-34-0.1-61.6,27.4-61.6,61.4c-0.1,34,27.4,61.6,61.4,61.6s61.6-27.4,61.6-61.4c0,0,0-0.1,0-0.1
			C175.3,80,147.8,52.5,113.8,52.5C113.8,52.5,113.8,52.5,113.8,52.5z M113.8,171.7c-31.9,0-57.8-25.8-57.8-57.7
			c0-31.9,25.8-57.8,57.7-57.8c31.9,0,57.7,25.8,57.8,57.7C171.6,145.8,145.7,171.7,113.8,171.7L113.8,171.7z"/>
		<path class="st16" d="M113.8,175.5c-34,0.1-61.6-27.4-61.6-61.4s27.4-61.6,61.4-61.6s61.6,27.4,61.6,61.4c0,0,0,0,0,0.1
			C175.2,147.9,147.8,175.4,113.8,175.5z"/>
		<path class="st17" d="M113.8,171.7c-31.9,0-57.8-25.8-57.8-57.7c0-31.9,25.8-57.8,57.7-57.8c31.9,0,57.7,25.8,57.8,57.7
			C171.6,145.8,145.7,171.7,113.8,171.7z"/>
		<path class="st18" d="M100.4,79.7c1.6,2.1-0.7,7.1-5.2,10.8s-9.7,5.1-11.8,3.1c-1.6-2.1,0.6-6.9,5.2-10.8S98.5,77.6,100.4,79.7z"
			/>
		<path class="st19" d="M127.9,124.6c1.1,1.1,0.4,2.4-1.1,3.7c-1.3,1.1-2.8,1.4-3.6,0.4c-0.5-0.9-0.3-2.4,1.1-3.6
			C125.5,124,127.4,123.6,127.9,124.6z"/>
		<path class="st20" d="M106.3,95.8c1.2,1.6-0.4,4.3-3.1,6.8s-6,3.4-7,2.1c-1.2-1.2,0.1-4.3,2.8-6.7C102,95.4,105.1,94.5,106.3,95.8
			z"/>
		
			<linearGradient id="SVGID_12_" gradientUnits="userSpaceOnUse" x1="188.168" y1="32.5475" x2="55.938" y2="207.6474" gradientTransform="matrix(1 0 0 -1 -7.89 234.33)">
			<stop  offset="0" style="stop-color:#C8CFCD"/>
			<stop  offset="8.000000e-02" style="stop-color:#D1D6D4"/>
			<stop  offset="0.33" style="stop-color:#E8EAE8"/>
			<stop  offset="0.62" style="stop-color:#C8CFCD"/>
			<stop  offset="0.67" style="stop-color:#D1D6D4"/>
			<stop  offset="0.82" style="stop-color:#E8EAE8"/>
			<stop  offset="1" style="stop-color:#C8CFCD"/>
		</linearGradient>
		<path class="st21" d="M113.8,0C50.9,0.1-0.1,51.3,0,114.2c0.1,63,51.2,113.9,114.2,113.8c62.9-0.1,113.8-51.2,113.8-114.1
			C228,51.1,176.9,0,113.8,0z M113.8,212.9c-54.6,0-98.9-44.3-98.9-98.9S59.2,15,113.8,15s98.9,44.3,98.9,98.9
			c0.1,54.5-44,98.8-98.6,98.9C114,212.9,113.9,212.9,113.8,212.9L113.8,212.9z"/>
		
			<linearGradient id="SVGID_13_" gradientUnits="userSpaceOnUse" x1="190.5972" y1="29.3269" x2="53.1918" y2="211.2877" gradientTransform="matrix(1 0 0 -1 -7.89 234.33)">
			<stop  offset="0" style="stop-color:#221E20"/>
			<stop  offset="3.000000e-02" style="stop-color:#383536"/>
			<stop  offset="0.18" style="stop-color:#969595"/>
			<stop  offset="0.28" style="stop-color:#D1D2D1"/>
			<stop  offset="0.33" style="stop-color:#E8EAE8"/>
			<stop  offset="0.62" style="stop-color:#ECECEC"/>
			<stop  offset="0.82" style="stop-color:#E8EAE8"/>
			<stop  offset="1" style="stop-color:#221E20"/>
		</linearGradient>
		<path class="st22" d="M113.8,0C50.9,0.1-0.1,51.3,0,114.2c0.1,63,51.2,113.9,114.2,113.8c62.9-0.1,113.8-51.2,113.8-114.1
			C228,51.1,176.9,0,113.8,0z M113.8,212.9c-54.6,0-98.9-44.3-98.9-98.9S59.2,15,113.8,15s98.9,44.3,98.9,98.9
			c0.1,54.5-44,98.8-98.6,98.9C114,212.9,113.9,212.9,113.8,212.9L113.8,212.9z"/>
		<path class="st23" d="M113.8,212.9c-54.6,0-98.9-44.3-98.9-98.9S59.2,15,113.8,15s98.9,44.3,98.9,98.9c0.1,54.5-44,98.8-98.6,98.9
			C114,212.9,113.9,212.9,113.8,212.9z"/>
		<path class="st24" d="M113.8,214.3c-55.3,0-100-45.1-100-100.3c0.6-55.3,45.8-99.6,101.1-99.1c54.5,0.5,98.5,44.6,99.1,99.1
			C214,169.1,169.1,214.3,113.8,214.3z"/>
	</g>
</g>
</svg>
