<svg id="Layer_1" data-name="Layer 1" xmlns="http://www.w3.org/2000/svg" viewBox="0 0 200 200.01"><title>Logo_Pulso_corto_RGB</title><path d="M124.66,27.84,64.18,28v9.34l68.29-.22a24.67,24.67,0,0,0-7.81-9.29"/><path d="M130.09,106.94l-65.67.15,0,9.4,52.06-.13a27.19,27.19,0,0,0,13.56-9.42"/><polygon points="64.36 86.9 90.02 86.77 90.02 77.33 64.36 77.44 64.36 86.9"/><path d="M134.67,97.11l-70.27.13,0,9.36,66.1-.22a26.71,26.71,0,0,0,4.15-9.27"/><path d="M135.85,87.55l0-.36-25.73,0v.35c0,6.32-3,9-8.84,9H90V87.32l-25.66,0,.06,9.34,70.41-.17a39.64,39.64,0,0,0,1-9"/><path d="M90.15,118.53h11.2a51.2,51.2,0,0,0,13.33-1.65L64.47,117v9.38l25.69,0v-7.78"/><polygon points="64.33 76.94 90.02 76.84 89.97 67.42 64.32 67.58 64.33 76.94"/><polygon points="64.56 136.26 90.22 136.26 90.16 126.85 64.47 126.85 64.56 136.26"/><polygon points="64.61 175.84 90.25 175.74 90.25 166.44 64.61 166.44 64.61 175.84"/><polygon points="64.61 178.51 90.27 178.46 90.25 176.25 64.61 176.31 64.61 178.51"/><polygon points="64.61 165.99 90.25 165.85 90.22 156.52 64.56 156.56 64.61 165.99"/><polygon points="64.56 146.12 90.22 146.05 90.22 136.76 64.56 136.87 64.56 146.12"/><polygon points="64.56 156.03 90.22 156 90.22 146.61 64.56 146.71 64.56 156.03"/><polygon points="110.08 66.95 135.77 66.82 135.77 57.45 110.08 57.52 110.08 66.95"/><path d="M90,43.49h11.16c3.56,0,6.22,1.32,7.67,3.71l26.54-.15a32.48,32.48,0,0,0-2.58-9.25l-68.56.09.1,9.43L90,47.2V43.49"/><path d="M135.77,52.38c-.12-1.61-.17-3.25-.34-4.76l-26.44,0a11.35,11.35,0,0,1,1.06,4.82l0,4.56,25.66,0,0-4.62"/><polygon points="110.09 86.68 135.85 86.68 135.77 77.27 110.09 77.33 110.09 86.68"/><polygon points="110.09 76.73 135.74 76.73 135.74 67.31 110.08 67.41 110.09 76.73"/><polygon points="64.32 57.15 89.95 57.02 89.95 47.73 64.28 47.82 64.32 57.15"/><polygon points="64.32 67.06 89.97 66.98 89.9 57.59 64.32 57.7 64.32 67.06"/><path d="M101,21.5l-36.89.13,0,5.81,59.66-.16c-5.54-3.7-13-5.82-22.8-5.78"/></svg>