<?xml version="1.0" encoding="utf-8"?>
<!-- Generator: Adobe Illustrator 23.0.1, SVG Export Plug-In . SVG Version: 6.00 Build 0)  -->
<svg version="1.1" id="Layer_1" xmlns="http://www.w3.org/2000/svg" xmlns:xlink="http://www.w3.org/1999/xlink" x="0px" y="0px"
	 viewBox="0 0 638.3 96.5" style="enable-background:new 0 0 638.3 96.5;" xml:space="preserve">
<style type="text/css">
	.st0{fill:#FFFFFF;}
</style>
<title>Logo_EmporioPaula_white_RGB</title>
<path class="st0" d="M361.4,74.6h14V49.5H392c14.8,0,25.2-9.5,25.2-24.3C417.1,10.7,408.5,0,391,0h-29.6V74.6z M375.4,11.7h13.4
	c8.1,0,13.6,3,13.6,13.4c0,7.3-4.3,12.6-13.1,12.6h-13.9L375.4,11.7z M469.2,37.7c0-15.1-11.4-17.4-22.8-17.4
	c-11.6,0-22.6,4.8-22.6,17.3l12.8,0.5c0-5.8,2.4-8,9.8-8c5.6,0,10.1,1.5,10.1,6.7v1.6c-3.2,1.2-9.2,2.2-13.8,3.2l-5.3,1
	c-7.9,1.6-16.1,6.2-16.1,16.6s8,16.7,18,16.7c6.3,0.1,12.4-2.1,17.3-6.1c0,1.7,0.4,3.3,1.2,4.8h13.6c-0.7-1.1-2-3.4-2-8.9
	L469.2,37.7z M456.4,55.6c0,6.8-7.7,9.7-13.6,9.7c-4.6,0-8.3-2.6-8.3-6.6c0-5,4-6.4,8.8-7.3l7-1.5c2.1-0.3,4.2-1,6.1-1.9L456.4,55.6
	z M528.8,21.6h-12.8v28.5c0,6.4-2.9,13.4-12.6,13.4c-6.5,0-9.4-3.1-9.4-10.5V21.6h-12.7v35.1c0,15.4,10.4,19.2,19.4,19.2
	c7.2,0,12.4-2.8,15.2-6.5h0.2v5.2h12.8L528.8,21.6z M541.3,74.6h12.8V0h-12.8V74.6z M611,37.7c0-15.1-11.4-17.4-22.8-17.4
	c-11.6,0-22.6,4.8-22.6,17.3l12.8,0.5c0-5.8,2.4-8,9.8-8c5.5,0,10.1,1.5,10.1,6.7v1.6c-3.2,1.2-9.2,2.2-13.8,3.2l-5.3,1
	c-7.9,1.6-16.1,6.2-16.1,16.6s8,16.7,18,16.7c6.3,0.1,12.4-2.1,17.3-6.1c0,1.7,0.4,3.3,1.2,4.8H613c-0.7-1.1-2-3.4-2-8.9L611,37.7z
	 M598.2,55.7c0,6.8-7.7,9.7-13.6,9.7c-4.6,0-8.3-2.6-8.3-6.6c0-5,4-6.4,8.8-7.3l7-1.5c2.1-0.3,4.2-1,6.1-1.9L598.2,55.7z
	 M624.2,74.7h14V60.2h-14.1L624.2,74.7z"/>
<path class="st0" d="M0,3C0,1.9,0.9,1,1.9,1l0,0h40.7c1.1,0,1.9,0.8,1.9,1.9c0,0,0,0,0,0v5.7c0,1.1-0.9,1.9-1.9,1.9c0,0,0,0,0,0
	H10.5v20.8h27.2c1.1,0,1.9,0.9,1.9,1.9V39c0,1.1-0.9,1.9-1.9,1.9c0,0,0,0,0,0H10.5v21.9h32.2c1.1,0,1.9,0.9,1.9,1.9v5.6
	c0,1.1-0.8,1.9-1.9,1.9c0,0,0,0,0,0H1.9c-1.1,0-1.9-0.9-1.9-1.9c0,0,0,0,0,0L0,3z"/>
<path class="st0" d="M51.8,27.5c0-1.2,1-2.2,2.2-2.2h2.3c0.9-0.1,1.8,0.5,2,1.4l1.3,4.1c3.9-4.2,9.3-6.6,15-6.5
	c6.8,0,10.9,2.7,14.4,7.4c1.3-1.3,6.9-7.4,15.9-7.4c14.4,0,17.9,10,17.9,22.2v23.6c0,1.2-0.9,2.2-2.1,2.2c0,0-0.1,0-0.1,0h-5.7
	c-1.2,0.1-2.2-0.9-2.2-2c0-0.1,0-0.1,0-0.2v-24c0-7.5-2.9-12.1-9.3-12.1c-7.1,0-10.5,4.8-11.3,5.5c0.3,2.1,0.4,4.2,0.4,6.3v24.3
	c0,1.2-0.9,2.2-2.1,2.2h-5.8c-1.2,0-2.2-0.9-2.2-2.1c0,0,0-0.1,0-0.1v-24c0-7.6-2.8-12.1-9.3-12.1c-7,0-10.6,5.2-11.1,6.8v29.3
	c-0.1,1.2-1,2.2-2.2,2.2h-5.7c-1.2,0-2.2-1-2.2-2.2L51.8,27.5z"/>
<path class="st0" d="M143.5,94.3c0,1.2-0.9,2.2-2.2,2.2c-0.1,0-0.2,0-0.3,0h-5.7c-1.2,0-2.2-1-2.2-2.2V27.5c0-1.2,1-2.2,2.2-2.2h2.6
	c0.9-0.1,1.8,0.6,2,1.5l1.2,3.1c4-3.7,9.3-5.7,14.8-5.6c12.9,0,22.2,11.1,22.2,24.5c0,13.7-9.8,24.6-22.6,24.6
	c-4.2-0.1-8.3-1.2-12-3.3L143.5,94.3z M154.2,63.8c7.6,0,13.7-6.5,13.7-15s-5.3-14.9-13.3-14.9c-6.8,0-10.9,5.2-11.3,6.6v19.8
	C146.5,62.5,150.3,63.7,154.2,63.8"/>
<path class="st0" d="M207,24.2c13.1,0,23.9,11.2,23.9,24.4c0,13.4-10.8,24.7-23.9,24.7s-24-11.3-24-24.7
	C183,35.5,193.8,24.3,207,24.2 M207,63.8c7.8,0,14-6.4,14-15.1c0-8.4-6.1-14.8-14-14.8s-14,6.3-14,14.8
	C192.9,57.3,199,63.8,207,63.8"/>
<path class="st0" d="M238.6,27.5c0.1-1.2,1-2.2,2.2-2.2h2.5c1,0,1.8,0.7,2,1.6l1.3,4.3c3.4-4.4,8.7-6.9,14.3-6.9
	c4.5,0,10.1,1.2,8.6,4.4l-2.5,5.1c-0.4,1-1.5,1.6-2.5,1.3c-0.1,0-0.2-0.1-0.3-0.1c-1.4-0.6-2.8-0.9-4.3-0.9
	c-4.5,0.1-8.7,2.5-11.1,6.3v29.8c0,2-1.3,2.2-3.3,2.2h-4.6c-1.2,0-2.2-1-2.2-2.2L238.6,27.5z"/>
<path class="st0" d="M272.8,8.4c-0.1-3.7,2.9-6.8,6.6-6.9c0,0,0.1,0,0.1,0c3.8-0.1,7,2.8,7.1,6.6s-2.8,7-6.6,7.1c-0.2,0-0.3,0-0.5,0
	C275.8,15.2,272.7,12.2,272.8,8.4C272.8,8.4,272.8,8.4,272.8,8.4 M274.4,27.5c0-1.2,1-2.2,2.2-2.2h5.7c1.2,0.1,2.2,1,2.2,2.2v42.6
	c0,1.2-1,2.2-2.2,2.2h-5.7c-1.2,0-2.2-1-2.2-2.2V27.5z"/>
<path class="st0" d="M316.3,24.2c13.1,0,23.9,11.2,23.9,24.4c0,13.4-10.8,24.7-23.9,24.7s-24-11.3-24-24.7
	C292.3,35.5,303.1,24.3,316.3,24.2 M316.3,63.8c7.8,0,14-6.4,14-15.1c0-8.4-6.1-14.8-14-14.8s-14.1,6.3-14.1,14.8
	C302.3,57.3,308.4,63.8,316.3,63.8"/>
</svg>
