<svg id="Layer_1" data-name="Layer 1" xmlns="http://www.w3.org/2000/svg" viewBox="0 0 414.64 373.89"><defs><style>.cls-1{fill:#1d1d1b;}</style></defs><title>Logo_RoperoPaula_corto_RGB</title><path class="cls-1" d="M188,179.12l-13.09-37.8c-3.87-11.62-9.22-16.78-18.44-16.78H148v54.58H123.24V46.53h39.83c29.69,0,43.34,13.28,43.34,36.7,0,19.18-10.69,30.62-26.36,33.38V117c9.77,5.16,15.48,12.35,20.65,25.63l14,36.51Zm-29.13-73c16.59,0,21.95-5.53,21.95-21.76,0-15.3-6.83-19-19-19H148v40.75Z"/><path class="cls-1" d="M220.75,220.85h22.72c13.67,0,23.07,5.14,23.07,22.71,0,12.43-7.27,21.32-22.19,21.32h-23.6ZM197,327.37h23.8V284.76h28c25,0,42.61-16.16,42.61-41.2,0-24.49-14.55-42.6-44.2-42.6H197Z"/></svg>