<?xml version="1.0" encoding="utf-8"?>
<!-- Generator: Adobe Illustrator 23.0.1, SVG Export Plug-In . SVG Version: 6.00 Build 0)  -->
<svg version="1.1" id="Layer_1" xmlns="http://www.w3.org/2000/svg" xmlns:xlink="http://www.w3.org/1999/xlink" x="0px" y="0px"
	 viewBox="0 0 238.1 250.1" style="enable-background:new 0 0 238.1 250.1;" xml:space="preserve">
<style type="text/css">
	.st0{fill:#C00B1E;}
	.st1{fill:#1E120D;}
</style>
<title>Logo_Zero_corto_02_RGB</title>
<path class="st0" d="M162.7,74.4c-14.2,0-26.2,4.9-36.1,14.7c-9.8,9.8-14.7,21.8-14.7,35.8c-0.2,13.4,5.1,26.3,14.8,35.6
	c9.8,9.7,21.8,14.6,36.1,14.6s26.3-4.9,36.2-14.7c9.7-9.3,15.1-22.2,14.8-35.6c0-14-4.9-26-14.9-35.8S176.9,74.4,162.7,74.4z
	 M193.4,155.5c-7.9,8.3-18.9,12.8-30.4,12.6c-12,0-22.2-4.1-30.5-12.5S120,137,120,124.9s4.2-22.5,12.5-30.9
	c8-8.2,19-12.8,30.5-12.5c11.4-0.2,22.4,4.3,30.4,12.5c8.2,8.4,12.4,18.6,12.4,30.8S201.6,147.2,193.4,155.5z"/>
<polygon class="st1" points="111.3,77.5 110.6,74.7 27.5,74.8 27.5,81.2 98.8,81.2 24.3,173.4 25.1,175.7 111.9,175.6 111.9,169.1 
	37,169.1 "/>
</svg>
