<?xml version="1.0" encoding="utf-8"?>
<!-- Generator: Adobe Illustrator 23.0.1, SVG Export Plug-In . SVG Version: 6.00 Build 0)  -->
<svg version="1.1" id="Layer_1" xmlns="http://www.w3.org/2000/svg" xmlns:xlink="http://www.w3.org/1999/xlink" x="0px" y="0px"
	 viewBox="0 0 637.9 110.4" style="enable-background:new 0 0 637.9 110.4;" xml:space="preserve">
<title>Logo_MtOnline_black_sinLT_RGB</title>
<path d="M292.4,55.3V55c0-7.1-1.2-14.2-3.7-20.9c-2.4-6.5-6-12.4-10.7-17.5c-4.7-5.1-10.4-9.3-16.8-12.1c-6.9-3.1-14.3-4.6-21.9-4.5
	c-3.8,0-7.7,0.4-11.4,1.1l-2,3.7c4.3-1.2,8.8-1.7,13.3-1.7c7-0.1,14,1.4,20.3,4.3c6,2.8,11.3,6.7,15.8,11.5
	c4.4,4.8,7.9,10.5,10.1,16.6c2.4,6.3,3.6,13,3.6,19.7v0.3c0,6.7-1.2,13.4-3.5,19.7c-4.5,12.3-13.8,22.4-25.8,27.8
	c-12.9,5.7-27.7,5.7-40.6-0.1c-6-2.8-11.3-6.7-15.8-11.5c-4.4-4.8-7.9-10.5-10.2-16.6c-2.4-6.3-3.6-12.9-3.6-19.7v-0.3
	c0-6.7,1.2-13.4,3.5-19.7l0.5-1.1H190c0,0,0,0.1,0,0.1c-2.5,6.7-3.8,13.8-3.7,20.9v0.3c0,7.1,1.2,14.2,3.6,20.8
	c2.4,6.5,6,12.4,10.7,17.5c4.7,5.2,10.4,9.3,16.7,12.2c14,6,29.8,6,43.8,0c6.4-2.9,12.1-7,16.8-12.2c4.6-5.1,8.3-11.1,10.7-17.5
	C291.1,69.6,292.4,62.5,292.4,55.3"/>
<polygon points="298,110.4 301.3,110.4 301.3,9.2 382.3,110.4 385.2,110.4 385.2,19.8 381.8,19.8 381.8,104.9 300.8,3.7 298,3.7 "/>
<polygon points="408.2,110.4 463.6,110.4 463.6,107.3 411.5,107.3 411.5,3.6 408.2,3.6 "/>
<polygon points="460.3,98.3 463.6,98.3 463.6,9.2 544.6,110.4 547.5,110.4 547.5,3.7 544.1,3.7 544.1,104.9 463.2,3.7 460.3,3.7 "/>
<rect x="434.3" y="19.9" width="3.3" height="78.5"/>
<rect x="434.3" y="3.6" width="3.4" height="11"/>
<polygon points="117.5,2.8 86,2.8 59.1,63.9 30.3,2.8 0,2.8 0,110.3 30.4,110.3 30.3,56.1 51.4,110.4 66.1,110.4 87.1,56.1 
	87.2,110.4 117.5,110.3 117.5,28.7 146.5,28.7 146.5,28.6 146.6,28.6 146.6,110.4 179.7,110.4 179.7,28.7 207.6,28.7 220.3,2.8 "/>
<path d="M562.5,58.2h8.3l0,0h59.7v-3h-68L562.5,58.2z M570.9,6.6h66.3v-3h-74.6v3H570.9z M637.9,110.4v-3h-75.3v3H637.9z"/>
</svg>
