<svg version="1.1" id="Layer_1" xmlns="http://www.w3.org/2000/svg" x="0" y="0" viewBox="0 0 119.2 138.5" xml:space="preserve"><style>.st0{fill:#b2292e}</style><path class="st0" d="M0 0h119.2v114.4H0z"/><path d="M14.3 21h11.5v62.8h32.8V94H14.3zm57.4 10.2H50.1V21h54.8v10.2H83.2V94H71.7z" fill="#fff"/><path class="st0" d="M28.1 123.8h-5v-2.3h12.7v2.3h-5v14.5h-2.7zm33.5 14.4h-3.2l-2.8-4.1c-.4.1-.8.1-1.2.1h-1.7v4h-2.6v-16.8h4.3c4.6 0 7.2 2.6 7.2 6.4.1 2.4-1.2 4.6-3.4 5.6l3.4 4.8zm-7.3-6.2c3.2 0 4.5-1.5 4.5-4.1s-1.3-4.1-4.5-4.1h-1.6v8.2h1.6zm8.3-2.1c-.1-4.7 3.6-8.5 8.2-8.6h.3c2.7-.1 5.2 1.1 6.7 3.3l-2 1.4c-1.1-1.5-2.9-2.4-4.8-2.3-3.3 0-5.8 2.7-5.8 6.2s2.5 6.2 5.8 6.2c2 .1 3.8-.9 5-2.4l2 1.4c-1.7 2.3-4.4 3.6-7.2 3.4-4.6.1-8.4-3.6-8.5-8.3.2-.1.2-.2.3-.3m41.2 8.3h-3.2l-2.9-4.1c-.4.1-.8.1-1.1.1h-1.7v4h-2.6v-16.8h4.3c4.6 0 7.2 2.6 7.2 6.4.1 2.4-1.2 4.6-3.4 5.6l3.4 4.8zm-7.3-6.2c3.2 0 4.6-1.5 4.6-4.1s-1.3-4.1-4.6-4.1H95v8.2h1.5zm10.5 6.2h-2.7l7.4-17.1h.1l7.4 17.1h-2.8l-1-2.4h-7.5l-.9 2.4zm4.7-11.3l-2.8 6.6h5.5l-2.7-6.6zm-21 9h-8.3v-2.8h7.1v-2.3h-7.1v-7h8.3v-2.3h-11v16.8h11zm-50.6-2.8h7.1v-2.3h-7.1v-7h8.3v-2.3h-11v16.8h11.1v-2.4h-8.4zM0 121.5h2.6v14.4h7.6v2.4H0z"/><path class="st0" d="M11 138.2H8.3l7.4-17.1h.2l7.4 17.1h-2.8l-1-2.3H12l-1 2.3zm4.8-11.3l-2.8 6.6h5.5l-2.7-6.6z"/></svg>