<svg version="1.1" id="Layer_1" xmlns="http://www.w3.org/2000/svg" x="0" y="0" viewBox="0 0 395.1 395.1" xml:space="preserve"><style>.st1{fill:#fff}</style><path d="M395.1 197.5c0 109.1-88.4 197.5-197.5 197.5S0 306.6 0 197.5 88.4 0 197.5 0s197.6 88.4 197.6 197.5" fill="#00c7bd"/><path class="st1" d="M243.5 218.9c1.1-1.3 1.9-5 1.9-8.6 0-8.2.2-31.2 0-39 0-3-.7-5.6-3-6.3-1.7-.7-3.5-1.2-5.4-1.5-2.4-.6-3.4-1.5-3.4-2.6s1.9-1.3 3.4-1.3c3.5 0 21.4-1.3 22.3-1.3s1.5 1.9 1.5 6c0 8-.6 18.2-.6 51.3 0 8.7.7 10.6 3.7 10.6 2.6-.2 8.9-1.5 9.9-1.5.7 0 1.3.6 1.3 1.3 0 .7-.6 3.3-1.7 3.5-6.5.9-17.7 3.7-21.8 4.8-1.4.5-2.9.8-4.5.9-.8 0-1.7-1.7-1.7-3.4 0-3.3.2-7.8.4-9.9 0-.4-.8-.4-.9-.2-1.7 1.3-8.5 7.2-13.8 9.9-3.8 2-8 2.9-12.3 2.8-6.1 0-11.5-2.2-15.1-6.1-3-3.2-4.8-8.4-4.8-14.9 0-15.2.4-35.5-.2-41.8-.4-4.8-.2-5.9-6-8-1.5-.6-3.5-1.5-3.5-2.6s1.5-1.5 4.1-1.5c10 0 16.4-1.1 20.6-1.1.4 0 1.1 1.1.9 2.6-.4 11.9-.9 33.1-.9 45.4 0 8.4 1.5 12.8 5.2 15.2 2.8 2 6.9 3 11.1 2.8 8.1.2 10.8-2.8 13.3-5.5m-45.3 26.2c1.5 0 12.1-.2 15-.2 5.3 0 7.9-.2 11.1 1.3s4.5 4 4.5 6c0 3.7-2 7.1-5.4 8.6-5.1 2.9-9.1 3-9.9 3s-1.4-.1-1.5-.7c0-.4.3-.7.6-.9 4-1.7 8.8-3.4 8.8-9.4 0-5.2-4.1-6.1-9.1-6.1-.8 0-1.5.2-2.2.5-.2.1-.4.4-.5 1.1-.1 6.1-.1 25.4.2 27.7.4 4.9.4 5.6 4.5 6.7 1.2.3 1.6.5 1.6 1s-1 .9-1.9.9c-2.3 0-13.8-.1-15.6-.1-1 0-1.9-.3-1.9-.8s.5-.9 1.7-1.1c3.2-.7 3.9-1.7 4.1-5.3.1-2.9.3-6.1.3-14.5 0-6.9-.3-10.1-.4-12s-.4-3.1-4-3.8c-1.4-.4-1.8-.8-1.8-1.1s.4-.8 1.8-.8m46.8 3.4c.3-.5.4-1.1.4-1.7v-.8c.1-.4.4-.8.8-1 1.3-.1 2.6-.1 3.9 0 .3 0 .7.5.7.8.3 1.2.7 2.5 1.2 3.6 1.4 3.8 8.9 23.4 10.6 27.1 1.9 4.1 2.3 5.2 5.9 6.6 1.1.4 1.6.7 1.6 1.1s-1 .4-1.9.4h-15.1c-1.5 0-1.9-.4-1.9-1s.8-.9 1.9-1.1c1.9-.6 2.6-1.1 2.6-2.5 0-.9-1.8-5.3-3-8.7-.2-.7-.8-1.2-1.5-1.3-1.9-.2-9.7-.1-10.6 0-.6 0-1.1.7-1.3 1-.7 1.7-2.5 7.3-2.5 8.4 0 1.6.9 2.3 4.1 3.2 1 .4 1.6.8 1.6 1.1 0 .6-1 .9-1.8.9h-12.2c-1.4 0-2.3-.3-2.3-.8s.5-1 1.9-1.3c3-.8 4-1.6 6.5-6.9 2.1-4.5 9.2-23.8 10.4-27.1m1.3 4.5c-.2-.2-.5-.1-.7.3-1.1 2.9-3.9 10.6-4.5 12.5-.1.3.1 1 .4 1 1 .1 7.4.1 9.2-.1.2 0 .5-.3.4-.8-1.3-3.4-3.2-9-4.8-12.9m43.7-8.7c1.3.3 2.7.4 4 .5.6.1 1 1 1 1.9 0 1.4.4 4.8.4 6 0 .7-.3 1.4-.9 1.8-.6 0-.8-.5-1.2-1.7-.5-2-1.6-3.7-3.2-5-1.5-1.3-3.3-2-5.3-2-3.6-.2-6.7 2.6-6.8 6.2v.6c0 3.2 1.8 5 4.4 6.5 2.7 1.6 4.9 2.8 7.4 4.3 3.7 2.2 7 5.8 7 10.3-.1 3.8-2 7.4-5.3 9.4-3.1 1.7-6.5 2.6-10 2.6-1.6 0-3.2-.1-4.8-.4-3.1-.6-5.6-2.9-6.5-5.9-.3-1.3-.6-2.7-.7-4.1 0-.8.1-2 .8-2 .9 0 2.1 2.9 2.5 3.7 2 3.9 5 6.8 9.5 6.8 3.9 0 7.1-3 7.3-6.8 0-2.9-1.6-5-4.9-7.1-2.1-1.4-3.6-2.2-5.4-3.3-4.1-2.3-8-6.3-8-11.3 0-6 5.2-11.3 13.9-11.3 1.6-.1 3.2 0 4.8.3m23.3 4.2c.3-.5.4-1.1.4-1.7v-.8c.1-.4.4-.8.8-1 1.3-.1 2.6-.1 3.9 0 .3 0 .7.5.7.8.3 1.2.7 2.5 1.2 3.6 1.4 3.8 8.9 23.4 10.6 27.1 1.9 4.1 1.9 4.9 6 6.1 1.1.4 1.6.6 1.6 1 0 .6-1 1-1.9 1h-15.2c-1.5 0-1.9-.4-1.9-1s.8-.9 1.9-1.1c1.9-.6 2.6-1.1 2.6-2.5 0-.9-1.8-5.3-3-8.7-.2-.7-.8-1.2-1.5-1.3-1.9-.2-9.7-.1-10.6 0-.6 0-1.1.7-1.3 1-.7 1.7-2.5 7.3-2.5 8.4 0 1.6.9 2.3 4.2 3.2 1 .4 1.5.8 1.5 1.1 0 .6-1 .9-1.8.9h-12.2c-1.4 0-2.4-.3-2.3-.8s.7-.3 2.1-.8c3.1-1.1 3.8-2 6.3-7.4 2-4.5 9.2-23.8 10.4-27.1m1.3 4.4c-.2-.2-.5-.1-.7.3-1.1 2.9-3.9 10.6-4.5 12.5-.1.3.1 1 .4 1 1 .1 7.4.1 9.2-.1.2 0 .5-.3.4-.8-1.4-3.3-3.3-8.9-4.8-12.9m20.1-73.8c0 2-2.6 3.5-5.2 3.3-11.9-.6-31.6-.6-38.1 0-1 .4-1.8 1.2-2.2 2.2-.4 1.3-.4 4.5-.4 7.4 0 14.9 11.9 31 27.7 31 10.2 0 14.3-3.9 18.2-9.1 1.1-1.5 2.6-1.5 2.6.9 0 1.7-1.7 3.9-2.6 5-6.5 8.5-16.9 14.7-27.5 14.7-20.5 0-32.2-17.5-32.2-37 0-13 5.2-28.1 20.1-36.4 3.9-2.4 9.3-4.1 16.2-4.1 13.5.1 23.4 9.2 23.4 22.1m-44.4-1.9c0 .4.4 1.5.9 1.5 7.4 0 18.2-.4 22.7-.4 4.6-.6 6.9-1.5 6.9-6.1-.2-6.7-7.2-11.7-11.5-11.7-7.9-.1-16.1 6.6-19 16.7m12.5-28.7c.4 1.3 1.6 2.2 3 2l22.2-23.1c1.8-1.8 2.8-3.7 2.8-4.8 0-1.4-1.2-3.2-3-4.6-2.1-1.8-4.3-2.7-5.5-2.7-1.8 0-3.2 2.3-4.3 4.3l-15.2 28.9z"/><path class="st1" d="M125.3 230.4c-35.9-1.2-49.1-40.4-49.8-60.8-1.3-37.8 18.6-55.2 38.7-55.2 33.4 0 50.4 32.2 50.4 62.4-.1 42.2-25.2 54.1-39.3 53.6m73.1 35.4c-2.6 1.1-8.6 1.6-10.5 1.6-5.8 0-11.5-.8-17-2.6-14.7-4.8-32.4-19.7-34.4-30.2-.3-1.5 1.1-1.9 2.1-2.2 25.9-8.6 45.2-31 45.3-60.2.1-32.2-25.2-62.8-63.6-62.8-34 0-64.5 25.1-63.7 63 .5 24.9 14.1 46.8 39 57.6 5.1 2.3 10.6 3.8 16.1 4.7 5.1.9 3.6 1.8 9.1 7.3 6.8 6.6 15.3 17.9 30.3 24.9 10.8 4.9 17.5 6.5 25.9 6.5 6.4 0 16.1-2.5 22.1-5.5 1.3-.7.6-2.6-.7-2.1"/></svg>