<svg id="Layer_1" data-name="Layer 1" xmlns="http://www.w3.org/2000/svg" viewBox="0 0 273.42 273.55"><title>Logo_Biut_corto_RGB</title><path d="M67.73,232.28l0-194.71H104.9v70.65C115.46,93.34,129.61,86,147.18,86c9.27,0,17.54,1.71,24.75,5.3a53.21,53.21,0,0,1,18.39,15.17,67.59,67.59,0,0,1,11.4,23.35,103.8,103.8,0,0,1,4,29.68c0,12-1.5,22.76-4.59,32.2a74,74,0,0,1-12.85,24,56.11,56.11,0,0,1-19.51,15.21A60.82,60.82,0,0,1,143.93,236c-17.72,0-31-7-39.62-21.11l-.26,17.41Zm67.56-27c9.41,0,17.2-3.94,23.24-11.94s8.92-18.47,8.92-31.21c0-29.33-10.77-44-32.44-44-21.1,0-31.58,15.5-31.58,46.4,0,12.18,3,22,9.13,29.51S126.23,205.27,135.29,205.27Z"/></svg>