<?xml version="1.0" encoding="utf-8"?>
<!-- Generator: Adobe Illustrator 23.0.1, SVG Export Plug-In . SVG Version: 6.00 Build 0)  -->
<svg version="1.1" id="Layer_1" xmlns="http://www.w3.org/2000/svg" xmlns:xlink="http://www.w3.org/1999/xlink" x="0px" y="0px"
	 viewBox="0 0 336 336" style="enable-background:new 0 0 336 336;" xml:space="preserve">
<title>Logo_Glamorama_corto_03_RGB</title>
<path d="M232.1,69.6v31.3h-17.6v100.3c0,44.8-18.3,67.2-55.5,67.2c-21.2,0-37-5-47.5-14.6l16.4-28.7c8.6,6.6,17.2,10,25.9,10
	c7.5,0,13.6-2.3,19-7.5c5.2-4.9,7.6-14.4,7.6-28.8v-10.4c-11,12.6-21.8,18.9-32.2,18.9c-12.4,0-22.7-6.4-31.3-19.8
	c-8.8-13-13.1-29.7-13.1-50.2s4.3-37.1,13.3-50.2s19.8-19.5,32.7-19.5c12.4,0,22.6,6.2,30.6,18.5V69.6H232.1z M180.7,138
	c0-11-1.9-19.8-5.8-26.1c-3.8-6.4-8.9-9.5-15.4-9.5c-6.9,0-12,3.3-15.6,9.7c-3.5,6.6-5.2,15.1-5.2,25.4s1.7,18.5,5.4,25.1
	s8.7,9.8,15.3,9.8c5.8,0,10.8-3.1,15-9.1S180.7,148.8,180.7,138z"/>
</svg>
