<svg xmlns="http://www.w3.org/2000/svg" viewBox="0 0 464.1 198.5"><linearGradient id="a" gradientUnits="userSpaceOnUse" x1="0" y1="102.204" x2="137.996" y2="102.204" gradientTransform="matrix(1 0 0 -1 0 201.42)"><stop offset="0" stop-color="#8d4991"/><stop offset="1" stop-color="#8d4991"/></linearGradient><path d="M0 194.7L.1 0h37.1v70.7c10.6-14.9 24.7-22.2 42.3-22.2 9.3 0 17.5 1.7 24.8 5.3 7.2 3.6 13.5 8.8 18.4 15.2 5.3 7 9.1 14.9 11.4 23.3 2.8 9.7 4.1 19.7 4 29.7 0 12-1.5 22.8-4.6 32.2-2.8 8.7-7.1 16.9-12.9 24-5.3 6.5-12 11.7-19.5 15.2-7.8 3.4-16.3 5.1-24.8 5.1-17.7 0-31-7-39.6-21.1l-.3 17.4H0zm67.6-27c9.4 0 17.2-3.9 23.2-11.9s8.9-18.5 8.9-31.2c0-29.3-10.8-44-32.4-44-21.1 0-31.6 15.5-31.6 46.4 0 12.2 3 22 9.1 29.5s13.7 11.2 22.8 11.2z" fill="url(#a)"/><linearGradient id="b" gradientUnits="userSpaceOnUse" x1="151.33" y1="104.025" x2="188.98" y2="104.025" gradientTransform="matrix(1 0 0 -1 0 201.42)"><stop offset="0" stop-color="#8d4991"/><stop offset="1" stop-color="#8d4991"/></linearGradient><path d="M151.3 35.1V.1h37.6v35h-37.6zm0 159.6V52.1h37.6v142.6h-37.6z" fill="url(#b)"/><linearGradient id="c" gradientUnits="userSpaceOnUse" x1="204.879" y1="76.12" x2="333.34" y2="76.12" gradientTransform="matrix(1 0 0 -1 0 201.42)"><stop offset="0" stop-color="#8d4991"/><stop offset="1" stop-color="#8d4991"/></linearGradient><path d="M297.6 194.7v-20c-9.6 15.9-24.5 23.7-44.3 23.7-6.7.1-13.4-1.1-19.6-3.7-5.8-2.5-11-6.1-15.2-10.8-4.4-4.8-7.8-10.4-10-16.6-2.6-6.8-3.8-14.1-3.7-21.4V52.1h37.6v88.1c0 17.8 8 26.6 24 26.6 9.6 0 16.9-3 21.9-9.1s7.4-13.8 7.4-23.3V52.1h37.4l.1 142.6h-35.6z" fill="url(#c)"/><linearGradient id="d" gradientUnits="userSpaceOnUse" x1="348.446" y1="95.395" x2="464.06" y2="95.395" gradientTransform="matrix(1 0 0 -1 0 201.42)"><stop offset="0" stop-color="#8d4991"/><stop offset="1" stop-color="#8d4991"/></linearGradient><path d="M429.2 100.9H464v40.5c0 7.3-1.2 14.6-3.4 21.6-4.4 14-14.8 25.3-28.3 30.9-7.2 3.1-15.8 4.6-25.8 4.6-10.4 0-19.3-1.4-26.7-4.6-6.8-2.8-13-7.1-18-12.5-4.7-5.2-8.2-11.4-10.2-18.1-2.2-7.2-3.2-14.6-3.1-22.1V13.6h37.3v38.5h78.3v26.6l-78.3.1v58.5c0 9.1 1.6 16.1 5.1 21s8.8 7.4 16.5 7.4 13.1-2.3 16.6-7.2 5.3-11.6 5.3-20.6l-.1-37z" fill="url(#d)"/></svg>