<?xml version="1.0" encoding="utf-8"?>
<!-- Generator: Adobe Illustrator 23.0.1, SVG Export Plug-In . SVG Version: 6.00 Build 0)  -->
<svg version="1.1" id="Layer_1" xmlns="http://www.w3.org/2000/svg" xmlns:xlink="http://www.w3.org/1999/xlink" x="0px" y="0px"
	 viewBox="0 0 495.8 98.8" style="enable-background:new 0 0 495.8 98.8;" xml:space="preserve">
<style type="text/css">
	.st0{fill:#FFFFFF;}
</style>
<title>Logo_Copesa_white_RGB</title>
<path class="st0" d="M227.6,74.7L227.6,74.7l-3.5,0.2V28.1l3.5-0.5v4.3c4.8-2.8,8.9-4.8,12.7-4.8c6.9,0,11.7,5.1,11.7,17.3
	c0,12.5-6.3,17.1-14,17.1c-3.6-0.1-7.2-1-10.4-2.5L227.6,74.7z M238,58.4L238,58.4c5.8,0,10.4-3.8,10.4-14.3
	c0-9.9-3.5-13.8-8.1-13.8c-4.1,0-8.6,2.6-12.7,4.9v20.6C230.7,57.2,234.7,58.4,238,58.4z"/>
<path class="st0" d="M490.2,38.1L490.2,38.1c0-4.3-2-6.1-5.1-6.1c-3.3,0-7.3,1.3-12.5,2.8l-0.7-4.8c4.6-1.5,9.9-2.8,13.7-2.8
	c6.1,0,10.2,2.8,10.2,10.7v22.9h-4.3l-0.8-3.8c-3.2,2.8-7.2,4.4-11.4,4.6c-4.6,0-8.6-2.5-8.6-8.7s3.8-9.9,19.6-11.2L490.2,38.1z
	 M490.2,52.3L490.2,52.3v-6.4c-11.7,0.8-14.2,3.3-14.2,6.6c-0.2,2.2,1.5,4.1,3.7,4.3c0.2,0,0.4,0,0.6,0
	C484,56.8,487.6,55.1,490.2,52.3z"/>
<path class="st0" d="M121.9,36.5L121.9,36.5c0,15.3,7.6,21.7,18.5,21.7c3.9,0,7.8-0.7,11.4-2V40.9h-14l0.2-3.3h17.3v20.9
	c-6.9,2.5-10.9,3-15.3,3c-12.7,0-21.9-6.9-21.9-25c0-18.6,9.9-25.2,22.1-25.2c4.5,0.1,8.9,0.9,13,2.6l-0.8,3.3
	c-3.9-1.6-8-2.4-12.2-2.5C130.5,14.6,121.9,20.5,121.9,36.5z"/>
<path class="st0" d="M183.1,31.2L183.1,31.2c-7.1-1.8-7.6-0.8-14.5,7.6v21.9h-3.6V28.1l3.6-0.5v6.9c5.9-8.2,8.4-7.9,15-6.6
	L183.1,31.2z"/>
<path class="st0" d="M210.9,28.1L210.9,28.1l3.6-0.5v33.1h-2.8l-0.8-3.8c-4.6,2.5-8.9,4.6-12.7,4.6c-4.6,0-9.4-2.5-9.4-10.9V28.1
	l3.6-0.5v22.9c0,5.3,2.5,7.9,5.8,7.9c4.1,0,8.9-2.8,12.7-5.1L210.9,28.1z"/>
<path class="st0" d="M273.9,27.1L273.9,27.1c8.9,0,14.7,5.3,14.7,17.3s-5.9,17.1-14.7,17.1c-9.2,0-15-5.1-15-17.1
	S264.7,27.1,273.9,27.1z M273.9,58.4L273.9,58.4c6.6,0,11.2-4.3,11.2-14s-4.6-14-11.2-14c-6.9,0-11.4,4.3-11.4,14
	S267,58.4,273.9,58.4z"/>
<path class="st0" d="M302.1,36.3L302.1,36.3c0,14.8,7.1,19.6,16,19.6c4-0.1,8-0.9,11.7-2.3l1.3,5.6c-4.3,1.5-8.9,2.3-13.5,2.3
	c-11.7,0-21.6-6.6-21.6-25.2c0-18.4,9.9-25,21.6-25c4.6,0,9.1,0.8,13.5,2.3l-1.3,5.6c-3.7-1.6-7.7-2.5-11.7-2.6
	C309.2,16.7,302.1,21.8,302.1,36.3z"/>
<path class="st0" d="M351.1,27.1L351.1,27.1c9.4,0,15.5,5.3,15.5,17.3c0,11.7-6.1,17.1-15.5,17.1s-15.5-5.3-15.5-17.1
	C335.6,32.4,341.7,27.1,351.1,27.1z M351.1,56.7L351.1,56.7c5.8,0,9.9-3.8,9.9-12.2c0-8.6-4.1-12.5-9.9-12.5s-9.9,3.8-9.9,12.5
	C341.2,52.8,345.3,56.7,351.1,56.7z"/>
<path class="st0" d="M379.1,74.5L379.1,74.5l-5.6,0.5V27.9l5.6-0.3v3.8c4.3-2.5,8.4-4.3,12-4.3c6.8,0,11.6,5.3,11.6,17.3
	c0,12.2-6.4,17.1-14,17.1c-3.4,0-6.7-0.8-9.7-2.3L379.1,74.5z M388,56.7L388,56.7c5.1,0,9.1-3.3,9.1-12.5c0-8.7-3.1-12-7.1-12
	c-3.3,0-7.4,2.3-10.9,4.1v18.2C381.9,55.8,384.9,56.5,388,56.7z"/>
<path class="st0" d="M414.4,46.2L414.4,46.2c0.2,7.9,4.3,10.4,9.9,10.4c3.3-0.1,6.5-0.7,9.7-1.8l0.8,4.6c-3.5,1.3-7.2,2-10.9,2
	c-8.7,0-15-4.6-15-17.1s6.1-17.3,14.7-17.3c8.4,0,14.2,6.4,12.2,19.1L414.4,46.2z M414.4,41.9h16.3c0.3-6.4-2.5-10.2-7.3-10.2
	C418,31.7,414.7,35,414.4,41.9z"/>
<path class="st0" d="M444.1,54.9L444.1,54.9c3,1.1,6.2,1.7,9.4,1.8c3.3,0,6.1-1.3,6.1-5.1c0-6.1-16.8-4.6-16.8-15.3
	c0-6.4,4.6-9.2,11.5-9.2c3.3,0.1,6.6,0.7,9.6,2l-0.8,4.6c-2.9-1.1-6-1.7-9.1-1.8c-3.1,0-5.9,1-5.6,4.6c0,5.9,16.8,4.6,16.8,15.3
	c0,6.6-5.1,9.7-11.9,9.7c-3.4,0-6.8-0.7-9.9-2L444.1,54.9z"/>
<path class="st0" d="M5.7,16.7L5.7,16.7c1.2-2.3,2.9-4.4,4.8-6.1c12-12,31-13.5,48.6-5.8l0.8,5.1c-11.9-5.1-24.4-4.3-31.8,3.1
	c-2.5,2.6-4.3,5.7-5.3,9.2L5.7,16.7z M88.9,38.8L88.9,38.8c5.1,12,4.3,24.5-3.1,31.9c-1,1.1-2.2,2.1-3.6,2.8l6.9,14
	c11.2-12,12.5-30.6,4.8-47.9L88.9,38.8z M76.7,76L76.7,76C65,79.6,48.9,74.5,36.7,62C26.3,51.6,21,38.3,21.7,27.4L2.2,24.1
	c-5.8,16.8,0.2,39.2,16.8,55.8C38,98.9,64.4,104,81.9,93.3L76.7,76z"/>
</svg>
