<?xml version="1.0" encoding="utf-8"?>
<!-- Generator: Adobe Illustrator 23.0.1, SVG Export Plug-In . SVG Version: 6.00 Build 0)  -->
<svg version="1.1" id="Layer_1" xmlns="http://www.w3.org/2000/svg" xmlns:xlink="http://www.w3.org/1999/xlink" x="0px" y="0px"
	 viewBox="0 0 1045.8 176.1" style="enable-background:new 0 0 1045.8 176.1;" xml:space="preserve">
<style type="text/css">
	.st0{fill:#FFFFFF;}
	.st1{fill:#B2292E;}
</style>
<title>Logo_PulsoTrader_white_color_RGB</title>
<path class="st0" d="M239.2,10.1h-68.5v9.4h75.6C244.6,15.9,242.2,12.7,239.2,10.1z"/>
<path class="st0" d="M248.2,85.2h-77.4v9.4h73.2C245.9,91.8,247.4,88.6,248.2,85.2z"/>
<rect x="170.8" y="31.6" class="st0" width="28.4" height="9.4"/>
<rect x="170.8" y="74.5" class="st0" width="28.4" height="9.4"/>
<path class="st0" d="M211.5,1.6h-40.7v6.9h66.7C231.2,4.2,222.7,1.6,211.5,1.6z"/>
<path class="st0" d="M221.3,74.5c0,5.6-2.5,8.5-6.9,9.4h34.2c0.7-3.1,1.1-6.2,1.1-9.4H221.3z"/>
<path class="st0" d="M198.9,25.7h12.3c4.2,0,7.2,1.6,8.5,4.5h29.3c-0.3-3.2-1.2-6.4-2.5-9.4h-76v9.4H199L198.9,25.7z"/>
<rect x="221.3" y="53" class="st0" width="28.4" height="9.4"/>
<rect x="170.8" y="53" class="st0" width="28.4" height="9.4"/>
<rect x="170.8" y="42.3" class="st0" width="28.4" height="9.4"/>
<rect x="170.8" y="63.8" class="st0" width="28.4" height="9.4"/>
<rect x="170.8" y="138.9" class="st0" width="28.4" height="9.4"/>
<rect x="170.8" y="149.7" class="st0" width="28.4" height="9.4"/>
<rect x="170.8" y="160.6" class="st0" width="28.4" height="9.4"/>
<rect x="221.3" y="42.3" class="st0" width="28.4" height="9.4"/>
<path class="st0" d="M243,96h-72.3v9.4h59.1C235.1,103.6,239.7,100.4,243,96z"/>
<rect x="170.8" y="171.4" class="st0" width="28.4" height="2.9"/>
<rect x="170.8" y="117.5" class="st0" width="28.4" height="9.4"/>
<rect x="221.3" y="63.8" class="st0" width="28.4" height="9.4"/>
<path class="st0" d="M198.9,108.5h12.3c4.7,0,9.5-0.5,14.1-1.6h-54.6v9.4h28.4L198.9,108.5L198.9,108.5z"/>
<path class="st0" d="M249.6,35.8c0-1.4,0-2.8-0.2-4.2h-28.9c0.5,1.4,0.7,2.8,0.7,4.2v5.4h28.5V35.8z"/>
<rect x="170.8" y="128.2" class="st0" width="28.4" height="9.4"/>
<rect x="260.7" y="128.2" class="st0" width="28.4" height="9.4"/>
<rect x="311.9" y="63.8" class="st0" width="28.4" height="9.4"/>
<rect x="260.7" y="96" class="st0" width="28.4" height="9.4"/>
<rect x="260.7" y="106.7" class="st0" width="28.4" height="9.4"/>
<rect x="260.7" y="117.5" class="st0" width="28.4" height="9.4"/>
<path class="st0" d="M289.1,140.9v-2h-28.4v2c0,2.6,0.2,5.1,0.7,7.6h30.9C290.1,146.6,289,143.8,289.1,140.9z"/>
<path class="st0" d="M339.5,149.7h-32.9c-1.9,0.7-3.8,1.1-5.8,1.1c-2.1,0-4.1-0.4-6-1.1h-32.9c0.7,3.3,1.9,6.5,3.6,9.4h70.3
	C337.5,156.2,338.7,153,339.5,149.7z"/>
<rect x="311.9" y="74.5" class="st0" width="28.4" height="9.4"/>
<rect x="311.9" y="10.1" class="st0" width="28.4" height="9.4"/>
<rect x="260.7" y="85.2" class="st0" width="28.4" height="9.4"/>
<rect x="260.7" y="10.1" class="st0" width="28.4" height="9.4"/>
<rect x="311.9" y="85.2" class="st0" width="28.4" height="9.4"/>
<rect x="311.9" y="20.8" class="st0" width="28.4" height="9.4"/>
<rect x="260.7" y="74.5" class="st0" width="28.4" height="9.4"/>
<path class="st0" d="M340.4,138.9h-28.4v2c0.1,2.9-1,5.7-3.1,7.6h30.9c0.5-2.5,0.7-5.1,0.7-7.6V138.9L340.4,138.9z"/>
<rect x="311.9" y="96" class="st0" width="28.4" height="9.4"/>
<rect x="311.9" y="1.6" class="st0" width="28.4" height="6.9"/>
<rect x="260.7" y="20.8" class="st0" width="28.4" height="9.4"/>
<rect x="311.9" y="42.3" class="st0" width="28.4" height="9.4"/>
<rect x="260.7" y="31.6" class="st0" width="28.4" height="9.4"/>
<rect x="311.9" y="53" class="st0" width="28.4" height="9.4"/>
<path class="st0" d="M300.6,175.6c8.7,0,15.9-1.6,21.7-4.5h-43.7C284.6,174.1,291.8,175.6,300.6,175.6z"/>
<rect x="311.9" y="31.6" class="st0" width="28.4" height="9.4"/>
<rect x="311.9" y="117.5" class="st0" width="28.4" height="9.4"/>
<rect x="311.9" y="106.7" class="st0" width="28.4" height="9.4"/>
<rect x="260.7" y="1.6" class="st0" width="28.4" height="6.9"/>
<rect x="260.7" y="63.8" class="st0" width="28.4" height="9.4"/>
<path class="st0" d="M335,160.6h-68.7c2.6,3.9,6,7.1,10.1,9.4h48.8C329,167.6,332.4,164.4,335,160.6z"/>
<rect x="260.7" y="42.3" class="st0" width="28.4" height="9.4"/>
<rect x="311.9" y="128.2" class="st0" width="28.4" height="9.4"/>
<rect x="260.7" y="53" class="st0" width="28.4" height="9.4"/>
<rect x="357.8" y="53" class="st0" width="28.4" height="9.4"/>
<rect x="357.8" y="171.4" class="st0" width="66.2" height="2.9"/>
<rect x="357.8" y="128.2" class="st0" width="28.4" height="9.4"/>
<rect x="357.8" y="96" class="st0" width="28.4" height="9.4"/>
<rect x="357.8" y="106.7" class="st0" width="28.4" height="9.4"/>
<rect x="357.8" y="31.6" class="st0" width="28.4" height="9.4"/>
<polygon class="st0" points="386.2,150.4 386.2,149.7 357.8,149.7 357.8,159.3 424,159.3 424,150.4 "/>
<rect x="357.8" y="117.5" class="st0" width="28.4" height="9.4"/>
<rect x="357.8" y="42.3" class="st0" width="28.4" height="9.4"/>
<rect x="357.8" y="160.6" class="st0" width="66.2" height="9.4"/>
<rect x="357.8" y="74.5" class="st0" width="28.4" height="9.4"/>
<rect x="357.8" y="10.1" class="st0" width="28.4" height="9.4"/>
<rect x="357.8" y="1.6" class="st0" width="28.4" height="6.9"/>
<rect x="357.8" y="63.8" class="st0" width="28.4" height="9.4"/>
<rect x="357.8" y="138.9" class="st0" width="28.4" height="9.4"/>
<rect x="357.8" y="85.2" class="st0" width="28.4" height="9.4"/>
<rect x="357.8" y="20.8" class="st0" width="28.4" height="9.4"/>
<path class="st0" d="M429,140.9c0,2.6,0.2,5.1,0.7,7.6h30.7c-2.2-1.6-3.4-4-3.4-7.6v-2h-28L429,140.9z"/>
<path class="st0" d="M469,150.8c-2.1,0-4.3-0.4-6.3-1.1h-32.9c0.7,3.3,1.9,6.5,3.6,9.4h70.7c1.7-2.9,2.9-6.1,3.6-9.4h-32.9
	C473,150.6,471,150.9,469,150.8z"/>
<rect x="429.8" y="42.3" class="st0" width="28.4" height="9.4"/>
<path class="st0" d="M440.8,83.9h45.7c-4.3-3.4-8.5-6.5-12.5-9.4h-39.2C436.4,77.9,438.4,81,440.8,83.9z"/>
<rect x="429" y="128.2" class="st0" width="28" height="9.4"/>
<rect x="480.4" y="128.2" class="st0" width="28.4" height="9.4"/>
<path class="st0" d="M429.8,40.9h28.4v-7.2c0-0.8,0-1.5,0.2-2.2h-28.6V40.9z"/>
<path class="st0" d="M508.6,138.9h-28.4v3.1c0.1,2.4-1,4.8-2.9,6.3h30.7c0.4-2.2,0.7-4.5,0.7-6.7L508.6,138.9z"/>
<path class="st0" d="M466.8,105.4h37.8c-1.5-3.3-3.4-6.5-5.6-9.4h-44.7C458.3,99.3,462.7,102.5,466.8,105.4z"/>
<path class="st0" d="M429.8,30.2h28.9c1.3-3.4,4.9-5.1,10.1-5.1c4.7,0,8.5,1.8,10.3,5.1h28.4c-0.4-3.2-1.1-6.4-2.2-9.4h-73.4
	C430.9,23.9,430.3,27,429.8,30.2z"/>
<rect x="429" y="117.5" class="st0" width="28" height="9.4"/>
<path class="st0" d="M503.5,160.6h-69.1c2.5,3.8,5.9,7,9.8,9.4h49C497.3,167.8,500.8,164.5,503.5,160.6z"/>
<path class="st0" d="M469,0.2c-12.8,0-22.2,3.1-28.6,8.5h56.4C490.3,3.4,481.1,0.2,469,0.2z"/>
<path class="st0" d="M434.1,73.2h38c-3.7-2.7-7-5.8-9.8-9.4H431C431.6,67,432.7,70.2,434.1,73.2z"/>
<rect x="429" y="112.6" class="st0" width="28" height="3.6"/>
<path class="st0" d="M452.2,94.7h45.4c-2.9-3.5-6.1-6.6-9.6-9.4h-46.1C445.1,88.7,448.5,91.8,452.2,94.7z"/>
<path class="st0" d="M504.8,19.5c-1.6-3.5-3.8-6.7-6.5-9.4h-59.5c-2.7,2.7-4.9,5.9-6.5,9.4H504.8z"/>
<path class="st0" d="M480.4,126.9h28.4v-0.9c0-2.9-0.2-5.8-0.7-8.7H478C479.5,120.2,480.4,123.5,480.4,126.9z"/>
<rect x="480.4" y="42.3" class="st0" width="27.5" height="9.4"/>
<path class="st0" d="M468.6,175.6c9,0,16.3-1.6,22.4-4.5h-43.8C452.7,174.1,459.8,175.6,468.6,175.6z"/>
<rect x="480.4" y="53" class="st0" width="27.5" height="9.4"/>
<path class="st0" d="M429.8,53c0.1,3.2,0.3,6.3,0.9,9.4h30.7c-1.8-2.8-2.9-6.1-3.1-9.4H429.8z"/>
<path class="st0" d="M480.4,34.9v6h27.5v-6c0-1.1,0-2.2-0.2-3.4h-28C480.2,32.7,480.4,33.8,480.4,34.9z"/>
<path class="st0" d="M477.3,116.1h30.7c-0.6-3.2-1.5-6.3-2.7-9.4h-36.7C471.9,109.5,474.8,112.6,477.3,116.1z"/>
<rect x="572.4" y="117.5" class="st0" width="28.4" height="9.4"/>
<path class="st0" d="M560.7,0.2c-12.1,0-21.5,3.1-28.2,8.5h56.4C582.4,3.4,573,0.2,560.7,0.2z"/>
<rect x="572.4" y="106.7" class="st0" width="28.4" height="9.4"/>
<path class="st0" d="M572.4,140.9c0.1,3-1.2,5.8-3.6,7.6h31.3c0.5-2.5,0.7-5.1,0.7-7.6v-2h-28.4V140.9L572.4,140.9z"/>
<rect x="572.4" y="96" class="st0" width="28.4" height="9.4"/>
<path class="st0" d="M536.3,170h48.8c4.1-2.3,7.5-5.5,10.1-9.4h-68.6C529.1,164.4,532.5,167.6,536.3,170z"/>
<path class="st0" d="M560.7,175.6c8.7,0,16.1-1.6,21.9-4.5H539C544.8,174.1,552,175.6,560.7,175.6z"/>
<path class="st0" d="M560.7,150.8c-1.9,0-3.8-0.4-5.6-1.1H522c0.7,3.3,1.9,6.5,3.6,9.4h70.5c1.7-2.9,3-6.1,3.6-9.4h-33.3
	C564.6,150.6,562.7,150.9,560.7,150.8z"/>
<rect x="572.4" y="85.2" class="st0" width="28.4" height="9.4"/>
<rect x="572.4" y="128.2" class="st0" width="28.4" height="9.4"/>
<path class="st0" d="M521.4,30.2h29.1c1.8-3.4,5.6-5.1,10.3-5.1c4.9,0,8.7,1.8,10.5,5.1h29.3c-0.4-3.2-1.1-6.4-2.2-9.4h-74.8
	C522.5,23.8,521.7,27,521.4,30.2z"/>
<path class="st0" d="M531,10.1c-2.9,2.6-5.2,5.8-6.7,9.4h73.2c-1.6-3.6-3.8-6.8-6.7-9.4H531z"/>
<path class="st0" d="M521.1,140.9c0,2.6,0.2,5.1,0.7,7.6h31.1c-2.3-1.8-3.7-4.6-3.6-7.6v-2h-28.4L521.1,140.9L521.1,140.9z"/>
<path class="st0" d="M572.4,34.9v6h28.4v-6c0-1.1,0-2.2-0.2-3.4h-28.9C572.1,32.7,572.4,33.8,572.4,34.9z"/>
<rect x="572.4" y="63.8" class="st0" width="28.4" height="9.4"/>
<rect x="572.4" y="53" class="st0" width="28.4" height="9.4"/>
<rect x="572.4" y="42.3" class="st0" width="28.4" height="9.4"/>
<rect x="572.4" y="74.5" class="st0" width="28.4" height="9.4"/>
<rect x="521.1" y="96" class="st0" width="28.4" height="9.4"/>
<rect x="521.1" y="42.3" class="st0" width="28.4" height="9.4"/>
<rect x="521.1" y="85.2" class="st0" width="28.4" height="9.4"/>
<rect x="521.1" y="74.5" class="st0" width="28.4" height="9.4"/>
<rect x="521.1" y="106.7" class="st0" width="28.4" height="9.4"/>
<rect x="521.1" y="63.8" class="st0" width="28.4" height="9.4"/>
<rect x="521.1" y="117.5" class="st0" width="28.4" height="9.4"/>
<rect x="521.1" y="128.2" class="st0" width="28.4" height="9.4"/>
<rect x="521.1" y="53" class="st0" width="28.4" height="9.4"/>
<path class="st0" d="M521.1,40.9h28.4v-6c0-1.2,0.2-2.3,0.7-3.4h-28.9c0,1.1-0.2,2.2-0.2,3.4V40.9z"/>
<path class="st0" d="M198.9,83.9L198.9,83.9l12.3,0.2c1.1,0,2-0.2,3.1-0.2"/>
<path class="st0" d="M460.3,148.6c0.8,0.5,1.6,0.9,2.5,1.3"/>
<path class="st0" d="M475,149.7c0.9-0.5,1.6-0.9,2.5-1.4"/>
<path class="st0" d="M611.6,1.1v5.2h31.1v169.6h7.2V6.3h31.3V0h-69.6V1.1z"/>
<path class="st0" d="M744,115.4c-1.4-3.1-3.5-5.8-6-8c3.2-1.6,5.8-4.1,7.6-7.2c3.4-5.6,4.5-12.1,5.4-18.4c0.7-8.9,1-17.9,0.9-26.9
	V44.3c0-8.7,0-17.7-2.5-26.4c-1.6-5.6-4.2-9.8-7.8-12.5c-4.2-3.4-10.1-5.2-17.5-5.2h-26v175.9h7.2v-66.2h23.9
	c4.2,0.2,6.9,4.7,8.5,8.1c2.7,6.5,3.8,13.6,4.7,21.5l4.7,36.5h7.2l-4.7-36.9C748.5,131.1,747.3,122.8,744,115.4z M705.1,6.3h18.6
	c5.1,0,9.4,1.1,12.3,3.3c2.9,2.3,5,5.4,6,9c1.8,5.6,2.2,11.4,2.5,17s0.2,11.4,0.2,17v9.2c0,8.5-0.2,17.5-1.8,26
	c-0.9,4.2-2.2,9.2-5.4,12.5c-2.4,2.2-5.5,3.4-8.7,3.4h-23.5V6.3H705.1z"/>
<path class="st0" d="M808.7,0.9V0h-13.4L795,0.9c-8.5,58-17,115.7-25.5,173.6l-0.2,1.4h7.4l6-42.5h38.5l6,42.5h7.4l-0.2-1.4
	C825.6,116.8,817.1,58.9,808.7,0.9z M802.7,6.3l17.2,121h-36.3c4.7-33.3,9.6-66.7,14.3-100l2.9-21L802.7,6.3z"/>
<path class="st0" d="M906.2,50.8c0-8.5,0-17.2-1.3-25.7c-1.6-9-4.2-15-8.7-19.2c-5.6-4.9-13-5.8-18.3-5.8h-26.6v175.9h28.2
	c8,0,15-3.1,19-8.3c5.6-7.4,6.9-16.8,7.6-25.3c0.5-8.1,0.5-16.1,0.5-23.9C906.2,115.2,906.2,52.8,906.2,50.8z M899,72.9v61.5
	c0.1,6.6-0.4,13.2-1.6,19.7c-1.3,5.4-3.4,9.4-6.5,11.6c-2.9,2.5-7.2,3.6-12.3,3.6h-20.4V5.8h20.6c5.1,0,9.6,1.6,12.5,4.5
	c3.1,2.9,5.1,7.4,6.3,13.9s1.1,13.4,1.1,19.9L899,72.9z"/>
<path class="st0" d="M927.2,175.9h45.9v-6.3h-38.7V91.1h36.2v-6.3h-36.2V6.3h38.7V0h-45.9V175.9z"/>
<path class="st0" d="M1041.4,138.5c-0.6-5.9-1.7-11.8-3.4-17.4c-1.3-4.2-3.6-9.9-8.3-13.6c2.2-1.1,4.2-2.6,5.9-4.5
	c4-4.9,5.6-11.4,6.5-17.2c1.3-9.9,1.3-19.7,1.3-29.5V44.8c0-7.6,0-15.7-1.6-23.5c-1.6-7.2-4-12.3-8.1-15.7
	c-4.2-3.6-10.1-5.6-17.4-5.6h-26.7v175.9h7.2v-66.2h23c1.9,0,3.7,0.6,5.1,1.8c2.2,2.2,3.9,4.9,4.9,7.8c2.2,6,3.1,12.8,4,19l4.7,37.6
	h7.2L1041.4,138.5z M1036.4,59.1c0,9.2,0,18.8-1.6,28.2c-1.1,5.1-2.5,10.3-6.3,13.4c-2.2,1.8-5.4,2.7-9.4,2.7h-21.9V6.3h19.7
	c3.4,0,9.4,0.9,13.2,5.1c3.8,4.3,5.1,10.3,5.8,15c0.7,7,1,14,0.9,21v5.8C1036.5,55.2,1036.4,57.1,1036.4,59.1z"/>
<rect y="1.6" class="st1" width="148.7" height="142.7"/>
<polygon class="st0" points="17.8,27.8 32.1,27.8 32.1,106.1 73.1,106.1 73.1,118.8 17.8,118.8 "/>
<polygon class="st0" points="89.5,40.5 62.4,40.5 62.4,27.8 130.8,27.8 130.8,40.5 103.8,40.5 103.8,118.8 89.5,118.8 "/>
<polygon class="st1" points="35.1,156 28.8,156 28.8,153.1 44.6,153.1 44.6,156 38.4,156 38.4,174 35.1,174 "/>
<path class="st1" d="M76.8,174h-3.9l-3.6-5.1c-0.5,0.1-1,0.1-1.5,0.1h-2.1v5h-3.3v-21h5.4c5.8,0,8.9,3.2,8.9,8c0.2,3-1.5,5.8-4.2,7
	L76.8,174z M67.7,166.2c4,0,5.7-1.9,5.7-5.1s-1.7-5.1-5.7-5.1h-2v10.2L67.7,166.2z"/>
<path class="st1" d="M78.1,163.5c-0.1-5.8,4.5-10.6,10.3-10.7c0.1,0,0.3,0,0.4,0c3.3-0.2,6.5,1.4,8.4,4.1l-2.5,1.8
	c-1.4-1.9-3.6-3-6-2.9c-4.2,0-7.2,3.3-7.2,7.8s3.1,7.8,7.3,7.8c2.5,0.1,4.8-1,6.3-3l2.6,1.8c-2.1,2.9-5.5,4.5-9,4.3
	c-5.8,0.1-10.5-4.5-10.6-10.3C78,163.9,78,163.7,78.1,163.5"/>
<path class="st1" d="M129.4,174h-3.9l-3.6-5.1c-0.5,0.1-1,0.1-1.5,0.1h-2.1v5h-3.3v-21h5.4c5.8,0,8.9,3.2,8.9,8c0.2,3-1.5,5.8-4.2,7
	L129.4,174z M120.3,166.2c4,0,5.7-1.9,5.7-5.1s-1.7-5.1-5.7-5.1h-1.9v10.2L120.3,166.2z"/>
<path class="st1" d="M133.4,174h-3.3l9.2-21.4h0.2l9.2,21.4h-3.5l-1.2-2.9h-9.4L133.4,174z M139.3,159.9l-3.5,8.3h6.9L139.3,159.9z"
	/>
<polygon class="st1" points="113.1,171.1 102.7,171.1 102.7,167.5 111.6,167.5 111.6,164.7 102.7,164.7 102.7,156 113.1,156 
	113.1,153.1 99.4,153.1 99.4,174 113.1,174 "/>
<polygon class="st1" points="49.9,167.5 58.9,167.5 58.9,164.7 49.9,164.7 49.9,156 60.4,156 60.4,153.1 46.7,153.1 46.7,174 
	60.4,174 60.4,171.1 49.9,171.1 "/>
<polygon class="st1" points="0,153.1 3.3,153.1 3.3,171.1 12.8,171.1 12.8,174 0,174 "/>
<path class="st1" d="M13.7,174h-3.3l9.2-21.4h0.2L29,174h-3.5l-1.2-2.9h-9.4L13.7,174z M19.6,159.9l-3.5,8.3h6.9L19.6,159.9z"/>
</svg>
