<svg version="1.1" id="Layer_1" xmlns="http://www.w3.org/2000/svg" x="0" y="0" viewBox="0 0 1045.8 176.1" xml:space="preserve"><style>.st0{fill:#fff}.st1{fill:#b2292e}</style><path class="st0" d="M239.2 10.1h-68.5v9.4h75.6c-1.7-3.6-4.1-6.8-7.1-9.4zm9 75.1h-77.4v9.4H244c1.9-2.8 3.4-6 4.2-9.4zm-77.4-53.6h28.4V41h-28.4zm0 42.9h28.4v9.4h-28.4zm40.7-72.9h-40.7v6.9h66.7c-6.3-4.3-14.8-6.9-26-6.9zm9.8 72.9c0 5.6-2.5 8.5-6.9 9.4h34.2c.7-3.1 1.1-6.2 1.1-9.4h-28.4zm-22.4-48.8h12.3c4.2 0 7.2 1.6 8.5 4.5H249c-.3-3.2-1.2-6.4-2.5-9.4h-76v9.4H199l-.1-4.5zM221.3 53h28.4v9.4h-28.4zm-50.5 0h28.4v9.4h-28.4zm0-10.7h28.4v9.4h-28.4zm0 21.5h28.4v9.4h-28.4zm0 75.1h28.4v9.4h-28.4zm0 10.8h28.4v9.4h-28.4zm0 10.9h28.4v9.4h-28.4zm50.5-118.3h28.4v9.4h-28.4zM243 96h-72.3v9.4h59.1c5.3-1.8 9.9-5 13.2-9.4zm-72.2 75.4h28.4v2.9h-28.4zm0-53.9h28.4v9.4h-28.4zm50.5-53.7h28.4v9.4h-28.4zm-22.4 44.7h12.3c4.7 0 9.5-.5 14.1-1.6h-54.6v9.4h28.4l-.2-7.8zm50.7-72.7c0-1.4 0-2.8-.2-4.2h-28.9c.5 1.4.7 2.8.7 4.2v5.4h28.5v-5.4zm-78.8 92.4h28.4v9.4h-28.4zm89.9 0h28.4v9.4h-28.4zm51.2-64.4h28.4v9.4h-28.4zM260.7 96h28.4v9.4h-28.4zm0 10.7h28.4v9.4h-28.4zm0 10.8h28.4v9.4h-28.4zm28.4 23.4v-2h-28.4v2c0 2.6.2 5.1.7 7.6h30.9c-2.2-1.9-3.3-4.7-3.2-7.6zm50.4 8.8h-32.9c-1.9.7-3.8 1.1-5.8 1.1-2.1 0-4.1-.4-6-1.1h-32.9c.7 3.3 1.9 6.5 3.6 9.4h70.3c1.7-2.9 2.9-6.1 3.7-9.4zm-27.6-75.2h28.4v9.4h-28.4zm0-64.4h28.4v9.4h-28.4zm-51.2 75.1h28.4v9.4h-28.4zm0-75.1h28.4v9.4h-28.4zm51.2 75.1h28.4v9.4h-28.4zm0-64.4h28.4v9.4h-28.4zm-51.2 53.7h28.4v9.4h-28.4zm79.7 64.4H312v2c.1 2.9-1 5.7-3.1 7.6h30.9c.5-2.5.7-5.1.7-7.6v-2h-.1zM311.9 96h28.4v9.4h-28.4zm0-94.4h28.4v6.9h-28.4zm-51.2 19.2h28.4v9.4h-28.4zm51.2 21.5h28.4v9.4h-28.4zm-51.2-10.7h28.4V41h-28.4zM311.9 53h28.4v9.4h-28.4zm-11.3 122.6c8.7 0 15.9-1.6 21.7-4.5h-43.7c6 3 13.2 4.5 22 4.5zm11.3-144h28.4V41h-28.4zm0 85.9h28.4v9.4h-28.4zm0-10.8h28.4v9.4h-28.4zM260.7 1.6h28.4v6.9h-28.4zm0 62.2h28.4v9.4h-28.4zm74.3 96.8h-68.7c2.6 3.9 6 7.1 10.1 9.4h48.8c3.8-2.4 7.2-5.6 9.8-9.4zM260.7 42.3h28.4v9.4h-28.4zm51.2 85.9h28.4v9.4h-28.4zM260.7 53h28.4v9.4h-28.4zm97.1 0h28.4v9.4h-28.4zm0 118.4H424v2.9h-66.2zm0-43.2h28.4v9.4h-28.4zm0-32.2h28.4v9.4h-28.4zm0 10.7h28.4v9.4h-28.4zm0-75.1h28.4V41h-28.4zm28.4 118.8v-.7h-28.4v9.6H424v-8.9zm-28.4-32.9h28.4v9.4h-28.4zm0-75.2h28.4v9.4h-28.4zm0 118.3H424v9.4h-66.2zm0-86.1h28.4v9.4h-28.4zm0-64.4h28.4v9.4h-28.4zm0-8.5h28.4v6.9h-28.4zm0 62.2h28.4v9.4h-28.4zm0 75.1h28.4v9.4h-28.4zm0-53.7h28.4v9.4h-28.4zm0-64.4h28.4v9.4h-28.4zM429 140.9c0 2.6.2 5.1.7 7.6h30.7c-2.2-1.6-3.4-4-3.4-7.6v-2h-28v2zm40 9.9c-2.1 0-4.3-.4-6.3-1.1h-32.9c.7 3.3 1.9 6.5 3.6 9.4h70.7c1.7-2.9 2.9-6.1 3.6-9.4h-32.9c-1.8.9-3.8 1.2-5.8 1.1zM429.8 42.3h28.4v9.4h-28.4zm11 41.6h45.7c-4.3-3.4-8.5-6.5-12.5-9.4h-39.2c1.6 3.4 3.6 6.5 6 9.4zM429 128.2h28v9.4h-28zm51.4 0h28.4v9.4h-28.4zm-50.6-87.3h28.4v-7.2c0-.8 0-1.5.2-2.2h-28.6v9.4zm78.8 98h-28.4v3.1c.1 2.4-1 4.8-2.9 6.3H508c.4-2.2.7-4.5.7-6.7l-.1-2.7zm-41.8-33.5h37.8c-1.5-3.3-3.4-6.5-5.6-9.4h-44.7c4 3.3 8.4 6.5 12.5 9.4zm-37-75.2h28.9c1.3-3.4 4.9-5.1 10.1-5.1 4.7 0 8.5 1.8 10.3 5.1h28.4c-.4-3.2-1.1-6.4-2.2-9.4h-73.4c-1 3.1-1.6 6.2-2.1 9.4zm-.8 87.3h28v9.4h-28zm74.5 43.1h-69.1c2.5 3.8 5.9 7 9.8 9.4h49c4.1-2.2 7.6-5.5 10.3-9.4zM469 .2c-12.8 0-22.2 3.1-28.6 8.5h56.4C490.3 3.4 481.1.2 469 .2zm-34.9 73h38c-3.7-2.7-7-5.8-9.8-9.4H431c.6 3.2 1.7 6.4 3.1 9.4zm-5.1 39.4h28v3.6h-28zm23.2-17.9h45.4c-2.9-3.5-6.1-6.6-9.6-9.4h-46.1c3.2 3.4 6.6 6.5 10.3 9.4zm52.6-75.2c-1.6-3.5-3.8-6.7-6.5-9.4h-59.5c-2.7 2.7-4.9 5.9-6.5 9.4h72.5zm-24.4 107.4h28.4v-.9c0-2.9-.2-5.8-.7-8.7H478c1.5 2.9 2.4 6.2 2.4 9.6zm0-84.6h27.5v9.4h-27.5zm-11.8 133.3c9 0 16.3-1.6 22.4-4.5h-43.8c5.5 3 12.6 4.5 21.4 4.5zM480.4 53h27.5v9.4h-27.5zm-50.6 0c.1 3.2.3 6.3.9 9.4h30.7c-1.8-2.8-2.9-6.1-3.1-9.4h-28.5zm50.6-18.1v6h27.5v-6c0-1.1 0-2.2-.2-3.4h-28c.5 1.2.7 2.3.7 3.4zm-3.1 81.2H508c-.6-3.2-1.5-6.3-2.7-9.4h-36.7c3.3 2.8 6.2 5.9 8.7 9.4zm95.1 1.4h28.4v9.4h-28.4zM560.7.2c-12.1 0-21.5 3.1-28.2 8.5h56.4C582.4 3.4 573 .2 560.7.2zm11.7 106.5h28.4v9.4h-28.4zm0 34.2c.1 3-1.2 5.8-3.6 7.6h31.3c.5-2.5.7-5.1.7-7.6v-2h-28.4v2zm0-44.9h28.4v9.4h-28.4zm-36.1 74h48.8c4.1-2.3 7.5-5.5 10.1-9.4h-68.6c2.5 3.8 5.9 7 9.7 9.4zm24.4 5.6c8.7 0 16.1-1.6 21.9-4.5H539c5.8 3 13 4.5 21.7 4.5zm0-24.8c-1.9 0-3.8-.4-5.6-1.1H522c.7 3.3 1.9 6.5 3.6 9.4h70.5c1.7-2.9 3-6.1 3.6-9.4h-33.3c-1.8.9-3.7 1.2-5.7 1.1zm11.7-65.6h28.4v9.4h-28.4zm0 43h28.4v9.4h-28.4zm-51-98h29.1c1.8-3.4 5.6-5.1 10.3-5.1 4.9 0 8.7 1.8 10.5 5.1h29.3c-.4-3.2-1.1-6.4-2.2-9.4h-74.8c-1.1 3-1.9 6.2-2.2 9.4zm9.6-20.1c-2.9 2.6-5.2 5.8-6.7 9.4h73.2c-1.6-3.6-3.8-6.8-6.7-9.4H531zm-9.9 130.8c0 2.6.2 5.1.7 7.6h31.1c-2.3-1.8-3.7-4.6-3.6-7.6v-2h-28.4l.2 2zm51.3-106v6h28.4v-6c0-1.1 0-2.2-.2-3.4h-28.9c.4 1.2.7 2.3.7 3.4zm0 28.9h28.4v9.4h-28.4zm0-10.8h28.4v9.4h-28.4zm0-10.7h28.4v9.4h-28.4zm0 32.2h28.4v9.4h-28.4zM521.1 96h28.4v9.4h-28.4zm0-53.7h28.4v9.4h-28.4zm0 42.9h28.4v9.4h-28.4zm0-10.7h28.4v9.4h-28.4zm0 32.2h28.4v9.4h-28.4zm0-42.9h28.4v9.4h-28.4zm0 53.7h28.4v9.4h-28.4zm0 10.7h28.4v9.4h-28.4zm0-75.2h28.4v9.4h-28.4zm0-12.1h28.4v-6c0-1.2.2-2.3.7-3.4h-28.9c0 1.1-.2 2.2-.2 3.4v6zm-322.2 43l12.3.2c1.1 0 2-.2 3.1-.2m246 64.7c.8.5 1.6.9 2.5 1.3m12.2-.2c.9-.5 1.6-.9 2.5-1.4M611.6 1.1v5.2h31.1v169.6h7.2V6.3h31.3V0h-69.6v1.1zM744 115.4c-1.4-3.1-3.5-5.8-6-8 3.2-1.6 5.8-4.1 7.6-7.2 3.4-5.6 4.5-12.1 5.4-18.4.7-8.9 1-17.9.9-26.9V44.3c0-8.7 0-17.7-2.5-26.4-1.6-5.6-4.2-9.8-7.8-12.5C737.4 2 731.5.2 724.1.2h-26v175.9h7.2v-66.2h23.9c4.2.2 6.9 4.7 8.5 8.1 2.7 6.5 3.8 13.6 4.7 21.5l4.7 36.5h7.2l-4.7-36.9c-1.1-8-2.3-16.3-5.6-23.7zM705.1 6.3h18.6c5.1 0 9.4 1.1 12.3 3.3 2.9 2.3 5 5.4 6 9 1.8 5.6 2.2 11.4 2.5 17s.2 11.4.2 17v9.2c0 8.5-.2 17.5-1.8 26-.9 4.2-2.2 9.2-5.4 12.5-2.4 2.2-5.5 3.4-8.7 3.4h-23.5V6.3h-.2zM808.7.9V0h-13.4l-.3.9c-8.5 58-17 115.7-25.5 173.6l-.2 1.4h7.4l6-42.5h38.5l6 42.5h7.4l-.2-1.4C825.6 116.8 817.1 58.9 808.7.9zm-6 5.4l17.2 121h-36.3c4.7-33.3 9.6-66.7 14.3-100l2.9-21h1.9zm103.5 44.5c0-8.5 0-17.2-1.3-25.7-1.6-9-4.2-15-8.7-19.2-5.6-4.9-13-5.8-18.3-5.8h-26.6V176h28.2c8 0 15-3.1 19-8.3 5.6-7.4 6.9-16.8 7.6-25.3.5-8.1.5-16.1.5-23.9-.4-3.3-.4-65.7-.4-67.7zM899 72.9v61.5c.1 6.6-.4 13.2-1.6 19.7-1.3 5.4-3.4 9.4-6.5 11.6-2.9 2.5-7.2 3.6-12.3 3.6h-20.4V5.8h20.6c5.1 0 9.6 1.6 12.5 4.5 3.1 2.9 5.1 7.4 6.3 13.9s1.1 13.4 1.1 19.9l.3 28.8zm28.2 103h45.9v-6.3h-38.7V91.1h36.2v-6.3h-36.2V6.3h38.7V0h-45.9v175.9zm114.2-37.4c-.6-5.9-1.7-11.8-3.4-17.4-1.3-4.2-3.6-9.9-8.3-13.6 2.2-1.1 4.2-2.6 5.9-4.5 4-4.9 5.6-11.4 6.5-17.2 1.3-9.9 1.3-19.7 1.3-29.5V44.8c0-7.6 0-15.7-1.6-23.5-1.6-7.2-4-12.3-8.1-15.7-4.2-3.6-10.1-5.6-17.4-5.6h-26.7v175.9h7.2v-66.2h23c1.9 0 3.7.6 5.1 1.8 2.2 2.2 3.9 4.9 4.9 7.8 2.2 6 3.1 12.8 4 19l4.7 37.6h7.2l-4.3-37.4zm-5-79.4c0 9.2 0 18.8-1.6 28.2-1.1 5.1-2.5 10.3-6.3 13.4-2.2 1.8-5.4 2.7-9.4 2.7h-21.9V6.3h19.7c3.4 0 9.4.9 13.2 5.1 3.8 4.3 5.1 10.3 5.8 15 .7 7 1 14 .9 21v5.8c-.3 2-.4 3.9-.4 5.9z"/><path class="st1" d="M0 1.6h148.7v142.7H0z"/><path class="st0" d="M17.8 27.8h14.3v78.3h41v12.7H17.8zm71.7 12.7H62.4V27.8h68.4v12.7h-27v78.3H89.5z"/><path class="st1" d="M35.1 156h-6.3v-2.9h15.8v2.9h-6.2v18h-3.3zm41.7 18h-3.9l-3.6-5.1c-.5.1-1 .1-1.5.1h-2.1v5h-3.3v-21h5.4c5.8 0 8.9 3.2 8.9 8 .2 3-1.5 5.8-4.2 7l4.3 6zm-9.1-7.8c4 0 5.7-1.9 5.7-5.1s-1.7-5.1-5.7-5.1h-2v10.2h2zm10.4-2.7c-.1-5.8 4.5-10.6 10.3-10.7h.4c3.3-.2 6.5 1.4 8.4 4.1l-2.5 1.8c-1.4-1.9-3.6-3-6-2.9-4.2 0-7.2 3.3-7.2 7.8s3.1 7.8 7.3 7.8c2.5.1 4.8-1 6.3-3l2.6 1.8c-2.1 2.9-5.5 4.5-9 4.3-5.8.1-10.5-4.5-10.6-10.3-.1-.3-.1-.5 0-.7m51.3 10.5h-3.9l-3.6-5.1c-.5.1-1 .1-1.5.1h-2.1v5H115v-21h5.4c5.8 0 8.9 3.2 8.9 8 .2 3-1.5 5.8-4.2 7l4.3 6zm-9.1-7.8c4 0 5.7-1.9 5.7-5.1s-1.7-5.1-5.7-5.1h-1.9v10.2h1.9zm13.1 7.8h-3.3l9.2-21.4h.2l9.2 21.4h-3.5l-1.2-2.9h-9.4l-1.2 2.9zm5.9-14.1l-3.5 8.3h6.9l-3.4-8.3zm-26.2 11.2h-10.4v-3.6h8.9v-2.8h-8.9V156h10.4v-2.9H99.4V174h13.7zm-63.2-3.6h9v-2.8h-9V156h10.5v-2.9H46.7V174h13.7v-2.9H49.9zM0 153.1h3.3v18h9.5v2.9H0z"/><path class="st1" d="M13.7 174h-3.3l9.2-21.4h.2L29 174h-3.5l-1.2-2.9h-9.4l-1.2 2.9zm5.9-14.1l-3.5 8.3H23l-3.4-8.3z"/></svg>