<svg version="1.1" id="Layer_1" xmlns="http://www.w3.org/2000/svg" x="0" y="0" viewBox="0 0 427.2 127.1" xml:space="preserve"><style>.st0{fill:#fff}</style><path class="st0" d="M99.2 70.9h-12V52h12V27.9C99.2 9.4 107.9 0 125.6 0c10.1 0 16.8 3 22.1 9.1l-12.3 15.2c-1.7-2-3.7-3.9-7.2-3.9-3.7 0-6.2 2-6.2 7.2V52h19.4v18.8H122v52.9H99.2V70.9z"/><path class="st0" d="M143.5 25.8c0-7.8 6.4-14.2 14.2-14.2h.2c7.9-.2 14.4 6 14.6 13.8.2 7.9-6 14.4-13.8 14.6h-.8c-7.9.1-14.3-6.1-14.5-14 .1 0 .1-.1.1-.2zm3 26.2h22.7v71.7h-22.7V52zm27.1 0h22.7l-.5 11.8c4.4-8.6 12.8-13.3 22.8-13.3 15.7 0 26.9 11.4 26.9 31.8v41.4h-22.7V83.9c0-8.1-3.9-12.6-12-12.6-9.1 0-14.5 5-14.5 14.1v38.4h-22.8V52zm73.7 37.5c0-22.1 14.8-37.2 32.2-37.2 11.5 0 17.9 4.5 22.4 11.6V4h22.7v121.5h-22.7l.5-10.4c-4 7.6-11.6 12-22.6 12-17.5 0-32.5-15.5-32.5-37.6zm55.3 0c0-10.6-6.4-17.2-16.2-17.2-9.6 0-15.6 6.6-15.6 17.2 0 11.3 6.1 17.7 15.6 17.7 9.8 0 16.2-6.4 16.2-17.7zM367 108c6.5 0 12.8-2.1 18-5.8l13 13.9c-6.9 6.1-15.6 10.7-30.6 10.8-25.6.2-42.2-15.2-42.3-37.3-.1-21.7 17.1-37.3 39.3-37.5 25.8-.2 39.8 18.9 38.3 44l-54.4.4c2.3 7.4 8.4 11.6 18.7 11.5zm12.8-24.8c-1.1-7.9-6.1-12.6-15.1-12.5s-15 4.1-16.8 12.7l31.9-.2z"/><path class="st0" d="M398.8 110.4c0-7.9 6.5-14.2 14.3-14.1s14.2 6.5 14.1 14.3c0 7.8-6.4 14.1-14.1 14.1-7.7.2-14.1-6-14.3-13.7-.1-.2-.1-.4 0-.6zM0 52v71.7h75V52H0zm36.9 58.7H9.1V65.1h7.2v39.3h20.6v6.3zm29-39.3H52.3v39.3h-7.2V71.4H31.5V65h34.3l.1 6.4z"/></svg>