<?xml version="1.0" encoding="utf-8"?>
<!-- Generator: Adobe Illustrator 23.0.1, SVG Export Plug-In . SVG Version: 6.00 Build 0)  -->
<svg version="1.1" id="Layer_1" xmlns="http://www.w3.org/2000/svg" xmlns:xlink="http://www.w3.org/1999/xlink" x="0px" y="0px"
	 viewBox="0 0 464.1 198.5" style="enable-background:new 0 0 464.1 198.5;" xml:space="preserve">
<style type="text/css">
	.st0{fill:url(#SVGID_1_);}
	.st1{fill:url(#SVGID_2_);}
	.st2{fill:url(#SVGID_3_);}
	.st3{fill:url(#SVGID_4_);}
</style>
<title>Logo_Biut_color_original_RGB</title>
<linearGradient id="SVGID_1_" gradientUnits="userSpaceOnUse" x1="0" y1="102.2039" x2="137.9961" y2="102.2039" gradientTransform="matrix(1 0 0 -1 0 201.42)">
	<stop  offset="0" style="stop-color:#8D4991"/>
	<stop  offset="1" style="stop-color:#8D4991"/>
</linearGradient>
<path class="st0" d="M0,194.7L0.1,0h37.1v70.7c10.6-14.9,24.7-22.2,42.3-22.2c9.3,0,17.5,1.7,24.8,5.3c7.2,3.6,13.5,8.8,18.4,15.2
	c5.3,7,9.1,14.9,11.4,23.3c2.8,9.7,4.1,19.7,4,29.7c0,12-1.5,22.8-4.6,32.2c-2.8,8.7-7.1,16.9-12.9,24c-5.3,6.5-12,11.7-19.5,15.2
	c-7.8,3.4-16.3,5.1-24.8,5.1c-17.7,0-31-7-39.6-21.1l-0.3,17.4H0z M67.6,167.7c9.4,0,17.2-3.9,23.2-11.9s8.9-18.5,8.9-31.2
	c0-29.3-10.8-44-32.4-44c-21.1,0-31.6,15.5-31.6,46.4c0,12.2,3,22,9.1,29.5S58.5,167.7,67.6,167.7z"/>
<linearGradient id="SVGID_2_" gradientUnits="userSpaceOnUse" x1="151.33" y1="104.025" x2="188.98" y2="104.025" gradientTransform="matrix(1 0 0 -1 0 201.42)">
	<stop  offset="0" style="stop-color:#8D4991"/>
	<stop  offset="1" style="stop-color:#8D4991"/>
</linearGradient>
<path class="st1" d="M151.3,35.1v-35h37.6v35H151.3z M151.3,194.7V52.1h37.6v142.6L151.3,194.7z"/>
<linearGradient id="SVGID_3_" gradientUnits="userSpaceOnUse" x1="204.8793" y1="76.1199" x2="333.34" y2="76.1199" gradientTransform="matrix(1 0 0 -1 0 201.42)">
	<stop  offset="0" style="stop-color:#8D4991"/>
	<stop  offset="1" style="stop-color:#8D4991"/>
</linearGradient>
<path class="st2" d="M297.6,194.7v-20c-9.6,15.9-24.5,23.7-44.3,23.7c-6.7,0.1-13.4-1.1-19.6-3.7c-5.8-2.5-11-6.1-15.2-10.8
	c-4.4-4.8-7.8-10.4-10-16.6c-2.6-6.8-3.8-14.1-3.7-21.4V52.1h37.6v88.1c0,17.8,8,26.6,24,26.6c9.6,0,16.9-3,21.9-9.1
	s7.4-13.8,7.4-23.3V52.1h37.4l0.1,142.6H297.6z"/>
<linearGradient id="SVGID_4_" gradientUnits="userSpaceOnUse" x1="348.446" y1="95.395" x2="464.06" y2="95.395" gradientTransform="matrix(1 0 0 -1 0 201.42)">
	<stop  offset="0" style="stop-color:#8D4991"/>
	<stop  offset="1" style="stop-color:#8D4991"/>
</linearGradient>
<path class="st3" d="M429.2,100.9H464v40.5c0,7.3-1.2,14.6-3.4,21.6c-4.4,14-14.8,25.3-28.3,30.9c-7.2,3.1-15.8,4.6-25.8,4.6
	c-10.4,0-19.3-1.4-26.7-4.6c-6.8-2.8-13-7.1-18-12.5c-4.7-5.2-8.2-11.4-10.2-18.1c-2.2-7.2-3.2-14.6-3.1-22.1V13.6h37.3v38.5h78.3
	v26.6l-78.3,0.1v58.5c0,9.1,1.6,16.1,5.1,21s8.8,7.4,16.5,7.4s13.1-2.3,16.6-7.2s5.3-11.6,5.3-20.6L429.2,100.9z"/>
</svg>
