<?xml version="1.0" encoding="utf-8"?>
<!-- Generator: Adobe Illustrator 23.0.1, SVG Export Plug-In . SVG Version: 6.00 Build 0)  -->
<svg version="1.1" id="Layer_1" xmlns="http://www.w3.org/2000/svg" xmlns:xlink="http://www.w3.org/1999/xlink" x="0px" y="0px"
	 viewBox="0 0 370 370" style="enable-background:new 0 0 370 370;" xml:space="preserve">
<style type="text/css">
	.st0{fill:#FFFFFF;}
</style>
<title>Logo_QuePasa_linea_circulo_white_RGB</title>
<path class="st0" d="M185,370C83,370,0,287,0,185S83,0,185,0s185,83,185,185S287,370,185,370 M185,5.3C85.9,5.3,5.3,85.9,5.3,185
	S85.9,364.7,185,364.7S364.7,284.1,364.7,185S284.1,5.3,185,5.3"/>
<path class="st0" d="M227.5,204.7c1-1.2,1.7-4.6,1.7-7.9c0-7.6,0.2-28.8,0-36c0-2.8-0.7-5.1-2.8-5.8c-1.6-0.6-3.3-1.1-5-1.4
	c-2.2-0.5-3.1-1.4-3.1-2.4s1.7-1.2,3.1-1.2c3.3,0,19.7-1.2,20.6-1.2s1.4,1.7,1.4,5.5c0,7.4-0.5,16.8-0.5,47.4c0,8.1,0.7,9.8,3.4,9.8
	c2.4-0.2,8.2-1.4,9.1-1.4c0.6,0,1.2,0.6,1.2,1.2c0,0.7-0.5,3.1-1.5,3.3c-6,0.9-16.3,3.4-20.1,4.5c-1.3,0.5-2.7,0.8-4.1,0.9
	c-0.7,0-1.5-1.5-1.5-3.1c0-3.1,0.2-7.2,0.3-9.1c0-0.3-0.7-0.3-0.9-0.2c-1.5,1.2-7.9,6.7-12.7,9.1c-3.5,1.8-7.4,2.7-11.3,2.6
	c-5.7,0-10.6-2.1-13.9-5.7c-2.7-2.9-4.5-7.7-4.5-13.7c0-14.1,0.3-32.8-0.2-38.6c-0.4-4.5-0.2-5.5-5.5-7.4c-1.4-0.5-3.3-1.4-3.3-2.4
	s1.4-1.4,3.8-1.4c9.3,0,15.1-1,19-1c0.3,0,1,1,0.9,2.4c-0.4,11-0.9,30.5-0.9,41.9c0,7.7,1.4,11.8,4.8,14.1c2.6,1.9,6.4,2.7,10.3,2.6
	C222.6,209.9,225.2,207.1,227.5,204.7"/>
<path class="st0" d="M185.6,228.9c1.4,0,11.2-0.2,13.9-0.2c4.9,0,7.3-0.2,10.2,1.2s4.2,3.7,4.2,5.5c0,3.4-1.9,6.5-5,8
	c-4.7,2.6-8.4,2.8-9.1,2.7s-1.3-0.1-1.4-0.6c0-0.4,0.2-0.7,0.6-0.8c3.7-1.6,8.1-3.2,8.1-8.6c0-4.8-3.8-5.7-8.4-5.7
	c-0.7,0-1.4,0.2-2.1,0.5c-0.3,0.2-0.5,0.6-0.5,1c-0.1,5.6-0.1,23.4,0.2,25.6c0.3,4.5,0.4,5.2,4.2,6.1c1.1,0.2,1.5,0.5,1.5,1
	s-0.9,0.8-1.8,0.8c-2.2,0-12.8-0.1-14.4-0.1c-1,0-1.8-0.3-1.8-0.7s0.5-0.8,1.6-1c3-0.6,3.6-1.6,3.8-4.9c0.1-2.7,0.2-5.7,0.2-13.4
	c0-6.4-0.2-9.3-0.3-11.1s-0.4-2.9-3.7-3.5c-1.3-0.3-1.7-0.7-1.7-1S184.3,229,185.6,228.9"/>
<path class="st0" d="M228.8,232c0.2-0.5,0.4-1,0.4-1.6v-0.7c0.1-0.4,0.4-0.8,0.7-1c1.2-0.1,2.4-0.1,3.6,0c0.2,0,0.6,0.5,0.6,0.7
	c0.3,1.1,0.7,2.3,1.1,3.4c1.3,3.5,8.2,21.6,9.8,25c1.8,3.8,2.1,4.8,5.5,6.1c1,0.4,1.5,0.6,1.5,1s-0.9,0.4-1.8,0.4h-14
	c-1.4,0-1.8-0.4-1.8-0.9s0.7-0.8,1.8-1c1.8-0.6,2.4-1,2.4-2.3c0-0.8-1.7-4.9-2.8-8.1c-0.2-0.6-0.7-1.1-1.4-1.2
	c-1.8-0.2-8.9-0.1-9.8,0c-0.6,0-1,0.6-1.2,1c-0.6,1.6-2.3,6.7-2.3,7.8c0,1.4,0.8,2.2,3.8,3c1,0.3,1.4,0.7,1.4,1
	c0,0.6-0.9,0.8-1.7,0.8h-11.2c-1.3,0-2.1-0.2-2.1-0.7s0.5-1,1.8-1.2c2.8-0.7,3.7-1.4,6-6.4C221.1,252.9,227.7,235.1,228.8,232
	 M230,236.1c-0.2-0.2-0.5-0.1-0.6,0.2c-1,2.7-3.6,9.8-4.1,11.5c-0.1,0.3,0.1,0.9,0.3,0.9c1,0.1,6.9,0.1,8.5-0.1
	c0.2,0,0.5-0.2,0.3-0.7C233.2,245,231.5,239.7,230,236.1"/>
<path class="st0" d="M270.3,228.1c1.2,0.2,2.4,0.4,3.7,0.5c0.6,0.1,0.9,0.9,1,1.8c0,1.3,0.3,4.4,0.3,5.5c0,0.7-0.3,1.3-0.8,1.7
	c-0.6,0-0.7-0.5-1.1-1.6c-0.5-1.8-1.5-3.5-3-4.6c-1.4-1.2-3.1-1.8-4.9-1.8c-3.3-0.2-6.1,2.4-6.3,5.7c0,0.2,0,0.4,0,0.6
	c0,3,1.7,4.6,4.1,6c2.5,1.5,4.5,2.6,6.8,4c3.4,2.1,6.5,5.4,6.5,9.5c-0.1,3.5-1.9,6.8-4.9,8.7c-2.8,1.6-6,2.4-9.3,2.4
	c-1.5,0-2.9-0.1-4.4-0.4c-2.9-0.6-5.2-2.7-6-5.5c-0.3-1.2-0.5-2.5-0.6-3.8c0-0.7,0.1-1.8,0.7-1.8c0.8,0,1.9,2.6,2.3,3.4
	c1.8,3.6,4.6,6.2,8.8,6.2c3.6,0.1,6.5-2.7,6.8-6.2c0-2.6-1.5-4.6-4.5-6.6c-1.9-1.3-3.4-2.1-5-3c-3.8-2.2-7.4-5.8-7.4-10.5
	c0-5.5,4.8-10.5,12.8-10.5C267.4,227.8,268.9,228,270.3,228.1"/>
<path class="st0" d="M291.8,232c0.2-0.5,0.4-1,0.4-1.6v-0.7c0.1-0.4,0.4-0.8,0.7-1c1.2-0.1,2.4-0.1,3.6,0c0.2,0,0.6,0.5,0.6,0.7
	c0.3,1.1,0.7,2.3,1.1,3.4c1.3,3.5,8.2,21.6,9.8,25c1.8,3.8,1.8,4.5,5.5,5.7c1,0.4,1.4,0.6,1.4,1c0,0.6-0.9,0.9-1.8,0.9h-14
	c-1.4,0-1.8-0.4-1.8-0.9s0.7-0.8,1.8-1c1.8-0.6,2.4-1,2.4-2.3c0-0.8-1.7-4.9-2.8-8.1c-0.2-0.6-0.7-1.1-1.4-1.2
	c-1.8-0.2-8.9-0.1-9.8,0c-0.6,0-1,0.6-1.2,1c-0.6,1.6-2.3,6.7-2.3,7.8c0,1.4,0.8,2.2,3.8,3c1,0.3,1.4,0.7,1.4,1
	c0,0.6-0.9,0.8-1.7,0.8h-11.2c-1.3,0-2.2-0.2-2.2-0.7s0.7-0.3,2-0.8c2.8-1,3.5-1.9,5.8-6.8C284.1,253,290.7,235.2,291.8,232
	 M293,236.2c-0.2-0.2-0.5-0.1-0.6,0.2c-1,2.7-3.6,9.8-4.1,11.5c-0.1,0.3,0.1,0.9,0.3,0.9c1,0.1,6.9,0.1,8.5-0.1
	c0.2,0,0.5-0.2,0.3-0.7C296.2,245,294.5,239.8,293,236.2"/>
<path class="st0" d="M311.6,167.9c0,1.9-2.4,3.3-4.8,3.1c-11-0.5-29.2-0.5-35.2,0c-1,0.4-1.7,1.1-2.1,2.1c-0.3,2.3-0.4,4.6-0.3,6.9
	c0,13.7,11,28.7,25.6,28.7c9.4,0,13.2-3.6,16.8-8.4c1-1.4,2.4-1.4,2.4,0.9c0,1.5-1.5,3.6-2.4,4.6c-6,7.9-15.6,13.6-25.4,13.6
	c-18.9,0-29.7-16.1-29.7-34.1c0-12,4.8-25.9,18.5-33.6c3.6-2.2,8.6-3.8,14.9-3.8C302.5,147.7,311.6,156.1,311.6,167.9 M270.6,166.2
	c0,0.3,0.3,1.4,0.9,1.4c6.9,0,16.8-0.3,20.9-0.3c4.3-0.5,6.4-1.4,6.4-5.7c-0.2-6.2-6.7-10.8-10.6-10.8
	C280.9,150.8,273.3,157,270.6,166.2 M282.1,139.7c0.4,1.2,1.5,2,2.8,1.8l20.5-21.3c1.6-1.6,2.6-3.4,2.6-4.4c0-1.3-1.1-2.9-2.8-4.3
	c-1.4-1.3-3.2-2.2-5.1-2.5c-1.6,0-3,2.1-3.9,3.9L282.1,139.7z"/>
<path class="st0" d="M118.3,215.3c-33.1-1.1-45.3-37.3-46-56.1c-1.2-34.8,17.2-51,35.7-51c30.8,0,46.5,29.8,46.5,57.7
	C154.4,204.8,131.3,215.8,118.3,215.3 M185.8,248c-2.4,1-8,1.5-9.7,1.5c-5.3,0-10.6-0.8-15.7-2.4c-13.5-4.4-29.9-18.2-31.8-27.9
	c-0.3-1.4,1-1.7,2-2c23.9-7.9,41.8-28.6,41.8-55.6c0.1-29.8-23.3-58-58.7-58c-31.4,0-59.5,23.2-58.8,58.2c0.5,23,13,43.2,36,53.1
	c4.8,2.1,9.7,3.5,14.9,4.4c4.7,0.9,3.4,1.6,8.4,6.7c6.3,6.1,14.1,16.5,28,23c10,4.6,16.2,6,23.9,6c5.9,0,14.8-2.3,20.4-5.1
	C187.6,249.3,186.9,247.6,185.8,248"/>
</svg>
