<?xml version="1.0" encoding="utf-8"?>
<!-- Generator: Adobe Illustrator 23.0.1, SVG Export Plug-In . SVG Version: 6.00 Build 0)  -->
<svg version="1.1" id="Layer_1" xmlns="http://www.w3.org/2000/svg" xmlns:xlink="http://www.w3.org/1999/xlink" x="0px" y="0px"
	 viewBox="0 0 389.7 160.3" style="enable-background:new 0 0 389.7 160.3;" xml:space="preserve">
<title>Logo_Pulso_Black_sinLT_RGB</title>
<path d="M60.5,8.6L0,8.7v9.3l68.3-0.2C66.5,14.2,63.8,11,60.5,8.6"/>
<path d="M65.9,87.7L0.2,87.8l0.1,9.4l52.1-0.1C57.8,95.4,62.5,92.1,65.9,87.7"/>
<polygon points="0.2,67.6 25.8,67.5 25.8,58.1 0.2,58.2 "/>
<path d="M70.5,77.8L0.2,78v9.4l66.1-0.2C68.3,84.3,69.7,81.2,70.5,77.8"/>
<path d="M71.7,68.3v-0.4H45.9v0.3c0,6.3-3,9-8.8,9H25.8V68H0.2l0.1,9.3l70.4-0.2c0.7-3,1-6,1-9"/>
<path d="M26,99.3h11.2c4.5,0,9-0.5,13.3-1.6L0.3,97.7v9.4H26L26,99.3"/>
<polygon points="0.2,57.7 25.8,57.6 25.8,48.2 0.2,48.3 "/>
<polygon points="0.4,117 26.1,117 26,107.6 0.3,107.6 "/>
<polygon points="0.4,156.6 26.1,156.5 26.1,147.2 0.4,147.2 "/>
<polygon points="0.4,159.2 26.1,159.2 26.1,157 0.4,157 "/>
<polygon points="0.4,146.7 26.1,146.6 26.1,137.2 0.4,137.3 "/>
<polygon points="0.4,126.8 26.1,126.8 26.1,117.5 0.4,117.6 "/>
<polygon points="0.4,136.8 26.1,136.7 26.1,127.3 0.4,127.4 "/>
<polygon points="45.9,47.7 71.6,47.6 71.6,38.2 45.9,38.3 "/>
<path d="M25.8,24.2h11.2c3.6,0,6.2,1.3,7.7,3.7l26.5-0.2c-0.4-3.2-1.3-6.3-2.6-9.2L0,18.6l0.1,9.4l25.7-0.1L25.8,24.2"/>
<path d="M71.6,33.1c-0.1-1.6-0.2-3.2-0.3-4.8H44.8c0.7,1.5,1.1,3.2,1.1,4.8v4.6h25.7L71.6,33.1"/>
<polygon points="45.9,67.4 71.7,67.4 71.6,58 45.9,58.1 "/>
<polygon points="45.9,57.5 71.6,57.5 71.6,48.1 45.9,48.1 "/>
<polygon points="0.2,37.9 25.8,37.8 25.8,28.5 0.1,28.6 "/>
<polygon points="0.2,47.8 25.8,47.7 25.7,38.3 0.2,38.4 "/>
<path d="M36.9,2.2L0,2.4v5.8L59.7,8C54.1,4.3,46.7,2.2,36.9,2.2"/>
<polygon points="81.5,8 107.2,7.9 107.2,2 81.5,2.1 "/>
<polygon points="128,17.6 153.7,17.7 153.7,8.3 127.9,8.3 "/>
<polygon points="81.5,17.9 107.2,17.8 107.2,8.4 81.5,8.4 "/>
<path d="M154,127h-25.7l-0.1,1.6c0.1,3.9-1.6,6.5-4.4,7.9l29.3-0.1c0.6-2.6,0.8-5.2,0.8-7.8V127"/>
<polygon points="128.2,116.7 153.9,116.5 153.9,107.2 128.2,107.2 "/>
<polygon points="128.2,77.1 153.8,77 153.8,67.6 128.1,67.7 "/>
<polygon points="128.2,86.9 153.8,86.9 153.8,77.5 128.2,77.6 "/>
<polygon points="128.2,96.8 153.9,96.8 153.8,87.4 128.2,87.5 "/>
<polygon points="128.2,106.7 153.9,106.7 153.9,97.3 128.2,97.3 "/>
<polygon points="81.7,87.1 107.4,87 107.4,77.7 81.7,77.7 "/>
<polygon points="81.8,106.9 107.5,106.8 107.5,97.4 81.7,97.5 "/>
<polygon points="128.3,126.5 154,126.5 153.9,117.1 128.2,117.1 "/>
<polygon points="81.7,96.9 107.4,96.9 107.4,87.5 81.7,87.7 "/>
<polygon points="81.6,47.5 107.3,47.4 107.3,38.1 81.6,38.2 "/>
<path d="M107.6,128.7v-1.6H81.9v1.6c0,2.6,0.3,5.3,0.9,7.9l29.3-0.1C109.2,135.1,107.6,132.6,107.6,128.7"/>
<polygon points="128.1,57.2 153.8,57.2 153.8,47.9 128.1,48 "/>
<polygon points="81.8,116.8 107.5,116.7 107.5,107.3 81.8,107.4 "/>
<polygon points="128.1,67.2 153.8,67.1 153.8,57.7 128.1,57.8 "/>
<path d="M118,137.6c-1.6,0-3.2-0.2-4.7-0.7H82.8c0.7,3.4,2,6.6,3.9,9.5l62.4-0.3c1.9-2.8,3.2-6,3.9-9.3l-30.5,0.1"/>
<polygon points="81.9,126.7 107.6,126.6 107.5,117.2 81.8,117.3 "/>
<polygon points="81.6,57.5 107.3,57.4 107.3,48 81.6,48.1 "/>
<path d="M148.9,146.8l-61.8,0.2c2.8,4,6.7,7.3,11.2,9.3l39.5-0.1C142.2,154.1,146,150.8,148.9,146.8"/>
<path d="M118.1,160.3c6.4,0,12.7-1.2,18.6-3.6l-37.4,0.1C105.3,159.2,111.7,160.4,118.1,160.3"/>
<polygon points="128.1,47.4 153.8,47.3 153.7,38 128.1,38 "/>
<polygon points="81.6,27.8 107.3,27.7 107.2,18.4 81.5,18.4 "/>
<polygon points="81.6,37.6 107.3,37.5 107.3,28.2 81.6,28.3 "/>
<polygon points="128,27.7 153.7,27.6 153.7,18.2 128,18.2 "/>
<polygon points="128.1,37.5 153.7,37.3 153.7,28.1 128,28.2 "/>
<polygon points="81.6,67.4 107.4,67.2 107.3,57.9 81.6,57.9 "/>
<polygon points="81.7,77.3 107.4,77.1 107.4,67.8 81.7,67.8 "/>
<polygon points="127.9,7.9 153.7,7.8 153.6,1.9 127.9,2 "/>
<polygon points="169.8,136.3 195.5,136.2 195.5,126.8 169.8,127 "/>
<polygon points="169.7,96.8 195.5,96.8 195.3,87.3 169.6,87.3 "/>
<polygon points="169.6,67 195.3,66.9 195.3,57.6 169.6,57.6 "/>
<polygon points="195.5,137 195.5,136.7 169.8,136.8 169.8,146.2 230,146 229.9,136.8 "/>
<polygon points="169.7,116.5 195.5,116.5 195.5,107 169.7,107.2 "/>
<polygon points="169.6,86.8 195.4,86.7 195.3,77.4 169.6,77.4 "/>
<polygon points="169.7,106.6 195.5,106.6 195.5,97.1 169.7,97.3 "/>
<polygon points="169.6,76.9 195.3,76.9 195.3,67.5 169.6,67.6 "/>
<polygon points="169.8,126.4 195.5,126.3 195.5,117 169.7,117 "/>
<polygon points="169.9,158.7 230,158.5 230,156.4 169.9,156.6 "/>
<polygon points="169.6,47.3 195.3,47.2 195.3,37.8 169.6,37.9 "/>
<polygon points="169.6,57.1 195.3,57.1 195.3,47.7 169.6,47.8 "/>
<polygon points="169.9,156.1 230,155.9 229.9,146.5 169.8,146.7 "/>
<polygon points="169.5,27.5 195.2,27.5 195.2,18 169.4,18.2 "/>
<polygon points="169.6,37.3 195.3,37.3 195.2,27.9 169.5,28.1 "/>
<polygon points="169.4,17.5 195.2,17.5 195.2,8.1 169.4,8.2 "/>
<polygon points="169.4,7.8 195.2,7.7 195.2,1.8 169.4,1.9 "/>
<path d="M270.1,0.2c-11.1,0.1-19.4,2.7-25.3,7.3l49.8-0.2C288.9,2.9,280.7,0.2,270.1,0.2"/>
<path d="M270.5,137.2c-1.6,0-3.2-0.2-4.8-0.6h-30.5c0.7,3.3,2,6.5,3.9,9.4l62.6-0.2c1.8-2.9,3.1-6,3.9-9.3h-30.6
	C273.6,137,272.1,137.2,270.5,137.2"/>
<path d="M278.2,106.3h27.4c-0.5-3.2-1.4-6.4-2.7-9.4l-33.4,0.1C273,99.5,276,102.7,278.2,106.3"/>
<polygon points="280.6,47 305.5,46.9 305.5,37.5 280.5,37.6 "/>
<path d="M234.3,128.3c0,2.6,0.3,5.2,0.8,7.8l29.2-0.1c-2.9-1.3-4.8-3.8-4.8-7.7v-1.5l-25.2,0.1V128.3"/>
<path d="M238.9,66.9l34.6-0.2c-3.7-2.6-6.9-5.7-9.7-9.3h-28C236.4,60.7,237.4,63.9,238.9,66.9"/>
<path d="M269,96.5l33.8-0.1c-1.5-3.4-3.4-6.5-5.6-9.4l-40.7,0.1C260.8,90.4,265.2,93.4,269,96.5"/>
<path d="M255.7,86.6l41-0.1c-2.8-3.5-6-6.6-9.5-9.4l-41.6,0.1C248.6,80.7,252,83.8,255.7,86.6"/>
<polygon points="280.6,56.8 305.5,56.8 305.5,47.4 280.5,47.5 "/>
<path d="M234.7,37.2h25.7v-6.4c0-1,0.2-2,0.6-3h-26.1c-0.1,1.1-0.1,2.1-0.1,3L234.7,37.2"/>
<path d="M280.8,115.6v0.7l25.7-0.2v-1.4c0-2.7-0.3-5.4-0.7-8l-27.2,0.1C280,109.4,280.8,112.5,280.8,115.6"/>
<polygon points="234.4,126.2 259.5,126.2 259.5,116.8 234.3,116.8 "/>
<polygon points="280.8,126.1 306.4,126 306.4,116.7 280.8,116.8 "/>
<polygon points="234.8,47 260.5,47 260.4,37.7 234.7,37.7 "/>
<path d="M245.1,76.8l41.4-0.2c-4.2-3.3-8.6-6.3-12.5-9.2h-35C240.7,70.7,242.8,73.9,245.1,76.8"/>
<path d="M301.5,146.3l-62.1,0.2c2.8,4,6.6,7.2,11.1,9.3l39.7-0.1C294.8,153.6,298.7,150.4,301.5,146.3"/>
<polygon points="234.3,116.4 259.5,116.2 259.5,106.9 234.3,107 "/>
<path d="M234.8,47.7c0,3.1,0.3,6.2,0.9,9.3l27.7-0.1c-1.9-2.8-2.9-6-3-9.3L234.8,47.7"/>
<path d="M234.8,27.3h26.3c1.4-2.8,4.5-4.3,9-4.3c4.1-0.1,7.5,1.4,9.1,4.3h25.9c-0.4-3.2-1.2-6.4-2.5-9.4L237.1,18
	C235.9,21,235.1,24.2,234.8,27.3"/>
<path d="M270.1,159.8c6.5,0.1,13-1.1,19.1-3.6l-37.7,0.1C257.4,158.7,263.7,159.9,270.1,159.8"/>
<path d="M306.4,126.6l-25.7,0.1v2.7c0.1,2.9-1.6,5.5-4.2,6.6l29.2-0.1c0.5-2.3,0.8-4.6,0.7-7L306.4,126.6"/>
<polygon points="234.3,106.5 259.5,106.4 259.5,102.4 234.3,102.6 "/>
<path d="M280.5,31.8v5.2h25v-5.4c0-1.3-0.1-2.7-0.2-4h-25.7C280.2,29,280.5,30.4,280.5,31.8"/>
<path d="M237.3,17.5l65.1-0.2c-1.6-3.6-4.1-6.8-7.2-9.4l-51,0.2C241.2,10.6,238.8,13.8,237.3,17.5"/>
<path d="M320.5,17.2l65.8-0.1c-1.7-3.7-4.2-6.9-7.4-9.4l-51,0.2C324.7,10.3,322.2,13.5,320.5,17.2"/>
<polygon points="364,106 389.6,105.9 389.6,96.6 364,96.8 "/>
<polygon points="364,116 389.6,115.9 389.6,106.5 364,106.6 "/>
<polygon points="363.9,86.3 389.6,86.2 389.5,76.8 363.9,76.9 "/>
<polygon points="364,96.2 389.6,96.1 389.6,86.7 363.9,86.8 "/>
<polygon points="363.9,76.3 389.5,76.3 389.5,66.9 363.8,67 "/>
<polygon points="364,125.9 389.7,125.8 389.7,116.4 364,116.5 "/>
<polygon points="317.4,56.7 343.1,56.6 343.1,47.3 317.3,47.4 "/>
<path d="M364,127.9c0.1,3.3-1.8,6.4-4.8,7.9h29.7c0.5-2.6,0.8-5.2,0.8-7.9v-1.6l-25.7,0.1V127.9"/>
<polygon points="317.6,116.1 343.2,116 343.2,106.6 317.5,106.7 "/>
<polygon points="317.6,126 343.3,125.9 343.2,116.5 317.6,116.7 "/>
<polygon points="317.5,106.3 343.2,106.2 343.1,96.8 317.5,96.8 "/>
<path d="M334,155.6l39.5-0.1c4.5-2.1,8.4-5.3,11.2-9.4l-61.8,0.2C325.7,150.3,329.5,153.5,334,155.6"/>
<polygon points="363.8,66.5 389.5,66.4 389.5,57 363.8,57.1 "/>
<path d="M353.5,137c-1.4,0-2.8-0.2-4.1-0.7l-30.8,0.1c0.8,3.3,2.1,6.5,4,9.4l62.4-0.1c1.9-2.9,3.2-6,3.9-9.4l-30.9,0.1
	C356.5,136.7,355,137,353.5,137"/>
<path d="M317.6,27.1l26.6-0.1c1.7-2.7,4.9-4.3,9-4.4c4.3,0,7.6,1.6,9.3,4.3h26.6c-0.4-3.2-1.3-6.4-2.6-9.3l-66.4,0.1
	C318.9,20.7,318,23.9,317.6,27.1"/>
<polygon points="317.5,96.4 343.2,96.3 343.2,86.9 317.4,87 "/>
<path d="M363.7,31.6l0.1,5.3l25.6-0.1v-5.3c0-1.4-0.1-2.7-0.3-4.1l-26.4,0.2C363.4,28.8,363.7,30.2,363.7,31.6"/>
<polygon points="317.4,76.6 343.1,76.6 343.1,67.1 317.4,67.2 "/>
<polygon points="317.4,66.6 343.1,66.5 343.1,57.1 317.4,57.2 "/>
<polygon points="363.8,46.7 389.5,46.6 389.4,37.2 363.8,37.3 "/>
<path d="M317.3,37l25.7-0.1v-5.3c0-1.4,0.3-2.8,0.9-4.1l-26.4,0c-0.1,1.4-0.2,2.7-0.2,4.1V37"/>
<polygon points="363.8,56.6 389.5,56.5 389.5,47.1 363.8,47.3 "/>
<path d="M317.6,128.1c0,2.6,0.3,5.2,0.8,7.8h29.7c-3-1.4-4.9-4.5-4.8-7.8v-1.6h-25.7L317.6,128.1"/>
<polygon points="317.5,86.4 343.2,86.3 343.1,76.9 317.4,77 "/>
<polygon points="317.3,46.8 343.1,46.8 343.1,37.3 317.3,37.5 "/>
<path d="M353.6,159.6c6.4,0.1,12.8-1.1,18.8-3.6l-37.3,0.1C340.1,158.4,346.3,159.6,353.6,159.6"/>
<path d="M353.1,0c-10.5,0-18.8,2.7-24.7,7.3l49.8-0.1C372.2,2.6,363.8,0,353.1,0"/>
</svg>
