<?xml version="1.0" encoding="utf-8"?>
<!-- Generator: Adobe Illustrator 23.0.1, SVG Export Plug-In . SVG Version: 6.00 Build 0)  -->
<svg version="1.1" id="Layer_1" xmlns="http://www.w3.org/2000/svg" xmlns:xlink="http://www.w3.org/1999/xlink" x="0px" y="0px"
	 viewBox="0 0 1066.1 250.2" style="enable-background:new 0 0 1066.1 250.2;" xml:space="preserve">
<style type="text/css">
	.st0{fill:none;}
	.st1{fill:#FFFFFF;}
	.st2{fill:#161617;}
	.st3{opacity:0.2;fill:url(#SVGID_1_);enable-background:new    ;}
	.st4{opacity:0.36;fill:url(#SVGID_2_);enable-background:new    ;}
	.st5{opacity:0.63;fill:url(#SVGID_3_);enable-background:new    ;}
	.st6{opacity:0.8;fill:url(#SVGID_4_);enable-background:new    ;}
	.st7{opacity:0.36;fill:url(#SVGID_5_);enable-background:new    ;}
	.st8{opacity:0.6;fill:url(#SVGID_6_);enable-background:new    ;}
	.st9{opacity:0.15;}
	.st10{fill:#F0F2F1;}
	.st11{opacity:0.8;fill:url(#SVGID_7_);enable-background:new    ;}
	.st12{opacity:0.15;fill:url(#SVGID_8_);enable-background:new    ;}
	.st13{opacity:6.000000e-02;fill:url(#SVGID_9_);enable-background:new    ;}
	.st14{opacity:0.8;fill:none;stroke:#E9ECEA;stroke-width:3.000000e-02;enable-background:new    ;}
	.st15{opacity:0.27;fill:none;stroke:#F0F2F1;stroke-width:3.000000e-02;enable-background:new    ;}
	.st16{fill:url(#SVGID_10_);}
	.st17{opacity:0.7;fill:url(#SVGID_11_);enable-background:new    ;}
	.st18{opacity:0.7;fill:none;stroke:#221E20;stroke-width:5.000000e-02;enable-background:new    ;}
	.st19{opacity:0.8;fill:none;stroke:#000000;stroke-width:5.000000e-02;enable-background:new    ;}
	.st20{opacity:0.4;fill:#FFFFFF;enable-background:new    ;}
	.st21{opacity:0.2;fill:#FFFFFF;enable-background:new    ;}
	.st22{opacity:0.1;fill:#FFFFFF;enable-background:new    ;}
	.st23{fill:url(#SVGID_12_);}
	.st24{fill:url(#SVGID_13_);stroke:#E8EAE8;stroke-width:3.000000e-02;}
	.st25{fill:none;stroke:#E8EAE8;stroke-width:3.000000e-02;}
	.st26{opacity:0.2;fill:none;stroke:#F0F2F1;stroke-width:8.000000e-02;enable-background:new    ;}
</style>
<title>Logo_Glamorama_white_RGB</title>
<g>
	<g>
		<line class="st0" x1="735.5" y1="162.1" x2="737" y2="162.2"/>
		<path class="st1" d="M128.1,51.4v31.3h-17.5v100.3c0,44.8-18.3,67.2-55.5,67.2c-21.2,0-37-5-47.5-14.6L24,206.9
			c8.6,6.6,17.2,10,25.9,10c7.5,0,13.7-2.3,19-7.5c5.2-4.9,7.6-14.4,7.6-28.8v-10.4c-11,12.6-21.8,18.9-32.2,18.9
			c-12.4,0-22.7-6.4-31.3-19.8c-8.8-13-13.1-29.7-13.1-50.2s4.3-37.1,13.3-50.2S33.2,49.4,46,49.4c12.4,0,22.6,6.2,30.6,18.5V51.4
			H128.1z M76.7,119.8c0-11-1.9-19.8-5.8-26.1c-3.8-6.4-8.9-9.5-15.4-9.5c-6.9,0-12,3.3-15.6,9.7c-3.5,6.6-5.2,15.1-5.2,25.4
			s1.7,18.5,5.4,25.1c3.8,6.5,8.7,9.8,15.3,9.8c5.8,0,10.8-3,15-9.1C74.7,139,76.7,130.6,76.7,119.8z"/>
		<path class="st1" d="M126.2,167.9v-26.9h14.5l0.1-114h-14.5V0h43.6v141.1H183v26.9H126.2z"/>
		<path class="st1" d="M450.8,141.1V96.4c0-12.2-0.9-21.3-2.7-27.3c-1.5-5.8-5-11-9.9-14.5c-4.8-3.5-11-5.2-18.3-5.2
			c-12.9,0-25.2,5.2-37.1,15.9c-6.5-10.7-15.6-15.9-27.3-15.9c-9.9,0-19.8,3.7-29.8,11.2v-9.5l-44,0.1V78h15v63.1h-28.1l0.1-42.7
			c0-10.8-0.8-18.5-1.8-23.3c-1.2-4.7-3.2-9.2-6-13.2c-2.9-4.1-7.3-7.3-13-9.8c-5.7-2.6-13.1-3.8-21.8-3.8
			c-22.8,0-37.5,9.2-44.4,27.5l23.6,5.4c4.5-6.1,10.2-9.2,16.8-9.2c4.9-0.2,9.5,2,12.5,5.9c3.2,3.8,4.8,8.8,4.8,14.7v7.1
			c-7.9-3.9-14.9-6-21.1-6c-10.9,0-19.9,4-26.7,11.4c-7,7.6-10.4,17-10.4,28c0,11.2,3.2,20.1,9.8,26.7c6.6,6.4,14.4,9.7,23.4,9.7
			c8.6,0,17.1-3.7,24.9-10.7v9.1h101.4v-26.8h-15.2v-52c8.1-5.2,15.2-7.8,21.4-7.8c8,0,11.9,6.3,11.9,19.3V168l44.3,0.1v-27h-15v-52
			c7.5-5.2,14.5-7.8,20.9-7.8c8.3,0,12.3,6,12.3,18.2V168H466v-27L450.8,141.1z M239.5,134.2c-6.9,8.1-12.9,12.1-18.3,12.1
			c-3.4,0.1-6.5-1.6-8.3-4.4c-2.4-3.1-3.6-7-3.5-10.9c0-5,1.3-8.4,4.2-11c2.4-2.4,5.6-3.8,9-3.8c4.3,0,9.8,2.8,16.9,8.4L239.5,134.2
			z"/>
		<path class="st1" d="M666.9,141.1v26.9h-64.3v-26.9h17.1V78h-16.1V51.3l42.8-0.1v29.5c1.5-8.2,5.3-15.8,11-22
			c5.8-6.2,12.8-9.3,20.8-9.3h4.7v35.1c-7.4,0-13.4,1.1-18.1,3.2s-8.5,6.7-11.5,13.8c-3.2,6.9-4.7,15.4-4.7,25.1V141L666.9,141.1z"
			/>
		<path class="st1" d="M950.6,141.1V96.3c0-12.1-0.8-21.2-2.5-27.2c-1.6-5.8-5.1-10.9-9.9-14.5c-4.8-3.5-10.9-5.2-18.5-5.2
			c-12.7,0-25.1,5.2-36.7,15.9c-6.7-10.7-15.7-15.9-27.5-15.9c-10,0-19.8,3.7-29.6,11.2v-9.5l-44.3,0.1V78h15.1v63.1h-28.2V98.4
			c0-10.8-0.5-18.5-1.7-23.3c-1.1-4.8-3.1-9.2-6-13.2c-2.8-4.1-7.1-7.4-12.8-9.8c-5.8-2.6-13.1-3.8-21.9-3.8
			c-22.8,0-37.5,9.2-44.4,27.5l23.6,5.4C710,75.1,715.4,72,722,72c4.9-0.2,9.6,2,12.7,5.9c3.2,3.8,4.7,8.8,4.7,14.7v7.1
			c-7.9-3.9-15-6-21-6c-11.1,0-19.9,4-26.9,11.4c-7.1,7.6-10.5,17-10.5,28c0,11.2,3.3,20.1,10,26.7c6.1,6.4,14.6,9.9,23.5,9.8
			c8.8,0,17-3.7,24.9-10.7v9.1h101.5v-26.9h-15v-52c8-5.2,15-7.8,21.2-7.8c7.8,0,11.9,6.3,11.9,19.3V168h44.2v-26.9h-15v-52
			c7.5-5.2,14.5-7.8,20.9-7.8c8.4,0,12.5,6,12.5,18.2v68.6l44.3-0.1v-26.9H950.6z M739.4,134.2c-6.8,8.1-12.8,12.1-18.2,12.1
			c-3.4,0.1-6.7-1.6-8.6-4.4c-2.3-3.2-3.5-7-3.3-10.9c0-5,1.4-8.4,4-11c2.5-2.4,5.8-3.8,9.2-3.8c4.1,0,10,2.8,16.9,8.4L739.4,134.2z
			"/>
		<path class="st1" d="M1066.1,141.1v26.9h-43.9v-9.2c-7.8,7.1-16.1,10.8-24.8,10.8c-8.8,0.1-17.3-3.5-23.5-9.8
			c-6.6-6.6-10-15.5-10-26.7c0-11,3.6-20.4,10.5-28s15.8-11.4,26.7-11.4c6.1,0,13.2,2.1,21.1,6v-7.1c0-5.9-1.5-10.9-4.7-14.7
			s-7.3-5.9-12.6-5.9c-6.4,0-12,3.1-16.8,9.2l-23.4-5.4c6.7-18.3,21.4-27.5,44.2-27.5c8.6,0,16.1,1.2,21.7,3.8
			c5.9,2.4,10.1,5.7,13,9.8c2.8,4,4.9,8.5,6,13.2c1.2,4.8,1.8,12.5,1.8,23.3V141L1066.1,141.1z M1022.2,124.7
			c-7.1-5.6-12.7-8.4-16.8-8.4c-3.5,0-6.8,1.4-9.2,3.8c-2.8,2.5-4,6-4,11c-0.1,3.9,1.1,7.7,3.3,10.9c1.9,2.8,5.1,4.5,8.4,4.4
			c5.4,0,11.6-4,18.3-12.1L1022.2,124.7z"/>
		<path class="st2" d="M530.4,163c-36.1,0-65.4-29.3-65.4-65.4s29.3-65.4,65.4-65.4c36.1,0,65.4,29.3,65.4,65.4c0,0,0,0,0,0
			c0.1,36.1-29.1,65.3-65.2,65.4C530.5,163,530.5,163,530.4,163z"/>
		
			<linearGradient id="SVGID_1_" gradientUnits="userSpaceOnUse" x1="565.6817" y1="138.9469" x2="504.5418" y2="186.4969" gradientTransform="matrix(1 0 0 -1 -7.89 257.92)">
			<stop  offset="0" style="stop-color:#D5DBD9"/>
			<stop  offset="0.16" style="stop-color:#DEE2E0"/>
			<stop  offset="0.37" style="stop-color:#CFD4D3"/>
			<stop  offset="0.64" style="stop-color:#B6BDBF"/>
			<stop  offset="0.8" style="stop-color:#221E20"/>
			<stop  offset="0.93" style="stop-color:#A7ADB5"/>
			<stop  offset="1" style="stop-color:#FFFFFF"/>
		</linearGradient>
		<path class="st3" d="M530.4,63.9c-18.6-0.1-33.7,15-33.8,33.6s15,33.7,33.6,33.8c18.6,0.1,33.7-15,33.8-33.6c0,0,0-0.1,0-0.1
			C563.9,79,548.9,64,530.4,63.9z M530.4,128.4c-17.1,0-30.9-13.9-30.8-31c0-17.1,13.9-30.9,31-30.8c17.1,0,30.9,13.9,30.8,31
			c0,17-13.8,30.9-30.9,30.9C530.5,128.4,530.4,128.4,530.4,128.4z"/>
		
			<linearGradient id="SVGID_2_" gradientUnits="userSpaceOnUse" x1="578.5643" y1="114.0609" x2="497.9843" y2="207.2109" gradientTransform="matrix(1 0 0 -1 -7.89 257.92)">
			<stop  offset="0" style="stop-color:#E8EAE8"/>
			<stop  offset="6.000000e-02" style="stop-color:#E4E6E4"/>
			<stop  offset="0.4" style="stop-color:#CFD5D3"/>
			<stop  offset="0.62" style="stop-color:#C8CFCD"/>
			<stop  offset="0.71" style="stop-color:#D1D6D4"/>
			<stop  offset="1" style="stop-color:#E8EAE8"/>
		</linearGradient>
		<path class="st4" d="M530.4,34.6c-34.8,0.1-62.9,28.4-62.8,63.2s28.4,62.9,63.2,62.8c34.7-0.1,62.8-28.3,62.8-63
			c0-34.7-28.1-63-62.8-63C530.6,34.6,530.5,34.6,530.4,34.6z M530.4,157.8c-33.2,0-60.1-26.9-60.1-60.1s26.9-60.1,60.1-60.1
			c33.2,0,60.1,26.9,60.1,60c0.1,33.2-26.8,60.1-60,60.2C530.5,157.8,530.4,157.8,530.4,157.8L530.4,157.8z"/>
		
			<linearGradient id="SVGID_3_" gradientUnits="userSpaceOnUse" x1="574.2319" y1="113.3602" x2="501.4619" y2="208.3401" gradientTransform="matrix(1 0 0 -1 -7.89 257.92)">
			<stop  offset="1.000000e-02" style="stop-color:#ECECEB"/>
			<stop  offset="0.2" style="stop-color:#B8B9B8"/>
			<stop  offset="0.6" style="stop-color:#585859"/>
			<stop  offset="0.87" style="stop-color:#1B1C1D"/>
			<stop  offset="1" style="stop-color:#030406"/>
		</linearGradient>
		<path class="st5" d="M530.4,37.5c-33.2,0-60.1,26.9-60.1,60.1s26.9,60.1,60.1,60.1s60.1-26.9,60.1-60.1c0,0,0-0.1,0-0.1
			C590.5,64.4,563.6,37.5,530.4,37.5C530.5,37.5,530.4,37.5,530.4,37.5z M530.4,154c-31.2,0-56.5-25.2-56.5-56.4
			s25.2-56.5,56.4-56.5c31.2,0,56.5,25.2,56.5,56.4c0,0,0,0,0,0C586.8,128.7,561.6,154,530.4,154z"/>
		
			<linearGradient id="SVGID_4_" gradientUnits="userSpaceOnUse" x1="560.9035" y1="125.7064" x2="510.0535" y2="203.5864" gradientTransform="matrix(1 0 0 -1 -7.89 257.92)">
			<stop  offset="1.000000e-02" style="stop-color:#ECECEB"/>
			<stop  offset="0.2" style="stop-color:#B8B9B8"/>
			<stop  offset="0.6" style="stop-color:#585859"/>
			<stop  offset="0.87" style="stop-color:#1B1C1D"/>
			<stop  offset="1" style="stop-color:#030406"/>
		</linearGradient>
		<path class="st6" d="M530.4,41.1c-31.2,0-56.5,25.2-56.5,56.4s25.2,56.5,56.4,56.5c31.2,0,56.5-25.2,56.5-56.4c0,0,0,0,0-0.1
			c0.1-31.1-25-56.3-56.1-56.4C530.6,41.1,530.5,41.1,530.4,41.1z M530.4,147.5c-27.5,0-49.9-22.3-49.9-49.9
			c0-27.5,22.3-49.9,49.9-49.9c27.5,0,49.9,22.3,49.9,49.8C580.3,125.1,558,147.5,530.4,147.5C530.4,147.5,530.4,147.5,530.4,147.5
			L530.4,147.5z"/>
		
			<linearGradient id="SVGID_5_" gradientUnits="userSpaceOnUse" x1="500.884" y1="134.3398" x2="574.694" y2="185.6898" gradientTransform="matrix(1 0 0 -1 -7.89 257.92)">
			<stop  offset="0" style="stop-color:#1B1B1F"/>
			<stop  offset="0.13" style="stop-color:#3E4043"/>
			<stop  offset="0.43" style="stop-color:#979D9E"/>
			<stop  offset="0.55" style="stop-color:#BDC5C5"/>
			<stop  offset="0.59" style="stop-color:#9FA5A6"/>
			<stop  offset="0.66" style="stop-color:#767A7C"/>
			<stop  offset="0.73" style="stop-color:#545659"/>
			<stop  offset="0.79" style="stop-color:#3A3B3E"/>
			<stop  offset="0.86" style="stop-color:#27272A"/>
			<stop  offset="0.93" style="stop-color:#1C1B1F"/>
			<stop  offset="1" style="stop-color:#18171B"/>
		</linearGradient>
		<path class="st7" d="M530.4,50c-26.3,0-47.6,21.3-47.6,47.5s21.3,47.6,47.6,47.6c26.3,0,47.6-21.3,47.6-47.5c0,0,0,0,0,0
			c0.1-26.2-21.1-47.5-47.3-47.6C530.6,50,530.5,50,530.4,50z M530.4,138.2c-22.5,0-40.7-18.1-40.7-40.6c0-22.5,18.1-40.7,40.6-40.7
			c22.5,0,40.7,18.1,40.7,40.6c0,0,0,0,0,0C571,120,552.8,138.2,530.4,138.2z"/>
		
			<linearGradient id="SVGID_6_" gradientUnits="userSpaceOnUse" x1="565.5893" y1="133.6676" x2="509.6793" y2="188.2376" gradientTransform="matrix(1 0 0 -1 -7.89 257.92)">
			<stop  offset="0" style="stop-color:#D5DBD9"/>
			<stop  offset="0.16" style="stop-color:#DEE2E0"/>
			<stop  offset="0.37" style="stop-color:#CFD4D3"/>
			<stop  offset="0.64" style="stop-color:#B6BDBF"/>
			<stop  offset="0.8" style="stop-color:#221E20"/>
			<stop  offset="0.93" style="stop-color:#A7ADB5"/>
			<stop  offset="1" style="stop-color:#FFFFFF"/>
		</linearGradient>
		<path class="st8" d="M530.4,59.4c-21.1,0-38.2,17.1-38.2,38.2s17.1,38.2,38.2,38.2c21.1,0,38.2-17.1,38.2-38.2c0,0,0,0,0,0
			C568.5,76.5,551.5,59.4,530.4,59.4z M530.4,134c-20.1-0.1-36.3-16.4-36.2-36.5s16.4-36.3,36.5-36.2c20,0.1,36.2,16.3,36.2,36.3
			c0,20.1-16.2,36.4-36.3,36.4C530.6,134,530.5,134,530.4,134z"/>
		<g>
			
				<image style="overflow:visible;enable-background:new    ;" width="140" height="141" xlink:href="9E791F284106BF09.png"  transform="matrix(1 0 0 1 460.1508 27.24)">
			</image>
		</g>
		<g class="st9">
			<path class="st10" d="M530.4,72.3c13.9-0.1,25.2,11.2,25.3,25.1c0.1,13.9-11.2,25.2-25.1,25.3c-13.9,0.1-25.2-11.2-25.3-25.1
				c0,0,0,0,0,0c-0.1-13.8,10.9-25.1,24.7-25.3C530.2,72.3,530.3,72.3,530.4,72.3 M530.4,72.2c-14,0.1-25.2,11.4-25.2,25.4
				c0,13.9,11.3,25.2,25.2,25.2c13.9,0,25.2-11.3,25.2-25.2c0,0,0,0,0,0c0-6.7-2.6-13.2-7.3-18C543.5,74.8,537.1,72.1,530.4,72.2
				L530.4,72.2z"/>
		</g>
		
			<linearGradient id="SVGID_7_" gradientUnits="userSpaceOnUse" x1="525.6307" y1="171.7335" x2="552.9307" y2="147.3735" gradientTransform="matrix(1 0 0 -1 -7.89 257.92)">
			<stop  offset="1.000000e-02" style="stop-color:#ECECEB"/>
			<stop  offset="0.2" style="stop-color:#B8B9B8"/>
			<stop  offset="0.6" style="stop-color:#585859"/>
			<stop  offset="0.87" style="stop-color:#1B1C1D"/>
			<stop  offset="1" style="stop-color:#030406"/>
		</linearGradient>
		<path class="st11" d="M553,97.6c0,12.5-10.2,22.6-22.7,22.5c-12.5,0-22.6-10.2-22.5-22.7c0-12.5,10.1-22.5,22.6-22.5
			c12.4,0,22.6,10,22.6,22.5C553,97.4,553,97.5,553,97.6z"/>
		
			<linearGradient id="SVGID_8_" gradientUnits="userSpaceOnUse" x1="520.6759" y1="139.3888" x2="581.3859" y2="211.3489" gradientTransform="matrix(1 0 0 -1 -7.89 257.92)">
			<stop  offset="0" style="stop-color:#1B1B1F"/>
			<stop  offset="0.13" style="stop-color:#3E4043"/>
			<stop  offset="0.43" style="stop-color:#979D9E"/>
			<stop  offset="0.55" style="stop-color:#BDC5C5"/>
			<stop  offset="0.59" style="stop-color:#9FA5A6"/>
			<stop  offset="0.66" style="stop-color:#767A7C"/>
			<stop  offset="0.73" style="stop-color:#545659"/>
			<stop  offset="0.79" style="stop-color:#3A3B3E"/>
			<stop  offset="0.86" style="stop-color:#27272A"/>
			<stop  offset="0.93" style="stop-color:#1C1B1F"/>
			<stop  offset="1" style="stop-color:#18171B"/>
		</linearGradient>
		<path class="st12" d="M548.5,97.6c0,10-8,18.1-18,18.2c-10,0-18.1-8-18.2-18c0-10,8-18.1,18-18.2c0,0,0,0,0.1,0
			C540.3,79.6,548.4,87.6,548.5,97.6z"/>
		
			<linearGradient id="SVGID_9_" gradientUnits="userSpaceOnUse" x1="531.7282" y1="167.1272" x2="542.4382" y2="156.1472" gradientTransform="matrix(1 0 0 -1 -7.89 257.92)">
			<stop  offset="0" style="stop-color:#FFFFFF"/>
			<stop  offset="1" style="stop-color:#000000"/>
		</linearGradient>
		<path class="st13" d="M545.3,97.6c0,8.2-6.7,14.9-14.9,14.9c-8.2,0-14.9-6.7-14.9-14.9c0-8.2,6.7-14.9,14.9-14.9l0,0
			c8.2-0.1,14.8,6.5,14.9,14.6C545.3,97.4,545.3,97.5,545.3,97.6z"/>
		<path class="st14" d="M530.4,157.8c-33.2,0-60.1-26.9-60.1-60.1s26.9-60.1,60.1-60.1c33.2,0,60.1,26.9,60.1,60
			c0.1,33.2-26.8,60.1-60,60.2C530.5,157.8,530.4,157.8,530.4,157.8z"/>
		<path class="st15" d="M530.4,157.8c-33.2,0-60.1-26.9-60.1-60.1s26.9-60.1,60.1-60.1c33.2,0,60.1,26.9,60.1,60
			c0.1,33.2-26.8,60.1-60,60.2C530.5,157.8,530.4,157.8,530.4,157.8z"/>
		
			<linearGradient id="SVGID_10_" gradientUnits="userSpaceOnUse" x1="561.6612" y1="131.8774" x2="515.9212" y2="187.5174" gradientTransform="matrix(1 0 0 -1 -7.89 257.92)">
			<stop  offset="0" style="stop-color:#D5DBD9"/>
			<stop  offset="0.16" style="stop-color:#DEE2E0"/>
			<stop  offset="0.37" style="stop-color:#CFD4D3"/>
			<stop  offset="0.55" style="stop-color:#B6BDBF"/>
			<stop  offset="0.69" style="stop-color:#221E20"/>
			<stop  offset="0.84" style="stop-color:#A7ADB5"/>
			<stop  offset="0.87" style="stop-color:#C6CACF"/>
			<stop  offset="0.9" style="stop-color:#DFE1E4"/>
			<stop  offset="0.93" style="stop-color:#F1F2F3"/>
			<stop  offset="0.96" style="stop-color:#FCFCFC"/>
			<stop  offset="1" style="stop-color:#FFFFFF"/>
		</linearGradient>
		<path class="st16" d="M530.4,59.4c-21.1,0-38.2,17.1-38.2,38.2s17.1,38.2,38.2,38.2c21.1,0,38.2-17.1,38.2-38.2c0,0,0,0,0,0
			C568.5,76.5,551.5,59.4,530.4,59.4z M530.4,134c-20.1-0.1-36.3-16.4-36.2-36.5s16.4-36.3,36.5-36.2c20,0.1,36.2,16.3,36.2,36.3
			c0,20.1-16.2,36.4-36.3,36.4C530.6,134,530.5,134,530.4,134z"/>
		
			<linearGradient id="SVGID_11_" gradientUnits="userSpaceOnUse" x1="574.3126" y1="116.6767" x2="531.7026" y2="168.2367" gradientTransform="matrix(1 0 0 -1 -7.89 257.92)">
			<stop  offset="0" style="stop-color:#FFFFFF"/>
			<stop  offset="0.15" style="stop-color:#C4C4C4"/>
			<stop  offset="0.32" style="stop-color:#898989"/>
			<stop  offset="0.49" style="stop-color:#585858"/>
			<stop  offset="0.64" style="stop-color:#323232"/>
			<stop  offset="0.78" style="stop-color:#161616"/>
			<stop  offset="0.91" style="stop-color:#060606"/>
			<stop  offset="1" style="stop-color:#000000"/>
		</linearGradient>
		<path class="st17" d="M530.4,56.9c-22.5,0-40.7,18.1-40.7,40.6c0,22.5,18.1,40.7,40.6,40.7c22.5,0,40.7-18.1,40.7-40.6
			c0,0,0-0.1,0-0.1C571,75.1,552.8,56.9,530.4,56.9C530.4,56.9,530.4,56.9,530.4,56.9z M530.4,135.8c-21.1,0-38.2-17.1-38.2-38.2
			s17.1-38.2,38.2-38.2c21.1,0,38.2,17.1,38.2,38.2c0,0,0,0,0,0C568.6,118.6,551.5,135.7,530.4,135.8z"/>
		<path class="st18" d="M530.4,138.2c-22.5,0-40.7-18.1-40.7-40.6c0-22.5,18.1-40.7,40.6-40.7c22.5,0,40.7,18.1,40.7,40.6
			c0,0,0,0,0,0C571,120,552.8,138.2,530.4,138.2z"/>
		<path class="st19" d="M530.4,135.8c-21.1,0-38.2-17.1-38.2-38.2s17.1-38.2,38.2-38.2c21.1,0,38.2,17.1,38.2,38.2c0,0,0,0,0,0
			C568.6,118.6,551.5,135.7,530.4,135.8z"/>
		<path class="st20" d="M521.6,74.9c1.1,1.4-0.5,4.7-3.5,7.2s-6.4,3.4-7.8,2c-1.1-1.4,0.4-4.6,3.4-7.1
			C516.8,74.3,520.3,73.5,521.6,74.9z"/>
		<path class="st21" d="M539.7,104.6c0.8,0.7,0.2,1.6-0.8,2.4c-0.8,0.8-1.8,0.9-2.4,0.3c-0.3-0.9,0-1.9,0.7-2.4
			C538.1,104.2,539.4,104,539.7,104.6z"/>
		<path class="st22" d="M525.5,85.6c0.8,1.1-0.2,2.8-2.1,4.5s-4,2.2-4.6,1.4s0.1-2.8,1.8-4.4C522.6,85.3,524.7,84.7,525.5,85.6z"/>
		
			<linearGradient id="SVGID_12_" gradientUnits="userSpaceOnUse" x1="582.2516" y1="102.2984" x2="494.8416" y2="218.0484" gradientTransform="matrix(1 0 0 -1 -7.89 257.92)">
			<stop  offset="0" style="stop-color:#C8CFCD"/>
			<stop  offset="8.000000e-02" style="stop-color:#D1D6D4"/>
			<stop  offset="0.33" style="stop-color:#E8EAE8"/>
			<stop  offset="0.62" style="stop-color:#C8CFCD"/>
			<stop  offset="0.67" style="stop-color:#D1D6D4"/>
			<stop  offset="0.82" style="stop-color:#E8EAE8"/>
			<stop  offset="1" style="stop-color:#C8CFCD"/>
		</linearGradient>
		<path class="st23" d="M530.4,22.3c-41.6,0.1-75.3,33.9-75.2,75.5s33.9,75.3,75.5,75.2c41.6-0.1,75.2-33.8,75.2-75.4
			c0-41.6-33.7-75.3-75.3-75.3C530.5,22.3,530.5,22.3,530.4,22.3z M530.4,163c-36.1,0-65.4-29.3-65.4-65.4s29.3-65.4,65.4-65.4
			c36.1,0,65.4,29.3,65.4,65.4c0,0,0,0,0,0c0.1,36.1-29.1,65.3-65.2,65.4C530.5,163,530.5,163,530.4,163z"/>
		
			<linearGradient id="SVGID_13_" gradientUnits="userSpaceOnUse" x1="583.8535" y1="100.1848" x2="493.0241" y2="220.4475" gradientTransform="matrix(1 0 0 -1 -7.89 257.92)">
			<stop  offset="0" style="stop-color:#221E20"/>
			<stop  offset="3.000000e-02" style="stop-color:#383536"/>
			<stop  offset="0.18" style="stop-color:#969595"/>
			<stop  offset="0.28" style="stop-color:#D1D2D1"/>
			<stop  offset="0.33" style="stop-color:#E8EAE8"/>
			<stop  offset="0.62" style="stop-color:#ECECEC"/>
			<stop  offset="0.82" style="stop-color:#E8EAE8"/>
			<stop  offset="1" style="stop-color:#221E20"/>
		</linearGradient>
		<path class="st24" d="M530.4,22.3c-41.6,0.1-75.3,33.9-75.2,75.5s33.9,75.3,75.5,75.2c41.6-0.1,75.2-33.8,75.2-75.4
			c0-41.6-33.7-75.3-75.3-75.3C530.5,22.3,530.5,22.3,530.4,22.3z M530.4,163c-36.1,0-65.4-29.3-65.4-65.4s29.3-65.4,65.4-65.4
			c36.1,0,65.4,29.3,65.4,65.4c0,0,0,0,0,0c0.1,36.1-29.1,65.3-65.2,65.4C530.5,163,530.5,163,530.4,163z"/>
		<path class="st25" d="M530.4,163c-36.1,0-65.4-29.3-65.4-65.4s29.3-65.4,65.4-65.4c36.1,0,65.4,29.3,65.4,65.4c0,0,0,0,0,0
			c0.1,36.1-29.1,65.3-65.2,65.4C530.5,163,530.5,163,530.4,163z"/>
		<path class="st26" d="M530.4,163.9c-36.6,0-66.2-29.7-66.2-66.2c0-36.6,29.7-66.2,66.2-66.2c36.5,0,66.1,29.6,66.2,66.1
			C596.7,134.2,567,163.9,530.4,163.9C530.4,163.9,530.4,163.9,530.4,163.9z"/>
	</g>
</g>
</svg>
