<svg version="1.1" id="Layer_1" xmlns="http://www.w3.org/2000/svg" x="0" y="0" viewBox="0 0 370 370" xml:space="preserve"><style>.st0{fill:#00c7bd}</style><path class="st0" d="M185 370C83 370 0 287 0 185S83 0 185 0s185 83 185 185-83 185-185 185m0-364.7C85.9 5.3 5.3 85.9 5.3 185S85.9 364.7 185 364.7 364.7 284.1 364.7 185 284.1 5.3 185 5.3"/><path class="st0" d="M227.4 204.7c1-1.2 1.7-4.6 1.7-7.9 0-7.6.2-28.8 0-36 0-2.8-.7-5.1-2.7-5.8-1.6-.6-3.3-1.1-5-1.4-2.2-.5-3.1-1.4-3.1-2.4s1.7-1.2 3.1-1.2c3.3 0 19.7-1.2 20.6-1.2s1.4 1.7 1.4 5.5c0 7.4-.5 16.8-.5 47.4 0 8.1.7 9.8 3.4 9.8 2.4-.2 8.2-1.4 9.1-1.4.6 0 1.2.6 1.2 1.2 0 .7-.5 3.1-1.5 3.3-6 .9-16.3 3.4-20.1 4.5-1.3.5-2.7.8-4.1.9-.7 0-1.5-1.5-1.5-3.1 0-3.1.2-7.2.4-9.1 0-.3-.7-.3-.9-.2-1.5 1.2-7.9 6.7-12.7 9.1-3.5 1.8-7.4 2.7-11.3 2.6-5.7 0-10.6-2.1-13.9-5.7-2.8-2.9-4.5-7.7-4.5-13.7 0-14.1.4-32.8-.2-38.6-.3-4.5-.2-5.5-5.5-7.4-1.4-.5-3.3-1.4-3.3-2.4s1.4-1.4 3.8-1.4c9.3 0 15.1-1 19-1 .4 0 1 1 .9 2.4-.3 11-.9 30.5-.9 41.9 0 7.7 1.4 11.8 4.8 14.1 2.6 1.9 6.4 2.7 10.3 2.6 7.2-.2 9.8-3 12-5.4m-41.8 24.2c1.4 0 11.2-.2 13.9-.2 4.9 0 7.3-.2 10.2 1.2s4.2 3.7 4.2 5.5c0 3.4-1.9 6.5-5 8-4.7 2.6-8.4 2.8-9.1 2.7s-1.3-.1-1.4-.6c0-.4.2-.7.6-.8 3.7-1.6 8.1-3.2 8.1-8.6 0-4.8-3.8-5.7-8.4-5.7-.7 0-1.4.2-2.1.5-.3.2-.5.6-.5 1-.1 5.6-.1 23.4.2 25.6.3 4.5.4 5.2 4.1 6.1 1.1.2 1.5.5 1.5 1s-.9.8-1.8.8c-2.1 0-12.8-.1-14.4-.1-.9 0-1.8-.3-1.8-.7s.5-.8 1.6-1c3-.6 3.6-1.6 3.8-4.9.1-2.7.2-5.7.2-13.4 0-6.4-.2-9.3-.3-11.1s-.4-2.9-3.7-3.5c-1.3-.3-1.7-.7-1.7-1s.5-.7 1.8-.8m43.2 3.1c.2-.5.4-1 .4-1.6v-.7c.1-.4.4-.8.7-1 1.2-.1 2.4-.1 3.6 0 .2 0 .6.5.6.7.3 1.1.7 2.3 1.1 3.4 1.3 3.5 8.2 21.6 9.8 25 1.8 3.8 2.1 4.8 5.5 6.1 1 .4 1.5.6 1.5 1s-.9.4-1.8.4h-14c-1.4 0-1.8-.4-1.8-.9s.7-.8 1.8-1c1.8-.6 2.4-1 2.4-2.3 0-.8-1.7-4.9-2.8-8.1-.2-.6-.7-1.1-1.4-1.2-1.8-.2-9-.1-9.8 0-.6 0-1 .6-1.2 1-.6 1.6-2.3 6.7-2.3 7.8 0 1.4.8 2.2 3.8 3 1 .3 1.4.7 1.4 1 0 .6-.9.8-1.7.8h-11.2c-1.3 0-2.2-.2-2.2-.7s.5-1 1.8-1.2c2.8-.7 3.7-1.4 6-6.4 2.1-4.2 8.7-22 9.8-25.1m1.2 4.1c-.2-.2-.5-.1-.6.2-1 2.7-3.6 9.8-4.2 11.5-.1.3.1.9.3.9 1 .1 6.9.1 8.5-.1.2 0 .5-.2.3-.7-1.1-2.9-2.8-8.2-4.3-11.8m40.3-8c1.2.2 2.4.4 3.7.5.6.1.9.9 1 1.8 0 1.3.3 4.4.3 5.5 0 .7-.3 1.3-.8 1.7-.6 0-.7-.5-1.1-1.6-.5-1.8-1.5-3.4-3-4.6-1.4-1.2-3.1-1.8-4.9-1.8-3.3-.2-6.1 2.4-6.3 5.7v.6c0 3 1.7 4.6 4.1 6 2.5 1.5 4.5 2.6 6.8 4 3.4 2.1 6.5 5.4 6.5 9.5-.1 3.5-1.9 6.8-4.9 8.7-2.8 1.6-6 2.4-9.3 2.4-1.5 0-2.9-.1-4.4-.4-2.9-.6-5.2-2.7-6-5.5-.3-1.2-.5-2.5-.6-3.8 0-.7.1-1.8.7-1.8.8 0 1.9 2.6 2.3 3.4 1.8 3.6 4.6 6.2 8.8 6.2 3.6.1 6.5-2.7 6.8-6.2 0-2.6-1.5-4.6-4.6-6.6-1.9-1.3-3.3-2.1-5-3-3.8-2.2-7.3-5.8-7.3-10.5 0-5.5 4.8-10.5 12.8-10.5 1.6 0 3 .2 4.4.3m21.5 3.9c.2-.5.4-1 .4-1.6v-.7c.1-.4.4-.8.7-1 1.2-.1 2.4-.1 3.6 0 .2 0 .6.5.6.7.3 1.1.7 2.3 1.1 3.4 1.3 3.5 8.2 21.6 9.8 25 1.8 3.8 1.8 4.5 5.5 5.7 1 .4 1.4.6 1.4 1 0 .6-.9.9-1.8.9h-14c-1.4 0-1.8-.4-1.8-.9s.7-.8 1.8-1c1.8-.6 2.4-1 2.4-2.3 0-.8-1.7-4.9-2.8-8.1-.2-.6-.7-1.1-1.4-1.2-1.8-.2-9-.1-9.8 0-.5 0-1 .6-1.2 1-.6 1.6-2.3 6.7-2.3 7.8 0 1.4.8 2.2 3.8 3 1 .3 1.4.7 1.4 1 0 .6-.9.8-1.7.8h-11.2c-1.3 0-2.2-.2-2.2-.7s.7-.3 2-.8c2.8-1 3.5-1.9 5.8-6.8 2.2-4.2 8.9-22 9.9-25.2m1.3 4.2c-.2-.2-.5-.1-.6.2-1 2.7-3.6 9.8-4.2 11.5-.1.3.1.9.3.9 1 .1 6.9.1 8.5-.1.2 0 .5-.2.3-.7-1.1-3-2.9-8.2-4.3-11.8m18.5-68.3c0 1.9-2.4 3.3-4.8 3.1-11-.5-29.2-.5-35.2 0-1 .4-1.7 1.1-2.1 2.1-.3 2.3-.4 4.6-.3 6.9 0 13.7 11 28.7 25.6 28.7 9.4 0 13.2-3.6 16.8-8.4 1-1.4 2.4-1.4 2.4.9 0 1.5-1.5 3.6-2.4 4.6-6 7.9-15.6 13.6-25.4 13.6-18.9 0-29.7-16.1-29.7-34.1 0-12 4.8-25.9 18.5-33.6 3.6-2.2 8.6-3.8 14.9-3.8 12.6-.2 21.7 8.2 21.7 20m-41-1.7c0 .3.3 1.4.8 1.4 6.9 0 16.8-.3 20.9-.3 4.3-.5 6.3-1.4 6.3-5.7-.2-6.2-6.7-10.8-10.6-10.8-7.1 0-14.7 6.2-17.4 15.4m11.5-26.5c.4 1.2 1.5 2 2.8 1.8l20.5-21.3c1.6-1.6 2.6-3.4 2.6-4.4 0-1.3-1.1-2.9-2.8-4.3-1.4-1.3-3.2-2.2-5.1-2.5-1.6 0-3 2.1-3.9 3.9l-14.1 26.8z"/><path class="st0" d="M118.3 215.3c-33.1-1.1-45.3-37.3-46-56.1-1.2-34.8 17.2-51 35.7-51 30.8 0 46.5 29.8 46.5 57.7-.1 38.9-23.2 49.9-36.2 49.4m67.4 32.7c-2.4 1-8 1.5-9.7 1.5-5.3 0-10.6-.8-15.7-2.4-13.5-4.4-29.9-18.2-31.8-27.9-.3-1.4 1-1.7 2-2 23.9-7.9 41.8-28.6 41.8-55.6.1-29.8-23.3-58-58.7-58-31.4 0-59.5 23.2-58.8 58.2.5 23 13 43.2 36 53.1 4.8 2.1 9.7 3.5 14.9 4.4 4.7.9 3.4 1.6 8.4 6.7 6.3 6.1 14.1 16.5 28 23 10 4.6 16.2 6 23.9 6 5.9 0 14.8-2.3 20.4-5.1 1.1-.5.4-2.3-.7-1.8"/></svg>