<?xml version="1.0" encoding="utf-8"?>
<!-- Generator: Adobe Illustrator 23.0.1, SVG Export Plug-In . SVG Version: 6.00 Build 0)  -->
<svg version="1.1" id="Layer_1" xmlns="http://www.w3.org/2000/svg" xmlns:xlink="http://www.w3.org/1999/xlink" x="0px" y="0px"
	 viewBox="0 0 724.4 141.4" style="enable-background:new 0 0 724.4 141.4;" xml:space="preserve">
<style type="text/css">
	.st0{fill:#FFFFFF;}
</style>
<title>Logo_Icarito_white_RGB</title>
<path class="st0" d="M44.2,30.1v83.1c0,7.2-1.9,13.1-5.6,17.8c-4,5.2-9.5,7.7-16.6,7.7c-6.2,0.1-12.2-2.5-16.3-7.2
	C1.8,127.6,0,121.4,0,113.2V30.1c0-9.3,1.8-16,5.7-20.2C9.8,5.2,15.7,2.5,22,2.7c6.3-0.2,12.3,2.4,16.4,7.1
	C42.3,14,44.2,20.8,44.2,30.1z"/>
<path class="st0" d="M123.7,0c16.3,0,31.2,5.4,45,16.4c10.7,8.7,16.1,17.6,16.1,26.8c0,7.9-3.2,13.9-9.8,18.2
	c-3.6,2.4-7.8,3.7-12.2,3.7c-3.6,0-7.1-0.9-10.3-2.5c-1.3-0.7-4.7-4-10.2-9.9c-4.8-5.4-11.7-8.4-18.9-8.2
	c-6.9-0.1-13.6,2.6-18.5,7.6c-4.9,5-7.5,11.7-7.3,18.6c-0.2,6.9,2.5,13.6,7.3,18.5c4.8,4.9,11.5,7.7,18.4,7.6
	c6.1,0,11.6-2.1,16.8-6.1c3.2-3,6.4-6.1,9.5-9.2c3.4-3,7.7-4.4,13-4.4c5.8,0,11.5,2.2,15.6,6.3c4.3,4,6.7,9.6,6.6,15.4
	c0,8.1-4.8,16.5-14.4,24.8c-13.5,11.7-29,17.7-46.8,17.7c-10.7,0-21.2-2.4-30.9-7c-12-5.7-22.2-14.7-29.2-26
	C56.3,97.2,52.5,84.2,52.6,71c0-20.3,7.5-37.6,22.5-51.8C88.5,6.6,104.6,0.2,123.7,0z"/>
<path class="st0" d="M472.4,30.1v83.1c0,7.2-1.9,13.2-5.6,17.8c-4,5.2-9.5,7.7-16.5,7.7c-6.3,0.1-12.2-2.5-16.4-7.2
	c-3.7-3.9-5.7-10.1-5.7-18.3V30.1c0-9.3,1.9-16,5.6-20.2c8.6-9.1,22.9-9.5,31.9-0.9c0.3,0.3,0.6,0.6,0.9,0.9
	C470.5,14,472.4,20.8,472.4,30.1z"/>
<path class="st0" d="M510,44.8h-11.6c-6.5,0-11.8-1.8-16.2-5.3c-4.5-3.8-6.7-8.9-6.7-15.2c0-3.9,1.1-7.7,3.2-11
	c1.9-3.2,4.8-5.8,8.2-7.3c3.4-1.5,11.4-2.3,24-2.3h44.6c10.9,0,18,0.7,21.2,2c3.6,1.5,6.6,4,8.6,7.4c2.2,3.3,3.4,7.1,3.4,11
	c0,6.1-2.5,11.3-7.3,15.9c-3.5,3.2-9.1,4.8-16.9,4.8h-10.1v66.7c0,7.4-1.3,13-3.8,16.9c-4.2,6.8-10.2,10.1-18.2,10.1
	s-14-3.2-18.1-9.3c-2.7-3.7-4.1-9.4-4.1-17.3L510,44.8z"/>
<path class="st0" d="M310.5,106.1l-42.4-90C264,7.1,257,2.7,247.4,2.7S231.2,7,227.1,15.7l-41.9,89.2c-1.8,3.7-2.8,7.7-2.8,11.8
	c0,4.5,1.3,8.8,3.8,12.5c4,6.1,10.9,9.7,18.1,9.5c6.2,0.1,12.2-2.6,16.2-7.3c2.2-2.4,4.4-6.1,6.5-11.1h41c2.9,6.1,5.6,10.4,8.5,13
	c3.9,3.6,9,5.5,14.2,5.4c6.6,0.1,12.9-2.8,17.1-8c3.4-3.8,5.2-8.8,5.1-13.9C312.9,113,312.1,109.4,310.5,106.1z M246.7,78.3h-13.2
	l6.6-14.3l6.6-14.3l6.6,14.3l6.6,14.3H246.7z"/>
<path class="st0" d="M414,102.7L403.6,86c9.6-10.7,14.4-22.1,14.4-34.3c0-6.6-1.4-13.2-4-19.2c-3.6-8.5-9.7-15.7-17.4-20.7
	C389,6.5,380,3.6,370.7,3.7h-28c-18.3,0-27.4,8.5-27.4,25.5v82.5c0,7.8,1.8,14,5.3,18.9c4,5.4,9.7,8.2,17.2,8.2
	c5.9,0.2,11.5-2.2,15.5-6.5c4.1-4.2,6.3-9.9,6.2-15.8V98.2l18.4,30.2c4.2,6.9,10.2,10.3,18.1,10.3c5.9,0.1,11.6-2.1,15.8-6.2
	c4.2-4,6.6-9.6,6.4-15.4C418.2,111.9,416.7,107,414,102.7z M381.3,52.5c0,5.4-6.2,9.8-13.7,9.8h-17.8v-23h17.8
	c7.5,0,13.7,4.4,13.7,9.9L381.3,52.5z"/>
<path class="st0" d="M717,39.3c-5.8-11.8-14.8-21.7-25.9-28.6C679.9,3.5,666.8-0.2,653.5,0c-13.4,0-26.6,3.8-37.9,11
	c-11.5,7.2-20.6,17.6-26.1,30c-4.2,8.9-6.4,18.6-6.5,28.4c-0.1,11.4,2.5,22.6,7.4,32.8c5.8,11.7,14.7,21.6,25.9,28.5
	c11,7,23.8,10.7,36.9,10.7c13.1,0.1,26-3.5,37.2-10.3c10.4-6.3,19-15.3,24.8-25.9C726.8,84.9,727.5,60.1,717,39.3L717,39.3z
	 M668.3,85.6c-8.3,8.1-21.6,8-29.7-0.3c-3.8-3.9-6-9.1-6-14.5c-0.1-5.6,2.2-10.9,6.3-14.7c8.1-8.1,21.3-8.1,29.4,0
	c4.1,3.8,6.3,9.1,6.2,14.7C674.7,76.4,672.4,81.8,668.3,85.6z"/>
</svg>
