<?xml version="1.0" encoding="utf-8"?>
<!-- Generator: Adobe Illustrator 23.0.1, SVG Export Plug-In . SVG Version: 6.00 Build 0)  -->
<svg version="1.1" id="Layer_1" xmlns="http://www.w3.org/2000/svg" xmlns:xlink="http://www.w3.org/1999/xlink" x="0px" y="0px"
	 viewBox="0 0 594.6 147.4" style="enable-background:new 0 0 594.6 147.4;" xml:space="preserve">
<style type="text/css">
	.st0{fill:#B2292E;}
	.st1{fill:#FFFFFF;}
	.st2{fill:#1C1C1B;}
</style>
<title>Logo_Negocios_color_RGB</title>
<rect y="40.2" class="st0" width="60.7" height="58.3"/>
<polygon class="st1" points="7.3,50.9 13.1,50.9 13.1,82.8 29.8,82.8 29.8,88 7.3,88 "/>
<polygon class="st1" points="36.5,56.1 25.5,56.1 25.5,50.9 53.4,50.9 53.4,56.1 42.4,56.1 42.4,88 36.5,88 "/>
<polygon class="st0" points="14.3,103.2 11.8,103.2 11.8,102 18.2,102 18.2,103.2 15.7,103.2 15.7,110.6 14.3,110.6 "/>
<path class="st0" d="M31.3,110.6h-1.6l-1.4-2.1c-0.2,0-0.4,0-0.6,0h-0.8v2h-1.4v-8.6h2.2c2.4,0,3.7,1.3,3.7,3.3
	c0.1,1.2-0.6,2.3-1.7,2.9L31.3,110.6z M27.6,107.4c1.6,0,2.3-0.8,2.3-2.1s-0.7-2.1-2.3-2.1h-0.8v4.2H27.6z"/>
<path class="st0" d="M31.9,106.3c-0.1-2.4,1.8-4.3,4.2-4.4c0.1,0,0.1,0,0.2,0c1.4-0.1,2.6,0.6,3.4,1.7l-1,0.7
	c-0.6-0.8-1.5-1.2-2.4-1.2c-1.7,0.2-3,1.7-2.9,3.4c0.1,1.6,1.4,2.8,2.9,2.9c1,0,2-0.4,2.6-1.2l1,0.7c-0.8,1.2-2.2,1.8-3.7,1.8
	c-2.4,0-4.3-1.8-4.3-4.2C31.9,106.4,31.9,106.4,31.9,106.3"/>
<path class="st0" d="M52.8,110.6h-1.6l-1.5-2.1c-0.2,0-0.4,0-0.6,0h-0.8v2H47v-8.6h2.2c2.3,0,3.7,1.3,3.7,3.3
	c0.1,1.2-0.6,2.3-1.7,2.9L52.8,110.6z M49.1,107.4c1.7,0,2.3-0.8,2.3-2.1s-0.7-2.1-2.3-2.1h-0.8v4.2H49.1z"/>
<path class="st0" d="M54.5,110.6h-1.4l3.7-8.7h0.1l3.8,8.7h-1.4l-0.5-1.2H55L54.5,110.6z M56.9,104.8l-1.4,3.4h2.9L56.9,104.8z"/>
<polygon class="st0" points="46.2,109.4 41.9,109.4 41.9,107.9 45.6,107.9 45.6,106.8 41.9,106.8 41.9,103.2 46.2,103.2 46.2,102 
	40.6,102 40.6,110.6 46.2,110.6 "/>
<polygon class="st0" points="20.4,107.9 24,107.9 24,106.8 20.4,106.8 20.4,103.2 24.7,103.2 24.7,102 19.1,102 19.1,110.6 
	24.7,110.6 24.7,109.4 20.4,109.4 "/>
<polygon class="st0" points="0,102 1.3,102 1.3,109.4 5.2,109.4 5.2,110.6 0,110.6 "/>
<path class="st0" d="M5.6,110.6H4.2l3.8-8.7h0.1l3.8,8.7h-1.4l-0.5-1.2H6.1L5.6,110.6z M8,104.8l-1.4,3.4h2.8L8,104.8z"/>
<path class="st2" d="M70.4,40.1h22.4l-0.5,11.6c4.3-8.4,12.6-13.1,22.4-13.1c15.4,0,26.5,11.3,26.5,31.3v40.7h-22.4V71.4
	c0-8-3.8-12.4-11.8-12.4c-8.9,0-14.2,5-14.2,13.9v37.8H70.4V40.1z"/>
<path class="st2" d="M184.3,93.6c6.3,0,12.5-2,17.7-5.6l12.8,13.7c-6.8,6-15.4,10.4-30.1,10.4c-25.2,0-41.4-15.2-41.4-36.9
	c0-21.4,17.1-36.6,38.9-36.6c25.3,0,39.1,18.9,37.4,43.5h-53.5C168.3,89.4,174.2,93.6,184.3,93.6z M197.1,69.2
	c-1-7.8-6-12.4-14.7-12.4c-8.7,0-14.7,4-16.6,12.4H197.1z"/>
<path class="st2" d="M290.1,39.9v15.9h-10.4c1.7,2.6,2.5,5.6,2.5,8.6c0,15.1-11.6,26.2-29.6,26.2c-5.6,0-10.4-0.8-14.4-2.8
	c-1.2,1.1-1.9,2.7-1.8,4.3c0,3.3,2.1,5.5,7.3,5.6l17.4,0.8c19.2,1,30.1,8.9,30.1,22.7c0,14.9-10.9,26.2-38.9,26.2
	c-25.3,0-37.9-9.8-37.9-23.2c0-7.6,5-12.6,12.9-15.6c-5.8-3.1-8.5-7.8-8.5-14.2s3.5-11.1,9.8-13.9c-4-4.4-6.3-10.1-6.3-16.1
	c0-15.1,12.2-25.8,30.3-25.8c3.5,0,7,0.4,10.4,1.3L290.1,39.9z M236,121.4c0,5.6,4,9.3,16.2,9.3c13.1,0,16.1-3.5,16.1-7.8
	c0-4-2.6-5.3-11.8-5.8l-18.5-1.2C236.7,117.4,235.9,119.4,236,121.4z M262.6,64.4c0-5.6-3.6-9.4-10.4-9.4s-10.4,3.8-10.4,9.4
	c0,6,3.6,9.9,10.4,9.9S262.6,70.4,262.6,64.4L262.6,64.4z"/>
<path class="st2" d="M285.7,75.5c0-21.5,17-36.9,38.9-36.9s38.8,15.4,38.8,36.9c0,21.4-16.9,36.6-38.8,36.6S285.7,96.8,285.7,75.5z
	 M340.5,75.5c0-10.6-6-17.7-15.9-17.7s-16.1,7.1-16.1,17.7c0,10.4,6.1,17.7,16.1,17.7S340.5,85.9,340.5,75.5z"/>
<path class="st2" d="M363.5,75.2c0-21.4,16.5-36.6,38.6-36.6c14.1,0,22.5,5.1,29.6,14.1l-15.9,12.9c-3.1-4.6-8.2-7.4-13.7-7.5
	c-10.1,0-15.7,7.1-15.7,17.1c0,10.3,5.6,17.6,15.7,17.6c7.1,0,10.9-3.3,14.2-6.6l15.1,13.2c-7,7.8-15.2,12.7-29.3,12.7
	C380,112.1,363.5,96.8,363.5,75.2z"/>
<path class="st2" d="M430.4,14.2c0-7.8,6.3-14.2,14.1-14.2c7.8,0,14.2,6.3,14.2,14.1c0,7.8-6.3,14.2-14.1,14.2
	c-7.7,0.2-14.1-6-14.2-13.7C430.4,14.5,430.4,14.4,430.4,14.2z M433.4,40.1h22.4v70.5h-22.4L433.4,40.1z"/>
<path class="st2" d="M459.2,75.5c0-21.5,17.1-36.9,38.9-36.9s38.7,15.4,38.7,36.9c0,21.4-16.9,36.6-38.7,36.6S459.2,96.8,459.2,75.5
	z M514,75.5c0-10.6-6-17.7-15.9-17.7S482,64.9,482,75.5c0,10.4,6.1,17.7,16.1,17.7S514,85.9,514,75.5z"/>
<path class="st2" d="M533.5,98.7l13.1-11.6c4.7,4.7,11,7.4,17.5,7.4c7.3,0,9.6-1.3,9.6-4.3c0-3.8-4.5-3.8-15.9-6.8
	c-9.6-2.5-20.4-7.8-20.4-22.5c0-15.9,12.2-22.4,27.3-22.4c11.6,0,19.9,3.8,25.7,9.8l-11.9,12.8c-3.8-3.3-8.6-5.1-13.6-5.2
	c-5.1,0-7.6,1.3-7.6,4.1c0,4,4.5,4.5,14.1,6.6c10.3,2.3,23.2,7.1,23.2,22c0,12.9-6.8,23.5-29,23.5C549.3,112.1,539.7,106,533.5,98.7
	z"/>
</svg>
