<?xml version="1.0" encoding="utf-8"?>
<!-- Generator: Adobe Illustrator 23.0.1, SVG Export Plug-In . SVG Version: 6.00 Build 0)  -->
<svg version="1.1" id="Layer_1" xmlns="http://www.w3.org/2000/svg" xmlns:xlink="http://www.w3.org/1999/xlink" x="0px" y="0px"
	 viewBox="0 0 968.2 268.8" style="enable-background:new 0 0 968.2 268.8;" xml:space="preserve">
<style type="text/css">
	.st0{fill:#FFFFFF;}
</style>
<title>Logo_Laboratorio_white_RGB</title>
<path class="st0" d="M466.2,244.5c-4.5,0.1-6.2-2.7-7.2-5.7c-1.3-3.8-2.1-7.7-3.3-11.5c-2-6.5-4.1-13-6.3-19.4
	c-0.5-1.4-1-2.8,0.3-3.6c1.1-0.6,2.4-0.7,3.6-0.3c1.3,0.7,2.5,1.7,3.4,2.8c0.9,1.1,1.8,2.3,2.6,3.5c2.3-3.3,4.2-6.6,6.6-9.5
	c3.3-4.3,8.5-6.8,13.9-6.6c1.2,0,2.3,0,3.5,0c7.1,0,11.9,4.7,12.1,11.7c0,1.3,0,2.7,0,4c-0.2,5.5-3.5,8.8-9,9.3
	c-2.1,0.2-4.1,0.6-6.4,1c4,4.3,7.6,8.2,11.1,12.1c1.1,1.3,2,2.7,2.8,4.1c1.6,2.7,1.5,2.8-0.7,6.1c-3.4-1.2-22.1-18.9-24.4-23.4
	C465.2,227.5,468.5,236.4,466.2,244.5z M478.4,206.8l0.2,1.2l5.9-1.1c-0.1-0.3-0.1-0.6-0.2-1L478.4,206.8z"/>
<path class="st0" d="M309.9,261.6c-2.1-0.6-3.2-2.8-2.6-4.9c0.4-2,0.9-3.9,1.6-5.7c4.2-10.3,8.5-20.6,12.7-30.9
	c0.3-0.9,0.8-1.8,1.4-2.6c2.4-2.9,4.7-2.7,5.8,0.8c1.6,5.2,2.9,10.6,4.4,15.9c0.5,1.7,0.9,3.4,1.4,5.1l1.1,0.2
	c1.2-2.8,2.5-5.5,3.7-8.3c2.3-5.3,4.6-10.7,7-16c0.6-1.2,1.4-2.3,2.5-3.1c2.7-2.2,5.4-2,7.1,1c2.2,3.7,3.9,7.7,5.2,11.8
	c1.5,5.5,2.6,11,3.3,16.6c0.4,2.9-0.6,5.7-2.6,7.8c-1.9,2-4,1.7-5-0.9c-0.4-1.1-0.6-2.3-0.7-3.4c-0.7-3.9-1.2-7.9-2.2-11.7
	c-0.7-2.9-2.1-5.5-3.6-9.3c-1.3,2.6-2.3,4.4-3.1,6.3c-2.7,6.1-5.2,12.3-8,18.3c-1,1.9-2.4,3.5-4.1,4.9c-2.4,2.1-4.6,1.8-6.1-1
	c-1.1-2.2-2-4.6-2.6-7c-1-3.5-1.7-7.1-2.8-11.7c-2.2,5.1-4.1,9.3-5.8,13.6c-1.3,3.1-2.3,6.2-3.6,9.3
	C313.3,258.7,312.3,260.8,309.9,261.6z"/>
<path class="st0" d="M591.5,228.5c-1,2.9-2.1,5.8-3.4,8.7c-1.2,2.3-2.8,4.4-4.7,6.3c-1.6,1.7-3.6,1.5-5.2-0.7
	c0.2-1.6,0.6-3.1,1.2-4.6c6.1-12.2,10.8-25,16.6-37.3c0.7-1.3,1.5-2.6,2.3-3.8c2.7-4,10.8-3.9,13.2,0.3c3.1,5.3,6.1,10.7,8.8,16.2
	c3.6,7.3,7,14.7,10.5,22.1c2,4,1.4,8.8-1.5,12.2c-0.8,1.1-2.4,2.4-3.4,2.2s-2.1-1.9-2.7-3.1c-2.4-6-4.7-12.1-7.1-18.5H591.5z
	 M611.9,221.4c-2.8-5-5.2-9.5-7.8-13.8c-0.4-1-1.6-1.5-2.6-1.1c-0.5,0.2-0.9,0.6-1.1,1.1c-2,4.4-3.8,8.9-5.8,13.8L611.9,221.4z"/>
<path class="st0" d="M161.1,224c0.7-4,3.1-4.8,6.3-4.6c5.6,0.3,10.8,1,15.1,5.2c2.7,2.7,4.7,5.8,5,9.5c0.7,9.1,0.7,18.2-3.8,26.7
	c-1.9,3.6-4.5,6-8.5,7.1c-6,1.5-12.3,1.1-18.1-1.2c-3.1-1.1-3.6-4-3.6-6.5c-0.1-7.1-0.1-14.3,0.4-21.5c0.4-4.5,0.1-9.3,2.4-13.6
	C157.5,223,158.6,222.5,161.1,224z M160.6,255.1c3.3,0.4,6.2,1,9.1,0.9c7.3-0.3,10.4-3.9,11-10.8c0.1-1.3,0.1-2.7,0-4
	c-0.1-4.1-3-7.6-7.1-8.3c-4-0.6-8-0.9-12.2-1.4C161.3,239.4,159.8,247.1,160.6,255.1L160.6,255.1z"/>
<path class="st0" d="M243.3,224c-7.2,4.2-15.2,3.5-23.5,4.2c-1,2.5-2.2,5.6-3.7,9.3c6.9,0.4,13.1,0.8,19.4,1.2
	c3.8,0.2,4.1,0.4,5.1,4.9c-8,3.4-16.2,0.6-24.2,0c-0.6,6.5,5.5,11.9,16.2,10.8c0.9-1.7,2-3.3,3.1-4.9c1.3-1.7,3.2-1.3,3.7,0.8
	c1.4,5.4-0.4,10.2-3.2,14.7c-1,1.3-2.6,2.1-4.3,2.2c-5.9-0.2-12.1,0-17.1-4.1c-4.5-3.6-5.9-8.9-6.1-14.2c-0.2-7.5,0.5-15,3.8-21.9
	c0.1-0.3,0.2-0.6,0.4-0.9c0.6-1.4-0.7-3.6,1.4-4.4s4.4-1.6,6.2-1.2c5.6,1.4,10.8-0.2,16.2-0.7C240.2,219.5,241.6,220.3,243.3,224z"
	/>
<path class="st0" d="M428.6,244.6c-4.6-4.7-3.7-12-8.4-17.1l-13-1.3c-2.1,5-4.2,10-6.2,15.1c-1.4,3.7-4.1,6.9-7.6,8.8
	c-2-1-3-2.4-2.2-4.5s1.6-4.4,2.5-6.5c3.3-7.6,6.7-15.2,10.1-22.7c1.9-4.2,3.7-8.5,5.8-12.7c2.9-5.6,7.7-6.1,11.2-0.7
	c3,4.8,5.6,9.8,7.7,15c2,4.8,3.7,9.6,5.1,14.6C435.6,237.8,433.9,241.8,428.6,244.6z M409.6,220.9l8.4-1l-4.4-8.3L409.6,220.9z"/>
<path class="st0" d="M554.4,231.6c0.1,2.4,0.7,3.9,0.2,4.9c-2.5,5.5-6,10.3-12.5,10.9c-2.8,0.2-5.6-0.4-8.1-1.7
	c-5.5-3.2-9.6-7.8-9.5-14.7c0.1-6.7,0.8-13.4,4.7-19.1c2.1-3.1,5.2-5.5,8-8c1.7-1.5,3.7-1.2,5.4,0.3s1.1,3.2,0.2,5
	c-1.2,2.6-2.5,5.1-5.9,5.3c-0.8,0.2-1.5,0.7-1.9,1.3c-4,6.2-0.5,17.3,6.4,19.5c2,0.6,4.5,0,6.7-0.6
	C549.9,234.2,551.6,233,554.4,231.6z"/>
<path class="st0" d="M187.4,28.3c0.5-2.2,1.1-4.9,1.9-7.5c0.8-2.3,1.8-4.5,2.7-6.7c4.3,0.1,3.8,3.5,4.6,5.6
	c3.5-1.1,6.8-2.4,10.2-3.2c6.3-1.4,10.1,1.1,11.2,7.4c0.9,4.3-0.2,8.8-3.1,12.2c-1.1,1.2-2.1,2.5-2.9,3.4c3.4,3.2,6.9,5.9,9.7,9.3
	C227,55,225.9,63,219.4,68c-7.2,5.6-15.6,7.3-24.5,6.8c-2.1,0.1-4-1.3-4.5-3.3c-1.7-6.3-3.1-12.6-2.9-19.1c0.2-5.3,0.6-10.6,0.7-16
	C188.1,33.7,187.8,31,187.4,28.3z M211.8,65c2.5-11-6.6-19.2-17.3-15.9c0.2,3.9,0.4,8,0.7,12.6c5.2-2.3,5.9,1.5,7.3,4.7L211.8,65z
	 M194.9,40.2c2.6-0.9,4.8-1.5,6.9-2.4c4.1-1.8,6-6.6,4.2-10.7c0,0,0-0.1,0-0.1c-0.7-1.1-1.8-1.8-3.1-1.9c-3.4-0.2-7.3,3.6-7.5,7.1
	C195.1,34.5,195,37,194.9,40.2L194.9,40.2z"/>
<path class="st0" d="M321.9,41.5c2.5,1.3,4.6,2.8,7,3.5c5,1.4,6.3,5.5,7.5,9.7c0.7,2.4-0.8,3.9-3.3,3.3c-0.6-0.2-1.3-0.4-1.9-0.8
	c-5.5-2.4-10.9-5.1-16.5-7.1c-4.9-1.6-9.1-4.7-12.1-8.8c0.3,1.4,0.5,2.8,0.9,4.1c0.9,3.2,1.9,6.4,2.8,9.6c0.6,2,0.3,4-1.7,4.6
	c-1,0.3-2.9-0.5-3.8-1.4c-3.6-3.3-4.9-7.9-5.8-12.5c-1-4.9-1.9-9.7-2.8-14.7c-0.3-1.9-0.3-3.9-0.4-6.2l4.8,0.4
	c3.6-2.8,6.6-5.8,10.1-7.9c4-2.6,9-3.1,13.4-1.4c1.4,0.5,2.6,1.4,3.6,2.5c3.3,4.5,4.6,10.1,3.6,15.6
	C326.6,37.8,326.5,37.8,321.9,41.5z M318.2,27.8c-5.7,0.3-5.9,0.3-8,3.5C313,30.7,315.8,30.4,318.2,27.8L318.2,27.8z"/>
<path class="st0" d="M547.3,61.9c-3.8-6-10-8.4-15.2-12.2c-2.6-1.9-4.9-4.4-7.6-6.9c0,3.4-0.1,6.7,0,10.1c0.1,2.8-0.1,5.3-3.6,7.1
	c-0.9-1.2-1.7-2.5-2.5-3.9c-2.4-5-2.1-10.3-2.3-15.6c-0.1-4.6-0.3-9.2-0.6-13.9c-0.2-4.4-0.1-8.8,1.5-13.1c3.5,1.4,3.5,1.4,5.8,6.7
	c1.1-1.5,2.3-2.9,3.6-4.2c3.4-3.2,8.2-4.2,12.6-2.7c4.2,1.4,6.1,4.9,6.3,9.3c0.3,2.8,0.4,5.6,0.5,8.4c-0.1,3.5-2.2,6.5-5.5,7.7
	c-1.1,0.5-2.2,1.2-3.2,1.8c7,3.1,12.5,7,13,14.8C550.5,57.7,550.2,59.9,547.3,61.9z M532.9,26.4l0.3,0.9l3.8-1.2l-0.4-1.1
	L532.9,26.4z"/>
<path class="st0" d="M500.5,32.6c0,6.6-1.5,13.1-4.3,19c-1.6,3.6-4.5,5.6-7.8,7.4c-0.7,0.5-1.5,0.7-2.4,0.7
	c-5.2-0.6-10.7-0.1-15.4-3.3c-0.6-0.4-1.1-0.7-1.7-1c-6-3.2-7.1-8.8-6.5-14.8C463,35,464.1,29.5,465,24c0.6-3.9,3.3-6.4,6-9
	c0.6-0.6,1.3-1,2.1-1.1c5-0.3,10.1-0.6,15.1-0.8c2.7,0,5.2,1.2,6.9,3.3C499.6,21.3,501.5,26.8,500.5,32.6z M471.5,27.3
	c-0.3,4-0.8,7.8-0.8,11.6c0,1.1,1.1,2.3,1.9,3.2c4,4.3,9.2,5,14.7,5c3.3,0,4.5-1.1,4.8-4.4c0.3-2.3,0.4-4.7,0.3-7
	c-0.4-6.4-5-12.5-13.1-10.4C476.9,26,474.5,26.5,471.5,27.3L471.5,27.3z"/>
<path class="st0" d="M593.7,46.3c0.1-5.6,0.5-11.2,2.8-16.4c2.7-5.9,7.3-8.8,13.8-8.9c3.5-0.1,6.9,0.4,10.2,1.5
	c7.3,2.4,12.3,11.6,11.2,19.2c-0.5,3.4-1.8,6.7-2.9,10c-1.4,4.6-5,7.4-8.8,9.8c-1.7,0.9-3.7,1.5-5.6,1.5c-6,0.6-12-1.4-16.5-5.5
	C594.6,54.9,593,50.6,593.7,46.3z M609.8,33.8c-1.9,0-3.1,0.1-4.2,0c-2.5-0.2-3.6,1.1-4.1,3.4c-1.1,5.9-0.4,7.6,4.3,10.9
	c3.3,2.4,7,2.8,10.8,2.7c2.9,0,5.5-1.8,6.6-4.5c1.1-2.6,0.5-5.1-1.4-7.4C618.5,34.8,614.3,33.2,609.8,33.8L609.8,33.8z"/>
<path class="st0" d="M405.3,58.7c-3.8,0.2-6.6-1.5-8.4-4.9c-2.1-3.8-4.1-7.6-6.2-11.4c-0.9-1.6-2-3-2.8-4.4h-19.2
	c-1.5,2.4-1.7,5.8-1.9,9.3c-0.1,2.1-0.5,4.2-1.4,6.2c-1.2,2.3-3.8,2.1-4.4-0.4c-0.7-3.1-1-6.2-0.8-9.4c0.3-7.2,2.6-14.2,6.5-20.2
	c2.1-3.4,4.5-6.6,7-9.6c2.8-3.2,6.8-3,9.4,0.5c5.4,7.2,11.4,13.9,14.5,22.6c0.6,1.7,2,3.1,3.1,4.8l4.1-1.5
	C409.2,44.9,409.5,51.9,405.3,58.7z M383.2,31.4l-5.2-7c-3.1,1.6-4.4,4-5.2,7H383.2z"/>
<path class="st0" d="M149.7,51.9l-19-0.9c-2.7,5.2-2.9,12-6.2,17.5c-4.1-1.8-5.1-3.3-4.2-6.9c1.4-6,3.2-11.9,5.2-17.7
	c3-8.1,6.5-16,9.8-24c0.4-0.9,0.9-1.8,1.5-2.6c2.5-3.2,4.7-3.4,7.3-0.3c1.7,2,3.2,4.3,4.2,6.8c4.4,10.8,8.5,21.7,12.8,32.5
	c1.4,3.6,0.7,6.8-1,10c-1.1,2.1-2.9,2.2-4.3,0.4c-0.7-1.1-1.3-2.3-1.7-3.6C152.5,59.3,151,55.4,149.7,51.9z M147.2,44.6
	c-2.5-5.4-4.8-10.2-7.5-16l-6.9,16.9L147.2,44.6z"/>
<path class="st0" d="M260.8,57.1c-3-0.4-6-0.6-8.9-1.1c-5.3-1-7.5-3.7-8.2-9.1c-1.2-8.8,1.8-16.3,6.4-23.4c1.4-2.6,4.4-3.9,7.3-3.1
	c1.5,0.3,3,0.4,4.5,0.5c6.1,0.4,11.6,5.4,11.7,11.5c0.1,5.1-0.3,10.3-1.1,15.4C271,55.1,268.2,57,260.8,57.1z M265.6,44.6
	c2.3-8.6-0.8-11.5-11.2-11.4c-0.6,0.7-1.3,1.4-1.9,2.2c-3,4.1-2.3,6.7,2.6,7.9C258.5,44.1,261.9,44.1,265.6,44.6z"/>
<path class="st0" d="M91,3.3c2,1.1,2.5,2.7,2.4,5c-0.1,5.5-2.7,10.3-4,15.4c-1.9,7.5-4.1,15-6.1,22.5c-0.5,1.9-0.7,3.9-1.1,5.9
	c-0.5,3.2,0.1,4.7,3.2,5c5.6,0.5,11.2,0.8,16.9,0.6c3.6-0.1,4.9,0.8,4.3,4.3c-1,6.2-4.1,8.9-10.1,8.6c-4.2-0.2-8.3-0.4-12.5-0.7
	c-5.6-0.4-10.6-3.8-9.9-11.2c0.9-8.7,2.6-17.4,5.1-25.8c2.3-8,4.4-16,6.8-23.9C86.8,6.4,88,4,91,3.3z"/>
<path class="st0" d="M429.7,12.1c0.8-4.6-1-8.9,2.7-12.1c3.7,1.5,3.7,1.5,5,11c3.2-0.2,6.5-0.4,9.8-0.5c1.1-0.1,2.4-0.3,3.3,0.1
	c0.9,0.6,1.6,1.5,1.8,2.6c-0.1,0.9-0.6,1.8-1.4,2.2c-3.1,1.1-6.2,2-9.4,2.9c-1.6,0.3-3.3,0.6-4.9,0.7c0.4,4.4,0.6,8.7,1.3,12.8
	c1.1,6.8,0.8,13.6,0.4,20.3c-0.1,1.3-1.5,2.6-2.5,4.1c-3.3-2.7-4.1-5.8-4.3-9.1c-0.2-4.1,0.2-8.3-0.2-12.4
	c-0.4-4.9-1.2-9.8-1.9-15.4c-3,0.8-5.5,1.5-8,2.2c-1.4,0.5-2.8,0.9-4.3,1c-1.2,0-2.3-0.8-3.5-1.3c0.5-1.1,0.8-2.7,1.6-3.3
	c2.7-1.7,5.5-3.1,8.4-4.3C425.5,13.1,427.6,12.5,429.7,12.1z"/>
<path class="st0" d="M568.8,15.7c3.4,1.6,3.8,4,3.9,6.6c0.3,6.1,0.4,12.3,0.9,18.4c0.3,3.8,1.4,7.5,1.7,11.2
	c0.1,2.1-0.3,4.3-1.2,6.2c-0.9,2.1-3.1,2.2-4.3,0.2c-1.1-1.6-1.9-3.5-2.2-5.5c-0.8-8.6-1.4-17.2-1.8-25.9c0-2.8,0.4-5.6,1.1-8.4
	C567,17.7,568,16.9,568.8,15.7z"/>
<path class="st0" d="M7.3,119.8c1.3-5.6,3.1-6.9,8.1-5.2c4.7,1.6,9.4,3.5,11.8,8.5c0.5,1,1.2,2,2.1,2.8c5.5,5.3,5.5,11.9,5,19
	c-0.4,6.7-2.8,12.3-7.6,16.8c-5.8,5.5-12.5,8.6-20.8,7.9c-3-0.2-4.9-1.4-5.2-4.2C0.2,160.7,0,156,0,151.4c0-4.3,0.6-8.6,0.9-12.9
	c0.3-4.1,0.4-8.3,0.7-12.5c0.3-1.6,0.7-3.2,1.4-4.8C3.7,119.2,5.2,119,7.3,119.8z M7,157.1c7.7-0.8,13.2-3.5,17.6-8.3
	c3.9-4.3,4.1-7.9,0.8-12.4c-0.7-0.9-1.4-1.9-2-2.8c-2.2-3.8-5.7-5.4-9.7-6.4c-1.8-0.5-3.6-1.1-5.1-1.6C8,135.6,7.5,146.1,7,157.1z"
	/>
<path class="st0" d="M85.2,139c3.2,5.7,0.7,16.3-4.5,19.8c-1.2,0.8-2.7,1.3-4.2,1.3c-4.3-0.2-8.6-0.6-12.9-1.1
	c-3.1-0.3-5.7-2.6-6.3-5.7c-0.7-3.6-1-7.2-0.8-10.8c0.2-7.1,1.3-14.2,3.2-21.1c0.3-1.1-0.2-2.5-0.6-3.7c-0.9-2.3-0.3-4,2-4.3
	c2.5-0.3,5-0.4,7.5-0.4c4.8-0.2,9.6-0.4,14.4-0.6c3.4-0.2,6.6-0.1,9,3c-1.3,3.2-4,3.4-6.6,3.7c-5.9,0.6-11.9,1-18.1,1.6
	c-0.4,1.5-1,3.4-1.4,5.3s-0.8,3.8-1.1,5.7c5.6,2,10.7,1.9,16,0.8c2.1-0.4,4.3-0.3,6.4,0.1c1.2,0.3,2.2,1.2,2.7,2.4
	c0.1,0.8-1.1,2.1-2,2.9C87,138.4,86.1,138.8,85.2,139z M82.5,140H64c-0.1,0.4-0.1,0.9-0.2,1.4c-0.6,4.1-0.6,4,3.5,5.3
	c4,1.3,7.8,0.8,11.7,0.4L82.5,140z"/>
<path class="st0" d="M433.7,135.4c0.8-4.5,1.7-9,2.5-13.6c0.7-3.9,1.1-7.9,1.8-11.8c0.2-1.3,0.7-2.6,1.5-3.7c0.8-0.8,1.9-1.1,3-1.1
	c0.7,0.1,1.6,1.3,1.7,2.1c0.3,2.3,0.3,4.7,0.1,7c-1.3,8.2-2.7,16.4-4.4,24.5c-0.8,2.7-2,5.3-3.6,7.6c-2,3.2-4.9,3.8-7.4,0.8
	c-3-3.6-5.5-7.5-7.5-11.7c-2.5-5.3-4.8-10.6-8.9-15.6c-0.5,1.5-1,2.6-1.3,3.7c-1.7,6.2-3.3,12.5-5,18.7c-0.4,1.8-1.1,3.5-2.2,5
	c-1,1-2.4,1.5-3.8,1.4c-1.5-0.3-2.4-1.6-2.2-3.1c0-0.1,0-0.2,0.1-0.3c0.8-3.5,1.8-7,2.7-10.6c1-3.7,2.2-7.3,3.1-11
	c1-4,1.6-8.1,2.4-12.2c0.2-1.2,0.5-2.3,0.9-3.4c1.5-2.9,4.7-4.9,8-1.5c5.6,5.6,8.5,12.6,11.8,19.5c1.5,3.3,3.4,6.3,5.1,9.5
	L433.7,135.4z"/>
<path class="st0" d="M615.3,114c1.7,0.5,2.7,0.9,3.8,1.1c3.7,0.7,6.8,3,8.6,6.3c3.2,5.3,4.6,11.5,4.1,17.7c-0.2,4.1-2.8,7.7-6.7,9.2
	c-6.7,2.9-13.9,4.7-21.2,5.4c-3.3,0.3-5.6-1-6.6-3.9c-0.4-1.1-0.6-2.2-0.9-3.4c-0.8-2.7-0.3-3.4,2.5-4.1c5.7-1.4,11.3-2.6,16.9-4.2
	c3.2-0.9,6.4-2,7.3-5.9c0.8-3.7,0.3-4.9-3.4-5.6c-4-0.7-7.7-2-10.5-5.2c-2.1-2.2-3.2-5.1-2.9-8.1c0.4-3.6-0.2-7.2,2.4-10.5
	c3-3.7,7-4.1,10-0.4c1,1.3,1.7,2.8,2.2,4.4c1.5,4.2,1.4,4.2-3.2,5.3C617,112.4,616.5,113.1,615.3,114z"/>
<path class="st0" d="M493.4,135.6c0.3-7.1,0.5-14.3,1.1-21.4c0.3-3.1-0.1-6.9,4.1-8.2c0.3-0.1,0.5-0.4,0.6-0.7c0.2-2,1-4,3-4
	c3-0.2,5.9,0.1,8.8,1c2.2,0.9,4,2.4,5.3,4.4c6.4,9,8,18.9,4.6,29.3c-0.9,2.8-3.3,5.5-5.7,7.5c-4,3.3-9.1,5.1-14.4,4.9
	c-5.1,0-7.2-2.1-7.7-7.2c-0.1-1.8-0.1-3.7,0-5.5L493.4,135.6z M501.3,113.7c0.6,7.4-1.2,14.3-0.5,21.5c4.8,0.2,8.2-1.8,11.5-4
	c2.9-1.7,4.1-5.2,2.9-8.3C513.1,116.5,510.5,112.6,501.3,113.7z"/>
<path class="st0" d="M267.8,131c-1.6,6.6-3,12.5-4.4,18.4c-0.7,2.7-1.3,5.5-4.6,6.5c-3.2-2.2-2.7-5.3-2.1-8.2c1.2-5.5,2.6-11,4-16.5
	c1-3.8,2-7.7,3.1-11.5c0.5-2.2,2.4-3.8,4.6-3.9c2.4-0.2,3.7,1.2,4.7,3c2.1,3.9,4.2,8,6.4,11.8c2,3.4,4.2,6.7,6.5,10.1
	c2.1-1.5,1.2-3.3,1.4-4.9c0.4-5.1-0.2-10.4,2-15.3c0.6-1.3,1.4-2.5,2.5-3.5c1.2-1.1,2.7-0.9,4.2-0.1c1.4,0.7,2,2.5,1.2,3.9
	c-3,8.1-2.5,16.7-3.8,25c-0.6,3.1-1.5,6.1-2.9,9c-1.2,2.8-3.2,3.2-5.6,1.2c-1.9-1.6-3.6-3.5-4.9-5.6c-3.4-5.3-6.6-10.8-9.9-16.2
	C269.5,133.6,268.9,132.7,267.8,131z"/>
<path class="st0" d="M213.7,113.8c3.6,0.6,7.3,0.9,10.8,1.8c4.4,1.2,6.5,4.8,6.9,9c0.7,8-0.6,15.7-5.3,22.4c-4.2,6.1-9,7.7-16.1,5.9
	c-10-2.6-12.5-6.3-12-16.8c0.1-4,0.7-7.9,2-11.7C203.5,114.9,206.5,114.1,213.7,113.8z M216,141l0.1-0.5c0.3,0,0.7,0,1,0
	c4,0.2,5.7-0.7,6.3-3.8c1.1-6.3,1-7.3-3.4-8.9c-2.7-0.8-5.5-1.2-8.3-1.2c-2.9-0.1-5.5,1.7-6.4,4.4c-1,3.2,0.6,6.6,3.6,7.9
	C211.2,139.7,213.6,140.4,216,141z"/>
<path class="st0" d="M546.5,127.9c0.2-7.3,1.2-13.3,4.2-18.9c2.6-4.8,4.2-5.7,9.9-5.2c2,0.2,3.9,0.4,5.9,0.4
	c6.9,0.1,12.8,6.6,13.2,14.4c0.4,5.9-1.2,11.7-4.6,16.5c-3.2,4.6-7.6,7.3-13.5,6.3c-2.3-0.4-4.8-0.2-6.8-1.1
	C548.9,137.9,544.9,133.9,546.5,127.9z M554.9,117.7c-0.2,1.4-0.3,2.9-0.6,4.3c-0.4,2.2,0.8,4.4,2.8,5.3c3.2,1.8,6.9,2.5,10.5,1.9
	c2.3-0.2,4-2.1,3.9-4.4c-0.3-3.4-2.4-6.3-5.5-7.6C562.3,116,558.6,115.6,554.9,117.7L554.9,117.7z"/>
<path class="st0" d="M359.7,114.1c-2.8-3.5-2.3-5.2,1.7-6.8c7.1-2.8,14.6-2.9,22-3.7c1.3,0.1,2.4,0.8,3.1,1.9
	c0.8,1.4-0.6,2.2-1.7,3.1c-4.1,3.4-9.1,2.6-13.8,3.6c-1.3,0.2-2.7,0.3-4,0.4c-0.3,1.9-0.6,3.7-1,5.9c2.9-0.2,5.5-0.3,8.1-0.5
	c2.3-0.3,4.6-0.4,6.9-0.4c1.4,0.1,2.7,1.2,4.2,1.9c-3.5,5-10.1,6.6-19.9,5.3c-2.4,4.9-0.7,8.5,4.6,9.3c2.1,0.2,4.2,0.2,6.3,0.1
	c0.9-1.7,2-3.4,3.1-5c1.2-1.4,2.8-1,3.5,0.8c1.3,3.3-1,13.3-3.8,15.5c-3,2.3-6.5,2.1-10,1.5c-1.3-0.3-2.6-0.7-3.8-1.3
	c-4.9-1.6-8.1-6.2-8-11.3c0.3-5.1,0.9-10.2,1.4-15.4C358.9,117.2,359.3,115.6,359.7,114.1z"/>
<path class="st0" d="M181.7,147.5c2.3,1.7,2,3.5,0.7,5.3c-6.1,8.5-11.1,11.8-22.6,6.2c-5.7-2.8-9.4-8.5-9.7-14.8
	c-0.4-7,0.2-13.9,3.6-20.4c2.3-4.3,6.1-6.4,10.2-8.4c1.3-0.4,2.6-0.4,3.9,0c2.8,0.5,3.6,2.1,2.4,4.7c-1.8,3.8-4.3,6.8-9.3,5.9
	c-1.6,7.6-2.4,14.5,3.4,20.3c4.4,4.5,9.8,5.2,15.3,2.1C180.2,148.1,180.9,147.8,181.7,147.5z"/>
<path class="st0" d="M337.6,128.7c1,5.8,1.9,11.3,2.8,16.8c0.4,2.4,0.1,4.3-3,5.4c-6.6-5.8-4.7-14.6-7.2-22.1
	c-4.3-1-9.2-0.2-13.3-2.7c0.9-3.6,3-4.9,7.3-4.6c1,0.2,1.9,0.2,2.9,0.3c0.8-0.2,1.5-0.4,2.3-0.8c-0.3-6.1-0.5-12.1-0.9-18
	c-0.1-1.8-0.3-3.5,2-3.9c2-0.3,3.2,0.9,3.8,2.6c0.7,2,1.2,4.1,1.4,6.3c0.5,4.2,0.8,8.5,1.1,12.9c2.5,0.3,5.1,0.7,7.5,1.3
	c1.2,0.4,3,1.4,3.2,2.4c0.4,1.9-1.5,2.7-3.2,3C342.3,127.9,340.2,128.3,337.6,128.7z"/>
<path class="st0" d="M468.8,103.4c3-0.6,4.4,1,4.9,3.3c0.9,3.9,1.6,7.8,2.1,11.7c0.7,5.4,0.9,10.8,1.6,16.2c0.3,2.7,0.2,5.2-1.8,7.5
	c-3.7-0.9-4.7-4.1-5.2-7.1c-1-5.7-1.5-11.5-2.2-17.3c-0.2-1.5-0.4-3-0.7-4.4C466.8,110,467.2,106.4,468.8,103.4z"/>
<path class="st0" d="M691.3,2v265.8h276.8V2H691.3z M827.5,220.2h-103V50.8h26.7v145.8h76.3V220.2z M935,74.4h-50.4v145.8h-26.7
	V74.4h-50.3V50.8h127.3L935,74.4z"/>
</svg>
