<svg version="1.1" id="Layer_1" xmlns="http://www.w3.org/2000/svg" x="0" y="0" viewBox="0 0 624.1 101.3" xml:space="preserve"><style>.st0{fill:#1e120d}</style><path class="st0" d="M620.9 78.7l-6.2 14.5-6.4-14.5h-3.2V101h3.3V87.1h.1l4.7 10.7h2.8l4.7-10.7V101h3.4V78.7zM588.2 101h3.4v-9.6h9.3v-3h-9.3v-6.5h10.9v-3.2h-14.3z"/><path d="M522.5 83.2c-4.9-.2-9 3.6-9.2 8.4v.6c-.2 4.8 3.5 8.9 8.3 9.1h.8c4.8.2 9-3.5 9.2-8.4v-.7c0-5.3-3.7-9-9.1-9zM423.8.3c-19.9 0-33.4 16.2-33.4 34.5 0 16.8 11.3 30 28.8 30 9.9 0 17.6-3.9 23.1-10.5h.4c-1.8 11.5-6.4 20.1-12.8 25.9-5.6 5.3-12.7 8.7-20.4 9.5-3.5.5-7.1.7-10.6.6v10.8c4.1.1 8.1-.2 12.1-.8 10.6-1.2 20.5-5.8 28.3-13.1 9.6-9.4 16.8-24.4 16.8-45.9 0-25-12.4-41-32.3-41zm17.9 44.2c-3.6 5.8-10.5 10.2-19.3 10.2-11.4 0-18.8-8.6-18.8-20.7 0-13.8 7.9-23.7 19-23.7h.1c13.8 0 20.1 12.5 20 29.3.1 1.8-.3 3.4-1 4.9zm87-43.6h-63v11.3l48.9-.1v.3l-43.1 88.5h13.8l43.4-91.1zm78.3 0h-63v11.3l48.9-.1v.3l-43.1 88.5h13.8L607 9.8z" fill="#808686"/><path d="M303.1 0c-14.2 0-26.2 4.9-36 14.7-9.8 9.8-14.7 21.8-14.7 35.8-.2 13.4 5.1 26.3 14.8 35.6 9.9 9.7 21.8 14.6 36.1 14.6 14.2 0 26.3-4.9 36.1-14.7 9.7-9.3 15.1-22.2 14.8-35.6 0-14-4.9-26-14.8-35.8S317.3 0 303.1 0zm30.7 81.1c-7.9 8.2-18.9 12.8-30.3 12.5-11.5.2-22.5-4.3-30.5-12.5-8.4-8.3-12.5-18.6-12.5-30.7s4.1-22.5 12.5-30.9c8-8.2 19-12.8 30.5-12.5 11.4-.2 22.4 4.3 30.4 12.5 8.2 8.4 12.4 18.6 12.4 30.8s-4.3 22.4-12.5 30.8z" fill="#c00b1e"/><path class="st0" d="M213.7 51c12.6-4.8 19-12.9 19-24.6 0-8-2.8-14.4-8.5-19.1s-13.8-7-24.5-7h-25.6l.1 100.9h7.7V52.9h13.4c6.2 0 10.9 1.1 14.2 3.4s7.7 8 13.5 17.3l17.5 27.6h9L227 66.4c-5.6-8.7-10.1-13.8-13.3-15.4zm-15.3-4.6h-16.5V6.8h16.2c8.4 0 14.9 1.7 19.4 5.2s6.8 8.3 6.8 14.5-2.2 11.2-6.6 14.7-10.9 5.2-19.3 5.2zm-88 48.4V53.7h45.2v-6.5h-45.2V6.9l46.5-.1V.4h-54.3l.1 100.9 55.4-.1v-6.5zM87 3.1L86.3.3h-83v6.5h71.2L0 99l.8 2.2 86.8-.1v-6.5l-74.9.1z"/></svg>