<?xml version="1.0" encoding="utf-8"?>
<!-- Generator: Adobe Illustrator 23.0.1, SVG Export Plug-In . SVG Version: 6.00 Build 0)  -->
<svg version="1.1" id="Layer_1" xmlns="http://www.w3.org/2000/svg" xmlns:xlink="http://www.w3.org/1999/xlink" x="0px" y="0px"
	 viewBox="0 0 837 235.4" style="enable-background:new 0 0 837 235.4;" xml:space="preserve">
<style type="text/css">
	.st0{fill:#F92E22;}
</style>
<g>
	<path class="st0" d="M719.3,0.5c-64.9,0-117.7,52.7-117.7,117.5s52.8,117.5,117.7,117.5S837,182.7,837,118S784.2,0.5,719.3,0.5z
		 M815.5,118c0,52.9-43.2,96-96.2,96S623,170.9,623,118s43.2-96,96.2-96S815.5,65,815.5,118z"/>
	<polygon points="210.5,234.4 367,234.4 367,212.2 232.6,212.2 232.6,128.3 367,128.3 367,106.1 232.6,106.1 232.6,22.1 367,22.1 
		367,0 210.5,0 	"/>
	<path d="M480.7,128.3h29.7c15.1,0,29.8-5.4,41.3-15.1c14.5-12.2,22.8-30.1,22.8-49s-8.3-36.8-22.8-49C540.2,5.4,525.5,0,510.4,0
		H418v234.4h22.1V128.3h10l99.4,106.1l30.2,0L480.7,128.3z M552.4,64.1c0,23.2-18.8,42-42,42h-70.3v-84h70.3
		C533.6,22.1,552.4,41,552.4,64.1z"/>
	<polygon points="2.9,0 2.9,22.1 123,22.1 0,234.4 159.5,234.4 159.5,212.2 39.4,212.2 162.4,0 	"/>
</g>
</svg>
