<?xml version="1.0" encoding="utf-8"?>
<!-- Generator: Adobe Illustrator 23.0.1, SVG Export Plug-In . SVG Version: 6.00 Build 0)  -->
<svg version="1.1" id="Layer_1" xmlns="http://www.w3.org/2000/svg" xmlns:xlink="http://www.w3.org/1999/xlink" x="0px" y="0px"
	 viewBox="0 0 716.4 124" style="enable-background:new 0 0 716.4 124;" xml:space="preserve">
<style type="text/css">
	.st0{fill:#FFFFFF;}
</style>
<title>Logo_MasDeco_white_RGB</title>
<polygon class="st0" points="146.6,8.3 100.1,8.3 100.1,122.3 133.6,122.3 133.6,80.4 132.8,61.1 133.1,61.1 148.6,105.5 
	173.8,105.5 189.4,61.1 189.7,61.1 188.8,80.4 188.8,122.3 225.7,122.3 225.7,8.3 178.3,8.3 170,35.2 163.8,58 163.4,58 156.1,35.2 
	146.6,8.3 "/>
<path class="st0" d="M673.7,60.3c7,0,7.5,7.9,7.5,20.2s-0.5,20.1-7.5,20.1s-7.5-7.9-7.5-20.1S666.6,60.3,673.7,60.3z M673.7,124
	c31,0,42.7-20,42.7-43.5s-11.7-43.6-42.7-43.6c-31.2,0-42.8,20-42.7,43.6S642.5,124,673.7,124z"/>
<polygon class="st0" points="293.7,18.4 283.7,0 255.2,18.4 263.6,31.9 293.7,18.4 "/>
<path class="st0" d="M262.9,59.5c5.5,0,8.9,2.8,8.9,7v3c-26,1.7-45.2,12.5-45.2,32.7c0,13.4,8.8,21.8,22.6,21.8
	c7.7,0,16.3-2.5,22.3-10h0.4l3.4,8.4h30.1v-57c0-17.6-14.5-28.4-36.9-28.4c-11,0-20.6,1-37.7,6.7l6.7,22.6
	C246.1,62,256.2,59.5,262.9,59.5z M271.8,97.1c-1.5,1.1-3.4,1.7-5.3,1.6c-1.8,0-5.6-0.8-5.5-5c0-4.4,4.2-7.6,10.9-8.4V97.1
	L271.8,97.1z"/>
<path class="st0" d="M379.8,94.6c0-26.4-35.2-26-35.2-32.7c0-2.1,2.4-2.5,3.7-2.5c7.2,0,18.9,3.5,24.8,5.8l4.5-24.1
	c-10.8-2.9-21.9-4.4-33.1-4.3c-22.6,0-38.5,9.1-38.5,28.1c0,28.6,34.3,26.8,34.3,33.6c0,2.2-2.5,2.7-5,2.7c-6.8,0-15-2.6-25.8-6
	l-5.2,24.4c9.4,2.6,23.5,4.2,36.1,4.2C363.9,123.9,379.8,114.2,379.8,94.6L379.8,94.6z"/>
<path class="st0" d="M423,122.3c38.5,0,55.2-24.1,55.2-57S461.4,8.4,423,8.4h-45.2l0,114L423,122.3L423,122.3z M412.9,92.2V38.5H423
	c11.7,0,18.4,6.7,18.4,26.8s-6.7,26.8-18.4,26.8H412.9z"/>
<path class="st0" d="M562,87.1c1-5.2,1.6-10.6,1.7-15.9c0-21-14.8-34.3-39.3-34.3c-28.5,0-46.1,18.3-46.1,43.5s15.1,43.5,48.6,43.5
	c5.9,0,19.3-0.8,31.8-5.8l-3.3-23.7c-6.9,2.8-14.3,4.3-21.8,4.3c-14.2,0-18.9-5.8-20.1-11.7L562,87.1z M523.4,58.6
	c6.2,0,8.4,3.6,8.4,7.6c0,1.1-0.2,2.3-0.5,3.3h-17.9C513.4,63.7,517.1,58.6,523.4,58.6L523.4,58.6z"/>
<path class="st0" d="M562,80.4c0,26.7,16.7,43.5,45.2,43.5c9.2-0.1,18.3-1.6,27.1-4.4l-4.5-24.1c-8.4,2.5-12.6,3.3-18.4,3.3
	c-9.2,0-14.3-6.6-14.3-18.3S602.2,62,611.4,62c5.8,0,10,0.9,18.4,3.4l4.5-24.1c-8.8-2.8-17.9-4.3-27.1-4.3
	C578.7,36.9,562,53.6,562,80.4L562,80.4z"/>
<path class="st0" d="M0,36.9v85.4h89V36.9H0z M43.8,107.1H10.7V52.6h8.6v46.9h24.5V107.1z M78.3,60.2H62.1v46.9h-8.6V60.2H37.4v-7.6
	h40.9L78.3,60.2z"/>
</svg>
