<?xml version="1.0" encoding="utf-8"?>
<!-- Generator: Adobe Illustrator 23.0.1, SVG Export Plug-In . SVG Version: 6.00 Build 0)  -->
<svg version="1.1" id="Layer_1" xmlns="http://www.w3.org/2000/svg" xmlns:xlink="http://www.w3.org/1999/xlink" x="0px" y="0px"
	 viewBox="0 0 744.5 110.4" style="enable-background:new 0 0 744.5 110.4;" xml:space="preserve">
<style type="text/css">
	.st0{fill:#FFFFFF;}
	.st1{fill:#B2292E;}
</style>
<title>Logo_MtOnline_color_white_RGB</title>
<path class="st0" d="M399.1,55.3V55c0-7.1-1.2-14.2-3.8-20.9c-2.4-6.5-6-12.4-10.7-17.5c-4.7-5.1-10.4-9.3-16.8-12.1
	C361,1.4,353.5-0.1,346,0c-3.8,0-7.7,0.4-11.4,1.1l-2,3.7c4.3-1.2,8.8-1.7,13.3-1.7c7-0.1,14,1.4,20.3,4.3c6,2.8,11.3,6.7,15.8,11.5
	c4.4,4.8,7.9,10.5,10.1,16.6c2.4,6.3,3.6,13,3.6,19.7v0.3c0,6.7-1.2,13.4-3.5,19.8c-4.5,12.3-13.8,22.4-25.8,27.8
	c-12.9,5.7-27.7,5.7-40.6-0.1c-6-2.8-11.3-6.7-15.8-11.5c-4.4-4.8-7.9-10.5-10.2-16.6c-2.4-6.3-3.6-12.9-3.6-19.7v-0.3
	c0-6.7,1.2-13.4,3.5-19.7l0.5-1.1h-3.6c0,0,0,0.1,0,0.1c-2.5,6.7-3.7,13.8-3.7,20.9v0.3c0,7.1,1.2,14.2,3.7,20.9
	c2.4,6.5,6,12.4,10.7,17.5c4.7,5.1,10.3,9.2,16.7,12.1c14,6,29.8,6,43.8,0c6.4-2.9,12.1-7,16.8-12.1c4.6-5.1,8.2-11.1,10.6-17.6
	C397.8,69.6,399.1,62.5,399.1,55.3"/>
<polygon class="st0" points="404.6,110.4 408,110.4 408,9.2 488.9,110.4 491.8,110.4 491.8,19.8 488.5,19.8 488.5,104.9 407.5,3.7 
	404.6,3.7 "/>
<polygon class="st0" points="514.8,110.4 570.3,110.4 570.3,107.3 518.2,107.3 518.2,3.6 514.8,3.6 "/>
<polygon class="st0" points="567,98.3 570.3,98.3 570.3,9.2 651.3,110.4 654.2,110.4 654.2,3.7 650.8,3.7 650.8,104.9 569.9,3.7 
	567,3.7 "/>
<rect x="541" y="19.9" class="st0" width="3.3" height="78.5"/>
<rect x="541" y="3.6" class="st0" width="3.4" height="11"/>
<polygon class="st0" points="224.2,2.8 192.6,2.8 165.7,63.9 137,2.8 106.7,2.8 106.7,110.3 137.1,110.3 137,56.1 158.1,110.4 
	172.8,110.4 193.8,56.1 193.9,110.4 224.2,110.3 224.2,28.7 253.2,28.7 253.2,28.6 253.3,28.6 253.3,110.4 286.3,110.4 286.3,28.7 
	314.3,28.7 326.9,2.8 "/>
<path class="st0" d="M669.2,58.2h8.3l0,0h59.7v-3h-68L669.2,58.2z M677.5,6.6h66.3v-3h-74.6v3H677.5z M744.5,110.4v-3h-75.3v3H744.5
	z"/>
<rect y="2.8" class="st1" width="92.6" height="88.9"/>
<polygon class="st0" points="11.1,19.1 20,19.1 20,67.9 45.5,67.9 45.5,75.8 11.1,75.8 "/>
<polygon class="st0" points="55.8,27 38.9,27 38.9,19.1 81.5,19.1 81.5,27 64.7,27 64.7,75.8 55.8,75.8 "/>
<polygon class="st1" points="21.9,99 18,99 18,97.2 27.8,97.2 27.8,99 23.9,99 23.9,110.2 21.9,110.2 "/>
<path class="st1" d="M47.8,110.2h-2.4l-2.2-3.2c-0.3,0-0.6,0.1-0.9,0.1H41v3.1h-2V97.2h3.3c3.6,0,5.6,2,5.6,5
	c0.1,1.9-0.9,3.6-2.6,4.4L47.8,110.2z M42.2,105.3c2.5,0,3.5-1.2,3.5-3.2s-1-3.2-3.5-3.2H41v6.4H42.2z"/>
<path class="st1" d="M48.7,103.7c-0.1-3.6,2.8-6.6,6.4-6.7c0.1,0,0.2,0,0.2,0c2.1-0.1,4,0.8,5.2,2.5l-1.6,1.1
	c-0.8-1.2-2.2-1.9-3.7-1.8c-2.7,0.2-4.7,2.5-4.5,5.2c0.2,2.4,2.1,4.4,4.6,4.5c1.5,0.1,3-0.7,3.9-1.9l1.6,1.1
	c-1.3,1.8-3.4,2.8-5.6,2.7c-3.6,0.1-6.6-2.8-6.6-6.4C48.7,103.9,48.7,103.8,48.7,103.7"/>
<path class="st1" d="M80.6,110.2h-2.4L76,107c-0.3,0-0.6,0.1-0.9,0.1h-1.3v3.1h-2.1V97.2H75c3.6,0,5.6,2,5.6,5
	c0.1,1.9-0.9,3.6-2.6,4.4L80.6,110.2z M74.9,105.3c2.5,0,3.5-1.2,3.5-3.2s-1-3.2-3.5-3.2h-1.2v6.4H74.9z"/>
<path class="st1" d="M83.1,110.2h-2.1l5.7-13.3h0.1l5.7,13.3h-2.2l-0.8-1.8h-5.8L83.1,110.2z M86.8,101.4l-2.2,5.2H89L86.8,101.4z"
	/>
<polygon class="st1" points="70.5,108.4 64,108.4 64,106.2 69.6,106.2 69.6,104.4 64,104.4 64,99 70.5,99 70.5,97.2 62,97.2 
	62,110.2 70.5,110.2 "/>
<polygon class="st1" points="31.1,106.2 36.7,106.2 36.7,104.4 31.1,104.4 31.1,99 37.7,99 37.7,97.2 29.1,97.2 29.1,110.2 
	37.7,110.2 37.7,108.4 31.1,108.4 "/>
<polygon class="st1" points="0,97.2 2,97.2 2,108.4 8,108.4 8,110.2 0,110.2 "/>
<path class="st1" d="M8.5,110.2H6.5l5.7-13.3h0.1l5.7,13.3h-2.1l-0.7-1.8H9.3L8.5,110.2z M12.3,101.4l-2.2,5.2h4.3L12.3,101.4z"/>
</svg>
