<svg data-name="Layer 1" xmlns="http://www.w3.org/2000/svg" viewBox="0 0 367.89 356.21"><path d="M256.74 199.31c-1.82 8.2-5.17 14.51-10 18.78s-11.06 6.31-19 6.31c-10.42 0-18-3.81-23.13-11.64-5.35-8.12-8-19.8-8-34.75 0-14.68 2.74-26.31 8.16-34.57 5.22-7.95 13.24-11.82 24.5-11.82a26.78 26.78 0 0117.13 6c5.07 4 8.54 9.73 10.34 17l.57 2.29h35l-.32-3.32a61.46 61.46 0 00-5.89-20.86 55.41 55.41 0 00-13-17.1 59.8 59.8 0 00-19.33-11.34 72.1 72.1 0 00-24.79-4.09 70.69 70.69 0 00-28.34 5.53 59.63 59.63 0 00-21.66 15.9 71.12 71.12 0 00-13.58 25.12 108.75 108.75 0 00-4.68 32.9c0 12.4 1.73 23.44 5.14 32.81a69.86 69.86 0 0014.25 23.93 58.09 58.09 0 0021.7 14.69 73.57 73.57 0 0026.83 4.92 66.5 66.5 0 0023.44-4 58.12 58.12 0 0018.81-11.36 62.24 62.24 0 0013.43-17.52 82.61 82.61 0 007.68-22.58l.7-3.6h-35.43zm-148.16-84.87H75.21v136.18h81.65v-29.57h-48.28V114.44z"/></svg>