<?xml version="1.0" encoding="utf-8"?>
<!-- Generator: Adobe Illustrator 23.0.1, SVG Export Plug-In . SVG Version: 6.00 Build 0)  -->
<svg version="1.1" id="Layer_1" xmlns="http://www.w3.org/2000/svg" xmlns:xlink="http://www.w3.org/1999/xlink" x="0px" y="0px"
	 viewBox="0 0 624.1 101.3" style="enable-background:new 0 0 624.1 101.3;" xml:space="preserve">
<style type="text/css">
	.st0{fill:#1E120D;}
	.st1{fill:#808686;}
	.st2{fill:#C00B1E;}
</style>
<title>Logo_Zero_color_RGB</title>
<polygon class="st0" points="620.9,78.7 614.7,93.2 608.3,78.7 605.1,78.7 605.1,101 608.4,101 608.4,87.1 608.5,87.1 613.2,97.8 
	616,97.8 620.7,87.1 620.7,87.1 620.7,101 624.1,101 624.1,78.7 "/>
<polygon class="st0" points="588.2,101 591.6,101 591.6,91.4 600.9,91.4 600.9,88.4 591.6,88.4 591.6,81.9 602.5,81.9 602.5,78.7 
	588.2,78.7 "/>
<path class="st1" d="M522.5,83.2c-4.9-0.2-9,3.6-9.2,8.4c0,0.2,0,0.4,0,0.6c-0.2,4.8,3.5,8.9,8.3,9.1c0.2,0,0.4,0,0.6,0h0.2
	c4.8,0.2,9-3.5,9.2-8.4c0-0.2,0-0.5,0-0.7C531.6,86.9,527.9,83.2,522.5,83.2z"/>
<path class="st1" d="M423.8,0.3c-19.9,0-33.4,16.2-33.4,34.5c0,16.8,11.3,30,28.8,30c9.9,0,17.6-3.9,23.1-10.5h0.4
	c-1.8,11.5-6.4,20.1-12.8,25.9c-5.6,5.3-12.7,8.7-20.4,9.5c-3.5,0.5-7.1,0.7-10.6,0.6v10.8c4.1,0.1,8.1-0.2,12.1-0.8
	c10.6-1.2,20.5-5.8,28.3-13.1c9.6-9.4,16.8-24.4,16.8-45.9C456.1,16.3,443.7,0.3,423.8,0.3z M441.7,44.5
	c-3.6,5.8-10.5,10.2-19.3,10.2c-11.4,0-18.8-8.6-18.8-20.7c0-13.8,7.9-23.7,19-23.7h0.1c13.8,0,20.1,12.5,20,29.3
	C442.8,41.4,442.4,43,441.7,44.5L441.7,44.5z"/>
<polygon class="st1" points="528.7,0.9 465.7,0.9 465.7,12.2 514.6,12.1 514.6,12.4 471.5,100.9 485.3,100.9 528.7,9.8 "/>
<polygon class="st1" points="607,0.9 544,0.9 544,12.2 592.9,12.1 592.9,12.4 549.8,100.9 563.6,100.9 607,9.8 "/>
<path class="st2" d="M303.1,0c-14.2,0-26.2,4.9-36,14.7c-9.8,9.8-14.7,21.8-14.7,35.8c-0.2,13.4,5.1,26.3,14.8,35.6
	c9.9,9.7,21.8,14.6,36.1,14.6c14.2,0,26.3-4.9,36.1-14.7c9.7-9.3,15.1-22.2,14.8-35.6c0-14-4.9-26-14.8-35.8S317.3,0,303.1,0z
	 M333.8,81.1c-7.9,8.2-18.9,12.8-30.3,12.5c-11.5,0.2-22.5-4.3-30.5-12.5c-8.4-8.3-12.5-18.6-12.5-30.7s4.1-22.5,12.5-30.9
	c8-8.2,19-12.8,30.5-12.5c11.4-0.2,22.4,4.3,30.4,12.5c8.2,8.4,12.4,18.6,12.4,30.8S342,72.7,333.8,81.1z"/>
<path class="st0" d="M213.7,51c12.6-4.8,19-12.9,19-24.6c0-8-2.8-14.4-8.5-19.1s-13.8-7-24.5-7h-25.6l0.1,100.9h7.7V52.9h13.4
	c6.2,0,10.9,1.1,14.2,3.4s7.7,8,13.5,17.3l17.5,27.6h9l-22.5-34.8C221.4,57.7,216.9,52.6,213.7,51z M198.4,46.4h-16.5V6.8h16.2
	c8.4,0,14.9,1.7,19.4,5.2s6.8,8.3,6.8,14.5s-2.2,11.2-6.6,14.7S206.8,46.4,198.4,46.4z"/>
<polygon class="st0" points="110.4,94.8 110.4,53.7 155.6,53.7 155.6,47.2 110.4,47.2 110.4,6.9 156.9,6.8 156.9,0.4 102.6,0.4 
	102.7,101.3 158.1,101.2 158.1,94.7 "/>
<polygon class="st0" points="87,3.1 86.3,0.3 3.3,0.3 3.3,6.8 74.5,6.8 0,99 0.8,101.2 87.6,101.1 87.6,94.6 12.7,94.7 "/>
</svg>
