<svg xmlns="http://www.w3.org/2000/svg" viewBox="0 0 962.8 158.5"><path d="M573.5 1.1v4.6h27.9v152h6.4V5.7h28.1V.1h-62.4v1zm118.8 102.5c-1.3-2.8-3.1-5.2-5.4-7.2 2.9-1.4 5.2-3.7 6.8-6.4 3-5 4-10.8 4.8-16.4.8-8 .8-16.1.8-24.1v-9.6c0-7.8 0-15.8-2.2-23.7-1.4-5-3.8-8.8-7-11.2-3.8-3-9-4.6-15.6-4.6h-23.3V158h6.4V98.5H679c3.8.2 6.2 4.2 7.6 7.2 2.4 5.8 3.4 12.2 4.2 19.2l4.2 32.7h6.4l-4.2-33.1c-.9-6.9-1.9-14.3-4.9-20.9zM657.4 5.7H674c4.6 0 8.4 1 11 3 2.6 2 4.5 4.8 5.4 8 1.4 5 2.2 10.1 2.2 15.2.2 5 .2 10.2.2 15.2v8.2c0 7.6-.2 15.6-1.6 23.3-.8 3.8-2 8.2-4.8 11.2-2.1 2-4.9 3.1-7.8 3h-21V5.7h-.2zM750.2.9V.1h-12l-.2.8c-7.7 51.9-15.3 103.7-22.9 155.6l-.2 1.2h6.6l5.4-38.1h34.5l5.4 38.1h6.6l-.2-1.2c-7.7-51.7-15.4-103.6-23-155.6zm-5.4 4.8l15.4 108.5h-32.5c4.2-29.9 8.6-59.8 12.8-89.7l2.6-18.8h1.7zm92.9 39.9c0-7.6 0-15.4-1.2-23.1-1.4-8-3.8-13.4-7.8-17.2-5-4.4-11.6-5.2-16.5-5.2h-23.9v157.6h25.3c7.2 0 13.4-2.8 17-7.4 5-6.6 6.2-15 6.8-22.7.4-7.2.4-14.4.4-21.5-.1-2.7-.1-58.7-.1-60.5zm-6.5 19.8v55.2c.1 5.9-.3 11.8-1.4 17.6-1.2 4.8-3 8.4-5.8 10.4-2.6 2.2-6.4 3.2-11 3.2h-18.3V5.3h18.5c4.6 0 8.6 1.4 11.2 4 2.8 2.6 4.6 6.6 5.6 12.4s1 12 1 17.8l.2 25.9zm25.3 92.3h41.1v-5.6h-34.7V81.7h32.5v-5.6h-32.5V5.7h34.7V.1h-41.1v157.6zm102.3-33.5c-.5-5.3-1.5-10.5-3-15.6-1.2-3.8-3.2-8.8-7.4-12.2 2-1 3.7-2.3 5.2-4 3.6-4.4 5-10.2 5.8-15.4 1.2-8.8 1.2-17.6 1.2-26.5V40.2c0-6.8 0-14-1.4-21.1-1.4-6.4-3.6-11-7.2-14-3.8-3.2-9-5-15.6-5h-23.9v157.5h6.4V98.3h20.7c1.7 0 3.3.5 4.6 1.6 2 2 3.5 4.4 4.4 7 2 5.4 2.8 11.4 3.6 17.1l4.2 33.7h6.4l-4-33.5zM954.4 53c0 8.2 0 16.9-1.4 25.3-1 4.6-2.2 9.2-5.6 12-2 1.6-4.8 2.4-8.4 2.4h-19.7v-87H937c3 0 8.4.8 11.8 4.6s4.6 9.2 5.2 13.4c.7 6.3.9 12.6.8 18.8v5.2c-.3 1.8-.5 3.6-.4 5.3zM345.5 1.8V157h59.8v-21.3h-34.1V1.8zm-96.9 44c0 16.5 1.9 32.7-6.9 42.2-7.5 8-15.2 11.2-38.4 10v59h-25.4V1.8h36.6c13.6 0 25.6 4.3 31 16.1 3.2 7.1 3.1 17.8 3.1 27.9m-25.4-.3c0-6.6.4-12-.3-15.2-1.3-6.3-5.5-6.5-11.5-6.5h-8v52.5h10.4c3.9 0 8.3-1 9-5.2.7-4.4.4-11.6.4-25.6M329.7 2h-25.4l.3 126.5s.1 7.2-10.5 7.5c-10.9.4-10-10.1-10-8.8V2h-25.8l.4 124.5s-2.2 31.3 34 32.1c5.9 0 35 .1 37.1-28.6.5-9.3-.1-128-.1-128m233.7 123.5c0 9.2-2.1 17.4-9.1 23.7s-16.9 8.6-26.5 8.6c-10.4 0-18.8-2.1-25.7-7.9s-10-14.1-10-23.9l-.2-94.3c0-9.1 3.2-18.1 10.3-24.1 6.9-5.6 16-7.7 26.2-7.7 9.4 0 18.5 2.6 25.6 8.7s9.2 14.8 9.2 22.2l.2 94.7zm-25.6-.3V32c0-2.2-.4-9.6-10.1-9.6-9.2 0-10.2 6.2-10.2 9.6v93.3c0 3.2.3 10.3 10.2 10.2s10.1-6.9 10.1-10.3m-56.7-6c0 15.4-1.4 21.3-7.2 28.3-5.2 6.3-15.5 10.4-27.8 10.4-9.6 0-19.1-1.7-26-7.5-7.7-6-10.3-14.5-10.3-24v-25.2h25v17.2c.1 5.8-.7 10.1 1.3 13s4.6 4.4 9.9 4.1c4.7-.2 7.9-2.1 9.2-4.7 1.2-2.5.6-5.6.6-10.9 0-8.6.4-15.8-11-24.1s-18.7-13-26.1-22.3c-10.5-13.2-8.2-31.2-8.3-35-.4-14.4.4-20.3 5.9-27.1C422.4 3.5 433.4.1 445.8.1c11 0 20.3 3 26.8 9.8 5.9 6.2 7.8 14.3 7.8 23.7v22.6h-24.7c.3-1.8 0-9.7 0-15.3s.5-9.8-.5-12.4c-1.8-4.1-4.6-6-10.1-5.8-2.5-.1-4.9.7-6.9 2.2-2.6 2.1-2.8 5.9-2.4 14.4.2 3.7-.3 7.4.4 10.7.9 4.6 3.4 8.7 8.8 13.1 8.4 6.9 18.8 12.9 25.9 21.5 9.8 12 10.2 21.5 10.2 34.6M0 1.5v154.8h161.3V1.5H0zm79.3 127.1h-60V29.9h15.6v84.9h44.4v13.8zm62.6-84.9h-29.3v84.9H97.1V43.7H67.7V29.9h74.2v13.8z"/></svg>