<?xml version="1.0" encoding="utf-8"?>
<!-- Generator: Adobe Illustrator 23.0.1, SVG Export Plug-In . SVG Version: 6.00 Build 0)  -->
<svg version="1.1" id="Layer_1" xmlns="http://www.w3.org/2000/svg" xmlns:xlink="http://www.w3.org/1999/xlink" x="0px" y="0px"
	 viewBox="0 0 671.4 140" style="enable-background:new 0 0 671.4 140;" xml:space="preserve">
<style type="text/css">
	.st0{fill:#FFFFFF;}
</style>
<title>Logo_Reportajes_white_RGB</title>
<path class="st0" d="M0,38.1v67.5h70.3V38.1H0z M34.6,93.5H8.4v-43h6.8v37h19.4L34.6,93.5z M61.8,56.5H49.1v37h-6.8v-37H29.5v-6
	h32.3L61.8,56.5z"/>
<path class="st0" d="M84.9,38.1h21.2l-0.3,12.1c4.9-11,12.7-13.5,19.6-13.5c3.6,0,7.2,0.9,10.4,2.7l-6.8,19.4c-2.5-1.3-5.3-2-8.2-2
	c-9.6,0-14.8,4.4-14.8,18.7v29.7H84.9V38.1z"/>
<path class="st0" d="M169,88.9c6,0,11.9-1.9,16.8-5.3L198,96.6c-6.4,5.7-14.6,9.9-28.6,9.9c-23.9,0-39.3-14.5-39.3-35.1
	C130,51.1,146.2,36.6,167,36.6c24.1,0,37.1,17.9,35.5,41.4h-50.8C153.8,84.9,159.4,88.9,169,88.9z M181.1,65.7
	c-0.9-7.4-5.7-11.8-14-11.8s-14,3.8-15.7,11.8H181.1z"/>
<path class="st0" d="M205.2,38.1h21.2L226,48.4c4.1-7.2,11.2-11.8,21.5-11.8c16.2,0,29.9,14.2,29.9,34.8s-14,35.1-30.4,35.1
	c-10.2,0-17.1-4.2-20.6-10.4v42.3h-21.2V38.1z M255.5,71.4c0-9.9-5.7-16-14.6-16c-9.1,0-15.1,6.1-15.1,16c0,10.5,6,16.5,15.1,16.5
	C249.9,87.9,255.5,81.9,255.5,71.4z"/>
<path class="st0" d="M277.7,71.7c0-20.4,16.2-35.1,37-35.1s36.8,14.6,36.8,35.1c0,20.3-16,34.8-36.8,34.8S277.7,92,277.7,71.7z
	 M329.8,71.7c0-10.1-5.7-16.8-15.1-16.8s-15.3,6.8-15.3,16.8c0,9.9,5.8,16.8,15.3,16.8S329.8,81.6,329.8,71.7z"/>
<path class="st0" d="M354,38.1h21.2l-0.3,12.1c4.9-11,12.7-13.5,19.7-13.5c3.6,0,7.2,0.9,10.4,2.7l-6.8,19.3c-2.5-1.3-5.3-2-8.2-2
	c-9.6,0-14.8,4.4-14.8,18.7v29.7H354V38.1z"/>
<path class="st0" d="M410.3,79.9V55.7h-9.9V38.1h9.9V3.1h21.1v34.9h17.1v17.6h-17.1v24.9c0,6.8,2.2,8.2,5.5,8.2c3.5,0,6-1.9,7.4-2.8
	l8,14.8c-3.3,2.7-9,6.1-18.7,6.1C420.1,106.8,410.3,100,410.3,79.9z"/>
<path class="st0" d="M482,54.1c-8,0-12.3,3.5-15.3,6.1L455,47.7c6.3-6.1,13.4-11,29.1-11c17.1,0,30.2,9.3,30.2,30.4v38.1h-21.1
	l0.5-9.3c-5,7.7-10.8,10.7-19.8,10.7c-12.3,0-23.6-5.5-23.6-21.1c0-14.3,10.9-20.1,27.4-20.1h15.6C492.9,57.6,489.1,54.1,482,54.1z
	 M478.7,77.9c-5.4,0-7.7,2.4-7.7,6.1s3.1,6,9.1,6c8.7,0,13.1-3.8,13.1-9.4v-2.7L478.7,77.9z"/>
<path class="st0" d="M498.9,132l10.5-12.6c1.7,1.6,3.5,2.5,5.2,2.5c3.3,0,4.9-1.9,4.9-5.4V38.1h21.2v77.7c0,15.4-8.3,24.2-24.1,24.2
	C508.8,140,502,135.9,498.9,132z M516.6,13.5C516.6,6.1,522.6,0,530,0c7.4,0,13.5,5.9,13.5,13.4c0,7.4-5.9,13.5-13.4,13.5
	c-7.3,0.1-13.4-5.7-13.5-13C516.6,13.8,516.6,13.7,516.6,13.5z"/>
<path class="st0" d="M582.8,88.9c6,0,11.9-1.9,16.8-5.3l12.1,13.1c-6.5,5.7-14.6,9.9-28.6,9.9c-23.9,0-39.3-14.5-39.3-35.1
	c0-20.3,16.2-34.8,37-34.8c24.1,0,37.1,17.9,35.5,41.4h-50.8C567.6,84.9,573.2,88.9,582.8,88.9z M595,65.7c-1-7.4-5.7-11.8-14-11.8
	s-14,3.8-15.7,11.8H595z"/>
<path class="st0" d="M613.4,93.7l12.4-11c4.4,4.4,10.4,7,16.7,7.1c6.9,0,9.1-1.3,9.1-4.1c0-3.6-4.2-3.6-15.1-6.4
	c-9.1-2.4-19.3-7.4-19.3-21.4c0-15.1,11.6-21.2,26-21.2c11,0,18.9,3.6,24.4,9.3L656.1,58c-3.6-3.1-8.1-4.9-12.9-5
	c-4.9,0-7.2,1.3-7.2,3.9c0,3.8,4.2,4.2,13.4,6.3c9.8,2.2,22,6.8,22,20.9c0,12.3-6.5,22.3-27.5,22.3
	C628.3,106.5,619.2,100.7,613.4,93.7z"/>
</svg>
