<svg version="1.1" id="Layer_1" xmlns="http://www.w3.org/2000/svg" x="0" y="0" viewBox="0 0 675.5 256.2" xml:space="preserve"><style>.st0{fill-rule:evenodd;clip-rule:evenodd}.st0,.st1{fill:#232020}</style><path class="st0" d="M0 176.8c37.2 13.3 155.5 3.9 150.8-58.7-1-13.1-22.5-39.2-38.9-23.6-10.5 10 21.4 27.9-4.6 39.4-11.4 5.1-30.7-8.1-28.8-22.8 2.8-21.4 37.5-34.8 52.4-32.8 24.7 3.5 38.6 26.8 37.9 48.3C166.3 206.8 41 201.7 0 176.8zm193.9-67c0 5.4-4.4 9.8-9.8 9.8s-9.8-4.4-9.8-9.8 4.4-9.8 9.8-9.8 9.8 4.3 9.8 9.8c0-.1 0-.1 0 0zm0 35.9c0 5.4-4.4 9.8-9.8 9.8s-9.8-4.4-9.8-9.8 4.4-9.8 9.8-9.8 9.8 4.4 9.8 9.8z"/><path class="st0" d="M41.8 8s53.8 111.4 42.9 248.1c0 0-17.5-165.5-53.2-221.9S41.8 8 41.8 8z"/><path class="st1" d="M223.5 87.2v28.6c2.4-2.5 5.3-4.5 8.5-5.9 3.1-1.3 6.4-2 9.8-2 7.3-.1 14.4 3.1 19.2 8.6 5.3 5.7 7.9 13 7.9 21.9 0 8.6-2.7 15.8-8.2 21.6-5.4 5.8-11.9 8.7-19.4 8.7-3.2 0-6.3-.6-9.3-1.8-3.2-1.4-6.1-3.4-8.5-5.8v6.1h-14.4v-80h14.4zm15.3 34.2c-4.3-.1-8.4 1.6-11.4 4.7s-4.5 7.2-4.5 12.2 1.5 9.3 4.5 12.4c2.9 3.1 7.1 4.9 11.4 4.7 4.2.1 8.3-1.7 11.2-4.8 3.1-3.3 4.7-7.8 4.5-12.3.2-4.5-1.4-8.9-4.5-12.2-2.9-3.1-7-4.8-11.2-4.7z"/><path class="st1" d="M326 142.6h-46.5c.5 3.8 2.4 7.3 5.4 9.8 3.2 2.5 7.1 3.8 11.2 3.6 5.2.1 10.3-2 14-5.7l12.2 5.7c-2.8 4.1-6.5 7.4-10.9 9.6-4.7 2.2-9.9 3.2-15.1 3.1-9.1 0-16.4-2.9-22.1-8.6-5.7-5.7-8.5-12.9-8.5-21.5 0-8.8 2.8-16.1 8.5-21.9s12.8-8.7 21.4-8.7c9.1 0 16.5 2.9 22.2 8.7s8.5 13.5 8.5 23.1l-.3 2.8zm-14.5-11.4c-.9-3.2-2.9-6-5.7-7.9-2.9-2-6.3-3.1-9.8-3-3.8-.1-7.6 1.1-10.6 3.4-1.9 1.4-3.7 3.9-5.3 7.5h31.4z"/><path class="st1" d="M382.8 142.6h-46.5c.5 3.8 2.4 7.3 5.4 9.8 3.2 2.5 7.1 3.8 11.2 3.6 5.2.1 10.3-2 14-5.7L379 156c-2.8 4.1-6.5 7.4-10.9 9.6-4.7 2.2-9.9 3.2-15.1 3.1-9.1 0-16.4-2.9-22.1-8.6-5.7-5.7-8.5-12.9-8.5-21.5 0-8.8 2.8-16.1 8.5-21.9s12.8-8.7 21.4-8.7c9.1 0 16.5 2.9 22.2 8.7 5.7 5.8 8.5 13.5 8.5 23.1l-.2 2.8zm-14.5-11.4c-.9-3.2-2.9-6-5.7-7.9-2.9-2-6.3-3.1-9.8-3-3.8-.1-7.6 1.1-10.6 3.4-1.9 1.4-3.7 3.9-5.3 7.5h31.4zm20.6-43h14.5v21.3h8.6V122h-8.6v45.3h-14.5V122h-7.4v-12.4h7.4V88.2zm25.5-1h14.4v28.1c2.5-2.3 5.4-4.1 8.5-5.5 2.7-1.2 5.7-1.8 8.7-1.8 5.4-.1 10.7 2 14.5 5.9 3.4 3.4 5 8.5 5 15.1v38.1h-14.2v-25.3c0-6.7-.3-11.2-1-13.6-.5-2.1-1.6-4-3.3-5.3-1.7-1.2-3.7-1.8-5.7-1.8-2.8-.1-5.5 1-7.6 2.9-2.2 2.2-3.8 5-4.4 8-.4 1.7-.6 5.7-.6 11.9v23.2h-14.3V87.2z"/><path class="st1" d="M494.2 108c5.4 0 10.7 1.4 15.4 4.1 9.5 5.3 15.3 15.4 15.3 26.2 0 5.4-1.4 10.6-4.1 15.2-2.6 4.7-6.4 8.5-11 11.2-4.7 2.7-10 4.1-15.4 4-8 .1-15.7-3.1-21.2-8.8-11.8-12.1-11.7-31.4.4-43.3.2-.2.5-.5.8-.7 5.3-5.1 12.4-7.9 19.8-7.9zm.3 13.7c-4.2-.1-8.3 1.6-11.2 4.7-3 3.2-4.7 7.6-4.5 12 0 5 1.5 9.1 4.4 12.2 2.9 3.1 7 4.8 11.2 4.7 4.3.1 8.4-1.6 11.3-4.7 3.1-3.3 4.7-7.7 4.5-12.1 0-4.9-1.5-9-4.4-12.1-2.9-3.2-7-4.9-11.3-4.7z"/><path class="st1" d="M514.8 109.6h14.8l14.5 34 14.5-34h14.7l-24.5 57.7h-9.4l-24.6-57.7z"/><path class="st1" d="M623.9 142.6h-46.5c.5 3.8 2.4 7.3 5.4 9.8 3.2 2.5 7.1 3.8 11.2 3.6 5.2.1 10.3-2 14-5.7l12.2 5.7c-2.8 4.1-6.5 7.4-10.9 9.6-4.7 2.2-9.9 3.2-15.1 3.1-9.1 0-16.4-2.9-22.1-8.6-5.7-5.7-8.5-12.9-8.5-21.5 0-8.8 2.8-16.1 8.5-21.9 5.7-5.8 12.8-8.7 21.4-8.7 9.1 0 16.5 2.9 22.2 8.7s8.5 13.5 8.5 23.1l-.3 2.8zm-14.5-11.4c-.9-3.2-2.9-6-5.7-7.9-2.9-2-6.3-3.1-9.8-3-3.8-.1-7.6 1.1-10.6 3.4-1.9 1.4-3.7 3.9-5.3 7.5h31.4z"/><path class="st1" d="M622.9 109.6h14.5v5.9c2.7-2.4 5.7-4.3 8.9-5.8 2.6-1.1 5.4-1.6 8.2-1.6 5.5-.1 10.8 2.1 14.6 6 3.3 3.4 5 8.4 5 15.1v38.1h-14.3V142c0-6.9-.3-11.5-.9-13.7-.5-2-1.6-3.9-3.2-5.2-1.6-1.2-3.6-1.8-5.7-1.8-2.8 0-5.5 1-7.5 2.9-2.2 2.2-3.8 5-4.4 8.1-.4 1.8-.6 5.7-.6 11.7v23.2H623v-57.6zM490.2 222.9l-3.8-2.4 12.4-18.7c-1.5.5-3.1.8-4.7.8-3.5.1-6.9-1.4-9.3-3.9-2.5-2.6-3.9-6.1-3.8-9.7 0-2.5.6-5 1.8-7.1 1.2-2.1 3-3.9 5.2-5.1 2.2-1.2 4.7-1.9 7.2-1.9s4.9.6 7 1.8c2.1 1.2 3.8 3 5 5.1 1.2 2.1 1.8 4.5 1.8 7 0 2-.4 4-1.1 5.9-1.1 2.6-2.4 5.1-4.1 7.4l-13.6 20.8zm5-24.4c5.3 0 9.6-4.3 9.6-9.6s-4.3-9.6-9.6-9.6-9.6 4.3-9.6 9.6c0 2.6 1 5 2.8 6.8 1.7 1.9 4.2 2.9 6.8 2.8zm32.8-23.7l3.8 2.4-12.4 18.8c1.5-.5 3.1-.8 4.7-.8 3.5-.1 6.9 1.4 9.3 3.9 2.5 2.6 3.9 6.1 3.8 9.7 0 2.5-.6 5-1.8 7.1-1.2 2.1-3 3.9-5.2 5.1-2.2 1.2-4.7 1.9-7.3 1.9-2.5 0-4.9-.6-7-1.8-2.1-1.2-3.9-3-5.1-5.1-1.2-2.2-1.9-4.6-1.8-7.1 0-2 .4-4 1.1-5.9 1.1-2.6 2.4-5.1 4.1-7.5l13.8-20.7zm-5 24.4c-5.3 0-9.7 4.3-9.7 9.6s4.3 9.7 9.6 9.7 9.7-4.3 9.7-9.6c0-2.6-1-5-2.8-6.8-1.8-2-4.2-3-6.8-2.9zm21.8 15.7c1 0 2 .4 2.7 1.1 1.5 1.5 1.5 3.9 0 5.5-1.5 1.5-3.9 1.5-5.4.1l-.1-.1c-1.5-1.5-1.5-3.9 0-5.4.7-.8 1.7-1.2 2.8-1.2zm35.5-38.9v4.4H564l-2.3 12.5c1.7-.5 3.6-.8 5.4-.9 3.9-.1 7.6 1.4 10.3 4.2 2.7 2.9 4.2 6.8 4 10.7 0 2.9-.7 5.7-2.1 8.3-1.3 2.4-3.3 4.4-5.7 5.8-2.5 1.4-5.4 2.1-8.2 2-3.5.1-6.8-1.1-9.4-3.4-2.6-2.3-4.2-5.4-4.6-8.8h4.7c.3 1.5.9 3 1.8 4.3.9 1.1 2 2.1 3.4 2.7 1.4.7 2.9 1 4.4 1 3 0 5.8-1.2 7.8-3.4 2.2-2.3 3.3-5.4 3.2-8.6.1-2.8-.9-5.5-2.9-7.5-2.1-2-4.9-3-7.8-2.9-3.4.2-6.7 1-9.8 2.5l4.2-22.8 19.9-.1zm19.6 0h22.9v4.5h-18.4v14.4h18.4v4.5h-18.4v22.5h-4.6V176zm23.9 45.7l6.6-45.8h.7l18.7 37.6 18.4-37.6h.7l6.6 45.8H671l-4.5-32.7-16.2 32.7h-1.2l-16.4-33-4.5 33h-4.4z"/></svg>