<svg id="Layer_1" data-name="Layer 1" xmlns="http://www.w3.org/2000/svg" viewBox="0 0 451.01 481.26"><title>Logo_QuePasa_corto_01_RGB</title><path d="M266.63,203.88c6.45,0,53.08-1.14,66-1.14,23.13,0,34.55-.89,48.46,5.9C394.37,215.13,401,226,401,234.89c0,20.47-12.11,31.55-23.5,37.89-22.46,12.47-39.69,13.37-43.42,13-4.07-.4-6.22-.42-6.69-3-.2-1.12.69-2.93,2.78-3.81,17.73-7.39,38.47-15,38.47-40.94,0-22.64-18.2-26.92-39.81-26.92a25.17,25.17,0,0,0-9.86,2.27c-.76.38-1.9,1.89-2.28,4.93-.37,26.54-.37,111.09.76,121.32,1.52,21.23,1.9,24.64,19.72,29.2,5.31,1.14,7.2,2.27,7.2,4.55,0,2.66-4.17,3.78-8.35,3.78-10.22,0-60.65-.38-68.23-.38-4.55,0-8.34-1.5-8.34-3.4s2.27-3.79,7.58-4.93c14-3,17.06-7.59,17.82-23.12.38-12.9,1.13-26.93,1.13-63.7,0-30.34-1.13-44.36-1.51-52.7s-1.9-13.66-17.44-16.69c-6.07-1.51-8-3.41-8-4.92,0-1.14,1.52-3.41,7.58-3.41"/><path d="M157.32,293.4c-56.14-2-76.77-63.19-77.88-95.07-2.06-59,29.12-86.35,60.46-86.35,52.21,0,78.76,50.41,78.76,97.68,0,66-39.2,84.51-61.34,83.74m114.39,55.42c-4,1.67-13.51,2.58-16.39,2.58a85.49,85.49,0,0,1-26.64-4c-22.91-7.45-50.72-30.82-53.82-47.31-.45-2.39,1.75-2.94,3.33-3.46,40.52-13.41,70.74-48.46,70.88-94.21.16-50.43-39.48-98.28-99.42-98.28-53.22,0-100.86,39.29-99.6,98.56.83,38.95,22.11,73.22,60.93,90a105.81,105.81,0,0,0,25.19,7.4c8,1.43,5.71,2.79,14.31,11.39,10.6,10.31,23.9,28,47.38,38.88,16.9,7.73,27.39,10.19,40.57,10.19,10,0,25.12-3.89,34.49-8.66,1.77-.9.67-3.87-1.21-3.09"/></svg>