<svg id="Layer_1" data-name="Layer 1" xmlns="http://www.w3.org/2000/svg" viewBox="0 0 439.44 262.37"><title>Logo_MtMag_corto_01_RGB</title><path d="M398.87,183.77a6.62,6.62,0,1,0-6.62,6.57,6.6,6.6,0,0,0,6.62-6.57Zm-21.75-1.14V72.87h-3.38L322.17,145.7,282.42,89.59l-1.74,3.54L322,151.58h.17l51.23-72.5V190.34h3.9M270.7,100.58l14-28.55H135.86L106,139.21,74.22,72H40.58V190.31H74.31l-.09-59.65,23.31,59.68h16.3l23.31-59.68.12,59.68,33.52,0V100.58H203v-.11h.08v89.87h36.62V100.58Zm.07,6.16h-3.72v83.6h3.72v-83.6Z"/></svg>