<?xml version="1.0" encoding="utf-8"?>
<!-- Generator: Adobe Illustrator 23.0.1, SVG Export Plug-In . SVG Version: 6.00 Build 0)  -->
<svg version="1.1" id="Layer_1" xmlns="http://www.w3.org/2000/svg" xmlns:xlink="http://www.w3.org/1999/xlink" x="0px" y="0px"
	 viewBox="0 0 677.9 173.5" style="enable-background:new 0 0 677.9 173.5;" xml:space="preserve">
<title>Logo_EdicionesEspeciales_black_sinLT_RGB</title>
<path d="M0,1.6h62.3v18.2h-41v11.7h37.2v16.9H21.2v12.3h41.6V79H0V1.6z"/>
<path d="M71,1.6h29.9c27.6,0,43.7,15.9,43.7,38.3v0.2c0,22.3-16.3,38.9-44.1,38.9H71V1.6z M101.2,60c12.8,0,21.4-7.1,21.4-19.6v-0.2
	c0-12.4-8.5-19.6-21.4-19.6h-8.8V60H101.2z"/>
<path d="M153.3,1.6h21.6V79h-21.6V1.6z"/>
<path d="M183.6,40.5v-0.2c0-22.6,17.3-40.3,40.8-40.3c15.8,0,26,6.6,32.9,16.2l-16.2,12.5c-4.4-5.5-9.5-9.1-16.9-9.1
	c-10.9,0-18.5,9.2-18.5,20.5v0.2c0,11.6,7.6,20.7,18.5,20.7c8.1,0,12.8-3.8,17.5-9.4l16.2,11.5c-7.3,10.1-17.1,17.5-34.3,17.5
	C201.4,80.5,183.6,63.7,183.6,40.5z"/>
<path d="M264.6,1.6h21.6V79h-21.6V1.6z"/>
<path d="M294.9,40.5v-0.2C294.9,18,312.8,0,336.7,0s41.6,17.8,41.6,40.1v0.2c0,22.2-17.9,40.3-41.8,40.3S294.9,62.7,294.9,40.5z
	 M356.4,40.5v-0.2c0-11.2-8.1-20.9-19.9-20.9s-19.6,9.5-19.6,20.7v0.2c0,11.2,8.1,20.9,19.8,20.9S356.4,51.7,356.4,40.5z"/>
<path d="M386.7,1.6h20l31.9,40.9V1.6h21.2V79H441l-33.1-42.5V79h-21.2V1.6z"/>
<path d="M470.8,1.6H533v18.2h-41v11.7h37.2v16.9H492v12.3h41.6V79h-62.8V1.6z"/>
<path d="M535.9,67.5l11.9-14.3c7.6,6.1,16.2,9.3,25.1,9.3c5.8,0,8.9-2,8.9-5.3V57c0-3.2-2.5-5-13.1-7.4
	c-16.5-3.8-29.2-8.4-29.2-24.3V25c0-14.4,11.4-24.8,30-24.8c13.2,0,23.5,3.5,31.9,10.3l-10.8,15.1c-7.1-5-14.8-7.6-21.7-7.6
	c-5.2,0-7.7,2.2-7.7,5v0.2c0,3.5,2.7,5.1,13.4,7.5c17.8,3.9,28.9,9.6,28.9,24.1v0.2c0,15.8-12.5,25.2-31.3,25.2
	C558.5,80.3,545.5,76,535.9,67.5z"/>
<path d="M0,94.6h62.3v18.2h-41v11.7h37.2v16.9H21.2v12.3h41.6V172H0V94.6z"/>
<path d="M65.2,160.5l11.9-14.3c7.6,6.1,16.2,9.3,25.1,9.3c5.8,0,8.9-2,8.9-5.3V150c0-3.2-2.5-5-13-7.4c-16.5-3.8-29.2-8.4-29.2-24.3
	V118c0-14.4,11.4-24.8,30-24.8c13.1,0,23.4,3.5,31.9,10.3l-10.8,15.2c-7.1-5-14.8-7.6-21.7-7.6c-5.2,0-7.7,2.2-7.7,5v0.2
	c0,3.5,2.7,5.1,13.4,7.5c17.8,3.9,28.9,9.6,28.9,24.1v0.2c0,15.8-12.5,25.2-31.3,25.2C87.7,173.3,74.7,169,65.2,160.5z"/>
<path d="M140.4,94.6h33.2c19.6,0,32.2,10.1,32.2,27.2v0.2c0,18.2-14,27.9-33.3,27.9h-10.6V172h-21.5V94.6z M172,133
	c7.6,0,12.3-4,12.3-10.1v-0.2c0-6.6-4.6-10.2-12.4-10.2h-10.1V133H172z"/>
<path d="M212.1,94.6h62.3v18.2h-41v11.7h37.2v16.9h-37.2v12.3h41.6V172h-62.8V94.6z"/>
<path d="M280.5,133.5v-0.2c0-22.6,17.4-40.3,40.8-40.3c15.8,0,26,6.6,32.9,16.1L338,121.7c-4.4-5.5-9.5-9.1-16.9-9.1
	c-10.8,0-18.5,9.2-18.5,20.5v0.2c0,11.6,7.6,20.7,18.5,20.7c8.1,0,12.8-3.8,17.5-9.4l16.2,11.5c-7.3,10.1-17.1,17.5-34.3,17.5
	C298.3,173.5,280.5,156.7,280.5,133.5z"/>
<path d="M361.6,94.6h21.6V172h-21.6V94.6z"/>
<path d="M421.3,94H442l33,78h-23l-5.6-13.8h-29.9l-5.5,13.8h-22.6L421.3,94z M440.1,141.4l-8.6-22l-8.8,22H440.1z"/>
<path d="M479.7,94.6h21.5v58.6h37.5V172h-59L479.7,94.6z"/>
<path d="M545.1,94.6h62.3v18.2h-41v11.7h37.2v16.9h-37.2v12.3H608V172h-62.8V94.6z"/>
<path d="M610.3,160.5l11.9-14.3c7.7,6.1,16.2,9.3,25.1,9.3c5.8,0,8.9-2,8.9-5.3V150c0-3.2-2.5-5-13.1-7.4
	c-16.5-3.8-29.2-8.4-29.2-24.3V118c0-14.4,11.4-24.8,30-24.8c13.2,0,23.5,3.5,31.9,10.3L665,118.7c-7.1-5-14.8-7.6-21.7-7.6
	c-5.2,0-7.7,2.2-7.7,5v0.2c0,3.5,2.7,5.1,13.4,7.5c17.8,3.9,28.9,9.6,28.9,24.1v0.2c0,15.8-12.5,25.2-31.3,25.2
	C632.8,173.3,619.8,169,610.3,160.5z"/>
</svg>
