<?xml version="1.0" encoding="utf-8"?>
<!-- Generator: Adobe Illustrator 23.0.1, SVG Export Plug-In . SVG Version: 6.00 Build 0)  -->
<svg version="1.1" id="Layer_1" xmlns="http://www.w3.org/2000/svg" xmlns:xlink="http://www.w3.org/1999/xlink" x="0px" y="0px"
	 viewBox="0 0 395.1 395.1" style="enable-background:new 0 0 395.1 395.1;" xml:space="preserve">
<title>Logo_QuePasa_circulo_black_RGB</title>
<path d="M164.5,176.9c0-30.2-17-62.4-50.3-62.4c-20,0-40,17.5-38.7,55.2c0.7,20.4,13.9,59.5,49.8,60.8
	C139.4,230.9,164.5,219,164.5,176.9z"/>
<path d="M291.2,178.7c7.4,0,18.2-0.4,22.7-0.4c4.6-0.6,6.9-1.5,6.9-6.1c-0.2-6.7-7.2-11.7-11.5-11.7c-7.8,0-16,6.7-19,16.7
	C290.3,177.6,290.6,178.7,291.2,178.7z"/>
<path d="M197.6,0C88.4,0,0,88.4,0,197.5s88.4,197.6,197.6,197.6s197.5-88.5,197.5-197.6S306.7,0,197.6,0z M318,119.6
	c1.1-2,2.5-4.3,4.3-4.3c1.2,0,3.4,0.9,5.5,2.7c1.8,1.4,3,3.2,3,4.6c0,1.1-1.1,3-2.8,4.8l-22.2,23.1c-1.4,0.2-2.6-0.7-3-2L318,119.6z
	 M295.1,161.3c3.9-2.4,9.3-4.1,16.2-4.1c13.6,0,23.4,9.1,23.4,21.9c0,2-2.6,3.5-5.2,3.3c-11.9-0.6-31.6-0.6-38.1,0
	c-1,0.4-1.8,1.2-2.2,2.2c-0.4,1.3-0.4,4.5-0.4,7.4c0,14.9,11.9,31,27.7,31c10.2,0,14.3-3.9,18.2-9.1c1.1-1.5,2.6-1.5,2.6,0.9
	c0,1.7-1.7,3.9-2.6,5c-6.5,8.5-16.9,14.7-27.5,14.7c-20.5,0-32.2-17.5-32.2-37C275,184.7,280.2,169.6,295.1,161.3L295.1,161.3z
	 M193.5,159.6c10,0,16.4-1.1,20.6-1.1c0.4,0,1.1,1.1,0.9,2.6c-0.4,11.9-0.9,33.1-0.9,45.4c0,8.4,1.5,12.8,5.2,15.2
	c2.8,2,6.9,3,11.1,2.8c7.8,0,10.6-3,13-5.6c1.1-1.3,1.9-5,1.9-8.6c0-8.2,0.2-31.2,0-39c0-3-0.8-5.6-3-6.3c-1.7-0.7-3.6-1.2-5.4-1.5
	c-2.4-0.6-3.3-1.5-3.3-2.6s1.9-1.3,3.3-1.3c3.5,0,21.4-1.3,22.3-1.3s1.5,1.9,1.5,6c0,8-0.6,18.2-0.6,51.3c0,8.7,0.7,10.6,3.7,10.6
	c2.6-0.2,8.9-1.5,9.8-1.5c0.7,0,1.3,0.6,1.3,1.3c0,0.7-0.6,3.3-1.7,3.5c-6.5,0.9-17.7,3.7-21.8,4.8c-1.4,0.5-2.9,0.8-4.5,0.9
	c-0.8,0-1.7-1.7-1.7-3.4c0-3.3,0.2-7.8,0.4-9.9c0-0.4-0.8-0.4-0.9-0.2c-1.7,1.3-8.5,7.2-13.8,9.9c-3.8,2-8,2.9-12.3,2.8
	c-6.1,0-11.5-2.2-15-6.1c-3-3.2-4.8-8.4-4.8-14.9c0-15.2,0.4-35.5-0.2-41.8c-0.4-4.8-0.2-5.9-6-8c-1.5-0.6-3.5-1.5-3.5-2.6
	S190.9,159.6,193.5,159.6L193.5,159.6z M151.2,266.8c-15-7-23.5-18.3-30.3-24.9c-5.5-5.5-4-6.4-9.1-7.3c-5.5-0.9-11-2.5-16.1-4.7
	c-24.8-10.7-38.4-32.6-39-57.6c-0.8-37.9,29.6-63,63.7-63c38.3,0,63.7,30.6,63.6,62.8c-0.1,29.2-19.4,51.7-45.3,60.2
	c-1,0.3-2.4,0.7-2.1,2.2c2,10.5,19.8,25.5,34.4,30.2c5.5,1.7,11.2,2.6,17,2.6c1.8,0,7.9-0.6,10.5-1.6c1.2-0.5,1.9,1.4,0.8,2
	c-6,3.1-15.6,5.5-22.1,5.5C168.7,273.4,162,271.8,151.2,266.8z M212.4,246.7c-0.8,0-1.5,0.2-2.2,0.5c-0.2,0.1-0.4,0.4-0.5,1.1
	c-0.1,6.1-0.1,25.4,0.2,27.7c0.4,4.9,0.4,5.6,4.5,6.7c1.2,0.3,1.6,0.5,1.6,1s-1,0.9-1.9,0.9c-2.3,0-13.8-0.1-15.6-0.1
	c-1,0-1.9-0.3-1.9-0.8s0.5-0.9,1.7-1.1c3.2-0.7,3.9-1.7,4.1-5.3c0.1-2.9,0.3-6.1,0.3-14.5c0-6.9-0.3-10.1-0.4-12s-0.4-3.1-4-3.8
	c-1.4-0.4-1.8-0.8-1.8-1.1s0.4-0.8,1.7-0.8s12.1-0.2,15.1-0.2c5.3,0,7.9-0.2,11.1,1.3s4.5,4,4.5,6c0,3.7-2,7.1-5.4,8.6
	c-5.1,2.9-9,3-9.9,3s-1.4-0.1-1.5-0.7c0-0.4,0.3-0.8,0.6-0.9c4-1.7,8.8-3.4,8.8-9.4C221.5,247.7,217.3,246.7,212.4,246.7z
	 M268.3,284.6h-15.1c-1.5,0-1.9-0.4-1.9-1s0.8-0.9,1.9-1.1c1.9-0.6,2.6-1.1,2.6-2.5c0-0.9-1.8-5.3-3-8.7c-0.2-0.7-0.7-1.2-1.4-1.3
	c-1.9-0.2-9.7-0.1-10.6,0c-0.6,0-1.1,0.7-1.3,1c-0.7,1.7-2.5,7.3-2.5,8.4c0,1.6,0.9,2.3,4.1,3.2c1,0.4,1.5,0.8,1.5,1.1
	c0,0.6-1,0.9-1.8,0.9h-12.2c-1.4,0-2.3-0.3-2.3-0.8s0.5-1,1.9-1.3c3-0.8,4-1.6,6.5-6.9c2.1-4.4,9.3-23.7,10.5-27.1
	c0.3-0.5,0.4-1.1,0.4-1.7v-0.8c0.1-0.4,0.4-0.8,0.8-1c1.3-0.1,2.6-0.1,3.9,0c0.3,0,0.7,0.5,0.7,0.8c0.3,1.2,0.7,2.5,1.2,3.6
	c1.4,3.8,8.9,23.4,10.7,27.1c1.9,4.1,2.3,5.2,5.9,6.6c1.1,0.5,1.6,0.7,1.6,1.1S269.3,284.6,268.3,284.6z M291.5,283.1
	c-3.1,1.7-6.5,2.6-10,2.6c-1.6,0-3.2-0.1-4.8-0.4c-3.1-0.6-5.6-2.9-6.5-5.9c-0.3-1.3-0.6-2.7-0.7-4.1c0-0.8,0.1-2,0.8-2
	c0.9,0,2.1,2.9,2.5,3.7c2,3.9,5,6.8,9.5,6.8c3.9,0.1,7.1-2.9,7.4-6.8c0-2.9-1.7-5-4.9-7.1c-2.1-1.4-3.6-2.2-5.4-3.3
	c-4.1-2.3-8-6.3-8-11.3c0-6,5.2-11.3,13.8-11.3c1.6,0,3.2,0.2,4.8,0.4c1.3,0.3,2.7,0.4,4,0.5c0.6,0.1,1,1,1,1.9c0,1.4,0.4,4.8,0.4,6
	c0,0.7-0.3,1.4-0.9,1.8c-0.6,0-0.8-0.5-1.2-1.7c-0.5-2-1.6-3.7-3.2-5c-1.5-1.3-3.3-2-5.3-2c-3.6-0.2-6.6,2.6-6.8,6.2
	c0,0.2,0,0.4,0,0.6c0,3.2,1.8,5,4.4,6.5c2.7,1.6,4.8,2.8,7.3,4.3c3.7,2.2,7,5.8,7,10.3C296.6,277.5,294.7,281,291.5,283.1z
	 M336.5,284.6h-15.1c-1.5,0-1.9-0.4-1.9-1s0.8-0.9,1.9-1.1c1.9-0.6,2.6-1.1,2.6-2.5c0-0.9-1.8-5.3-3-8.7c-0.2-0.7-0.8-1.2-1.5-1.3
	c-1.9-0.2-9.7-0.1-10.6,0c-0.6,0-1.1,0.7-1.3,1c-0.7,1.7-2.5,7.3-2.5,8.4c0,1.6,0.9,2.3,4.1,3.2c1,0.4,1.6,0.8,1.6,1.1
	c0,0.6-1,0.9-1.8,0.9h-12.2c-1.4,0-2.4-0.3-2.3-0.8c0.1-0.5,0.7-0.3,2.1-0.8c3.1-1.1,3.8-2,6.3-7.4c2.1-4.4,9.3-23.7,10.5-27.1
	c0.3-0.5,0.4-1.1,0.4-1.7v-0.8c0.1-0.4,0.4-0.8,0.8-1c1.3-0.1,2.6-0.1,3.9,0c0.3,0,0.7,0.5,0.7,0.8c0.3,1.2,0.7,2.5,1.2,3.6
	c1.4,3.8,8.9,23.4,10.6,27.1c1.9,4.1,1.9,4.9,6,6.1c1.1,0.4,1.5,0.6,1.5,1C338.4,284.2,337.5,284.6,336.5,284.6L336.5,284.6z"/>
<path d="M246.3,253c-0.2-0.2-0.5-0.1-0.7,0.3c-1.1,2.9-3.9,10.6-4.5,12.5c-0.1,0.3,0.1,1,0.4,1c1,0.1,7.4,0.1,9.2-0.1
	c0.2,0,0.5-0.3,0.4-0.8C249.8,262.5,247.9,256.9,246.3,253z"/>
<path d="M314.6,253c-0.2-0.2-0.5-0.1-0.7,0.3c-1.1,2.9-3.9,10.6-4.5,12.5c-0.1,0.3,0.1,1,0.3,1c1,0.1,7.5,0.1,9.2-0.1
	c0.2,0,0.5-0.3,0.3-0.8C318,262.5,316.1,256.9,314.6,253z"/>
</svg>
