<?xml version="1.0" encoding="utf-8"?>
<!-- Generator: Adobe Illustrator 23.0.1, SVG Export Plug-In . SVG Version: 6.00 Build 0)  -->
<svg version="1.1" id="Layer_1" xmlns="http://www.w3.org/2000/svg" xmlns:xlink="http://www.w3.org/1999/xlink" x="0px" y="0px"
	 viewBox="0 0 642.2 135.4" style="enable-background:new 0 0 642.2 135.4;" xml:space="preserve">
<title>Logo_ElDeportivo_black_sinLT_RGB</title>
<path d="M38.2,86.9c5.9,0,11.6-1.8,16.5-5.2l11.8,12.8c-6.3,5.5-14.3,9.7-28,9.7C15.1,104.2,0,90,0,69.9c0-19.8,15.8-34,36.2-34
	c23.5,0,36.3,17.5,34.8,40.5H21.2C23.2,83.1,28.8,86.9,38.2,86.9z M50,64.3c-0.9-7.2-5.5-11.5-13.7-11.5s-13.7,3.7-15.4,11.5H50z"/>
<path d="M74,3.5h20.6v99.3H74V3.5z"/>
<path d="M97.7,69.9c0-20.1,13.5-34,29.4-34c10.5,0,16.3,4.2,20.5,10.6v-43h20.8v99.3h-20.8l0.5-9.5c-3.7,6.9-10.6,10.9-20.6,10.9
	C111.4,104.2,97.7,90,97.7,69.9z M148.2,69.9c0-9.7-5.8-15.7-14.8-15.7c-8.8,0-14.3,6-14.3,15.7c0,10.3,5.5,16.2,14.3,16.2
	C142.3,86,148.2,80.2,148.2,69.9L148.2,69.9z"/>
<path d="M209,86.9c5.9,0,11.6-1.8,16.5-5.2l11.9,12.8c-6.3,5.5-14.3,9.7-28,9.7c-23.4,0-38.5-14.2-38.5-34.3c0-19.8,15.9-34,36.2-34
	c23.5,0,36.3,17.5,34.8,40.5H192C194,83.1,199.6,86.9,209,86.9z M220.9,64.3c-0.9-7.2-5.5-11.5-13.7-11.5s-13.7,3.7-15.4,11.5H220.9
	z"/>
<path d="M244.4,37.2h20.8l-0.5,10.2c4-7.1,10.9-11.5,21.1-11.5c15.9,0,29.2,13.9,29.2,34s-13.7,34.3-29.7,34.3
	c-10,0-16.8-4.1-20.2-10.2v41.4h-20.8V37.2z M293.6,69.9c0-9.7-5.5-15.7-14.3-15.7s-14.8,6-14.8,15.7c0,10.3,5.9,16.2,14.8,16.2
	S293.6,80.2,293.6,69.9z"/>
<path d="M315.3,70.2c0-20,15.9-34.3,36.2-34.3s36,14.3,36,34.3c0,19.8-15.7,34-36,34S315.3,90,315.3,70.2z M366.2,70.2
	c0-9.8-5.5-16.5-14.8-16.5s-14.9,6.6-14.9,16.5c0,9.7,5.7,16.5,14.9,16.5S366.2,79.9,366.2,70.2z"/>
<path d="M389.9,37.2h20.8l-0.3,11.8c4.8-10.8,12.5-13.2,19.2-13.2c3.6,0,7,0.9,10.2,2.6l-6.6,18.9c-2.5-1.3-5.2-2-8-2
	c-9.4,0-14.5,4.3-14.5,18.3v29.1h-20.8V37.2z"/>
<path d="M445,78.2V54.5h-9.7V37.2h9.7V3.1h20.6v34.2h16.8v17.2h-16.7v24.3c0,6.6,2.1,8,5.4,8c3.4,0,5.9-1.8,7.2-2.8l7.8,14.5
	c-3.2,2.6-8.8,6-18.3,6C454.6,104.5,445,97.9,445,78.2z"/>
<path d="M483.2,13.2C483.1,6,489,0,496.3,0c7.3,0,13.2,5.8,13.2,13.1c0,7.3-5.8,13.2-13.1,13.2c-7.2,0.1-13.1-5.6-13.2-12.8
	C483.2,13.5,483.2,13.3,483.2,13.2z M486,37.2h20.8v65.6H486L486,37.2z"/>
<path d="M505.5,37.2h22.9l9.2,19.5c3.1,6.6,5.4,17.4,5.4,17.4s2.2-10.8,5.1-17.4l8.9-19.6h21.1L543,104.2h-2L505.5,37.2z"/>
<path d="M570,70.2c0-20,15.8-34.3,36.2-34.3s36,14.3,36,34.3c0,19.8-15.7,34-36,34S570,90,570,70.2z M620.9,70.2
	c0-9.8-5.5-16.5-14.8-16.5s-14.9,6.6-14.9,16.5c0,9.7,5.7,16.5,14.9,16.5S620.9,79.9,620.9,70.2L620.9,70.2z"/>
</svg>
