<svg id="Layer_1" data-name="Layer 1" xmlns="http://www.w3.org/2000/svg" viewBox="0 0 200 200.01"><title>Logo_Tendencias_corto_02_RGB</title><path d="M43.76,125.16V47.48H65.2V82.59H82.65v17.93H65.2V125.8c0,6.88,2.24,8.32,5.61,8.32s6.08-1.92,7.52-2.88l8.16,15c-3.36,2.72-9.12,6.24-19,6.24C53.68,152.53,43.76,145.65,43.76,125.16Z"/><path d="M122.05,134.28a29.58,29.58,0,0,0,17.11-5.47l12.35,13.26c-6.55,5.77-14.87,10.11-29.11,10.13-24.33,0-40-14.65-40.07-35.62,0-20.64,16.42-35.39,37.55-35.43,24.48,0,37.8,18.18,36.24,42l-51.7.09C106.52,130.3,112.29,134.3,122.05,134.28Zm12.28-23.55c-1-7.52-5.78-12-14.26-12s-14.24,3.87-16,12Z"/></svg>