<svg xmlns="http://www.w3.org/2000/svg" viewBox="0 0 236.5 244.5"><path d="M147.3 244.5H89.2c-38.5 0-69.8-33.3-69.8-74.2v-22.7c-1.5-10.8-8.6-19.9-18.6-24.2-.5-.2-.8-.7-.8-1.2s.3-1 .8-1.2c10-4.2 17.1-13.4 18.6-24.1V74.2C19.4 33.3 50.7 0 89.2 0h58.1c38.5 0 69.8 33.3 69.8 74.2v22.7c1.5 10.8 8.5 20 18.6 24.2.5.2.8.7.8 1.2s-.3 1-.8 1.2c-10 4.2-17.1 13.4-18.6 24.2v22.7c0 40.9-31.3 74.1-69.8 74.1" fill="#1d1d1b"/><path d="M146.5 119l-3.8-73.5h-.2c-1.1 7.8-3.5 19.7-5.5 27.8L125.5 119h-18l-11-45.7c-1.9-8.1-4.3-20-5.4-27.8h-.2L86.6 119H72.2L79 32.5h21l12 48.8c2 8.3 3.6 16.8 4.8 25.3h.2c1.1-7.1 2.8-16.4 5-25.3l11.7-48.8h20.7l6.8 86.5m.5 20.6H72.2c-.7 0-1.3-.6-1.3-1.3 0-.7.6-1.3 1.3-1.3h89.5c.7 0 1.3.6 1.3 1.3 0 .7-.6 1.3-1.3 1.3m-81.1 24h9.7c5.9 0 9.9 2.3 9.9 10.3 0 5.7-3.1 9.7-9.5 9.7H80.6v-20zM70.4 212h10.2v-19.4h12c10.7 0 18.3-7.4 18.3-18.7 0-11.1-6.2-19.4-18.9-19.4H70.4V212zm91.9-.8h-7.4l-1.5-7.8s-1.6 8.6-13.6 8.6c-14.5 0-23.4-9.6-23.1-28.2.2-16.8 9.7-25.8 23.5-25.8 16.7 0 20.6 13.5 20.6 13.5l-9.3 2.9s-1.2-7.2-11.4-7.2c-11.9 0-13.1 11.9-13.1 17.5 0 4.6 1.1 9.8 3.2 12.7 4.7 6.5 14.9 6.5 19.2 2.4 3.2-3 3-9.1 3-9.1h-10.7l-.1-9.3 20.7.1v29.7z" fill="#fff"/></svg>