<?xml version="1.0" encoding="utf-8"?>
<!-- Generator: Adobe Illustrator 23.0.1, SVG Export Plug-In . SVG Version: 6.00 Build 0)  -->
<svg version="1.1" id="Layer_1" xmlns="http://www.w3.org/2000/svg" xmlns:xlink="http://www.w3.org/1999/xlink" x="0px" y="0px"
	 viewBox="0 0 656 258.3" style="enable-background:new 0 0 656 258.3;" xml:space="preserve">
<style type="text/css">
	.st0{fill:#FFFFFF;}
</style>
<title>Logo_MasDecoMarket_white_sinLT_RGB</title>
<polygon class="st0" points="207.2,19.9 196.4,0 165.6,19.9 174.7,34.3 "/>
<path class="st0" d="M492,86.8c0,28.9,18.1,47,48.8,47c9.9-0.1,19.8-1.7,29.3-4.7l-4.9-26c-9,2.7-13.5,3.6-19.9,3.6
	c-10,0-15.4-7.2-15.4-19.9s5.4-19.9,15.4-19.9c6.3,0,10.8,0.9,19.9,3.6l4.9-26c-9.5-3-19.3-4.6-29.3-4.7C510,39.8,492,57.9,492,86.8
	"/>
<path class="st0" d="M493.7,94c1.1-5.7,1.7-11.4,1.8-17.2c0-22.6-15.9-37.1-42.5-37.1c-30.7,0-49.7,19.9-49.7,47s16.3,47,52.4,47
	c6.3,0,20.8-0.9,34.3-6.3l-3.6-25.5c-7.5,3.1-15.4,4.6-23.5,4.7c-15.4,0-20.4-6.3-21.7-12.6H493.7z M452.1,63.3c6.7,0,9,3.8,9,8.1
	c0,1.2-0.2,2.4-0.5,3.6h-19.3C441.3,68.7,445.3,63.3,452.1,63.3"/>
<path class="st0" d="M347.5,132c41.6,0,59.7-26,59.7-61.5S389,9,347.5,9h-48.8V132L347.5,132z M336.6,99.5V41.6h10.8
	c12.7,0,19.9,7.2,19.9,28.9s-7.2,29-19.9,29H336.6z"/>
<path class="st0" d="M299.5,102.1c0-28.6-38-28-38-35.3c0-2.3,2.5-2.7,4-2.7c7.8,0,20.4,3.8,26.8,6.3l4.9-26
	c-11.6-3.1-23.6-4.7-35.6-4.7c-24.4,0-41.6,9.9-41.6,30.4c0,30.9,37.1,28.9,37.1,36.3c0,2.4-2.7,2.9-5.4,2.9
	c-7.4,0-16.3-2.7-27.8-6.5l-5.6,26.4c10.1,2.7,25.3,4.5,38.9,4.5C282.3,133.8,299.5,123.3,299.5,102.1"/>
<path class="st0" d="M173.9,64.2c6,0,9.6,3.1,9.6,7.6V75c-28,1.8-48.8,13.6-48.8,35.2c0,14.5,9.6,23.5,24.4,23.5
	c8.3,0,17.5-2.7,24-10.8h0.4l3.6,9h32.5V70.5c0-19-15.7-30.7-39.8-30.7c-11.9,0-22.2,1.1-40.7,7.2l7.2,24.4
	C155.9,66.9,166.7,64.1,173.9,64.2 M183.5,104.8c-1.7,1.2-3.7,1.9-5.8,1.8c-2,0-6-0.9-6-5.4c0-4.7,4.5-8.1,11.8-9L183.5,104.8z"/>
<polygon class="st0" points="50.3,9 0,9 0,132 36.1,132 36.1,86.8 35.2,66 35.6,66 52.4,113.9 79.5,113.9 96.4,66 96.7,66 
	95.8,86.8 95.8,132 135.6,132 135.6,9 84.4,9 75.4,38 68.7,62.6 68.3,62.6 60.6,38 "/>
<path class="st0" d="M609.9,65.1c7.6,0,8.1,8.5,8.1,21.7s-0.5,21.7-8.1,21.7s-8.1-8.5-8.1-21.7S602.3,65.1,609.9,65.1 M609.9,133.8
	c33.4,0,46.1-21.7,46.1-47s-12.7-47-46.1-47c-33.6,0-46.1,21.7-46.1,47S576.2,133.8,609.9,133.8"/>
<path class="st0" d="M0,258.3V155.6h13.6l40.3,58.2l39.9-58.2h13.9v102.7H87.2v-58.2l-29.9,43h-7.1l-29.9-43v58.2H0z"/>
<path class="st0" d="M319.8,258.3l-21.7-37.4h-12.2v37.4h-20.6V155.6h39.3c11.4,0,20.2,3.2,26.1,9.4c6,6.2,9.2,14.5,9,23.1
	c0,13.3-7,25.2-20.9,30.2l24.9,40L319.8,258.3z M285.9,174.6v27.9h16.8c10.7,0,16-6.1,16-14s-5.3-13.8-14.2-13.8L285.9,174.6z"/>
<path class="st0" d="M436.3,258.3l-28.5-40.7l-12.7,15.1v25.6h-20.6V155.6h20.6v48.5l38.9-48.5H459l-37.7,46.7l40.3,56L436.3,258.3z
	"/>
<path class="st0" d="M605.2,175.5h-29.3v-19.9h79.5v19.9h-29.3v82.9h-20.8V175.5z"/>
<rect x="483.2" y="239.2" class="st0" width="69.6" height="19.1"/>
<polygon class="st0" points="503.9,196.8 483.2,196.8 483.2,216 549.2,216 549.2,196.9 503.9,196.9 "/>
<polygon class="st0" points="503.9,174.8 552.8,174.8 552.8,155.6 483.2,155.6 483.2,174.8 "/>
<polygon class="st0" points="175.2,217.7 175.1,217.7 187.4,183.5 199.3,217.7 199.3,217.7 213.5,258.3 234.5,258.3 195.9,155.6 
	179,155.6 139.8,258.3 160.7,258.3 "/>
</svg>
