<svg version="1.1" id="Layer_1" xmlns="http://www.w3.org/2000/svg" x="0" y="0" viewBox="0 0 200 200" xml:space="preserve"><style>.st0{fill:#a8272f}</style><path class="st0" d="M146.1 84.5c1.1-1 1.7-2.3 1.7-3.9 0-3.3-2.1-5-6.3-5h-4.3V86h3.3c2.6 0 4.5-.5 5.6-1.5m3.8 14.2c.6-.9.9-1.8.9-2.9 0-1.1-.3-2-.9-2.9-.6-.9-1.5-1.5-2.6-2-1.1-.4-2.9-.6-5.4-.6h-4.6v10.9h4.9c2.7 0 4.5-.2 5.5-.6.8-.3 1.6-1 2.2-1.9"/><path class="st0" d="M172.6 54.4c-12-29.2-41.1-49.2-74.6-49-44.1.3-79.7 36.3-79.4 80.4.3 44.1 36.2 79.6 80.4 79.4 7.6 0 14.9-1.2 21.9-3.2.1 0 .1-.1.2-.1 2.4-.7 4.7-1.5 6.9-2.4.4-.1 1.9-1.1 2.3-1.2 3.4-2.2 5-3 8.8-3 8.2-.1 14.8 6.5 14.9 14.7 0 2.1 0 3.7-.7 5.9-1.5 5-3.1 10.4-3.5 14.6v.1c0 .2-.1.5-.1.7v.1c.1 1.8 1.5 3.2 3.3 3.2 1.3 0 2.3-.7 2.9-1.7 45-75.7 16.7-138.5 16.7-138.5m-40.3 16.8h9c2.9 0 5.1.4 6.7 1.1 1.6.8 2.8 1.8 3.7 3.2.8 1.3 1.3 2.9 1.3 4.7 0 3.4-1.8 5.8-5.3 7.3 2.5.5 4.5 1.5 6 3.1s2.2 3.5 2.2 5.7c0 1.8-.5 3.3-1.4 4.7-.9 1.4-2.2 2.5-4 3.4-1.8.9-3.9 1.3-6.6 1.3h-11.7V71.2zM43 75.9c3.6-3.4 8-5.1 13.2-5.1 3.6 0 7.7.9 12.1 2.8v5.3c-4-2.3-8-3.5-11.8-3.5-4 0-7.2 1.2-9.9 3.7-2.6 2.5-3.9 5.6-3.9 9.4 0 3.8 1.3 6.9 3.8 9.3 2.6 2.4 5.9 3.6 9.8 3.6 4.2 0 8.3-1.3 12.2-3.8v5.4c-3.6 2-7.8 3-12.5 3-3.9 0-7.1-.8-9.8-2.3-2.7-1.5-4.8-3.7-6.4-6.4-1.6-2.7-2.3-5.7-2.3-8.8.1-4.9 1.9-9.2 5.5-12.6m30.7-4.7h4.9v30h15.5v4.5H73.7V71.2zm23.6 25.7c-.4-1.3-.6-3.3-.6-6.1V71.2h5v19.6c0 3.2.4 5.5 1.1 6.8.7 1.3 1.9 2.3 3.4 3 1.5.8 3.3 1.2 5.4 1.2 2.9 0 5.3-.8 7.2-2.3 1-.8 1.7-1.8 2.1-2.9.4-1.1.6-3 .6-5.7V71.2h5v19.6c0 2.7-.2 4.7-.6 6-.4 1.3-.9 2.5-1.4 3.4-.6.9-1.3 1.7-2.1 2.4-2.7 2.4-6.3 3.5-10.7 3.5-4.5 0-8.1-1.2-10.8-3.5-.8-.7-1.5-1.5-2.1-2.4-.6-.9-1.1-2-1.5-3.3"/></svg>