<svg version="1.1" id="Layer_1" xmlns="http://www.w3.org/2000/svg" x="0" y="0" viewBox="0 0 548.1 70.5" xml:space="preserve"><style>.st0{fill:#fff}</style><path class="st0" d="M0 0v70.5h73.8V0H0zm36.3 57.7H9V12.8h7.1v38.6h20.2v6.3zm28.5-38.6H51.4v38.6h-7.1V19.1H31.1v-6.3h33.7v6.3zm135.6-6.7h-19.1v-9h48.2v9h-19.1v55.2h-10V12.4m127.7 55.2h-12l-11-15.6c-1.5.2-3.1.3-4.6.3h-6.3v15.3h-10.1V3.4h16.4c17.6 0 27.4 9.7 27.4 24.5 0 9.9-4.4 17.6-12.8 21.4l13 18.3m-27.9-24c12.3 0 17.3-5.8 17.3-15.7s-5.1-15.6-17.3-15.6h-6v31.2h6zm31.9-8.1c0-19 14.4-32.9 32.7-32.9 11.9 0 20.1 4.6 25.7 12.4l-7.7 5.5c-4.3-5.8-9.7-8.8-18.2-8.8-12.7 0-22 10.2-22 23.8 0 13.9 9.5 23.8 22.4 23.8 8.3 0 14.4-3.1 19.3-9.4l7.8 5.4c-6.6 8.8-15 13.1-27.5 13.1-18.4 0-32.5-14-32.5-32.9m157.1 32.1h-12l-11-15.6c-1.5.2-3.1.3-4.6.3h-6.3v15.3h-10.1V3.4h16.4c17.6 0 27.4 9.7 27.4 24.5 0 9.9-4.4 17.6-12.8 21.4l13 18.3m-28-24c12.4 0 17.4-5.8 17.4-15.7s-5.1-15.6-17.4-15.6h-5.9v31.2h5.9zm40.2 24h-10.2l28.1-65.5h.6l28.2 65.5h-10.7l-3.7-9H505l-3.6 9m18.2-43.3l-10.7 25.4h21.2l-10.5-25.4zm-80.4 34.3h-31.7V47.8h27.3V39h-27.3V12.4h31.7v-9h-41.8v64.2h41.8v-9M245.9 47.8h27.3V39h-27.3V12.4h32v-9h-42.1v64.2H278v-9h-32.1V47.8M93 3.5h10.1v55.1H132v9H93V3.5"/><path class="st0" d="M135.1 67.6h-10.2L153 2.1h.6l28.2 65.5h-10.7l-3.7-9h-28.7l-3.6 9m18-43.3l-10.6 25.4h21.1l-10.5-25.4z"/></svg>