<svg version="1.1" id="Layer_1" xmlns="http://www.w3.org/2000/svg" x="0" y="0" viewBox="0 0 991.6 116.9" xml:space="preserve"><style>.st0{fill:#1d1d1b}.st1{fill:#b2292e}</style><path class="st0" d="M969 114.3c4.4-1.4 8.5-3.5 12.2-6.4 3.2-2.6 5.8-5.8 7.7-9.5 1.8-3.7 2.7-7.7 2.7-11.8v-.3c.1-3.6-.6-7.1-1.9-10.4-1.4-3.3-3.7-6.1-6.5-8.2-3.7-2.8-7.8-4.9-12.1-6.4-6-2.2-12.2-3.9-18.5-5.1-5.9-1.1-11.7-2.6-17.4-4.6-4-1.3-7.8-3.2-11.2-5.7-2.6-1.8-4.7-4.3-6.1-7.2-1.2-2.9-1.8-6-1.8-9.2v-.3c0-3.3.8-6.6 2.3-9.6 1.6-3.2 3.9-5.9 6.7-8.2 3.1-2.5 6.6-4.4 10.4-5.7 4.3-1.4 8.9-2.1 13.5-2.1 6.7-.1 13.4 1.1 19.7 3.5 6 2.2 11.7 5.3 16.8 9.1l2.2-2.9c-5.3-4-11.2-7.2-17.5-9.4-6.7-2.3-13.8-3.5-20.9-3.5-5-.1-10 .7-14.8 2.3-4.2 1.4-8.1 3.5-11.6 6.2-3.2 2.5-5.8 5.6-7.7 9.2-1.8 3.5-2.8 7.3-2.8 11.2v.3c-.1 3.6.6 7.2 2.1 10.6 1.5 3.2 3.8 6 6.7 8.2 3.7 2.7 7.7 4.8 12 6.2 5.8 2 11.8 3.6 17.8 4.8 6 1.2 12 2.8 17.8 4.8 4.1 1.3 7.9 3.2 11.4 5.7 2.6 1.9 4.7 4.4 6 7.3 1.2 2.9 1.8 6.1 1.8 9.3v.3c0 3.7-.8 7.3-2.4 10.6-1.6 3.3-4 6.2-6.9 8.5-3.3 2.5-7 4.4-11 5.6-4.7 1.4-9.5 2.1-14.4 2-7.9.1-15.8-1.4-23.2-4.5-7.2-3.1-13.8-7.5-19.4-12.9l-2.6 2.6c5.9 5.7 12.8 10.2 20.4 13.4 7.7 3.2 16 4.8 24.3 4.7 5.6-.1 11-.9 16.2-2.5M828.9 59.8h72v-3.2h-72m8.8-51.4h70.1V2h-78.9v3.2h8.8zm71 109.8v-3.2h-79.8v3.2h79.8zm-91.3-68.3c1.9-4 2.8-8.3 2.8-12.8v-.3c0-8.6-2.7-15.6-8.1-21C805 5.5 794.2 2 779.6 2h-46.2v113h3.5V5.2h42.3c11.7 0 20.9 2.5 27.5 7.5 6.6 5 9.8 12 9.8 21.1v.3c0 3.8-.8 7.6-2.3 11.1-1.6 3.5-4.1 6.6-7.2 9-3.6 2.8-7.7 4.8-12.1 6-5.2 1.5-10.6 2.2-16 2.2v3.2l37.5 49.4h4.4l-37.6-49.4c5.1-.2 10.2-1.2 15-2.8 4.2-1.4 8.2-3.6 11.6-6.4 3.2-2.7 5.8-6 7.6-9.7M670 0c-15.5-.3-30.4 6.1-40.9 17.6-4.9 5.4-8.8 11.7-11.3 18.6-2.6 7.1-4 14.6-4 22.1v.3c0 7.5 1.3 15 4 22.1 2.5 6.9 6.4 13.2 11.3 18.6 10.5 11.5 25.4 17.9 40.9 17.6 8 .1 15.9-1.5 23.2-4.8 6.7-3 12.8-7.4 17.8-12.8 4.9-5.4 8.8-11.7 11.3-18.5 2.2-5.9 3.5-12.2 3.9-18.5h-3.5c-.3 6-1.5 11.9-3.6 17.5-4.8 13.1-14.6 23.7-27.3 29.5-13.7 6.1-29.3 6-43-.1-6.3-2.9-12-7.1-16.7-12.2-4.7-5.1-8.3-11.1-10.7-17.6-2.5-6.7-3.8-13.7-3.8-20.8v-.3c0-7.1 1.2-14.2 3.7-20.8 2.4-6.5 6-12.4 10.7-17.5 4.7-5 10.3-9.1 16.5-12 6.8-3.1 14.1-4.6 21.6-4.5h.2M503.5 116.9c15.5.3 30.5-6.1 40.9-17.6 4.9-5.4 8.8-11.7 11.3-18.6 2.7-7.1 4-14.6 4-22.1v-.3c0-7.6-1.3-15.1-4-22.1-2.5-6.9-6.4-13.2-11.3-18.6C533.9 6.1 519-.3 503.5 0c-8-.1-15.9 1.5-23.2 4.8-6.7 3-12.8 7.4-17.8 12.8-4.9 5.4-8.7 11.7-11.3 18.6a61.6 61.6 0 00-3.8 18.5h3.5c.3-6 1.5-11.9 3.6-17.5 2.4-6.4 6-12.4 10.6-17.4 4.7-5 10.4-9.1 16.6-12 13.7-6.1 29.3-6 43 .1 6.3 2.9 12 7.1 16.7 12.2 4.7 5.1 8.3 11.1 10.7 17.6 2.5 6.6 3.8 13.7 3.8 20.8v.3c0 7.1-1.2 14.2-3.7 20.8-4.8 13.1-14.5 23.7-27.2 29.5-6.8 3.1-14.1 4.6-21.5 4.5h-.2"/><path class="st0" d="M585 115h3.5V5.2h40.8V2h-85.2v3.2H585M334.1 115h3.5V34.4h-3.5V115zm105.1 0V2H436l-49.2 70-38.1-54.2-1.6 3.4 39.6 56.4h.2l48.9-69.8V115h3.4z"/><path class="st0" d="M337.4 28.6l13.3-27.4h-142l-28.5 64.6-30.3-64.6h-32.1V115H150l-.1-57.4 22.2 57.4h15.6l22.2-57.4.2 57.4H242V28.6h30.8v-.1h.1V115h34.9V28.6"/><path class="st1" d="M0 1.2h98.1v94.2H0z"/><path d="M11.7 18.5h9.5v51.6h27v8.4H11.7zM59 26.8H41.2v-8.3h45.1v8.3H68.5v51.7H59z" fill="#fff"/><path class="st1" d="M23.1 103H19v-1.9h10.4v1.9h-4.1v11.9h-2.2zm27.6 11.9h-2.6l-2.4-3.4c-.3.1-.7.1-1 .1h-1.4v3.3h-2.2v-13.8h3.5c3.8 0 5.9 2.1 5.9 5.3.1 2-1 3.8-2.8 4.6l3 3.9zm-6-5.1c2.7 0 3.7-1.2 3.7-3.4s-1.1-3.4-3.7-3.4h-1.3v6.7l1.3.1zm6.8-1.8c-.1-3.8 3-7 6.8-7.1h.3c2.2-.1 4.3.9 5.5 2.7l-1.7 1.2c-.9-1.3-2.4-2-3.9-1.9-2.8.2-4.9 2.7-4.7 5.5.2 2.5 2.2 4.5 4.8 4.7 1.6.1 3.2-.7 4.2-2l1.7 1.2c-1.4 1.9-3.6 3-5.9 2.8-3.8.1-6.9-3-7-6.8-.1-.1-.1-.2-.1-.3m33.9 6.9h-2.6l-2.4-3.4c-.3 0-.7.1-1 .1H78v3.3h-2.2v-13.8h3.5c3.8 0 5.9 2.1 5.9 5.3.1 2-1 3.8-2.8 4.6l3 3.9zm-6-5.1c2.7 0 3.7-1.2 3.7-3.4S82 103 79.4 103h-1.3v6.7h1.3zm8.6 5.1h-2.2l6.1-14.1h.1l6.1 14.1h-2.3L95 113h-6.2l-.8 1.9zm3.9-9.3l-2.3 5.5h4.6l-2.3-5.5zM74.6 113h-6.8v-2.3h5.9v-1.9h-5.9V103h6.8v-1.9h-9v13.8h9zM33 110.7h5.8v-1.9H33V103h6.9v-1.9h-9.1v13.8h9.1V113H33zm-33-9.6h2.2V113h6.2v1.9H0z"/><path class="st1" d="M9 114.9H6.9l6.1-14.1 6.1 14.1h-2.3L16 113H9.8l-.8 1.9zm4-9.3l-2.3 5.5h4.5l-2.2-5.5z"/></svg>