<?xml version="1.0" encoding="utf-8"?>
<!-- Generator: Adobe Illustrator 23.0.1, SVG Export Plug-In . SVG Version: 6.00 Build 0)  -->
<svg version="1.1" id="Layer_1" xmlns="http://www.w3.org/2000/svg" xmlns:xlink="http://www.w3.org/1999/xlink" x="0px" y="0px"
	 viewBox="0 0 1442.2 235.4" style="enable-background:new 0 0 1442.2 235.4;" xml:space="preserve">
<style type="text/css">
	.st0{fill:#F92E22;}
	.st1{fill:#FFFFFF;}
</style>
<g>
	<path class="st0" d="M719.3,0.5c-64.9,0-117.7,52.7-117.7,117.5s52.8,117.5,117.7,117.5S837,182.7,837,118S784.2,0.5,719.3,0.5z
		 M815.5,118c0,52.9-43.2,96-96.2,96S623,170.9,623,118s43.2-96,96.2-96S815.5,65,815.5,118z"/>
	<polygon class="st1" points="210.5,234.4 367,234.4 367,212.2 232.6,212.2 232.6,128.3 367,128.3 367,106.1 232.6,106.1 
		232.6,22.1 367,22.1 367,0 210.5,0 	"/>
	<path class="st1" d="M480.7,128.3h29.7c15.1,0,29.8-5.4,41.3-15.1c14.5-12.2,22.8-30.1,22.8-49s-8.3-36.8-22.8-49
		C540.2,5.4,525.5,0,510.4,0H418v234.4h22.1V128.3h10l99.4,106.1l30.2,0L480.7,128.3z M552.4,64.1c0,23.2-18.8,42-42,42h-70.3v-84
		h70.3C533.6,22.1,552.4,41,552.4,64.1z"/>
	<polygon class="st1" points="2.9,0 2.9,22.1 123,22.1 0,234.4 159.5,234.4 159.5,212.2 39.4,212.2 162.4,0 	"/>
	<polygon class="st1" points="1158.2,0 1022.4,234.4 1049,234.4 1184.8,0 	"/>
	<rect x="1027.9" class="st1" width="142.5" height="22.1"/>
	<polygon class="st1" points="1339.4,0 1203.6,234.4 1230.3,234.4 1366.1,0 	"/>
	<rect x="1209.2" class="st1" width="142.5" height="22.1"/>
	<path class="st1" d="M948.8,139.6l-0.2,0.3c-0.1,0-0.1,0-0.2,0l-54.7,94.4h26.6l74.6-128.8C985.2,122.7,968.5,135.2,948.8,139.6z"
		/>
	<path class="st1" d="M1000.9,49.3C991.8,20.7,965.1,0,933.5,0c-39.1,0-70.8,31.7-70.8,70.8c0,39.1,31.7,70.8,70.8,70.8
		c5.1,0,10.1-0.6,14.9-1.6l0.2-0.3L1000.9,49.3z M885.9,70.8c0-26.2,21.3-47.5,47.5-47.5S981,44.5,981,70.8s-21.3,47.5-47.5,47.5
		S885.9,97,885.9,70.8z"/>
	<path class="st1" d="M948.8,139.6c-0.1,0-0.1,0-0.2,0l-0.2,0.3c0.1,0,0.1,0,0.2,0L948.8,139.6z"/>
	<path class="st1" d="M948.8,139.6c19.7-4.4,36.4-16.9,46.1-34l0.1-0.2c5.8-10.3,9.2-22.2,9.2-34.9c0-7.4-1.1-14.6-3.3-21.3
		l-0.1,0.1c0,0.1,0,0.1,0.1,0.2L948.8,139.6z"/>
	<path class="st1" d="M990.2,105.4l-0.1,0.2C990.1,105.5,990.2,105.4,990.2,105.4z"/>
	<path class="st1" d="M948.8,139.6l52.2-90.1c0-0.1,0-0.1-0.1-0.2l-52.3,90.3C948.6,139.6,948.7,139.6,948.8,139.6z"/>
	<circle class="st1" cx="933.5" cy="70.8" r="47.5"/>
	<g>
		<rect x="1317.9" y="168.7" class="st1" width="13.4" height="65.7"/>
		
			<rect x="1335.4" y="151.2" transform="matrix(-1.836970e-16 1 -1 -1.836970e-16 1517.2219 -1166.7584)" class="st1" width="13.1" height="48.2"/>
		
			<rect x="1331.5" y="181.4" transform="matrix(-1.836970e-16 1 -1 -1.836970e-16 1539.6119 -1136.5568)" class="st1" width="13.1" height="40.3"/>
	</g>
	<polygon class="st1" points="1382.5,234.4 1394.4,234.4 1394.4,201.5 1382.5,188.4 	"/>
	<polygon class="st1" points="1430.3,234.4 1442.2,234.4 1442.2,188.4 1430.3,201.5 	"/>
	<polygon class="st1" points="1430.3,181.8 1412.4,201.5 1394.4,181.8 1394.4,201.5 1412.4,221.2 1430.3,201.5 1430.3,189.7 	"/>
	<polygon class="st1" points="1382.5,168.7 1382.5,188.4 1394.4,201.5 1394.4,181.8 	"/>
	<polygon class="st1" points="1430.3,201.5 1442.2,188.4 1442.2,181.8 1430.3,189.7 	"/>
	<polygon class="st1" points="1430.3,181.8 1430.3,189.7 1442.2,181.8 1442.2,168.7 	"/>
	<circle class="st1" cx="1134.9" cy="220.7" r="13.6"/>
</g>
</svg>
