<svg id="Layer_1" data-name="Layer 1" xmlns="http://www.w3.org/2000/svg" viewBox="0 0 248.78 233.18"><defs><style>.cls-1{fill:#af252c;}</style></defs><title>Logo_Icarito_corto_02_RGB</title><path class="cls-1" d="M76.27,76v83.1c0,7.21-1.86,13.15-5.62,17.84-4,5.16-9.54,7.69-16.64,7.69a21.24,21.24,0,0,1-16.33-7.21c-3.83-3.94-5.61-10.07-5.65-18.32V76c0-9.34,1.82-16,5.65-20.23A20.85,20.85,0,0,1,54,48.62a21.12,21.12,0,0,1,16.45,7.06C74.3,59.94,76.27,66.72,76.27,76Z"/><path class="cls-1" d="M155.7,45.92c16.34,0,31.25,5.43,45,16.43,10.74,8.73,16.06,17.57,16.06,26.83,0,7.89-3.19,13.89-9.81,18.2a21.56,21.56,0,0,1-12.15,3.69,22.22,22.22,0,0,1-10.32-2.52c-1.33-.73-4.73-4-10.19-9.88a24.8,24.8,0,0,0-18.91-8.25A25.06,25.06,0,0,0,136.87,98a25.45,25.45,0,0,0-7.34,18.64,25.4,25.4,0,0,0,7.34,18.52,25.05,25.05,0,0,0,18.35,7.58c6.07,0,11.59-2.09,16.82-6.13,3.2-3,6.38-6.1,9.47-9.19,3.39-3,7.7-4.44,13-4.44a22.31,22.31,0,0,1,15.65,6.31,20.59,20.59,0,0,1,6.62,15.42c0,8.15-4.78,16.46-14.43,24.81-13.51,11.74-29,17.73-46.79,17.73a70.41,70.41,0,0,1-30.85-7,69.35,69.35,0,0,1-29.21-26,68.19,68.19,0,0,1-10.8-37.39c0-20.31,7.45-37.59,22.53-51.83Q127.15,46.24,155.7,45.92Z"/></svg>