<?xml version="1.0" encoding="utf-8"?>
<!-- Generator: Adobe Illustrator 23.0.1, SVG Export Plug-In . SVG Version: 6.00 Build 0)  -->
<svg version="1.1" id="Layer_1" xmlns="http://www.w3.org/2000/svg" xmlns:xlink="http://www.w3.org/1999/xlink" x="0px" y="0px"
	 viewBox="0 0 636.8 244.5" style="enable-background:new 0 0 636.8 244.5;" xml:space="preserve">
<style type="text/css">
	.st0{fill:#FFFFFF;}
</style>
<title>Logo_MercadoPaulaGourmet_white_RGB</title>
<path class="st0" d="M393,70.4c-1.5-5.8-3.6-14.2-5.1-20.9h-0.2c-1.5,6.7-3.6,15.2-5.1,20.8l-4.1,16.5h18.7L393,70.4z"/>
<path class="st0" d="M349.7,184.4c-4.7,0.2-7.5,4.8-7.5,11.1c0,6.5,2.4,12.8,7.6,12.8c5.9,0,8.6-3.7,8.5-11.7
	S354.8,184.2,349.7,184.4z"/>
<path class="st0" d="M90.3,168.3h-9.7v20h10.1c6.4,0,9.5-4,9.5-9.7C100.2,170.6,96.2,168.3,90.3,168.3z"/>
<path class="st0" d="M270.4,61.9c0-10-4.2-12.4-11.6-12.4h-8.5V76h6.7C267.2,76,270.4,72.4,270.4,61.9z"/>
<path class="st0" d="M525.4,185.1c-4.4,0-7,3.6-7.5,7.7h14.9C532.5,188.9,530.3,185.1,525.4,185.1z"/>
<path class="st0" d="M534.8,112.5c10.8,0,16.3-6.9,16.3-32.2c0-25-5.4-31.9-16.3-31.9c-10.5,0-16.4,6.9-16.4,31.9
	C518.4,105.7,524.3,112.5,534.8,112.5z"/>
<path class="st0" d="M129.9,198.9c-3.5,0.7-6.4,1.8-6.4,5.6c0,3.1,2.7,5.1,6,5.1c4.3,0,9.9-2.3,9.9-7.5v-5.8
	c-1.4,0.7-2.9,1.2-4.4,1.5L129.9,198.9z"/>
<path class="st0" d="M636,121c-10-4.2-17.1-13.4-18.6-24.1V74.2c0-40.9-31.3-74.2-69.8-74.2H89.2C50.7,0,19.3,33.3,19.3,74.2v22.7
	c-1.5,10.8-8.5,20-18.5,24.2c-0.5,0.2-0.8,0.7-0.8,1.2c0,0.5,0.3,1,0.8,1.2c10,4.2,17.1,13.4,18.6,24.2v22.7
	c0,40.9,31.3,74.2,69.9,74.2h458.4c38.5,0,69.8-33.3,69.8-74.2v-22.7c1.5-10.8,8.5-20,18.6-24.2c0.5-0.2,0.8-0.7,0.8-1.2
	C636.8,121.7,636.5,121.3,636,121z M534.8,35.9c16.4,0,32.3,9.6,32.3,44.4c0,32.8-13,44.8-32.3,44.8s-32.3-11.9-32.3-44.8
	C502.5,45.5,518.4,35.9,534.8,35.9z M432.5,37.2h25.5c21.6,0,33.7,16.4,33.7,43.2s-12.1,43.3-33.7,43.3h-25.5V37.2z M378.4,37.2
	h19.9l24.4,86.5h-15.9l-6.4-24.5h-25.1l-6.3,24.5h-15.3L378.4,37.2z M331.6,36.2c5.8,0.1,11.6,1.1,17.1,2.9v10.4h-14.5
	c-13.6,0-19.4,9.3-19.4,30.9s6.1,30.9,19.4,30.9h14.5v10.4c-5.5,1.9-11.3,2.8-17.1,2.9c-20,0-32.6-13.5-32.6-44.3
	C299,49.9,311.6,36.2,331.6,36.2L331.6,36.2z M235.2,37.2h24.4c18.2,0,26.6,8.7,26.6,23.9c0,12.5-6.6,20-16.2,21.8v0.2
	c6,3.4,9.5,8.1,12.6,16.7l8.6,23.8h-16.4l-8-24.7c-2.4-7.6-5.6-11-11.3-11h-5.2v35.6h-15.1L235.2,37.2z M175.6,37.2h45.1v12.3h-29.9
	v23.5h26.8v12.5h-26.8v25.9h29.9v12.4h-45.1L175.6,37.2z M79.1,37.2h21l12,48.8c2,8.3,3.6,16.8,4.8,25.3h0.2
	c1.1-7.1,2.8-16.4,5-25.3l11.7-48.8h20.7l6.7,86.5h-14.7l-3.8-73.5h-0.2c-1.1,7.8-3.5,19.7-5.5,27.8l-11.4,45.7h-18L96.5,78
	c-1.9-8.1-4.3-20-5.4-27.8h-0.2l-4.3,73.5H72.2L79.1,37.2z M72.2,141.6h494.9c0.7,0,1.3,0.6,1.3,1.3c0,0.7-0.6,1.3-1.3,1.3H72.2
	c-0.7,0-1.3-0.6-1.3-1.3C70.9,142.2,71.5,141.6,72.2,141.6z M92.6,197.3h-12v19.4H70.4v-57.5h21.5c12.7,0,18.9,8.2,18.9,19.4
	C110.9,190,103.3,197.4,92.6,197.3L92.6,197.3z M140.3,216.7c-0.6-1.1-0.9-2.4-0.9-3.7c-3.5,3.1-7.9,4.7-12.5,4.7
	c-7.3,0-13.1-4.9-13.1-12.8s6-11.5,11.7-12.8l3.9-0.8c3.4-0.6,6.7-1.4,10.1-2.4v-1.2c0-4-3.3-5.2-7.3-5.2c-5.4,0-7.2,1.7-7.2,6.1
	l-9.3-0.4c0-9.6,8-13.3,16.4-13.3c8.3,0,16.6,1.8,16.6,13.4v21.6c0,4.2,0.9,6,1.4,6.9H140.3z M191.9,216.7h-9.3v-4h-0.1
	c-2.1,2.8-5.8,5-11,5c-6.6,0-14.1-2.9-14.1-14.8v-27.1h9.3V200c0,5.7,2.1,8.1,6.9,8.1c7,0,9.1-5.4,9.1-10.3v-22h9.3L191.9,216.7z
	 M210.3,216.7h-9.3v-57.5h9.3V216.7z M243.3,216.7c-0.6-1.1-0.9-2.4-0.9-3.7c-3.5,3.1-7.9,4.7-12.5,4.7c-7.3,0-13.1-4.9-13.1-12.8
	s6-11.5,11.7-12.8l3.9-0.8c3.4-0.6,6.7-1.4,10-2.4v-1.2c0-4-3.3-5.2-7.3-5.2c-5.4,0-7.2,1.7-7.2,6.1l-9.3-0.4
	c0-9.6,8-13.3,16.4-13.3c8.3,0,16.6,1.8,16.6,13.4v21.6c0,4.2,0.9,6,1.5,6.9H243.3z M271.4,216.7h-10.2v-11.1h10.2L271.4,216.7z
	 M319,216l-1.5-7.8c0,0-1.6,8.7-13.6,8.7c-14.5,0-23.4-9.7-23.2-28.2c0.2-16.8,9.7-25.9,23.6-25.9c16.7,0,20.6,13.5,20.6,13.5
	l-9.3,2.9c0,0-1.2-7.2-11.5-7.2c-11.9,0-13.1,11.9-13.1,17.6c0,4.6,1.1,9.8,3.2,12.8c4.7,6.5,14.9,6.5,19.3,2.4c3.2-3,3-9.1,3-9.1
	h-10.8l-0.1-9.4l20.7,0l0,1.8v28L319,216z M350.4,216.9c-9.5,0.2-18.4-6.2-18.7-19.7c-0.4-14.7,10.6-20.4,18.1-20.4
	c12.4,0,19.4,9,19.4,20C369.2,205.4,365.9,216.6,350.4,216.9L350.4,216.9z M408.3,216.1h-10v-5.4c0,0-2.6,6.1-11,6.1
	c-6.1,0-11.3-2.8-12.9-10.2c-0.6-3.9-0.8-7.9-0.7-11.9V178h10.5l0.1,20.8c0,8.3,2.7,10.8,6.9,10.2c3.1-0.3,5.6-2.5,6.4-5.5
	c0.6-1.9,0.5-3.8,0.5-9V178h10.3L408.3,216.1z M437.8,187.3c-3.6-2.5-8.5-1.5-11,2c-0.4,0.7-0.8,1.4-1,2.1c-0.6,1.9-0.5,2.9-0.5,8
	v16.5H415v-38.1h10v5.6c0,0,2.6-6,10.9-6c4,0,5.7,1.1,5.7,1.1L437.8,187.3z M492.4,215.9l-0.2-20.8c0-8.3-2.1-11.2-6.5-10.5
	c-3.1,0.7-5.4,3.2-6.1,6.3c-0.3,1.7-0.2,3.4-0.2,8.6v16.6l-9.8-0.1l-0.1-20.8c0-8.2-2.7-10.7-6.5-10.2c-3.1,0.3-5.6,2.5-6.4,5.5
	c-0.6,1.9-0.5,3.8-0.5,9v16.6h-10.3v-38h10v5.4c0,0,2.6-6.1,11-6.1c4.8,0,9,1.7,11.4,6.1h0c0,0,2.6-6.1,11-6.1
	c6.2,0,11.3,2.8,12.9,10.2c0.6,3.9,0.8,7.9,0.7,11.9V216L492.4,215.9z M543,200.4l-9.5-0.1h-15.6c0.3,4.6,3.7,8,7.5,8
	c3.3,0.2,6.3-1.5,7.9-4.4l8.7,4.2c0,0-3.7,8.8-16.2,8.7c-7.7-0.1-12.9-3.4-16.1-9.2c-2.9-5.1-3.5-16,0.4-22.1
	c3.2-5.4,9-8.6,15.3-8.4c7.2,0,11.6,2.6,14.8,8.3C543.2,191,542.9,200.4,543,200.4L543,200.4z M550.7,203.4c0-0.1,0-0.2,0-0.3V190
	l0.2-3.9l-5.5,0.2v-8.8l5.5,0.1l-0.1-5.5v-6.5l10.1-2.1v8.7l-0.2,5.5l4.3-0.1h4v8.8h-4.4l-3.9-0.2l0.2,4.9v7.1
	c-0.1,1.9,0,3.8,0.1,5.8c0.6,4.6,7.3,2.5,7.3,2.5l1.5,9.6C552.6,219.3,550.7,209.9,550.7,203.4L550.7,203.4z"/>
<path class="st0" d="M232.8,198.9c-3.5,0.7-6.4,1.8-6.4,5.6c0,3.1,2.7,5.1,6,5.1c4.3,0,9.9-2.3,9.9-7.5v-5.8
	c-1.4,0.7-2.9,1.2-4.4,1.5L232.8,198.9z"/>
<path class="st0" d="M475.7,80.4c0-27.3-9.6-30.9-18.1-30.9h-10v61.8h10C466,111.3,475.7,107.7,475.7,80.4z"/>
</svg>
