<?xml version="1.0" encoding="utf-8"?>
<!-- Generator: Adobe Illustrator 23.0.1, SVG Export Plug-In . SVG Version: 6.00 Build 0)  -->
<svg version="1.1" id="Layer_1" xmlns="http://www.w3.org/2000/svg" xmlns:xlink="http://www.w3.org/1999/xlink" x="0px" y="0px"
	 viewBox="0 0 236.5 244.5" style="enable-background:new 0 0 236.5 244.5;" xml:space="preserve">
<style type="text/css">
	.st0{fill:#1D1D1B;}
	.st1{fill:#FFFFFF;}
</style>
<title>Logo_MercadoPaulaGourmet_corto_RGB</title>
<path class="st0" d="M147.3,244.5H89.2c-38.5,0-69.8-33.3-69.8-74.2v-22.7c-1.5-10.8-8.6-19.9-18.6-24.2c-0.5-0.2-0.8-0.7-0.8-1.2
	c0-0.5,0.3-1,0.8-1.2c10-4.2,17.1-13.4,18.6-24.1V74.2C19.4,33.3,50.7,0,89.2,0h58.1c38.5,0,69.8,33.3,69.8,74.2v22.7
	c1.5,10.8,8.5,20,18.6,24.2c0.5,0.2,0.8,0.7,0.8,1.2c0,0.5-0.3,1-0.8,1.2c-10,4.2-17.1,13.4-18.6,24.2v22.7
	C217.1,211.3,185.8,244.5,147.3,244.5"/>
<path class="st1" d="M146.5,119l-3.8-73.5h-0.2c-1.1,7.8-3.5,19.7-5.5,27.8L125.5,119h-18l-11-45.7c-1.9-8.1-4.3-20-5.4-27.8h-0.2
	L86.6,119H72.2L79,32.5h21l12,48.8c2,8.3,3.6,16.8,4.8,25.3h0.2c1.1-7.1,2.8-16.4,5-25.3l11.7-48.8h20.7l6.8,86.5"/>
<path class="st1" d="M161.7,139.6H72.2c-0.7,0-1.3-0.6-1.3-1.3c0-0.7,0.6-1.3,1.3-1.3h89.5c0.7,0,1.3,0.6,1.3,1.3
	C163,139,162.4,139.6,161.7,139.6"/>
<path class="st1" d="M80.6,163.6h9.7c5.9,0,9.9,2.3,9.9,10.3c0,5.7-3.1,9.7-9.5,9.7H80.6V163.6z M70.4,212h10.2v-19.4h12
	c10.7,0,18.3-7.4,18.3-18.7c0-11.1-6.2-19.4-18.9-19.4H70.4V212z"/>
<path class="st1" d="M162.3,211.2h-7.4l-1.5-7.8c0,0-1.6,8.6-13.6,8.6c-14.5,0-23.4-9.6-23.1-28.2c0.2-16.8,9.7-25.8,23.5-25.8
	c16.7,0,20.6,13.5,20.6,13.5l-9.3,2.9c0,0-1.2-7.2-11.4-7.2c-11.9,0-13.1,11.9-13.1,17.5c0,4.6,1.1,9.8,3.2,12.7
	c4.7,6.5,14.9,6.5,19.2,2.4c3.2-3,3-9.1,3-9.1h-10.7l-0.1-9.3l20.7,0.1v1.8L162.3,211.2z"/>
</svg>
