<?xml version="1.0" encoding="utf-8"?>
<!-- Generator: Adobe Illustrator 23.0.1, SVG Export Plug-In . SVG Version: 6.00 Build 0)  -->
<svg version="1.1" id="Layer_1" xmlns="http://www.w3.org/2000/svg" xmlns:xlink="http://www.w3.org/1999/xlink" x="0px" y="0px"
	 viewBox="0 0 816 258.3" style="enable-background:new 0 0 816 258.3;" xml:space="preserve">
<style type="text/css">
	.st0{fill:#1D1D1B;}
	.st1{fill:#FCC31E;}
	.st2{fill:#E84B4B;}
	.st3{fill:#68C1BE;}
	.st4{fill:#B2292E;}
	.st5{fill:#FFFFFF;}
</style>
<title>Logo_MasDecoMarket_color_RGB</title>
<polygon class="st0" points="367.2,19.9 356.4,0 325.7,19.9 334.7,34.3 "/>
<path class="st0" d="M652,86.8c0,28.9,18.1,47,48.8,47c9.9-0.1,19.8-1.7,29.3-4.7l-4.9-26c-9,2.7-13.5,3.6-19.9,3.6
	c-9.9,0-15.4-7.2-15.4-19.9s5.4-19.9,15.4-19.9c6.3,0,10.8,0.9,19.9,3.6l4.9-26c-9.5-3-19.3-4.6-29.3-4.7
	C670.1,39.8,652,57.9,652,86.8"/>
<path class="st0" d="M653.8,94c1.1-5.7,1.7-11.4,1.8-17.2c0-22.6-15.9-37.1-42.5-37.1c-30.7,0-49.7,19.9-49.7,47s16.3,47,52.4,47
	c6.3,0,20.8-0.9,34.3-6.3l-3.6-25.5c-7.5,3.1-15.4,4.6-23.5,4.7c-15.4,0-20.4-6.3-21.7-12.6H653.8z M612.2,63.3c6.7,0,9,3.8,9,8.1
	c0,1.2-0.2,2.4-0.5,3.6h-19.3C601.3,68.7,605.3,63.3,612.2,63.3"/>
<path class="st0" d="M507.5,132c41.6,0,59.7-26,59.7-61.5S549.1,9,507.5,9h-48.8V132L507.5,132z M496.6,99.5V41.6h10.8
	c12.7,0,19.9,7.2,19.9,28.9s-7.2,29-19.9,29H496.6z"/>
<path class="st0" d="M459.5,102.1c0-28.6-38-28-38-35.3c0-2.3,2.5-2.7,4-2.7c7.8,0,20.4,3.8,26.8,6.3l4.9-26
	c-11.6-3.1-23.6-4.7-35.6-4.7c-24.4,0-41.6,9.9-41.6,30.4c0,30.9,37.1,28.9,37.1,36.3c0,2.4-2.7,2.9-5.4,2.9
	c-7.4,0-16.3-2.7-27.8-6.5l-5.6,26.4c10.1,2.7,25.3,4.5,38.9,4.5C442.4,133.8,459.5,123.3,459.5,102.1"/>
<path class="st0" d="M334,64.2c6,0,9.6,3.1,9.6,7.6V75c-28,1.8-48.8,13.6-48.8,35.2c0,14.5,9.6,23.5,24.4,23.5
	c8.3,0,17.5-2.7,24-10.8h0.4l3.6,9h32.5V70.5c0-19-15.7-30.7-39.8-30.7c-11.9,0-22.2,1.1-40.7,7.2l7.2,24.4
	C315.9,66.9,326.7,64.1,334,64.2 M343.6,104.8c-1.7,1.2-3.7,1.9-5.8,1.8c-2,0-6-0.9-6-5.4c0-4.7,4.5-8.1,11.8-9L343.6,104.8z"/>
<polygon class="st0" points="210.3,9 160,9 160,132 196.2,132 196.2,86.8 195.3,66 195.7,66 212.5,113.9 239.6,113.9 256.4,66 
	256.8,66 255.8,86.8 255.8,132 295.6,132 295.6,9 244.5,9 235.4,38 228.7,62.6 228.4,62.6 220.6,38 "/>
<path class="st0" d="M769.9,65.1c7.6,0,8.1,8.5,8.1,21.7s-0.5,21.7-8.1,21.7s-8.1-8.5-8.1-21.7S762.3,65.1,769.9,65.1 M769.9,133.8
	c33.4,0,46.1-21.7,46.1-47s-12.7-47-46.1-47c-33.6,0-46.1,21.7-46.1,47S736.3,133.8,769.9,133.8"/>
<path class="st0" d="M160,258.3V155.6h13.6l40.3,58.2l39.9-58.2h13.9v102.7h-20.6v-58.2l-29.9,43h-7.1l-29.9-43v58.2H160z"/>
<path class="st0" d="M479.9,258.3l-21.7-37.4H446v37.4h-20.6V155.6h39.3c11.4,0,20.2,3.2,26.1,9.4c6,6.2,9.2,14.5,9,23.1
	c0,13.3-7,25.2-20.8,30.2l24.9,40L479.9,258.3z M446,174.6v27.9h16.8c10.7,0,16-6.1,16-14s-5.3-13.8-14.2-13.8L446,174.6z"/>
<path class="st0" d="M596.4,258.3l-28.5-40.7l-12.7,15.1v25.6h-20.6V155.6h20.6v48.5l38.9-48.5H619l-37.7,46.7l40.3,56L596.4,258.3z
	"/>
<path class="st0" d="M765.2,175.5h-29.3v-19.9h79.5v19.9h-29.3v82.9h-20.9V175.5z"/>
<rect x="643.2" y="239.2" class="st1" width="69.6" height="19.1"/>
<polygon class="st2" points="663.9,196.8 643.2,196.8 643.2,216 709.2,216 709.2,196.9 663.9,196.9 "/>
<polygon class="st3" points="663.9,174.8 712.9,174.8 712.9,155.6 643.2,155.6 643.2,174.8 "/>
<polygon class="st0" points="335.2,217.7 335.2,217.7 347.4,183.5 359.4,217.7 359.3,217.7 373.5,258.3 394.5,258.3 355.9,155.6 
	339.1,155.6 299.9,258.3 320.7,258.3 "/>
<rect y="54" class="st4" width="129.5" height="124.3"/>
<polygon class="st5" points="15.5,76.8 28,76.8 28,144.9 63.6,144.9 63.6,156 15.5,156 "/>
<polygon class="st5" points="77.9,87.8 54.4,87.8 54.4,76.8 113.9,76.8 113.9,87.8 90.4,87.8 90.4,156 77.9,156 "/>
<polygon class="st4" points="30.5,188.4 25.1,188.4 25.1,185.9 38.8,185.9 38.8,188.4 33.4,188.4 33.4,204.1 30.5,204.1 "/>
<path class="st4" d="M66.9,204.1h-3.4l-3.1-4.4c-0.4,0.1-0.9,0.1-1.3,0.1h-1.8v4.3h-2.9v-18.2H59c5,0,7.8,2.8,7.8,7
	c0.2,2.6-1.3,5-3.6,6.1L66.9,204.1z M58.9,197.3c3.5,0,4.9-1.6,4.9-4.4s-1.4-4.4-4.9-4.4h-1.7v8.9L58.9,197.3z"/>
<path class="st4" d="M68,195c-0.1-5.1,3.9-9.2,9-9.4c0.1,0,0.2,0,0.4,0c2.9-0.2,5.6,1.2,7.3,3.5l-2.2,1.6c-1.2-1.7-3.1-2.6-5.2-2.5
	c-3.6,0-6.3,2.9-6.3,6.8s2.7,6.8,6.4,6.8c2.2,0.1,4.2-0.9,5.5-2.7l2.2,1.5c-1.8,2.5-4.7,3.9-7.8,3.7c-5,0.1-9.2-3.9-9.2-9
	C68,195.3,68,195.1,68,195"/>
<path class="st4" d="M112.7,204.1h-3.4l-3.1-4.4c-0.4,0.1-0.9,0.1-1.3,0.1h-1.8v4.3h-2.9v-18.2h4.7c5,0,7.8,2.8,7.8,7
	c0.2,2.6-1.3,5-3.7,6.1L112.7,204.1z M104.8,197.3c3.5,0,4.9-1.6,4.9-4.4s-1.5-4.4-4.9-4.4h-1.7v8.9H104.8z"/>
<path class="st4" d="M116.2,204.1h-2.9l8-18.6h0.2l8,18.6h-3l-1.1-2.5h-8.2L116.2,204.1z M121.3,191.8l-3,7.2h6L121.3,191.8z"/>
<polygon class="st4" points="98.5,201.6 89.5,201.6 89.5,198.5 97.2,198.5 97.2,196 89.5,196 89.5,188.4 98.5,188.4 98.5,185.9 
	86.6,185.9 86.6,204.1 98.5,204.1 "/>
<polygon class="st4" points="43.5,198.5 51.3,198.5 51.3,196 43.5,196 43.5,188.4 52.6,188.4 52.6,185.9 40.6,185.9 40.6,204.1 
	52.6,204.1 52.6,201.6 43.5,201.6 "/>
<polygon class="st4" points="0,185.9 2.9,185.9 2.9,201.6 11.1,201.6 11.1,204.1 0,204.1 "/>
<path class="st4" d="M11.9,204.1H9l8-18.6h0.2l8,18.6h-3l-1-2.5h-8.2L11.9,204.1z M17.1,191.8l-3,7.2h6L17.1,191.8z"/>
</svg>
