<?xml version="1.0" encoding="utf-8"?>
<!-- Generator: Adobe Illustrator 23.0.1, SVG Export Plug-In . SVG Version: 6.00 Build 0)  -->
<svg version="1.1" id="Layer_1" xmlns="http://www.w3.org/2000/svg" xmlns:xlink="http://www.w3.org/1999/xlink" x="0px" y="0px"
	 viewBox="0 0 843.8 114.6" style="enable-background:new 0 0 843.8 114.6;" xml:space="preserve">
<style type="text/css">
	.st0{fill:#1C1C1B;}
</style>
<title>Logo_Duna_black_RGB</title>
<path class="st0" d="M611.4,46.5c-3.6-2.8-5.7-7.1-5.6-11.7c-0.1-4.2,1.5-8.3,4.3-11.4c2.9-3.3,7.4-5,13.8-5s11.2,1.7,14.2,5
	c2.9,2.8,4.6,6.7,4.7,10.7c0,4.4-1.7,8.6-4.9,11.6c-3.3,3.2-7.8,4.8-13.7,4.8C619.7,50.7,615.1,49.3,611.4,46.5z M608.2,96.7
	c-3.5-3.9-5.4-9-5.3-14.2c0-6.3,2-11.3,6-14.9c3.8-3.6,9.1-5.4,15.4-5.4c6.5,0,11.8,1.7,15.9,5.4c4.2,3.5,6.3,8.6,6.3,15.3
	s-2,11.5-6.1,14.8s-9,4.9-15.1,4.9C617.5,102.6,611.9,100.7,608.2,96.7L608.2,96.7z M592.9,66c-3.1,4.8-4.7,10.5-4.5,16.2
	c0,10.7,3.6,18.6,10.7,24s15.7,8.3,25.9,8.3c11.3,0,20.1-3.2,26.3-9.6s9.2-14.3,9.2-23.6c0-7.7-2.4-14.1-6.9-18.9
	c-2.9-3-6.4-5.4-10.3-7c3.3-1.6,6.3-3.9,8.7-6.7c3.3-4.1,4.9-9.2,4.9-16c0.1-7.1-3-13.9-8.4-18.4c-5.8-5.4-13.7-8-23.7-8
	c-10.4,0-18.5,2.8-24.1,8.4c-5.6,5.2-8.7,12.5-8.5,20.1c0,6.3,1.8,11.4,5.6,15.2c2.5,2.4,5.4,4.2,8.6,5.5
	C600.9,57.7,596.3,61.3,592.9,66z"/>
<path class="st0" d="M682,58.7c-3.3-4-4.9-9.5-4.9-16.3c0-7.2,1.9-13.1,5.6-17.4c3.9-4.3,8.9-6.4,15.3-6.4c6.1,0,11,1.9,14.8,5.7
	s5.9,9.4,5.9,17.2c0,8.6-2.1,14.6-6.4,18.1c-4,3.4-9.2,5.2-14.4,5.1C690.6,64.6,685.4,62.8,682,58.7z M672.6,106.5
	c5.3,5.4,13.1,8.1,23.3,8.1c15.4,0,26.2-8.3,32.6-24.7c4-11,6-22.6,5.8-34.3c0-11.4-1.7-21-4.9-28.4C723.6,13.3,713,6.6,697.9,6.6
	c-11.5,0-20,3.6-25.8,10.8c-5.8,7.1-8.9,16-8.8,25.2c0,9.9,3,18,8.8,24.3s13.8,9.6,24,9.6c4.8,0,9.6-1,14-2.9
	c4.3-1.8,7.9-5,10.9-9.8c-1.8,16-5.1,26.8-9.5,32.1c-4.5,5-9.8,7.8-16.2,7.8c-3.1,0-6.2-0.8-9-2.3c-5.2-2.7-7.9-7.6-8.4-14.9h-13.3
	C664.6,94.4,667.2,101.2,672.6,106.5L672.6,106.5z"/>
<path class="st0" d="M745.4,111.6V95.6h15.1v16.1H745.4z"/>
<path class="st0" d="M770.7,8.5h73.1V20c-3.5,3.2-7.8,8.9-13.5,17.2c-5.8,8.2-10.8,16.9-15,26.1c-3.8,8.1-7,16.5-9.7,25.1
	c-1.3,4.9-3.2,12.5-5.3,23.4h-14.6c3.3-20,10.7-40,22-59.9c6.7-11.5,13.6-21.6,21.1-30h-58.1V8.5z"/>
<path class="st0" d="M48.9,0c27.2,0,42.4,2.6,54.2,9.8c14.9,9.2,23.4,25.3,23.4,44.3c0,23.3-12.8,42.4-34.3,51.2
	c-10.4,4.1-26.3,6.7-43.4,6.7H0V0H48.9z M19,101.4h30.9c16.4,0,30.1-3.1,38.7-9c11.4-8.1,17.6-21,17.6-37.7
	c0-18.1-7.6-31.9-21.2-38.7c-8.5-4.4-15.3-5.3-35.1-5.3H19V101.4z"/>
<path class="st0" d="M150.3,0v66.8c0,10.4,0.3,12.3,1.1,16.3c3.9,13.2,18.4,20.6,40.3,20.6c16.7,0,30.8-5.3,36.7-13.5
	c2.6-3.7,4.2-9.2,4.5-15.1V0h18.7v66.4c0,10.6-0.1,14.3-1.6,19.1c-5.5,18.8-25.7,28.8-58.4,28.8c-26.9,0-46.3-7.1-54.8-20
	c-3.1-4.7-5-11.5-5-18.4c-0.3-3.2-0.4-6.3-0.3-9.5V0H150.3z"/>
<path class="st0" d="M391,112.1h-18.2L281.2,21v91.1h-18.3V0h18.3l91.6,91.1V0H391V112.1z"/>
<path class="st0" d="M531.4,112.1h-20.2l-19.6-36.3h-63.7l-18.7,36.3H389L451.3,0h17.5L531.4,112.1z M459.4,16.5L434,64.8h51.6
	L459.4,16.5z"/>
<path class="st0" d="M497.9,23h-2V0.8h10.7v2.6h-8.7v6.9h7.7V13h-7.7V23z"/>
<path class="st0" d="M524.9,23V4.4l0,0L520.7,23h-2.3l-4.2-18.6h-0.1c0,2.1,0.1,4.9,0.1,5.5V23h-2V0.8h3l4.4,18.7h0.2l4.4-18.7h2.8
	V23L524.9,23z"/>
</svg>
