<?xml version="1.0" encoding="utf-8"?>
<!-- Generator: Adobe Illustrator 23.0.1, SVG Export Plug-In . SVG Version: 6.00 Build 0)  -->
<svg version="1.1" id="Layer_1" xmlns="http://www.w3.org/2000/svg" xmlns:xlink="http://www.w3.org/1999/xlink" x="0px" y="0px"
	 viewBox="0 0 556.6 118.3" style="enable-background:new 0 0 556.6 118.3;" xml:space="preserve">
<title>Logo_MtMag_black_sinLT_RGB</title>
<path d="M556.6,111.8c0-3.7-2.9-6.6-6.6-6.7c-3.7,0-6.6,2.9-6.7,6.6s2.9,6.6,6.6,6.7c0,0,0,0,0,0
	C553.7,118.4,556.6,115.4,556.6,111.8z M517.9,113.2c7-3.2,13.4-7.4,19.2-12.5V59h-45.2v3.6h41.7v36.8c-2.5,2.2-5.1,4.1-7.9,5.9
	c-3,1.9-6.2,3.6-9.5,5c-3.5,1.5-7.1,2.7-10.8,3.5c-3.9,0.9-8,1.3-12,1.3c-7.6,0.1-15.2-1.4-22.1-4.5c-6.3-2.8-11.9-7-16.4-12.2
	c-4.5-5.2-8-11.3-10.3-17.8c-2.4-6.8-3.6-14-3.6-21.2V59c0-7.1,1.3-14.1,3.7-20.7c2.4-6.5,5.9-12.6,10.5-17.8
	c4.6-5.2,10.1-9.5,16.3-12.5c6.7-3.2,14.1-4.9,21.6-4.7c8.1,0,15,1.3,20.7,3.8c6,2.7,11.5,6.2,16.5,10.4l2.3-2.8
	c-2.7-2.3-5.5-4.4-8.5-6.3c-2.9-1.8-5.9-3.3-9-4.6c-3.2-1.3-6.6-2.2-10-2.9c-3.9-0.7-7.8-1-11.8-1c-8-0.1-16,1.6-23.3,5
	c-6.7,3.2-12.7,7.6-17.6,13.2c-4.9,5.5-8.7,11.9-11.2,18.9c-2.6,7.1-3.9,14.6-3.9,22.1v0.3c0,7.7,1.2,15.3,3.7,22.6
	c2.3,6.9,6.1,13.3,10.9,18.7c4.9,5.4,10.9,9.8,17.5,12.8c7.4,3.3,15.5,4.9,23.6,4.7C501.7,118.5,510.2,116.7,517.9,113.2
	L517.9,113.2z M450,118.3L393,0h-3.2l-53.3,110.6V0.9h-3.4l-51.6,72.8l-39.7-56.1l-1.8,3.5l41.3,58.5h0.2l51.2-72.5v111.3h3.9
	L391.3,4.9L446,118.3H450z M230.1,28.6l14-28.6H95.3L65.5,67.2L33.6,0H0v118.3h33.7l-0.1-59.6l23.3,59.7h16.3l23.3-59.7l0.1,59.7
	h33.5V28.6h32.2v-0.1h0.1v89.9h36.6V28.6H230.1z M230.2,34.7h-3.7v83.6h3.7C230.2,118.3,230.2,34.7,230.2,34.7z"/>
</svg>
