<?xml version="1.0" encoding="utf-8"?>
<!-- Generator: Adobe Illustrator 23.0.1, SVG Export Plug-In . SVG Version: 6.00 Build 0)  -->
<svg version="1.1" id="Layer_1" xmlns="http://www.w3.org/2000/svg" xmlns:xlink="http://www.w3.org/1999/xlink" x="0px" y="0px"
	 viewBox="0 0 764 110.4" style="enable-background:new 0 0 764 110.4;" xml:space="preserve">
<style type="text/css">
	.st0{fill:#FFFFFF;}
</style>
<title>Logo_MtOnline_white_RGB</title>
<path class="st0" d="M418.5,55.3V55c0-7.1-1.2-14.2-3.7-20.9c-2.4-6.5-6-12.4-10.7-17.5c-4.7-5.1-10.4-9.3-16.8-12.1
	C380.4,1.4,373-0.1,365.4,0c-3.8,0-7.7,0.4-11.4,1.1l-2,3.7c4.3-1.2,8.8-1.7,13.3-1.7c7-0.1,14,1.4,20.3,4.3
	c6,2.8,11.3,6.7,15.8,11.5c4.4,4.8,7.9,10.5,10.1,16.6c2.4,6.3,3.6,13,3.6,19.7v0.3c0,6.7-1.2,13.4-3.5,19.8
	c-2.2,6.1-5.7,11.7-10.1,16.4c-4.4,4.8-9.8,8.7-15.7,11.4c-6.4,2.9-13.3,4.4-20.3,4.3c-7,0.1-14-1.4-20.3-4.4
	c-6-2.8-11.3-6.7-15.8-11.5c-4.4-4.8-7.9-10.5-10.2-16.6c-2.4-6.3-3.6-12.9-3.6-19.7v-0.3c0-6.7,1.2-13.4,3.5-19.7
	c0.1-0.4,0.3-0.7,0.5-1.1h-3.5c0,0,0,0.1,0,0.1c-2.5,6.7-3.8,13.8-3.7,20.9v0.3c0,7.1,1.2,14.2,3.7,20.9c2.4,6.5,6,12.4,10.7,17.5
	c4.7,5.1,10.3,9.2,16.7,12.1c14,6,29.8,6,43.8,0c6.4-2.9,12.1-7,16.8-12.1c4.6-5.1,8.3-11.1,10.7-17.5
	C417.3,69.6,418.5,62.5,418.5,55.3"/>
<polygon class="st0" points="424.1,110.4 427.4,110.4 427.4,9.2 508.4,110.4 511.3,110.4 511.3,19.8 507.9,19.8 507.9,104.9 
	427,3.7 424.1,3.7 "/>
<polygon class="st0" points="534.3,110.4 589.8,110.4 589.8,107.3 537.7,107.3 537.7,3.6 534.3,3.6 "/>
<polygon class="st0" points="586.4,98.3 589.8,98.3 589.8,9.2 670.7,110.4 673.6,110.4 673.6,3.7 670.3,3.7 670.3,104.9 589.3,3.7 
	586.4,3.7 "/>
<rect x="560.5" y="19.9" class="st0" width="3.3" height="78.5"/>
<rect x="560.5" y="3.6" class="st0" width="3.4" height="11"/>
<polygon class="st0" points="243.6,2.8 212.1,2.8 185.2,63.9 156.5,2.8 126.1,2.8 126.1,110.3 156.6,110.3 156.5,56.1 177.5,110.4 
	192.2,110.4 213.2,56.1 213.3,110.4 243.6,110.3 243.6,28.7 272.6,28.7 272.6,28.6 272.7,28.6 272.7,110.4 305.8,110.4 305.8,28.7 
	333.8,28.7 346.4,2.8 "/>
<path class="st0" d="M688.7,58.2h8.3l0,0h59.7v-3h-68L688.7,58.2z M697,6.6h66.3v-3h-74.6v3H697z M764,110.4v-3h-75.3v3H764z"/>
<path class="st0" d="M0,2.8v107.6h112.1V2.8H0z M55.1,91.1H13.4V22.5h10.8v59h30.9L55.1,91.1z M98.7,32.1H78.2v59H67.4v-59H47.1
	v-9.6h51.6L98.7,32.1z"/>
</svg>
