<svg data-name="Layer 1" xmlns="http://www.w3.org/2000/svg" viewBox="0 0 200 200.01"><path d="M41.11 66.5h21.24L62 78.61c4.88-11 12.74-13.52 19.66-13.52a21.44 21.44 0 0110.38 2.67l-6.73 19.35a18.51 18.51 0 00-8.18-2c-9.59 0-14.78 4.41-14.78 18.72v29.73H41.11zm84.15 50.81a29.09 29.09 0 0016.83-5.31l12.11 13c-6.45 5.66-14.63 9.91-28.63 9.91-23.9 0-39.32-14.47-39.32-35.07 0-20.29 16.2-34.76 37-34.76 24.07 0 37.12 17.93 35.55 41.36H108c2 6.93 7.67 10.87 17.26 10.87zm12.11-23.12c-.94-7.4-5.66-11.8-14-11.8s-14 3.77-15.73 11.8z"/></svg>