<svg version="1.1" id="Layer_1" xmlns="http://www.w3.org/2000/svg" x="0" y="0" viewBox="0 0 816 258.3" xml:space="preserve"><style>.st0{fill:#1d1d1b}.st4{fill:#b2292e}</style><path class="st0" d="M367.2 19.9L356.4 0l-30.7 19.9 9 14.4zM652 86.8c0 28.9 18.1 47 48.8 47 9.9-.1 19.8-1.7 29.3-4.7l-4.9-26c-9 2.7-13.5 3.6-19.9 3.6-9.9 0-15.4-7.2-15.4-19.9s5.4-19.9 15.4-19.9c6.3 0 10.8.9 19.9 3.6l4.9-26c-9.5-3-19.3-4.6-29.3-4.7-30.7 0-48.8 18.1-48.8 47"/><path class="st0" d="M653.8 94c1.1-5.7 1.7-11.4 1.8-17.2 0-22.6-15.9-37.1-42.5-37.1-30.7 0-49.7 19.9-49.7 47s16.3 47 52.4 47c6.3 0 20.8-.9 34.3-6.3l-3.6-25.5c-7.5 3.1-15.4 4.6-23.5 4.7-15.4 0-20.4-6.3-21.7-12.6h52.5zm-41.6-30.7c6.7 0 9 3.8 9 8.1 0 1.2-.2 2.4-.5 3.6h-19.3c-.1-6.3 3.9-11.7 10.8-11.7"/><path class="st0" d="M507.5 132c41.6 0 59.7-26 59.7-61.5S549.1 9 507.5 9h-48.8v123h48.8zm-10.9-32.5V41.6h10.8c12.7 0 19.9 7.2 19.9 28.9s-7.2 29-19.9 29h-10.8z"/><path class="st0" d="M459.5 102.1c0-28.6-38-28-38-35.3 0-2.3 2.5-2.7 4-2.7 7.8 0 20.4 3.8 26.8 6.3l4.9-26c-11.6-3.1-23.6-4.7-35.6-4.7-24.4 0-41.6 9.9-41.6 30.4 0 30.9 37.1 28.9 37.1 36.3 0 2.4-2.7 2.9-5.4 2.9-7.4 0-16.3-2.7-27.8-6.5l-5.6 26.4c10.1 2.7 25.3 4.5 38.9 4.5 25.2.1 42.3-10.4 42.3-31.6"/><path class="st0" d="M334 64.2c6 0 9.6 3.1 9.6 7.6V75c-28 1.8-48.8 13.6-48.8 35.2 0 14.5 9.6 23.5 24.4 23.5 8.3 0 17.5-2.7 24-10.8h.4l3.6 9h32.5V70.5c0-19-15.7-30.7-39.8-30.7-11.9 0-22.2 1.1-40.7 7.2l7.2 24.4c9.5-4.5 20.3-7.3 27.6-7.2m9.6 40.6c-1.7 1.2-3.7 1.9-5.8 1.8-2 0-6-.9-6-5.4 0-4.7 4.5-8.1 11.8-9v12.6z"/><path class="st0" d="M210.3 9H160v123h36.2V86.8l-.9-20.8h.4l16.8 47.9h27.1L256.4 66h.4l-1 20.8V132h39.8V9h-51.1l-9.1 29-6.7 24.6h-.3L220.6 38zm559.6 56.1c7.6 0 8.1 8.5 8.1 21.7s-.5 21.7-8.1 21.7-8.1-8.5-8.1-21.7.5-21.7 8.1-21.7m0 68.7c33.4 0 46.1-21.7 46.1-47s-12.7-47-46.1-47c-33.6 0-46.1 21.7-46.1 47s12.5 47 46.1 47M160 258.3V155.6h13.6l40.3 58.2 39.9-58.2h13.9v102.7h-20.6v-58.2l-29.9 43h-7.1l-29.9-43v58.2H160zm319.9 0l-21.7-37.4H446v37.4h-20.6V155.6h39.3c11.4 0 20.2 3.2 26.1 9.4 6 6.2 9.2 14.5 9 23.1 0 13.3-7 25.2-20.8 30.2l24.9 40h-24zM446 174.6v27.9h16.8c10.7 0 16-6.1 16-14s-5.3-13.8-14.2-13.8l-18.6-.1zm150.4 83.7l-28.5-40.7-12.7 15.1v25.6h-20.6V155.6h20.6v48.5l38.9-48.5H619l-37.7 46.7 40.3 56h-25.2zm168.8-82.8h-29.3v-19.9h79.5v19.9h-29.3v82.9h-20.9v-82.9z"/><path fill="#fcc31e" d="M643.2 239.2h69.6v19.1h-69.6z"/><path fill="#e84b4b" d="M663.9 196.8h-20.7V216h66v-19.1h-45.3z"/><path fill="#68c1be" d="M663.9 174.8h49v-19.2h-69.7v19.2z"/><path class="st0" d="M335.2 217.7l12.2-34.2 12 34.2h-.1l14.2 40.6h21l-38.6-102.7h-16.8l-39.2 102.7h20.8z"/><path class="st4" d="M0 54h129.5v124.3H0z"/><path d="M15.5 76.8H28v68.1h35.6V156H15.5zm62.4 11H54.4v-11h59.5v11H90.4V156H77.9z" fill="#fff"/><path class="st4" d="M30.5 188.4h-5.4v-2.5h13.7v2.5h-5.4v15.7h-2.9zm36.4 15.7h-3.4l-3.1-4.4c-.4.1-.9.1-1.3.1h-1.8v4.3h-2.9v-18.2H59c5 0 7.8 2.8 7.8 7 .2 2.6-1.3 5-3.6 6.1l3.7 5.1zm-8-6.8c3.5 0 4.9-1.6 4.9-4.4s-1.4-4.4-4.9-4.4h-1.7v8.9l1.7-.1zM68 195c-.1-5.1 3.9-9.2 9-9.4h.4c2.9-.2 5.6 1.2 7.3 3.5l-2.2 1.6c-1.2-1.7-3.1-2.6-5.2-2.5-3.6 0-6.3 2.9-6.3 6.8s2.7 6.8 6.4 6.8c2.2.1 4.2-.9 5.5-2.7l2.2 1.5c-1.8 2.5-4.7 3.9-7.8 3.7-5 .1-9.2-3.9-9.2-9-.1 0-.1-.2-.1-.3m44.7 9.1h-3.4l-3.1-4.4c-.4.1-.9.1-1.3.1h-1.8v4.3h-2.9v-18.2h4.7c5 0 7.8 2.8 7.8 7 .2 2.6-1.3 5-3.7 6.1l3.7 5.1zm-7.9-6.8c3.5 0 4.9-1.6 4.9-4.4s-1.5-4.4-4.9-4.4h-1.7v8.9h1.7zm11.4 6.8h-2.9l8-18.6h.2l8 18.6h-3l-1.1-2.5h-8.2l-1 2.5zm5.1-12.3l-3 7.2h6l-3-7.2zm-22.8 9.8h-9v-3.1h7.7V196h-7.7v-7.6h9v-2.5H86.6v18.2h11.9zm-55-3.1h7.8V196h-7.8v-7.6h9.1v-2.5h-12v18.2h12v-2.5h-9.1zM0 185.9h2.9v15.7h8.2v2.5H0z"/><path class="st4" d="M11.9 204.1H9l8-18.6h.2l8 18.6h-3l-1-2.5H13l-1.1 2.5zm5.2-12.3l-3 7.2h6l-3-7.2z"/></svg>