<svg xmlns="http://www.w3.org/2000/svg" viewBox="0 0 677.9 173.5"><path d="M0 1.6h62.3v18.2h-41v11.7h37.2v16.9H21.2v12.3h41.6V79H0V1.6zm71 0h29.9c27.6 0 43.7 15.9 43.7 38.3v.2c0 22.3-16.3 38.9-44.1 38.9H71V1.6zM101.2 60c12.8 0 21.4-7.1 21.4-19.6v-.2c0-12.4-8.5-19.6-21.4-19.6h-8.8V60h8.8zm52.1-58.4h21.6V79h-21.6V1.6zm30.3 38.9v-.2c0-22.6 17.3-40.3 40.8-40.3 15.8 0 26 6.6 32.9 16.2l-16.2 12.5c-4.4-5.5-9.5-9.1-16.9-9.1-10.9 0-18.5 9.2-18.5 20.5v.2c0 11.6 7.6 20.7 18.5 20.7 8.1 0 12.8-3.8 17.5-9.4l16.2 11.5c-7.3 10.1-17.1 17.5-34.3 17.5-22.2-.1-40-16.9-40-40.1zm81-38.9h21.6V79h-21.6V1.6zm30.3 38.9v-.2C294.9 18 312.8 0 336.7 0s41.6 17.8 41.6 40.1v.2c0 22.2-17.9 40.3-41.8 40.3s-41.6-17.9-41.6-40.1zm61.5 0v-.2c0-11.2-8.1-20.9-19.9-20.9s-19.6 9.5-19.6 20.7v.2c0 11.2 8.1 20.9 19.8 20.9s19.7-9.5 19.7-20.7zm30.3-38.9h20l31.9 40.9V1.6h21.2V79H441l-33.1-42.5V79h-21.2V1.6zm84.1 0H533v18.2h-41v11.7h37.2v16.9H492v12.3h41.6V79h-62.8V1.6zm65.1 65.9l11.9-14.3c7.6 6.1 16.2 9.3 25.1 9.3 5.8 0 8.9-2 8.9-5.3V57c0-3.2-2.5-5-13.1-7.4-16.5-3.8-29.2-8.4-29.2-24.3V25c0-14.4 11.4-24.8 30-24.8 13.2 0 23.5 3.5 31.9 10.3l-10.8 15.1c-7.1-5-14.8-7.6-21.7-7.6-5.2 0-7.7 2.2-7.7 5v.2c0 3.5 2.7 5.1 13.4 7.5 17.8 3.9 28.9 9.6 28.9 24.1v.2c0 15.8-12.5 25.2-31.3 25.2-13.7.1-26.7-4.2-36.3-12.7zM0 94.6h62.3v18.2h-41v11.7h37.2v16.9H21.2v12.3h41.6V172H0V94.6zm65.2 65.9l11.9-14.3c7.6 6.1 16.2 9.3 25.1 9.3 5.8 0 8.9-2 8.9-5.3v-.2c0-3.2-2.5-5-13-7.4-16.5-3.8-29.2-8.4-29.2-24.3v-.3c0-14.4 11.4-24.8 30-24.8 13.1 0 23.4 3.5 31.9 10.3L120 118.7c-7.1-5-14.8-7.6-21.7-7.6-5.2 0-7.7 2.2-7.7 5v.2c0 3.5 2.7 5.1 13.4 7.5 17.8 3.9 28.9 9.6 28.9 24.1v.2c0 15.8-12.5 25.2-31.3 25.2-13.9 0-26.9-4.3-36.4-12.8zm75.2-65.9h33.2c19.6 0 32.2 10.1 32.2 27.2v.2c0 18.2-14 27.9-33.3 27.9h-10.6V172h-21.5V94.6zM172 133c7.6 0 12.3-4 12.3-10.1v-.2c0-6.6-4.6-10.2-12.4-10.2h-10.1V133H172zm40.1-38.4h62.3v18.2h-41v11.7h37.2v16.9h-37.2v12.3H275V172h-62.8V94.6zm68.4 38.9v-.2c0-22.6 17.4-40.3 40.8-40.3 15.8 0 26 6.6 32.9 16.1L338 121.7c-4.4-5.5-9.5-9.1-16.9-9.1-10.8 0-18.5 9.2-18.5 20.5v.2c0 11.6 7.6 20.7 18.5 20.7 8.1 0 12.8-3.8 17.5-9.4l16.2 11.5c-7.3 10.1-17.1 17.5-34.3 17.5-22.2-.1-40-16.9-40-40.1zm81.1-38.9h21.6V172h-21.6V94.6zm59.7-.6H442l33 78h-23l-5.6-13.8h-29.9L411 172h-22.6l32.9-78zm18.8 47.4l-8.6-22-8.8 22h17.4zm39.6-46.8h21.5v58.6h37.5V172h-59V94.6zm65.4 0h62.3v18.2h-41v11.7h37.2v16.9h-37.2v12.3H608V172h-62.8V94.6zm65.2 65.9l11.9-14.3c7.7 6.1 16.2 9.3 25.1 9.3 5.8 0 8.9-2 8.9-5.3v-.2c0-3.2-2.5-5-13.1-7.4-16.5-3.8-29.2-8.4-29.2-24.3v-.3c0-14.4 11.4-24.8 30-24.8 13.2 0 23.5 3.5 31.9 10.3L665 118.7c-7.1-5-14.8-7.6-21.7-7.6-5.2 0-7.7 2.2-7.7 5v.2c0 3.5 2.7 5.1 13.4 7.5 17.8 3.9 28.9 9.6 28.9 24.1v.2c0 15.8-12.5 25.2-31.3 25.2-13.8 0-26.8-4.3-36.3-12.8z"/></svg>