<svg id="Layer_1" data-name="Layer 1" xmlns="http://www.w3.org/2000/svg" viewBox="0 0 451.01 481.26"><title>Logo_QuePasa_corto_02_RGB</title><path d="M220.4,308.31c-62.23-2.17-85.1-70.05-86.33-105.4-2.28-65.45,32.28-95.72,67-95.72,57.89,0,87.32,55.88,87.32,108.29,0,73.11-43.46,93.68-68,92.83m126.82,61.44c-4.47,1.85-15,2.87-18.17,2.87a94.67,94.67,0,0,1-29.53-4.46c-25.4-8.25-56.24-34.16-59.67-52.44-.5-2.65,1.94-3.26,3.7-3.84C288.47,297,322,258.15,322.12,207.44c.18-55.91-43.77-109-110.22-109-59,0-111.81,43.56-110.41,109.26.91,43.19,24.5,81.18,67.55,99.8a116.62,116.62,0,0,0,27.92,8.2c8.89,1.59,6.32,3.1,15.86,12.63,11.75,11.43,26.49,31,52.53,43.11,18.74,8.57,30.37,11.3,45,11.3,11.12,0,27.86-4.32,38.24-9.61,2-1,.74-4.28-1.34-3.42"/></svg>