<?xml version="1.0" encoding="utf-8"?>
<!-- Generator: Adobe Illustrator 23.0.1, SVG Export Plug-In . SVG Version: 6.00 Build 0)  -->
<svg version="1.1" id="Layer_1" xmlns="http://www.w3.org/2000/svg" xmlns:xlink="http://www.w3.org/1999/xlink" x="0px" y="0px"
	 viewBox="0 0 690.5 118.4" style="enable-background:new 0 0 690.5 118.4;" xml:space="preserve">
<style type="text/css">
	.st0{fill:#1D1D1B;}
	.st1{fill:#B2292E;}
	.st2{fill:#FFFFFF;}
</style>
<title>Logo_MtMag_color_RGB</title>
<path class="st0" d="M690.5,111.8c0-3.7-2.9-6.6-6.6-6.7c-3.7,0-6.6,2.9-6.7,6.6s2.9,6.6,6.6,6.7c0,0,0,0,0,0
	C687.5,118.3,690.5,115.4,690.5,111.8z M651.8,113.2c7-3.2,13.4-7.4,19.2-12.5V59h-45.3v3.6h41.7v36.8c-2.5,2.2-5.1,4.1-7.9,5.9
	c-3,1.9-6.2,3.6-9.5,5c-3.5,1.5-7.1,2.7-10.8,3.5c-4,0.9-8,1.3-12,1.3c-7.6,0.1-15.2-1.4-22.1-4.5c-6.3-2.9-11.8-7-16.4-12.2
	c-4.5-5.2-8-11.3-10.2-17.9c-2.4-6.8-3.6-14-3.6-21.2V59c0-7.1,1.3-14.1,3.7-20.7c2.4-6.5,5.9-12.6,10.5-17.8
	c4.6-5.2,10.1-9.5,16.4-12.5c6.7-3.2,14.1-4.8,21.6-4.7c8.1,0,15,1.3,20.7,3.8c5.9,2.7,11.5,6.2,16.5,10.4l2.3-2.8
	c-2.7-2.3-5.5-4.4-8.5-6.3c-2.9-1.8-5.9-3.3-9-4.6c-3.2-1.3-6.6-2.2-10-2.8c-3.9-0.7-7.9-1-11.8-1c-8-0.1-16,1.6-23.3,5
	c-6.7,3.2-12.7,7.6-17.6,13.2c-4.9,5.5-8.7,11.9-11.1,18.9c-2.6,7.1-3.9,14.6-3.9,22.1v0.3c0,7.7,1.2,15.3,3.7,22.6
	c2.3,6.9,6.1,13.3,10.9,18.7c4.9,5.4,10.8,9.8,17.5,12.8c7.4,3.3,15.5,4.9,23.6,4.7C635.5,118.5,644,116.7,651.8,113.2L651.8,113.2z
	 M583.9,118.3L526.9,0h-3.2l-53.3,110.6V0.9H467l-51.5,72.8l-39.8-56.1l-1.7,3.5l41.3,58.4h0.2l51.2-72.5v111.3h3.9L525.2,4.9
	l54.6,113.4H583.9z M364,28.6L378,0H229.2l-29.8,67.2L167.6,0h-33.7v118.3h33.7l-0.1-59.6l23.3,59.7h16.3l23.3-59.7l0.1,59.7h33.5
	V28.6h32.2v-0.1h0.1v89.9H333V28.6H364z M364.1,34.7h-3.7v83.6h3.7L364.1,34.7L364.1,34.7z"/>
<rect y="0" class="st1" width="101.8" height="97.8"/>
<polygon class="st2" points="12.2,18 22,18 22,71.6 50.1,71.6 50.1,80.3 12.2,80.3 "/>
<polygon class="st2" points="61.3,26.7 42.8,26.7 42.8,18 89.6,18 89.6,26.7 71.1,26.7 71.1,80.3 61.3,80.3 "/>
<polygon class="st1" points="24,105.8 19.8,105.8 19.8,103.8 30.6,103.8 30.6,105.8 26.3,105.8 26.3,118.1 24,118.1 "/>
<path class="st1" d="M52.6,118.1h-2.7l-2.4-3.5c-0.3,0-0.7,0.1-1,0.1h-1.4v3.4h-2.3v-14.4h3.7c4,0,6.1,2.2,6.1,5.5
	c0.1,2-1,3.9-2.9,4.8L52.6,118.1z M46.4,112.8c2.8,0,3.9-1.3,3.9-3.5s-1.1-3.5-3.9-3.5H45v7L46.4,112.8z"/>
<path class="st1" d="M53.5,111c-0.1-4,3.1-7.3,7-7.4c0.1,0,0.2,0,0.3,0c2.3-0.1,4.4,1,5.7,2.8l-1.7,1.2c-0.9-1.3-2.5-2.1-4.1-2
	c-2.8,0-4.9,2.3-4.9,5.3c-0.2,2.8,1.9,5.1,4.7,5.3c0.1,0,0.2,0,0.3,0c1.7,0.1,3.3-0.7,4.3-2.1l1.8,1.2c-1.4,2-3.7,3.1-6.1,2.9
	c-4,0.1-7.2-3.1-7.3-7.1C53.5,111.2,53.5,111.1,53.5,111"/>
<path class="st1" d="M88.7,118.1H86l-2.5-3.5c-0.3,0-0.7,0.1-1,0.1h-1.4v3.4h-2.3v-14.4h3.7c4,0,6.1,2.2,6.1,5.5
	c0.1,2-1,3.9-2.9,4.8L88.7,118.1z M82.4,112.8c2.8,0,3.9-1.3,3.9-3.5s-1.1-3.5-3.9-3.5h-1.3v7L82.4,112.8z"/>
<path class="st1" d="M91.4,118.1h-2.3l6.3-14.6h0.1l6.3,14.6h-2.4l-0.8-2h-6.4L91.4,118.1z M95.4,108.5l-2.4,5.7h4.7L95.4,108.5z"/>
<polygon class="st1" points="77.5,116.1 70.4,116.1 70.4,113.7 76.5,113.7 76.5,111.7 70.4,111.7 70.4,105.8 77.5,105.8 77.5,103.8 
	68.1,103.8 68.1,118.1 77.5,118.1 "/>
<polygon class="st1" points="34.2,113.7 40.3,113.7 40.3,111.7 34.2,111.7 34.2,105.8 41.4,105.8 41.4,103.8 32,103.8 32,118.1 
	41.4,118.1 41.4,116.1 34.2,116.1 "/>
<polygon class="st1" points="0,103.8 2.3,103.8 2.3,116.1 8.8,116.1 8.8,118.2 0,118.2 "/>
<path class="st1" d="M9.4,118.2H7.1l6.3-14.7h0.1l6.3,14.7h-2.4l-0.8-2h-6.4L9.4,118.2z M13.4,108.5l-2.4,5.7h4.7L13.4,108.5z"/>
</svg>
