<?xml version="1.0" encoding="utf-8"?>
<!-- Generator: Adobe Illustrator 23.0.1, SVG Export Plug-In . SVG Version: 6.00 Build 0)  -->
<svg version="1.1" id="Layer_1" xmlns="http://www.w3.org/2000/svg" xmlns:xlink="http://www.w3.org/1999/xlink" x="0px" y="0px"
	 viewBox="0 0 441.9 116.9" style="enable-background:new 0 0 441.9 116.9;" xml:space="preserve">
<title>Logo_MtMotores_corto_01_RGB</title>
<path d="M385.7,116.9c15.5,0.3,30.5-6.1,40.9-17.6c4.9-5.4,8.8-11.7,11.3-18.6c2.7-7.1,4-14.6,4-22.1v-0.3c0-7.6-1.3-15-4-22.1
	c-2.6-6.8-6.4-13.1-11.3-18.6C416.2,6.1,401.2-0.3,385.7,0c-8-0.1-15.9,1.5-23.2,4.8c-6.7,3-12.8,7.4-17.8,12.8
	c-4.9,5.4-8.8,11.7-11.3,18.6c-2.2,5.9-3.5,12.2-3.8,18.5h3.6c0.3-6,1.5-11.9,3.6-17.5c4.8-13.1,14.6-23.7,27.3-29.5
	c13.7-6.1,29.3-6,43,0.1c6.3,2.9,12,7.1,16.7,12.2c4.7,5.1,8.3,11.1,10.7,17.6c2.5,6.7,3.8,13.7,3.8,20.8v0.3
	c0,7.1-1.2,14.2-3.7,20.8c-4.8,13.1-14.6,23.7-27.2,29.5c-6.8,3.1-14.1,4.6-21.6,4.5h-0.2"/>
<path d="M216.3,115h3.5V34.4h-3.5V115z M321.4,115V2h-3.2L269,72l-38.1-54.2l-1.6,3.4l39.6,56.4h0.2L317.9,8V115H321.4z"/>
<polyline points="219.6,28.6 232.9,1.2 90.9,1.2 62.4,65.8 32.1,1.2 0,1.2 0,115 32.2,115 32.1,57.6 54.3,115 69.9,115 92.1,57.6 
	92.3,115 124.2,115 124.2,28.6 155,28.6 155,28.5 155.1,28.5 155.1,115 190,115 190,28.6 "/>
</svg>
