<svg version="1.1" id="Layer_1" xmlns="http://www.w3.org/2000/svg" x="0" y="0" viewBox="0 0 531.8 245.9" xml:space="preserve"><style>.st0{fill:#1d1d1b}</style><path class="st0" d="M383.8 2.3l.2-.3s-.1.2-.2.3m129 8c0-.1.1-.1.1-.1l-.1.1m-8-2.4l.1-.1-.1.1M240.6 6.3l.4-.4s-.3.2-.4.4m.2 0l.4-.4-.4.4m.3.1c.1-.1.2-.3.3-.4 0-.1-.2.2-.3.4M55.8 116.1L44.5 83.5c-3.3-10-8-14.5-15.9-14.5h-7.3v47.1H0V1.8h34.4c25.6 0 37.4 11.5 37.4 31.7 0 16.5-9.2 26.4-22.7 28.8v.3c8.4 4.5 13.4 10.7 17.8 22.1L79 116.2l-23.2-.1zm-25.1-63c14.3 0 18.9-4.8 18.9-18.8 0-13.2-5.9-16.4-16.4-16.4H21.3v35.2h9.4zm54.5 5.6c0-46 22.4-58.7 45.5-58.7s45.5 12.7 45.5 58.7c0 43.4-18.3 59.2-45.5 59.2-26.9 0-45.4-15.8-45.5-59.2m68.5 0c0-33.1-7.6-42.2-22.9-42.2-14.8 0-23.1 9.1-23.1 42.2 0 33.6 8.3 42.6 23.1 42.6 15.2 0 22.9-9 22.9-42.6"/><path class="st0" d="M191.5 116.1V1.8H225c25.8 0 38.5 13.7 38.5 36.8 0 20.3-11.5 38-37.4 38-4.5 0-8.9-.3-13.4-.8v40.4l-21.2-.1zM223 60.3c13.7 0 18.5-5.9 18.5-22C241.4 24 237 18 224.9 18h-12.1v42.3H223zm53.3 55.8V1.8h63.4V18h-42.1v31h37.7v16.6h-37.7v34.2h42.1v16.3zm135 0L400 83.5c-3.3-10-8-14.5-15.9-14.5h-7.4v47.1h-21.3V1.8h34.4c25.6 0 37.4 11.5 37.4 31.7 0 16.5-9.2 26.4-22.7 28.8v.3c8.4 4.5 13.4 10.7 17.8 22.1l12.1 31.5-23.1-.1zm-25.1-63c14.3 0 18.9-4.8 18.9-18.8 0-13.2-5.9-16.4-16.4-16.4h-12v35.2h9.5zm54.6 5.6c0-46 22.4-58.7 45.5-58.7s45.5 12.8 45.5 58.7c0 43.4-18.3 59.2-45.5 59.2s-45.5-15.8-45.5-59.2m68.3 0c0-33.1-7.6-42.2-22.9-42.2-14.8 0-23.1 9.1-23.1 42.2 0 33.6 8.3 42.6 23.1 42.6 15.3.1 22.9-9 22.9-42.6M447.6 244h20.5v-21.1h-20.5V244zm-38-27.7c0 10-11.2 14.2-19.9 14.2-6.7 0-12.1-3.8-12.1-9.6 0-7.4 5.8-9.3 12.9-10.7l10.3-2.2c3.1-.5 6.1-1.4 8.9-2.8l-.1 11.1zm18.7-26.2c0-22.1-16.7-25.4-33.4-25.4-17 0-33.1 7-33.1 25.3l18.7.8c0-8.4 3.5-11.6 14.4-11.6 8.1 0 14.7 2.1 14.7 9.8v2.3c-4.8 1.7-13.5 3.2-20.2 4.6l-7.8 1.5c-11.5 2.3-23.6 9-23.6 24.2 0 15 11.6 24.4 26.3 24.4 9.2.1 18.2-3 25.3-8.8 0 2.5.6 4.9 1.8 7h19.8c-1.1-1.7-2.9-5-2.9-13v-41.1zM326.5 244h18.7V135h-18.7v109zm-18.4-77.5h-18.7v41.6c0 9.3-4.3 19.6-18.4 19.6-9.5 0-13.8-4.6-13.8-15.3v-45.9h-18.7v51.3c0 22.5 15.1 28 28.3 28 10.6 0 18.1-4.1 22.2-9.5h.3v7.7H308l.1-77.5zm-105.6 49.8c0 10-11.2 14.2-19.9 14.2-6.7 0-12.1-3.8-12.1-9.6 0-7.4 5.8-9.3 12.9-10.7l10.3-2.2c3.1-.5 6.1-1.4 8.9-2.8l-.1 11.1zm18.6-26.2c0-22.1-16.7-25.4-33.4-25.4-17 0-33.1 7-33.1 25.3l18.7.8c0-8.4 3.5-11.6 14.4-11.6 8.1 0 14.7 2.1 14.7 9.8v2.3c-4.8 1.7-13.5 3.2-20.2 4.6l-7.8 1.5c-11.5 2.3-23.6 9-23.6 24.2 0 15 11.6 24.4 26.4 24.4 9.2.1 18.1-3 25.3-8.9 0 2.4.6 4.9 1.8 7H224c-1.1-1.7-2.9-5-2.9-13v-41zm-137-38h19.6c11.8 0 19.9 4.4 19.9 19.6 0 10.7-6.3 18.4-19.1 18.4H84.1v-38zM63.6 244h20.5v-36.7h24.2c21.6 0 36.8-13.9 36.8-35.5 0-21.1-12.6-36.7-38.1-36.7H63.6V244z"/></svg>