<svg id="Layer_1" data-name="Layer 1" xmlns="http://www.w3.org/2000/svg" viewBox="0 0 301.72 288"><defs><style>.cls-1{fill:#1c1c1b;}.cls-2{fill:#8ba4d5;}.cls-3{fill:#a2bbe1;}.cls-4{fill:#869ecd;}.cls-5{fill:#d2b6ac;}.cls-6{fill:#afa7bc;}.cls-7{fill:#bab3d8;}.cls-8{fill:#d7bc84;}.cls-9{fill:#e3a780;}.cls-10{fill:#92807b;}.cls-11{fill:#baa072;}.cls-12{fill:#c69f92;}.cls-13{fill:#d5b484;}.cls-14{fill:#c3a283;}.cls-15{fill:#b69572;}.cls-16{fill:#9f8154;}</style></defs><title>Logo_Duna_corto_01_RGB</title><path class="cls-1" d="M199.38,87.94c27.25,0,42.37,2.63,54.24,9.83,14.94,9.15,23.45,25.33,23.45,44.32,0,23.34-12.84,42.34-34.34,51.24-10.38,4.1-26.34,6.73-43.35,6.73H150.49V87.94ZM169.43,189.32h30.86c16.38,0,30.07-3.08,38.7-9,11.42-8.11,17.59-21.05,17.59-37.68,0-18.09-7.55-31.91-21.17-38.74-8.54-4.38-15.32-5.32-35.12-5.32H169.43Z"/><rect class="cls-2" x="24.65" y="87.94" width="27.95" height="28.04"/><rect class="cls-3" x="52.6" y="87.94" width="27.92" height="28.04"/><rect class="cls-4" x="80.52" y="87.94" width="28.03" height="28.04"/><rect class="cls-5" x="108.55" y="87.94" width="28.08" height="28.04"/><rect class="cls-6" x="24.65" y="115.98" width="27.95" height="27.93"/><rect class="cls-7" x="52.6" y="115.98" width="27.92" height="27.93"/><rect class="cls-8" x="80.52" y="115.98" width="28.03" height="27.93"/><rect class="cls-9" x="108.55" y="115.98" width="28.08" height="27.93"/><rect class="cls-10" x="24.65" y="143.91" width="27.95" height="27.95"/><rect class="cls-11" x="52.6" y="143.91" width="27.92" height="27.95"/><rect class="cls-12" x="80.52" y="143.91" width="28.03" height="27.95"/><rect class="cls-11" x="108.55" y="143.91" width="28.08" height="27.95"/><rect class="cls-13" x="24.65" y="171.86" width="27.95" height="28.01"/><rect class="cls-14" x="52.6" y="171.86" width="27.92" height="28.01"/><rect class="cls-15" x="80.52" y="171.86" width="28.03" height="28.01"/><rect class="cls-16" x="108.55" y="171.86" width="28.08" height="28.01"/></svg>