<?xml version="1.0" encoding="utf-8"?>
<!-- Generator: Adobe Illustrator 23.0.1, SVG Export Plug-In . SVG Version: 6.00 Build 0)  -->
<svg version="1.1" id="Layer_1" xmlns="http://www.w3.org/2000/svg" xmlns:xlink="http://www.w3.org/1999/xlink" x="0px" y="0px"
	 viewBox="0 0 500 169" style="enable-background:new 0 0 500 169;" xml:space="preserve">
<style type="text/css">
	.st0{fill:#FFFFFF;}
</style>
<title>Logo_LaHora_white_RGB</title>
<path class="st0" d="M354,99c0,20.2-4.3,36.8-13,50c-8.7,13.2-19.8,19.7-33.3,19.7c-13.6,0-24.7-6.5-33.4-19.5
	c-8.7-13-13.1-29.6-13.1-49.8c0-19.7,4.4-35.8,13.1-48.4c8.8-12.6,20-18.9,33.7-19c13.1,0,24.1,6.4,32.8,19.1
	C349.6,63.9,354,79.8,354,99 M321,100.1c0-29.9-4.6-44.9-13.6-44.8c-4.1,0-7.3,4-9.8,12.1c-2.4,8.1-3.6,18.9-3.6,32.5
	c0,13.9,1.2,25,3.7,33.3s5.7,12.4,9.8,12.4c4.3,0,7.7-4,10-12C319.8,125.5,321,114.4,321,100.1"/>
<path class="st0" d="M423.9,42.3L415,80.9c-2.8-2.2-6.3-3.4-9.9-3.4c-7.8,0-12.9,5.9-15.4,17.5c-1,4.3-1.5,12.7-1.4,25l0.1,45.4h-32
	L356.1,35h32v30.2l2.5-8.3c4.9-16.7,10.6-25.1,17.2-25.1C412.6,31.8,417.9,35.3,423.9,42.3"/>
<path class="st0" d="M499.9,165.3h-34c-0.8-4.7-1.2-9.5-1.1-14.3c-7.6,11.7-16.1,17.5-25.2,17.5c-6.5,0-12.1-3.9-17-11.7
	c-4.9-7.8-7.3-17.1-7.3-27.9c0-14.2,3.8-26.2,11.4-36c5.5-7,14.1-12.4,26-16.5l13.1-4.4c-3-8.7-7.8-13-14.4-13s-13.1,4.7-20,14.1
	l-9-23.2c11.4-12,23.7-18,37-18.1c14.9,0,25.5,6.7,31.9,20c3.8,8,5.7,22.1,5.7,42.2v30.3C497,141.7,498,155.4,499.9,165.3
	 M465.8,110V98.4c-1.3,0.5-3.6,1.5-6.8,2.9c-9.6,4.2-14.3,11.2-14.3,20.9c-0.1,3.7,0.8,7.3,2.6,10.5c1.7,3,3.7,4.6,5.8,4.6
	s4.3-1.1,6.4-3.1c2.2-2.3,3.8-5.2,4.6-8.4C465.3,120.6,465.9,115.4,465.8,110"/>
<polygon class="st0" points="259.9,165.6 229.4,165.6 229.3,90.1 196.5,90.2 196.6,165.7 165.9,165.7 165.7,0.6 196.4,0.6 
	196.4,58.6 229.2,58.6 229.2,0.5 259.8,0.5 "/>
<polygon class="st0" points="32.2,136.6 32.1,0 0,0 0.2,166 17.7,166 17.7,166 59.3,165.9 59.2,136.6 "/>
<path class="st0" d="M137.2,165.8h-34c-0.8-4.7-1.2-9.5-1.1-14.3C94.4,163.2,86,169,76.9,169c-6.5,0-12.1-3.9-17-11.7
	s-7.3-17.1-7.3-27.9c0-14.2,3.8-26.2,11.4-36c5.5-6.9,14.2-12.4,26-16.4l13.1-4.4c-3-8.7-7.8-13-14.4-13s-13.1,4.7-20,14.1
	l-9.1-23.2c11.4-12,23.8-18,37-18.1c14.9,0,25.5,6.7,31.9,20.1c3.8,8,5.7,22.1,5.7,42.2v30.3C134.2,142.3,135.2,156,137.2,165.8
	 M103,110.6V98.9c-1.3,0.5-3.6,1.5-6.8,2.9c-9.6,4.2-14.4,11.2-14.3,20.9c-0.1,3.7,0.8,7.3,2.6,10.5c1.7,3,3.7,4.6,5.8,4.6
	s4.3-1.1,6.4-3.1c2.2-2.3,3.8-5.2,4.6-8.4C102.6,121.1,103.1,115.9,103,110.6"/>
</svg>
