<svg xmlns="http://www.w3.org/2000/svg" viewBox="0 0 968.2 268.8"><path d="M466.2 244.5c-4.5.1-6.2-2.7-7.2-5.7-1.3-3.8-2.1-7.7-3.3-11.5-2-6.5-4.1-13-6.3-19.4-.5-1.4-1-2.8.3-3.6 1.1-.6 2.4-.7 3.6-.3 1.3.7 2.5 1.7 3.4 2.8.9 1.1 1.8 2.3 2.6 3.5 2.3-3.3 4.2-6.6 6.6-9.5 3.3-4.3 8.5-6.8 13.9-6.6h3.5c7.1 0 11.9 4.7 12.1 11.7v4c-.2 5.5-3.5 8.8-9 9.3-2.1.2-4.1.6-6.4 1 4 4.3 7.6 8.2 11.1 12.1 1.1 1.3 2 2.7 2.8 4.1 1.6 2.7 1.5 2.8-.7 6.1-3.4-1.2-22.1-18.9-24.4-23.4-3.6 8.4-.3 17.3-2.6 25.4zm12.2-37.7l.2 1.2 5.9-1.1c-.1-.3-.1-.6-.2-1l-5.9.9zm-168.5 54.8c-2.1-.6-3.2-2.8-2.6-4.9.4-2 .9-3.9 1.6-5.7 4.2-10.3 8.5-20.6 12.7-30.9.3-.9.8-1.8 1.4-2.6 2.4-2.9 4.7-2.7 5.8.8 1.6 5.2 2.9 10.6 4.4 15.9.5 1.7.9 3.4 1.4 5.1l1.1.2c1.2-2.8 2.5-5.5 3.7-8.3 2.3-5.3 4.6-10.7 7-16 .6-1.2 1.4-2.3 2.5-3.1 2.7-2.2 5.4-2 7.1 1 2.2 3.7 3.9 7.7 5.2 11.8 1.5 5.5 2.6 11 3.3 16.6.4 2.9-.6 5.7-2.6 7.8-1.9 2-4 1.7-5-.9-.4-1.1-.6-2.3-.7-3.4-.7-3.9-1.2-7.9-2.2-11.7-.7-2.9-2.1-5.5-3.6-9.3-1.3 2.6-2.3 4.4-3.1 6.3-2.7 6.1-5.2 12.3-8 18.3-1 1.9-2.4 3.5-4.1 4.9-2.4 2.1-4.6 1.8-6.1-1-1.1-2.2-2-4.6-2.6-7-1-3.5-1.7-7.1-2.8-11.7-2.2 5.1-4.1 9.3-5.8 13.6-1.3 3.1-2.3 6.2-3.6 9.3-1 2-2 4.1-4.4 4.9zm281.6-33.1c-1 2.9-2.1 5.8-3.4 8.7-1.2 2.3-2.8 4.4-4.7 6.3-1.6 1.7-3.6 1.5-5.2-.7.2-1.6.6-3.1 1.2-4.6 6.1-12.2 10.8-25 16.6-37.3.7-1.3 1.5-2.6 2.3-3.8 2.7-4 10.8-3.9 13.2.3 3.1 5.3 6.1 10.7 8.8 16.2 3.6 7.3 7 14.7 10.5 22.1 2 4 1.4 8.8-1.5 12.2-.8 1.1-2.4 2.4-3.4 2.2s-2.1-1.9-2.7-3.1c-2.4-6-4.7-12.1-7.1-18.5h-24.6zm20.4-7.1c-2.8-5-5.2-9.5-7.8-13.8-.4-1-1.6-1.5-2.6-1.1-.5.2-.9.6-1.1 1.1-2 4.4-3.8 8.9-5.8 13.8h17.3zM161.1 224c.7-4 3.1-4.8 6.3-4.6 5.6.3 10.8 1 15.1 5.2 2.7 2.7 4.7 5.8 5 9.5.7 9.1.7 18.2-3.8 26.7-1.9 3.6-4.5 6-8.5 7.1-6 1.5-12.3 1.1-18.1-1.2-3.1-1.1-3.6-4-3.6-6.5-.1-7.1-.1-14.3.4-21.5.4-4.5.1-9.3 2.4-13.6 1.2-2.1 2.3-2.6 4.8-1.1zm-.5 31.1c3.3.4 6.2 1 9.1.9 7.3-.3 10.4-3.9 11-10.8.1-1.3.1-2.7 0-4-.1-4.1-3-7.6-7.1-8.3-4-.6-8-.9-12.2-1.4-.1 7.9-1.6 15.6-.8 23.6zm82.7-31.1c-7.2 4.2-15.2 3.5-23.5 4.2-1 2.5-2.2 5.6-3.7 9.3 6.9.4 13.1.8 19.4 1.2 3.8.2 4.1.4 5.1 4.9-8 3.4-16.2.6-24.2 0-.6 6.5 5.5 11.9 16.2 10.8.9-1.7 2-3.3 3.1-4.9 1.3-1.7 3.2-1.3 3.7.8 1.4 5.4-.4 10.2-3.2 14.7-1 1.3-2.6 2.1-4.3 2.2-5.9-.2-12.1 0-17.1-4.1-4.5-3.6-5.9-8.9-6.1-14.2-.2-7.5.5-15 3.8-21.9.1-.3.2-.6.4-.9.6-1.4-.7-3.6 1.4-4.4s4.4-1.6 6.2-1.2c5.6 1.4 10.8-.2 16.2-.7 3.5-.3 4.9.5 6.6 4.2zm185.3 20.6c-4.6-4.7-3.7-12-8.4-17.1l-13-1.3c-2.1 5-4.2 10-6.2 15.1-1.4 3.7-4.1 6.9-7.6 8.8-2-1-3-2.4-2.2-4.5s1.6-4.4 2.5-6.5c3.3-7.6 6.7-15.2 10.1-22.7 1.9-4.2 3.7-8.5 5.8-12.7 2.9-5.6 7.7-6.1 11.2-.7 3 4.8 5.6 9.8 7.7 15 2 4.8 3.7 9.6 5.1 14.6 2 5.2.3 9.2-5 12zm-19-23.7l8.4-1-4.4-8.3-4 9.3zm144.8 10.7c.1 2.4.7 3.9.2 4.9-2.5 5.5-6 10.3-12.5 10.9-2.8.2-5.6-.4-8.1-1.7-5.5-3.2-9.6-7.8-9.5-14.7.1-6.7.8-13.4 4.7-19.1 2.1-3.1 5.2-5.5 8-8 1.7-1.5 3.7-1.2 5.4.3s1.1 3.2.2 5c-1.2 2.6-2.5 5.1-5.9 5.3-.8.2-1.5.7-1.9 1.3-4 6.2-.5 17.3 6.4 19.5 2 .6 4.5 0 6.7-.6 1.8-.5 3.5-1.7 6.3-3.1zm-367-203.3c.5-2.2 1.1-4.9 1.9-7.5.8-2.3 1.8-4.5 2.7-6.7 4.3.1 3.8 3.5 4.6 5.6 3.5-1.1 6.8-2.4 10.2-3.2 6.3-1.4 10.1 1.1 11.2 7.4.9 4.3-.2 8.8-3.1 12.2-1.1 1.2-2.1 2.5-2.9 3.4 3.4 3.2 6.9 5.9 9.7 9.3C227 55 225.9 63 219.4 68c-7.2 5.6-15.6 7.3-24.5 6.8-2.1.1-4-1.3-4.5-3.3-1.7-6.3-3.1-12.6-2.9-19.1.2-5.3.6-10.6.7-16-.1-2.7-.4-5.4-.8-8.1zM211.8 65c2.5-11-6.6-19.2-17.3-15.9.2 3.9.4 8 .7 12.6 5.2-2.3 5.9 1.5 7.3 4.7l9.3-1.4zm-16.9-24.8c2.6-.9 4.8-1.5 6.9-2.4 4.1-1.8 6-6.6 4.2-10.7V27c-.7-1.1-1.8-1.8-3.1-1.9-3.4-.2-7.3 3.6-7.5 7.1-.3 2.3-.4 4.8-.5 8zm127 1.3c2.5 1.3 4.6 2.8 7 3.5 5 1.4 6.3 5.5 7.5 9.7.7 2.4-.8 3.9-3.3 3.3-.6-.2-1.3-.4-1.9-.8-5.5-2.4-10.9-5.1-16.5-7.1-4.9-1.6-9.1-4.7-12.1-8.8.3 1.4.5 2.8.9 4.1.9 3.2 1.9 6.4 2.8 9.6.6 2 .3 4-1.7 4.6-1 .3-2.9-.5-3.8-1.4-3.6-3.3-4.9-7.9-5.8-12.5-1-4.9-1.9-9.7-2.8-14.7-.3-1.9-.3-3.9-.4-6.2l4.8.4c3.6-2.8 6.6-5.8 10.1-7.9 4-2.6 9-3.1 13.4-1.4 1.4.5 2.6 1.4 3.6 2.5 3.3 4.5 4.6 10.1 3.6 15.6-.7 3.8-.8 3.8-5.4 7.5zm-3.7-13.7c-5.7.3-5.9.3-8 3.5 2.8-.6 5.6-.9 8-3.5zm229.1 34.1c-3.8-6-10-8.4-15.2-12.2-2.6-1.9-4.9-4.4-7.6-6.9 0 3.4-.1 6.7 0 10.1.1 2.8-.1 5.3-3.6 7.1-.9-1.2-1.7-2.5-2.5-3.9-2.4-5-2.1-10.3-2.3-15.6-.1-4.6-.3-9.2-.6-13.9-.2-4.4-.1-8.8 1.5-13.1 3.5 1.4 3.5 1.4 5.8 6.7 1.1-1.5 2.3-2.9 3.6-4.2 3.4-3.2 8.2-4.2 12.6-2.7 4.2 1.4 6.1 4.9 6.3 9.3.3 2.8.4 5.6.5 8.4-.1 3.5-2.2 6.5-5.5 7.7-1.1.5-2.2 1.2-3.2 1.8 7 3.1 12.5 7 13 14.8.4 2.4.1 4.6-2.8 6.6zm-14.4-35.5l.3.9 3.8-1.2-.4-1.1-3.7 1.4zm-32.4 6.2c0 6.6-1.5 13.1-4.3 19-1.6 3.6-4.5 5.6-7.8 7.4-.7.5-1.5.7-2.4.7-5.2-.6-10.7-.1-15.4-3.3-.6-.4-1.1-.7-1.7-1-6-3.2-7.1-8.8-6.5-14.8.6-5.6 1.7-11.1 2.6-16.6.6-3.9 3.3-6.4 6-9 .6-.6 1.3-1 2.1-1.1 5-.3 10.1-.6 15.1-.8 2.7 0 5.2 1.2 6.9 3.3 4.5 4.9 6.4 10.4 5.4 16.2zm-29-5.3c-.3 4-.8 7.8-.8 11.6 0 1.1 1.1 2.3 1.9 3.2 4 4.3 9.2 5 14.7 5 3.3 0 4.5-1.1 4.8-4.4.3-2.3.4-4.7.3-7-.4-6.4-5-12.5-13.1-10.4-2.4.7-4.8 1.2-7.8 2zm122.2 19c.1-5.6.5-11.2 2.8-16.4 2.7-5.9 7.3-8.8 13.8-8.9 3.5-.1 6.9.4 10.2 1.5 7.3 2.4 12.3 11.6 11.2 19.2-.5 3.4-1.8 6.7-2.9 10-1.4 4.6-5 7.4-8.8 9.8-1.7.9-3.7 1.5-5.6 1.5-6 .6-12-1.4-16.5-5.5-3.3-2.6-4.9-6.9-4.2-11.2zm16.1-12.5c-1.9 0-3.1.1-4.2 0-2.5-.2-3.6 1.1-4.1 3.4-1.1 5.9-.4 7.6 4.3 10.9 3.3 2.4 7 2.8 10.8 2.7 2.9 0 5.5-1.8 6.6-4.5 1.1-2.6.5-5.1-1.4-7.4-3.3-4.1-7.5-5.7-12-5.1zM405.3 58.7c-3.8.2-6.6-1.5-8.4-4.9-2.1-3.8-4.1-7.6-6.2-11.4-.9-1.6-2-3-2.8-4.4h-19.2c-1.5 2.4-1.7 5.8-1.9 9.3-.1 2.1-.5 4.2-1.4 6.2-1.2 2.3-3.8 2.1-4.4-.4-.7-3.1-1-6.2-.8-9.4.3-7.2 2.6-14.2 6.5-20.2 2.1-3.4 4.5-6.6 7-9.6 2.8-3.2 6.8-3 9.4.5 5.4 7.2 11.4 13.9 14.5 22.6.6 1.7 2 3.1 3.1 4.8l4.1-1.5c4.4 4.6 4.7 11.6.5 18.4zm-22.1-27.3l-5.2-7c-3.1 1.6-4.4 4-5.2 7h10.4zM149.7 51.9l-19-.9c-2.7 5.2-2.9 12-6.2 17.5-4.1-1.8-5.1-3.3-4.2-6.9 1.4-6 3.2-11.9 5.2-17.7 3-8.1 6.5-16 9.8-24 .4-.9.9-1.8 1.5-2.6 2.5-3.2 4.7-3.4 7.3-.3 1.7 2 3.2 4.3 4.2 6.8 4.4 10.8 8.5 21.7 12.8 32.5 1.4 3.6.7 6.8-1 10-1.1 2.1-2.9 2.2-4.3.4-.7-1.1-1.3-2.3-1.7-3.6-1.6-3.8-3.1-7.7-4.4-11.2zm-2.5-7.3c-2.5-5.4-4.8-10.2-7.5-16l-6.9 16.9 14.4-.9zm113.6 12.5c-3-.4-6-.6-8.9-1.1-5.3-1-7.5-3.7-8.2-9.1-1.2-8.8 1.8-16.3 6.4-23.4 1.4-2.6 4.4-3.9 7.3-3.1 1.5.3 3 .4 4.5.5 6.1.4 11.6 5.4 11.7 11.5.1 5.1-.3 10.3-1.1 15.4-1.5 7.3-4.3 9.2-11.7 9.3zm4.8-12.5c2.3-8.6-.8-11.5-11.2-11.4-.6.7-1.3 1.4-1.9 2.2-3 4.1-2.3 6.7 2.6 7.9 3.4.8 6.8.8 10.5 1.3zM91 3.3c2 1.1 2.5 2.7 2.4 5-.1 5.5-2.7 10.3-4 15.4-1.9 7.5-4.1 15-6.1 22.5-.5 1.9-.7 3.9-1.1 5.9-.5 3.2.1 4.7 3.2 5 5.6.5 11.2.8 16.9.6 3.6-.1 4.9.8 4.3 4.3-1 6.2-4.1 8.9-10.1 8.6-4.2-.2-8.3-.4-12.5-.7-5.6-.4-10.6-3.8-9.9-11.2.9-8.7 2.6-17.4 5.1-25.8 2.3-8 4.4-16 6.8-23.9.8-2.6 2-5 5-5.7zm338.7 8.8c.8-4.6-1-8.9 2.7-12.1 3.7 1.5 3.7 1.5 5 11 3.2-.2 6.5-.4 9.8-.5 1.1-.1 2.4-.3 3.3.1.9.6 1.6 1.5 1.8 2.6-.1.9-.6 1.8-1.4 2.2-3.1 1.1-6.2 2-9.4 2.9-1.6.3-3.3.6-4.9.7.4 4.4.6 8.7 1.3 12.8 1.1 6.8.8 13.6.4 20.3-.1 1.3-1.5 2.6-2.5 4.1-3.3-2.7-4.1-5.8-4.3-9.1-.2-4.1.2-8.3-.2-12.4-.4-4.9-1.2-9.8-1.9-15.4-3 .8-5.5 1.5-8 2.2-1.4.5-2.8.9-4.3 1-1.2 0-2.3-.8-3.5-1.3.5-1.1.8-2.7 1.6-3.3 2.7-1.7 5.5-3.1 8.4-4.3 1.9-.5 4-1.1 6.1-1.5zm139.1 3.6c3.4 1.6 3.8 4 3.9 6.6.3 6.1.4 12.3.9 18.4.3 3.8 1.4 7.5 1.7 11.2.1 2.1-.3 4.3-1.2 6.2-.9 2.1-3.1 2.2-4.3.2-1.1-1.6-1.9-3.5-2.2-5.5-.8-8.6-1.4-17.2-1.8-25.9 0-2.8.4-5.6 1.1-8.4.1-.8 1.1-1.6 1.9-2.8zM7.3 119.8c1.3-5.6 3.1-6.9 8.1-5.2 4.7 1.6 9.4 3.5 11.8 8.5.5 1 1.2 2 2.1 2.8 5.5 5.3 5.5 11.9 5 19-.4 6.7-2.8 12.3-7.6 16.8-5.8 5.5-12.5 8.6-20.8 7.9-3-.2-4.9-1.4-5.2-4.2-.5-4.7-.7-9.4-.7-14 0-4.3.6-8.6.9-12.9.3-4.1.4-8.3.7-12.5.3-1.6.7-3.2 1.4-4.8.7-2 2.2-2.2 4.3-1.4zM7 157.1c7.7-.8 13.2-3.5 17.6-8.3 3.9-4.3 4.1-7.9.8-12.4-.7-.9-1.4-1.9-2-2.8-2.2-3.8-5.7-5.4-9.7-6.4-1.8-.5-3.6-1.1-5.1-1.6-.6 10-1.1 20.5-1.6 31.5zM85.2 139c3.2 5.7.7 16.3-4.5 19.8-1.2.8-2.7 1.3-4.2 1.3-4.3-.2-8.6-.6-12.9-1.1-3.1-.3-5.7-2.6-6.3-5.7-.7-3.6-1-7.2-.8-10.8.2-7.1 1.3-14.2 3.2-21.1.3-1.1-.2-2.5-.6-3.7-.9-2.3-.3-4 2-4.3 2.5-.3 5-.4 7.5-.4l14.4-.6c3.4-.2 6.6-.1 9 3-1.3 3.2-4 3.4-6.6 3.7-5.9.6-11.9 1-18.1 1.6-.4 1.5-1 3.4-1.4 5.3s-.8 3.8-1.1 5.7c5.6 2 10.7 1.9 16 .8 2.1-.4 4.3-.3 6.4.1 1.2.3 2.2 1.2 2.7 2.4.1.8-1.1 2.1-2 2.9-.9.5-1.8.9-2.7 1.1zm-2.7 1H64c-.1.4-.1.9-.2 1.4-.6 4.1-.6 4 3.5 5.3 4 1.3 7.8.8 11.7.4l3.5-7.1zm351.2-4.6c.8-4.5 1.7-9 2.5-13.6.7-3.9 1.1-7.9 1.8-11.8.2-1.3.7-2.6 1.5-3.7.8-.8 1.9-1.1 3-1.1.7.1 1.6 1.3 1.7 2.1.3 2.3.3 4.7.1 7-1.3 8.2-2.7 16.4-4.4 24.5-.8 2.7-2 5.3-3.6 7.6-2 3.2-4.9 3.8-7.4.8-3-3.6-5.5-7.5-7.5-11.7-2.5-5.3-4.8-10.6-8.9-15.6-.5 1.5-1 2.6-1.3 3.7-1.7 6.2-3.3 12.5-5 18.7-.4 1.8-1.1 3.5-2.2 5-1 1-2.4 1.5-3.8 1.4-1.5-.3-2.4-1.6-2.2-3.1 0-.1 0-.2.1-.3.8-3.5 1.8-7 2.7-10.6 1-3.7 2.2-7.3 3.1-11 1-4 1.6-8.1 2.4-12.2.2-1.2.5-2.3.9-3.4 1.5-2.9 4.7-4.9 8-1.5 5.6 5.6 8.5 12.6 11.8 19.5 1.5 3.3 3.4 6.3 5.1 9.5l1.6-.2zM615.3 114c1.7.5 2.7.9 3.8 1.1 3.7.7 6.8 3 8.6 6.3 3.2 5.3 4.6 11.5 4.1 17.7-.2 4.1-2.8 7.7-6.7 9.2-6.7 2.9-13.9 4.7-21.2 5.4-3.3.3-5.6-1-6.6-3.9-.4-1.1-.6-2.2-.9-3.4-.8-2.7-.3-3.4 2.5-4.1 5.7-1.4 11.3-2.6 16.9-4.2 3.2-.9 6.4-2 7.3-5.9.8-3.7.3-4.9-3.4-5.6-4-.7-7.7-2-10.5-5.2-2.1-2.2-3.2-5.1-2.9-8.1.4-3.6-.2-7.2 2.4-10.5 3-3.7 7-4.1 10-.4 1 1.3 1.7 2.8 2.2 4.4 1.5 4.2 1.4 4.2-3.2 5.3-.7.3-1.2 1-2.4 1.9zm-121.9 21.6c.3-7.1.5-14.3 1.1-21.4.3-3.1-.1-6.9 4.1-8.2.3-.1.5-.4.6-.7.2-2 1-4 3-4 3-.2 5.9.1 8.8 1 2.2.9 4 2.4 5.3 4.4 6.4 9 8 18.9 4.6 29.3-.9 2.8-3.3 5.5-5.7 7.5-4 3.3-9.1 5.1-14.4 4.9-5.1 0-7.2-2.1-7.7-7.2-.1-1.8-.1-3.7 0-5.5l.3-.1zm7.9-21.9c.6 7.4-1.2 14.3-.5 21.5 4.8.2 8.2-1.8 11.5-4 2.9-1.7 4.1-5.2 2.9-8.3-2.1-6.4-4.7-10.3-13.9-9.2zM267.8 131c-1.6 6.6-3 12.5-4.4 18.4-.7 2.7-1.3 5.5-4.6 6.5-3.2-2.2-2.7-5.3-2.1-8.2 1.2-5.5 2.6-11 4-16.5 1-3.8 2-7.7 3.1-11.5.5-2.2 2.4-3.8 4.6-3.9 2.4-.2 3.7 1.2 4.7 3 2.1 3.9 4.2 8 6.4 11.8 2 3.4 4.2 6.7 6.5 10.1 2.1-1.5 1.2-3.3 1.4-4.9.4-5.1-.2-10.4 2-15.3.6-1.3 1.4-2.5 2.5-3.5 1.2-1.1 2.7-.9 4.2-.1 1.4.7 2 2.5 1.2 3.9-3 8.1-2.5 16.7-3.8 25-.6 3.1-1.5 6.1-2.9 9-1.2 2.8-3.2 3.2-5.6 1.2-1.9-1.6-3.6-3.5-4.9-5.6-3.4-5.3-6.6-10.8-9.9-16.2-.7-.6-1.3-1.5-2.4-3.2zm-54.1-17.2c3.6.6 7.3.9 10.8 1.8 4.4 1.2 6.5 4.8 6.9 9 .7 8-.6 15.7-5.3 22.4-4.2 6.1-9 7.7-16.1 5.9-10-2.6-12.5-6.3-12-16.8.1-4 .7-7.9 2-11.7 3.5-9.5 6.5-10.3 13.7-10.6zM216 141l.1-.5h1c4 .2 5.7-.7 6.3-3.8 1.1-6.3 1-7.3-3.4-8.9-2.7-.8-5.5-1.2-8.3-1.2-2.9-.1-5.5 1.7-6.4 4.4-1 3.2.6 6.6 3.6 7.9 2.3.8 4.7 1.5 7.1 2.1zm330.5-13.1c.2-7.3 1.2-13.3 4.2-18.9 2.6-4.8 4.2-5.7 9.9-5.2 2 .2 3.9.4 5.9.4 6.9.1 12.8 6.6 13.2 14.4.4 5.9-1.2 11.7-4.6 16.5-3.2 4.6-7.6 7.3-13.5 6.3-2.3-.4-4.8-.2-6.8-1.1-5.9-2.4-9.9-6.4-8.3-12.4zm8.4-10.2c-.2 1.4-.3 2.9-.6 4.3-.4 2.2.8 4.4 2.8 5.3 3.2 1.8 6.9 2.5 10.5 1.9 2.3-.2 4-2.1 3.9-4.4-.3-3.4-2.4-6.3-5.5-7.6-3.7-1.2-7.4-1.6-11.1.5zm-195.2-3.6c-2.8-3.5-2.3-5.2 1.7-6.8 7.1-2.8 14.6-2.9 22-3.7 1.3.1 2.4.8 3.1 1.9.8 1.4-.6 2.2-1.7 3.1-4.1 3.4-9.1 2.6-13.8 3.6-1.3.2-2.7.3-4 .4-.3 1.9-.6 3.7-1 5.9 2.9-.2 5.5-.3 8.1-.5 2.3-.3 4.6-.4 6.9-.4 1.4.1 2.7 1.2 4.2 1.9-3.5 5-10.1 6.6-19.9 5.3-2.4 4.9-.7 8.5 4.6 9.3 2.1.2 4.2.2 6.3.1.9-1.7 2-3.4 3.1-5 1.2-1.4 2.8-1 3.5.8 1.3 3.3-1 13.3-3.8 15.5-3 2.3-6.5 2.1-10 1.5-1.3-.3-2.6-.7-3.8-1.3-4.9-1.6-8.1-6.2-8-11.3.3-5.1.9-10.2 1.4-15.4.3-1.8.7-3.4 1.1-4.9zm-178 33.4c2.3 1.7 2 3.5.7 5.3-6.1 8.5-11.1 11.8-22.6 6.2-5.7-2.8-9.4-8.5-9.7-14.8-.4-7 .2-13.9 3.6-20.4 2.3-4.3 6.1-6.4 10.2-8.4 1.3-.4 2.6-.4 3.9 0 2.8.5 3.6 2.1 2.4 4.7-1.8 3.8-4.3 6.8-9.3 5.9-1.6 7.6-2.4 14.5 3.4 20.3 4.4 4.5 9.8 5.2 15.3 2.1.6-.3 1.3-.6 2.1-.9zm155.9-18.8c1 5.8 1.9 11.3 2.8 16.8.4 2.4.1 4.3-3 5.4-6.6-5.8-4.7-14.6-7.2-22.1-4.3-1-9.2-.2-13.3-2.7.9-3.6 3-4.9 7.3-4.6 1 .2 1.9.2 2.9.3.8-.2 1.5-.4 2.3-.8-.3-6.1-.5-12.1-.9-18-.1-1.8-.3-3.5 2-3.9 2-.3 3.2.9 3.8 2.6.7 2 1.2 4.1 1.4 6.3.5 4.2.8 8.5 1.1 12.9 2.5.3 5.1.7 7.5 1.3 1.2.4 3 1.4 3.2 2.4.4 1.9-1.5 2.7-3.2 3-2 .3-4.1.7-6.7 1.1zm131.2-25.3c3-.6 4.4 1 4.9 3.3.9 3.9 1.6 7.8 2.1 11.7.7 5.4.9 10.8 1.6 16.2.3 2.7.2 5.2-1.8 7.5-3.7-.9-4.7-4.1-5.2-7.1-1-5.7-1.5-11.5-2.2-17.3-.2-1.5-.4-3-.7-4.4-.7-3.3-.3-6.9 1.3-9.9zM691.3 2v265.8h276.8V2H691.3zm136.2 218.2h-103V50.8h26.7v145.8h76.3v23.6zM935 74.4h-50.4v145.8h-26.7V74.4h-50.3V50.8h127.3l.1 23.6z" fill="#fff"/></svg>