<svg xmlns="http://www.w3.org/2000/svg" xmlns:xlink="http://www.w3.org/1999/xlink" viewBox="0 0 1057.9 174.1"><defs><path id="a" d="M0 0h1057.8v174.1H0z"/></defs><clipPath id="b"><use xlink:href="#a" overflow="visible"/></clipPath><g clip-path="url(#b)"><defs><path id="c" d="M0 0h1057.8v174.1H0z"/></defs><clipPath id="d"><use xlink:href="#c" overflow="visible"/></clipPath><path clip-path="url(#d)" fill="#fff" d="M133.1 52.1h28.7v83.8H177V52.1h28.7V38.5h-72.6z"/><defs><path id="e" d="M0 0h1057.8v174.1H0z"/></defs><clipPath id="f"><use xlink:href="#e" overflow="visible"/></clipPath><g clip-path="url(#f)"><defs><path id="g" d="M0 0h1057.8v174.1H0z"/></defs><clipPath id="h"><use xlink:href="#g" overflow="visible"/></clipPath><path d="M354 75.7c0-22.5-14.6-37.2-41.2-37.2h-24.7v97.4h15.2v-23.2h9.5c2.4 0 4.8-.1 7-.5l16.5 23.7h18.1l-19.8-27.6c12.7-5.9 19.4-17.5 19.4-32.6m-41.8 23.8h-9V52.1h9c18.4 0 26.1 8.9 26.1 23.6 0 14.9-7.5 23.8-26.1 23.8" clip-path="url(#h)" fill="#fff"/><defs><path id="i" d="M0 0h1057.8v174.1H0z"/></defs><clipPath id="j"><use xlink:href="#i" overflow="visible"/></clipPath><path d="M409.7 123.3c-19.4 0-33.7-15-33.7-36.1 0-20.6 13.9-36.1 33.1-36.1 12.8 0 21 4.6 27.4 13.3l11.7-8.3c-8.4-11.9-20.8-18.9-38.7-18.9-27.6 0-49.3 21.2-49.3 50s21.3 50 48.9 50c18.8 0 31.4-6.6 41.4-19.9l-11.8-8.2c-7.3 9.4-16.5 14.2-29 14.2" clip-path="url(#j)" fill="#fff"/><defs><path id="k" d="M0 0h1057.8v174.1H0z"/></defs><clipPath id="l"><use xlink:href="#k" overflow="visible"/></clipPath><path d="M596.7 75.7c0-22.5-14.7-37.2-41.2-37.2h-24.7v97.4h15.3v-23.2h9.5c2.4 0 4.8-.1 6.9-.5l16.5 23.7h18.1l-19.6-27.6c12.5-5.9 19.2-17.5 19.2-32.6m-41.8 23.8H546V52.1h8.9c18.5 0 26.2 8.9 26.2 23.6 0 14.9-7.6 23.8-26.2 23.8" clip-path="url(#l)" fill="#fff"/><defs><path id="m" d="M0 0h1057.8v174.1H0z"/></defs><clipPath id="n"><use xlink:href="#m" overflow="visible"/></clipPath><path d="M643.3 36.5h-.9L600 135.9h15.3l5.6-13.6h43.2l5.6 13.6h16l-42.4-99.4zm-16.6 72.2l16.1-38.5 15.8 38.5h-31.9z" clip-path="url(#n)" fill="#fff"/><defs><path id="o" d="M0 0h1057.8v174.1H0z"/></defs><clipPath id="p"><use xlink:href="#o" overflow="visible"/></clipPath><path clip-path="url(#p)" fill="#fff" d="M458.7 135.9h63v-13.6h-47.8v-16.5H515V92.5h-41.1V52.1h47.8V38.5h-63z"/><defs><path id="q" d="M0 0h1057.8v174.1H0z"/></defs><clipPath id="r"><use xlink:href="#q" overflow="visible"/></clipPath><path clip-path="url(#r)" fill="#fff" d="M230.4 105.8h41.1V92.5h-41.1V52.1h48.3V38.5h-63.4v97.4h63.5v-13.6h-48.4z"/><defs><path id="s" d="M0 0h1057.8v174.1H0z"/></defs><clipPath id="t"><use xlink:href="#s" overflow="visible"/></clipPath><path d="M90.3 36.5l-36.6 85.8H15.2V38.6H0V136h63.3l5.5-13.6h43.3l5.5 13.6h16.1L91.2 36.6l-.9-.1zm-15.7 72.2l16-38.5 15.8 38.5H74.6z" clip-path="url(#t)" fill="#fff"/><defs><path id="u" d="M0 0h1057.8v174.1H0z"/></defs><clipPath id="v"><use xlink:href="#u" overflow="visible"/></clipPath><g opacity=".5" clip-path="url(#v)"><defs><path id="w" d="M891.9 38.5h65.6v97.1h-65.6z"/></defs><clipPath id="x"><use xlink:href="#w" overflow="visible"/></clipPath><path d="M891.9 38.5h24.2c26.6 0 41.4 14.4 41.4 37 0 22.4-14.9 37-41.4 37h-9.2v23.1h-15V38.5zm23.6 60.6c19 0 26.6-9 26.6-23.7s-7.8-23.7-26.6-23.7h-8.6v47.4h8.6z" clip-path="url(#x)" fill="#fff"/></g><g><defs><path id="y" d="M0 0h1057.8v174.1H0z"/></defs><clipPath id="z"><use xlink:href="#y" overflow="visible"/></clipPath><g opacity=".5" clip-path="url(#z)"><defs><path id="A" d="M963 38h94.8v98.1H963z"/></defs><clipPath id="B"><use xlink:href="#A" overflow="visible"/></clipPath><path d="M963.1 38h1.6l46 54.2 45.6-54.2h1.6v98.1h-14.3V85.7c0-5.4.6-14 .6-14s-4.7 7.3-8.6 11.7l-24.2 29.4h-1.7l-24.2-29.4c-3.7-4.4-8.5-11.7-8.5-11.7s.6 8.6.6 14v50.4h-14.3V38h-.2z" clip-path="url(#B)" fill="#fff"/></g></g><g><defs><path id="C" d="M0 0h1057.8v174.1H0z"/></defs><clipPath id="D"><use xlink:href="#C" overflow="visible"/></clipPath><g opacity=".5" clip-path="url(#D)"><defs><path id="E" d="M702.5 0h172.7v174.1H702.5z"/></defs><clipPath id="F"><use xlink:href="#E" overflow="visible"/></clipPath><path d="M788.8 174c-47.6 0-86.4-39-86.4-87s38.8-87 86.4-87c47.6 0 86.4 39.1 86.4 87 0 48-38.7 87-86.4 87m0-164.1c-42.2 0-76.5 34.6-76.5 77.1s34.3 77.1 76.5 77.1 76.5-34.6 76.5-77.1S831 9.9 788.8 9.9" clip-path="url(#F)" fill="#fff"/><defs><path id="G" d="M702.5 0h172.7v174.1H702.5z"/></defs><clipPath id="H"><use xlink:href="#G" overflow="visible"/></clipPath><path d="M788.8 174c-47.6 0-86.4-39-86.4-87s38.8-87 86.4-87c47.6 0 86.4 39 86.4 87s-38.7 87-86.4 87m0-164.1c-42.2 0-76.5 34.6-76.5 77.1s34.3 77.1 76.5 77.1 76.5-34.6 76.5-77.1S831 9.9 788.8 9.9" clip-path="url(#H)" fill="#fff"/><defs><path id="I" d="M702.5 0h172.7v174.1H702.5z"/></defs><clipPath id="J"><use xlink:href="#I" overflow="visible"/></clipPath><path d="M793.8 80.9c0 2.3-1.8 4.1-4 4.1s-4-1.8-4-4.1v-50c0-2.2 1.8-4.1 4-4.1s4 1.8 4 4.1v50z" clip-path="url(#J)" fill="#fff"/><defs><path id="K" d="M702.5 0h172.7v174.1H702.5z"/></defs><clipPath id="L"><use xlink:href="#K" overflow="visible"/></clipPath><path d="M813.6 51.3c1.2-1.2 3.4-.9 5 .7s1.9 3.9.7 5.1l-26.6 26.8c-1.2 1.2-3.5.9-5-.7-1.6-1.6-1.9-3.9-.7-5.1l26.6-26.8z" clip-path="url(#L)" fill="#fff"/></g></g></g></g></svg>