<svg version="1.1" id="Layer_1" xmlns="http://www.w3.org/2000/svg" x="0" y="0" viewBox="0 0 437.4 135.1" xml:space="preserve"><style>.st0{fill:#b2292e}.st2{fill:#1c1c1b}</style><path class="st0" d="M0 55.4h65.6v63H0z"/><path d="M7.9 67h6.3v34.5h18v5.6H7.9zm31.6 5.6H27.6V67h30.1v5.6H45.8v34.5h-6.3z" fill="#fff"/><path class="st0" d="M15.5 123.5h-2.8v-1.3h7v1.3h-2.8v8h-1.4zm18.4 8h-1.7l-1.6-2.2H29v2.2h-1.4v-9.2H30c2.5 0 3.9 1.4 3.9 3.5.1 1.3-.7 2.5-1.9 3.1l1.9 2.6zm-4-3.5c1.8 0 2.5-.8 2.5-2.3s-.7-2.2-2.5-2.2H29v4.5h.9zm4.6-1.2c-.1-2.6 2-4.7 4.5-4.7h.2c1.5-.1 2.9.6 3.7 1.8l-1.1.8c-.6-.9-1.6-1.3-2.6-1.3-1.9.1-3.3 1.7-3.2 3.6.1 1.7 1.5 3.1 3.3 3.2 1.1 0 2.1-.5 2.8-1.3l1.1.8c-.9 1.3-2.4 2-4 1.9-2.5 0-4.6-2-4.7-4.5-.1-.1-.1-.2 0-.3m22.6 4.7h-1.7l-1.6-2.2h-1.6v2.2h-1.4v-9.2h2.4c2.5 0 4 1.4 4 3.5.1 1.3-.7 2.5-1.9 3.1l1.8 2.6zm-4-3.5c1.8 0 2.5-.8 2.5-2.3s-.7-2.2-2.5-2.2h-.9v4.5h.9zm5.8 3.5h-1.5l4-9.4h.1l4.1 9.4H64l-.5-1.3h-4.1l-.5 1.3zm2.6-6.3l-1.5 3.7h3l-1.5-3.7zm-11.6 5h-4.6v-1.6h3.9v-1.3h-3.9v-3.8h4.6v-1.3h-6v9.3h6zM22 128.6h4v-1.3h-4v-3.8h4.7v-1.3h-6.1v9.3h6.1v-1.3H22zm-22-6.4h1.5v8h4.1v1.3H0z"/><path class="st0" d="M6.1 131.5H4.6l4.1-9.4h.1l4.1 9.4h-1.5l-.5-1.3H6.6l-.5 1.3zm2.6-6.3l-1.5 3.6h3l-1.5-3.6z"/><path class="st2" d="M88.8 75.3H76.1v-20h12.7V29.7C88.8 10 98.1 0 116.9 0c10.7 0 17.9 3.2 23.4 9.7l-13.1 16.1c-1.8-2.1-3.9-4.1-7.7-4.1-3.9 0-6.6 2.1-6.6 7.7v25.9h20.6v20H113v56.3H88.8V75.3z"/><path class="st2" d="M135.9 27.4c0-8.4 6.8-15.3 15.2-15.4 8.4 0 15.3 6.8 15.4 15.2 0 8.4-6.8 15.3-15.2 15.4-8.3.2-15.2-6.4-15.4-14.8v-.4zm3.2 27.9h24.1v76.3h-24.1V55.3zm28.8 0H192l-.5 12.5c4.6-9.1 13.6-14.1 24.1-14.1 16.6 0 28.6 12.2 28.6 33.8v44h-24.1V89.1c0-8.6-4.1-13.4-12.7-13.4-9.7 0-15.4 5.4-15.4 15v40.9h-24.1V55.3zm78.4 39.9c0-23.4 15.8-39.5 34.2-39.5 12.2 0 19 4.8 23.8 12.3V4.3h24.2v129.2h-24.2l.5-11.1c-4.3 8-12.4 12.7-24 12.7-18.6 0-34.5-16.5-34.5-39.9zm58.7 0c0-11.3-6.8-18.3-17.2-18.3-10.2 0-16.6 7-16.6 18.3 0 12 6.4 18.8 16.6 18.8 10.4 0 17.2-6.8 17.2-18.8zm68.4 19.6c6.9 0 13.5-2.2 19.1-6.2l13.9 14.8c-7.3 6.5-16.6 11.4-32.5 11.5-27.2.2-44.8-16.2-45-39.6-.1-23.1 18.2-39.7 41.8-39.8 27.4-.2 42.3 20.1 40.7 46.8l-57.8.4c2.4 7.8 8.9 12.2 19.8 12.1zM387 88.4c-1.1-8.4-6.5-13.4-16-13.3-9.5.1-15.9 4.4-17.8 13.5l33.8-.2z"/><path class="st2" d="M407.2 117.4c0-8.4 6.9-15.1 15.2-15 8.4 0 15.1 6.9 15 15.2 0 8.3-6.7 15-15 15-8.2.2-15.1-6.4-15.2-14.6v-.6z"/></svg>