<?xml version="1.0" encoding="utf-8"?>
<!-- Generator: Adobe Illustrator 23.0.1, SVG Export Plug-In . SVG Version: 6.00 Build 0)  -->
<svg version="1.1" id="Layer_1" xmlns="http://www.w3.org/2000/svg" xmlns:xlink="http://www.w3.org/1999/xlink" x="0px" y="0px"
	 viewBox="0 0 142.2 142.3" style="enable-background:new 0 0 142.2 142.3;" xml:space="preserve">
<style type="text/css">
	.st0{fill:#D42732;}
</style>
<title>Logo_Copesa_corto_02</title>
<path class="st0" d="M8.3,24L8.3,24c1.8-3.3,4.2-6.3,7-8.8C32.5-2.1,59.9-4.2,85.2,6.7l1.1,7.3C69,6.7,51.1,7.8,40.5,18.5
	c-3.6,3.7-6.2,8.3-7.7,13.2L8.3,24z M128,55.9L128,55.9c7.3,17.2,6.2,35.2-4.4,45.9c-1.4,1.6-3.2,3-5.1,4l9.9,20.2
	c16.1-17.2,17.9-44,6.9-69L128,55.9z M110.4,109.5L110.4,109.5c-16.8,5.1-39.9-2.2-57.5-20.2c-15-15-22.7-34.1-21.6-49.9L3.1,34.6
	C-5.3,58.8,3.5,91.1,27.3,115c27.5,27.5,65.5,34.8,90.8,19.4L110.4,109.5z"/>
</svg>
