<?xml version="1.0" encoding="utf-8"?>
<!-- Generator: Adobe Illustrator 23.0.1, SVG Export Plug-In . SVG Version: 6.00 Build 0)  -->
<svg version="1.1" id="Layer_1" xmlns="http://www.w3.org/2000/svg" xmlns:xlink="http://www.w3.org/1999/xlink" x="0px" y="0px"
	 viewBox="0 0 991.6 116.9" style="enable-background:new 0 0 991.6 116.9;" xml:space="preserve">
<style type="text/css">
	.st0{fill:#FFFFFF;}
	.st1{fill:#B2292E;}
</style>
<title>Logo_MtMotores_color_white_RGB</title>
<path class="st0" d="M969,114.3c4.4-1.4,8.5-3.5,12.2-6.4c3.2-2.6,5.8-5.8,7.7-9.5c1.8-3.7,2.7-7.7,2.7-11.8v-0.3
	c0.1-3.6-0.6-7.1-1.9-10.4c-1.4-3.3-3.7-6.1-6.5-8.2c-3.7-2.8-7.8-4.9-12.1-6.4c-6-2.2-12.2-3.9-18.5-5.1
	c-5.9-1.1-11.7-2.6-17.4-4.6c-4-1.3-7.8-3.2-11.2-5.7c-2.6-1.8-4.7-4.3-6.1-7.2c-1.2-2.9-1.8-6-1.8-9.2v-0.3c0-3.3,0.8-6.6,2.3-9.6
	c1.6-3.2,3.9-5.9,6.7-8.2c3.1-2.5,6.6-4.4,10.4-5.7c4.3-1.4,8.9-2.1,13.5-2.1c6.7-0.1,13.4,1.1,19.7,3.5c6,2.2,11.7,5.3,16.8,9.1
	l2.2-2.9c-5.3-4-11.2-7.2-17.5-9.4c-6.7-2.3-13.8-3.5-20.9-3.5c-5-0.1-10,0.7-14.8,2.3c-4.2,1.4-8.1,3.5-11.6,6.2
	c-3.2,2.5-5.8,5.6-7.7,9.2c-1.8,3.5-2.8,7.3-2.8,11.2v0.3c-0.1,3.6,0.6,7.2,2.1,10.6c1.5,3.2,3.8,6,6.7,8.2c3.7,2.7,7.7,4.8,12,6.2
	c5.8,2,11.8,3.6,17.8,4.8c6,1.2,12,2.8,17.8,4.8c4.1,1.3,7.9,3.2,11.4,5.7c2.6,1.9,4.7,4.4,6,7.3c1.2,2.9,1.8,6.1,1.8,9.3v0.3
	c0,3.7-0.8,7.3-2.4,10.6c-1.6,3.3-4,6.2-6.9,8.5c-3.3,2.5-7,4.4-11,5.6c-4.7,1.4-9.5,2.1-14.4,2c-7.9,0.1-15.8-1.4-23.2-4.5
	c-7.2-3.1-13.8-7.5-19.4-12.9l-2.6,2.6c5.9,5.7,12.8,10.2,20.4,13.4c7.7,3.2,16,4.8,24.3,4.7C958.4,116.7,963.8,115.9,969,114.3"/>
<path class="st0" d="M828.9,59.8h8.8l0,0h63.2v-3.2h-72 M837.7,5.2h70.1V2h-78.9v3.2L837.7,5.2z M908.7,115v-3.2h-79.8v3.2H908.7z"
	/>
<path class="st0" d="M817.4,46.7c1.9-4,2.8-8.3,2.8-12.8v-0.3c0-8.6-2.7-15.6-8.1-21C805,5.5,794.2,2,779.6,2h-46.2v113h3.5V5.2
	h42.3c11.7,0,20.9,2.5,27.5,7.5c6.6,5,9.8,12,9.8,21.1v0.3c0,3.8-0.8,7.6-2.3,11.1c-1.6,3.5-4.1,6.6-7.2,9c-3.6,2.8-7.7,4.8-12.1,6
	c-5.2,1.5-10.6,2.2-16,2.2v3.2l0,0l37.5,49.4h4.4l-37.6-49.4c5.1-0.2,10.2-1.2,15-2.8c4.2-1.4,8.2-3.6,11.6-6.4
	C813,53.7,815.6,50.4,817.4,46.7"/>
<path class="st0" d="M670,0c-15.5-0.3-30.4,6.1-40.9,17.6c-4.9,5.4-8.8,11.7-11.3,18.6c-2.6,7.1-4,14.6-4,22.1v0.3
	c0,7.5,1.3,15,4,22.1c2.5,6.9,6.4,13.2,11.3,18.6c10.5,11.5,25.4,17.9,40.9,17.6c8,0.1,15.9-1.5,23.2-4.8c6.7-3,12.8-7.4,17.8-12.8
	c4.9-5.4,8.8-11.7,11.3-18.5c2.2-5.9,3.5-12.2,3.9-18.5h-3.5c-0.3,6-1.5,11.9-3.6,17.5c-4.8,13.1-14.6,23.7-27.3,29.5
	c-13.7,6.1-29.3,6-43-0.1c-6.3-2.9-12-7.1-16.7-12.2c-4.7-5.1-8.3-11.1-10.7-17.6c-2.5-6.7-3.8-13.7-3.8-20.8v-0.3
	c0-7.1,1.2-14.2,3.7-20.8c2.4-6.5,6-12.4,10.7-17.5c4.7-5,10.3-9.1,16.5-12c6.8-3.1,14.1-4.6,21.6-4.5h0.2"/>
<path class="st0" d="M503.5,116.9c15.5,0.3,30.5-6.1,40.9-17.6c4.9-5.4,8.8-11.7,11.3-18.6c2.7-7.1,4-14.6,4-22.1v-0.3
	c0-7.6-1.3-15.1-4-22.1c-2.5-6.9-6.4-13.2-11.3-18.6C533.9,6.1,519-0.3,503.5,0c-8-0.1-15.9,1.5-23.2,4.8c-6.7,3-12.8,7.4-17.8,12.8
	c-4.9,5.4-8.7,11.7-11.3,18.6c-2.2,5.9-3.5,12.2-3.8,18.5h3.5c0.3-6,1.5-11.9,3.6-17.5c2.4-6.4,6-12.4,10.6-17.4
	c4.7-5,10.4-9.1,16.6-12c13.7-6.1,29.3-6,43,0.1c6.3,2.9,12,7.1,16.7,12.2c4.7,5.1,8.3,11.1,10.7,17.6c2.5,6.6,3.8,13.7,3.8,20.8
	v0.3c0,7.1-1.2,14.2-3.7,20.8c-4.8,13.1-14.5,23.7-27.2,29.5c-6.8,3.1-14.1,4.6-21.5,4.5h-0.2"/>
<polyline class="st0" points="585,115 588.5,115 588.5,5.2 629.3,5.2 629.3,2 544.1,2 544.1,5.2 585,5.2 "/>
<path class="st0" d="M334.1,115h3.5V34.4h-3.5V115z M439.2,115V2H436l-49.2,70l-38.1-54.2l-1.6,3.4l39.6,56.4h0.2l48.9-69.8V115
	H439.2z"/>
<polyline class="st0" points="337.4,28.6 350.7,1.2 208.7,1.2 180.2,65.8 149.9,1.2 117.8,1.2 117.8,115 150,115 149.9,57.6 
	172.1,115 187.7,115 209.9,57.6 210.1,115 242,115 242,28.6 272.8,28.6 272.8,28.5 272.9,28.5 272.9,115 307.8,115 307.8,28.6 "/>
<rect y="1.2" class="st1" width="98.1" height="94.2"/>
<polygon class="st0" points="11.7,18.5 21.2,18.5 21.2,70.1 48.2,70.1 48.2,78.5 11.7,78.5 "/>
<polygon class="st0" points="59,26.8 41.2,26.8 41.2,18.5 86.3,18.5 86.3,26.8 68.5,26.8 68.5,78.5 59,78.5 "/>
<polygon class="st1" points="23.1,103 19,103 19,101.1 29.4,101.1 29.4,103 25.3,103 25.3,114.9 23.1,114.9 "/>
<path class="st1" d="M50.7,114.9h-2.6l-2.4-3.4c-0.3,0.1-0.7,0.1-1,0.1h-1.4v3.3h-2.2v-13.8h3.5c3.8,0,5.9,2.1,5.9,5.3
	c0.1,2-1,3.8-2.8,4.6L50.7,114.9z M44.7,109.8c2.7,0,3.7-1.2,3.7-3.4s-1.1-3.4-3.7-3.4h-1.3v6.7L44.7,109.8z"/>
<path class="st1" d="M51.5,108c-0.1-3.8,3-7,6.8-7.1c0.1,0,0.2,0,0.3,0c2.2-0.1,4.3,0.9,5.5,2.7l-1.7,1.2c-0.9-1.3-2.4-2-3.9-1.9
	c-2.8,0.2-4.9,2.7-4.7,5.5c0.2,2.5,2.2,4.5,4.8,4.7c1.6,0.1,3.2-0.7,4.2-2l1.7,1.2c-1.4,1.9-3.6,3-5.9,2.8c-3.8,0.1-6.9-3-7-6.8
	C51.5,108.2,51.5,108.1,51.5,108"/>
<path class="st1" d="M85.4,114.9h-2.6l-2.4-3.4c-0.3,0-0.7,0.1-1,0.1h-1.4v3.3h-2.2v-13.8h3.5c3.8,0,5.9,2.1,5.9,5.3
	c0.1,2-1,3.8-2.8,4.6L85.4,114.9z M79.4,109.8c2.7,0,3.7-1.2,3.7-3.4S82,103,79.4,103h-1.3v6.7H79.4z"/>
<path class="st1" d="M88,114.9h-2.2l6.1-14.1H92l6.1,14.1h-2.3L95,113h-6.2L88,114.9z M91.9,105.6l-2.3,5.5h4.6L91.9,105.6z"/>
<polygon class="st1" points="74.6,113 67.8,113 67.8,110.7 73.7,110.7 73.7,108.8 67.8,108.8 67.8,103 74.6,103 74.6,101.1 
	65.6,101.1 65.6,114.9 74.6,114.9 "/>
<polygon class="st1" points="33,110.7 38.8,110.7 38.8,108.8 33,108.8 33,103 39.9,103 39.9,101.1 30.8,101.1 30.8,114.9 
	39.9,114.9 39.9,113 33,113 "/>
<polygon class="st1" points="0,101.1 2.2,101.1 2.2,113 8.4,113 8.4,114.9 0,114.9 "/>
<path class="st1" d="M9,114.9H6.9l6.1-14.1H13l6.1,14.1h-2.3L16,113H9.8L9,114.9z M13,105.6l-2.3,5.5h4.5L13,105.6z"/>
</svg>
