<svg version="1.1" id="Layer_1" xmlns="http://www.w3.org/2000/svg" x="0" y="0" viewBox="0 0 636.8 244.5" xml:space="preserve"><style>.st0{fill:#fff}</style><path class="st0" d="M393 70.4c-1.5-5.8-3.6-14.2-5.1-20.9h-.2c-1.5 6.7-3.6 15.2-5.1 20.8l-4.1 16.5h18.7L393 70.4zm-43.3 114c-4.7.2-7.5 4.8-7.5 11.1 0 6.5 2.4 12.8 7.6 12.8 5.9 0 8.6-3.7 8.5-11.7s-3.5-12.4-8.6-12.2zM90.3 168.3h-9.7v20h10.1c6.4 0 9.5-4 9.5-9.7 0-8-4-10.3-9.9-10.3zM270.4 61.9c0-10-4.2-12.4-11.6-12.4h-8.5V76h6.7c10.2 0 13.4-3.6 13.4-14.1zm255 123.2c-4.4 0-7 3.6-7.5 7.7h14.9c-.3-3.9-2.5-7.7-7.4-7.7zm9.4-72.6c10.8 0 16.3-6.9 16.3-32.2 0-25-5.4-31.9-16.3-31.9-10.5 0-16.4 6.9-16.4 31.9 0 25.4 5.9 32.2 16.4 32.2zm-404.9 86.4c-3.5.7-6.4 1.8-6.4 5.6 0 3.1 2.7 5.1 6 5.1 4.3 0 9.9-2.3 9.9-7.5v-5.8c-1.4.7-2.9 1.2-4.4 1.5l-5.1 1.1z"/><path class="st0" d="M636 121c-10-4.2-17.1-13.4-18.6-24.1V74.2c0-40.9-31.3-74.2-69.8-74.2H89.2C50.7 0 19.3 33.3 19.3 74.2v22.7c-1.5 10.8-8.5 20-18.5 24.2-.5.2-.8.7-.8 1.2s.3 1 .8 1.2c10 4.2 17.1 13.4 18.6 24.2v22.7c0 40.9 31.3 74.2 69.9 74.2h458.4c38.5 0 69.8-33.3 69.8-74.2v-22.7c1.5-10.8 8.5-20 18.6-24.2.5-.2.8-.7.8-1.2-.1-.6-.4-1-.9-1.3zM534.8 35.9c16.4 0 32.3 9.6 32.3 44.4 0 32.8-13 44.8-32.3 44.8s-32.3-11.9-32.3-44.8c0-34.8 15.9-44.4 32.3-44.4zm-102.3 1.3H458c21.6 0 33.7 16.4 33.7 43.2s-12.1 43.3-33.7 43.3h-25.5V37.2zm-54.1 0h19.9l24.4 86.5h-15.9l-6.4-24.5h-25.1l-6.3 24.5h-15.3l24.7-86.5zm-46.8-1c5.8.1 11.6 1.1 17.1 2.9v10.4h-14.5c-13.6 0-19.4 9.3-19.4 30.9s6.1 30.9 19.4 30.9h14.5v10.4c-5.5 1.9-11.3 2.8-17.1 2.9-20 0-32.6-13.5-32.6-44.3 0-30.4 12.6-44.1 32.6-44.1zm-96.4 1h24.4c18.2 0 26.6 8.7 26.6 23.9 0 12.5-6.6 20-16.2 21.8v.2c6 3.4 9.5 8.1 12.6 16.7l8.6 23.8h-16.4l-8-24.7c-2.4-7.6-5.6-11-11.3-11h-5.2v35.6h-15.1V37.2zm-59.6 0h45.1v12.3h-29.9V73h26.8v12.5h-26.8v25.9h29.9v12.4h-45.1V37.2zm-96.5 0h21l12 48.8c2 8.3 3.6 16.8 4.8 25.3h.2c1.1-7.1 2.8-16.4 5-25.3l11.7-48.8h20.7l6.7 86.5h-14.7l-3.8-73.5h-.2C141.4 58 139 69.9 137 78l-11.4 45.7h-18L96.5 78c-1.9-8.1-4.3-20-5.4-27.8h-.2l-4.3 73.5H72.2l6.9-86.5zm-6.9 104.4h494.9c.7 0 1.3.6 1.3 1.3 0 .7-.6 1.3-1.3 1.3H72.2c-.7 0-1.3-.6-1.3-1.3 0-.7.6-1.3 1.3-1.3zm20.4 55.7h-12v19.4H70.4v-57.5h21.5c12.7 0 18.9 8.2 18.9 19.4.1 11.4-7.5 18.8-18.2 18.7zm47.7 19.4c-.6-1.1-.9-2.4-.9-3.7-3.5 3.1-7.9 4.7-12.5 4.7-7.3 0-13.1-4.9-13.1-12.8s6-11.5 11.7-12.8l3.9-.8c3.4-.6 6.7-1.4 10.1-2.4v-1.2c0-4-3.3-5.2-7.3-5.2-5.4 0-7.2 1.7-7.2 6.1l-9.3-.4c0-9.6 8-13.3 16.4-13.3 8.3 0 16.6 1.8 16.6 13.4v21.6c0 4.2.9 6 1.4 6.9h-9.8zm51.6 0h-9.3v-4h-.1c-2.1 2.8-5.8 5-11 5-6.6 0-14.1-2.9-14.1-14.8v-27.1h9.3V200c0 5.7 2.1 8.1 6.9 8.1 7 0 9.1-5.4 9.1-10.3v-22h9.3l-.1 40.9zm18.4 0H201v-57.5h9.3v57.5zm33 0c-.6-1.1-.9-2.4-.9-3.7-3.5 3.1-7.9 4.7-12.5 4.7-7.3 0-13.1-4.9-13.1-12.8s6-11.5 11.7-12.8l3.9-.8c3.4-.6 6.7-1.4 10-2.4v-1.2c0-4-3.3-5.2-7.3-5.2-5.4 0-7.2 1.7-7.2 6.1l-9.3-.4c0-9.6 8-13.3 16.4-13.3 8.3 0 16.6 1.8 16.6 13.4v21.6c0 4.2.9 6 1.5 6.9h-9.8zm28.1 0h-10.2v-11.1h10.2v11.1zm47.6-.7l-1.5-7.8s-1.6 8.7-13.6 8.7c-14.5 0-23.4-9.7-23.2-28.2.2-16.8 9.7-25.9 23.6-25.9 16.7 0 20.6 13.5 20.6 13.5l-9.3 2.9s-1.2-7.2-11.5-7.2c-11.9 0-13.1 11.9-13.1 17.6 0 4.6 1.1 9.8 3.2 12.8 4.7 6.5 14.9 6.5 19.3 2.4 3.2-3 3-9.1 3-9.1h-10.8l-.1-9.4h20.7v29.8l-7.3-.1zm31.4.9c-9.5.2-18.4-6.2-18.7-19.7-.4-14.7 10.6-20.4 18.1-20.4 12.4 0 19.4 9 19.4 20 0 8.6-3.3 19.8-18.8 20.1zm57.9-.8h-10v-5.4s-2.6 6.1-11 6.1c-6.1 0-11.3-2.8-12.9-10.2-.6-3.9-.8-7.9-.7-11.9V178h10.5l.1 20.8c0 8.3 2.7 10.8 6.9 10.2 3.1-.3 5.6-2.5 6.4-5.5.6-1.9.5-3.8.5-9V178h10.3l-.1 38.1zm29.5-28.8c-3.6-2.5-8.5-1.5-11 2-.4.7-.8 1.4-1 2.1-.6 1.9-.5 2.9-.5 8v16.5H415v-38.1h10v5.6s2.6-6 10.9-6c4 0 5.7 1.1 5.7 1.1l-3.8 8.8zm54.6 28.6l-.2-20.8c0-8.3-2.1-11.2-6.5-10.5-3.1.7-5.4 3.2-6.1 6.3-.3 1.7-.2 3.4-.2 8.6v16.6l-9.8-.1-.1-20.8c0-8.2-2.7-10.7-6.5-10.2-3.1.3-5.6 2.5-6.4 5.5-.6 1.9-.5 3.8-.5 9v16.6h-10.3v-38h10v5.4s2.6-6.1 11-6.1c4.8 0 9 1.7 11.4 6.1 0 0 2.6-6.1 11-6.1 6.2 0 11.3 2.8 12.9 10.2.6 3.9.8 7.9.7 11.9V216l-10.4-.1zm50.6-15.5l-9.5-.1h-15.6c.3 4.6 3.7 8 7.5 8 3.3.2 6.3-1.5 7.9-4.4l8.7 4.2s-3.7 8.8-16.2 8.7c-7.7-.1-12.9-3.4-16.1-9.2-2.9-5.1-3.5-16 .4-22.1 3.2-5.4 9-8.6 15.3-8.4 7.2 0 11.6 2.6 14.8 8.3 3 5.6 2.7 15 2.8 15zm7.7 3V190l.2-3.9-5.5.2v-8.8l5.5.1-.1-5.5v-6.5l10.1-2.1v8.7l-.2 5.5 4.3-.1h4v8.8h-4.4l-3.9-.2.2 4.9v7.1c-.1 1.9 0 3.8.1 5.8.6 4.6 7.3 2.5 7.3 2.5l1.5 9.6c-17.2 3.2-19.1-6.2-19.1-12.7z"/><path class="st0" d="M232.8 198.9c-3.5.7-6.4 1.8-6.4 5.6 0 3.1 2.7 5.1 6 5.1 4.3 0 9.9-2.3 9.9-7.5v-5.8c-1.4.7-2.9 1.2-4.4 1.5l-5.1 1.1zM475.7 80.4c0-27.3-9.6-30.9-18.1-30.9h-10v61.8h10c8.4 0 18.1-3.6 18.1-30.9z"/></svg>