<?xml version="1.0" encoding="utf-8"?>
<!-- Generator: Adobe Illustrator 23.0.1, SVG Export Plug-In . SVG Version: 6.00 Build 0)  -->
<svg version="1.1" id="Layer_1" xmlns="http://www.w3.org/2000/svg" xmlns:xlink="http://www.w3.org/1999/xlink" x="0px" y="0px"
	 viewBox="0 0 844 211.8" style="enable-background:new 0 0 844 211.8;" xml:space="preserve">
<style type="text/css">
	.st0{fill:#EB1B24;}
	.st1{fill:#626365;}
</style>
<title>Logo_LaCuarta_original_RGB</title>
<path class="st0" d="M182.7,49.8c-4.2-4-9.3-7-14.9-8.7c-7-2.1-14.3-3-21.7-2.9c-8.6,0-16,0.9-22,2.8c-5.6,1.6-10.8,4.4-15.2,8.2
	c-3.9,3.5-6.9,7.9-8.6,12.8c-1.8,5.1-2.7,10.4-2.8,15.7l-0.1,3.1h31.2l0.4-2.6c0.4-3.6,1.9-6.9,4.3-9.5c2.1-2.2,6-3.3,11.5-3.3
	c4.8,0,8.5,0.8,11.2,2.4c2.3,1.4,3.3,3,3.3,5.3c0,3.5-1.3,4.8-2.3,5.4c-1.4,0.9-4.7,2.3-12.7,3.4c-6.9,1-13.4,2.1-19.3,3.3
	c-5.7,1.1-11.1,3.1-16.1,6c-4.7,2.8-8.5,6.8-11,11.6c-2.6,4.9-4,11.4-4,19.3c0,9.3,3.1,16.9,9.3,22.8s15.7,8.7,28.4,8.7
	c6.7,0.1,13.4-1.1,19.7-3.5c3.4-1.4,6.6-3.2,9.5-5.4c0.3,1.4,0.6,2.7,1,4l0.7,2.1h30.8V82.2c0.1-6.2-0.7-12.3-2.5-18.3
	C189.4,58.6,186.6,53.8,182.7,49.8 M159.8,102.5l-0.1,5.9c0,2.6-0.6,5.1-1.7,7.4c-1.1,2.4-2.7,4.5-4.6,6.3c-2,1.8-4.3,3.3-6.9,4.2
	c-2.8,1.1-5.7,1.6-8.7,1.6c-9.1,0-10.3-4.3-10.3-8.6c0-3.6,1.1-6.2,3.3-8c1.8-1.4,5.8-3.5,14.9-5.3c4-0.7,8-1.7,12-2.8
	C158.5,103.1,159.2,102.8,159.8,102.5"/>
<path class="st0" d="M339.9,99.1c-1.8,8.2-5.2,14.5-9.9,18.8c-4.8,4.3-11.1,6.3-19,6.3c-10.4,0-18-3.8-23.1-11.6
	c-5.3-8.1-8-19.8-8-34.8c0-14.7,2.7-26.3,8.2-34.6c5.2-8,13.2-11.8,24.5-11.8c6.2-0.1,12.3,2.1,17.1,6c5.1,4,8.5,9.7,10.3,17
	l0.6,2.3h35l-0.3-3.3c-0.7-7.2-2.7-14.3-5.9-20.9c-3.2-6.5-7.6-12.3-13-17.1c-5.7-5-12.2-8.8-19.3-11.3c-8-2.8-16.4-4.2-24.8-4.1
	c-9.7-0.1-19.4,1.8-28.3,5.5c-8.3,3.6-15.7,9-21.7,15.9c-6.2,7.4-10.8,15.9-13.6,25.1c-3.2,10.7-4.8,21.8-4.7,32.9
	c0,12.4,1.7,23.4,5.1,32.8c3.1,8.9,7.9,17,14.3,23.9c6.1,6.5,13.5,11.6,21.8,14.7c8.5,3.3,17.6,4.9,26.7,4.9c8,0.1,15.9-1.3,23.4-4
	c7-2.6,13.4-6.4,18.9-11.4c5.5-5,10-10.9,13.4-17.5c3.6-7.1,6.2-14.7,7.7-22.6l0.7-3.6h-35.5L339.9,99.1z"/>
<path class="st0" d="M453.6,104c0,6.2-1.5,11.2-4.7,15.1c-3,3.7-7.5,5.5-13.6,5.5c-10,0-14.5-5.1-14.5-16.4V41h-33.5v71.4
	c-0.1,5.7,0.9,11.3,2.8,16.7c1.8,4.8,4.5,9.2,7.9,13c3.4,3.7,7.5,6.6,12.1,8.5c4.9,2,10.1,3.1,15.4,3c12.1,0,22-3.8,29.3-11.4v8.7
	h32V41h-33.3V104z"/>
<path class="st0" d="M582,49.8c-4.2-4-9.3-7-14.9-8.7c-7.1-2.1-14.4-3-21.7-2.9c-8.6,0-16,0.9-22,2.8c-5.6,1.6-10.8,4.3-15.2,8.2
	c-3.9,3.5-6.9,7.9-8.6,12.8c-1.8,5.1-2.7,10.4-2.8,15.7l-0.1,3.1h31.2l0.4-2.6c0.4-3.6,1.9-6.9,4.3-9.5c2.1-2.2,6-3.3,11.5-3.3
	c4.8,0,8.5,0.8,11.2,2.4c2.3,1.4,3.3,3,3.3,5.3c0,3.5-1.3,4.8-2.3,5.4c-1.4,0.9-4.7,2.3-12.7,3.4c-6.9,1-13.4,2.1-19.3,3.3
	c-5.6,1.1-11,3.1-16,6c-4.7,2.8-8.5,6.8-11,11.6c-2.6,4.9-4,11.4-4,19.3c0,9.3,3.1,16.9,9.3,22.8s15.7,8.8,28.4,8.8
	c6.7,0.1,13.4-1.1,19.7-3.5c3.4-1.3,6.6-3.2,9.5-5.4c0.3,1.4,0.6,2.7,1,4l0.7,2.1h30.8V82.2c0.1-6.2-0.8-12.3-2.5-18.3
	C588.6,58.6,585.8,53.8,582,49.8 M537.1,128c-9.1,0-10.3-4.3-10.3-8.6c0-3.6,1.1-6.2,3.3-8c1.8-1.4,5.8-3.5,14.9-5.3
	c4-0.7,8-1.7,12-2.8c0.7-0.2,1.4-0.5,2.1-0.8l-0.1,5.9c0,2.6-0.6,5.1-1.7,7.4c-1.1,2.4-2.7,4.5-4.6,6.3c-2,1.8-4.3,3.3-6.9,4.2
	C543,127.5,540.1,128,537.1,128"/>
<path class="st0" d="M840.6,64c-1.5-5.3-4.4-10.2-8.2-14.1c-4.2-4-9.3-7-14.9-8.7c-7.1-2.1-14.4-3-21.7-2.9c-8.6,0-16,0.9-22,2.8
	c-5.6,1.6-10.8,4.4-15.2,8.2c-3.9,3.5-6.9,7.9-8.6,12.8c-1.7,5.1-2.7,10.4-2.8,15.7l-0.1,3.1h31.2l0.4-2.6c0.4-3.6,1.9-6.9,4.3-9.5
	c2.1-2.2,6-3.3,11.5-3.3c4.8,0,8.6,0.8,11.2,2.4c2.3,1.4,3.3,3,3.3,5.3c0,3.5-1.3,4.8-2.3,5.4c-1.4,0.9-4.7,2.3-12.7,3.4
	c-6.9,1-13.4,2.1-19.3,3.3c-5.6,1.1-11,3.1-16,6c-4.7,2.8-8.5,6.8-11,11.6c-2.6,4.9-4,11.4-4,19.3c0,9.3,3.1,16.9,9.3,22.8
	s15.7,8.8,28.4,8.8c6.7,0.1,13.4-1.1,19.7-3.5c3.4-1.3,6.6-3.2,9.5-5.4c0.3,1.4,0.6,2.7,1,4l0.7,2.1h30.8V82.2
	C843.1,76.1,842.3,69.9,840.6,64 M787.5,128c-9.1,0-10.3-4.3-10.3-8.6c0-3.6,1.1-6.2,3.3-8c1.8-1.4,5.8-3.5,14.9-5.3
	c4-0.7,8.1-1.7,12-2.8c0.7-0.2,1.4-0.5,2.1-0.8l-0.1,5.9c0,2.6-0.6,5.1-1.7,7.4c-1.1,2.4-2.7,4.5-4.6,6.3c-2,1.8-4.3,3.3-6.9,4.2
	C793.5,127.4,790.5,128,787.5,128"/>
<path class="st0" d="M652.9,39.4c-3,0.3-5.9,1.1-8.7,2.2c-3,1.3-5.8,2.9-8.4,5c-0.8,0.6-1.5,1.3-2.2,1.9v-9.4h-31.8v111.4h33.5V94.5
	c0-15.1,7-22.1,22.1-22.1c2.4,0,4.8,0.2,7.1,0.6l3.5,0.6V38.9h-6.6C658.6,38.9,655.7,39.1,652.9,39.4"/>
<polygon class="st0" points="34.4,14.3 1.1,14.3 1.1,150.4 82.7,150.4 82.7,120.9 34.4,120.9 "/>
<path class="st0" d="M707.6,14.2h-33.1v94.6c0,5.8,0.8,11.5,2.5,17c1.6,5.4,4.4,10.3,8.2,14.4c4,4.3,8.8,7.6,14.3,9.8
	c5.7,2.4,12.6,3.6,20.6,3.6c4.3,0,8.6-0.4,12.8-1.4v-28.6h-13.2c-4.1-0.2-7-1.5-8.8-4c-2.1-3.1-3.2-7.6-3.2-13.6V70.5h25.1V41h-25.1
	V14.2z"/>
<path class="st1" d="M284.5,179.6c10.1,0,15.4,6.4,15.4,15.2c0,9.7-6.5,16.3-15.9,16.3h-11.6v-31.5H284.5z M283.5,183.7h-6V207h5.7
	c7.7,0,11.4-5.2,11.4-12.2C294.5,188.4,291.3,183.7,283.5,183.7"/>
<polygon class="st1" points="336.8,179.6 336.8,183.7 322.7,183.7 322.7,193.1 334.9,193.1 334.9,197.1 322.7,197.1 322.7,207 
	336.8,207 336.8,211 317.6,211 317.6,179.6 "/>
<polygon class="st1" points="372,179.6 396.2,179.6 396.2,183.7 386.7,183.7 386.7,211 381.6,211 381.6,183.7 372,183.7 "/>
<path class="st1" d="M440.7,195.4c0,10.8-6.9,16.4-15.2,16.4c-9,0-15-6.1-15-16.5s6.8-16.4,15.2-16.4
	C434.5,178.8,440.7,185,440.7,195.4 M416,195.3c0,8.4,4.1,12.3,9.5,12.3s9.7-3.7,9.7-12.2s-4-12.3-9.6-12.3
	C420.2,183.1,416,186.5,416,195.3"/>
<path class="st1" d="M470.5,179.6c10.1,0,15.4,6.4,15.4,15.2c0,9.7-6.5,16.3-15.9,16.3h-11.6v-31.5H470.5z M469.5,183.7h-6V207h5.7
	c7.7,0,11.4-5.2,11.4-12.2C480.5,188.4,477.3,183.7,469.5,183.7"/>
<path class="st1" d="M531.8,195.4c0,10.8-6.9,16.4-15.2,16.4c-9,0-15-6.1-15-16.5s6.8-16.4,15.2-16.4
	C525.7,178.8,531.9,185,531.8,195.4 M507.2,195.3c0,8.4,4.1,12.3,9.5,12.3s9.7-3.7,9.7-12.2s-4.1-12.3-9.6-12.3
	C511.4,183.1,507.2,186.5,507.2,195.3"/>
<path class="st1" d="M559.5,183c-3.8,0-5.9,1.6-5.9,4.1c0,2.3,1.8,3.7,4.9,4.5l4.5,1.2c6.3,1.6,8.7,4.5,8.7,8.9
	c0,6.2-5.1,10.1-12.2,10.1c-6.2,0-11-2.7-12.7-9l4.4-1.7c1.3,4.6,4.4,6.5,8.5,6.5s6.8-2,6.8-5.2c0-2.4-1.4-3.8-5-4.8l-4.4-1.1
	c-5.7-1.5-8.6-4.6-8.6-8.9c0-5.2,4.4-8.8,11.4-8.8c6.1,0,10.2,2.6,11.5,7.5l-4.3,1.9C566,184.9,563.6,183,559.5,183"/>
<rect y="190.9" class="st1" width="235.7" height="4.6"/>
<rect x="608.4" y="190.9" class="st1" width="235.7" height="4.6"/>
</svg>
