<?xml version="1.0" encoding="utf-8"?>
<!-- Generator: Adobe Illustrator 23.0.1, SVG Export Plug-In . SVG Version: 6.00 Build 0)  -->
<svg version="1.1" id="Layer_1" xmlns="http://www.w3.org/2000/svg" xmlns:xlink="http://www.w3.org/1999/xlink" x="0px" y="0px"
	 viewBox="0 0 671.3 139.7" style="enable-background:new 0 0 671.3 139.7;" xml:space="preserve">
<title>Logo_Reportajes_black_RGB</title>
<path d="M0,37.8v67.5h70.3V37.8H0z M34.5,93.1H8.4v-43h6.8v37h19.4V93.1z M61.8,56.1H49.1v37h-6.8v-37H29.5v-6h32.3V56.1z"/>
<path d="M84.9,37.8h21.2l-0.3,12.1c4.9-11,12.7-13.5,19.7-13.5c3.6,0,7.2,0.9,10.4,2.7l-6.7,19.4c-2.5-1.3-5.3-2-8.2-2
	c-9.6,0-14.8,4.4-14.8,18.7v29.7H84.9V37.8z"/>
<path d="M169,88.6c6,0,11.9-1.9,16.8-5.3L198,96.3c-6.5,5.7-14.6,9.9-28.6,9.9c-23.9,0-39.3-14.5-39.3-35.1
	c0-20.3,16.2-34.8,37-34.8c24.1,0,37.1,17.9,35.5,41.4h-50.8C153.8,84.6,159.4,88.6,169,88.6z M181.1,65.4
	c-0.9-7.4-5.7-11.8-14-11.8s-14,3.8-15.7,11.8H181.1z"/>
<path d="M205.2,37.8h21.2L226,48.1c4.1-7.2,11.2-11.8,21.5-11.8c16.2,0,29.9,14.2,29.9,34.8s-14,35.1-30.4,35.1
	c-10.2,0-17.1-4.2-20.6-10.4v42.3h-21.2V37.8z M255.5,71.1c0-9.9-5.7-16-14.6-16c-9.1,0-15.1,6.1-15.1,16c0,10.5,6,16.5,15.1,16.5
	C249.9,87.6,255.5,81.6,255.5,71.1z"/>
<path d="M277.7,71.4c0-20.4,16.2-35.1,37-35.1s36.8,14.6,36.8,35.1c0,20.3-16,34.8-36.8,34.8S277.7,91.7,277.7,71.4z M329.8,71.4
	c0-10.1-5.7-16.8-15.1-16.8s-15.2,6.8-15.2,16.8c0,9.9,5.8,16.8,15.2,16.8S329.8,81.3,329.8,71.4z"/>
<path d="M354,37.8h21.2l-0.3,12.1c4.9-11,12.7-13.5,19.7-13.5c3.6,0,7.2,0.9,10.4,2.7l-6.8,19.3c-2.5-1.3-5.3-2-8.2-2
	c-9.6,0-14.8,4.4-14.8,18.7v29.7H354V37.8z"/>
<path d="M410.3,79.6V55.4h-9.9V37.8h9.9V2.8h21.1v34.9h17.1v17.6h-17.1v24.9c0,6.8,2.2,8.2,5.5,8.2c3.5,0,6-1.9,7.4-2.8l8,14.8
	c-3.3,2.7-9,6.1-18.7,6.1C420,106.5,410.3,99.7,410.3,79.6z"/>
<path d="M482,53.8c-8,0-12.3,3.5-15.3,6.1l-11.8-12.6c6.3-6.1,13.4-11,29.1-11c17.1,0,30.2,9.3,30.2,30.4v38.1h-21.1l0.5-9.3
	c-5,7.7-10.9,10.7-19.8,10.7c-12.3,0-23.6-5.5-23.6-21.1c0-14.3,10.9-20.1,27.4-20.1h15.6C492.9,57.3,489.1,53.8,482,53.8z
	 M478.7,77.6c-5.3,0-7.7,2.4-7.7,6.1s3.1,6,9.1,6c8.7,0,13-3.8,13-9.4v-2.7L478.7,77.6z"/>
<path d="M498.8,131.7l10.5-12.6c1.7,1.6,3.4,2.5,5.2,2.5c3.3,0,4.9-1.9,4.9-5.4V37.8h21.2v77.7c0,15.4-8.3,24.2-24.1,24.2
	C508.7,139.7,502,135.6,498.8,131.7z M516.6,13.2c0-7.3,6-13.2,13.3-13.2c0.1,0,0.1,0,0.2,0c7.3,0,13.3,5.9,13.3,13.3
	c0,7.3-5.9,13.3-13.3,13.3c0,0,0,0,0,0c-7.3,0.1-13.4-5.7-13.5-13.1C516.6,13.4,516.6,13.3,516.6,13.2z"/>
<path d="M582.8,88.6c6,0,11.9-1.9,16.8-5.3l12.1,13.1c-6.5,5.7-14.6,9.9-28.6,9.9c-23.9,0-39.3-14.5-39.3-35.1
	c0-20.3,16.2-34.8,37-34.8c24.1,0,37.1,17.9,35.5,41.4h-50.8C567.6,84.6,573.2,88.6,582.8,88.6z M594.9,65.4
	c-1-7.4-5.7-11.8-14-11.8s-14,3.8-15.7,11.8H594.9z"/>
<path d="M613.3,93.4l12.4-11c4.4,4.4,10.4,7,16.7,7.1c6.9,0,9.1-1.3,9.1-4.1c0-3.6-4.2-3.6-15.1-6.4c-9.1-2.4-19.3-7.4-19.3-21.4
	c0-15.1,11.6-21.2,26-21.2c11,0,18.9,3.6,24.4,9.3l-11.4,12.1c-3.6-3.1-8.2-4.9-12.9-5c-4.9,0-7.2,1.3-7.2,3.9
	c0,3.8,4.2,4.2,13.4,6.3c9.8,2.2,22,6.8,22,20.9c0,12.3-6.4,22.3-27.5,22.3C628.3,106.2,619.1,100.4,613.3,93.4z"/>
</svg>
