<?xml version="1.0" encoding="utf-8"?>
<!-- Generator: Adobe Illustrator 23.0.1, SVG Export Plug-In . SVG Version: 6.00 Build 0)  -->
<svg version="1.1" id="Layer_1" xmlns="http://www.w3.org/2000/svg" xmlns:xlink="http://www.w3.org/1999/xlink" x="0px" y="0px"
	 viewBox="0 0 816.9 272.7" style="enable-background:new 0 0 816.9 272.7;" xml:space="preserve">
<style type="text/css">
	.st0{fill:#232020;}
	.st1{font-family:'ArialMT';}
	.st2{font-size:111.98px;}
	.st3{letter-spacing:-15;}
	.st4{letter-spacing:-8;}
	.st5{letter-spacing:-6;}
</style>
<title>Logo_Beethoven_black_orignal_RGB</title>
<path class="st0" d="M25.2,0v50.3c4.3-4.4,9.3-7.9,14.9-10.3c5.4-2.3,11.3-3.5,17.1-3.4c13.2,0,24.5,5,33.8,15
	c9.3,10,13.9,22.8,13.9,38.5c0,15.1-4.8,27.7-14.4,37.9c-9.6,10.2-20.9,15.2-34,15.2c-5.6,0-11.1-1-16.3-3.1
	c-5.6-2.5-10.7-5.9-15-10.2v10.7H0V0H25.2z M52,60c-7.5-0.2-14.8,2.8-20,8.2c-5.3,5.5-7.9,12.6-7.9,21.4c0,9,2.6,16.3,7.9,21.9
	c5.2,5.5,12.4,8.6,20,8.3c7.5,0.1,14.6-3,19.6-8.5c5.3-5.7,8-12.9,8-21.6c0-8.8-2.6-15.9-7.8-21.4C66.7,62.9,59.5,59.8,52,60L52,60z
	"/>
<path class="st0" d="M205.4,97.2h-81.8c1.2,7.2,4.3,12.9,9.5,17.2c5.1,4.3,11.7,6.4,19.6,6.4c9.2,0.1,18-3.5,24.5-10l21.4,10.1
	c-4.8,7.2-11.5,13-19.2,16.9c-7.5,3.6-16.3,5.4-26.6,5.4c-15.9,0-28.9-5-38.9-15.1c-10-10-15-22.6-15-37.7c0-15.5,5-28.3,15-38.5
	s22.5-15.3,37.5-15.4c16,0,29,5.1,39,15.3c10,10.2,15,23.7,15,40.5L205.4,97.2z M179.9,77.2c-1.6-5.6-5.1-10.5-9.9-13.8
	c-5-3.6-11.1-5.4-17.2-5.3c-6.7-0.1-13.3,2-18.7,6c-3.3,2.5-6.4,6.9-9.3,13.1L179.9,77.2z"/>
<path class="st0" d="M305.1,97.2h-81.8c0.9,6.7,4.3,12.8,9.5,17.2c5.1,4.2,11.7,6.4,19.6,6.4c9.2,0.1,18-3.5,24.5-10l21.4,10.1
	c-4.8,7.2-11.5,13-19.2,16.9c-7.5,3.6-16.3,5.4-26.6,5.4c-15.9,0-28.9-5-38.9-15.1c-10-10-15-22.6-15-37.7c0-15.5,5-28.3,15-38.5
	s22.5-15.3,37.4-15.4c16,0,29,5.1,39,15.3s15,23.7,15,40.5L305.1,97.2z M279.6,77.2c-1.6-5.6-5.2-10.5-9.9-13.8
	c-5-3.6-11.1-5.4-17.2-5.3c-6.7-0.1-13.3,2-18.7,6c-3.4,2.5-6.5,6.9-9.3,13.1L279.6,77.2z"/>
<path class="st0" d="M315.8,1.8h25.5v37.4h15.1v21.9h-15.1v79.5h-25.5V61.1h-13.1V39.2h13.1V1.8z"/>
<path class="st0" d="M360.7,0H386v49.4c4.5-4,9.5-7.2,15-9.7c4.8-2.1,10-3.2,15.3-3.2c9.6-0.2,18.8,3.6,25.5,10.4
	c5.9,6,8.9,14.9,8.8,26.6v67h-25.1V96.1c0-11.7-0.6-19.7-1.7-23.9s-3-7.3-5.7-9.3c-2.9-2.1-6.4-3.2-10-3.1
	c-4.9-0.1-9.7,1.8-13.3,5.1c-3.7,3.4-6.3,8.1-7.7,14c-0.7,3-1.1,10-1.1,20.9v40.7h-25.3V0z"/>
<path class="st0" d="M500.9,36.5c9.5,0,18.8,2.5,27,7.2c16.6,9.4,26.9,27,26.8,46.1c0,9.4-2.4,18.7-7.1,26.9
	c-4.6,8.2-11.3,14.9-19.4,19.5c-8.3,4.7-17.6,7.1-27.1,7c-14,0.2-27.5-5.4-37.2-15.5c-10.3-10.3-15.4-22.9-15.4-37.7
	c0-15.9,5.8-29.1,17.4-39.6C475.9,41.1,487.7,36.6,500.9,36.5z M501.3,60.5c-7.5-0.2-14.6,2.8-19.7,8.3c-5.3,5.5-7.9,12.5-7.9,21.1
	c0,8.8,2.6,16,7.8,21.4c5.2,5.5,11.8,8.2,19.8,8.2c7.5,0.2,14.7-2.8,19.9-8.3c5.3-5.5,7.9-12.6,7.9-21.4c0-8.7-2.6-15.8-7.8-21.2
	C516.1,63.2,509.4,60.5,501.3,60.5L501.3,60.5z"/>
<path class="st0" d="M536.8,39.2h25.9L588.4,99L614,39.2h25.8l-43.2,101.4h-16.5L536.8,39.2z"/>
<path class="st0" d="M728.6,97.2h-81.8c0.9,6.7,4.3,12.8,9.5,17.2c5.1,4.3,11.7,6.4,19.6,6.4c9.2,0.1,18-3.5,24.5-10l21.4,10.1
	c-4.8,7.2-11.5,13-19.2,16.9c-7.5,3.6-16.3,5.4-26.5,5.4c-15.9,0-28.9-5-38.9-15.1c-10-10-15-22.6-15-37.7c0-15.5,5-28.3,15-38.5
	c10-10.2,22.5-15.3,37.5-15.3c16,0,29,5.1,39,15.3c10,10.2,15,23.7,15,40.5L728.6,97.2z M703.2,77.2c-1.6-5.6-5.2-10.5-10-13.8
	c-5-3.6-11.1-5.4-17.2-5.3c-6.7-0.1-13.3,2-18.7,6c-3.4,2.5-6.5,6.9-9.3,13.1L703.2,77.2z"/>
<path class="st0" d="M726.9,39.2h25.5v10.4c5.8-4.9,11-8.2,15.7-10.2c4.6-1.9,9.4-2.9,14.4-2.9c9.6-0.2,18.9,3.6,25.6,10.5
	c5.9,6,8.8,14.8,8.8,26.5v67h-25.2V96.2c0-12.1-0.5-20.1-1.6-24.1c-0.8-3.6-2.8-6.8-5.7-9.1c-2.9-2.1-6.4-3.2-10-3.1
	c-4.9-0.1-9.7,1.8-13.2,5.2c-3.7,3.4-6.2,8.2-7.7,14.3c-0.7,3.2-1.1,10-1.1,20.6v40.7h-25.5V39.2z"/>
<text transform="matrix(1 0 0 1 472.2798 236.32)" class="st0 st1 st2 st3">9</text>
<text transform="matrix(1 0 0 1 518.7598 236.32)" class="st0 st1 st2 st4">6</text>
<text transform="matrix(1 0 0 1 571.9297 236.32)" class="st0 st1 st2 st5">.</text>
<text transform="matrix(1 0 0 1 596.1397 236.32)" class="st0 st1 st2 st5">5 </text>
<text transform="matrix(1 0 0 1 675.7598 236.32)" class="st0 st1 st2 st4">F</text>
<text transform="matrix(1 0 0 1 721.44 236.32)" class="st0 st1 st2 st5">M</text>
</svg>
