<?xml version="1.0" encoding="utf-8"?>
<!-- Generator: Adobe Illustrator 23.0.1, SVG Export Plug-In . SVG Version: 6.00 Build 0)  -->
<svg version="1.1" id="Layer_1" xmlns="http://www.w3.org/2000/svg" xmlns:xlink="http://www.w3.org/1999/xlink" x="0px" y="0px"
	 viewBox="0 0 712 118.4" style="enable-background:new 0 0 712 118.4;" xml:space="preserve">
<style type="text/css">
	.st0{fill:#FFFFFF;}
</style>
<title>Logo_MtMag_white_RGB</title>
<path class="st0" d="M712,111.8c0-3.7-2.9-6.6-6.6-6.7c-3.7,0-6.6,2.9-6.7,6.6s2.9,6.6,6.6,6.7c0,0,0,0,0,0
	C709,118.4,711.9,115.4,712,111.8z M673.2,113.2c7-3.2,13.4-7.4,19.2-12.5V59h-45.3v3.6h41.7v36.8c-2.5,2.2-5.1,4.1-7.9,5.9
	c-3,1.9-6.2,3.6-9.5,5c-3.5,1.5-7.1,2.7-10.8,3.5c-3.9,0.9-8,1.3-12,1.3c-7.6,0.1-15.2-1.4-22.1-4.5c-6.3-2.8-11.9-7-16.4-12.2
	c-4.5-5.2-8-11.3-10.3-17.8c-2.4-6.8-3.6-14-3.6-21.2V59c0-7,1.3-14,3.8-20.6c2.4-6.5,5.9-12.6,10.5-17.8
	c4.6-5.2,10.1-9.5,16.3-12.6c6.7-3.2,14.1-4.8,21.6-4.7c8.1,0,15,1.3,20.7,3.8c5.9,2.7,11.5,6.2,16.5,10.4l2.3-2.8
	c-2.7-2.3-5.5-4.4-8.5-6.3c-2.9-1.8-5.9-3.3-9-4.6c-3.2-1.3-6.6-2.2-10-2.8c-3.9-0.7-7.9-1-11.8-1c-8-0.1-16,1.6-23.3,5
	c-6.7,3.2-12.7,7.6-17.6,13.2c-4.9,5.5-8.7,11.9-11.1,18.9c-2.6,7.1-3.9,14.6-3.9,22.1v0.3c0,7.7,1.2,15.3,3.7,22.6
	c2.3,6.9,6.1,13.3,10.9,18.7c4.9,5.4,10.9,9.8,17.5,12.8c7.4,3.3,15.5,4.9,23.6,4.7C656.9,118.5,665.4,116.7,673.2,113.2
	L673.2,113.2z M605.3,118.4L548.3,0h-3.2l-53.3,110.6V0.9h-3.4l-51.6,72.8l-39.7-56.1l-1.7,3.5l41.3,58.4h0.2l51.2-72.5v111.3h3.9
	L546.6,4.9l54.6,113.5L605.3,118.4z M385.4,28.6l14-28.6H250.6l-29.8,67.2L188.9,0h-33.7v118.3H189l-0.1-59.7l23.3,59.7h16.3
	l23.3-59.7l0.1,59.7h33.5V28.6h32.2v-0.1h0.1v89.9h36.6V28.6H385.4z M385.5,34.8h-3.7v83.6h3.7C385.5,118.4,385.5,34.8,385.5,34.8z"
	/>
<path class="st0" d="M0,0v118.4h123.2V0H0z M60.6,97.2H14.8V21.8h11.9v64.9h34L60.6,97.2z M108.5,32.3H86v64.9H74.2V32.3H51.8V21.8
	h56.7V32.3z"/>
</svg>
