<?xml version="1.0" encoding="utf-8"?>
<!-- Generator: Adobe Illustrator 23.0.1, SVG Export Plug-In . SVG Version: 6.00 Build 0)  -->
<svg version="1.1" id="Layer_1" xmlns="http://www.w3.org/2000/svg" xmlns:xlink="http://www.w3.org/1999/xlink" x="0px" y="0px"
	 viewBox="0 0 437.4 135.1" style="enable-background:new 0 0 437.4 135.1;" xml:space="preserve">
<style type="text/css">
	.st0{fill:#B2292E;}
	.st1{fill:#FFFFFF;}
</style>
<title>Logo_FInde_color_white_RGB</title>
<rect y="55.4" class="st0" width="65.6" height="63"/>
<polygon class="st1" points="7.9,67 14.2,67 14.2,101.5 32.2,101.5 32.2,107.1 7.9,107.1 "/>
<polygon class="st1" points="39.5,72.6 27.6,72.6 27.6,67 57.7,67 57.7,72.6 45.8,72.6 45.8,107.1 39.5,107.1 "/>
<polygon class="st0" points="15.5,123.5 12.7,123.5 12.7,122.2 19.7,122.2 19.7,123.5 16.9,123.5 16.9,131.5 15.5,131.5 "/>
<path class="st0" d="M33.9,131.5h-1.7l-1.6-2.2c-0.2,0-0.4,0-0.7,0H29v2.2h-1.4v-9.2h2.4c2.5,0,3.9,1.4,3.9,3.5
	c0.1,1.3-0.7,2.5-1.9,3.1L33.9,131.5z M29.9,128c1.8,0,2.5-0.8,2.5-2.3s-0.7-2.2-2.5-2.2H29v4.5H29.9z"/>
<path class="st0" d="M34.5,126.8c-0.1-2.6,2-4.7,4.5-4.7c0.1,0,0.1,0,0.2,0c1.5-0.1,2.9,0.6,3.7,1.8l-1.1,0.8
	c-0.6-0.9-1.6-1.3-2.6-1.3c-1.9,0.1-3.3,1.7-3.2,3.6c0.1,1.7,1.5,3.1,3.3,3.2c1.1,0,2.1-0.5,2.8-1.3l1.1,0.8c-0.9,1.3-2.4,2-4,1.9
	c-2.5,0-4.6-2-4.7-4.5C34.4,127,34.4,126.9,34.5,126.8"/>
<path class="st0" d="M57.1,131.5h-1.7l-1.6-2.2c-0.2,0-0.4,0-0.7,0h-0.9v2.2h-1.4v-9.2h2.4c2.5,0,4,1.4,4,3.5
	c0.1,1.3-0.7,2.5-1.9,3.1L57.1,131.5z M53.1,128c1.8,0,2.5-0.8,2.5-2.3s-0.7-2.2-2.5-2.2h-0.9v4.5H53.1z"/>
<path class="st0" d="M58.9,131.5h-1.5l4-9.4h0.1l4.1,9.4H64l-0.5-1.3h-4.1L58.9,131.5z M61.5,125.2l-1.5,3.7H63L61.5,125.2z"/>
<polygon class="st0" points="49.9,130.2 45.3,130.2 45.3,128.6 49.2,128.6 49.2,127.3 45.3,127.3 45.3,123.5 49.9,123.5 49.9,122.2 
	43.9,122.2 43.9,131.5 49.9,131.5 "/>
<polygon class="st0" points="22,128.6 26,128.6 26,127.3 22,127.3 22,123.5 26.7,123.5 26.7,122.2 20.6,122.2 20.6,131.5 
	26.7,131.5 26.7,130.2 22,130.2 "/>
<polygon class="st0" points="0,122.2 1.5,122.2 1.5,130.2 5.6,130.2 5.6,131.5 0,131.5 "/>
<path class="st0" d="M6.1,131.5H4.6l4.1-9.4h0.1l4.1,9.4h-1.5l-0.5-1.3H6.6L6.1,131.5z M8.7,125.2l-1.5,3.6h3L8.7,125.2z"/>
<path class="st1" d="M88.8,75.3H76.1v-20h12.7V29.7C88.8,10,98.1,0,116.9,0c10.7,0,17.9,3.2,23.4,9.7l-13.1,16.1
	c-1.8-2.1-3.9-4.1-7.7-4.1c-3.9,0-6.6,2.1-6.6,7.7v25.9h20.6v20H113v56.3H88.8V75.3z"/>
<path class="st1" d="M135.9,27.4c0-8.4,6.8-15.3,15.2-15.4c8.4,0,15.3,6.8,15.4,15.2c0,8.4-6.8,15.3-15.2,15.4c0,0,0,0,0,0
	c-8.3,0.2-15.2-6.4-15.4-14.8C135.9,27.7,135.9,27.5,135.9,27.4z M139.1,55.3h24.1v76.3h-24.1V55.3z"/>
<path class="st1" d="M167.9,55.3h24.1l-0.5,12.5c4.6-9.1,13.6-14.1,24.1-14.1c16.6,0,28.6,12.2,28.6,33.8v44h-24.1V89.1
	c0-8.6-4.1-13.4-12.7-13.4c-9.7,0-15.4,5.4-15.4,15v40.9h-24.1V55.3z"/>
<path class="st1" d="M246.3,95.2c0-23.4,15.8-39.5,34.2-39.5c12.2,0,19,4.8,23.8,12.3V4.3h24.2v129.2h-24.2l0.5-11.1
	c-4.3,8-12.4,12.7-24,12.7C262.2,135.1,246.3,118.6,246.3,95.2z M305,95.2c0-11.3-6.8-18.3-17.2-18.3c-10.2,0-16.6,7-16.6,18.3
	c0,12,6.4,18.8,16.6,18.8C298.2,114,305,107.2,305,95.2z"/>
<path class="st1" d="M373.4,114.8c6.9,0,13.5-2.2,19.1-6.2l13.9,14.8c-7.3,6.5-16.6,11.4-32.5,11.5c-27.2,0.2-44.8-16.2-45-39.6
	c-0.1-23.1,18.2-39.7,41.8-39.8c27.4-0.2,42.3,20.1,40.7,46.8l-57.8,0.4C356,110.5,362.5,114.9,373.4,114.8z M387,88.4
	c-1.1-8.4-6.5-13.4-16-13.3c-9.5,0.1-15.9,4.4-17.8,13.5L387,88.4z"/>
<path class="st1" d="M407.2,117.4c0-8.4,6.9-15.1,15.2-15c8.4,0,15.1,6.9,15,15.2c0,8.3-6.7,15-15,15c-8.2,0.2-15.1-6.4-15.2-14.6
	C407.2,117.8,407.2,117.6,407.2,117.4z"/>
</svg>
