<svg data-name="Layer 1" xmlns="http://www.w3.org/2000/svg" viewBox="0 0 401.68 234.95"><path d="M245.59 64l3.13-.85v-2.8h-23.31v2.84l3.41.57c4.83.85 6.25 4 3.7 16.2l-11.94 59.4-12.22-62.81c-1.42-6.54-2.28-11.66 3.41-12.79l3.69-.57v-2.84h-32.11v2.84l2.27.57c3.41.85 3.69 2.84 5.12 9.09l3.12 15.06-9.66 51.16-12.79-62.52c-1.42-6.83-2-11.94 3.41-12.79l2.56-.57v-2.84h-33v2.84l3.12.85c2.85.85 4.55 2.27 6.54 11.37l21 99.19h6.82L196.14 99l15.63 75.6h6l20.18-96.06c2.52-9.95 3.66-13.65 7.64-14.54zM90.47 91l1.81.42c1.4.42 2.38 1 2.38 3.35v21H82.37v-21c0-2.23.84-2.93 2.37-3.35l1.82-.42v-1.38H69.8V91l1.82.42c1.67.42 2.37 1.12 2.37 3.35V140c0 2.23-.7 3.07-2.37 3.49l-1.82.42v1.39h16.76v-1.39l-1.82-.42c-1.39-.28-2.37-1.26-2.37-3.63V118h12.29v22.21c0 2.23-1 3.21-2.38 3.63l-1.81.41v1.4h16.76v-1.4l-1.82-.41c-1.68-.42-2.37-1.26-2.37-3.63V94.92c0-2.23.69-3.07 2.37-3.35l1.82-.42v-1.4H90.47zM38.8 108.05h1.54c.56-8.52 2.23-16.62 7.26-16.62h1.81v48.74c0 2.23-.69 3.07-2.37 3.49l-2.09.41v1.4h17.59v-1.4l-2.54-.55c-1.54-.42-2.38-.84-2.38-3.49V91.29h1.82c5 0 6.7 8.1 7.26 16.62h1.54V89.34H38.8zm88.25 35.61h-5.58V117.4l2.51.14c3.63.14 4.75 1.4 5.45 10.34H131v-22.63h-1.53c-.84 7.13-1.82 10.06-5.31 10.2l-2.65.14v-24h5.58c6.29 0 7.68 8.1 8.52 16.62h1.54V89.62H109V91l1.82.42c1.81.42 2.37 1.68 2.37 3.49v45.25c0 2.23-.7 3.07-2.37 3.49l-1.82.41v1.4h29V126.9h-1.54c-1.03 8.66-2.14 16.76-9.41 16.76zM274 63.9c12 0 16.5 15.35 18.49 34.1h3.12V60.2h-2c-.85 3.7-2.27 5.4-4.55 5.4-3.69 0-5.68-6-14.77-6-14.22 0-23.59 11.65-23.59 27.28 0 28.14 37.23 39.79 37.23 65.65 0 11.66-5.4 18.48-12.79 18.48-11.09 0-18.48-13.08-20.47-34.11h-3.12v37.8h2c1.7-5.4 3.69-6 5.68-6 3.13 0 6.54 6.54 16.2 6.54 14.78 0 26.15-12.79 26.15-30.41 0-34.11-37.23-42.92-37.23-67.64-.57-5.33 1.42-13.29 9.65-13.29zm54.49-1.14l4.26.85c3.42.86 5.12 2 5.12 6.83V150c0 11.08-1.14 20.18-9.38 20.18-5.4 0-9.38-4.27-9.09-7.11.56-5.12 9.09-4.83 9.66-13.07.57-6-3.41-8.53-6.82-8.81-5.12-.57-11.37 3.69-11.65 12.22-.29 11.08 7.1 21.31 19.61 21.31 13.64 0 24.44-9.38 24.44-27v-77c0-4.55 1.14-6.25 4.55-6.82l3.69-.85V60.2h-34.39v2.56z"/></svg>