<?xml version="1.0" encoding="utf-8"?>
<!-- Generator: Adobe Illustrator 23.0.1, SVG Export Plug-In . SVG Version: 6.00 Build 0)  -->
<svg version="1.1" id="Layer_1" xmlns="http://www.w3.org/2000/svg" xmlns:xlink="http://www.w3.org/1999/xlink" x="0px" y="0px"
	 viewBox="0 0 200 200" style="enable-background:new 0 0 200 200;" xml:space="preserve">
<style type="text/css">
	.st0{fill:#A8272F;}
</style>
<title>Logo_Negocios_corto_02_RGB</title>
<g>
	<g>
		<path class="st0" d="M146.1,84.5c1.1-1,1.7-2.3,1.7-3.9c0-3.3-2.1-5-6.3-5h-4.3V86h3.3C143.1,86,145,85.5,146.1,84.5"/>
		<path class="st0" d="M149.9,98.7c0.6-0.9,0.9-1.8,0.9-2.9c0-1.1-0.3-2-0.9-2.9c-0.6-0.9-1.5-1.5-2.6-2c-1.1-0.4-2.9-0.6-5.4-0.6
			h-4.6v10.9h4.9c2.7,0,4.5-0.2,5.5-0.6C148.5,100.3,149.3,99.6,149.9,98.7"/>
		<path class="st0" d="M172.6,54.4c-12-29.2-41.1-49.2-74.6-49C53.9,5.7,18.3,41.7,18.6,85.8c0.3,44.1,36.2,79.6,80.4,79.4
			c7.6,0,14.9-1.2,21.9-3.2l0,0c0.1,0,0.1-0.1,0.2-0.1c2.4-0.7,4.7-1.5,6.9-2.4c0.4-0.1,1.9-1.1,2.3-1.2c3.4-2.2,5-3,8.8-3
			c8.2-0.1,14.8,6.5,14.9,14.7c0,2.1,0,3.7-0.7,5.9c-1.5,5-3.1,10.4-3.5,14.6c0,0,0,0.1,0,0.1c0,0.2-0.1,0.5-0.1,0.7c0,0,0,0,0,0.1
			c0.1,1.8,1.5,3.2,3.3,3.2c1.3,0,2.3-0.7,2.9-1.7l0,0C200.9,117.2,172.6,54.4,172.6,54.4 M132.3,71.2h9c2.9,0,5.1,0.4,6.7,1.1
			c1.6,0.8,2.8,1.8,3.7,3.2c0.8,1.3,1.3,2.9,1.3,4.7c0,3.4-1.8,5.8-5.3,7.3c2.5,0.5,4.5,1.5,6,3.1c1.5,1.6,2.2,3.5,2.2,5.7
			c0,1.8-0.5,3.3-1.4,4.7c-0.9,1.4-2.2,2.5-4,3.4c-1.8,0.9-3.9,1.3-6.6,1.3h-11.7V71.2z M43,75.9c3.6-3.4,8-5.1,13.2-5.1
			c3.6,0,7.7,0.9,12.1,2.8v5.3c-4-2.3-8-3.5-11.8-3.5c-4,0-7.2,1.2-9.9,3.7c-2.6,2.5-3.9,5.6-3.9,9.4c0,3.8,1.3,6.9,3.8,9.3
			c2.6,2.4,5.9,3.6,9.8,3.6c4.2,0,8.3-1.3,12.2-3.8v5.4c-3.6,2-7.8,3-12.5,3c-3.9,0-7.1-0.8-9.8-2.3c-2.7-1.5-4.8-3.7-6.4-6.4
			c-1.6-2.7-2.3-5.7-2.3-8.8C37.6,83.6,39.4,79.3,43,75.9 M73.7,71.2h4.9v30h15.5v4.5H73.7V71.2z M97.3,96.9
			c-0.4-1.3-0.6-3.3-0.6-6.1V71.2h5v19.6c0,3.2,0.4,5.5,1.1,6.8c0.7,1.3,1.9,2.3,3.4,3c1.5,0.8,3.3,1.2,5.4,1.2
			c2.9,0,5.3-0.8,7.2-2.3c1-0.8,1.7-1.8,2.1-2.9c0.4-1.1,0.6-3,0.6-5.7V71.2h5v19.6c0,2.7-0.2,4.7-0.6,6c-0.4,1.3-0.9,2.5-1.4,3.4
			c-0.6,0.9-1.3,1.7-2.1,2.4c-2.7,2.4-6.3,3.5-10.7,3.5c-4.5,0-8.1-1.2-10.8-3.5c-0.8-0.7-1.5-1.5-2.1-2.4
			C98.2,99.3,97.7,98.2,97.3,96.9"/>
	</g>
</g>
</svg>
