<?xml version="1.0" encoding="utf-8"?>
<!-- Generator: Adobe Illustrator 23.0.1, SVG Export Plug-In . SVG Version: 6.00 Build 0)  -->
<svg version="1.1" id="Layer_1" xmlns="http://www.w3.org/2000/svg" xmlns:xlink="http://www.w3.org/1999/xlink" x="0px" y="0px"
	 viewBox="0 0 937.4 158.6" style="enable-background:new 0 0 937.4 158.6;" xml:space="preserve">
<style type="text/css">
	.st0{fill:#FFFFFF;}
	.st1{fill:#B2292E;}
</style>
<title>Logo_PulsoTrader_color_white_RGB</title>
<path class="st0" d="M548.1,1v4.6H576v152h6.4V5.6h28.1V0h-62.4V1z"/>
<path class="st0" d="M666.9,103.5c-1.3-2.8-3.1-5.2-5.4-7.2c2.9-1.4,5.2-3.7,6.8-6.4c3-5,4-10.8,4.8-16.4c0.8-8,0.8-16.1,0.8-24.1
	v-9.6c0-7.8,0-15.8-2.2-23.7c-1.4-5-3.8-8.8-7-11.2c-3.8-3-9-4.6-15.6-4.6h-23.3v157.6h6.4V98.5h21.5c3.8,0.2,6.2,4.2,7.6,7.2
	c2.4,5.8,3.4,12.2,4.2,19.3l4.2,32.7h6.4l-4.2-33.1C670.9,117.5,669.9,110.1,666.9,103.5z M632,5.6h16.6c4.6,0,8.4,1,11,3
	c2.6,2,4.5,4.8,5.4,8c1.4,5,2.2,10.1,2.2,15.2c0.2,5,0.2,10.2,0.2,15.2v8.2c0,7.6-0.2,15.6-1.6,23.3c-0.8,3.8-2,8.2-4.8,11.2
	c-2.1,2-4.9,3.1-7.8,3h-21V5.6L632,5.6z"/>
<path class="st0" d="M724.8,0.8V0h-12l-0.2,0.8c-7.6,51.9-15.2,103.7-22.9,155.6l-0.2,1.2h6.6l5.4-38.1h34.5l5.4,38.1h6.6l-0.2-1.2
	C740.1,104.7,732.4,52.8,724.8,0.8z M719.4,5.6l15.5,108.5h-32.5c4.2-29.9,8.6-59.8,12.8-89.7l2.6-18.8H719.4z"/>
<path class="st0" d="M812.3,45.5c0-7.6,0-15.4-1.2-23.1c-1.4-8-3.8-13.4-7.8-17.2c-5-4.4-11.6-5.2-16.4-5.2h-23.9v157.6h25.3
	c7.2,0,13.4-2.8,17-7.4c5-6.6,6.2-15,6.8-22.7c0.4-7.2,0.4-14.4,0.4-21.4C812.3,103.3,812.3,47.3,812.3,45.5z M805.9,65.4v55.2
	c0.1,5.9-0.3,11.8-1.4,17.6c-1.2,4.8-3,8.4-5.8,10.4c-2.6,2.2-6.4,3.2-11,3.2h-18.3V5.2h18.5c4.6,0,8.6,1.4,11.2,4
	c2.8,2.6,4.6,6.6,5.6,12.4s1,12,1,17.8L805.9,65.4z"/>
<path class="st0" d="M831.1,157.6h41.1V152h-34.6V81.6h32.5V76h-32.5V5.6h34.7V0h-41.2V157.6z"/>
<path class="st0" d="M933.4,124.2c-0.5-5.3-1.5-10.5-3-15.6c-1.2-3.8-3.2-8.8-7.4-12.2c2-1,3.8-2.3,5.2-4c3.6-4.4,5-10.2,5.8-15.4
	c1.2-8.8,1.2-17.6,1.2-26.5V40.1c0-6.8,0-14-1.4-21c-1.4-6.4-3.6-11-7.2-14c-3.8-3.2-9-5-15.6-5h-23.9v157.5h6.4V98.3h20.7
	c1.7,0,3.3,0.6,4.6,1.6c2,2,3.5,4.4,4.4,7c2,5.4,2.8,11.4,3.6,17l4.2,33.7h6.4L933.4,124.2z M929,53c0,8.2,0,16.9-1.4,25.3
	c-1,4.6-2.2,9.2-5.6,12c-2,1.6-4.8,2.4-8.4,2.4h-19.7v-87h17.7c3,0,8.4,0.8,11.8,4.6s4.6,9.2,5.2,13.4c0.7,6.3,0.9,12.6,0.8,18.8
	v5.2C929.1,49.5,928.9,51.2,929,53L929,53z"/>
<polygon class="st0" points="321,2 321,157.1 380.8,157.1 380.8,135.9 379.7,135.9 346.8,135.9 346.8,2 "/>
<path class="st0" d="M224.1,46c0,16.5,1.9,32.7-6.9,42.2c-7.5,8-15.2,11.2-38.4,10v59h-25.4V2h36.6c13.5,0,25.6,4.3,31,16.1
	C224.2,25.2,224.1,35.8,224.1,46 M198.7,45.6c0-6.6,0.4-12-0.3-15.2c-1.3-6.3-5.5-6.5-11.5-6.5h-8v52.5h10.4c3.9,0.1,8.3-1,9-5.2
	C199,66.9,198.7,59.7,198.7,45.6"/>
<path class="st0" d="M305.3,2.1h-25.4l0.3,126.6c0,0,0.1,7.2-10.5,7.5c-10.9,0.4-10-10.1-10-8.8V2.1h-25.8l0.4,124.5
	c0,0-2.2,31.3,34,32c5.9,0,35,0.1,37.1-28.6C305.8,120.8,305.2,2.1,305.3,2.1"/>
<path class="st0" d="M538.9,125.6c0,9.2-2.1,17.4-9.1,23.7c-7,6.3-16.9,8.6-26.5,8.6c-10.5,0-18.8-2.1-25.8-7.9s-10-14.1-10-23.9
	l-0.2-94.3c0-9.1,3.2-18.1,10.3-24.1c6.9-5.6,16-7.7,26.2-7.7c9.4,0,18.5,2.6,25.6,8.7s9.2,14.8,9.2,22.2L538.9,125.6z M513.3,125.4
	V32.1c0-2.2-0.4-9.6-10.1-9.6c-9.2,0-10.2,6.2-10.2,9.6v93.3c0,3.3,0.3,10.3,10.2,10.2C513.1,135.5,513.3,128.8,513.3,125.4"/>
<path class="st0" d="M456.6,119.4c0,15.4-1.4,21.3-7.2,28.3c-5.2,6.3-15.5,10.5-27.8,10.5c-9.6,0-19.1-1.7-26-7.5
	c-7.8-6-10.3-14.5-10.3-24v-25.2h25v17.2c0.1,5.8-0.7,10.1,1.3,13s4.6,4.4,9.9,4.1c4.7-0.2,7.9-2.1,9.2-4.7
	c1.2-2.5,0.5-5.6,0.5-10.9c0-8.6,0.4-15.8-11-24.1s-18.7-13-26.1-22.3c-10.5-13.2-8.2-31.2-8.3-35c-0.5-14.4,0.4-20.3,5.9-27.1
	c6.1-7.9,17.1-11.3,29.5-11.3c11,0,20.3,3,26.8,9.8c5.9,6.2,7.8,14.3,7.8,23.7v22.6h-24.8c0.3-1.8,0-9.7-0.1-15.3s0.5-9.8-0.5-12.4
	c-1.8-4.2-4.6-6-10.1-5.8c-2.5-0.1-4.9,0.7-6.9,2.2c-2.6,2.1-2.8,5.9-2.4,14.4c0.2,3.7-0.3,7.4,0.4,10.7c0.9,4.6,3.4,8.7,8.8,13.1
	c8.4,6.9,18.8,12.9,25.9,21.5C456.1,96.7,456.6,106.3,456.6,119.4"/>
<rect y="1.4" class="st1" width="133.3" height="127.9"/>
<polygon class="st0" points="16,24.9 28.8,24.9 28.8,95.1 65.5,95.1 65.5,106.5 16,106.5 "/>
<polygon class="st0" points="80.2,36.3 56,36.3 56,24.9 117.3,24.9 117.3,36.3 93,36.3 93,106.5 80.2,106.5 "/>
<polygon class="st1" points="31.4,139.8 25.9,139.8 25.9,137.2 40,137.2 40,139.8 34.4,139.8 34.4,156 31.4,156 "/>
<path class="st1" d="M68.8,156h-3.5l-3.2-4.6c-0.4,0.1-0.9,0.1-1.3,0.1h-1.9v4.5h-3v-18.8h4.8c5.2,0,8,2.9,8,7.2
	c0.2,2.7-1.3,5.2-3.8,6.3L68.8,156z M60.7,149c3.6,0,5.1-1.7,5.1-4.6c0-2.9-1.5-4.5-5.1-4.5h-1.8v9.1H60.7z"/>
<path class="st1" d="M70,146.6c-0.1-5.2,4-9.5,9.2-9.6c0.1,0,0.2,0,0.3,0c3-0.2,5.8,1.2,7.5,3.6l-2.2,1.6c-1.2-1.7-3.2-2.7-5.3-2.6
	c-3.7,0-6.4,3-6.4,7s2.8,7,6.6,7c2.2,0.1,4.3-0.9,5.6-2.7l2.3,1.6c-1.8,2.6-4.9,4-8,3.8c-5.2,0.1-9.4-4-9.5-9.2
	C70,147,70,146.8,70,146.6"/>
<path class="st1" d="M116,156h-3.5l-3.2-4.6c-0.4,0.1-0.9,0.1-1.4,0.1h-1.8v4.5h-3v-18.8h4.8c5.2,0,8,2.9,8,7.2
	c0.2,2.7-1.3,5.2-3.8,6.3L116,156z M107.8,149c3.6,0,5.1-1.7,5.1-4.6c0-2.9-1.5-4.5-5.1-4.5h-1.7v9.1H107.8z"/>
<path class="st1" d="M119.6,156h-3l8.2-19.2h0.2l8.3,19.2h-3.1l-1.1-2.6h-8.4L119.6,156z M124.9,143.3l-3.1,7.5h6.2L124.9,143.3z"/>
<polygon class="st1" points="101.4,153.4 92.1,153.4 92.1,150.2 100.1,150.2 100.1,147.6 92.1,147.6 92.1,139.8 101.4,139.8 
	101.4,137.2 89.2,137.2 89.2,156 101.4,156 "/>
<polygon class="st1" points="44.8,150.2 52.8,150.2 52.8,147.6 44.8,147.6 44.8,139.8 54.2,139.8 54.2,137.2 41.8,137.2 41.8,156 
	54.2,156 54.2,153.4 44.8,153.4 "/>
<polygon class="st1" points="0,137.2 3,137.2 3,153.4 11.4,153.4 11.4,156 0,156 "/>
<path class="st1" d="M12.3,156h-3l8.3-19.2h0.2L26,156h-3.1l-1.1-2.6h-8.4L12.3,156z M17.6,143.3l-3.1,7.4h6.2L17.6,143.3z"/>
</svg>
