<svg id="Layer_1" data-name="Layer 1" xmlns="http://www.w3.org/2000/svg" viewBox="0 0 383.87 194.53"><title>Logo_MtOnline_corto_01_RGB</title><path d="M338.12,97.41v-.3a58.53,58.53,0,0,0-3.74-20.89,54.67,54.67,0,0,0-10.67-17.53,51.34,51.34,0,0,0-16.77-12.12,51.88,51.88,0,0,0-21.87-4.5,57,57,0,0,0-11.43,1.11l-2.06,3.65a50.29,50.29,0,0,1,13.33-1.69,46.92,46.92,0,0,1,20.34,4.33A49.83,49.83,0,0,1,321,61,50.87,50.87,0,0,1,331.17,77.6a55,55,0,0,1,3.59,19.67v.29a56.11,56.11,0,0,1-3.5,19.75,49.31,49.31,0,0,1-25.77,27.82,47.63,47.63,0,0,1-20.29,4.27,47,47,0,0,1-20.33-4.35,49.46,49.46,0,0,1-15.77-11.51,51.16,51.16,0,0,1-10.16-16.61,55.38,55.38,0,0,1-3.57-19.66V97a56,56,0,0,1,3.5-19.66c.14-.37.3-.74.46-1.12l-3.56,0s0,.06,0,.08A58.74,58.74,0,0,0,232,97.11v.3a58.66,58.66,0,0,0,3.72,20.89,54.26,54.26,0,0,0,10.68,17.52A51.13,51.13,0,0,0,263.11,148a55.61,55.61,0,0,0,43.83,0,50.93,50.93,0,0,0,16.77-12.13,54.41,54.41,0,0,0,10.67-17.52,58.45,58.45,0,0,0,3.74-20.89"/><polygon points="163.23 44.83 131.71 44.83 104.8 105.94 76.09 44.83 45.75 44.83 45.75 152.41 76.18 152.41 76.09 98.15 97.13 152.45 111.84 152.45 132.85 98.15 132.96 152.45 163.23 152.41 163.23 70.79 192.27 70.79 192.27 70.69 192.36 70.69 192.36 152.45 225.39 152.45 225.39 70.79 253.38 70.79 266 44.83 163.23 44.83"/></svg>