<?xml version="1.0" encoding="utf-8"?>
<!-- Generator: Adobe Illustrator 23.0.1, SVG Export Plug-In . SVG Version: 6.00 Build 0)  -->
<svg version="1.1" id="Layer_1" xmlns="http://www.w3.org/2000/svg" xmlns:xlink="http://www.w3.org/1999/xlink" x="0px" y="0px"
	 viewBox="0 0 577.7 160.3" style="enable-background:new 0 0 577.7 160.3;" xml:space="preserve">
<style type="text/css">
	.st0{fill:#FFFFFF;}
</style>
<title>Logo_Pulso_white_RGB</title>
<path class="st0" d="M248.6,8.6l-60.5,0.2v9.3l68.3-0.2C254.6,14.2,251.9,11,248.6,8.6"/>
<path class="st0" d="M254,87.7l-65.7,0.2l0.1,9.4l52.1-0.1C245.8,95.4,250.5,92.1,254,87.7"/>
<polygon class="st0" points="188.2,67.6 213.9,67.5 213.9,58.1 188.2,58.2 "/>
<path class="st0" d="M258.6,77.8L188.3,78v9.4l66.1-0.2C256.4,84.3,257.8,81.2,258.6,77.8"/>
<path class="st0" d="M259.7,68.3v-0.4H234v0.3c0,6.3-3,9-8.8,9h-11.3V68h-25.7l0.1,9.3l70.4-0.2c0.7-3,1-6,1-9"/>
<path class="st0" d="M214,99.3h11.2c4.5,0,9-0.5,13.3-1.6l-50.2,0.1v9.4h25.7L214,99.3"/>
<polygon class="st0" points="188.2,57.7 213.9,57.6 213.9,48.2 188.2,48.3 "/>
<polygon class="st0" points="188.4,117 214.1,117 214.1,107.6 188.4,107.6 "/>
<polygon class="st0" points="188.5,156.6 214.1,156.5 214.1,147.2 188.5,147.2 "/>
<polygon class="st0" points="188.5,159.2 214.2,159.2 214.1,157 188.5,157 "/>
<polygon class="st0" points="188.5,146.7 214.1,146.6 214.1,137.2 188.4,137.3 "/>
<polygon class="st0" points="188.4,126.8 214.1,126.8 214.1,117.5 188.4,117.6 "/>
<polygon class="st0" points="188.4,136.8 214.1,136.7 214.1,127.3 188.4,127.4 "/>
<polygon class="st0" points="234,47.7 259.7,47.6 259.7,38.2 234,38.3 "/>
<path class="st0" d="M213.9,24.2H225c3.6,0,6.2,1.3,7.7,3.7l26.5-0.2c-0.4-3.2-1.3-6.3-2.6-9.2l-68.6,0.1l0.1,9.4l25.7-0.2V24.2"/>
<path class="st0" d="M259.7,33.1c-0.1-1.6-0.2-3.2-0.3-4.8h-26.4c0.7,1.5,1.1,3.2,1.1,4.8v4.6h25.6L259.7,33.1"/>
<polygon class="st0" points="234,67.4 259.7,67.4 259.7,58 234,58.1 "/>
<polygon class="st0" points="234,57.5 259.6,57.5 259.6,48.1 234,48.1 "/>
<polygon class="st0" points="188.2,37.9 213.8,37.8 213.8,28.5 188.2,28.6 "/>
<polygon class="st0" points="188.2,47.8 213.9,47.7 213.8,38.3 188.2,38.4 "/>
<path class="st0" d="M224.9,2.2L188,2.4v5.8L247.7,8C242.2,4.3,234.6,2.2,224.9,2.2"/>
<polygon class="st0" points="269.6,8 295.2,7.9 295.2,2 269.5,2.1 "/>
<polygon class="st0" points="316,17.6 341.7,17.7 341.7,8.3 316,8.3 "/>
<polygon class="st0" points="269.6,17.9 295.3,17.8 295.2,8.4 269.6,8.4 "/>
<path class="st0" d="M342,127h-25.7l0,1.6c0,3.9-1.6,6.5-4.4,7.9l29.3-0.1c0.6-2.6,0.8-5.2,0.8-7.8V127"/>
<polygon class="st0" points="316.3,116.7 342,116.5 342,107.2 316.3,107.2 "/>
<polygon class="st0" points="316.2,77.1 341.9,77 341.9,67.6 316.2,67.7 "/>
<polygon class="st0" points="316.2,86.9 341.9,86.9 341.9,77.5 316.2,77.6 "/>
<polygon class="st0" points="316.2,96.8 342,96.8 341.9,87.4 316.2,87.5 "/>
<polygon class="st0" points="316.3,106.7 342,106.7 342,97.3 316.2,97.3 "/>
<polygon class="st0" points="269.8,87.1 295.5,87 295.4,77.7 269.8,77.7 "/>
<polygon class="st0" points="269.9,106.9 295.5,106.8 295.5,97.4 269.8,97.5 "/>
<polygon class="st0" points="316.3,126.5 342,126.5 342,117.1 316.3,117.1 "/>
<polygon class="st0" points="269.8,96.9 295.5,96.9 295.5,87.5 269.8,87.7 "/>
<polygon class="st0" points="269.7,47.5 295.3,47.4 295.3,38.1 269.6,38.2 "/>
<path class="st0" d="M295.6,128.7v-1.6h-25.7v1.6c0,2.6,0.3,5.3,0.9,7.9l29.3-0.1C297.2,135.1,295.6,132.6,295.6,128.7"/>
<polygon class="st0" points="316.1,57.2 341.8,57.2 341.8,47.9 316.1,48 "/>
<polygon class="st0" points="269.9,116.8 295.5,116.7 295.5,107.3 269.9,107.4 "/>
<polygon class="st0" points="316.2,67.2 341.9,67.1 341.8,57.7 316.1,57.8 "/>
<path class="st0" d="M306.1,137.6c-1.6,0-3.2-0.2-4.7-0.7h-30.5c0.7,3.4,2,6.6,3.9,9.5l62.4-0.3c1.9-2.8,3.2-6,3.9-9.3l-30.5,0.1"/>
<polygon class="st0" points="269.9,126.7 295.6,126.6 295.5,117.2 269.9,117.3 "/>
<polygon class="st0" points="269.7,57.5 295.4,57.4 295.4,48 269.7,48.1 "/>
<path class="st0" d="M336.9,146.8l-61.8,0.2c2.8,4,6.7,7.3,11.2,9.3l39.5-0.1C330.3,154.1,334.1,150.8,336.9,146.8"/>
<path class="st0" d="M306.2,160.3c6.4,0,12.7-1.2,18.6-3.6l-37.4,0.1C293.3,159.2,299.7,160.4,306.2,160.3"/>
<polygon class="st0" points="316.1,47.4 341.8,47.3 341.8,38 316.1,38 "/>
<polygon class="st0" points="269.6,27.8 295.3,27.7 295.3,18.4 269.6,18.4 "/>
<polygon class="st0" points="269.6,37.6 295.3,37.5 295.3,28.2 269.6,28.3 "/>
<polygon class="st0" points="316,27.7 341.8,27.6 341.7,18.2 316,18.2 "/>
<polygon class="st0" points="316.1,37.5 341.8,37.3 341.8,28.1 316,28.2 "/>
<polygon class="st0" points="269.7,67.4 295.4,67.2 295.4,57.9 269.7,57.9 "/>
<polygon class="st0" points="269.8,77.3 295.4,77.1 295.4,67.8 269.7,67.8 "/>
<polygon class="st0" points="316,7.9 341.7,7.8 341.7,1.9 316,2 "/>
<polygon class="st0" points="357.8,136.3 383.6,136.2 383.5,126.8 357.8,127 "/>
<polygon class="st0" points="357.8,96.8 383.5,96.8 383.4,87.3 357.7,87.3 "/>
<polygon class="st0" points="357.7,67 383.4,66.9 383.4,57.6 357.6,57.6 "/>
<polygon class="st0" points="383.6,137 383.5,136.7 357.8,136.8 357.8,146.2 418,146 417.9,136.8 "/>
<polygon class="st0" points="357.8,116.5 383.5,116.5 383.5,107 357.8,107.2 "/>
<polygon class="st0" points="357.7,86.8 383.4,86.7 383.4,77.4 357.7,77.4 "/>
<polygon class="st0" points="357.8,106.6 383.5,106.6 383.5,97.1 357.8,97.3 "/>
<polygon class="st0" points="357.7,76.9 383.4,76.9 383.4,67.5 357.7,67.6 "/>
<polygon class="st0" points="357.8,126.4 383.5,126.3 383.5,117 357.8,117 "/>
<polygon class="st0" points="358,158.7 418,158.5 418,156.4 357.9,156.6 "/>
<polygon class="st0" points="357.6,47.3 383.3,47.2 383.3,37.8 357.6,37.9 "/>
<polygon class="st0" points="357.6,57.1 383.4,57.1 383.3,47.7 357.6,47.8 "/>
<polygon class="st0" points="358,156.1 418,155.9 418,146.5 357.8,146.7 "/>
<polygon class="st0" points="357.5,27.5 383.3,27.5 383.2,18 357.5,18.2 "/>
<polygon class="st0" points="357.6,37.3 383.3,37.3 383.3,27.9 357.5,28.1 "/>
<polygon class="st0" points="357.5,17.5 383.2,17.5 383.2,8.1 357.5,8.2 "/>
<polygon class="st0" points="357.5,7.8 383.2,7.7 383.2,1.8 357.5,1.9 "/>
<path class="st0" d="M458.2,0.2c-11.1,0.1-19.4,2.7-25.3,7.3l49.8-0.2C476.9,2.9,468.7,0.2,458.2,0.2"/>
<path class="st0" d="M458.6,137.2c-1.6,0-3.2-0.2-4.8-0.6h-30.5c0.7,3.3,2,6.5,3.9,9.4l62.6-0.2c1.8-2.9,3.1-6,3.9-9.3h-30.6
	C461.7,137,460.2,137.2,458.6,137.2"/>
<path class="st0" d="M466.3,106.3h27.4c-0.5-3.2-1.4-6.4-2.7-9.4l-33.4,0.1C461.1,99.5,464,102.7,466.3,106.3"/>
<polygon class="st0" points="468.6,47 493.6,46.9 493.5,37.5 468.6,37.6 "/>
<path class="st0" d="M422.4,128.3c0,2.6,0.3,5.2,0.8,7.8l29.2-0.1c-2.9-1.3-4.8-3.8-4.8-7.7v-1.5l-25.2,0.1V128.3"/>
<path class="st0" d="M426.9,66.9l34.6-0.2c-3.6-2.6-6.9-5.7-9.6-9.3h-28C424.5,60.7,425.5,63.9,426.9,66.9"/>
<path class="st0" d="M457,96.5l33.8-0.1c-1.5-3.4-3.4-6.5-5.6-9.4l-40.7,0.1C448.8,90.4,453.2,93.4,457,96.5"/>
<path class="st0" d="M443.8,86.6l41-0.1c-2.8-3.5-6-6.6-9.5-9.4l-41.6,0.1C436.7,80.7,440.1,83.8,443.8,86.6"/>
<polygon class="st0" points="468.6,56.8 493.6,56.8 493.6,47.4 468.6,47.5 "/>
<path class="st0" d="M422.8,37.2h25.7v-6.4c0-1,0.2-2,0.6-3h-26.1c-0.1,1.1-0.2,2.1-0.2,3V37.2"/>
<path class="st0" d="M468.9,115.6v0.7l25.7-0.2v-1.4c0-2.7-0.3-5.4-0.7-8l-27.2,0.1C468.1,109.4,468.9,112.5,468.9,115.6"/>
<polygon class="st0" points="422.4,126.2 447.6,126.2 447.5,116.8 422.3,116.8 "/>
<polygon class="st0" points="468.8,126.1 494.5,126 494.5,116.7 468.8,116.8 "/>
<polygon class="st0" points="422.8,47 448.5,47 448.5,37.7 422.8,37.7 "/>
<path class="st0" d="M433.2,76.8l41.4-0.2c-4.2-3.3-8.6-6.3-12.5-9.2h-35C428.8,70.8,430.8,73.9,433.2,76.8"/>
<path class="st0" d="M489.6,146.3l-62.1,0.2c2.8,4,6.6,7.2,11.1,9.3l39.7-0.1C482.8,153.6,486.7,150.4,489.6,146.3"/>
<polygon class="st0" points="422.3,116.4 447.5,116.2 447.5,106.9 422.3,107 "/>
<path class="st0" d="M422.9,47.7c0,3.1,0.3,6.2,0.9,9.3l27.7-0.1c-1.9-2.8-2.9-6-3-9.3L422.9,47.7"/>
<path class="st0" d="M422.9,27.3h26.3c1.4-2.8,4.5-4.3,9-4.3c4.1-0.1,7.4,1.4,9.1,4.3h25.9c-0.4-3.2-1.2-6.4-2.5-9.4L425.1,18
	C423.9,21,423.1,24.1,422.9,27.3"/>
<path class="st0" d="M458.2,159.8c6.5,0.1,13-1.1,19.1-3.6l-37.7,0.1C445.5,158.7,451.8,159.9,458.2,159.8"/>
<path class="st0" d="M494.5,126.6l-25.7,0.1v2.7c0.1,2.9-1.6,5.5-4.2,6.6l29.2-0.1c0.5-2.3,0.8-4.6,0.7-7L494.5,126.6"/>
<polygon class="st0" points="422.3,106.5 447.5,106.4 447.5,102.4 422.3,102.6 "/>
<path class="st0" d="M468.6,31.8v5.2h25v-5.4c0-1.3-0.1-2.7-0.2-4h-25.7C468.3,29,468.6,30.4,468.6,31.8"/>
<path class="st0" d="M425.3,17.5l65.1-0.2c-1.6-3.6-4.1-6.8-7.2-9.4l-51,0.2C429.3,10.6,426.9,13.8,425.3,17.5"/>
<path class="st0" d="M508.5,17.2l65.8-0.1c-1.7-3.7-4.3-6.9-7.4-9.4l-51,0.2C512.7,10.3,510.2,13.5,508.5,17.2"/>
<polygon class="st0" points="552,106 577.7,105.9 577.7,96.6 552,96.8 "/>
<polygon class="st0" points="552.1,116 577.7,115.9 577.7,106.5 552,106.6 "/>
<polygon class="st0" points="551.9,86.3 577.7,86.2 577.6,76.8 551.9,76.9 "/>
<polygon class="st0" points="552,96.2 577.6,96.1 577.6,86.7 551.9,86.8 "/>
<polygon class="st0" points="551.9,76.3 577.6,76.3 577.6,66.9 551.9,67 "/>
<polygon class="st0" points="552.1,125.9 577.7,125.8 577.7,116.4 552.1,116.5 "/>
<polygon class="st0" points="505.4,56.7 531.1,56.6 531.1,47.3 505.4,47.4 "/>
<path class="st0" d="M552.1,127.9c0.1,3.3-1.8,6.4-4.8,7.9H577c0.5-2.6,0.8-5.2,0.8-7.9v-1.6l-25.7,0.1L552.1,127.9"/>
<polygon class="st0" points="505.6,116.1 531.3,116 531.3,106.6 505.5,106.7 "/>
<polygon class="st0" points="505.6,126 531.3,125.9 531.3,116.5 505.6,116.7 "/>
<polygon class="st0" points="505.6,106.3 531.3,106.2 531.2,96.8 505.6,96.8 "/>
<path class="st0" d="M522,155.6l39.5-0.1c4.5-2.1,8.4-5.3,11.2-9.4l-61.8,0.2C513.7,150.3,517.5,153.5,522,155.6"/>
<polygon class="st0" points="551.9,66.5 577.6,66.4 577.5,57 551.9,57.1 "/>
<path class="st0" d="M541.5,137c-1.4,0-2.8-0.2-4.2-0.7l-30.8,0.1c0.8,3.3,2.1,6.5,4,9.4l62.4-0.1c1.9-2.9,3.2-6,3.9-9.4l-30.9,0.1
	C544.6,136.7,543.1,137,541.5,137"/>
<path class="st0" d="M505.7,27.1l26.6-0.1c1.7-2.7,4.9-4.3,9-4.4c4.3,0,7.6,1.6,9.3,4.3h26.6c-0.4-3.2-1.3-6.4-2.6-9.3l-66.3,0.1
	C506.9,20.7,506.1,23.9,505.7,27.1"/>
<polygon class="st0" points="505.5,96.4 531.2,96.3 531.2,86.9 505.5,87 "/>
<path class="st0" d="M551.8,31.6l0.1,5.3l25.6-0.1v-5.3c0-1.4-0.1-2.7-0.3-4.1l-26.4,0.2C551.5,28.8,551.8,30.2,551.8,31.6"/>
<polygon class="st0" points="505.5,76.6 531.2,76.6 531.1,67.1 505.4,67.2 "/>
<polygon class="st0" points="505.4,66.6 531.1,66.5 531.1,57.1 505.4,57.2 "/>
<polygon class="st0" points="551.9,46.7 577.6,46.6 577.5,37.2 551.9,37.3 "/>
<path class="st0" d="M505.4,37l25.7-0.1v-5.3c0-1.4,0.3-2.8,0.9-4.1l-26.4,0c-0.1,1.4-0.2,2.7-0.2,4.1V37"/>
<polygon class="st0" points="551.9,56.6 577.5,56.5 577.6,47.1 551.9,47.3 "/>
<path class="st0" d="M505.7,128.1c0,2.6,0.3,5.2,0.8,7.8h29.7c-3-1.4-4.9-4.5-4.8-7.8v-1.6h-25.7L505.7,128.1"/>
<polygon class="st0" points="505.5,86.4 531.2,86.3 531.2,76.9 505.5,77 "/>
<polygon class="st0" points="505.4,46.8 531.1,46.8 531.1,37.3 505.4,37.5 "/>
<path class="st0" d="M541.7,159.6c6.4,0.1,12.8-1.1,18.8-3.6l-37.3,0.1C528.2,158.4,534.4,159.6,541.7,159.6"/>
<path class="st0" d="M541.2,0c-10.5,0-18.8,2.7-24.7,7.3l49.7-0.1C560.2,2.6,551.9,0,541.2,0"/>
<path class="st0" d="M0,2v157.1h163.7V2H0z M80.5,131H19.6V30.9h15.8v86.2h45.1V131z M144,44.8h-29.8V131H98.5V44.9H68.8v-14H144
	V44.8z"/>
</svg>
