<?xml version="1.0" encoding="utf-8"?>
<!-- Generator: Adobe Illustrator 23.0.1, SVG Export Plug-In . SVG Version: 6.00 Build 0)  -->
<svg version="1.1" id="Layer_1" xmlns="http://www.w3.org/2000/svg" xmlns:xlink="http://www.w3.org/1999/xlink" x="0px" y="0px"
	 viewBox="0 0 770 116.2" style="enable-background:new 0 0 770 116.2;" xml:space="preserve">
<style type="text/css">
	.st0{fill:#010101;}
</style>
<g>
	<path class="st0" d="M768.1,75.5c-1.4-3.3-3.7-6.1-6.5-8.2c-3.7-2.8-7.8-4.9-12.1-6.4c-6-2.2-12.2-3.9-18.5-5.1
		c-5.9-1.1-11.7-2.6-17.4-4.6c-4-1.3-7.8-3.2-11.2-5.6c-2.6-1.8-4.7-4.3-6-7.2c-1.2-2.9-1.8-6-1.8-9.2v-0.3c0-3.3,0.8-6.6,2.3-9.6
		c1.6-3.2,3.9-5.9,6.7-8.2c3.1-2.5,6.6-4.4,10.4-5.7c4.3-1.4,8.9-2.1,13.5-2.1c6.7-0.1,13.4,1.1,19.7,3.5c6,2.2,11.7,5.3,16.8,9.1
		l2.2-2.9c-5.3-4-11.2-7.2-17.5-9.4C741.9,1.1,734.9,0,727.8,0c-5-0.1-10,0.7-14.8,2.3c-4.2,1.4-8.1,3.5-11.6,6.2
		c-3.2,2.5-5.8,5.6-7.7,9.2c-1.8,3.5-2.8,7.3-2.8,11.2v0.3c-0.1,3.6,0.6,7.2,2.1,10.6c1.5,3.2,3.8,6,6.7,8.2c3.7,2.7,7.7,4.8,12,6.2
		c5.8,2,11.8,3.6,17.8,4.8c6,1.2,12,2.8,17.9,4.8c4.1,1.3,7.9,3.2,11.4,5.7c2.6,1.9,4.7,4.4,6,7.3c1.2,2.9,1.8,6.1,1.8,9.3v0.3
		c0,3.7-0.8,7.3-2.4,10.6c-1.6,3.3-4,6.2-6.9,8.5c-3.3,2.5-7,4.4-11,5.6c-4.7,1.4-9.5,2.1-14.4,2c-7.9,0.1-15.8-1.5-23.1-4.5
		c-7.2-3.1-13.8-7.5-19.4-12.9l-2.6,2.6c5.9,5.7,12.8,10.2,20.4,13.4c7.7,3.2,16,4.8,24.3,4.7c5.4,0.1,10.9-0.7,16.1-2.3l-0.1,0
		c4.4-1.4,8.5-3.5,12.2-6.4c3.2-2.6,5.9-5.8,7.7-9.5c1.8-3.7,2.7-7.7,2.7-11.8v-0.3C770.1,82.3,769.4,78.8,768.1,75.5z"/>
	<polygon class="st0" points="646.8,110 613.4,4.4 612.6,1.6 611.1,1.6 610.2,4.4 576.8,110 542.6,1.6 540.3,1.6 539.4,1.6 
		462.4,1.6 461.3,1.6 459.2,1.6 459.2,114.6 461.4,114.6 461.4,114.6 541.1,114.6 541.1,111.4 462.4,111.4 462.4,101.9 462.4,59.4 
		470.2,59.4 533.4,59.4 533.4,56.2 462.4,56.2 462.4,4.8 470.2,4.8 540.3,4.8 540.3,4.7 575.1,114.6 575.4,114.6 578.3,114.6 
		578.6,114.6 611.8,9.4 645.1,114.6 645.4,114.6 648.3,114.6 648.6,114.6 684.3,1.6 681.1,1.6 	"/>
	<polygon class="st0" points="229.2,0.8 200.7,65.4 170.4,0.8 138.3,0.8 138.3,114.6 170.5,114.6 170.4,57.2 192.6,114.6 
		208.2,114.6 230.4,57.2 230.5,114.6 262.5,114.6 262.5,28.3 293.3,28.3 293.3,28.1 293.3,28.1 293.3,114.6 328.3,114.6 328.3,28.3 
		357.9,28.3 371.2,0.8 	"/>
	<path class="st0" d="M0,114.6h118.6V0.8H0V114.6z M49.8,21.6h54.5v10.2H82.8v62.4H71.4V31.8H49.8V21.6z M14.2,21.6h11.4v62.4h32.7
		v10.2H14.2V21.6z"/>
	<rect x="348.5" y="31.8" class="st0" width="3.5" height="82"/>
	<polygon class="st0" points="435.4,106.6 365.8,19.6 364.3,22.9 435.9,112.3 438.8,112.3 438.8,1.8 435.4,1.8 	"/>
</g>
</svg>
