<svg version="1.1" id="Layer_1" xmlns="http://www.w3.org/2000/svg" x="0" y="0" viewBox="0 0 340.7 67.3" xml:space="preserve"><style>.st0{fill:#fd0001}.st1{fill:#16b2f4}.st2{fill:#fff}</style><g id="Mouse_Anaglyph_2_1_"><path class="st0" d="M333.4 67.2c2.8.6-2.6-2.4-1.4-3 3.3-.7.3-2.9-.3-3.9.3-1 3.6-1.4-.3-2.4.8-1 3-.9 1.4-1.6-3.1-.7.5-1.1.4-1.3-.3-.4-1.3-.7-1.4-.7-.4 0-6.1-1.5-17.7-1.5-4.1 0-20.5 10.8-12.5 10.8 7.7-.1 31.8 3.6 31.8 3.6"/><path class="st1" d="M143.8 11.9c-1.5 0-3 .2-4.3.4.8.2 1.6.4 2.3.7.7.3 1.4.6 2.1 1 0 .4 1.7.8 1.8 1.3-.2.5-.9 1 1.6 1.6 1.4.6 2.5 1.2 1.3 1.9 2.4.7 1.5 1.4 1 2.2-2.9.8 2.8 1.6.7 2.4-1 .8.1 1.7.4 2.6 1.3.9-1.5 1.9.1 2.8-.6 1-2.7 2-.3 3 0 1-1.6 1.9-.6 2.8.2.9-2 1.8-.8 2.6-.4.9 1.4 1.7-1 2.5-3.4.8-3.5 1.5-1.3 2.3-1.2.7-.5 1.4-1.5 2.1-1.3.7.8 1.3-1.6 1.9 0 .6-1.1 1.1-1.8 1.6-.6.5-1.3 1-2 1.4-2 1.3-4.3 2.2-6.7 2.7 1.3.3 2.6.4 4.1.4 10.7 0 19.5-8.2 21.3-20.3 2-11.9-4.4-19.9-14.8-19.9"/><path class="st1" d="M107.3 32.1c2.1-13.8 14-29.9 33.5-31.9-1.4-.1-2.8-.2-4.2-.2-3.1 0-6 .3-8.7 1-.9.2-1.8.4-2.7.7-.7.3-4.4.6-2.5.9 1.4.3-.1.7-2.4 1.1-2.6.4-1 .8-2.3 1.2-4.3.4-.6.9-2.2 1.4.2.5-1.6 1-2.1 1.5.1.5-.8 1-1.9 1.6-1.7.6-3.2 1.1-1.8 1.7.6.6-1.6 1.2-1.7 1.8-1.3.6-.3 1.2-1.5 1.9-1.7.6-.5 1.3-1.4 1.9.2.7-.2 1.3-1.3 2 1.1.7.9 1.4-1.1 2-2.7.7-.3 1.4-1 2.1.3 0-3.3.3-.1.8-1.5.5-.3 1.3-2.6 2.1 3 .9 1.6 1.9 1 3-3.8 1.1 4 2.3.2 3.5-1 .4-1.2.8-1 1.2-.8.4.9.8 1 1.2-.8.4-.3.8-.5 1.1-.3.6 2.1 1.1.7 1.6 1.2.5-.8 1-1.1 1.4-.1.4 1.4.8 0 1.2-.1.4 1.2.7-.3.9 1 .3-1 .5-.6.6-.8.1-1.2.2.5.2.1.4-2.4.8.1 1.2-.5.4.9.8.3 1.2-1.4.4-1.3.8-.1 1.2-.6.4.5.8.8 1.2.5.4.4.8.4 1.1-.1.4-.1.8.5 1.1.8.7 3.7 1.5 1.1 2.2-2.4.7 1.4 1.4 1.3 2.1-.1.7.4 1.3 1.5 1.9 3.7.6 5.2 1.2 1.7 1.8 1.3.6 3.9 1.1 1.9 1.7-.3.5 1.2 1 2.1 1.5-1.6.5 3.1.9 2.3 1.3 1.7.4 1.8.8 2.5 1.1l2.7.9c2.9.8 6 1.2 9.6 1.2 1.4 0 2.8-.1 4.1-.2-19.3-2-26.9-17.4-24.7-32m73.6 21c-1.6-3-2.9-8.2-1.8-15.6L184.6.7h-8.2c.3 0 .3.3-.1.8.9.5-1.4 1.3-.3 2.2-.2.9-.6 2-.5 3.2-2.7 1.2-.4 2.4-.5 3.6-1.9 1.2-1.4 2.5-.5 3.6 1.6 1.2-1.9 2.2-.5 3.2-.7.9.7 1.7-.3 2.2 1.6.5 2.6.8-.1.8-.2.8 3.8 1.5.2 2.3.3.8.5 1.5-.4 2.3-1.6.8-1.3 1.6-.7 2.3.6.8.2 1.5-.7 2.3 2.7.8-1 1.5-.5 2.3 2.8.7-1.9 1.4-.1 2.1-1.6.7.9 1.4.1 2.1-.4.7-.6 1.4.1 2.1 2.2.7-3.4 1.4-.2 2.1-2.5.7-.3 1.4-.7 2.1-1.1.9.4 1.8.1 2.7-2.7.8 1.8 1.6.3 2.4.5.7-1 1.4.5 2.1-1.2.6.1 1.2.6 1.8-1.8.5 1.2 1 .7 1.5 0 .9-.3 1.8 1.6 2.6 2.8.8.6 1.5 1.9 2.2 2.8.7-.2 1.2 2.1 1.8 2.1.5 2.4 1 2.3 1.4.9.4 1.9.8 2.4 1.1.8.3 1.7.6 2.5.8 4.2 1.2 8.5 1.3 11.8 1.3 1.3 0 2.5 0 3.8-.1-7.3-.3-16-2.3-20.4-10.8m39.2-6.9c3.3-4 4.4-11.1 4.7-13.2L229.6.7h-8.2c-.5 0 .6.2-.1.5-1.4.4-.4.9-.2 1.5-.5.6-1.5 1.4-.3 2.3-1.8 1-.8 2-.5 3-.7 1.1.7 2.2-.5 3.4 1.8 1.2.2 2.4-.5 3.6.7 1.2-1.5 2.5-.6 3.7-1 1.2 1.4 2.5-.5 3.6-.9 1.2.1 2.3-.5 3.4s.5 2-.4 2.9c-.6.9-.1 1.7-.3 2.3 2.5.6-2.1 1.2-.2 1.5 1.5.4-.2.5-.1.5-.3.3.4.8-.2 1.4 1.3.6 0 1.3-.4 2-3.1.8.1 1.6-.6 2.4.2.9 1.8 1.7-.9 2.6-.3.9-1.5 1.7-1.1 2.5-2.2.8-2.2 1.6-1.5 2.2-1.9.6-.3 1.2-1.7 1.7-1.7.5-1.2 1-1.8 1.4-1.9 1.3-4 2.1-5.9 2.6 1.3.4 2.7.5 4.1.5 3.8.4 9.6-1.3 13.4-6m50.6-34.3c3.4.9 6.2 2.6 7.9 3.9l.6-3.8c-1.4-.4-2.9-.6-4.4-.6-1.6-.1-2.9.1-4.1.5m-25.2 39.8c-1.4-.5-2.8-1.2-4-2-.6-.4-.9-.8-1.8-1.3-.6-.4-1.1-.9-1.7-1.4 0 0-.1.4-.2 1 .2.6.4 1.6-.4 2.6-.6 1 .6 2.2-.5 3.4-1.2 1.2-1.2 2.3-.5 3.4.9 1-3.9 1.9-.4 2.6-1.2.6-.9 1-.2 1 0 .3 2.3.7 2.8 1-.4.3 2.1.5 2.5.8.8.2 1.5.4 2.3.6 2.9.7 5.3 1 7.9 1 1.4 0 2.7-.1 4.1-.3-3.1-.4-6.5-1.3-11.2-3l1.3-9.4zm24.5-5.8c.3-1.8.2-4.1-4.1-6.6-8.6-5.2-9.7-5.9-12.3-9-3-3.6-3.8-7.4-3.2-11.5 1.5-9.7 10.1-17 20-18.5-1.5-.2-3.1-.3-4.6-.3-3.5 0-6.9.7-10 2.1-.8.3-1.5.7-2.3 1.1-1.5.4-.3.9-2.1 1.3-.5.5-.7 1-2 1.5-.4.5-1.6 1.1-1.8 1.7-.1.6-3.6 1.2-1.6 1.9-1.5.7-1.5 1.3-1.4 2.1-5.2.7-.5 1.4-1.1 2.2-2 .8-3.6 1.5-.8 2.3.5.8 1.5 1.6-.5 2.5 1.6.8-1 1.6-.2 2.4.8.8-1.9 1.6.2 2.4-1.1.8.6 1.5.6 2.3 1.5.8-1.2 1.5 1 2.2-.8.7.4 1.5 1.5 2.2 2.1.5 3.2 1 1.2 1.4.8.4-.7.8 1.2 1.2 1.1.4-.2.8 1.5 1.2.5.4-1.5.8 2 1.3 1.4.5 2.1 1 2.7 1.7 1.2.6.5 1.4 3.7 2.2-.6.6 2.6 1.3 2.5 1.8-1.1.6 2.7 1.2 1.3 1.7.3.6-2 1.1.4 1.6-.6.5-2.1 1-.1 1.4 1.9.5 2.9 1.1-.5 1.7-.1.6.6 1.2-1.1 1.8 1.2.6.2 1.2-1.8 1.7-.7.5-1.6.9-2.6 1.2 1.4.4 2.8.6 4.3.6 6.8.2 9.6-4.2 10-6.8M292.4.7V1c0 .2-.1.5-.1.9.3.4 1.1.9-.2 1.5-.9.6.8 1.2-.3 2 1.8.7 1.7 1.5-.4 2.4-.9.9 3.7 1.8-.4 2.8-1.1 1-2.8 2-.5 3.1-.1 1.1-1.7 2.2-.5 3.4.5.6.4 1.2.2 1.8-.2.6 0 1.2-.7 1.8-.2 1.2-.1 2.3-.5 3.5-1.6 1.2 2.6 2.4-.5 3.6 1 1.2-.1 2.4-.5 3.7.4 1.2-1.8 2.5-.6 3.7.5 1.2-1.1 2.4-.5 3.6-2 1.2-2.3 2.4-.5 3.6 1.6 1.2 2.1 2.3-.5 3.4 1.5 1.1-2.3 2.2-.5 3.3 1.3 1.1-.6 2.1-.5 3 1.5 1 1 1.9-.4 2.8-1.9.9-1.7 1.7-.4 2.5-.3.8-1.2 1.5-.3 2.1.7.6-.7 1.2-.3 1.7-1.5.5-2.2.9-.2 1.3 1.7.4.1.6-.1.8-.4.2 1.7.3 0 .3h8.2L300.8.8h-8.4zm-215.1 34s0 .2-.1.7c-.1.4.1 1.1-.3 1.8-.5.8-1.1 1.7-.4 2.8 0 .5-.2 1.1-.3 1.6-.1.6-.3 1.2-.2 1.8-1.6.4.4.8 0 1.2.2.4.4.8.4 1.3 0 .4-.2.9-1 1.3-.2 1.3.8 2.6-.6 3.9-2.2 1.3.8 2.6-.6 3.8-1.8 1.2 1.6 2.4-.5 3.4-4.6 1 1.6 2-.4 2.8.1.8-.6 1.4-.3 1.8.9.4.9.7-.1.7h8.2L87 24.3l-9.7 10.4zM92.2.7H84c.4 0 0 .3-.7.7-.3.2-.3.5-.8.8-1.5.3-2.1.7-1 1 2.9.4-1.3.8-1.3 1.2-.9.4-2.5.9-1.1 1.3-.7.4-1 .9-1.8 1.4-.7.5-1.3.9-.8 1.4-.3.9-1.1 1.7-2.4 2.5-1.5.7-1.5 1.4-1.7 1.8l-.7.7-1.5 10.4L92.2.7zM60.8.7h-8.2c-3.1 0 2.2.1-.2.2-3.2.1-1.2.3-.6.6 3.1.3 0 .6-.9 1-2.3.4-1.8.8-1.3 1.3-.6.2-.4.5-.4.8 0 .3-.1.6-1.1.9.8.3.8.6.6.9.4.3-1.3.7-2.4 1-.2.3-1.1.7-1 1.1.5.4-2.5.7-1 1.1-3.1.3-.2.7-1 1-.9.3-1.6.7-.9 1-.1.4-.2.7-1.8 1.1-.3.4-.3.7-.3 1.1-2.5.8-3.2 1.5-2.2 2.3-1 .8.3 1.6-2.3 2.4-1.9.8-2 1.6-2.3 2.5-.1.4-.5.8-1 1.3-.5.4-1 .8-1.4 1.3-.3.9-1.2 1.8-2.6 2.7-2.1.9-1.2 1.8-2.6 2.7-2.4.9-1.6 1.8-2.6 2.7.7.9-3.1 1.8-2.5 2.7.6.9-2.9 1.8-2.5 2.6-3.2.9-.7 1.7-2.4 2.5-.3.2-.5.4-.7.6-.2.2-.3.4-.7.6-.4.2-.3.4-.5.6.5.2-2.6.4-.3.6.8.2-1.2.4-.4.6-2 .2 0 .4-.7.6.7.2-1.8.4-.5.6-1.5.2 1 .4-.5.5.7.5.3 1-.8 1.4-1.6.5-2.3.9-1.8 1.3-2.5.4-1.7.8-1.9 1.2-.1.5-3.4.9-.5 1.2 2.3.4.5.7-1 1-.2.3-2.9.6-2.8.9-.8.3-1.6.6-1.3.8-.1.2-.1.5-.1.7 0 .4.3.7-.9.9.2.3-.3.4-.2.4-1 0 .3.4.9 1 2.1 2.4 9.2 8.5 9.2 8.5l4.3-4.6-4.3-5L60.8.7zM46 34.7s-.1 1-.4 2.5c-.1.8 1.1 1.7-.4 2.8-.2 1 .7 2.2-.5 3.4.3 1.2.4 2.5-.6 3.8-.5 1.3 0 2.6-.6 3.9-3.9 1.3-6 2.6-.6 3.8-.9 1.2-1.5 2.4-.5 3.4-1.7 1-2.3 2-.4 2.8-.1.8-.2 1.4-.3 1.8-.1.4-.1.7-.1.7l.2-.2v.2l9.6-10.2 4.3-29.1L46 34.7z"/><path class="st0" d="M122.2 32.4c-1-.8 2.4-1.5.4-2.3-2.1-.8.4-1.6.7-2.3-.6-.8-.7-1.5.9-2.3 1.1-.8-.1-1.5 1.1-2.3 2.4-.7-.2-1.5 1.3-2.2-1.4-.7.9-1.4 1.6-2-1.4-.6-.1-1.3 1.8-1.8 2.2-.6-.1-1.1 2-1.6.6-.5.8-1 2.3-1.4.8-.4 1.6-.8 2.5-1.1.9-.3 1.8-.6 2.7-.8-1.2-.3-2.5-.4-3.9-.4-13.3 0-20.2 11.1-21.6 20.5-1.5 10.2 3.4 19.9 15.3 19.9 1.4 0 2.8-.1 4.2-.4-1.8-.4-3.3-1.1-4.7-1.9-.7-.4-1.3-.9-1.9-1.5.1-.5-.4-1.1-1.6-1.7-2.5-.6-1.3-1.3-1.3-2 2.5-.7-.9-1.4-1-2.2-4.1-.8 0-1.6-.6-2.4 1.4-.8-2.1-1.6-.3-2.5.2-.9.1-1.7 0-2.6-.1-1-2.4-1.8.1-2.7"/><path class="st2" d="M165.5 32c2-13.6-4.6-29.8-24.7-31.8-19.5 2-31.4 18.1-33.5 31.9-2.2 14.6 5.4 30.1 24.5 32 20-2 31.6-18.3 33.7-32.1m-28 20.2c-1.5 0-2.8-.1-4.1-.4-1.3.3-2.7.4-4.2.4-11.9 0-16.8-9.7-15.3-19.9 1.4-9.4 8.3-20.5 21.6-20.5 1.4 0 2.7.1 3.9.4 1.4-.3 2.8-.4 4.3-.4 10.3 0 16.8 8 15 20-1.7 12.3-10.6 20.4-21.2 20.4"/><path class="st0" d="M173.3 20.5c2.7-.7 2.5-1.4-.6-2.2 3.2-.7-1.3-1.4-.8-2.1.3-.7 2-1.4-.9-2 .5-.7 4.4-1.3-1.1-2-1.2-.6-1.9-1.3-1.3-1.9-.8-.6-.9-1.2-1.5-1.8-2.6-.6 1.2-1.1-1.7-1.6-1.7-.5-1.7-1-1.9-1.5-3-.5 1.3-.9-2.1-1.4-3.6-.4-3.5-.8-2.3-1.2-.5-.4 1.2-.7-2.5-1 .3-.3 1.8-.6-2.7-.8-.9-.2-1.9-.4-2.9-.6-2-.3-4.2-.5-6.5-.5-1.4 0-2.7.1-4 .2 20.1 2 26.8 18.2 24.7 31.8-2.1 13.8-13.7 30.1-33.7 32.1 1.3.1 2.7.2 4.1.2 4.3 0 8.3-.6 11.9-1.8.9-.3 1.8-.6 2.6-.9.4-.3 1.3-.7 2.5-1.1 3.4-.4 1.7-.8 2.4-1.3 1.4-.5 2.3-.9 2.2-1.4 1.5-.5 1.6-1 2.1-1.6 1-.5 3.8-1.1 2-1.7-2.3-.6-.3-1.2 1.8-1.8 1.5-.6 3.9-1.2 1.7-1.9.8-.6-1-1.3 1.5-2 .8-.7 4.8-1.3 1.4-2 4.6-.7-1.7-1.4 1.3-2.1 3.2-.7 2.3-1.4 1.1-2.1 1.7-.7 2.1-1.4 1-2.1.4-.7 1.3-1.4.8-2.1-.7-.7 1-1.4.7-2.1 1-.7-1.9-1.4.5-2.1 3.1-.7-1-1.4.4-2.1 1.6-.8-2.5-1.5.3-2.3 1.8-.8-.7-1.5.1-2.3.2-.8 1.3-1.5-.1-2.3 1.3-.8.5-1.5-.3-2.3 1.2-.8 2.2-1.6-.2-2.3M187.6 48c2.5 3.2 6.7 4.6 10.5 4.6 1.3 0 2.7-.2 4.2-.5-1.3-.3-2.5-.8-3.6-1.5-.6-.3-.4-.7-1.6-1.1 0-.4-1.6-.9-1.4-1.4-.3-.5-.4-1-1-1.6-1-.5 1.5-1.1-.7-1.7.2-.6-2.1-1.2-.4-1.9-1.9-.7-.7-1.4-.2-2.1.8-.7-1.9-1.5.1-2.3-1.4-.8.4-1.7.2-2.6-1.2-.9 2.4-1.8.4-2.8 1.1 0 1.9-.2.1-.5-2-.4.2-.9.2-1.5 3.3-.6 1-1.4.3-2.3-2.2-.9-1.7-1.9.4-2.9.9-1.1.3-2.2.5-3.4-1.1-1.2.9-2.4.5-3.6.5-1.2.9-2.5.6-3.7 0-1.2 2.8-2.5.5-3.6 0-1.2-.9-2.3.5-3.4.8-1.1 1-2 .4-2.9-.3-.9-.3-1.7.3-2.3-.8-.6.8-1.2.2-1.5-.7-.4-.4-.5.1-.5h-8.2L186 33c-1.1 7-1.2 11.4 1.6 15M244.1.7h-8.2l-5.4 35.9c-.6 4.2-1.7 10.8-7.2 17-6.1 7.1-14 9.9-22.2 10.5 1.6.1 3.1.1 4.5.1 2.6 0 5.2-.2 7.7-.6.8-.1 1.6-.3 2.5-.5.4-.2 1.2-.4 2.5-.7 1-.3 3.1-.6 2.4-.9-1-.3 1.7-.7 2.3-1.1 1.4-.4 1.3-.8 2.3-1.3-.2-.5 2-1 2.2-1.6.5-.6.2-1.2 2.1-1.8 1.1-.6-.3-1.3 2-2.1-.6-.4-.2-.8 1.2-1.2 4.8-.4 2.2-.8.6-1.2-1.3-.4.4-.8 1.4-1.2.2-.4 1.3-.8.1-1.2 2.4-.3 1.5-.5 2.1-.8 1-.3.3-.5.1-.8-.2-.3-.6-.5-1-.8 3.2-.8 1.3-1.5.9-2.3-1.2-.7 2-1.5.7-2.2 1.9-.7-1-1.4.5-2 .4-.7-4.1-1.3.4-1.9 1-.3.8-.6 1.2-.9.4-.3-.9-.5-.9-.8 1.9 0 .9 0 .6-.1.5-.1-.8-.2-.5-.4-1-.2.2-.4.1-.6 2-.2-1.6-.5.2-.8 2.9-.3-.5-.7 0-1-1.4-.4-1.7-.8.4-1.2-.1-.4-.3-.9-.1-1.4-1.2-.5.7-1 .6-1.5-.6-.5-.1-1.1.4-1.6.6-.6 1.4-1.1.1-1.7 1-.4 1.5-.8-.7-1.2.3-.4-1.4-.8.5-1.2-2.1-.4-1-.8.7-1.2 1.2-.4-.2-.8-.6-1.3-.1-.4 1.6-.8.8-1.3 1.1-.4-.4-.9.3-1.3.8-.6.4-1.3.2-1.9 1.9-.6-.8-1.3.4-1.9-2-.6 2-1.2.9-1.9-.2-.6-2.1-1.2-.3-1.8 1-.6-.6-1.2.2-1.7-.6-.6-2.2-1.1.3-1.6-.2-.5.3-1 .3-1.5.8-.5 1.3-.9.1-1.4.8-.4 2.4-.8 1-1.2 1.2-.4-1.8-.7-.6-1 .3-.3.1-.6.3-.8.2-.2.3-.5-.1-.6-.9-.3-1-.5-.3-.5"/><path class="st2" d="M223.3 53.7c5.5-6.3 6.5-12.9 7.2-17L235.9.8h-6.3L224.8 33c-.3 2.1-1.4 9.2-4.7 13.2-3.8 4.6-9.6 6.3-13.6 6.3-1.3 0-2.7-.2-4.1-.5-1.5.4-2.9.5-4.2.5-3.9 0-8-1.5-10.5-4.6-2.8-3.5-2.7-8-1.7-15L190.8.6h-6.3L179 37.5c-1.1 7.3.2 12.6 1.8 15.6 4.4 8.4 13.2 10.5 20.2 11 8.3-.6 16.2-3.4 22.3-10.4"/><path class="st0" d="M255.7 52.3c-3.6-.9-6.9-2.9-9.4-5.2l-.7 4.6c2 .7 4.1 1.2 6.2 1.2 1.4 0 2.7-.3 3.9-.6M279.2 12c.8.2 1.6.5 2.3.8.7.3 2.3.6 2.1 1 1.3.3-.1.7 1.8 1-.1.3-.4.7 1.4 1 .9 0 .4-.5.2-1.3.4-.8 2.4-1.9.5-3.1 1.7-1.2 3.2-2.5.6-3.7 2.7-1.2-.1-2.3.5-3.1-2.4-.8-1.3-1.3.2-1.3-.9-.4-.7-.7-2.2-1.1-.8-.3-1.5-.6-2.3-.9C281 .4 277.5 0 274 0c-1.2 0-2.4.1-3.6.3 3.6.4 7 1.4 10.1 3.1l-1.3 8.6z"/><path class="st0" d="M281.2 34.1c.5-.2-.4-.4-1.1-.6-.7-.2-1.3-.4 0-.6-1.8-.4-3.9-.7-1.2-1.1 3.2-.4-3.8-.7-1.5-1.1.9-.4-.1-.8-1.9-1.3-1.4-.5-1.1-1-2.6-1.6-.3-.6 1.4-1.3-3.4-2.1-2-.5.3-1.1-2.3-1.7.7-.6-1.1-1.2-1.5-1.8-2.7-.6-3.5-1.2-.7-1.9-1.8-.7-2.8-1.4 0-2.1 3.4-.3-1.1-.7.3-1.2 2.4-.5.4-1.2.9-1.8 2.8-.6-.7-1.3 1.7-1.9.7-.6 1.7-1.1 2.8-1.4-1.3-.3-2.7-.6-4.2-.6-8.2 0-9.6 5.5-9.8 6.9-.4 2.9.9 5.3 4.5 7.4 7.8 4.8 9.4 5.7 11.7 8.4 1.9 2.1 3.9 6.3 3.1 12-1.4 9.6-9.8 16.6-20.7 18 1.4.2 2.8.3 4.2.3 1 0 2 0 2.9-.1 1-.1 1.9-.2 2.8-.4.3-.2 6.6-.4 2.7-.6-.4-.2 1-.5 2.5-.9-.5-.3.1-.7 2.4-1.1.3-.4-.5-.8 2.2-1.3 3.8-.5.2-1 2-1.5 0-.3.7-.5 1.2-.8.6-.3 1.4-.6.6-.9 2-.3.2-.6 1-.9 1.3-.3 2.4-.6.6-.9 1.6-.3-1.2-.6.7-1 1.3-.3.7-.7.7-1-1-.3 1.5-.7.7-1.1 1.8-.4-1.7-.7.4-1.1.2-.4.1-.7.8-1.1-2.2-.4.8-.8 0-1.2-.8-.4-1.5-.8-.2-1.2 2.6-.4.1-.8.8-1.2-1.5-.5 0-.9-.1-1.4.6-.4-1.6-.9.2-1.3 1.7-.4-1.7-.8.5-1.3.2-.4 0-.8-.7-1.2-1.7-.4-.7-.8-1.6-1.1-.2-.4 1.5-.7 1.1-1.1 1.7-.3-.5-.7-.1-1-1.3-.3-1.3-.6-.7-.9 1.5-.3 1.8-.6.4-.8-.2-.3-1.3-.5-1.3-.7-.7-.2-.1-.5.2-.7 1.1-.1.7-.2-1-.4"/><path class="st2" d="M276 46.1c.8-5.6-1.2-9.9-3.1-12-2.3-2.7-3.9-3.6-11.7-8.4-3.6-2.2-4.9-4.5-4.5-7.4.2-1.4 1.7-6.9 9.8-6.9 1.5 0 2.9.2 4.2.6 1.1-.3 2.5-.6 4-.6s3 .2 4.4.6l1.3-8.6c-3.1-1.7-6.5-2.6-10.1-3.1-9.8 1.5-18.5 8.8-20 18.5-.6 4.1.2 7.9 3.2 11.5 2.5 3.1 3.7 3.8 12.3 9 4.2 2.5 4.4 4.8 4.1 6.6-.4 2.6-3.1 7-10 7-1.5 0-2.9-.2-4.3-.6-1.1.4-2.4.6-4 .6-2.1 0-4.2-.4-6.2-1.2L244 61c4.7 1.7 8.1 2.6 11.2 3 11-1.4 19.4-8.3 20.8-17.9"/><path class="st0" d="M299.1 52.8h8.2s0-.3.1-.9c-.3-.6 1-1.4.3-2.3 0-1 3.3-2 .5-3.2-.7-1.1-.7-2.3.5-3.5-.2-1.1-1.1-2.2.5-3.2.1-1 .3-1.8.3-2.3.1-.6.1-.9.1-.9h-8.2l-2.3 16.3zm39.7-41.3c2.6 0 .6-.4.2-1.1.5-.7 1.6-1.6.4-2.7-1.5-1 3.3-2.2.5-3.2-3-1-.7-2 .4-2.7-.3-.7.2-1.1.2-1.1h-8.2l-1.6 10.8h8.1zm-33.5 0l-2.1 14.1h8.2s.1-.4.2-1c-.1-.7-1.2-1.6.4-2.6-2.3-1-.5-2.2.5-3.4 2.8-1.2-2.9-2.4.5-3.4 4-1-.8-2 .4-2.6.1-.7.2-1 .2-1h-8.3zM334 36.4c-1.5 0 2.9-.4.2-1.1-2.8-.7 1.8-1.6.4-2.7-.6-1-.6-2.2.5-3.2-1.4-1 1-2 .4-2.7-1.7-.7-.4-1.1.2-1.1h-8.2l-1.6 10.8h8.1z"/><path class="st2" d="M305.3 11.5h25.2L332.1.7h-31.4l-9.4 62.8h31.9l1.6-10.7h-25.7l2.5-16.4h24.2l1.6-10.7h-24.2z"/><path class="st0" d="M14.8 59l3.9 4.6s.1-.1.3-.4l1-1c3.1-.4.2-1 1.5-1.6 1.9-.6 4.1-1.3 1.9-2.1 1.9-.8-.1-1.6 2.3-2.4 1.9-.9 2.9-1.8 2.5-2.7 2.4-.9 3.9-1.9 2.7-2.8 1.4-1-1.1-1.9 2.7-2.9 1.4-1 .2-1.9 2.7-2.8 1-.5 1.7-.9 2.1-1.4 0-.4.6-.9.5-1.3.5-.9.7-1.7 2.3-2.4-2.7-.8 1.3-1.4 1.9-2.1-1-.6 1.4-1.2 1.5-1.6l1-1c.2-.2.3-.4.3-.4l1.6-10.4L14.8 59zm57.1-45.5s.1-.4.1-.9c-1-.6.2-1.4.4-2.4.9-.9 3.2-2 .5-3.1C78.4 6 71.8 5 73.3 4c.2-.9 1.1-1.8.4-2.4 1.1-.6 2.4-.9.1-.9h-8.2l-3.5 23.1 9.8-10.3zM51.4 53.4l-1.5 10.2.2-.2v.2l.3-.3c.2-.2.8-.5.8-.8-1-.4 2.4-.8 1.2-1.3.3-.5 1.1-1.1 1.6-1.7.2-.6-1.2-1.3 1.9-2 .3-.7 2.6-1.5 2.2-2.3-.7-.8-.3-1.6 2.3-2.5.2-.8.3-1.7 2.4-2.6-.1-.9 2-1.7 2.5-2.6 2.3-.9 2.4-1.7 2.4-2.5 1.1-.5-2.5-.9 1.2-1.4 1.9-.4.1-.9 1.3-1.3.7-.4.8-.8 1-1.2 0-.4.1-.8 1.3-1.2.6-.4 1.2-.7 1.7-1.1.4-.3.6-.7.3-1 1.7-.6 2.6-1.2 1.5-1.6l1-1c.2-.2.3-.4.3-.4l1.6-10.4-27.5 29zM96.9.7l-9.4 62.8h8.2c-.4 0 .1-.3.1-.8.2-.5-.5-1.2.3-2 2-.8 1.9-1.8.4-2.9-.7-1.1.8-2.3.5-3.5 2.3-1.2 2.4-2.4.5-3.6 1.9-1.2 1.7-2.4.5-3.5-1.3-1.1 1.6-2.1 1.6-2.9 1.3-.8-2-1.5-.8-2 .2-.5 2.9-.8 3.1-.8-2.6 0-3.9-.3-1.4-.8-.3-.5-1.2-1.3-.4-2.1 2.1-.9.4-1.9-.3-3 0-1.1 1.1-2.3 1.3-3.5 1-1.2-.5-2.4-.2-3.5 1.6-1.1 0-2.1.5-3 .4-.9 2.3-1.6.3-2.1 1.2-.5 1.2-.8.1-.8 2.8 0 1-.3.1-.8 1.1-.5-.5-1.2.3-2 3.7-.8.3-1.8.4-2.9.2-1.1-.3-2.3.5-3.5 2-1.2 1.8-2.4.5-3.6 2.5-1.2-2.6-2.4.5-3.5.5-1.1 1.5-2.1.4-2.9-.5-.8-2.2-1.5.3-2 .1-.5.1-.8.1-.8h-8z"/><path class="st2" d="M92.2.7L70.3 23.8l1.6-10.3-9.8 10.3L65.6.7h-4.8L10.5 54l4.3 5 32.7-34.7L46 34.7l9.8-10.4-4.4 29.1 27.5-29.1-1.6 10.4 9.8-10.4-5.9 39.2h6.3L96.9.7z"/></g></svg>