<?xml version="1.0" encoding="utf-8"?>
<!-- Generator: Adobe Illustrator 23.0.1, SVG Export Plug-In . SVG Version: 6.00 Build 0)  -->
<svg version="1.1" id="Layer_1" xmlns="http://www.w3.org/2000/svg" xmlns:xlink="http://www.w3.org/1999/xlink" x="0px" y="0px"
	 viewBox="0 0 709.2 124" style="enable-background:new 0 0 709.2 124;" xml:space="preserve">
<style type="text/css">
	.st0{fill:#1C1C1B;}
	.st1{fill:#B2292E;}
	.st2{fill:#FFFFFF;}
</style>
<title>Logo_MasDeco_color_RGB</title>
<polygon class="st0" points="139.4,8.3 92.9,8.3 92.9,122.3 126.4,122.3 126.4,80.4 125.6,61.1 125.9,61.1 141.4,105.5 166.6,105.5 
	182.2,61.1 182.6,61.1 181.7,80.4 181.7,122.3 218.5,122.3 218.6,8.3 171.2,8.3 162.8,35.2 156.6,58 156.2,58 149,35.2 139.4,8.3 
	"/>
<path class="st0" d="M666.6,60.3c7,0,7.5,7.9,7.5,20.2s-0.5,20.1-7.5,20.1s-7.5-7.9-7.5-20.1S659.5,60.3,666.6,60.3z M666.6,124
	c31,0,42.7-20,42.7-43.5s-11.7-43.6-42.7-43.6c-31.2,0-42.8,20-42.7,43.6S635.4,124,666.6,124z"/>
<polygon class="st0" points="286.6,18.4 276.5,0 248,18.4 256.4,31.9 286.6,18.4 "/>
<path class="st0" d="M255.7,59.5c5.5,0,8.9,2.8,8.9,7v3c-26,1.7-45.2,12.5-45.2,32.7c0,13.4,8.8,21.8,22.6,21.8
	c7.7,0,16.3-2.5,22.2-10h0.4l3.4,8.4h30.1v-57c0-17.6-14.5-28.4-36.9-28.4c-11,0-20.6,1-37.6,6.7l6.8,22.6
	C239,62,249.1,59.5,255.7,59.5L255.7,59.5z M264.6,97.1c-1.5,1.1-3.4,1.7-5.3,1.6c-1.8,0-5.6-0.8-5.5-5c0-4.4,4.2-7.6,10.9-8.4V97.1
	L264.6,97.1z"/>
<path class="st0" d="M372.7,94.6c0-26.4-35.2-26-35.2-32.7c0-2.1,2.4-2.5,3.7-2.5c7.2,0,18.9,3.5,24.8,5.8l4.5-24.1
	c-10.8-2.9-21.9-4.4-33-4.3C314.9,36.9,299,46,299,65c0,28.6,34.4,26.8,34.3,33.6c0,2.2-2.5,2.7-5,2.7c-6.8,0-15-2.6-25.8-6
	l-5.2,24.4c9.4,2.6,23.5,4.2,36,4.2C356.7,123.9,372.6,114.2,372.7,94.6L372.7,94.6z"/>
<path class="st0" d="M415.8,122.3c38.5,0,55.2-24.1,55.2-57s-16.8-57-55.2-57h-45.2v114H415.8L415.8,122.3z M405.7,92.2V38.5h10.1
	c11.7,0,18.4,6.7,18.4,26.8s-6.7,26.8-18.4,26.8H405.7z"/>
<path class="st0" d="M554.8,87.1c1-5.2,1.6-10.6,1.7-15.9c0-21-14.8-34.3-39.3-34.3c-28.5,0-46.1,18.3-46.1,43.5
	s15.1,43.5,48.6,43.5c5.9,0,19.3-0.8,31.8-5.8l-3.3-23.7c-6.9,2.8-14.3,4.3-21.7,4.3c-14.2,0-18.9-5.8-20.1-11.7H554.8z M516.3,58.6
	c6.2,0,8.4,3.6,8.4,7.6c0,1.1-0.2,2.3-0.5,3.3h-17.9C506.2,63.7,509.9,58.6,516.3,58.6L516.3,58.6z"/>
<path class="st0" d="M554.8,80.4c0,26.7,16.7,43.5,45.2,43.5c9.2-0.1,18.3-1.6,27.1-4.4l-4.5-24.1c-8.4,2.5-12.6,3.3-18.4,3.3
	c-9.2,0-14.3-6.6-14.3-18.3S595,62,604.2,62c5.8,0,10,0.9,18.4,3.4l4.5-24.1c-8.8-2.8-17.9-4.3-27.1-4.3
	C571.6,36.9,554.8,53.6,554.8,80.4L554.8,80.4z"/>
<rect y="37" class="st1" width="73.1" height="70.2"/>
<polygon class="st2" points="8.8,49.9 15.8,49.9 15.8,88.4 35.9,88.4 35.9,94.7 8.8,94.7 "/>
<polygon class="st2" points="44,56.2 30.7,56.2 30.7,49.9 64.3,49.9 64.3,56.2 51,56.2 51,94.7 44,94.7 "/>
<polygon class="st1" points="17.2,112.9 14.2,112.9 14.2,111.5 21.9,111.5 21.9,112.9 18.9,112.9 18.9,121.8 17.2,121.8 "/>
<path class="st1" d="M37.8,121.8h-1.9l-1.8-2.5c-0.2,0-0.5,0-0.7,0h-1v2.4h-1.6v-10.3h2.7c2.8,0,4.4,1.6,4.4,3.9
	c0.1,1.5-0.7,2.8-2.1,3.4L37.8,121.8z M33.3,118c2,0,2.8-0.9,2.8-2.5s-0.8-2.5-2.8-2.5h-1v5L33.3,118z"/>
<path class="st1" d="M38.4,116.7c-0.1-2.9,2.2-5.2,5.1-5.3c0.1,0,0.1,0,0.2,0c1.6-0.1,3.2,0.7,4.1,2l-1.2,0.9
	c-0.7-0.9-1.8-1.5-2.9-1.4c-2.1,0.2-3.7,2-3.5,4.1c0.1,1.9,1.7,3.4,3.6,3.5c1.2,0,2.4-0.5,3.1-1.5l1.2,0.9c-1,1.4-2.7,2.2-4.4,2.1
	c-2.8,0.1-5.2-2.2-5.2-5C38.4,116.8,38.4,116.8,38.4,116.7"/>
<path class="st1" d="M63.6,121.8h-1.9l-1.8-2.5c-0.2,0-0.5,0-0.7,0h-1v2.4h-1.6v-10.3h2.6c2.8,0,4.4,1.6,4.4,3.9
	c0.1,1.5-0.7,2.8-2.1,3.4L63.6,121.8z M59.1,118c2,0,2.8-0.9,2.8-2.5s-0.8-2.5-2.8-2.5h-0.9v5L59.1,118z"/>
<path class="st1" d="M65.6,121.8H64l4.5-10.5h0.1l4.5,10.5h-1.7l-0.6-1.4h-4.6L65.6,121.8z M68.5,114.8l-1.7,4.1h3.4L68.5,114.8z"/>
<polygon class="st1" points="55.6,120.4 50.5,120.4 50.5,118.6 54.9,118.6 54.9,117.2 50.5,117.2 50.5,112.9 55.6,112.9 55.6,111.5 
	48.9,111.5 48.9,121.8 55.6,121.8 "/>
<polygon class="st1" points="24.6,118.6 28.9,118.6 28.9,117.2 24.6,117.2 24.6,112.9 29.7,112.9 29.7,111.5 22.9,111.5 22.9,121.8 
	29.7,121.8 29.7,120.4 24.6,120.4 "/>
<polygon class="st1" points="0,111.5 1.6,111.5 1.6,120.4 6.3,120.4 6.3,121.8 0,121.8 "/>
<path class="st1" d="M6.8,121.8H5.1l4.5-10.5h0.1l4.5,10.5h-1.7l-0.6-1.4H7.4L6.8,121.8z M9.7,114.8L8,118.9h3.4L9.7,114.8z"/>
</svg>
