<svg xmlns="http://www.w3.org/2000/svg" xmlns:xlink="http://www.w3.org/1999/xlink" viewBox="0 0 1057.3 172.6"><defs><path id="a" d="M0 0h1057.2v172.6H0z"/></defs><clipPath id="b"><use xlink:href="#a" overflow="visible"/></clipPath><g clip-path="url(#b)"><defs><path id="c" d="M0 0h1057.2v172.6H0z"/></defs><clipPath id="d"><use xlink:href="#c" overflow="visible"/></clipPath><path clip-path="url(#d)" fill="#002c42" d="M133 51.7h28.7v83.1h15.2V51.7h28.7V38.2H133z"/><defs><path id="e" d="M0 0h1057.2v172.6H0z"/></defs><clipPath id="f"><use xlink:href="#e" overflow="visible"/></clipPath><g clip-path="url(#f)"><defs><path id="g" d="M0 0h1057.2v172.6H0z"/></defs><clipPath id="h"><use xlink:href="#g" overflow="visible"/></clipPath><path d="M353.7 75.1c0-22.3-14.6-36.9-41.2-36.9h-24.7v96.6H303v-23h9.5c2.4 0 4.8-.1 6.9-.5l16.5 23.5H354l-19.6-27.4c12.7-5.8 19.3-17.3 19.3-32.3M312 98.7h-9v-47h9c18.4 0 26.1 8.8 26.1 23.4 0 14.8-7.5 23.6-26.1 23.6" clip-path="url(#h)" fill="#002c42"/><defs><path id="i" d="M0 0h1057.2v172.6H0z"/></defs><clipPath id="j"><use xlink:href="#i" overflow="visible"/></clipPath><path d="M409.4 122.3c-19.4 0-33.7-14.9-33.7-35.8 0-20.5 13.9-35.8 33.1-35.8 12.8 0 21 4.6 27.4 13.2l11.7-8.2C439.5 43.9 427.2 37 409.2 37c-27.6 0-49.3 21-49.3 49.6 0 28.5 21.3 49.6 48.9 49.6 18.7 0 31.4-6.5 41.4-19.7l-11.8-8.1c-7.2 9.2-16.5 13.9-29 13.9" clip-path="url(#j)" fill="#002c42"/><defs><path id="k" d="M0 0h1057.2v172.6H0z"/></defs><clipPath id="l"><use xlink:href="#k" overflow="visible"/></clipPath><path d="M596.4 75.1c0-22.3-14.7-36.9-41.2-36.9h-24.7v96.6h15.3v-23h9.5c2.4 0 4.8-.1 6.9-.5l16.5 23.5h18.1L577 107.4c12.7-5.8 19.4-17.3 19.4-32.3m-41.8 23.6h-8.9v-47h8.9c18.4 0 26.2 8.8 26.2 23.4-.1 14.8-7.6 23.6-26.2 23.6" clip-path="url(#l)" fill="#002c42"/><defs><path id="m" d="M0 0h1057.2v172.6H0z"/></defs><clipPath id="n"><use xlink:href="#m" overflow="visible"/></clipPath><path d="M642.9 36.2h-.9l-42.3 98.6H615l5.6-13.5h43.2l5.6 13.5h16l-42.5-98.6zm-16.6 71.6l16.1-38.2 15.8 38.2h-31.9z" clip-path="url(#n)" fill="#002c42"/><defs><path id="o" d="M0 0h1057.2v172.6H0z"/></defs><clipPath id="p"><use xlink:href="#o" overflow="visible"/></clipPath><path clip-path="url(#p)" fill="#002c42" d="M458.4 134.8h62.9v-13.5h-47.7V105h41.1V91.8h-41.1V51.7h47.7V38.2h-62.9z"/><defs><path id="q" d="M0 0h1057.2v172.6H0z"/></defs><clipPath id="r"><use xlink:href="#q" overflow="visible"/></clipPath><path clip-path="url(#r)" fill="#002c42" d="M230.3 105h41V91.8h-41V51.7h48.2V38.2h-63.4v96.6h63.5v-13.5h-48.3z"/><defs><path id="s" d="M0 0h1057.2v172.6H0z"/></defs><clipPath id="t"><use xlink:href="#s" overflow="visible"/></clipPath><path d="M90.3 36.3l-36.5 85.1H15.2V38.3H0v96.6h63.3l5.5-13.5H112l5.5 13.5h16.1L91.2 36.3h-.9zm-15.8 71.5l16-38.2 15.8 38.2H74.5z" clip-path="url(#t)" fill="#002c42"/><defs><path id="u" d="M0 0h1057.2v172.6H0z"/></defs><clipPath id="v"><use xlink:href="#u" overflow="visible"/></clipPath><g opacity=".5" clip-path="url(#v)"><defs><path id="w" d="M891.4 38.2h65.5v96.3h-65.5z"/></defs><clipPath id="x"><use xlink:href="#w" overflow="visible"/></clipPath><path d="M891.4 38.2h24.2c26.6 0 41.3 14.3 41.3 36.7 0 22.2-14.9 36.7-41.3 36.7h-9.2v22.9h-15V38.2zM915 98.3c19 0 26.6-8.9 26.6-23.5s-7.8-23.5-26.6-23.5h-8.6v47h8.6z" clip-path="url(#x)" fill="#002c42"/></g><g><defs><path id="y" d="M0 0h1057.2v172.6H0z"/></defs><clipPath id="z"><use xlink:href="#y" overflow="visible"/></clipPath><g opacity=".5" clip-path="url(#z)"><defs><path id="A" d="M962.5 37.7h94.7V135h-94.7z"/></defs><clipPath id="B"><use xlink:href="#A" overflow="visible"/></clipPath><path d="M962.5 37.7h1.6l46 53.8 45.6-53.8h1.6V135H1043V85c0-5.4.6-13.9.6-13.9s-4.7 7.2-8.6 11.6l-24.2 29.2h-1.7l-24.2-29.2c-3.7-4.4-8.5-11.6-8.5-11.6s.6 8.5.6 13.9v50h-14.3V37.7h-.2z" clip-path="url(#B)" fill="#002c42"/></g></g><g><defs><path id="C" d="M0 0h1057.2v172.6H0z"/></defs><clipPath id="D"><use xlink:href="#C" overflow="visible"/></clipPath><g opacity=".5" clip-path="url(#D)"><defs><path id="E" d="M702.1 0h172.6v172.6H702.1z"/></defs><clipPath id="F"><use xlink:href="#E" overflow="visible"/></clipPath><path d="M788.4 172.6c-47.6 0-86.3-38.7-86.3-86.3S740.8 0 788.4 0s86.3 38.7 86.3 86.3-38.7 86.3-86.3 86.3m0-162.7c-42.1 0-76.4 34.3-76.4 76.4s34.3 76.5 76.4 76.5c42.2 0 76.5-34.3 76.5-76.5-.1-42.2-34.4-76.4-76.5-76.4" clip-path="url(#F)" fill="#002c42"/><defs><path id="G" d="M702.1 0h172.6v172.6H702.1z"/></defs><clipPath id="H"><use xlink:href="#G" overflow="visible"/></clipPath><path d="M788.4 172.6c-47.6 0-86.3-38.7-86.3-86.3S740.8 0 788.4 0s86.3 38.7 86.3 86.3-38.7 86.3-86.3 86.3m0-162.7c-42.2 0-76.5 34.3-76.5 76.5s34.3 76.4 76.5 76.4 76.5-34.3 76.5-76.4-34.4-76.5-76.5-76.5" clip-path="url(#H)" fill="#002c42"/><defs><path id="I" d="M702.1 0h172.6v172.6H702.1z"/></defs><clipPath id="J"><use xlink:href="#I" overflow="visible"/></clipPath><path d="M793.3 80.2c0 2.2-1.8 4-4 4s-4-1.8-4-4V30.6c0-2.2 1.8-4 4-4s4 1.8 4 4v49.6z" clip-path="url(#J)" fill="#002c42"/><defs><path id="K" d="M702.1 0h172.6v172.6H702.1z"/></defs><clipPath id="L"><use xlink:href="#K" overflow="visible"/></clipPath><path d="M813.2 50.9c1.2-1.2 3.4-.9 5 .7s1.9 3.8.7 5l-26.6 26.6c-1.2 1.2-3.5.9-5-.7-1.6-1.6-1.9-3.8-.7-5l26.6-26.6z" clip-path="url(#L)" fill="#002c42"/></g></g></g></g></svg>