<?xml version="1.0" encoding="utf-8"?>
<!-- Generator: Adobe Illustrator 23.0.1, SVG Export Plug-In . SVG Version: 6.00 Build 0)  -->
<svg version="1.1" id="Layer_1" xmlns="http://www.w3.org/2000/svg" xmlns:xlink="http://www.w3.org/1999/xlink" x="0px" y="0px"
	 viewBox="0 0 969.6 114.6" style="enable-background:new 0 0 969.6 114.6;" xml:space="preserve">
<style type="text/css">
	.st0{fill:#1C1C1B;}
	.st1{fill:#8BA4D5;}
	.st2{fill:#A2BBE1;}
	.st3{fill:#869ECD;}
	.st4{fill:#D2B6AC;}
	.st5{fill:#AFA7BC;}
	.st6{fill:#BAB3D8;}
	.st7{fill:#D7BC84;}
	.st8{fill:#E3A780;}
	.st9{fill:#92807B;}
	.st10{fill:#BAA072;}
	.st11{fill:#C69F92;}
	.st12{fill:#D5B484;}
	.st13{fill:#C3A283;}
	.st14{fill:#B69572;}
	.st15{fill:#9F8154;}
</style>
<title>Logo_Duna_original_RGB</title>
<path class="st0" d="M737.2,46.5c-3.6-2.8-5.7-7.1-5.6-11.7c-0.1-4.2,1.5-8.3,4.3-11.4c2.9-3.3,7.4-5,13.8-5s11.2,1.7,14.2,5
	c2.9,2.8,4.6,6.7,4.7,10.7c0,4.4-1.7,8.6-4.9,11.6c-3.3,3.2-7.8,4.8-13.7,4.8C745.5,50.7,741,49.3,737.2,46.5z M734,96.7
	c-3.5-3.9-5.4-9-5.3-14.2c0-6.3,2-11.3,6-14.9c3.8-3.6,9.1-5.4,15.4-5.4s11.8,1.7,15.9,5.4c4.2,3.5,6.3,8.6,6.3,15.3
	s-2,11.5-6.1,14.8s-9,4.9-15.1,4.9C743.3,102.6,737.7,100.7,734,96.7L734,96.7z M718.7,66c-3.1,4.8-4.7,10.5-4.5,16.2
	c0,10.7,3.6,18.6,10.7,24s15.7,8.3,25.9,8.3c11.3,0,20.1-3.2,26.3-9.6s9.2-14.3,9.2-23.6c0-7.7-2.4-14.1-6.9-18.9
	c-2.9-3-6.4-5.4-10.3-7c3.3-1.6,6.3-3.9,8.7-6.7c3.3-4.1,5-9.2,5-16c0-7.1-2.7-13.3-8.5-18.4c-5.8-5.4-13.7-8-23.6-8
	c-10.4,0-18.5,2.8-24.1,8.4c-5.6,5.2-8.7,12.5-8.6,20.2c0,6.3,1.8,11.4,5.6,15.2c2.5,2.4,5.4,4.2,8.6,5.5
	C726.7,57.8,722.1,61.4,718.7,66z"/>
<path class="st0" d="M807.8,58.7c-3.3-4-4.9-9.5-4.9-16.3c0-7.2,1.8-13.1,5.5-17.4c3.9-4.3,8.9-6.4,15.3-6.4c6.1,0,11,1.9,14.8,5.7
	s5.9,9.4,5.9,17.2c0,8.6-2.1,14.6-6.4,18.1c-4.1,3.4-9.2,5.2-14.4,5.1C816.5,64.6,811.2,62.8,807.8,58.7z M798.4,106.5
	c5.3,5.4,13.1,8.1,23.3,8.1c15.4,0,26.2-8.3,32.6-24.7c4-11,6-22.6,5.8-34.3c0-11.4-1.7-21-4.9-28.4c-5.9-13.9-16.4-20.7-31.5-20.7
	c-11.5,0-20,3.6-25.8,10.8c-5.8,7.1-8.9,16-8.8,25.2c0,9.9,3,18,8.9,24.3s13.8,9.6,24,9.6c4.8,0,9.6-1,14-2.9
	c4.3-1.8,7.9-5,10.9-9.8c-1.9,16-5.1,26.8-9.6,32.1c-4.5,5-9.8,7.8-16.2,7.8c-3.2,0-6.3-0.7-9.1-2.3c-5.2-2.7-7.9-7.6-8.4-14.9
	h-13.3C790.4,94.4,793.1,101.2,798.4,106.5L798.4,106.5z"/>
<path class="st0" d="M871.2,111.6V95.6h15.1v16.1H871.2z"/>
<path class="st0" d="M896.5,8.5h73.1V20c-3.5,3.2-7.8,8.9-13.5,17.2c-5.8,8.2-10.8,16.9-15,26.1c-3.8,8.1-7,16.5-9.7,25.1
	c-1.3,4.9-3.2,12.5-5.3,23.4h-14.6c3.3-20,10.7-40,22-59.9c6.7-11.5,13.7-21.6,21.1-30h-58.1V8.5z"/>
<path class="st0" d="M174.7,0C202,0,217.1,2.6,229,9.8c14.9,9.2,23.5,25.3,23.5,44.3c0,23.3-12.8,42.4-34.3,51.2
	c-10.4,4.1-26.3,6.7-43.4,6.7h-48.9V0H174.7z M144.7,101.4h30.9c16.4,0,30.1-3.1,38.7-9c11.4-8.1,17.6-21,17.6-37.7
	c0-18.1-7.5-31.9-21.2-38.7c-8.5-4.4-15.3-5.3-35.1-5.3h-30.8L144.7,101.4z"/>
<path class="st0" d="M276.1,0v66.8c0,10.4,0.3,12.3,1.1,16.3c3.9,13.2,18.4,20.6,40.3,20.6c16.7,0,30.8-5.3,36.7-13.5
	c2.6-3.7,4.2-9.2,4.5-15.1V0h18.7v66.4c0,10.6-0.1,14.3-1.6,19.1c-5.5,18.8-25.7,28.8-58.4,28.8c-27,0-46.4-7.1-54.8-20
	c-3.1-4.7-5-11.5-5-18.4c-0.3-3.2-0.4-6.3-0.3-9.5V0H276.1z"/>
<path class="st0" d="M516.8,112.1h-18.2L407,21v91.1h-18.3V0H407l91.6,91.1V0h18.2L516.8,112.1z"/>
<path class="st0" d="M657.2,112.1h-20.2l-19.6-36.3h-63.7L535,112.1h-20.2L577.2,0h17.5L657.2,112.1z M585.2,16.5l-25.3,48.3h51.6
	L585.2,16.5z"/>
<rect class="st1" width="28" height="28"/>
<rect x="28" class="st2" width="27.9" height="28"/>
<rect x="55.9" class="st3" width="28" height="28"/>
<rect x="83.9" class="st4" width="28.1" height="28"/>
<rect y="28" class="st5" width="28" height="27.9"/>
<rect x="28" y="28" class="st6" width="27.9" height="27.9"/>
<rect x="55.9" y="28" class="st7" width="28" height="27.9"/>
<rect x="83.9" y="28" class="st8" width="28.1" height="27.9"/>
<rect y="56" class="st9" width="28" height="27.9"/>
<rect x="28" y="56" class="st10" width="27.9" height="27.9"/>
<rect x="55.9" y="56" class="st11" width="28" height="27.9"/>
<rect x="83.9" y="56" class="st10" width="28.1" height="27.9"/>
<rect y="83.9" class="st12" width="28" height="28"/>
<rect x="28" y="83.9" class="st13" width="27.9" height="28"/>
<rect x="55.9" y="83.9" class="st14" width="28" height="28"/>
<rect x="83.9" y="83.9" class="st15" width="28.1" height="28"/>
<path class="st0" d="M623.7,23h-2V0.8h10.7v2.6h-8.7v6.9h7.7V13h-7.7L623.7,23z"/>
<path class="st0" d="M650.8,23V4.4l0,0L646.6,23h-2.3L640,4.4h-0.1c0,2.1,0.1,4.9,0.1,5.5V23h-2V0.8h3l4.4,18.7h0.2l4.5-18.7h2.8V23
	L650.8,23z"/>
</svg>
