<svg version="1.1" id="Layer_1" xmlns="http://www.w3.org/2000/svg" x="0" y="0" viewBox="0 0 716.4 124" xml:space="preserve"><style>.st0{fill:#fff}</style><path class="st0" d="M146.6 8.3h-46.5v114h33.5V80.4l-.8-19.3h.3l15.5 44.4h25.2l15.6-44.4h.3l-.9 19.3v41.9h36.9V8.3h-47.4L170 35.2 163.8 58h-.4l-7.3-22.8-9.5-26.9zm527.1 52c7 0 7.5 7.9 7.5 20.2s-.5 20.1-7.5 20.1-7.5-7.9-7.5-20.1.4-20.2 7.5-20.2zm0 63.7c31 0 42.7-20 42.7-43.5s-11.7-43.6-42.7-43.6c-31.2 0-42.8 20-42.7 43.6s11.5 43.5 42.7 43.5zm-380-105.6L283.7 0l-28.5 18.4 8.4 13.5 30.1-13.5zm-30.8 41.1c5.5 0 8.9 2.8 8.9 7v3c-26 1.7-45.2 12.5-45.2 32.7 0 13.4 8.8 21.8 22.6 21.8 7.7 0 16.3-2.5 22.3-10h.4l3.4 8.4h30.1v-57c0-17.6-14.5-28.4-36.9-28.4-11 0-20.6 1-37.7 6.7l6.7 22.6c8.6-4.3 18.7-6.8 25.4-6.8zm8.9 37.6c-1.5 1.1-3.4 1.7-5.3 1.6-1.8 0-5.6-.8-5.5-5 0-4.4 4.2-7.6 10.9-8.4v11.8h-.1z"/><path class="st0" d="M379.8 94.6c0-26.4-35.2-26-35.2-32.7 0-2.1 2.4-2.5 3.7-2.5 7.2 0 18.9 3.5 24.8 5.8l4.5-24.1c-10.8-2.9-21.9-4.4-33.1-4.3-22.6 0-38.5 9.1-38.5 28.1 0 28.6 34.3 26.8 34.3 33.6 0 2.2-2.5 2.7-5 2.7-6.8 0-15-2.6-25.8-6l-5.2 24.4c9.4 2.6 23.5 4.2 36.1 4.2 23.5.1 39.4-9.6 39.4-29.2z"/><path class="st0" d="M423 122.3c38.5 0 55.2-24.1 55.2-57S461.4 8.4 423 8.4h-45.2v114l45.2-.1zm-10.1-30.1V38.5H423c11.7 0 18.4 6.7 18.4 26.8s-6.7 26.8-18.4 26.8h-10.1zM562 87.1c1-5.2 1.6-10.6 1.7-15.9 0-21-14.8-34.3-39.3-34.3-28.5 0-46.1 18.3-46.1 43.5s15.1 43.5 48.6 43.5c5.9 0 19.3-.8 31.8-5.8l-3.3-23.7c-6.9 2.8-14.3 4.3-21.8 4.3-14.2 0-18.9-5.8-20.1-11.7l48.5.1zm-38.6-28.5c6.2 0 8.4 3.6 8.4 7.6 0 1.1-.2 2.3-.5 3.3h-17.9c0-5.8 3.7-10.9 10-10.9z"/><path class="st0" d="M562 80.4c0 26.7 16.7 43.5 45.2 43.5 9.2-.1 18.3-1.6 27.1-4.4l-4.5-24.1c-8.4 2.5-12.6 3.3-18.4 3.3-9.2 0-14.3-6.6-14.3-18.3S602.2 62 611.4 62c5.8 0 10 .9 18.4 3.4l4.5-24.1c-8.8-2.8-17.9-4.3-27.1-4.3-28.5-.1-45.2 16.6-45.2 43.4zM0 36.9v85.4h89V36.9H0zm43.8 70.2H10.7V52.6h8.6v46.9h24.5v7.6zm34.5-46.9H62.1v46.9h-8.6V60.2H37.4v-7.6h40.9v7.6z"/></svg>