<?xml version="1.0" encoding="utf-8"?>
<!-- Generator: Adobe Illustrator 23.0.1, SVG Export Plug-In . SVG Version: 6.00 Build 0)  -->
<svg version="1.1" id="Layer_1" xmlns="http://www.w3.org/2000/svg" xmlns:xlink="http://www.w3.org/1999/xlink" x="0px" y="0px"
	 viewBox="0 0 545.5 160.4" style="enable-background:new 0 0 545.5 160.4;" xml:space="preserve">
<style type="text/css">
	.st0{fill:#B2292E;}
	.st1{fill:#FFFFFF;}
	.st2{fill:#1C1C1B;}
</style>
<title>Logo_Pulso2_color_RGB</title>
<rect y="2.9" class="st0" width="135.4" height="130"/>
<polygon class="st1" points="16.2,26.8 29.2,26.8 29.2,98.1 66.5,98.1 66.5,109.6 16.2,109.6 "/>
<polygon class="st1" points="81.5,38.3 56.8,38.3 56.8,26.8 119.1,26.8 119.1,38.3 94.5,38.3 94.5,109.6 81.5,109.6 "/>
<polygon class="st0" points="31.9,143.5 26.3,143.5 26.3,140.9 40.6,140.9 40.6,143.5 34.9,143.5 34.9,159.9 31.9,159.9 "/>
<path class="st0" d="M69.9,159.9h-3.6l-3.2-4.6c-0.5,0.1-0.9,0.1-1.4,0.1h-1.9v4.6h-3v-19.1h4.9c5.2,0,8.1,2.9,8.1,7.3
	c0.2,2.7-1.4,5.2-3.8,6.4L69.9,159.9z M61.6,152.8c3.7,0,5.1-1.7,5.1-4.7c0-2.9-1.5-4.6-5.1-4.6h-1.8v9.3L61.6,152.8z"/>
<path class="st0" d="M71.1,150.4c-0.1-5.3,4.1-9.7,9.4-9.8c0.1,0,0.2,0,0.4,0c3-0.2,5.9,1.2,7.6,3.7l-2.3,1.6
	c-1.2-1.8-3.3-2.8-5.4-2.6c-3.8,0-6.5,3-6.5,7.1s2.8,7.1,6.6,7.1c2.3,0.1,4.4-1,5.8-2.8l2.3,1.6c-1.9,2.6-5,4.1-8.2,3.9
	c-5.3,0.1-9.6-4.1-9.7-9.4C71.1,150.7,71.1,150.5,71.1,150.4"/>
<path class="st0" d="M117.8,159.9h-3.6l-3.3-4.6c-0.5,0.1-0.9,0.1-1.4,0.1h-1.9v4.6h-3v-19.1h4.9c5.2,0,8.1,2.9,8.1,7.3
	c0.2,2.7-1.4,5.2-3.8,6.4L117.8,159.9z M109.5,152.8c3.7,0,5.2-1.7,5.2-4.7c0-2.9-1.5-4.6-5.2-4.6h-1.8v9.3L109.5,152.8z"/>
<path class="st0" d="M121.5,159.9h-3l8.4-19.5h0.2l8.4,19.5h-3.2l-1.1-2.7h-8.5L121.5,159.9z M126.9,147l-3.2,7.6h6.3L126.9,147z"/>
<polygon class="st0" points="103,157.3 93.5,157.3 93.5,154 101.6,154 101.6,151.4 93.5,151.4 93.5,143.5 103,143.5 103,140.9 
	90.5,140.9 90.5,159.9 103,159.9 "/>
<polygon class="st0" points="45.5,154 53.6,154 53.6,151.4 45.5,151.4 45.5,143.5 55,143.5 55,140.9 42.5,140.9 42.5,159.9 
	55,159.9 55,157.3 45.5,157.3 "/>
<polygon class="st0" points="0,140.9 3,140.9 3,157.3 11.6,157.3 11.6,160 0,160 "/>
<path class="st0" d="M12.5,160h-3l8.4-19.5H18l8.4,19.5h-3.2l-1.1-2.7h-8.6L12.5,160z M17.9,147.1l-3.2,7.5H21L17.9,147.1z"/>
<polygon class="st2" points="324.8,1.8 324.8,158.9 385.5,158.9 385.5,137.4 384.3,137.4 350.9,137.4 350.9,1.8 "/>
<path class="st2" d="M226.8,46.4c0,16.7,2,33.1-7,42.7c-7.5,8.1-15.4,11.3-38.9,10.1v59.8h-25.7V1.8h37.1c13.7,0,25.9,4.3,31.4,16.3
	C226.9,25.3,226.8,36.1,226.8,46.4 M201,46c0-6.7,0.4-12.1-0.3-15.3c-1.4-6.3-5.5-6.6-11.6-6.6h-8.1v53.2h10.5c4,0.1,8.4-1,9.1-5.2
	C201.4,67.5,201,60.2,201,46"/>
<path class="st2" d="M308.9,2h-25.7l0.3,128.1c0,0,0.1,7.3-10.6,7.6c-11,0.4-10.2-10.3-10.2-8.9V2h-26.1l0.4,126
	c0,0-2.2,31.7,34.5,32.5c5.9,0,35.5,0.1,37.5-29C309.4,122.1,308.9,1.9,308.9,2"/>
<path class="st2" d="M545.5,127c0,9.3-2.2,17.6-9.2,24c-7.1,6.4-17.1,8.7-26.9,8.7c-10.6,0-19.1-2.1-26.1-8
	c-7-5.9-10.1-14.3-10.1-24.2l-0.2-95.5c0-9.3,3.2-18.3,10.4-24.4c7-5.6,16.2-7.8,26.6-7.8c9.5,0,18.7,2.6,25.9,8.8s9.3,15,9.3,22.5
	L545.5,127z M519.6,126.8V32.3c0-2.3-0.4-9.7-10.2-9.7c-9.3,0-10.3,6.3-10.3,9.7v94.4c0,3.3,0.3,10.4,10.3,10.3
	C519.3,137,519.6,130.2,519.6,126.8"/>
<path class="st2" d="M462.1,120.7c0,15.6-1.5,21.6-7.3,28.7c-5.2,6.4-15.7,10.6-28.2,10.6c-9.7,0-19.3-1.8-26.4-7.6
	c-7.8-6.1-10.5-14.6-10.5-24.4v-25.5h25.3V120c0.1,5.9-0.7,10.3,1.3,13.2s4.6,4.4,10.1,4.1c4.7-0.2,8-2.1,9.3-4.8
	c1.2-2.5,0.6-5.7,0.6-11c0-8.7,0.4-16-11.1-24.4s-19-13.2-26.4-22.6c-10.6-13.4-8.3-31.6-8.4-35.5c-0.5-14.6,0.4-20.6,5.9-27.4
	c6.2-8,17.3-11.5,29.8-11.5c11.1,0,20.5,3.1,27.1,9.9c6,6.3,7.9,14.5,7.9,24v22.8h-25c0.3-1.8,0-9.8-0.1-15.5s0.5-9.9-0.5-12.6
	c-1.8-4.2-4.7-6.1-10.3-5.9c-2.5-0.1-5,0.7-7,2.2c-2.6,2.1-2.9,6-2.4,14.6c0.2,3.8-0.3,7.5,0.4,10.8c0.9,4.7,3.5,8.8,8.9,13.3
	c8.5,7,19,13.1,26.2,21.7C461.6,97.7,462.1,107.4,462.1,120.7"/>
</svg>
