<?xml version="1.0" encoding="utf-8"?>
<!-- Generator: Adobe Illustrator 23.0.1, SVG Export Plug-In . SVG Version: 6.00 Build 0)  -->
<svg version="1.1" id="Layer_1" xmlns="http://www.w3.org/2000/svg" xmlns:xlink="http://www.w3.org/1999/xlink" x="0px" y="0px"
	 viewBox="0 0 531.8 245.9" style="enable-background:new 0 0 531.8 245.9;" xml:space="preserve">
<style type="text/css">
	.st0{fill:#FFFFFF;}
</style>
<title>Logo_RoperoPaula_white_RGB</title>
<path class="st0" d="M383.8,2.3L384,2C384,2,383.9,2.2,383.8,2.3"/>
<path class="st0" d="M512.8,10.3c0-0.1,0.1-0.1,0.1-0.1L512.8,10.3"/>
<path class="st0" d="M504.8,7.9c0,0,0.1-0.1,0.1-0.1L504.8,7.9"/>
<path class="st0" d="M240.6,6.3l0.4-0.4C241,5.9,240.7,6.1,240.6,6.3"/>
<path class="st0" d="M240.8,6.3l0.4-0.4L240.8,6.3"/>
<path class="st0" d="M241.1,6.4c0.1-0.1,0.2-0.3,0.3-0.4C241.4,5.9,241.2,6.2,241.1,6.4"/>
<path class="st0" d="M55.8,116.1L44.5,83.5c-3.3-10-8-14.5-15.9-14.5h-7.3v47.1H0V1.8h34.4c25.6,0,37.4,11.5,37.4,31.7
	c0,16.5-9.2,26.4-22.7,28.8v0.3c8.4,4.5,13.4,10.7,17.8,22.1l12.1,31.5L55.8,116.1z M30.7,53.1c14.3,0,18.9-4.8,18.9-18.8
	c0-13.2-5.9-16.4-16.4-16.4H21.3v35.2L30.7,53.1z"/>
<path class="st0" d="M85.2,58.7c0-46,22.4-58.7,45.5-58.7s45.5,12.7,45.5,58.7c0,43.4-18.3,59.2-45.5,59.2
	C103.8,117.9,85.3,102.1,85.2,58.7 M153.7,58.7c0-33.1-7.6-42.2-22.9-42.2c-14.8,0-23.1,9.1-23.1,42.2c0,33.6,8.3,42.6,23.1,42.6
	C146,101.3,153.7,92.3,153.7,58.7"/>
<path class="st0" d="M191.5,116.1V1.8H225c25.8,0,38.5,13.7,38.5,36.8c0,20.3-11.5,38-37.4,38c-4.5,0-8.9-0.3-13.4-0.8v40.4
	L191.5,116.1z M223,60.3c13.7,0,18.5-5.9,18.5-22C241.4,24,237,18,224.9,18h-12.1v42.3L223,60.3z"/>
<polygon class="st0" points="276.3,116.1 276.3,1.8 339.7,1.8 339.7,18 297.6,18 297.6,49 335.3,49 335.3,65.6 297.6,65.6 
	297.6,99.8 339.7,99.8 339.7,116.1 "/>
<path class="st0" d="M411.3,116.1L400,83.5c-3.3-10-8-14.5-15.9-14.5h-7.4v47.1h-21.3V1.8h34.4c25.6,0,37.4,11.5,37.4,31.7
	c0,16.5-9.2,26.4-22.7,28.8v0.3c8.4,4.5,13.4,10.7,17.8,22.1l12.1,31.5L411.3,116.1z M386.2,53.1c14.3,0,18.9-4.8,18.9-18.8
	c0-13.2-5.9-16.4-16.4-16.4h-12v35.2L386.2,53.1z"/>
<path class="st0" d="M440.8,58.7c0-46,22.4-58.7,45.5-58.7s45.5,12.8,45.5,58.7c0,43.4-18.3,59.2-45.5,59.2S440.8,102.1,440.8,58.7
	 M509.1,58.7c0-33.1-7.6-42.2-22.9-42.2c-14.8,0-23.1,9.1-23.1,42.2c0,33.6,8.3,42.6,23.1,42.6C501.5,101.4,509.1,92.3,509.1,58.7"
	/>
<path class="st0" d="M447.6,244h20.5v-21.1h-20.5V244z M409.6,216.3c0,10-11.2,14.2-19.9,14.2c-6.7,0-12.1-3.8-12.1-9.6
	c0-7.4,5.8-9.3,12.9-10.7l10.3-2.2c3.1-0.5,6.1-1.4,8.9-2.8L409.6,216.3z M428.3,190.1c0-22.1-16.7-25.4-33.4-25.4
	c-17,0-33.1,7-33.1,25.3l18.7,0.8c0-8.4,3.5-11.6,14.4-11.6c8.1,0,14.7,2.1,14.7,9.8v2.3c-4.8,1.7-13.5,3.2-20.2,4.6l-7.8,1.5
	c-11.5,2.3-23.6,9-23.6,24.2c0,15,11.6,24.4,26.3,24.4c9.2,0.1,18.2-3,25.3-8.8c0,2.5,0.6,4.9,1.8,7h19.8c-1.1-1.7-2.9-5-2.9-13
	L428.3,190.1z M326.5,244h18.7V135h-18.7V244z M308.1,166.5h-18.7v41.6c0,9.3-4.3,19.6-18.4,19.6c-9.5,0-13.8-4.6-13.8-15.3v-45.9
	h-18.7v51.3c0,22.5,15.1,28,28.3,28c10.6,0,18.1-4.1,22.2-9.5h0.3v7.7h18.7L308.1,166.5z M202.5,216.3c0,10-11.2,14.2-19.9,14.2
	c-6.7,0-12.1-3.8-12.1-9.6c0-7.4,5.8-9.3,12.9-10.7l10.3-2.2c3.1-0.5,6.1-1.4,8.9-2.8L202.5,216.3z M221.1,190.1
	c0-22.1-16.7-25.4-33.4-25.4c-17,0-33.1,7-33.1,25.3l18.7,0.8c0-8.4,3.5-11.6,14.4-11.6c8.1,0,14.7,2.1,14.7,9.8v2.3
	c-4.8,1.7-13.5,3.2-20.2,4.6l-7.8,1.5c-11.5,2.3-23.6,9-23.6,24.2c0,15,11.6,24.4,26.4,24.4c9.2,0.1,18.1-3,25.3-8.9
	c0,2.4,0.6,4.9,1.8,7H224c-1.1-1.7-2.9-5-2.9-13V190.1z M84.1,152.1h19.6c11.8,0,19.9,4.4,19.9,19.6c0,10.7-6.3,18.4-19.1,18.4H84.1
	L84.1,152.1z M63.6,244h20.5v-36.7h24.2c21.6,0,36.8-13.9,36.8-35.5c0-21.1-12.6-36.7-38.1-36.7H63.6V244z"/>
</svg>
