<?xml version="1.0" encoding="utf-8"?>
<!-- Generator: Adobe Illustrator 23.0.1, SVG Export Plug-In . SVG Version: 6.00 Build 0)  -->
<svg version="1.1" id="Layer_1" xmlns="http://www.w3.org/2000/svg" xmlns:xlink="http://www.w3.org/1999/xlink" x="0px" y="0px"
	 viewBox="0 0 675.5 256.2" style="enable-background:new 0 0 675.5 256.2;" xml:space="preserve">
<style type="text/css">
	.st0{fill-rule:evenodd;clip-rule:evenodd;fill:#232020;}
	.st1{fill:#232020;}
</style>
<title>Logo_Beethoven_original_black_RGB</title>
<path class="st0" d="M0,176.8c37.2,13.3,155.5,3.9,150.8-58.7c-1-13.1-22.5-39.2-38.9-23.6c-10.5,10,21.4,27.9-4.6,39.4
	c-11.4,5.1-30.7-8.1-28.8-22.8c2.8-21.4,37.5-34.8,52.4-32.8c24.7,3.5,38.6,26.8,37.9,48.3C166.3,206.8,41,201.7,0,176.8z"/>
<path class="st0" d="M193.9,109.8c0,5.4-4.4,9.8-9.8,9.8c-5.4,0-9.8-4.4-9.8-9.8c0-5.4,4.4-9.8,9.8-9.8
	C189.5,100,193.9,104.3,193.9,109.8C193.9,109.7,193.9,109.7,193.9,109.8z"/>
<path class="st0" d="M193.9,145.7c0,5.4-4.4,9.8-9.8,9.8c-5.4,0-9.8-4.4-9.8-9.8c0-5.4,4.4-9.8,9.8-9.8S193.9,140.3,193.9,145.7
	L193.9,145.7z"/>
<path class="st0" d="M41.8,8c0,0,53.8,111.4,42.9,248.1c0,0-17.5-165.5-53.2-221.9S41.8,8,41.8,8z"/>
<path class="st1" d="M223.5,87.2v28.6c2.4-2.5,5.3-4.5,8.5-5.9c3.1-1.3,6.4-2,9.8-2c7.3-0.1,14.4,3.1,19.2,8.6
	c5.3,5.7,7.9,13,7.9,21.9c0,8.6-2.7,15.8-8.2,21.6c-5.4,5.8-11.9,8.7-19.4,8.7c-3.2,0-6.3-0.6-9.3-1.8c-3.2-1.4-6.1-3.4-8.5-5.8v6.1
	h-14.4v-80L223.5,87.2z M238.8,121.4c-4.3-0.1-8.4,1.6-11.4,4.7c-3,3.1-4.5,7.2-4.5,12.2s1.5,9.3,4.5,12.4c2.9,3.1,7.1,4.9,11.4,4.7
	c4.2,0.1,8.3-1.7,11.2-4.8c3.1-3.3,4.7-7.8,4.5-12.3c0.2-4.5-1.4-8.9-4.5-12.2C247.1,123,243,121.3,238.8,121.4z"/>
<path class="st1" d="M326,142.6h-46.5c0.5,3.8,2.4,7.3,5.4,9.8c3.2,2.5,7.1,3.8,11.2,3.6c5.2,0.1,10.3-2,14-5.7l12.2,5.7
	c-2.8,4.1-6.5,7.4-10.9,9.6c-4.7,2.2-9.9,3.2-15.1,3.1c-9.1,0-16.4-2.9-22.1-8.6c-5.7-5.7-8.5-12.9-8.5-21.5
	c0-8.8,2.8-16.1,8.5-21.9s12.8-8.7,21.4-8.7c9.1,0,16.5,2.9,22.2,8.7s8.5,13.5,8.5,23.1L326,142.6z M311.5,131.2
	c-0.9-3.2-2.9-6-5.7-7.9c-2.9-2-6.3-3.1-9.8-3c-3.8-0.1-7.6,1.1-10.6,3.4c-1.9,1.4-3.7,3.9-5.3,7.5L311.5,131.2z"/>
<path class="st1" d="M382.8,142.6h-46.5c0.5,3.8,2.4,7.3,5.4,9.8c3.2,2.5,7.1,3.8,11.2,3.6c5.2,0.1,10.3-2,14-5.7L379,156
	c-2.8,4.1-6.5,7.4-10.9,9.6c-4.7,2.2-9.9,3.2-15.1,3.1c-9.1,0-16.4-2.9-22.1-8.6c-5.7-5.7-8.5-12.9-8.5-21.5
	c0-8.8,2.8-16.1,8.5-21.9s12.8-8.7,21.4-8.7c9.1,0,16.5,2.9,22.2,8.7c5.7,5.8,8.5,13.5,8.5,23.1L382.8,142.6z M368.3,131.2
	c-0.9-3.2-2.9-6-5.7-7.9c-2.9-2-6.3-3.1-9.8-3c-3.8-0.1-7.6,1.1-10.6,3.4c-1.9,1.4-3.7,3.9-5.3,7.5L368.3,131.2z"/>
<path class="st1" d="M388.9,88.2h14.5v21.3h8.6V122h-8.6v45.3h-14.5V122h-7.4v-12.4h7.4V88.2z"/>
<path class="st1" d="M414.4,87.2h14.4v28.1c2.5-2.3,5.4-4.1,8.5-5.5c2.7-1.2,5.7-1.8,8.7-1.8c5.4-0.1,10.7,2,14.5,5.9
	c3.4,3.4,5,8.5,5,15.1v38.1h-14.2v-25.3c0-6.7-0.3-11.2-1-13.6c-0.5-2.1-1.6-4-3.3-5.3c-1.7-1.2-3.7-1.8-5.7-1.8
	c-2.8-0.1-5.5,1-7.6,2.9c-2.2,2.2-3.8,5-4.4,8c-0.4,1.7-0.6,5.7-0.6,11.9v23.2h-14.3V87.2z"/>
<path class="st1" d="M494.2,108c5.4,0,10.7,1.4,15.4,4.1c9.5,5.3,15.3,15.4,15.3,26.2c0,5.4-1.4,10.6-4.1,15.2
	c-2.6,4.7-6.4,8.5-11,11.2c-4.7,2.7-10,4.1-15.4,4c-8,0.1-15.7-3.1-21.2-8.8c-11.8-12.1-11.7-31.4,0.4-43.3c0.2-0.2,0.5-0.5,0.8-0.7
	C479.7,110.8,486.8,108,494.2,108z M494.5,121.7c-4.2-0.1-8.3,1.6-11.2,4.7c-3,3.2-4.7,7.6-4.5,12c0,5,1.5,9.1,4.4,12.2
	c2.9,3.1,7,4.8,11.2,4.7c4.3,0.1,8.4-1.6,11.3-4.7c3.1-3.3,4.7-7.7,4.5-12.1c0-4.9-1.5-9-4.4-12.1
	C502.9,123.2,498.8,121.5,494.5,121.7z"/>
<path class="st1" d="M514.8,109.6h14.8l14.5,34l14.5-34h14.7l-24.5,57.7h-9.4L514.8,109.6z"/>
<path class="st1" d="M623.9,142.6h-46.5c0.5,3.8,2.4,7.3,5.4,9.8c3.2,2.5,7.1,3.8,11.2,3.6c5.2,0.1,10.3-2,14-5.7l12.2,5.7
	c-2.8,4.1-6.5,7.4-10.9,9.6c-4.7,2.2-9.9,3.2-15.1,3.1c-9.1,0-16.4-2.9-22.1-8.6c-5.7-5.7-8.5-12.9-8.5-21.5
	c0-8.8,2.8-16.1,8.5-21.9c5.7-5.8,12.8-8.7,21.4-8.7c9.1,0,16.5,2.9,22.2,8.7s8.5,13.5,8.5,23.1L623.9,142.6z M609.4,131.2
	c-0.9-3.2-2.9-6-5.7-7.9c-2.9-2-6.3-3.1-9.8-3c-3.8-0.1-7.6,1.1-10.6,3.4c-1.9,1.4-3.7,3.9-5.3,7.5L609.4,131.2z"/>
<path class="st1" d="M622.9,109.6h14.5v5.9c2.7-2.4,5.7-4.3,8.9-5.8c2.6-1.1,5.4-1.6,8.2-1.6c5.5-0.1,10.8,2.1,14.6,6
	c3.3,3.4,5,8.4,5,15.1v38.1h-14.3V142c0-6.9-0.3-11.5-0.9-13.7c-0.5-2-1.6-3.9-3.2-5.2c-1.6-1.2-3.6-1.8-5.7-1.8
	c-2.8,0-5.5,1-7.5,2.9c-2.2,2.2-3.8,5-4.4,8.1c-0.4,1.8-0.6,5.7-0.6,11.7v23.2h-14.5V109.6z"/>
<path class="st1" d="M490.2,222.9l-3.8-2.4l12.4-18.7c-1.5,0.5-3.1,0.8-4.7,0.8c-3.5,0.1-6.9-1.4-9.3-3.9c-2.5-2.6-3.9-6.1-3.8-9.7
	c0-2.5,0.6-5,1.8-7.1c1.2-2.1,3-3.9,5.2-5.1c2.2-1.2,4.7-1.9,7.2-1.9c2.5,0,4.9,0.6,7,1.8c2.1,1.2,3.8,3,5,5.1
	c1.2,2.1,1.8,4.5,1.8,7c0,2-0.4,4-1.1,5.9c-1.1,2.6-2.4,5.1-4.1,7.4L490.2,222.9z M495.2,198.5c5.3,0,9.6-4.3,9.6-9.6
	c0-5.3-4.3-9.6-9.6-9.6c-5.3,0-9.6,4.3-9.6,9.6c0,2.6,1,5,2.8,6.8C490.1,197.6,492.6,198.6,495.2,198.5L495.2,198.5z"/>
<path class="st1" d="M528,174.8l3.8,2.4L519.4,196c1.5-0.5,3.1-0.8,4.7-0.8c3.5-0.1,6.9,1.4,9.3,3.9c2.5,2.6,3.9,6.1,3.8,9.7
	c0,2.5-0.6,5-1.8,7.1c-1.2,2.1-3,3.9-5.2,5.1c-2.2,1.2-4.7,1.9-7.3,1.9c-2.5,0-4.9-0.6-7-1.8c-2.1-1.2-3.9-3-5.1-5.1
	c-1.2-2.2-1.9-4.6-1.8-7.1c0-2,0.4-4,1.1-5.9c1.1-2.6,2.4-5.1,4.1-7.5L528,174.8z M523,199.2c-5.3,0-9.7,4.3-9.7,9.6
	c0,5.3,4.3,9.7,9.6,9.7s9.7-4.3,9.7-9.6c0-2.6-1-5-2.8-6.8C528,200.1,525.6,199.1,523,199.2L523,199.2z"/>
<path class="st1" d="M544.8,214.9c1,0,2,0.4,2.7,1.1c1.5,1.5,1.5,3.9,0,5.5c-1.5,1.5-3.9,1.5-5.4,0.1c0,0,0,0-0.1-0.1
	c-1.5-1.5-1.5-3.9,0-5.4C542.7,215.3,543.7,214.9,544.8,214.9L544.8,214.9z"/>
<path class="st1" d="M580.3,176v4.4h-16.3l-2.3,12.5c1.7-0.5,3.6-0.8,5.4-0.9c3.9-0.1,7.6,1.4,10.3,4.2c2.7,2.9,4.2,6.8,4,10.7
	c0,2.9-0.7,5.7-2.1,8.3c-1.3,2.4-3.3,4.4-5.7,5.8c-2.5,1.4-5.4,2.1-8.2,2c-3.5,0.1-6.8-1.1-9.4-3.4c-2.6-2.3-4.2-5.4-4.6-8.8h4.7
	c0.3,1.5,0.9,3,1.8,4.3c0.9,1.1,2,2.1,3.4,2.7c1.4,0.7,2.9,1,4.4,1c3,0,5.8-1.2,7.8-3.4c2.2-2.3,3.3-5.4,3.2-8.6
	c0.1-2.8-0.9-5.5-2.9-7.5c-2.1-2-4.9-3-7.8-2.9c-3.4,0.2-6.7,1-9.8,2.5l4.2-22.8L580.3,176z"/>
<path class="st1" d="M599.9,176h22.9v4.5h-18.4v14.4h18.4v4.5h-18.4v22.5h-4.6V176z"/>
<path class="st1" d="M623.8,221.7l6.6-45.8h0.7l18.7,37.6l18.4-37.6h0.7l6.6,45.8H671l-4.5-32.7l-16.2,32.7h-1.2l-16.4-33l-4.5,33
	L623.8,221.7z"/>
</svg>
