<?xml version="1.0" encoding="utf-8"?>
<!-- Generator: Adobe Illustrator 23.0.1, SVG Export Plug-In . SVG Version: 6.00 Build 0)  -->
<svg version="1.1" id="Layer_1" xmlns="http://www.w3.org/2000/svg" xmlns:xlink="http://www.w3.org/1999/xlink" x="0px" y="0px"
	 viewBox="0 0 354.2 101.3" style="enable-background:new 0 0 354.2 101.3;" xml:space="preserve">
<style type="text/css">
	.st0{fill:#FFFFFF;}
</style>
<title>Logo_Zero_white_sinLT_RGB</title>
<path class="st0" d="M303.1,0c-14.2,0-26.2,4.9-36,14.7c-9.8,9.8-14.7,21.8-14.7,35.8c-0.2,13.4,5.1,26.3,14.8,35.6
	c9.9,9.7,21.9,14.6,36.1,14.6s26.3-4.9,36.2-14.7c9.7-9.3,15.1-22.2,14.8-35.6c0-14-4.9-26-14.9-35.8S317.3,0,303.1,0z M333.8,81.1
	c-7.9,8.2-18.9,12.8-30.4,12.6c-12,0-22.2-4.1-30.5-12.5s-12.5-18.5-12.5-30.7s4.1-22.5,12.5-30.9c8-8.2,19-12.8,30.5-12.6
	c11.4-0.2,22.4,4.3,30.4,12.6c8.2,8.4,12.4,18.6,12.4,30.8S342,72.7,333.8,81.1z"/>
<path class="st0" d="M213.6,51c12.7-4.7,19-12.9,19-24.6c0-8-2.8-14.4-8.5-19.1s-13.8-7-24.5-7h-25.5l0.1,100.9h7.7V52.9h13.4
	c6.2,0,10.9,1.1,14.2,3.4s7.7,8,13.5,17.3l17.5,27.6h9L227,66.3C221.3,57.7,216.9,52.6,213.6,51z M198.4,46.4h-16.5V6.8h16.2
	c8.4,0,14.9,1.7,19.4,5.2s6.8,8.3,6.8,14.5s-2.2,11.2-6.6,14.7S206.8,46.4,198.4,46.4L198.4,46.4z"/>
<polygon class="st0" points="110.4,94.8 110.4,53.7 155.6,53.7 155.6,47.2 110.4,47.2 110.4,6.9 156.9,6.8 156.9,0.4 102.7,0.4 
	102.7,101.3 158.1,101.2 158.1,94.7 "/>
<polygon class="st0" points="87,3.1 86.3,0.3 3.3,0.3 3.3,6.8 74.5,6.8 0,99 0.8,101.2 87.7,101.1 87.7,94.6 12.7,94.7 "/>
</svg>
