<svg version="1.1" id="Layer_1" xmlns="http://www.w3.org/2000/svg" x="0" y="0" viewBox="0 0 709.2 124" xml:space="preserve"><style>.st0{fill:#fff}.st1{fill:#b2292e}</style><path class="st0" d="M139.4 8.3H92.9v114h33.5V80.4l-.8-19.3h.3l15.5 44.4h25.2l15.6-44.4h.4l-.9 19.3v41.9h36.8l.1-114h-47.4l-8.4 26.9-6.2 22.8h-.4L149 35.2l-9.6-26.9zm527.2 52c7 0 7.5 7.9 7.5 20.2s-.5 20.1-7.5 20.1-7.5-7.9-7.5-20.1.4-20.2 7.5-20.2zm0 63.7c31 0 42.7-20 42.7-43.5s-11.7-43.6-42.7-43.6c-31.2 0-42.8 20-42.7 43.6s11.5 43.5 42.7 43.5zm-380-105.6L276.5 0 248 18.4l8.4 13.5 30.2-13.5zm-30.9 41.1c5.5 0 8.9 2.8 8.9 7v3c-26 1.7-45.2 12.5-45.2 32.7 0 13.4 8.8 21.8 22.6 21.8 7.7 0 16.3-2.5 22.2-10h.4l3.4 8.4h30.1v-57c0-17.6-14.5-28.4-36.9-28.4-11 0-20.6 1-37.6 6.7l6.8 22.6c8.6-4.3 18.7-6.8 25.3-6.8zm8.9 37.6c-1.5 1.1-3.4 1.7-5.3 1.6-1.8 0-5.6-.8-5.5-5 0-4.4 4.2-7.6 10.9-8.4v11.8h-.1z"/><path class="st0" d="M372.7 94.6c0-26.4-35.2-26-35.2-32.7 0-2.1 2.4-2.5 3.7-2.5 7.2 0 18.9 3.5 24.8 5.8l4.5-24.1c-10.8-2.9-21.9-4.4-33-4.3C314.9 36.9 299 46 299 65c0 28.6 34.4 26.8 34.3 33.6 0 2.2-2.5 2.7-5 2.7-6.8 0-15-2.6-25.8-6l-5.2 24.4c9.4 2.6 23.5 4.2 36 4.2 23.4 0 39.3-9.7 39.4-29.3z"/><path class="st0" d="M415.8 122.3c38.5 0 55.2-24.1 55.2-57s-16.8-57-55.2-57h-45.2v114h45.2zm-10.1-30.1V38.5h10.1c11.7 0 18.4 6.7 18.4 26.8s-6.7 26.8-18.4 26.8h-10.1zm149.1-5.1c1-5.2 1.6-10.6 1.7-15.9 0-21-14.8-34.3-39.3-34.3-28.5 0-46.1 18.3-46.1 43.5s15.1 43.5 48.6 43.5c5.9 0 19.3-.8 31.8-5.8l-3.3-23.7c-6.9 2.8-14.3 4.3-21.7 4.3-14.2 0-18.9-5.8-20.1-11.7h48.4zm-38.5-28.5c6.2 0 8.4 3.6 8.4 7.6 0 1.1-.2 2.3-.5 3.3h-17.9c-.1-5.8 3.6-10.9 10-10.9z"/><path class="st0" d="M554.8 80.4c0 26.7 16.7 43.5 45.2 43.5 9.2-.1 18.3-1.6 27.1-4.4l-4.5-24.1c-8.4 2.5-12.6 3.3-18.4 3.3-9.2 0-14.3-6.6-14.3-18.3S595 62 604.2 62c5.8 0 10 .9 18.4 3.4l4.5-24.1c-8.8-2.8-17.9-4.3-27.1-4.3-28.4-.1-45.2 16.6-45.2 43.4z"/><path class="st1" d="M0 36.9h73.2v70.3H0z"/><path class="st0" d="M8.8 49.8h7v38.6H36v6.2H8.8zm35.3 6.3H30.8v-6.3h33.6v6.3H51.1v38.5h-7z"/><path class="st1" d="M17.3 112.9h-3.1v-1.4H22v1.4h-3.1v8.9h-1.6zm20.5 8.9h-1.9l-1.8-2.5c-.3 0-.5.1-.8.1h-1v2.5h-1.6v-10.4h2.6c2.8 0 4.4 1.6 4.4 3.9.1 1.5-.7 2.8-2.1 3.4l2.2 3zm-4.4-3.8c2 0 2.8-.9 2.8-2.5s-.8-2.5-2.8-2.5h-1v5h1zm5.1-1.3c-.1-2.9 2.2-5.2 5.1-5.3h.2c1.6-.1 3.2.7 4.1 2l-1.2.9c-.7-1-1.8-1.5-2.9-1.4-2.1.1-3.7 1.9-3.6 4 .1 2 1.7 3.5 3.7 3.6 1.2 0 2.4-.5 3.1-1.5l1.3.9c-1 1.4-2.7 2.2-4.4 2.1-2.8 0-5.2-2.2-5.2-5.1-.3-.1-.3-.2-.2-.2m25.2 5.1h-1.9l-1.8-2.5c-.2 0-.5.1-.7.1h-1v2.5h-1.6v-10.3h2.6c2.8 0 4.4 1.6 4.4 3.9.1 1.5-.7 2.8-2.1 3.4l2.1 2.9zm-4.5-3.8c2 0 2.8-.9 2.8-2.5s-.8-2.5-2.8-2.5h-1v5h1zm6.5 3.8h-1.6l4.5-10.5h.1l4.5 10.5h-1.7l-.6-1.4h-4.6l-.6 1.4zm2.9-7l-1.7 4.1h3.4l-1.7-4.1zm-12.9 5.6h-5.1v-1.8H55v-1.4h-4.4v-4.3h5.1v-1.4H49v10.3h6.7zm-31.1-1.8H29v-1.4h-4.4v-4.3h5.2v-1.4H23v10.3h6.8v-1.4h-5.2zM0 111.5h1.6v8.9h4.7v1.4H0z"/><path class="st1" d="M6.8 121.8H5.1l4.5-10.5h.1l4.5 10.5h-1.7l-.6-1.4H7.4l-.6 1.4zm2.9-7L8 118.9h3.4l-1.7-4.1z"/></svg>