<?xml version="1.0" encoding="utf-8"?>
<!-- Generator: Adobe Illustrator 23.0.1, SVG Export Plug-In . SVG Version: 6.00 Build 0)  -->
<svg version="1.1" id="Layer_1" xmlns="http://www.w3.org/2000/svg" xmlns:xlink="http://www.w3.org/1999/xlink" x="0px" y="0px"
	 viewBox="0 0 705.3 135.4" style="enable-background:new 0 0 705.3 135.4;" xml:space="preserve">
<style type="text/css">
	.st0{fill:#B2292E;}
	.st1{fill:#FFFFFF;}
	.st2{fill:#1C1C1B;}
</style>
<title>Logo_ElDeportivo_color_RGB</title>
<rect y="37.3" class="st0" width="56.4" height="54.2"/>
<polygon class="st1" points="6.8,47.3 12.2,47.3 12.2,77 27.7,77 27.7,81.8 6.8,81.8 "/>
<polygon class="st1" points="33.9,52.1 23.7,52.1 23.7,47.3 49.6,47.3 49.6,52.1 39.4,52.1 39.4,81.8 33.9,81.8 "/>
<polygon class="st0" points="13.3,95.9 10.9,95.9 10.9,94.8 16.9,94.8 16.9,95.9 14.5,95.9 14.5,102.8 13.3,102.8 "/>
<path class="st0" d="M29.1,102.8h-1.5l-1.3-1.9c-0.2,0-0.4,0-0.6,0H25v1.9h-1.3v-8h2c2.2,0,3.4,1.2,3.4,3c0.1,1.1-0.6,2.2-1.6,2.6
	L29.1,102.8z M25.7,99.8c1.5,0,2.2-0.7,2.2-1.9s-0.6-1.9-2.2-1.9h-0.7v3.9H25.7z"/>
<path class="st0" d="M29.6,98.8c0-2.2,1.7-4,3.9-4.1c0,0,0.1,0,0.1,0c1.3-0.1,2.5,0.5,3.2,1.6l-1,0.7c-0.5-0.7-1.3-1.1-2.2-1.1
	c-1.6,0.3-2.7,1.9-2.3,3.5c0.2,1.2,1.2,2.1,2.4,2.4c0.9,0,1.8-0.4,2.4-1.2l1,0.7c-0.8,1.1-2.1,1.7-3.4,1.6c-2.2,0-4-1.8-4-4
	C29.7,98.9,29.7,98.8,29.6,98.8"/>
<path class="st0" d="M49.1,102.8h-1.5l-1.4-1.9c-0.2,0-0.4,0-0.6,0h-0.8v1.9h-1.2v-8h2c2.2,0,3.4,1.2,3.4,3c0.1,1.1-0.6,2.2-1.6,2.6
	L49.1,102.8z M45.6,99.8c1.5,0,2.2-0.7,2.2-1.9s-0.6-1.9-2.2-1.9h-0.7v3.9H45.6z"/>
<path class="st0" d="M50.6,102.8h-1.3l3.5-8.1h0.1l3.5,8.1h-1.3l-0.5-1.1h-3.6L50.6,102.8z M52.9,97.4l-1.3,3.1h2.6L52.9,97.4z"/>
<polygon class="st0" points="42.9,101.6 39,101.6 39,100.3 42.3,100.3 42.3,99.2 39,99.2 39,95.9 42.9,95.9 42.9,94.8 37.7,94.8 
	37.7,102.8 42.9,102.8 "/>
<polygon class="st0" points="19,100.3 22.3,100.3 22.3,99.2 19,99.2 19,95.9 22.9,95.9 22.9,94.8 17.7,94.8 17.7,102.8 22.9,102.8 
	22.9,101.6 19,101.6 "/>
<polygon class="st0" points="0,94.8 1.2,94.8 1.2,101.6 4.8,101.6 4.8,102.8 0,102.8 "/>
<path class="st0" d="M5.2,102.8H3.9l3.5-8.1h0.1l3.5,8.1H9.7l-0.5-1.1H5.7L5.2,102.8z M7.5,97.4l-1.3,3.1h2.6L7.5,97.4z"/>
<path class="st2" d="M101.3,86.9c5.9,0,11.7-1.8,16.5-5.2l11.9,12.8c-6.3,5.5-14.3,9.7-28,9.7c-23.4,0-38.5-14.2-38.5-34.3
	c0-19.8,15.8-34,36.2-34c23.6,0,36.3,17.5,34.8,40.5H84.3C86.3,83.1,91.9,86.9,101.3,86.9z M113.1,64.3c-0.9-7.2-5.5-11.5-13.7-11.5
	S85.7,56.5,84,64.3H113.1z"/>
<path class="st2" d="M137.1,3.5h20.6v99.3h-20.6V3.5z"/>
<path class="st2" d="M160.8,69.9c0-20.2,13.5-34,29.4-34c10.5,0,16.3,4.2,20.5,10.6v-43h20.8v99.3h-20.8l0.4-9.5
	c-3.7,6.9-10.6,10.9-20.6,10.9C174.5,104.2,160.8,90,160.8,69.9z M211.3,69.9c0-9.7-5.9-15.7-14.8-15.7c-8.9,0-14.3,6-14.3,15.7
	c0,10.3,5.5,16.2,14.3,16.2C205.3,86,211.3,80.2,211.3,69.9z"/>
<path class="st2" d="M272.1,86.9c5.9,0,11.7-1.8,16.5-5.2l11.9,12.8c-6.3,5.5-14.3,9.7-28,9.7c-23.4,0-38.5-14.2-38.5-34.3
	c0-19.8,15.9-34,36.2-34c23.5,0,36.3,17.5,34.8,40.5h-49.7C257.2,83.1,262.7,86.9,272.1,86.9z M283.9,64.3
	c-0.9-7.2-5.5-11.5-13.7-11.5s-13.7,3.7-15.4,11.5H283.9z"/>
<path class="st2" d="M307.5,37.2h20.8l-0.5,10.2c4-7.1,10.9-11.5,21.1-11.5c15.9,0,29.2,13.8,29.2,34s-13.7,34.3-29.7,34.3
	c-10,0-16.8-4.1-20.2-10.2v41.4h-20.8V37.2z M356.7,69.9c0-9.7-5.5-15.7-14.3-15.7c-8.9,0-14.8,6-14.8,15.7
	c0,10.3,5.8,16.2,14.8,16.2C351.2,86,356.7,80.2,356.7,69.9z"/>
<path class="st2" d="M378.4,70.2c0-20,15.9-34.3,36.2-34.3s36,14.3,36,34.3c0,19.8-15.7,34-36,34S378.4,90,378.4,70.2z M429.4,70.2
	c0-9.8-5.5-16.5-14.8-16.5s-14.9,6.6-14.9,16.5c0,9.7,5.7,16.5,14.9,16.5S429.3,79.9,429.4,70.2L429.4,70.2z"/>
<path class="st2" d="M453.1,37.2h20.8l-0.3,11.8c4.8-10.8,12.5-13.2,19.2-13.2c3.6,0,7,0.9,10.2,2.6l-6.6,18.9c-2.5-1.3-5.2-2-8-2
	c-9.4,0-14.5,4.3-14.5,18.3v29.1h-20.8V37.2z"/>
<path class="st2" d="M508.1,78.2V54.5h-9.7V37.2h9.7V3.1h20.6v34.2h16.8v17.2h-16.8v24.3c0,6.6,2.2,8,5.4,8c3.4,0,5.8-1.8,7.2-2.8
	l7.8,14.5c-3.2,2.6-8.8,6-18.3,6C517.7,104.5,508.1,97.9,508.1,78.2z"/>
<path class="st2" d="M546.3,13.2C546.3,6,552.1,0,559.4,0c7.3,0,13.2,5.8,13.2,13.1s-5.8,13.2-13.1,13.2c0,0,0,0,0,0
	c-7.2,0.1-13.1-5.6-13.2-12.8C546.3,13.4,546.3,13.3,546.3,13.2z M549.1,37.2h20.8v65.6h-20.8L549.1,37.2z"/>
<path class="st2" d="M568.6,37.2h22.9l9.2,19.5c3.1,6.6,5.4,17.4,5.4,17.4s2.2-10.8,5.1-17.4l8.9-19.6h21.1l-35.1,66.9h-2
	L568.6,37.2z"/>
<path class="st2" d="M633.1,70.2c0-20,15.8-34.3,36.2-34.3s36,14.3,36,34.3c0,19.8-15.7,34-36,34S633.1,90,633.1,70.2z M684,70.2
	c0-9.8-5.5-16.5-14.8-16.5s-14.9,6.6-14.9,16.5c0,9.7,5.7,16.5,14.9,16.5S684,79.9,684,70.2z"/>
</svg>
