<?xml version="1.0" encoding="utf-8"?>
<!-- Generator: Adobe Illustrator 23.0.1, SVG Export Plug-In . SVG Version: 6.00 Build 0)  -->
<svg version="1.1" id="Layer_1" xmlns="http://www.w3.org/2000/svg" xmlns:xlink="http://www.w3.org/1999/xlink" x="0px" y="0px"
	 viewBox="0 0 586.5 139.7" style="enable-background:new 0 0 586.5 139.7;" xml:space="preserve">
<style type="text/css">
	.st0{fill:#FFFFFF;}
</style>
<title>Logo_Reportajes_white_sinLT_RGB</title>
<path class="st0" d="M0,37.8h21.2l-0.3,12.1c4.9-11,12.8-13.5,19.7-13.5c3.6,0,7.2,0.9,10.4,2.7l-6.8,19.3c-2.5-1.3-5.3-2-8.2-2
	c-9.6,0-14.8,4.4-14.8,18.7v29.7H0V37.8z"/>
<path class="st0" d="M84.2,88.6c6,0,11.9-1.9,16.8-5.3l12.1,13.1c-6.4,5.7-14.6,9.9-28.6,9.9c-23.9,0-39.3-14.5-39.3-35.1
	c0-20.3,16.2-34.8,37-34.8c24.1,0,37.1,17.9,35.6,41.4H66.8C68.9,84.6,74.6,88.6,84.2,88.6z M96.3,65.4c-1-7.4-5.7-11.8-14-11.8
	s-14,3.8-15.7,11.8H96.3z"/>
<path class="st0" d="M120.3,37.8h21.2l-0.5,10.4c4.1-7.2,11.2-11.8,21.6-11.8c16.2,0,29.9,14.2,29.9,34.8s-14,35.1-30.4,35.1
	c-10.2,0-17.1-4.2-20.6-10.4v42.3h-21.2V37.8z M170.6,71.1c0-9.9-5.7-16-14.6-16c-9.1,0-15.1,6.1-15.1,16c0,10.5,6,16.5,15.1,16.5
	C165,87.6,170.6,81.6,170.6,71.1z"/>
<path class="st0" d="M192.8,71.4c0-20.4,16.2-35.1,37-35.1s36.8,14.6,36.8,35.1c0,20.3-16,34.8-36.8,34.8S192.8,91.7,192.8,71.4z
	 M244.9,71.4c0-10.1-5.7-16.8-15.1-16.8s-15.3,6.8-15.3,16.8c0,9.9,5.8,16.8,15.3,16.8S244.9,81.3,244.9,71.4L244.9,71.4z"/>
<path class="st0" d="M269.1,37.8h21.2L290,49.8c4.9-11,12.8-13.5,19.7-13.5c3.6,0,7.2,0.9,10.4,2.7l-6.8,19.3c-2.5-1.3-5.3-2-8.2-2
	c-9.6,0-14.8,4.4-14.8,18.7v29.7h-21.2V37.8z"/>
<path class="st0" d="M325.4,79.6V55.4h-9.9V37.8h9.9V2.8h21.1v34.9h17.1v17.6h-17.1v24.9c0,6.8,2.2,8.2,5.5,8.2c3.5,0,6-1.9,7.4-2.8
	l8,14.8c-3.3,2.7-9,6.1-18.7,6.1C335.2,106.5,325.4,99.7,325.4,79.6z"/>
<path class="st0" d="M397.1,53.8c-8,0-12.3,3.5-15.3,6.1l-11.8-12.6c6.3-6.1,13.4-11,29.1-11c17.1,0,30.2,9.3,30.2,30.4v38.1h-21.1
	l0.5-9.3c-5,7.7-10.9,10.7-19.8,10.7c-12.3,0-23.6-5.5-23.6-21.1c0-14.3,10.9-20.1,27.4-20.1h15.6C408,57.3,404.2,53.8,397.1,53.8z
	 M393.8,77.6c-5.4,0-7.7,2.4-7.7,6.1s3.1,6,9.1,6c8.7,0,13.1-3.8,13.1-9.4v-2.7L393.8,77.6z"/>
<path class="st0" d="M414,131.7l10.5-12.6c1.7,1.6,3.5,2.5,5.2,2.5c3.3,0,4.9-1.9,4.9-5.4V37.8h21.2v77.7c0,15.4-8.3,24.2-24.1,24.2
	C423.9,139.7,417.1,135.6,414,131.7z M431.7,13.2c0-7.3,6-13.2,13.3-13.2c0.1,0,0.1,0,0.2,0c7.3,0,13.3,5.9,13.3,13.3
	c0,7.3-5.9,13.3-13.3,13.3c0,0,0,0,0,0c-7.3,0.1-13.4-5.7-13.5-13C431.7,13.4,431.7,13.3,431.7,13.2z"/>
<path class="st0" d="M497.9,88.6c6,0,11.9-1.9,16.8-5.3l12.1,13.1c-6.5,5.7-14.6,9.9-28.6,9.9c-23.9,0-39.3-14.5-39.3-35.1
	c0-20.3,16.2-34.8,37-34.8c24.1,0,37.1,17.9,35.6,41.4h-50.8C482.7,84.6,488.4,88.6,497.9,88.6z M510.1,65.4
	c-0.9-7.4-5.7-11.8-14-11.8s-14,3.8-15.7,11.8H510.1z"/>
<path class="st0" d="M528.5,93.4l12.4-11c4.4,4.4,10.4,7,16.7,7.1c6.9,0,9.1-1.3,9.1-4.1c0-3.6-4.2-3.6-15.1-6.4
	c-9.1-2.4-19.3-7.4-19.3-21.4c0-15.1,11.6-21.2,26-21.2c11,0,18.9,3.6,24.4,9.3l-11.3,12.1c-3.6-3.1-8.1-4.9-12.9-5
	c-4.9,0-7.2,1.3-7.2,3.9c0,3.8,4.2,4.2,13.4,6.3c9.8,2.2,22,6.8,22,20.9c0,12.3-6.5,22.3-27.5,22.3
	C543.4,106.2,534.3,100.4,528.5,93.4z"/>
</svg>
