<svg version="1.1" id="Layer_1" xmlns="http://www.w3.org/2000/svg" x="0" y="0" viewBox="0 0 937.4 158.6" xml:space="preserve"><style>.st1{fill:#b2292e}</style><path d="M548.1 1.8v4.6H576v152h6.4V6.4h28.1V.8h-62.4v1zm118.8 102.5c-1.3-2.8-3.1-5.2-5.4-7.2 2.9-1.4 5.2-3.7 6.8-6.4 3-5 4-10.8 4.8-16.4.8-8 .8-16 .8-24.1v-9.6c0-7.8 0-15.8-2.2-23.7-1.4-5-3.8-8.8-7-11.2-3.8-3-9-4.6-15.7-4.6h-23.3v157.6h6.4V99.3h21.5c3.8.2 6.2 4.2 7.6 7.2 2.4 5.8 3.4 12.2 4.2 19.3l4.2 32.7h6.4l-4.2-33.1c-.9-7.1-1.9-14.5-4.9-21.1zM632 6.4h16.6c4.6 0 8.4 1 11 3 2.6 2 4.5 4.8 5.4 8 1.4 5 2.2 10.1 2.2 15.2.2 5 .2 10.2.2 15.2V56c0 7.6-.2 15.6-1.6 23.3-.8 3.8-2 8.2-4.8 11.2-2.1 2-4.9 3.1-7.8 3h-21V6.4h-.2zm92.8-4.8V.8h-12l-.2.8c-7.6 52-15.2 103.7-22.9 155.6l-.2 1.2h6.6l5.4-38.1H736l5.5 38.1h6.6l-.2-1.2c-7.8-51.7-15.5-103.6-23.1-155.6zm-5.4 4.8l15.4 108.5h-32.5c4.2-29.9 8.6-59.8 12.8-89.7l2.6-18.8h1.7zm92.9 39.9c0-7.6 0-15.4-1.2-23.1-1.4-8-3.8-13.4-7.8-17.2-5-4.4-11.6-5.2-16.5-5.2h-23.9v157.6h25.3c7.2 0 13.4-2.8 17-7.4 5-6.6 6.2-15.1 6.8-22.7.4-7.2.4-14.4.4-21.5-.1-2.7-.1-58.7-.1-60.5zm-6.5 19.9v55.2c.1 5.9-.3 11.8-1.4 17.6-1.2 4.8-3 8.4-5.8 10.4-2.6 2.2-6.4 3.2-11 3.2h-18.3V6h18.5c4.6 0 8.6 1.4 11.2 4 2.8 2.6 4.6 6.6 5.6 12.4s1 12 1 17.8l.2 26zm25.3 92.2h41.1v-5.6h-34.7V82.4H870v-5.6h-32.5V6.4h34.7V.8h-41.1v157.6zm102.3-33.5c-.5-5.3-1.5-10.5-3-15.6-1.2-3.8-3.2-8.8-7.4-12.2 2-1 3.7-2.3 5.2-4 3.6-4.4 5-10.2 5.8-15.4 1.2-8.8 1.2-17.6 1.2-26.5V40.9c0-6.8 0-14-1.4-21.1-1.4-6.4-3.6-11-7.2-14-3.8-3.2-9-5-15.7-5H887v157.6h6.5V99.1h20.7c1.7 0 3.3.5 4.6 1.6 2 2 3.5 4.4 4.4 7 2 5.4 2.8 11.4 3.6 17l4.2 33.7h6.4l-4-33.5zM929 53.7c0 8.2 0 16.8-1.4 25.3-1 4.6-2.2 9.2-5.6 12-2 1.6-4.8 2.4-8.4 2.4h-19.7v-87h17.6c3 0 8.4.8 11.8 4.6s4.6 9.2 5.2 13.4c.7 6.3.9 12.6.8 18.8v5.2c-.3 1.8-.4 3.6-.3 5.3zM320.3 1.8V157h59.9v-21.3h-34.1V1.8zm-96.8 44c0 16.5 1.9 32.7-6.9 42.2-7.5 8-15.2 11.2-38.4 10v59h-25.4V1.8h36.7c13.6 0 25.6 4.3 31 16.1 3.1 7.1 3 17.8 3 27.9m-25.4-.4c0-6.6.4-12-.3-15.2-1.3-6.3-5.5-6.5-11.5-6.5h-8v52.5h10.4c3.9.1 8.3-1 9-5.2.7-4.3.4-11.5.4-25.6M304.6 2h-25.4l.3 126.5s0 7.2-10.5 7.5c-10.9.4-10-10.1-10-8.8V2h-25.8l.4 124.5s-2.2 31.3 34 32.1c5.9 0 35 .1 37.1-28.6.4-9.3-.1-128-.1-128m233.7 123.5c0 9.2-2.1 17.4-9.1 23.7s-16.9 8.6-26.5 8.6c-10.5 0-18.8-2.1-25.8-7.9s-10-14.1-10-23.9l-.1-94.2c0-9.1 3.2-18.1 10.3-24.1 6.9-5.6 16-7.7 26.2-7.7 9.4 0 18.5 2.6 25.6 8.7s9.2 14.8 9.2 22.2l.2 94.6zm-25.6-.3V31.9c0-2.2-.4-9.6-10.1-9.6-9.2 0-10.2 6.2-10.2 9.6v93.3c0 3.2.3 10.3 10.2 10.2 9.8-.1 10.1-6.8 10.1-10.2m-56.7-6c0 15.4-1.4 21.3-7.2 28.3-5.2 6.3-15.5 10.5-27.8 10.5-9.6 0-19.1-1.7-26-7.5-7.7-6-10.3-14.5-10.3-24.1v-25.2h25v17.2c.1 5.8-.7 10.1 1.3 13s4.6 4.4 9.9 4.1c4.6-.2 7.9-2.1 9.2-4.7 1.2-2.5.5-5.6.5-10.9 0-8.6.4-15.8-11-24.1s-18.7-13-26.1-22.3c-10.5-13.2-8.2-31.2-8.3-35-.5-14.4.4-20.3 5.9-27.1C397.2 3.5 408.2.1 420.6.1c11 0 20.3 3 26.8 9.8 5.9 6.2 7.8 14.3 7.8 23.7v22.6h-24.7c.3-1.8 0-9.7-.1-15.3s.5-9.8-.5-12.4c-1.8-4.2-4.6-6-10.1-5.8-2.5-.1-4.9.7-6.9 2.1-2.6 2.1-2.8 5.9-2.4 14.4.2 3.7-.3 7.4.4 10.7.9 4.6 3.4 8.7 8.8 13.1 8.4 6.9 18.8 12.9 25.9 21.5 9.9 12 10.4 21.5 10.4 34.7" fill="#1c1c1b"/><path class="st1" d="M0 2.2h133.3v127.9H0z"/><path d="M16 25.7h12.8v70.2h36.7v11.4H16zm64.2 11.4H56V25.7h61.3v11.4H93v70.2H80.2z" fill="#fff"/><path class="st1" d="M31.4 140.6h-5.5V138H40v2.6h-5.6v16.2h-3zm37.4 16.2h-3.5l-3.2-4.6c-.4.1-.9.1-1.3.1h-1.9v4.5h-3V138h4.8c5.2 0 8 2.9 8 7.2.2 2.7-1.3 5.2-3.8 6.3l3.9 5.3zm-8.1-7c3.6 0 5.1-1.7 5.1-4.6s-1.5-4.6-5.1-4.6h-1.8v9.1l1.8.1zm9.3-2.4c-.1-5.2 4-9.5 9.2-9.6h.3c3-.2 5.8 1.2 7.5 3.6l-2.3 1.6a6.15 6.15 0 00-5.3-2.6c-3.7 0-6.4 3-6.4 7s2.8 7 6.5 7c2.2.1 4.3-.9 5.6-2.7l2.3 1.6c-1.8 2.6-4.9 4-8 3.8-5.2.1-9.4-4-9.5-9.2.1-.1.1-.3.1-.5m46 9.4h-3.5l-3.2-4.6c-.4.1-.9.1-1.3.1h-1.9v4.5h-3V138h4.8c5.2 0 8 2.9 8 7.2.2 2.7-1.3 5.2-3.8 6.3l3.9 5.3zm-8.2-7c3.6 0 5.1-1.7 5.1-4.6s-1.5-4.6-5.1-4.6h-1.7v9.1l1.7.1zm11.8 7h-3l8.2-19.2h.2l8.3 19.2h-3.1l-1.1-2.6h-8.4l-1.1 2.6zm5.3-12.7l-3.1 7.4h6.2l-3.1-7.4zm-23.5 10.1h-9.3V151h8v-2.6h-8v-7.8h9.3V138H89.1v18.8h12.3zM44.8 151h8v-2.6h-8v-7.8h9.4V138H41.8v18.8h12.4v-2.6h-9.4zM0 138h3v16.2h8.4v2.6H0z"/><path class="st1" d="M12.3 156.8h-3l8.2-19.2h.2l8.2 19.2h-3.1l-1.1-2.6h-8.4l-1 2.6zm5.3-12.7l-3.1 7.4h6.2l-3.1-7.4z"/></svg>