<?xml version="1.0" encoding="utf-8"?>
<!-- Generator: Adobe Illustrator 23.0.1, SVG Export Plug-In . SVG Version: 6.00 Build 0)  -->
<svg version="1.1" id="Layer_1" xmlns="http://www.w3.org/2000/svg" xmlns:xlink="http://www.w3.org/1999/xlink" x="0px" y="0px"
	 viewBox="0 0 947.9 210.6" style="enable-background:new 0 0 947.9 210.6;" xml:space="preserve">
<title>Logo_MtMotores_black_RGB</title>
<g>
	<polygon points="337.5,102.2 337.5,117.1 369.2,117.1 369.2,208.9 385.9,208.9 385.9,117.1 417.6,117.1 417.6,102.2 	"/>
</g>
<g>
	<g>
		<path d="M581.4,142.9c0-24.7-16.1-40.9-45.5-40.9h-27.2v106.8h16.8v-25.5h10.6c2.7,0,5.4-0.2,7.7-0.5l18.3,26H582l-21.9-30.3
			C574.1,172.1,581.4,159.4,581.4,142.9 M535.4,169.1h-10v-52h10c20.4,0,28.9,9.7,28.9,26C564.1,159.2,555.8,169.1,535.4,169.1"/>
	</g>
	<g>
		<path d="M642.9,195c-21.5,0-37.3-16.5-37.3-39.6c0-22.6,15.4-39.6,36.7-39.6c14.2,0,23.1,5,30.3,14.7l12.9-9.1
			c-9.3-13.1-22.9-20.6-42.7-20.6c-30.5,0-54.5,23.3-54.5,54.9s23.5,54.9,54,54.9c20.8,0,34.8-7.2,45.7-21.9l-13.1-9
			C666.9,189.9,656.7,195,642.9,195"/>
	</g>
	<g>
		<path d="M849.6,142.9c0-24.7-16.1-40.9-45.5-40.9h-27.2v106.8h16.8v-25.5h10.4c2.7,0,5.4-0.2,7.7-0.5l18.3,26H850l-21.9-30.3
			C842.1,172.1,849.6,159.4,849.6,142.9 M803.4,169.1h-9.9v-52h9.9c20.4,0,28.9,9.7,28.9,26C832.2,159.2,824,169.1,803.4,169.1"/>
	</g>
	<g>
		<path d="M901,99.9h-0.9l-46.8,109h17l6.1-14.9h47.5l6.1,14.9h17.7L901,99.9z M882.6,179.1l17.7-42.3l17.4,42.3H882.6z"/>
	</g>
	<g>
		<polygon points="697.1,208.8 766.6,208.8 766.6,194 713.9,194 713.9,175.9 759.3,175.9 759.3,161.3 713.9,161.3 713.9,117.1 
			766.6,117.1 766.6,102.2 697.1,102.2 		"/>
	</g>
	<g>
		<polygon points="445,175.9 490.4,175.9 490.4,161.4 445,161.4 445,117.1 498.3,117.1 498.3,102.2 428.2,102.2 428.2,208.9 
			498.5,208.9 498.5,194 445,194 		"/>
	</g>
	<g>
		<path d="M290.2,100l-40.3,93.9h-42.5v-91.8h-16.8v106.7h69.9l6.1-14.9h47.7l6.1,14.9h17.7L291.3,100H290.2z M272.8,179.1
			l17.7-42.1l17.4,42.1L272.8,179.1L272.8,179.1z"/>
	</g>
	<g>
		<path d="M140.7,87.3c1.2-1.1,1.8-2.5,1.8-4.3c0-3.6-2.3-5.5-7-5.5h-4.7v11.4h3.6C137.4,89,139.4,88.4,140.7,87.3"/>
	</g>
	<g>
		<path d="M144.8,103c0.6-1,1-2,1-3.2s-0.4-2.2-1-3.2c-0.7-1-1.7-1.7-2.9-2.2c-1.3-0.5-3.2-0.7-5.9-0.7h-5.1v12.1h5.4
			c3,0,5-0.2,6.1-0.7C143.3,104.7,144.2,104,144.8,103"/>
	</g>
	<g>
		<path d="M169.9,54.1C156.6,21.9,124.5-0.2,87.6,0C38.9,0.3-0.3,40,0,88.7c0.3,48.7,40,87.9,88.7,87.6c8.4-0.1,16.5-1.3,24.1-3.5
			l0,0c0.1,0,0.1-0.1,0.2-0.1c2.6-0.8,5.2-1.6,7.6-2.6c0.5-0.1,2.1-1.2,2.5-1.3c3.7-2.4,5.5-3.3,9.7-3.3c9-0.1,16.3,7.2,16.4,16.2
			c0,2.3,0,4.1-0.8,6.5c-1.7,5.5-3.4,11.5-3.9,16.1c0,0.1,0,0.1,0,0.1c0,0.3-0.1,0.5-0.1,0.8c0,0,0,0,0,0.1c0.1,2,1.7,3.6,3.7,3.5
			c1.4,0,2.6-0.8,3.2-1.9l0,0C201.2,123.5,169.9,54.1,169.9,54.1 M125.4,72.7h10c3.1,0,5.6,0.4,7.4,1.3c1.8,0.8,3.1,2,4,3.5
			s1.4,3.2,1.4,5.1c0,3.7-1.9,6.4-5.8,8c2.8,0.5,5,1.7,6.6,3.4c1.6,1.8,2.5,3.9,2.5,6.3c0,1.9-0.5,3.7-1.5,5.2s-2.5,2.8-4.4,3.7
			c-1.9,1-4.4,1.4-7.3,1.4h-12.9V72.7z M26.8,77.9c4-3.8,8.8-5.7,14.6-5.7c4,0,8.4,1,13.3,3.1v5.9c-4.4-2.5-8.8-3.8-13-3.8
			c-4.4,0-8,1.4-10.9,4.1c-2.9,2.8-4.3,6.2-4.3,10.3c0,4.2,1.4,7.6,4.2,10.3c2.8,2.7,6.5,4,10.9,4c4.6,0,9.1-1.4,13.5-4.2v6
			c-4,2.2-8.6,3.3-13.8,3.3c-4.3,0-7.9-0.8-10.8-2.6c-3-1.7-5.3-4.1-7-7c-1.7-3-2.6-6.3-2.6-9.7C20.9,86.3,22.9,81.6,26.8,77.9
			 M60.8,72.7h5.5v33.1h17.1v5H60.8V72.7z M86.8,101c-0.4-1.4-0.6-3.7-0.6-6.8V72.7h5.5v21.6c0,3.6,0.4,6.1,1.2,7.5
			c0.8,1.4,2.1,2.5,3.7,3.4c1.7,0.8,3.6,1.3,5.9,1.3c3.2,0,5.9-0.8,7.9-2.5c1.1-0.9,1.8-2,2.3-3.2s0.7-3.3,0.7-6.3V72.7h5.5v21.6
			c0,2.9-0.2,5.1-0.6,6.6s-0.9,2.7-1.6,3.7c-0.6,1-1.4,1.9-2.3,2.7c-3,2.6-7,3.9-11.8,3.9c-5,0-8.9-1.3-11.9-3.9
			c-0.9-0.8-1.7-1.7-2.3-2.7C87.8,103.6,87.2,102.4,86.8,101"/>
	</g>
</g>
</svg>
