<?xml version="1.0" encoding="utf-8"?>
<!-- Generator: Adobe Illustrator 23.0.1, SVG Export Plug-In . SVG Version: 6.00 Build 0)  -->
<svg version="1.1" id="Layer_1" xmlns="http://www.w3.org/2000/svg" xmlns:xlink="http://www.w3.org/1999/xlink" x="0px" y="0px"
	 viewBox="0 0 357.9 116.9" style="enable-background:new 0 0 357.9 116.9;" xml:space="preserve">
<title>Logo_MtMotores_corto_02_RGB</title>
<path d="M301.7,116.9c8,0.1,15.9-1.5,23.2-4.8c6.7-3,12.7-7.4,17.7-12.8c4.9-5.4,8.8-11.7,11.3-18.6c2.7-7.1,4-14.6,4-22.1v-0.3
	c0-7.6-1.3-15-4-22.1c-2.5-6.9-6.4-13.2-11.3-18.6c-5-5.4-11-9.8-17.7-12.8c-14.8-6.3-31.6-6.3-46.4,0c-6.7,3-12.8,7.4-17.8,12.8
	c-4.9,5.4-8.7,11.7-11.3,18.6c-2.2,5.9-3.5,12.2-3.8,18.5h3.6c0.3-6,1.5-11.9,3.6-17.5c4.8-13.1,14.6-23.7,27.3-29.5
	c13.7-6.1,29.3-6,43,0.1c6.3,2.9,12,7.1,16.7,12.2c4.7,5.1,8.3,11.1,10.7,17.6c2.5,6.7,3.8,13.7,3.8,20.8v0.3
	c0,7.1-1.2,14.2-3.7,20.8c-2.4,6.5-6,12.4-10.7,17.5c-4.7,5-10.3,9.1-16.5,12c-6.8,3.1-14.1,4.6-21.5,4.5h-0.2"/>
<path d="M132.3,115h3.6V34.3h-3.6V115z M237.4,115V2h-3.2L185,72l-38.1-54.2l-1.7,3.5l39.6,56.4h0.2l48.9-69.8V115H237.4z"/>
<polyline points="124.2,1.1 90.9,1.1 62.4,65.8 32.1,1.1 0,1.1 0,114.9 32.2,114.9 32.1,57.5 54.3,115 69.9,115 92.1,57.5 92.3,115 
	124.2,114.9 124.2,28.6 "/>
</svg>
