<svg version="1.1" id="Layer_1" xmlns="http://www.w3.org/2000/svg" x="0" y="0" viewBox="0 0 937.4 158.6" xml:space="preserve"><style>.st0{fill:#fff}.st1{fill:#b2292e}</style><path class="st0" d="M548.1 1v4.6H576v152h6.4V5.6h28.1V0h-62.4v1zm118.8 102.5c-1.3-2.8-3.1-5.2-5.4-7.2 2.9-1.4 5.2-3.7 6.8-6.4 3-5 4-10.8 4.8-16.4.8-8 .8-16.1.8-24.1v-9.6c0-7.8 0-15.8-2.2-23.7-1.4-5-3.8-8.8-7-11.2-3.8-3-9-4.6-15.6-4.6h-23.3v157.6h6.4V98.5h21.5c3.8.2 6.2 4.2 7.6 7.2 2.4 5.8 3.4 12.2 4.2 19.3l4.2 32.7h6.4l-4.2-33.1c-1-7.1-2-14.5-5-21.1zM632 5.6h16.6c4.6 0 8.4 1 11 3 2.6 2 4.5 4.8 5.4 8 1.4 5 2.2 10.1 2.2 15.2.2 5 .2 10.2.2 15.2v8.2c0 7.6-.2 15.6-1.6 23.3-.8 3.8-2 8.2-4.8 11.2-2.1 2-4.9 3.1-7.8 3h-21V5.6h-.2zM724.8.8V0h-12l-.2.8c-7.6 51.9-15.2 103.7-22.9 155.6l-.2 1.2h6.6l5.4-38.1H736l5.4 38.1h6.6l-.2-1.2c-7.7-51.7-15.4-103.6-23-155.6zm-5.4 4.8l15.5 108.5h-32.5c4.2-29.9 8.6-59.8 12.8-89.7l2.6-18.8h1.6zm92.9 39.9c0-7.6 0-15.4-1.2-23.1-1.4-8-3.8-13.4-7.8-17.2-5-4.4-11.6-5.2-16.4-5.2H763v157.6h25.3c7.2 0 13.4-2.8 17-7.4 5-6.6 6.2-15 6.8-22.7.4-7.2.4-14.4.4-21.4-.2-2.8-.2-58.8-.2-60.6zm-6.4 19.9v55.2c.1 5.9-.3 11.8-1.4 17.6-1.2 4.8-3 8.4-5.8 10.4-2.6 2.2-6.4 3.2-11 3.2h-18.3V5.2h18.5c4.6 0 8.6 1.4 11.2 4 2.8 2.6 4.6 6.6 5.6 12.4s1 12 1 17.8l.2 26zm25.2 92.2h41.1V152h-34.6V81.6h32.5V76h-32.5V5.6h34.7V0h-41.2v157.6zm102.3-33.4c-.5-5.3-1.5-10.5-3-15.6-1.2-3.8-3.2-8.8-7.4-12.2 2-1 3.8-2.3 5.2-4 3.6-4.4 5-10.2 5.8-15.4 1.2-8.8 1.2-17.6 1.2-26.5V40.1c0-6.8 0-14-1.4-21-1.4-6.4-3.6-11-7.2-14-3.8-3.2-9-5-15.6-5h-23.9v157.5h6.4V98.3h20.7c1.7 0 3.3.6 4.6 1.6 2 2 3.5 4.4 4.4 7 2 5.4 2.8 11.4 3.6 17l4.2 33.7h6.4l-4-33.4zM929 53c0 8.2 0 16.9-1.4 25.3-1 4.6-2.2 9.2-5.6 12-2 1.6-4.8 2.4-8.4 2.4h-19.7v-87h17.7c3 0 8.4.8 11.8 4.6s4.6 9.2 5.2 13.4c.7 6.3.9 12.6.8 18.8v5.2c-.3 1.8-.5 3.5-.4 5.3zM321 2v155.1h59.8v-21.2h-34V2zm-96.9 44c0 16.5 1.9 32.7-6.9 42.2-7.5 8-15.2 11.2-38.4 10v59h-25.4V2H190c13.5 0 25.6 4.3 31 16.1 3.2 7.1 3.1 17.7 3.1 27.9m-25.4-.4c0-6.6.4-12-.3-15.2-1.3-6.3-5.5-6.5-11.5-6.5h-8v52.5h10.4c3.9.1 8.3-1 9-5.2.7-4.3.4-11.5.4-25.6M305.3 2.1h-25.4l.3 126.6s.1 7.2-10.5 7.5c-10.9.4-10-10.1-10-8.8V2.1h-25.8l.4 124.5s-2.2 31.3 34 32c5.9 0 35 .1 37.1-28.6.4-9.2-.2-127.9-.1-127.9m233.6 123.5c0 9.2-2.1 17.4-9.1 23.7-7 6.3-16.9 8.6-26.5 8.6-10.5 0-18.8-2.1-25.8-7.9s-10-14.1-10-23.9l-.2-94.3c0-9.1 3.2-18.1 10.3-24.1 6.9-5.6 16-7.7 26.2-7.7 9.4 0 18.5 2.6 25.6 8.7s9.2 14.8 9.2 22.2l.3 94.7zm-25.6-.2V32.1c0-2.2-.4-9.6-10.1-9.6-9.2 0-10.2 6.2-10.2 9.6v93.3c0 3.3.3 10.3 10.2 10.2 9.9-.1 10.1-6.8 10.1-10.2m-56.7-6c0 15.4-1.4 21.3-7.2 28.3-5.2 6.3-15.5 10.5-27.8 10.5-9.6 0-19.1-1.7-26-7.5-7.8-6-10.3-14.5-10.3-24v-25.2h25v17.2c.1 5.8-.7 10.1 1.3 13s4.6 4.4 9.9 4.1c4.7-.2 7.9-2.1 9.2-4.7 1.2-2.5.5-5.6.5-10.9 0-8.6.4-15.8-11-24.1s-18.7-13-26.1-22.3c-10.5-13.2-8.2-31.2-8.3-35-.5-14.4.4-20.3 5.9-27.1C397.8 3.8 408.8.4 421.2.4c11 0 20.3 3 26.8 9.8 5.9 6.2 7.8 14.3 7.8 23.7v22.6H431c.3-1.8 0-9.7-.1-15.3s.5-9.8-.5-12.4c-1.8-4.2-4.6-6-10.1-5.8-2.5-.1-4.9.7-6.9 2.2-2.6 2.1-2.8 5.9-2.4 14.4.2 3.7-.3 7.4.4 10.7.9 4.6 3.4 8.7 8.8 13.1 8.4 6.9 18.8 12.9 25.9 21.5 10 11.8 10.5 21.4 10.5 34.5"/><path class="st1" d="M0 1.4h133.3v127.9H0z"/><path class="st0" d="M16 24.9h12.8v70.2h36.7v11.4H16zm64.2 11.4H56V24.9h61.3v11.4H93v70.2H80.2z"/><path class="st1" d="M31.4 139.8h-5.5v-2.6H40v2.6h-5.6V156h-3zM68.8 156h-3.5l-3.2-4.6c-.4.1-.9.1-1.3.1h-1.9v4.5h-3v-18.8h4.8c5.2 0 8 2.9 8 7.2.2 2.7-1.3 5.2-3.8 6.3l3.9 5.3zm-8.1-7c3.6 0 5.1-1.7 5.1-4.6 0-2.9-1.5-4.5-5.1-4.5h-1.8v9.1h1.8zm9.3-2.4c-.1-5.2 4-9.5 9.2-9.6h.3c3-.2 5.8 1.2 7.5 3.6l-2.2 1.6a6.15 6.15 0 00-5.3-2.6c-3.7 0-6.4 3-6.4 7s2.8 7 6.6 7c2.2.1 4.3-.9 5.6-2.7l2.3 1.6c-1.8 2.6-4.9 4-8 3.8-5.2.1-9.4-4-9.5-9.2-.1-.1-.1-.3-.1-.5m46 9.4h-3.5l-3.2-4.6c-.4.1-.9.1-1.4.1h-1.8v4.5h-3v-18.8h4.8c5.2 0 8 2.9 8 7.2.2 2.7-1.3 5.2-3.8 6.3l3.9 5.3zm-8.2-7c3.6 0 5.1-1.7 5.1-4.6 0-2.9-1.5-4.5-5.1-4.5h-1.7v9.1h1.7zm11.8 7h-3l8.2-19.2h.2l8.3 19.2h-3.1l-1.1-2.6h-8.4l-1.1 2.6zm5.3-12.7l-3.1 7.5h6.2l-3.1-7.5zm-23.5 10.1h-9.3v-3.2h8v-2.6h-8v-7.8h9.3v-2.6H89.2V156h12.2zm-56.6-3.2h8v-2.6h-8v-7.8h9.4v-2.6H41.8V156h12.4v-2.6h-9.4zM0 137.2h3v16.2h8.4v2.6H0z"/><path class="st1" d="M12.3 156h-3l8.3-19.2h.2L26 156h-3.1l-1.1-2.6h-8.4l-1.1 2.6zm5.3-12.7l-3.1 7.4h6.2l-3.1-7.4z"/></svg>