<?xml version="1.0" encoding="utf-8"?>
<!-- Generator: Adobe Illustrator 23.0.1, SVG Export Plug-In . SVG Version: 6.00 Build 0)  -->
<svg version="1.1" id="Layer_1" xmlns="http://www.w3.org/2000/svg" xmlns:xlink="http://www.w3.org/1999/xlink" x="0px" y="0px"
	 viewBox="0 0 524.5 71.3" style="enable-background:new 0 0 524.5 71.3;" xml:space="preserve">
<style type="text/css">
	.st0{fill:#FFFFFF;}
</style>
<g>
	<path class="st0" d="M380,28.9c-2.2-1.8-3.5-4.2-3.5-7.3c0-2.8,0.9-5.1,2.7-7.1c1.8-2,4.6-3.1,8.6-3.1c4,0,7,1.1,8.9,3.1
		c1.9,2,2.9,4.3,2.9,6.7c0,2.9-1,5.2-3,7.2c-2,2-4.9,2.9-8.5,2.9C385,31.4,382.3,30.7,380,28.9z M378,60.1c-2.2-2.5-3.3-5.4-3.3-8.8
		c0-3.9,1.2-7,3.7-9.2c2.4-2.3,5.7-3.3,9.6-3.3c4,0,7.3,1.1,9.9,3.3c2.6,2.2,3.9,5.3,3.9,9.5c0,4.1-1.2,7.2-3.8,9.2
		c-2.5,2-5.6,3.1-9.4,3.1C383.8,63.8,380.3,62.6,378,60.1z M368.5,41c-1.9,2.8-2.8,6.2-2.8,10.1c0,6.6,2.2,11.5,6.6,15
		c4.4,3.5,9.7,5.2,16.1,5.2c7,0,12.5-2,16.4-6c3.9-4,5.8-8.9,5.8-14.6c0-4.8-1.5-8.8-4.3-11.8c-1.5-1.6-3.6-3.1-6.4-4.3
		c2.6-1.3,4.2-2.7,5.4-4.2c2-2.5,3.1-5.7,3.1-9.9c0-4.4-1.7-8.2-5.3-11.5c-3.6-3.4-8.5-5-14.7-5c-6.5,0-11.5,1.7-15,5.2
		c-3.6,3.5-5.3,7.6-5.3,12.5c0,3.9,1.1,7.1,3.5,9.5c1.3,1.3,3.1,2.5,5.3,3.4C373.2,36.1,370.5,38.3,368.5,41z"/>
	<path class="st0" d="M423.9,36.5c-2-2.5-3-5.9-3-10.1c0-4.5,1.2-8.1,3.5-10.8c2.4-2.7,5.6-4,9.5-4c3.8,0,6.8,1.2,9.2,3.6
		c2.4,2.3,3.6,5.9,3.6,10.7c0,5.4-1.3,9.1-4,11.3c-2.7,2.2-5.7,3.2-9,3.2C429.3,40.2,426,39,423.9,36.5z M418.1,66.2
		c3.3,3.4,8.1,5.1,14.5,5.1c9.6,0,16.3-5.2,20.3-15.3c2.4-6.2,3.6-13.3,3.6-21.3c0-7.1-1-13-3.1-17.7c-3.7-8.7-10.2-12.9-19.6-12.9
		c-7.1,0-12.4,2.2-16,6.7c-3.6,4.5-5.5,9.7-5.5,15.6c0,6.2,1.8,11.2,5.5,15.1c3.6,3.9,8.6,6,14.9,6c3.1,0,6-0.6,8.7-1.8
		c2.7-1.1,4.9-3.1,6.8-6.1c-1.2,10-3.2,16.6-5.9,19.9c-2.8,3.1-6.1,4.9-10,4.9c-2.1,0-3.9-0.5-5.6-1.4c-3.3-1.7-4.9-4.7-5.2-9.3
		h-8.3C413.1,58.7,414.7,62.9,418.1,66.2z"/>
	<path class="st0" d="M463.3,69.4v-10h9.4v10H463.3z"/>
	<path class="st0" d="M479,5.3h45.4v7.1c-2.2,2-4.9,5.6-8.4,10.7c-3.6,5-6.6,10.4-9.3,16.2c-2.6,5.7-4.6,10.9-6,15.6
		c-0.8,3-2,7.8-3.3,14.5h-9.1c2-12.4,6.6-24.8,13.7-37.2c4.2-7.2,8.5-13.4,13.1-18.7H479V5.3z"/>
	<path class="st0" d="M30.4,0c16.9,0,26.3,1.6,33.7,6.1c9.3,5.7,14.6,15.8,14.6,27.6c0,14.5-8,26.3-21.4,31.8
		c-6.4,2.6-16.4,4.2-26.9,4.2H0V0H30.4z M11.8,63H31c10.2,0,18.7-1.9,24-5.6c7.1-5,10.9-13.1,10.9-23.4c0-11.2-4.7-19.8-13.2-24.1
		C47.5,7.2,43.3,6.6,31,6.6H11.8V63z"/>
	<path class="st0" d="M93.4,0v41.5c0,6.4,0.2,7.6,0.7,10.1c2.5,8.2,11.4,12.8,25.1,12.8c10.4,0,19.1-3.3,22.8-8.4
		c1.6-2.3,2.6-5.7,2.8-9.4v-5.2V0h11.7v41.3c0,6.6-0.1,8.9-1,11.9C152,64.8,139.5,71,119.2,71c-16.8,0-28.8-4.4-34.1-12.4
		c-1.9-2.9-3.1-7.2-3.1-11.5c-0.2-1.7-0.2-3.6-0.2-5.9V0H93.4z"/>
	<path class="st0" d="M243,69.7h-11.3l-57-56.6v56.6h-11.4V0h11.4l57,56.6V0H243V69.7z"/>
	<path class="st0" d="M330.3,69.7h-12.5l-12.2-22.5h-39.6l-11.6,22.5h-12.6L280.5,0h10.8L330.3,69.7z M285.5,10.3l-15.8,30.1h32
		L285.5,10.3z"/>
	<g>
		<path class="st0" d="M309.5,14.3h-1.2V0.5h6.7v1.6h-5.4v4.3h4.8V8h-4.8V14.3z"/>
		<path class="st0" d="M326.3,14.3V6.1c0-0.4,0-2.1,0-3.4l0,0l-2.6,11.6h-1.4l-2.6-11.6h-0.1c0,1.3,0.1,3,0.1,3.4v8.2h-1.3V0.5h1.9
			l2.7,11.6h0.1l2.8-11.6h1.8v13.8H326.3z"/>
	</g>
</g>
</svg>
