<svg xmlns="http://www.w3.org/2000/svg" viewBox="0 0 724.4 141.4"><path d="M44.2 30.1v83.1c0 7.2-1.9 13.1-5.6 17.8-4 5.2-9.5 7.7-16.6 7.7-6.2.1-12.2-2.5-16.3-7.2-3.9-3.9-5.7-10.1-5.7-18.3V30.1c0-9.3 1.8-16 5.7-20.2 4.1-4.7 10-7.4 16.3-7.2 6.3-.2 12.3 2.4 16.4 7.1 3.9 4.2 5.8 11 5.8 20.3zM123.7 0c16.3 0 31.2 5.4 45 16.4 10.7 8.7 16.1 17.6 16.1 26.8 0 7.9-3.2 13.9-9.8 18.2-3.6 2.4-7.8 3.7-12.2 3.7-3.6 0-7.1-.9-10.3-2.5-1.3-.7-4.7-4-10.2-9.9-4.8-5.4-11.7-8.4-18.9-8.2-6.9-.1-13.6 2.6-18.5 7.6s-7.5 11.7-7.3 18.6c-.2 6.9 2.5 13.6 7.3 18.5s11.5 7.7 18.4 7.6c6.1 0 11.6-2.1 16.8-6.1 3.2-3 6.4-6.1 9.5-9.2 3.4-3 7.7-4.4 13-4.4 5.8 0 11.5 2.2 15.6 6.3 4.3 4 6.7 9.6 6.6 15.4 0 8.1-4.8 16.5-14.4 24.8-13.5 11.7-29 17.7-46.8 17.7-10.7 0-21.2-2.4-30.9-7-12-5.7-22.2-14.7-29.2-26-7.2-11.1-11-24.1-10.9-37.3 0-20.3 7.5-37.6 22.5-51.8C88.5 6.6 104.6.2 123.7 0zm348.7 30.1v83.1c0 7.2-1.9 13.2-5.6 17.8-4 5.2-9.5 7.7-16.5 7.7-6.3.1-12.2-2.5-16.4-7.2-3.7-3.9-5.7-10.1-5.7-18.3V30.1c0-9.3 1.9-16 5.6-20.2C442.4.8 456.7.4 465.7 9l.9.9c3.9 4.1 5.8 10.9 5.8 20.2zM510 44.8h-11.6c-6.5 0-11.8-1.8-16.2-5.3-4.5-3.8-6.7-8.9-6.7-15.2 0-3.9 1.1-7.7 3.2-11 1.9-3.2 4.8-5.8 8.2-7.3 3.4-1.5 11.4-2.3 24-2.3h44.6c10.9 0 18 .7 21.2 2 3.6 1.5 6.6 4 8.6 7.4 2.2 3.3 3.4 7.1 3.4 11 0 6.1-2.5 11.3-7.3 15.9-3.5 3.2-9.1 4.8-16.9 4.8h-10.1v66.7c0 7.4-1.3 13-3.8 16.9-4.2 6.8-10.2 10.1-18.2 10.1s-14-3.2-18.1-9.3c-2.7-3.7-4.1-9.4-4.1-17.3l-.2-67.1zm-199.5 61.3l-42.4-90C264 7.1 257 2.7 247.4 2.7s-16.2 4.3-20.3 13l-41.9 89.2c-1.8 3.7-2.8 7.7-2.8 11.8 0 4.5 1.3 8.8 3.8 12.5 4 6.1 10.9 9.7 18.1 9.5 6.2.1 12.2-2.6 16.2-7.3 2.2-2.4 4.4-6.1 6.5-11.1h41c2.9 6.1 5.6 10.4 8.5 13 3.9 3.6 9 5.5 14.2 5.4 6.6.1 12.9-2.8 17.1-8 3.4-3.8 5.2-8.8 5.1-13.9 0-3.8-.8-7.4-2.4-10.7zm-63.8-27.8h-13.2l6.6-14.3 6.6-14.3 6.6 14.3 6.6 14.3h-13.2zM414 102.7L403.6 86c9.6-10.7 14.4-22.1 14.4-34.3 0-6.6-1.4-13.2-4-19.2-3.6-8.5-9.7-15.7-17.4-20.7-7.6-5.3-16.6-8.2-25.9-8.1h-28c-18.3 0-27.4 8.5-27.4 25.5v82.5c0 7.8 1.8 14 5.3 18.9 4 5.4 9.7 8.2 17.2 8.2 5.9.2 11.5-2.2 15.5-6.5 4.1-4.2 6.3-9.9 6.2-15.8V98.2l18.4 30.2c4.2 6.9 10.2 10.3 18.1 10.3 5.9.1 11.6-2.1 15.8-6.2 4.2-4 6.6-9.6 6.4-15.4 0-5.2-1.5-10.1-4.2-14.4zm-32.7-50.2c0 5.4-6.2 9.8-13.7 9.8h-17.8v-23h17.8c7.5 0 13.7 4.4 13.7 9.9v3.3zM717 39.3a70.11 70.11 0 00-25.9-28.6C679.9 3.5 666.8-.2 653.5 0c-13.4 0-26.6 3.8-37.9 11-11.5 7.2-20.6 17.6-26.1 30-4.2 8.9-6.4 18.6-6.5 28.4-.1 11.4 2.5 22.6 7.4 32.8 5.8 11.7 14.7 21.6 25.9 28.5 11 7 23.8 10.7 36.9 10.7 13.1.1 26-3.5 37.2-10.3 10.4-6.3 19-15.3 24.8-25.9 11.6-20.3 12.3-45.1 1.8-65.9zm-48.7 46.3c-8.3 8.1-21.6 8-29.7-.3-3.8-3.9-6-9.1-6-14.5-.1-5.6 2.2-10.9 6.3-14.7 8.1-8.1 21.3-8.1 29.4 0 4.1 3.8 6.3 9.1 6.2 14.7.2 5.6-2.1 11-6.2 14.8z" fill="#af252c"/></svg>