<?xml version="1.0" encoding="utf-8"?>
<!-- Generator: Adobe Illustrator 23.0.1, SVG Export Plug-In . SVG Version: 6.00 Build 0)  -->
<svg version="1.1" id="Layer_1" xmlns="http://www.w3.org/2000/svg" xmlns:xlink="http://www.w3.org/1999/xlink" x="0px" y="0px"
	 viewBox="0 0 868.9 173.5" style="enable-background:new 0 0 868.9 173.5;" xml:space="preserve">
<style type="text/css">
	.st0{fill:#1D1D1B;}
	.st1{fill:#B2292E;}
	.st2{fill:#FFFFFF;}
</style>
<title>Logo_EdicionesEspeciales_color_RGB</title>
<path class="st0" d="M191,1.6h62.3v18.2h-41.1v11.7h37.2v16.9h-37.2v12.3h41.6V79H191V1.6z"/>
<path class="st0" d="M262,1.6h29.9c27.6,0,43.7,15.9,43.7,38.3v0.2c0,22.3-16.3,38.9-44.1,38.9H262V1.6z M292.2,60
	c12.8,0,21.4-7.1,21.4-19.6v-0.2c0-12.4-8.5-19.6-21.4-19.6h-8.8V60H292.2z"/>
<path class="st0" d="M344.3,1.6h21.6V79h-21.6V1.6z"/>
<path class="st0" d="M374.5,40.5v-0.2c0-22.6,17.4-40.3,40.8-40.3c15.8,0,26,6.6,32.9,16.2l-16.2,12.5c-4.4-5.5-9.5-9.1-16.9-9.1
	c-10.9,0-18.5,9.2-18.5,20.5v0.2c0,11.6,7.6,20.7,18.5,20.7c8.1,0,12.8-3.8,17.5-9.4l16.2,11.5c-7.3,10.1-17.2,17.5-34.3,17.5
	C392.3,80.5,374.5,63.7,374.5,40.5z"/>
<path class="st0" d="M455.6,1.6h21.6V79h-21.6V1.6z"/>
<path class="st0" d="M485.8,40.5v-0.2C485.8,18,503.8,0,527.7,0s41.6,17.8,41.6,40.1v0.2c0,22.2-17.9,40.3-41.8,40.3
	S485.8,62.7,485.8,40.5z M547.4,40.5v-0.2c0-11.2-8.1-20.9-19.9-20.9s-19.6,9.5-19.6,20.7v0.2c0,11.2,8.1,20.9,19.8,20.9
	S547.3,51.7,547.4,40.5L547.4,40.5z"/>
<path class="st0" d="M577.7,1.6h20l31.9,40.9V1.6h21.2V79H632l-33.1-42.5V79h-21.2V1.6z"/>
<path class="st0" d="M661.8,1.6h62.3v18.2h-41v11.7h37.2v16.9H683v12.3h41.6V79h-62.8V1.6z"/>
<path class="st0" d="M726.9,67.5l11.9-14.3c7.6,6.1,16.2,9.3,25.1,9.3c5.8,0,8.9-2,8.9-5.3V57c0-3.2-2.5-5-13.1-7.4
	c-16.5-3.8-29.2-8.4-29.2-24.3V25c0-14.4,11.4-24.8,30-24.8c13.2,0,23.5,3.5,31.9,10.3l-10.8,15.1c-7.1-5-14.8-7.6-21.7-7.6
	c-5.2,0-7.7,2.2-7.7,5v0.2c0,3.5,2.7,5.1,13.4,7.5c17.8,3.9,28.9,9.6,28.9,24.1v0.2c0,15.8-12.5,25.2-31.3,25.2
	C749.5,80.3,736.4,76,726.9,67.5z"/>
<path class="st0" d="M191,94.6h62.3v18.2h-41.1v11.7h37.2v16.9h-37.2v12.3h41.6V172H191V94.6z"/>
<path class="st0" d="M256.1,160.5l11.9-14.3c7.6,6.1,16.1,9.3,25.1,9.3c5.8,0,8.9-2,8.9-5.3V150c0-3.2-2.5-5-13-7.4
	c-16.5-3.8-29.2-8.4-29.2-24.3V118c0-14.4,11.4-24.8,30-24.8c13.1,0,23.4,3.5,31.9,10.3l-10.7,15.2c-7.1-5-14.8-7.6-21.7-7.6
	c-5.2,0-7.7,2.2-7.7,5v0.2c0,3.5,2.7,5.1,13.4,7.5c17.8,3.9,28.9,9.6,28.9,24.1v0.2c0,15.8-12.5,25.2-31.3,25.2
	C278.7,173.3,265.7,169,256.1,160.5z"/>
<path class="st0" d="M331.4,94.6h33.2c19.6,0,32.2,10.1,32.2,27.2v0.2c0,18.2-14,27.9-33.3,27.9h-10.6V172h-21.5V94.6z M363.1,133
	c7.6,0,12.3-4,12.3-10.1v-0.2c0-6.6-4.6-10.2-12.4-10.2h-10.1V133H363.1z"/>
<path class="st0" d="M403.1,94.6h62.3v18.2h-41v11.7h37.2v16.9h-37.2v12.3h41.6V172h-62.9V94.6z"/>
<path class="st0" d="M471.5,133.5v-0.2c0-22.6,17.4-40.3,40.8-40.3c15.8,0,26,6.6,32.9,16.1L529,121.7c-4.4-5.5-9.5-9.1-16.9-9.1
	c-10.8,0-18.5,9.2-18.5,20.5v0.2c0,11.6,7.6,20.7,18.5,20.7c8.1,0,12.8-3.8,17.5-9.4l16.2,11.5c-7.3,10.1-17.1,17.5-34.3,17.5
	C489.3,173.5,471.5,156.7,471.5,133.5z"/>
<path class="st0" d="M552.5,94.6h21.6V172h-21.6V94.6z"/>
<path class="st0" d="M612.3,94H633l33,78h-23l-5.6-13.8h-29.9l-5.5,13.8h-22.6L612.3,94z M631.1,141.4l-8.6-22l-8.8,22H631.1z"/>
<path class="st0" d="M670.7,94.6h21.5v58.6h37.5V172h-59L670.7,94.6z"/>
<path class="st0" d="M736.1,94.6h62.3v18.2h-41v11.7h37.2v16.9h-37.2v12.3h41.6V172h-62.9V94.6z"/>
<path class="st0" d="M801.3,160.5l11.9-14.3c7.7,6.1,16.2,9.3,25.1,9.3c5.8,0,8.9-2,8.9-5.3V150c0-3.2-2.5-5-13.1-7.4
	c-16.5-3.8-29.2-8.4-29.2-24.3V118c0-14.4,11.4-24.8,30-24.8c13.2,0,23.5,3.5,31.9,10.3l-10.7,15.2c-7.1-5-14.8-7.6-21.7-7.6
	c-5.2,0-7.7,2.2-7.7,5v0.2c0,3.5,2.7,5.1,13.4,7.5c17.8,3.9,28.9,9.6,28.9,24.1v0.2c0,15.8-12.5,25.2-31.3,25.2
	C823.8,173.3,810.8,169,801.3,160.5z"/>
<rect y="1.6" class="st1" width="146.7" height="140.8"/>
<polygon class="st2" points="17.6,27.4 31.7,27.4 31.7,104.7 72.1,104.7 72.1,117.2 17.6,117.2 "/>
<polygon class="st2" points="88.3,39.9 61.6,39.9 61.6,27.4 129.1,27.4 129.1,39.9 102.4,39.9 102.4,117.2 88.3,117.2 "/>
<polygon class="st1" points="34.6,153.9 28.5,153.9 28.5,151 44,151 44,153.9 37.9,153.9 37.9,171.7 34.6,171.7 "/>
<path class="st1" d="M75.8,171.7h-3.9l-3.5-5c-0.5,0.1-1,0.1-1.5,0.1h-2.1v4.9h-3.2V151h5.3c5.7,0,8.8,3.1,8.8,7.9
	c0.2,2.9-1.5,5.7-4.1,6.9L75.8,171.7z M66.8,164c4,0,5.6-1.9,5.6-5s-1.6-5-5.6-5h-1.9V164L66.8,164z"/>
<path class="st1" d="M77.1,161.4c-0.1-5.7,4.4-10.5,10.2-10.6c0.1,0,0.3,0,0.4,0c3.3-0.2,6.4,1.3,8.3,4l-2.5,1.8
	c-1.3-1.9-3.6-3-5.9-2.8c-4.1,0-7.1,3.3-7.1,7.7s3.1,7.7,7.2,7.7c2.4,0.1,4.8-1,6.2-3l2.5,1.7c-2,2.8-5.4,4.4-8.9,4.2
	c-5.7,0.1-10.4-4.4-10.5-10.1C77.1,161.7,77.1,161.5,77.1,161.4"/>
<path class="st1" d="M127.7,171.7h-3.9l-3.5-5c-0.5,0.1-1,0.1-1.5,0.1h-2v4.9h-3.3V151h5.3c5.7,0,8.8,3.1,8.8,7.9
	c0.2,2.9-1.5,5.7-4.1,6.9L127.7,171.7z M118.7,164c4,0,5.6-1.9,5.6-5s-1.6-5-5.6-5h-1.9V164L118.7,164z"/>
<path class="st1" d="M131.6,171.7h-3.3l9.1-21.1h0.2l9.1,21.1h-3.4l-1.2-2.9h-9.2L131.6,171.7z M137.5,157.7l-3.4,8.2h6.8
	L137.5,157.7z"/>
<polygon class="st1" points="111.6,168.8 101.4,168.8 101.4,165.3 110.2,165.3 110.2,162.5 101.4,162.5 101.4,153.9 111.6,153.9 
	111.6,151 98.1,151 98.1,171.7 111.6,171.7 "/>
<polygon class="st1" points="49.3,165.3 58.1,165.3 58.1,162.5 49.3,162.5 49.3,153.9 59.6,153.9 59.6,151 46,151 46,171.7 
	59.6,171.7 59.6,168.8 49.3,168.8 "/>
<polygon class="st1" points="0,151 3.2,151 3.2,168.8 12.6,168.8 12.6,171.7 0,171.7 "/>
<path class="st1" d="M13.5,171.7h-3.3l9.1-21.1h0.2l9.1,21.1h-3.4l-1.2-2.9h-9.2L13.5,171.7z M19.4,157.7l-3.4,8.2h6.8L19.4,157.7z"
	/>
</svg>
