<?xml version="1.0" encoding="utf-8"?>
<!-- Generator: Adobe Illustrator 23.0.1, SVG Export Plug-In . SVG Version: 6.00 Build 0)  -->
<svg version="1.1" id="Layer_1" xmlns="http://www.w3.org/2000/svg" xmlns:xlink="http://www.w3.org/1999/xlink" x="0px" y="0px"
	 viewBox="0 0 119.2 138.5" style="enable-background:new 0 0 119.2 138.5;" xml:space="preserve">
<style type="text/css">
	.st0{fill:#B2292E;}
	.st1{fill:#FFFFFF;}
</style>
<title>Logo_LaTercera_corto_01</title>
<rect class="st0" width="119.2" height="114.4"/>
<polygon class="st1" points="14.3,21 25.8,21 25.8,83.8 58.6,83.8 58.6,94 14.3,94 "/>
<polygon class="st1" points="71.7,31.2 50.1,31.2 50.1,21 104.9,21 104.9,31.2 83.2,31.2 83.2,94 71.7,94 "/>
<polygon class="st0" points="28.1,123.8 23.1,123.8 23.1,121.5 35.8,121.5 35.8,123.8 30.8,123.8 30.8,138.3 28.1,138.3 "/>
<path class="st0" d="M61.6,138.2h-3.2l-2.8-4.1c-0.4,0.1-0.8,0.1-1.2,0.1h-1.7v4h-2.6v-16.8h4.3c4.6,0,7.2,2.6,7.2,6.4
	c0.1,2.4-1.2,4.6-3.4,5.6L61.6,138.2z M54.3,132c3.2,0,4.5-1.5,4.5-4.1s-1.3-4.1-4.5-4.1h-1.6v8.2H54.3z"/>
<path class="st0" d="M62.6,129.9c-0.1-4.7,3.6-8.5,8.2-8.6c0.1,0,0.2,0,0.3,0c2.7-0.1,5.2,1.1,6.7,3.3l-2,1.4
	c-1.1-1.5-2.9-2.4-4.8-2.3c-3.3,0-5.8,2.7-5.8,6.2s2.5,6.2,5.8,6.2c2,0.1,3.8-0.9,5-2.4l2,1.4c-1.7,2.3-4.4,3.6-7.2,3.4
	c-4.6,0.1-8.4-3.6-8.5-8.3C62.5,130.1,62.5,130,62.6,129.9"/>
<path class="st0" d="M103.8,138.2h-3.2l-2.9-4.1c-0.4,0.1-0.8,0.1-1.1,0.1h-1.7v4h-2.6v-16.8h4.3c4.6,0,7.2,2.6,7.2,6.4
	c0.1,2.4-1.2,4.6-3.4,5.6L103.8,138.2z M96.5,132c3.2,0,4.6-1.5,4.6-4.1s-1.3-4.1-4.6-4.1h-1.5v8.2H96.5z"/>
<path class="st0" d="M107,138.2h-2.7l7.4-17.1h0.1l7.4,17.1h-2.8l-1-2.4h-7.5L107,138.2z M111.7,126.9l-2.8,6.6h5.5L111.7,126.9z"/>
<polygon class="st0" points="90.7,135.9 82.4,135.9 82.4,133.1 89.5,133.1 89.5,130.8 82.4,130.8 82.4,123.8 90.7,123.8 90.7,121.5 
	79.7,121.5 79.7,138.3 90.7,138.3 "/>
<polygon class="st0" points="40.1,133.1 47.2,133.1 47.2,130.8 40.1,130.8 40.1,123.8 48.4,123.8 48.4,121.5 37.4,121.5 37.4,138.3 
	48.5,138.3 48.5,135.9 40.1,135.9 "/>
<polygon class="st0" points="0,121.5 2.6,121.5 2.6,135.9 10.2,135.9 10.2,138.3 0,138.3 "/>
<path class="st0" d="M11,138.2H8.3l7.4-17.1h0.2l7.4,17.1h-2.8l-1-2.3H12L11,138.2z M15.8,126.9l-2.8,6.6h5.5L15.8,126.9z"/>
</svg>
