<?xml version="1.0" encoding="utf-8"?>
<!-- Generator: Adobe Illustrator 23.0.1, SVG Export Plug-In . SVG Version: 6.00 Build 0)  -->
<svg version="1.1" id="Layer_1" xmlns="http://www.w3.org/2000/svg" xmlns:xlink="http://www.w3.org/1999/xlink" x="0px" y="0px"
	 viewBox="0 0 1057.3 172.6" style="enable-background:new 0 0 1057.3 172.6;" xml:space="preserve">
<style type="text/css">
	.st0{clip-path:url(#SVGID_2_);}
	.st1{clip-path:url(#SVGID_4_);fill:#002C42;}
	.st2{clip-path:url(#SVGID_6_);}
	.st3{clip-path:url(#SVGID_8_);fill:#002C42;}
	.st4{clip-path:url(#SVGID_10_);fill:#002C42;}
	.st5{clip-path:url(#SVGID_12_);fill:#002C42;}
	.st6{clip-path:url(#SVGID_14_);fill:#002C42;}
	.st7{clip-path:url(#SVGID_16_);fill:#002C42;}
	.st8{clip-path:url(#SVGID_18_);fill:#002C42;}
	.st9{clip-path:url(#SVGID_20_);fill:#002C42;}
	.st10{opacity:0.5;clip-path:url(#SVGID_22_);}
	.st11{clip-path:url(#SVGID_24_);fill:#002C42;}
	.st12{opacity:0.5;clip-path:url(#SVGID_26_);}
	.st13{clip-path:url(#SVGID_28_);fill:#002C42;}
	.st14{opacity:0.5;clip-path:url(#SVGID_30_);}
	.st15{clip-path:url(#SVGID_32_);fill:#002C42;}
	.st16{clip-path:url(#SVGID_34_);fill:#002C42;}
	.st17{clip-path:url(#SVGID_36_);fill:#002C42;}
	.st18{clip-path:url(#SVGID_38_);fill:#002C42;}
</style>
<title>Logo_MtMotores_black_RGB</title>
<g id="La_Tercera_PM_1_">
	<g>
		<g>
			<g>
				<defs>
					<rect id="SVGID_1_" y="0" width="1057.2" height="172.6"/>
				</defs>
				<clipPath id="SVGID_2_">
					<use xlink:href="#SVGID_1_"  style="overflow:visible;"/>
				</clipPath>
				<g class="st0">
					<g>
						<g>
							<defs>
								<rect id="SVGID_3_" y="0" width="1057.2" height="172.6"/>
							</defs>
							<clipPath id="SVGID_4_">
								<use xlink:href="#SVGID_3_"  style="overflow:visible;"/>
							</clipPath>
							<polygon class="st1" points="133,51.7 161.7,51.7 161.7,134.8 176.9,134.8 176.9,51.7 205.6,51.7 205.6,38.2 133,38.2 
															"/>
						</g>
					</g>
					<g>
						<g>
							<defs>
								<rect id="SVGID_5_" y="0" width="1057.2" height="172.6"/>
							</defs>
							<clipPath id="SVGID_6_">
								<use xlink:href="#SVGID_5_"  style="overflow:visible;"/>
							</clipPath>
							<g class="st2">
								<g>
									<g>
										<defs>
											<rect id="SVGID_7_" y="0" width="1057.2" height="172.6"/>
										</defs>
										<clipPath id="SVGID_8_">
											<use xlink:href="#SVGID_7_"  style="overflow:visible;"/>
										</clipPath>
										<path class="st3" d="M353.7,75.1c0-22.3-14.6-36.9-41.2-36.9h-24.7v96.6H303v-23h9.5c2.4,0,4.8-0.1,6.9-0.5l16.5,23.5H354
											l-19.6-27.4C347.1,101.6,353.7,90.1,353.7,75.1 M312,98.7h-9v-47h9c18.4,0,26.1,8.8,26.1,23.4
											C338.1,89.9,330.6,98.7,312,98.7"/>
									</g>
								</g>
								<g>
									<g>
										<defs>
											<rect id="SVGID_9_" y="0" width="1057.2" height="172.6"/>
										</defs>
										<clipPath id="SVGID_10_">
											<use xlink:href="#SVGID_9_"  style="overflow:visible;"/>
										</clipPath>
										<path class="st4" d="M409.4,122.3c-19.4,0-33.7-14.9-33.7-35.8c0-20.5,13.9-35.8,33.1-35.8c12.8,0,21,4.6,27.4,13.2
											l11.7-8.2C439.5,43.9,427.2,37,409.2,37c-27.6,0-49.3,21-49.3,49.6c0,28.5,21.3,49.6,48.9,49.6c18.7,0,31.4-6.5,41.4-19.7
											l-11.8-8.1C431.2,117.6,421.9,122.3,409.4,122.3"/>
									</g>
								</g>
								<g>
									<g>
										<defs>
											<rect id="SVGID_11_" y="0" width="1057.2" height="172.6"/>
										</defs>
										<clipPath id="SVGID_12_">
											<use xlink:href="#SVGID_11_"  style="overflow:visible;"/>
										</clipPath>
										<path class="st5" d="M596.4,75.1c0-22.3-14.7-36.9-41.2-36.9h-24.7v96.6h15.3v-23h9.5c2.4,0,4.8-0.1,6.9-0.5l16.5,23.5
											h18.1L577,107.4C589.7,101.6,596.4,90.1,596.4,75.1 M554.6,98.7h-8.9v-47h8.9c18.4,0,26.2,8.8,26.2,23.4
											C580.7,89.9,573.2,98.7,554.6,98.7"/>
									</g>
								</g>
								<g>
									<g>
										<defs>
											<rect id="SVGID_13_" y="0" width="1057.2" height="172.6"/>
										</defs>
										<clipPath id="SVGID_14_">
											<use xlink:href="#SVGID_13_"  style="overflow:visible;"/>
										</clipPath>
										<path class="st6" d="M642.9,36.2H642l-42.3,98.6H615l5.6-13.5h43.2l5.6,13.5h16L642.9,36.2z M626.3,107.8l16.1-38.2
											l15.8,38.2H626.3z"/>
									</g>
								</g>
								<g>
									<g>
										<defs>
											<rect id="SVGID_15_" y="0" width="1057.2" height="172.6"/>
										</defs>
										<clipPath id="SVGID_16_">
											<use xlink:href="#SVGID_15_"  style="overflow:visible;"/>
										</clipPath>
										<polygon class="st7" points="458.4,134.8 521.3,134.8 521.3,121.3 473.6,121.3 473.6,105 514.7,105 514.7,91.8 
											473.6,91.8 473.6,51.7 521.3,51.7 521.3,38.2 458.4,38.2 										"/>
									</g>
								</g>
								<g>
									<g>
										<defs>
											<rect id="SVGID_17_" y="0" width="1057.2" height="172.6"/>
										</defs>
										<clipPath id="SVGID_18_">
											<use xlink:href="#SVGID_17_"  style="overflow:visible;"/>
										</clipPath>
										<polygon class="st8" points="230.3,105 271.3,105 271.3,91.8 230.3,91.8 230.3,51.7 278.5,51.7 278.5,38.2 215.1,38.2 
											215.1,134.8 278.6,134.8 278.6,121.3 230.3,121.3 										"/>
									</g>
								</g>
								<g>
									<g>
										<defs>
											<rect id="SVGID_19_" y="0" width="1057.2" height="172.6"/>
										</defs>
										<clipPath id="SVGID_20_">
											<use xlink:href="#SVGID_19_"  style="overflow:visible;"/>
										</clipPath>
										<path class="st9" d="M90.3,36.3l-36.5,85.1H15.2V38.3H0v96.6h63.3l5.5-13.5H112l5.5,13.5h16.1L91.2,36.3H90.3z
											 M74.5,107.8l16-38.2l15.8,38.2H74.5z"/>
									</g>
								</g>
								<g>
									<g>
										<defs>
											<rect id="SVGID_21_" y="0" width="1057.2" height="172.6"/>
										</defs>
										<clipPath id="SVGID_22_">
											<use xlink:href="#SVGID_21_"  style="overflow:visible;"/>
										</clipPath>
										<g class="st10">
											<g>
												<g>
													<g>
														<defs>
															<rect id="SVGID_23_" x="891.4" y="38.2" width="65.5" height="96.3"/>
														</defs>
														<clipPath id="SVGID_24_">
															<use xlink:href="#SVGID_23_"  style="overflow:visible;"/>
														</clipPath>
														<path class="st11" d="M891.4,38.2h24.2c26.6,0,41.3,14.3,41.3,36.7c0,22.2-14.9,36.7-41.3,36.7h-9.2v22.9h-15V38.2z
															 M915,98.3c19,0,26.6-8.9,26.6-23.5s-7.8-23.5-26.6-23.5h-8.6v47H915z"/>
													</g>
												</g>
											</g>
										</g>
									</g>
								</g>
								<g>
									<g>
										<defs>
											<rect id="SVGID_25_" y="0" width="1057.2" height="172.6"/>
										</defs>
										<clipPath id="SVGID_26_">
											<use xlink:href="#SVGID_25_"  style="overflow:visible;"/>
										</clipPath>
										<g class="st12">
											<g>
												<g>
													<g>
														<defs>
															<rect id="SVGID_27_" x="962.5" y="37.7" width="94.7" height="97.3"/>
														</defs>
														<clipPath id="SVGID_28_">
															<use xlink:href="#SVGID_27_"  style="overflow:visible;"/>
														</clipPath>
														<path class="st13" d="M962.5,37.7h1.6l46,53.8l45.6-53.8h1.6V135H1043V85c0-5.4,0.6-13.9,0.6-13.9s-4.7,7.2-8.6,11.6
															l-24.2,29.2h-1.7l-24.2-29.2c-3.7-4.4-8.5-11.6-8.5-11.6S977,79.6,977,85v50h-14.3V37.7H962.5z"/>
													</g>
												</g>
											</g>
										</g>
									</g>
								</g>
								<g>
									<g>
										<defs>
											<rect id="SVGID_29_" y="0" width="1057.2" height="172.6"/>
										</defs>
										<clipPath id="SVGID_30_">
											<use xlink:href="#SVGID_29_"  style="overflow:visible;"/>
										</clipPath>
										<g class="st14">
											<g>
												<g>
													<g>
														<defs>
															<rect id="SVGID_31_" x="702.1" y="0" width="172.6" height="172.6"/>
														</defs>
														<clipPath id="SVGID_32_">
															<use xlink:href="#SVGID_31_"  style="overflow:visible;"/>
														</clipPath>
														<path class="st15" d="M788.4,172.6c-47.6,0-86.3-38.7-86.3-86.3S740.8,0,788.4,0s86.3,38.7,86.3,86.3
															S836,172.6,788.4,172.6 M788.4,9.9c-42.1,0-76.4,34.3-76.4,76.4s34.3,76.5,76.4,76.5c42.2,0,76.5-34.3,76.5-76.5
															C864.8,44.1,830.5,9.9,788.4,9.9"/>
													</g>
												</g>
												<g>
													<g>
														<defs>
															<rect id="SVGID_33_" x="702.1" y="0" width="172.6" height="172.6"/>
														</defs>
														<clipPath id="SVGID_34_">
															<use xlink:href="#SVGID_33_"  style="overflow:visible;"/>
														</clipPath>
														<path class="st16" d="M788.4,172.6c-47.6,0-86.3-38.7-86.3-86.3S740.8,0,788.4,0s86.3,38.7,86.3,86.3
															S836,172.6,788.4,172.6 M788.4,9.9c-42.2,0-76.5,34.3-76.5,76.5s34.3,76.4,76.5,76.4s76.5-34.3,76.5-76.4
															S830.5,9.9,788.4,9.9"/>
													</g>
												</g>
												<g>
													<g>
														<defs>
															<rect id="SVGID_35_" x="702.1" y="0" width="172.6" height="172.6"/>
														</defs>
														<clipPath id="SVGID_36_">
															<use xlink:href="#SVGID_35_"  style="overflow:visible;"/>
														</clipPath>
														<path class="st17" d="M793.3,80.2c0,2.2-1.8,4-4,4s-4-1.8-4-4V30.6c0-2.2,1.8-4,4-4s4,1.8,4,4V80.2z"/>
													</g>
												</g>
												<g>
													<g>
														<defs>
															<rect id="SVGID_37_" x="702.1" y="0" width="172.6" height="172.6"/>
														</defs>
														<clipPath id="SVGID_38_">
															<use xlink:href="#SVGID_37_"  style="overflow:visible;"/>
														</clipPath>
														<path class="st18" d="M813.2,50.9c1.2-1.2,3.4-0.9,5,0.7s1.9,3.8,0.7,5l-26.6,26.6c-1.2,1.2-3.5,0.9-5-0.7
															c-1.6-1.6-1.9-3.8-0.7-5L813.2,50.9z"/>
													</g>
												</g>
											</g>
										</g>
									</g>
								</g>
							</g>
						</g>
					</g>
				</g>
			</g>
		</g>
	</g>
</g>
</svg>
