<?xml version="1.0" encoding="utf-8"?>
<!-- Generator: Adobe Illustrator 23.0.1, SVG Export Plug-In . SVG Version: 6.00 Build 0)  -->
<svg version="1.1" id="Layer_1" xmlns="http://www.w3.org/2000/svg" xmlns:xlink="http://www.w3.org/1999/xlink" x="0px" y="0px"
	 viewBox="0 0 706.4 108.4" style="enable-background:new 0 0 706.4 108.4;" xml:space="preserve">
<title>Logo_Tendencias_black_RGB</title>
<path d="M0,38.4v68.2h71V38.4H0z M34.9,94.4H8.5V50.9h6.8v37.4h19.6L34.9,94.4z M62.5,57H49.6v37.4h-6.8V57H29.8v-6.1h32.7V57z"/>
<path d="M82.8,81V3.3h21.5v35.1h17.4v17.9h-17.4v25.3c0,6.9,2.2,8.3,5.6,8.3c3.5,0,6.1-1.9,7.5-2.9l8.2,15.1
	c-3.4,2.7-9.1,6.2-19,6.2C92.7,108.4,82.8,101.5,82.8,81z"/>
<path d="M161.1,90.1c6.1,0,12.1-1.9,17.1-5.5l12.4,13.3c-6.6,5.8-14.9,10.1-29.1,10.1c-24.3,0.1-40-14.6-40.1-35.6
	c0-20.6,16.4-35.4,37.6-35.4c24.5,0,37.8,18.2,36.2,42l-51.7,0.1C145.5,86.2,151.3,90.2,161.1,90.1z M173.3,66.6
	c-1-7.5-5.8-12-14.3-12s-14.2,3.9-16,12H173.3z"/>
<path d="M384.6,90.1c6.1,0,12.1-1.9,17.1-5.5L414,97.9c-6.6,5.8-14.9,10.1-29.1,10.1c-24.3,0.1-40-14.6-40.1-35.6
	c0-20.6,16.4-35.4,37.5-35.4c24.5,0,37.8,18.2,36.2,42l-51.7,0.1C369,86.2,374.8,90.2,384.6,90.1z M396.8,66.6
	c-1-7.5-5.8-12-14.3-12s-14.2,3.9-16,12H396.8z"/>
<path d="M197.8,38.4h21.6l-0.5,11.2c4.2-8.2,12.2-12.6,21.6-12.6c14.9,0,25.6,10.9,25.6,30.2v39.4h-21.6V68.7c0-7.7-3.7-12-11.4-12
	c-8.6,0-13.8,4.8-13.8,13.4v36.5h-21.6V38.4z"/>
<path d="M268.4,72.3c0-21,14.1-35.4,30.6-35.4c10.9,0,17,4.3,21.3,11V3.3h21.6v103.3h-21.6l0.5-9.9c-3.8,7.2-11,11.4-21.4,11.4
	C282.6,108,268.4,93.3,268.4,72.3z M320.9,72.3c0-10.1-6.1-16.3-15.4-16.3c-9.1,0-14.9,6.2-14.9,16.3c0,10.7,5.8,16.8,14.9,16.8
	C314.8,89.2,320.9,83.1,320.9,72.3L320.9,72.3z"/>
<path d="M420.9,38.4h21.6L442,49.6c4.2-8.2,12.2-12.6,21.6-12.6c14.9,0,25.6,10.9,25.6,30.2v39.4h-21.6V68.7c0-7.7-3.7-12-11.4-12
	c-8.6,0-13.8,4.8-13.8,13.4v36.5h-21.6V38.4z"/>
<path d="M491.4,72.3c0-20.7,16-35.4,37.3-35.4c13.6,0,21.8,5,28.7,13.6l-15.4,12.5c-3-4.5-7.9-7.2-13.3-7.2
	c-9.8,0-15.2,6.9-15.2,16.5c0,9.9,5.5,17,15.2,17c6.9,0,10.6-3.2,13.8-6.4L557,95.7c-6.7,7.5-14.7,12.3-28.3,12.3
	C507.4,108,491.4,93.3,491.4,72.3z"/>
<path d="M556,13.4C556,6,562.1,0,569.5,0c0.1,0,0.2,0,0.2,0c7.5-0.2,13.7,5.7,13.9,13.2c0.2,7.5-5.7,13.7-13.2,13.9
	c-0.2,0-0.5,0-0.7,0c-7.5,0.1-13.6-5.8-13.8-13.3C556,13.7,556,13.6,556,13.4z M558.9,38.4h21.6v68.2h-21.6L558.9,38.4z"/>
<path d="M615.1,54.7c-8.2,0-12.5,3.5-15.5,6.2l-12-12.8c6.4-6.2,13.6-11.2,29.6-11.2c17.4,0,30.7,9.4,30.7,30.9v38.7h-21.4l0.5-9.4
	c-5.1,7.8-11,10.9-20.2,10.9c-12.5,0-24-5.6-24-21.4c0-14.6,11-20.5,27.8-20.5h15.8C626.1,58.3,622.3,54.7,615.1,54.7z M611.7,78.9
	c-5.4,0-7.8,2.4-7.8,6.2c0,3.8,3.2,6.1,9.3,6.1c8.8,0,13.3-3.8,13.3-9.6v-2.7L611.7,78.9z"/>
<path d="M647.4,95.1L660,83.9c4.5,4.5,10.6,7.1,17,7.2c7,0,9.3-1.3,9.3-4.2c0-3.7-4.3-3.7-15.4-6.6c-9.3-2.4-19.7-7.5-19.7-21.8
	c0-15.4,11.8-21.6,26.4-21.6c11.2,0,19.2,3.7,24.8,9.4l-11.6,12.3c-3.7-3.2-8.3-5-13.1-5.1c-5,0-7.4,1.3-7.4,4
	c0,3.8,4.3,4.3,13.6,6.4c9.9,2.2,22.4,6.9,22.4,21.3c0,12.5-6.6,22.7-28,22.7C662.6,108,653.3,102.1,647.4,95.1z"/>
</svg>
