<svg xmlns="http://www.w3.org/2000/svg" viewBox="0 0 524.2 147.1"><path d="M0 39.8h22.4l-.5 11.6c4.3-8.5 12.6-13.1 22.4-13.1 15.4 0 26.5 11.3 26.5 31.3v40.7H48.4V71.1c0-7.9-3.8-12.4-11.8-12.4-8.9 0-14.2 5-14.2 13.9v37.8H0V39.8zm113.9 53.5c6.3 0 12.5-2 17.7-5.6l12.8 13.8c-6.8 6-15.4 10.4-30.1 10.4-25.2 0-41.4-15.2-41.4-36.9 0-21.4 17.1-36.6 38.9-36.6 25.3 0 39.1 18.9 37.4 43.5H95.7c2.2 7.2 8.1 11.4 18.2 11.4zm12.8-24.4c-1-7.8-6-12.4-14.7-12.4s-14.7 4-16.6 12.4h31.3z"/><path d="M219.8 39.6v15.9h-10.5c1.7 2.6 2.5 5.6 2.5 8.6 0 15.1-11.6 26.2-29.6 26.2-5.6 0-10.4-.8-14.4-2.8-1.2 1.1-1.9 2.7-1.8 4.3 0 3.3 2.2 5.5 7.3 5.6l17.4.8c19.2 1 30.1 8.9 30.1 22.7 0 14.9-10.9 26.2-38.9 26.2-25.3 0-37.9-9.8-37.9-23.2 0-7.6 5-12.6 12.9-15.6-5.8-3.1-8.4-7.8-8.4-14.2 0-6.3 3.5-11.1 9.8-13.9-4-4.4-6.3-10.1-6.3-16.1 0-15.1 12.2-25.8 30.3-25.8 3.5 0 7 .4 10.4 1.3h27.1zm-54.2 81.5c0 5.6 4 9.3 16.2 9.3 13.1 0 16.1-3.5 16.1-7.8 0-4-2.6-5.3-11.8-5.8l-18.5-1.1c-1.3 1.4-2.1 3.4-2 5.4zm26.6-57c0-5.6-3.6-9.4-10.4-9.4s-10.4 3.8-10.4 9.4c0 6 3.6 9.9 10.4 9.9 6.8 0 10.4-3.9 10.4-9.9z"/><path d="M215.3 75.2c0-21.5 17-36.9 38.9-36.9S293 53.7 293 75.2c0 21.4-16.9 36.6-38.8 36.6s-38.9-15.2-38.9-36.6zm54.8 0c0-10.6-6-17.7-15.9-17.7s-16.1 7.1-16.1 17.7c0 10.4 6.1 17.7 16.1 17.7s15.9-7.2 15.9-17.7zm23-.3c0-21.4 16.6-36.6 38.6-36.6 14.1 0 22.5 5.1 29.6 14.1l-15.9 12.9c-3.1-4.6-8.2-7.4-13.8-7.4-10.1 0-15.7 7.1-15.7 17 0 10.3 5.6 17.5 15.7 17.5 7.1 0 10.9-3.3 14.2-6.6L361 99c-7 7.8-15.2 12.8-29.3 12.8-22.1 0-38.6-15.2-38.6-36.9zm66.9-61c0-7.7 6.4-14 14.1-13.9h.2c7.7 0 14 6.3 14 14s-6.3 14-14 14c-7.7.1-14.1-6-14.2-13.8-.1-.1-.1-.2-.1-.3zm3 25.8h22.4v70.5H363V39.7zm25.8 35.5c0-21.5 17.1-36.9 38.9-36.9s38.8 15.4 38.8 36.9c0 21.4-16.9 36.6-38.8 36.6s-38.9-15.2-38.9-36.6zm54.8 0c0-10.6-6-17.7-15.9-17.7s-16.1 7.1-16.1 17.7c0 10.4 6.1 17.7 16.1 17.7s15.9-7.2 15.9-17.7z"/><path d="M463.1 98.4l13.1-11.6c4.7 4.7 11 7.4 17.6 7.4 7.3 0 9.6-1.3 9.6-4.3 0-3.8-4.5-3.8-15.9-6.8-9.6-2.5-20.4-7.8-20.4-22.5 0-15.9 12.2-22.3 27.3-22.3 11.6 0 19.9 3.8 25.7 9.8l-11.9 12.8c-3.8-3.3-8.6-5.1-13.6-5.3-5.1 0-7.6 1.3-7.6 4.1 0 4 4.5 4.5 14.1 6.6 10.3 2.3 23.2 7.1 23.2 22 0 12.9-6.8 23.5-29 23.5-16.4 0-26-6.1-32.2-13.4z"/></svg>