<?xml version="1.0" encoding="utf-8"?>
<!-- Generator: Adobe Illustrator 23.0.1, SVG Export Plug-In . SVG Version: 6.00 Build 0)  -->
<svg version="1.1" id="Layer_1" xmlns="http://www.w3.org/2000/svg" xmlns:xlink="http://www.w3.org/1999/xlink" x="0px" y="0px"
	 viewBox="0 0 545.5 160.5" style="enable-background:new 0 0 545.5 160.5;" xml:space="preserve">
<style type="text/css">
	.st0{fill:#1C1C1B;}
	.st1{fill:#B2292E;}
	.st2{fill:#FFFFFF;}
</style>
<title>Logo_Pulso_color_RGB</title>
<path class="st0" d="M216.3,8.6l-60.5,0.2v9.3l68.3-0.2C222.3,14.2,219.6,11,216.3,8.6"/>
<path class="st0" d="M221.7,87.7L156,87.8l0.1,9.4l52.1-0.1C213.5,95.4,218.3,92.1,221.7,87.7"/>
<polygon class="st0" points="156,67.6 181.6,67.5 181.6,58.1 156,58.2 "/>
<path class="st0" d="M226.3,77.8L156,78v9.4l66.1-0.2C224.1,84.3,225.5,81.2,226.3,77.8"/>
<path class="st0" d="M227.5,68.3v-0.4h-25.7v0.3c0,6.3-3,9-8.8,9h-11.3V68H156l0.1,9.3l70.4-0.2c0.7-3,1-6,1-9"/>
<path class="st0" d="M181.8,99.3H193c4.5,0,9-0.5,13.3-1.6l-50.2,0.1v9.4h25.7L181.8,99.3"/>
<polygon class="st0" points="155.9,57.7 181.6,57.6 181.6,48.2 155.9,48.3 "/>
<polygon class="st0" points="156.2,117 181.8,117 181.8,107.6 156.1,107.6 "/>
<polygon class="st0" points="156.2,156.6 181.9,156.5 181.9,147.2 156.2,147.2 "/>
<polygon class="st0" points="156.2,159.2 181.9,159.2 181.9,157 156.2,157 "/>
<polygon class="st0" points="156.2,146.7 181.9,146.6 181.8,137.2 156.2,137.3 "/>
<polygon class="st0" points="156.2,126.8 181.8,126.8 181.8,117.5 156.2,117.6 "/>
<polygon class="st0" points="156.2,136.8 181.8,136.7 181.8,127.3 156.2,127.4 "/>
<polygon class="st0" points="201.7,47.7 227.4,47.5 227.4,38.2 201.7,38.2 "/>
<path class="st0" d="M181.6,24.2h11.2c3.6,0,6.2,1.3,7.7,3.7l26.5-0.2c-0.4-3.2-1.3-6.3-2.6-9.2l-68.6,0.1l0.1,9.4l25.7-0.2V24.2"/>
<path class="st0" d="M227.4,33.1c-0.1-1.6-0.2-3.2-0.4-4.8l-26.4,0c0.7,1.5,1.1,3.2,1.1,4.8v4.6h25.6L227.4,33.1"/>
<polygon class="st0" points="201.7,67.4 227.5,67.4 227.4,58 201.7,58.1 "/>
<polygon class="st0" points="201.7,57.5 227.3,57.5 227.3,48 201.7,48.1 "/>
<polygon class="st0" points="155.9,37.9 181.6,37.8 181.6,28.5 155.9,28.5 "/>
<polygon class="st0" points="155.9,47.8 181.6,47.7 181.5,38.3 155.9,38.4 "/>
<path class="st0" d="M192.6,2.2l-36.9,0.1v5.8L215.4,8C209.9,4.3,202.4,2.2,192.6,2.2"/>
<polygon class="st0" points="237.3,8 263,7.9 263,2 237.3,2.1 "/>
<polygon class="st0" points="283.7,17.6 309.4,17.7 309.4,8.3 283.7,8.3 "/>
<polygon class="st0" points="237.3,17.9 263,17.8 263,8.4 237.3,8.4 "/>
<path class="st0" d="M309.8,127h-25.7l0,1.6c0,3.9-1.6,6.5-4.4,7.9l29.3-0.1c0.6-2.6,0.8-5.2,0.8-7.8V127"/>
<polygon class="st0" points="284,116.6 309.7,116.5 309.7,107.1 284,107.2 "/>
<polygon class="st0" points="283.9,77.1 309.6,77 309.6,67.6 283.9,67.7 "/>
<polygon class="st0" points="283.9,86.9 309.6,86.9 309.6,77.5 283.9,77.6 "/>
<polygon class="st0" points="283.9,96.8 309.7,96.8 309.6,87.4 283.9,87.5 "/>
<polygon class="st0" points="284,106.7 309.7,106.7 309.7,97.3 283.9,97.3 "/>
<polygon class="st0" points="237.5,87.1 263.2,87 263.1,77.7 237.5,77.7 "/>
<polygon class="st0" points="237.6,106.9 263.2,106.8 263.2,97.4 237.5,97.5 "/>
<polygon class="st0" points="284.1,126.5 309.8,126.5 309.7,117.1 284,117.1 "/>
<polygon class="st0" points="237.5,96.9 263.2,96.9 263.2,87.5 237.5,87.7 "/>
<polygon class="st0" points="237.4,47.5 263.1,47.4 263,38.1 237.3,38.2 "/>
<path class="st0" d="M263.3,128.7v-1.6h-25.7v1.6c0,2.6,0.3,5.3,0.9,7.9l29.3-0.1C264.9,135.1,263.3,132.6,263.3,128.7"/>
<polygon class="st0" points="283.8,57.2 309.5,57.2 309.5,47.9 283.8,48 "/>
<polygon class="st0" points="237.6,116.8 263.2,116.7 263.2,107.3 237.6,107.4 "/>
<polygon class="st0" points="283.9,67.2 309.6,67.1 309.5,57.7 283.8,57.8 "/>
<path class="st0" d="M273.8,137.6c-1.6,0-3.2-0.2-4.7-0.7h-30.5c0.7,3.4,2,6.6,3.9,9.5l62.4-0.3c1.9-2.8,3.2-6,3.9-9.3l-30.5,0.1"/>
<polygon class="st0" points="237.6,126.7 263.3,126.6 263.3,117.2 237.6,117.3 "/>
<polygon class="st0" points="237.4,57.5 263.1,57.4 263.1,48 237.4,48 "/>
<path class="st0" d="M304.6,146.7l-61.8,0.2c2.9,4,6.7,7.3,11.2,9.3l39.5-0.1C298,154.1,301.8,150.8,304.6,146.7"/>
<path class="st0" d="M273.9,160.3c6.4,0,12.7-1.2,18.6-3.6l-37.4,0.1C261,159.2,267.4,160.4,273.9,160.3"/>
<polygon class="st0" points="283.8,47.3 309.5,47.3 309.5,37.9 283.8,38 "/>
<polygon class="st0" points="237.3,27.8 263.1,27.7 263,18.4 237.3,18.4 "/>
<polygon class="st0" points="237.3,37.5 263.1,37.5 263.1,28.2 237.3,28.3 "/>
<polygon class="st0" points="283.8,27.7 309.5,27.6 309.4,18.2 283.7,18.2 "/>
<polygon class="st0" points="283.8,37.5 309.5,37.3 309.5,28 283.8,28.2 "/>
<polygon class="st0" points="237.4,67.4 263.1,67.2 263.1,57.9 237.4,57.9 "/>
<polygon class="st0" points="237.5,77.3 263.1,77.1 263.1,67.8 237.4,67.8 "/>
<polygon class="st0" points="283.7,7.8 309.4,7.8 309.4,1.9 283.7,2 "/>
<polygon class="st0" points="325.6,136.3 351.3,136.2 351.3,126.8 325.5,127 "/>
<polygon class="st0" points="325.5,96.8 351.2,96.8 351.1,87.3 325.4,87.3 "/>
<polygon class="st0" points="325.4,67 351.1,66.9 351.1,57.6 325.3,57.6 "/>
<polygon class="st0" points="351.3,136.9 351.3,136.7 325.6,136.8 325.6,146.2 385.7,146 385.6,136.8 "/>
<polygon class="st0" points="325.5,116.5 351.3,116.5 351.2,107 325.5,107.1 "/>
<polygon class="st0" points="325.4,86.8 351.1,86.7 351.1,77.3 325.4,77.4 "/>
<polygon class="st0" points="325.5,106.6 351.2,106.6 351.2,97.1 325.5,97.3 "/>
<polygon class="st0" points="325.4,76.9 351.1,76.9 351.1,67.5 325.4,67.6 "/>
<polygon class="st0" points="325.5,126.3 351.3,126.3 351.3,117 325.5,117 "/>
<polygon class="st0" points="325.7,158.7 385.8,158.5 385.7,156.4 325.6,156.6 "/>
<polygon class="st0" points="325.3,47.3 351,47.2 351,37.8 325.3,37.9 "/>
<polygon class="st0" points="325.3,57.1 351.1,57.1 351,47.7 325.3,47.8 "/>
<polygon class="st0" points="325.7,156.1 385.8,155.8 385.7,146.5 325.6,146.7 "/>
<polygon class="st0" points="325.2,27.5 351,27.4 351,18 325.2,18.2 "/>
<polygon class="st0" points="325.3,37.3 351,37.2 351,27.9 325.2,28 "/>
<polygon class="st0" points="325.2,17.5 351,17.5 351,8.1 325.2,8.2 "/>
<polygon class="st0" points="325.2,7.8 351,7.7 351,1.8 325.2,1.9 "/>
<path class="st0" d="M425.9,0.2c-11.1,0.1-19.4,2.7-25.3,7.3l49.8-0.2C444.7,2.9,436.4,0.2,425.9,0.2"/>
<path class="st0" d="M426.3,137.2c-1.6,0-3.2-0.2-4.8-0.6h-30.5c0.7,3.3,2,6.5,3.9,9.4l62.6-0.2c1.8-2.9,3.1-6,3.9-9.3h-30.6
	C429.4,136.9,427.9,137.2,426.3,137.2"/>
<path class="st0" d="M434,106.3h27.4c-0.5-3.2-1.4-6.4-2.7-9.4l-33.4,0.1C428.8,99.5,431.7,102.7,434,106.3"/>
<polygon class="st0" points="436.4,47 461.3,46.8 461.2,37.5 436.3,37.5 "/>
<path class="st0" d="M390.1,128.3c0,2.6,0.3,5.2,0.8,7.8l29.2-0.1c-2.9-1.3-4.8-3.8-4.8-7.7v-1.6l-25.2,0.1V128.3"/>
<path class="st0" d="M394.6,66.9l34.6-0.2c-3.6-2.6-6.9-5.7-9.6-9.3h-28C392.2,60.7,393.2,63.9,394.6,66.9"/>
<path class="st0" d="M424.7,96.5l33.8-0.1c-1.5-3.4-3.4-6.5-5.6-9.4l-40.7,0.1C416.6,90.4,421,93.4,424.7,96.5"/>
<path class="st0" d="M411.5,86.7l41-0.1c-2.8-3.5-6-6.6-9.5-9.4l-41.6,0.1C404.4,80.8,407.8,83.9,411.5,86.7"/>
<polygon class="st0" points="436.4,56.8 461.3,56.8 461.3,47.4 436.3,47.5 "/>
<path class="st0" d="M390.5,37.2h25.7v-6.4c0-1,0.2-2,0.6-3h-26.1c-0.1,1.1-0.1,2.1-0.1,3L390.5,37.2"/>
<path class="st0" d="M436.6,115.6v0.7l25.7-0.2v-1.4c0-2.7-0.3-5.4-0.7-8l-27.2,0.1C435.8,109.5,436.6,112.5,436.6,115.6"/>
<polygon class="st0" points="390.1,126.2 415.3,126.2 415.3,116.8 390.1,116.8 "/>
<polygon class="st0" points="436.5,126.1 462.2,126 462.2,116.6 436.5,116.7 "/>
<polygon class="st0" points="390.5,47 416.2,47 416.2,37.7 390.5,37.7 "/>
<path class="st0" d="M400.9,76.8l41.4-0.2c-4.2-3.3-8.6-6.3-12.5-9.2h-35C396.5,70.8,398.5,73.9,400.9,76.8"/>
<path class="st0" d="M457.3,146.3l-62.1,0.2c2.8,4,6.6,7.2,11.1,9.3l39.7-0.1C450.5,153.6,454.4,150.4,457.3,146.3"/>
<polygon class="st0" points="390.1,116.4 415.3,116.2 415.2,106.9 390.1,107 "/>
<path class="st0" d="M390.6,47.7c0,3.1,0.3,6.2,0.9,9.3l27.7-0.1c-1.9-2.8-2.9-6-3-9.3L390.6,47.7"/>
<path class="st0" d="M390.6,27.3h26.3c1.4-2.8,4.5-4.3,9-4.3c4.1-0.1,7.4,1.4,9.1,4.3h25.9c-0.4-3.2-1.2-6.4-2.5-9.4L392.8,18
	C391.6,21,390.8,24.1,390.6,27.3"/>
<path class="st0" d="M425.9,159.8c6.5,0.1,13-1.1,19.1-3.6l-37.7,0.1C413.2,158.7,419.5,159.9,425.9,159.8"/>
<path class="st0" d="M462.2,126.5l-25.6,0.1v2.7c0.1,2.9-1.6,5.5-4.2,6.6l29.2-0.1c0.5-2.3,0.8-4.6,0.7-7L462.2,126.5"/>
<polygon class="st0" points="390.1,106.4 415.2,106.4 415.2,102.4 390.1,102.6 "/>
<path class="st0" d="M436.3,31.8v5.2h25v-5.4c0-1.3-0.1-2.7-0.2-4h-25.7C436,29,436.3,30.4,436.3,31.8"/>
<path class="st0" d="M393,17.4l65.1-0.2c-1.6-3.6-4.1-6.8-7.2-9.4L400,8C397,10.6,394.6,13.8,393,17.4"/>
<path class="st0" d="M476.2,17.2L542,17c-1.7-3.7-4.3-6.9-7.4-9.4l-51,0.2C480.4,10.3,477.9,13.5,476.2,17.2"/>
<polygon class="st0" points="519.7,106 545.4,105.9 545.4,96.6 519.7,96.8 "/>
<polygon class="st0" points="519.8,116 545.4,115.9 545.4,106.5 519.7,106.6 "/>
<polygon class="st0" points="519.6,86.3 545.4,86.2 545.3,76.8 519.6,76.9 "/>
<polygon class="st0" points="519.7,96.2 545.4,96.1 545.4,86.7 519.6,86.8 "/>
<polygon class="st0" points="519.6,76.3 545.3,76.3 545.3,66.9 519.6,67 "/>
<polygon class="st0" points="519.8,125.9 545.5,125.8 545.5,116.4 519.8,116.5 "/>
<polygon class="st0" points="473.1,56.7 498.9,56.6 498.8,47.3 473.1,47.3 "/>
<path class="st0" d="M519.8,127.9c0.1,3.3-1.8,6.4-4.8,7.9l29.7-0.1c0.5-2.6,0.8-5.2,0.8-7.9v-1.6l-25.7,0.1L519.8,127.9"/>
<polygon class="st0" points="473.3,116.1 499,116 499,106.6 473.2,106.7 "/>
<polygon class="st0" points="473.3,126 499,125.9 499,116.5 473.3,116.6 "/>
<polygon class="st0" points="473.3,106.3 499,106.2 498.9,96.8 473.3,96.8 "/>
<path class="st0" d="M489.7,155.6l39.5-0.1c4.5-2.1,8.4-5.3,11.2-9.4l-61.8,0.2C481.4,150.3,485.3,153.5,489.7,155.6"/>
<polygon class="st0" points="519.6,66.5 545.3,66.4 545.2,57 519.6,57.1 "/>
<path class="st0" d="M509.3,136.9c-1.4,0-2.8-0.2-4.2-0.7l-30.8,0.1c0.8,3.3,2.1,6.5,4,9.4l62.4-0.1c1.9-2.9,3.2-6,3.9-9.4
	l-30.9,0.1C512.3,136.7,510.8,136.9,509.3,136.9"/>
<path class="st0" d="M473.4,27l26.6-0.1c1.7-2.7,4.9-4.3,9-4.4c4.3,0,7.6,1.6,9.3,4.3h26.6c-0.4-3.2-1.3-6.4-2.6-9.4l-66.3,0.2
	C474.6,20.7,473.8,23.8,473.4,27"/>
<polygon class="st0" points="473.2,96.4 498.9,96.3 498.9,86.9 473.2,87 "/>
<path class="st0" d="M519.5,31.5l0.1,5.3l25.6-0.1v-5.2c0-1.4-0.1-2.7-0.3-4.1l-26.4,0.1C519.2,28.8,519.5,30.1,519.5,31.5"/>
<polygon class="st0" points="473.2,76.5 498.9,76.5 498.9,67.1 473.1,67.2 "/>
<polygon class="st0" points="473.1,66.6 498.9,66.5 498.9,57.1 473.1,57.2 "/>
<polygon class="st0" points="519.6,46.7 545.3,46.6 545.2,37.2 519.6,37.3 "/>
<path class="st0" d="M473.1,37l25.7-0.1v-5.2c0-1.4,0.3-2.8,0.9-4.1l-26.4,0.1c-0.1,1.4-0.2,2.7-0.2,4.1L473.1,37"/>
<polygon class="st0" points="519.6,56.6 545.2,56.5 545.3,47.1 519.6,47.3 "/>
<path class="st0" d="M473.4,128.1c0,2.6,0.3,5.2,0.8,7.8h29.7c-3-1.4-4.9-4.5-4.8-7.8v-1.6h-25.7L473.4,128.1"/>
<polygon class="st0" points="473.2,86.4 498.9,86.3 498.9,76.9 473.2,77 "/>
<polygon class="st0" points="473.1,46.8 498.8,46.8 498.8,37.3 473.1,37.5 "/>
<path class="st0" d="M509.4,159.6c6.4,0.1,12.8-1.1,18.8-3.6l-37.3,0.1C495.9,158.4,502.1,159.6,509.4,159.6"/>
<path class="st0" d="M508.9,0c-10.5,0-18.8,2.7-24.7,7.3l49.7-0.1C527.9,2.6,519.6,0,508.9,0"/>
<rect y="3.2" class="st1" width="135.4" height="130"/>
<polygon class="st2" points="16.2,27.1 29.2,27.1 29.2,98.4 66.5,98.4 66.5,110 16.2,110 "/>
<polygon class="st2" points="81.5,38.7 56.9,38.7 56.9,27.1 119.1,27.1 119.1,38.7 94.5,38.7 94.5,110 81.5,110 "/>
<polygon class="st1" points="31.9,143.8 26.3,143.8 26.3,141.2 40.6,141.2 40.6,143.8 34.9,143.8 34.9,160.3 31.9,160.3 "/>
<path class="st1" d="M69.9,160.3h-3.6l-3.3-4.6c-0.5,0.1-0.9,0.1-1.4,0.1h-1.9v4.6h-3v-19.1h4.9c5.2,0,8.1,2.9,8.1,7.3
	c0.2,2.7-1.4,5.2-3.8,6.4L69.9,160.3z M61.6,153.1c3.7,0,5.1-1.7,5.1-4.6s-1.5-4.6-5.1-4.6h-1.8v9.3H61.6z"/>
<path class="st1" d="M71.1,150.7c-0.1-5.3,4.1-9.7,9.4-9.8c0.1,0,0.2,0,0.4,0c3-0.2,5.9,1.2,7.6,3.7l-2.3,1.6
	c-1.2-1.8-3.3-2.7-5.4-2.6c-3.8,0-6.5,3-6.5,7.1s2.8,7.1,6.6,7.1c2.3,0.1,4.4-1,5.7-2.8l2.3,1.6c-1.9,2.6-5,4.1-8.2,3.9
	c-5.2,0.1-9.6-4.1-9.7-9.3C71.1,151,71.1,150.9,71.1,150.7"/>
<path class="st1" d="M117.8,160.3h-3.6l-3.3-4.6c-0.5,0.1-0.9,0.1-1.4,0.1h-1.9v4.6h-3v-19.1h4.9c5.2,0,8.1,2.9,8.1,7.3
	c0.2,2.7-1.4,5.2-3.8,6.4L117.8,160.3z M109.6,153.1c3.7,0,5.2-1.7,5.2-4.6s-1.5-4.6-5.2-4.6h-1.8v9.3H109.6z"/>
<path class="st1" d="M121.5,160.3h-3l8.4-19.5h0.2l8.4,19.5h-3.2l-1.1-2.7h-8.6L121.5,160.3z M126.9,147.4l-3.2,7.6h6.3L126.9,147.4
	z"/>
<polygon class="st1" points="103,157.6 93.5,157.6 93.5,154.4 101.7,154.4 101.7,151.8 93.5,151.8 93.5,143.8 103,143.8 103,141.2 
	90.5,141.2 90.5,160.3 103,160.3 "/>
<polygon class="st1" points="45.5,154.4 53.6,154.4 53.6,151.8 45.5,151.8 45.5,143.8 55,143.8 55,141.2 42.5,141.2 42.5,160.3 
	55,160.3 55,157.6 45.5,157.6 "/>
<polygon class="st1" points="0,141.2 3,141.2 3,157.6 11.6,157.6 11.6,160.3 0,160.3 "/>
<path class="st1" d="M12.5,160.3h-3l8.4-19.5H18l8.4,19.5h-3.2l-1.1-2.7h-8.6L12.5,160.3z M17.9,147.4l-3.2,7.6H21L17.9,147.4z"/>
</svg>
