<?xml version="1.0" encoding="utf-8"?>
<!-- Generator: Adobe Illustrator 23.0.1, SVG Export Plug-In . SVG Version: 6.00 Build 0)  -->
<svg version="1.1" id="Layer_1" xmlns="http://www.w3.org/2000/svg" xmlns:xlink="http://www.w3.org/1999/xlink" x="0px" y="0px"
	 viewBox="0 0 427.2 127.1" style="enable-background:new 0 0 427.2 127.1;" xml:space="preserve">
<style type="text/css">
	.st0{fill:#FFFFFF;}
</style>
<title>Logo_Finde_white_RGB</title>
<path class="st0" d="M99.2,70.9h-12V52h12V27.9C99.2,9.4,107.9,0,125.6,0c10.1,0,16.8,3,22.1,9.1l-12.3,15.2c-1.7-2-3.7-3.9-7.2-3.9
	c-3.7,0-6.2,2-6.2,7.2V52h19.4v18.8h-19.4v52.9H99.2V70.9z"/>
<path class="st0" d="M143.5,25.8c0-7.8,6.4-14.2,14.2-14.2c0.1,0,0.2,0,0.2,0c7.9-0.2,14.4,6,14.6,13.8c0.2,7.9-6,14.4-13.8,14.6
	c-0.3,0-0.5,0-0.8,0c-7.9,0.1-14.3-6.1-14.5-14C143.5,26,143.5,25.9,143.5,25.8z M146.5,52h22.7v71.7h-22.7L146.5,52z"/>
<path class="st0" d="M173.6,52h22.7l-0.5,11.8c4.4-8.6,12.8-13.3,22.8-13.3c15.7,0,26.9,11.4,26.9,31.8v41.4h-22.7V83.9
	c0-8.1-3.9-12.6-12-12.6c-9.1,0-14.5,5-14.5,14.1v38.4h-22.8V52z"/>
<path class="st0" d="M247.3,89.5c0-22.1,14.8-37.2,32.2-37.2c11.5,0,17.9,4.5,22.4,11.6V4h22.7v121.5h-22.7l0.5-10.4
	c-4,7.6-11.6,12-22.6,12C262.3,127.1,247.3,111.6,247.3,89.5z M302.6,89.5c0-10.6-6.4-17.2-16.2-17.2c-9.6,0-15.6,6.6-15.6,17.2
	c0,11.3,6.1,17.7,15.6,17.7C296.2,107.2,302.6,100.8,302.6,89.5z"/>
<path class="st0" d="M367,108c6.5,0,12.8-2.1,18-5.8l13,13.9c-6.9,6.1-15.6,10.7-30.6,10.8c-25.6,0.2-42.2-15.2-42.3-37.3
	c-0.1-21.7,17.1-37.3,39.3-37.5c25.8-0.2,39.8,18.9,38.3,44l-54.4,0.4C350.6,103.9,356.7,108.1,367,108z M379.8,83.2
	c-1.1-7.9-6.1-12.6-15.1-12.5s-15,4.1-16.8,12.7L379.8,83.2z"/>
<path class="st0" d="M398.8,110.4c0-7.9,6.5-14.2,14.3-14.1s14.2,6.5,14.1,14.3c0,7.8-6.4,14.1-14.1,14.1c-7.7,0.2-14.1-6-14.3-13.7
	C398.7,110.8,398.7,110.6,398.8,110.4z"/>
<path class="st0" d="M0,52v71.7h75V52H0z M36.9,110.7H9.1V65.1h7.2v39.3h20.6V110.7z M65.9,71.4H52.3v39.3h-7.2V71.4H31.5v-6.4h34.3
	L65.9,71.4z"/>
</svg>
