<svg xmlns="http://www.w3.org/2000/svg" viewBox="0 0 578.2 160.5"><path d="M0 2.1v157.1h163.7V2.1H0zm80.5 129H19.6V31h15.8v86.2h45.1v13.9zM144 44.9h-29.8v86.2H98.5V45H68.8V31H144v13.9zM357.5 1.8V159h60.6v-21.6h-34.5V1.8zm-98.1 44.6c0 16.7 2 33.1-7 42.7-7.6 8.1-15.4 11.3-38.9 10.1V159h-25.7V1.9h37.1c13.7 0 25.9 4.3 31.4 16.3 3.2 7.2 3.1 17.9 3.1 28.2m-25.8-.4c0-6.7.4-12.1-.3-15.3-1.4-6.3-5.5-6.6-11.6-6.6h-8.1v53.2h10.5c4 .1 8.4-1 9.1-5.2.8-4.6.5-11.8.4-26.1m108-44h-25.7l.3 128.1s0 7.3-10.6 7.6c-11 .4-10.1-10.3-10.1-9V2h-26.1l.4 126s-2.3 31.7 34.5 32.5c5.9 0 35.5.1 37.5-29 .3-9.3-.2-129.6-.2-129.5m236.6 125.1c0 9.3-2.2 17.6-9.2 24-7.1 6.4-17.1 8.7-26.9 8.7-10.6 0-19.1-2.1-26.1-8s-10.1-14.3-10.1-24.2l-.2-95.5c0-9.3 3.2-18.3 10.4-24.4 7-5.6 16.2-7.8 26.6-7.8 9.5 0 18.7 2.6 25.9 8.8s9.2 15 9.2 22.5l.4 95.9zm-26-.3V32.4c0-2.3-.4-9.7-10.2-9.7-9.3 0-10.3 6.3-10.3 9.7v94.4c0 3.3.3 10.4 10.3 10.3 10-.1 10.2-6.8 10.2-10.3m-57.4-6.1c0 15.5-1.5 21.6-7.3 28.7-5.2 6.4-15.7 10.6-28.2 10.6-9.7 0-19.3-1.8-26.4-7.6-7.8-6.1-10.5-14.6-10.5-24.4v-25.5h25.3V120c.1 5.9-.7 10.3 1.3 13.2 2 2.9 4.6 4.4 10.1 4.1 4.7-.2 8-2.1 9.3-4.8 1.2-2.5.6-5.7.6-11 0-8.7.4-16-11.1-24.4s-19-13.2-26.4-22.6c-10.6-13.4-8.3-31.6-8.4-35.5-.5-14.6.4-20.6 5.9-27.4 6.2-8 17.3-11.5 29.8-11.5 11.1 0 20.5 3.1 27.1 9.9 6 6.3 7.9 14.5 7.9 24v22.8h-25c.3-1.8 0-9.8 0-15.5s.5-9.9-.5-12.6c-1.8-4.2-4.6-6.1-10.3-5.9-2.5-.1-5 .7-7 2.2-2.6 2.1-2.9 6-2.4 14.6.2 3.8-.3 7.5.4 10.8.9 4.7 3.5 8.8 8.9 13.3 8.5 7 19 13.1 26.2 21.7 10.2 12.3 10.7 22 10.7 35.3"/></svg>