<?xml version="1.0" encoding="utf-8"?>
<!-- Generator: Adobe Illustrator 23.0.1, SVG Export Plug-In . SVG Version: 6.00 Build 0)  -->
<svg version="1.1" id="Layer_1" xmlns="http://www.w3.org/2000/svg" xmlns:xlink="http://www.w3.org/1999/xlink" x="0px" y="0px"
	 viewBox="0 0 636.8 244.5" style="enable-background:new 0 0 636.8 244.5;" xml:space="preserve">
<style type="text/css">
	.st0{fill:#1D1D1B;}
	.st1{fill:#FFFFFF;}
</style>
<title>Logo_MercadoPaulaGourmet_black_RGB</title>
<path class="st0" d="M547.6,244.5H89.2c-38.5,0-69.9-33.3-69.9-74.2v-22.7c-1.5-10.8-8.5-19.9-18.6-24.2c-0.5-0.2-0.8-0.7-0.8-1.2
	c0-0.5,0.3-1,0.8-1.2c10-4.2,17.1-13.4,18.6-24.1V74.1C19.4,33.2,50.7,0,89.2,0h458.4c38.5,0,69.8,33.3,69.8,74.2v22.7
	c1.5,10.8,8.6,19.9,18.6,24.1c0.5,0.2,0.8,0.7,0.8,1.2c0,0.5-0.3,1-0.8,1.2c-10,4.2-17.1,13.4-18.6,24.2v22.7
	C617.4,211.2,586.1,244.5,547.6,244.5"/>
<path class="st1" d="M146.5,123.6l-3.8-73.5h-0.2c-1.1,7.8-3.5,19.7-5.5,27.8l-11.4,45.7h-18l-11-45.7c-1.9-8.1-4.3-20-5.4-27.8
	h-0.2l-4.3,73.5H72.2l6.9-86.5h21l12,48.8c2,8.3,3.6,16.8,4.8,25.3h0.2c1.1-7.1,2.8-16.4,5-25.3l11.7-48.8h20.7l6.7,86.5"/>
<polyline class="st1" points="175.7,123.6 175.7,37.2 220.7,37.2 220.7,49.4 190.8,49.4 190.8,72.9 217.6,72.9 217.6,85.4 
	190.8,85.4 190.8,111.3 220.7,111.3 220.7,123.6 "/>
<path class="st1" d="M257,76c10.2,0,13.4-3.6,13.4-14.2c0-10-4.2-12.4-11.6-12.4h-8.5V76 M274.9,123.6l-8-24.7
	c-2.4-7.6-5.6-11-11.3-11h-5.2v35.6h-15.1V37.2h24.4c18.2,0,26.6,8.7,26.6,23.9c0,12.5-6.6,20-16.2,21.8v0.2
	c6,3.4,9.5,8.1,12.6,16.7l8.6,23.8L274.9,123.6z"/>
<path class="st1" d="M348.7,121.7c-5.5,1.9-11.3,2.8-17.1,2.9c-20,0-32.6-13.5-32.6-44.3c0-30.4,12.6-44.1,32.6-44.1
	c5.8,0.1,11.6,1.1,17.1,2.9v10.3h-14.5c-13.6,0-19.4,9.3-19.4,30.9s6.1,30.9,19.4,30.9h14.5"/>
<path class="st1" d="M393,70.3c-1.5-5.8-3.6-14.2-5.1-20.9h-0.2c-1.5,6.7-3.6,15.2-5.1,20.8l-4.1,16.5h18.7 M406.8,123.6l-6.4-24.5
	h-25.1l-6.3,24.5h-15.3l24.7-86.5h19.9l24.4,86.5H406.8z"/>
<path class="st1" d="M457.6,111.3c8.4,0,18.1-3.6,18.1-30.9s-9.6-30.9-18.1-30.9h-10v61.8 M432.6,123.6V37.2h25.5
	c21.6,0,33.7,16.4,33.7,43.2s-12.1,43.3-33.7,43.3H432.6z"/>
<path class="st1" d="M551.1,80.2c0-25-5.4-31.9-16.3-31.9c-10.5,0-16.4,6.9-16.4,31.9c0,25.4,5.9,32.2,16.4,32.2
	C545.7,112.4,551.1,105.6,551.1,80.2 M502.5,80.2c0-34.8,15.9-44.4,32.3-44.4s32.3,9.6,32.3,44.4c0,32.8-13,44.8-32.3,44.8
	S502.5,113,502.5,80.2"/>
<path class="st1" d="M567.1,144.2H72.2c-0.7,0-1.3-0.6-1.3-1.3c0-0.7,0.6-1.3,1.3-1.3h494.9c0.7,0,1.3,0.6,1.3,1.3
	C568.4,143.6,567.8,144.2,567.1,144.2"/>
<path class="st1" d="M261.2,216.7h10.2v-11.1h-10.2V216.7z M242.3,202.1c0,5.2-5.5,7.5-9.9,7.5c-3.4,0-6-2-6-5.1
	c0-3.9,2.9-4.9,6.4-5.6l5.1-1.1c1.5-0.3,3-0.8,4.4-1.4L242.3,202.1z M251.6,188.3c0-11.6-8.3-13.4-16.6-13.4
	c-8.5,0-16.4,3.7-16.4,13.3l9.3,0.4c0-4.4,1.8-6.1,7.2-6.1c4,0,7.3,1.1,7.3,5.2v1.2c-3.3,1-6.6,1.8-10,2.4l-3.9,0.8
	c-5.7,1.2-11.7,4.8-11.7,12.8s5.8,12.8,13.1,12.8c4.6,0,9.1-1.6,12.5-4.6c0,1.3,0.3,2.6,0.9,3.7h9.8c-0.5-0.9-1.5-2.7-1.5-6.9
	L251.6,188.3z M201,216.7h9.3v-57.5H201V216.7z M191.9,175.8h-9.3v22c0,4.9-2.1,10.3-9.1,10.3c-4.7,0-6.9-2.4-6.9-8.1v-24.3h-9.3
	v27.1c0,11.9,7.5,14.8,14.1,14.8c5.2,0,9-2.2,11-5h0.1v4h9.3L191.9,175.8z M139.4,202.1c0,5.2-5.6,7.5-9.9,7.5c-3.3,0-6-2-6-5.1
	c0-3.9,2.9-4.9,6.4-5.6l5.1-1.1c1.5-0.3,3-0.8,4.4-1.4L139.4,202.1z M148.7,188.3c0-11.6-8.3-13.4-16.6-13.4
	c-8.4,0-16.4,3.7-16.4,13.3l9.3,0.4c0-4.4,1.8-6.1,7.2-6.1c4,0,7.3,1.1,7.3,5.2v1.2c-3.3,1-6.7,1.8-10.1,2.4l-3.9,0.8
	c-5.7,1.2-11.7,4.8-11.7,12.8s5.8,12.8,13.1,12.8c4.6,0.1,9.1-1.6,12.6-4.6c0,1.3,0.3,2.6,0.9,3.7h9.9c-0.5-0.9-1.4-2.7-1.4-6.9
	L148.7,188.3z M80.6,168.3h9.7c5.9,0,9.9,2.4,9.9,10.3c0,5.6-3.1,9.7-9.5,9.7H80.6L80.6,168.3z M70.4,216.7h10.2v-19.4h12
	c10.7,0,18.3-7.4,18.3-18.7c0-11.1-6.2-19.4-18.9-19.4H70.4L70.4,216.7z"/>
<path class="st1" d="M326.4,216H319l-1.5-7.8c0,0-1.6,8.7-13.6,8.7c-14.5,0-23.4-9.7-23.2-28.2c0.2-16.8,9.7-25.9,23.6-25.9
	c16.7,0,20.6,13.5,20.6,13.5l-9.3,2.9c0,0-1.2-7.2-11.5-7.2c-11.9,0-13.1,11.9-13.1,17.6c0,4.6,1.1,9.8,3.2,12.8
	c4.7,6.5,14.9,6.5,19.3,2.4c3.2-3,3-9.1,3-9.1h-10.8l-0.1-9.4l20.7,0.1l0,1.8L326.4,216z"/>
<path class="st1" d="M369.2,196.8c0,8.5-3.3,19.7-18.8,20c-9.5,0.2-18.4-6.2-18.7-19.7c-0.4-14.7,10.6-20.4,18.1-20.4
	C362.3,176.7,369.2,185.7,369.2,196.8 M358.4,196.4c0-8.1-3.6-12.4-8.6-12.2c-4.7,0.2-7.5,4.8-7.5,11.1c0,6.5,2.4,12.8,7.6,12.8
	C355.7,208.2,358.4,204.5,358.4,196.4"/>
<path class="st1" d="M373.7,177.9h10.5l0.1,20.8c0,8.3,2.7,10.8,6.9,10.2c3.1-0.3,5.6-2.5,6.4-5.5c0.6-1.9,0.5-3.8,0.5-9v-16.6h10.3
	v38h-10v-5.4c0,0-2.6,6.1-11,6.1c-6.1,0-11.3-2.8-12.9-10.2c-0.6-3.9-0.8-7.9-0.7-11.9L373.7,177.9z"/>
<path class="st1" d="M432.1,186c-3,0.4-5.5,2.5-6.3,5.4c-0.6,1.9-0.5,2.9-0.5,8v16.5h-10.3v-38.2h10v5.6c0,0,2.6-6,10.9-6
	c4,0,5.7,1.1,5.7,1.1l-3.9,8.7C436.1,186.1,434.1,185.7,432.1,186"/>
<path class="st1" d="M502.9,215.8h-10.5l-0.2-20.8c0-8.3-2.1-11.2-6.5-10.6c-3.1,0.7-5.4,3.2-6.1,6.3c-0.3,1.7-0.2,3.4-0.2,8.6v16.6
	l-9.8-0.1l-0.1-20.8c0-8.2-2.7-10.7-6.5-10.2c-3.1,0.3-5.6,2.5-6.4,5.5c-0.6,1.9-0.5,3.8-0.5,9v16.6h-10.3v-38h10v5.4
	c0,0,2.6-6.1,11-6.1c4.8,0,9,1.7,11.4,6.1h0c0,0,2.6-6.1,11-6.1c6.2,0,11.3,2.8,12.9,10.2c0.6,3.9,0.8,7.9,0.7,11.9L502.9,215.8z"/>
<path class="st1" d="M533.4,200.3h-15.6c0.3,4.6,3.7,8,7.5,8c3.3,0.2,6.3-1.5,7.9-4.4l8.7,4.2c0,0-3.7,8.8-16.2,8.7
	c-7.7-0.1-12.9-3.4-16.1-9.2c-2.9-5.1-3.5-16,0.4-22.1c3.2-5.4,9-8.6,15.3-8.4c7.2,0,11.6,2.6,14.8,8.3c3.1,5.5,2.9,14.9,2.9,14.9
	L533.4,200.3z M532.8,192.8c-0.3-3.9-2.5-7.7-7.4-7.7c-4.4,0-7,3.6-7.5,7.7H532.8z"/>
<path class="st1" d="M560.9,203.9c0.6,4.6,7.3,2.5,7.3,2.5l1.5,9.6c-17.2,3.3-19.1-6.1-19.1-12.6c0-0.1,0-0.2,0-0.3V190l0.2-3.9
	l-5.5,0.2v-8.8l5.5,0.1l-0.1-5.5v-6.5l10.1-2.1v8.7l-0.2,5.5l4.3-0.1h4v8.8h-4.4l-3.9-0.2l0.2,4.9v7.1
	C560.8,200,560.9,201.9,560.9,203.9"/>
</svg>
