<svg version="1.1" id="Layer_1" xmlns="http://www.w3.org/2000/svg" x="0" y="0" viewBox="0 0 545.5 160.4" xml:space="preserve"><style>.st0{fill:#b2292e}.st1{fill:#fff}</style><path class="st0" d="M0 2.9h135.4v130H0z"/><path class="st1" d="M16.2 26.8h13v71.3h37.3v11.5H16.2zm65.3 11.5H56.8V26.8h62.3v11.5H94.5v71.3h-13z"/><path class="st0" d="M31.9 143.5h-5.6v-2.6h14.3v2.6h-5.7v16.4h-3zm38 16.4h-3.6l-3.2-4.6c-.5.1-.9.1-1.4.1h-1.9v4.6h-3v-19.1h4.9c5.2 0 8.1 2.9 8.1 7.3.2 2.7-1.4 5.2-3.8 6.4l3.9 5.3zm-8.3-7.1c3.7 0 5.1-1.7 5.1-4.7 0-2.9-1.5-4.6-5.1-4.6h-1.8v9.3h1.8zm9.5-2.4c-.1-5.3 4.1-9.7 9.4-9.8h.4c3-.2 5.9 1.2 7.6 3.7l-2.3 1.6c-1.2-1.8-3.3-2.8-5.4-2.6-3.8 0-6.5 3-6.5 7.1s2.8 7.1 6.6 7.1c2.3.1 4.4-1 5.8-2.8l2.3 1.6c-1.9 2.6-5 4.1-8.2 3.9-5.3.1-9.6-4.1-9.7-9.4v-.4m46.7 9.5h-3.6l-3.3-4.6c-.5.1-.9.1-1.4.1h-1.9v4.6h-3v-19.1h4.9c5.2 0 8.1 2.9 8.1 7.3.2 2.7-1.4 5.2-3.8 6.4l4 5.3zm-8.3-7.1c3.7 0 5.2-1.7 5.2-4.7 0-2.9-1.5-4.6-5.2-4.6h-1.8v9.3h1.8zm12 7.1h-3l8.4-19.5h.2l8.4 19.5h-3.2l-1.1-2.7h-8.5l-1.2 2.7zm5.4-12.9l-3.2 7.6h6.3l-3.1-7.6zM103 157.3h-9.5V154h8.1v-2.6h-8.1v-7.9h9.5v-2.6H90.5v19H103zM45.5 154h8.1v-2.6h-8.1v-7.9H55v-2.6H42.5v19H55v-2.6h-9.5zM0 140.9h3v16.4h8.6v2.7H0z"/><path class="st0" d="M12.5 160h-3l8.4-19.5h.1l8.4 19.5h-3.2l-1.1-2.7h-8.6l-1 2.7zm5.4-12.9l-3.2 7.5H21l-3.1-7.5z"/><path class="st1" d="M324.8 1.8v157.1h60.7v-21.5h-34.6V1.8zm-98 44.6c0 16.7 2 33.1-7 42.7-7.5 8.1-15.4 11.3-38.9 10.1V159h-25.7V1.8h37.1c13.7 0 25.9 4.3 31.4 16.3 3.2 7.2 3.1 18 3.1 28.3M201 46c0-6.7.4-12.1-.3-15.3-1.4-6.3-5.5-6.6-11.6-6.6H181v53.2h10.5c4 .1 8.4-1 9.1-5.2.8-4.6.4-11.9.4-26.1M308.9 2h-25.7l.3 128.1s.1 7.3-10.6 7.6c-11 .4-10.2-10.3-10.2-8.9V2h-26.1l.4 126s-2.2 31.7 34.5 32.5c5.9 0 35.5.1 37.5-29 .4-9.4-.1-129.6-.1-129.5m236.6 125c0 9.3-2.2 17.6-9.2 24-7.1 6.4-17.1 8.7-26.9 8.7-10.6 0-19.1-2.1-26.1-8s-10.1-14.3-10.1-24.2L473 32c0-9.3 3.2-18.3 10.4-24.4 7-5.6 16.2-7.8 26.6-7.8 9.5 0 18.7 2.6 25.9 8.8s9.3 15 9.3 22.5l.3 95.9zm-25.9-.2V32.3c0-2.3-.4-9.7-10.2-9.7-9.3 0-10.3 6.3-10.3 9.7v94.4c0 3.3.3 10.4 10.3 10.3 9.9 0 10.2-6.8 10.2-10.2m-57.5-6.1c0 15.6-1.5 21.6-7.3 28.7-5.2 6.4-15.7 10.6-28.2 10.6-9.7 0-19.3-1.8-26.4-7.6-7.8-6.1-10.5-14.6-10.5-24.4v-25.5H415V120c.1 5.9-.7 10.3 1.3 13.2s4.6 4.4 10.1 4.1c4.7-.2 8-2.1 9.3-4.8 1.2-2.5.6-5.7.6-11 0-8.7.4-16-11.1-24.4s-19-13.2-26.4-22.6c-10.6-13.4-8.3-31.6-8.4-35.5-.5-14.6.4-20.6 5.9-27.4 6.2-8 17.3-11.5 29.8-11.5 11.1 0 20.5 3.1 27.1 9.9 6 6.3 7.9 14.5 7.9 24v22.8h-25c.3-1.8 0-9.8-.1-15.5s.5-9.9-.5-12.6c-1.8-4.2-4.7-6.1-10.3-5.9-2.5-.1-5 .7-7 2.2-2.6 2.1-2.9 6-2.4 14.6.2 3.8-.3 7.5.4 10.8.9 4.7 3.5 8.8 8.9 13.3 8.5 7 19 13.1 26.2 21.7 10.3 12.3 10.8 22 10.8 35.3"/></svg>