<svg id="Layer_1" data-name="Layer 1" xmlns="http://www.w3.org/2000/svg" viewBox="0 0 212.21 234.95"><title>Logo_WallStreetJournal_corto_03_RGB</title><path d="M155.13,64l3.13-.85V60.35H135v2.84l3.41.57c4.84.85,6.26,4,3.7,16.2l-11.94,59.4L117.9,76.55c-1.42-6.54-2.27-11.66,3.41-12.79l3.7-.57V60.35H92.89v2.84l2.27.57c3.41.85,3.7,2.84,5.12,9.09l3.12,15.06-9.66,51.16L81,76.55c-1.42-6.83-2-11.94,3.41-12.79l2.56-.57V60.35H54v2.84l3.13.85c2.84.85,4.54,2.27,6.53,11.37l21,99.19h6.82L105.68,99l15.63,75.6h6l20.18-96.06C150,68.59,151.15,64.89,155.13,64Z"/></svg>