<svg xmlns="http://www.w3.org/2000/svg" viewBox="0 0 441.9 116.9"><path d="M385.7 116.9c15.5.3 30.5-6.1 40.9-17.6 4.9-5.4 8.8-11.7 11.3-18.6 2.7-7.1 4-14.6 4-22.1v-.3c0-7.6-1.3-15-4-22.1-2.6-6.8-6.4-13.1-11.3-18.6C416.2 6.1 401.2-.3 385.7 0c-8-.1-15.9 1.5-23.2 4.8-6.7 3-12.8 7.4-17.8 12.8-4.9 5.4-8.8 11.7-11.3 18.6a61.6 61.6 0 00-3.8 18.5h3.6c.3-6 1.5-11.9 3.6-17.5 4.8-13.1 14.6-23.7 27.3-29.5 13.7-6.1 29.3-6 43 .1 6.3 2.9 12 7.1 16.7 12.2 4.7 5.1 8.3 11.1 10.7 17.6 2.5 6.7 3.8 13.7 3.8 20.8v.3c0 7.1-1.2 14.2-3.7 20.8-4.8 13.1-14.6 23.7-27.2 29.5-6.8 3.1-14.1 4.6-21.6 4.5h-.2M216.3 115h3.5V34.4h-3.5V115zm105.1 0V2h-3.2L269 72l-38.1-54.2-1.6 3.4 39.6 56.4h.2L317.9 8v107h3.5z"/><path d="M219.6 28.6l13.3-27.4h-142L62.4 65.8 32.1 1.2H0V115h32.2l-.1-57.4L54.3 115h15.6l22.2-57.4.2 57.4h31.9V28.6H155v-.1h.1V115H190V28.6"/></svg>