<?xml version="1.0" encoding="utf-8"?>
<!-- Generator: Adobe Illustrator 23.0.1, SVG Export Plug-In . SVG Version: 6.00 Build 0)  -->
<svg version="1.1" id="Layer_1" xmlns="http://www.w3.org/2000/svg" xmlns:xlink="http://www.w3.org/1999/xlink" x="0px" y="0px"
	 viewBox="0 0 1057.9 174.1" style="enable-background:new 0 0 1057.9 174.1;" xml:space="preserve">
<style type="text/css">
	.st0{clip-path:url(#SVGID_2_);}
	.st1{clip-path:url(#SVGID_4_);fill:#FFFFFF;}
	.st2{clip-path:url(#SVGID_6_);}
	.st3{clip-path:url(#SVGID_8_);fill:#FFFFFF;}
	.st4{clip-path:url(#SVGID_10_);fill:#FFFFFF;}
	.st5{clip-path:url(#SVGID_12_);fill:#FFFFFF;}
	.st6{clip-path:url(#SVGID_14_);fill:#FFFFFF;}
	.st7{clip-path:url(#SVGID_16_);fill:#FFFFFF;}
	.st8{clip-path:url(#SVGID_18_);fill:#FFFFFF;}
	.st9{clip-path:url(#SVGID_20_);fill:#FFFFFF;}
	.st10{opacity:0.5;clip-path:url(#SVGID_22_);}
	.st11{clip-path:url(#SVGID_24_);fill:#FFFFFF;}
	.st12{opacity:0.5;clip-path:url(#SVGID_26_);}
	.st13{clip-path:url(#SVGID_28_);fill:#FFFFFF;}
	.st14{opacity:0.5;clip-path:url(#SVGID_30_);}
	.st15{clip-path:url(#SVGID_32_);fill:#FFFFFF;}
	.st16{clip-path:url(#SVGID_34_);fill:#FFFFFF;}
	.st17{clip-path:url(#SVGID_36_);fill:#FFFFFF;}
	.st18{clip-path:url(#SVGID_38_);fill:#FFFFFF;}
</style>
<title>Logo_MtMotores_black_RGB</title>
<g id="La_Tercera_PM_-_inverso_1_">
	<g>
		<g>
			<defs>
				<rect id="SVGID_1_" y="0" width="1057.8" height="174.1"/>
			</defs>
			<clipPath id="SVGID_2_">
				<use xlink:href="#SVGID_1_"  style="overflow:visible;"/>
			</clipPath>
			<g class="st0">
				<g>
					<defs>
						<rect id="SVGID_3_" y="0" width="1057.8" height="174.1"/>
					</defs>
					<clipPath id="SVGID_4_">
						<use xlink:href="#SVGID_3_"  style="overflow:visible;"/>
					</clipPath>
					<polygon class="st1" points="133.1,52.1 161.8,52.1 161.8,135.9 177,135.9 177,52.1 205.7,52.1 205.7,38.5 133.1,38.5 					"/>
				</g>
				<g>
					<defs>
						<rect id="SVGID_5_" y="0" width="1057.8" height="174.1"/>
					</defs>
					<clipPath id="SVGID_6_">
						<use xlink:href="#SVGID_5_"  style="overflow:visible;"/>
					</clipPath>
					<g class="st2">
						<g>
							<defs>
								<rect id="SVGID_7_" y="0" width="1057.8" height="174.1"/>
							</defs>
							<clipPath id="SVGID_8_">
								<use xlink:href="#SVGID_7_"  style="overflow:visible;"/>
							</clipPath>
							<path class="st3" d="M354,75.7c0-22.5-14.6-37.2-41.2-37.2h-24.7v97.4h15.2v-23.2h9.5c2.4,0,4.8-0.1,7-0.5l16.5,23.7h18.1
								l-19.8-27.6C347.3,102.4,354,90.8,354,75.7 M312.2,99.5h-9V52.1h9c18.4,0,26.1,8.9,26.1,23.6
								C338.3,90.6,330.8,99.5,312.2,99.5"/>
						</g>
						<g>
							<defs>
								<rect id="SVGID_9_" y="0" width="1057.8" height="174.1"/>
							</defs>
							<clipPath id="SVGID_10_">
								<use xlink:href="#SVGID_9_"  style="overflow:visible;"/>
							</clipPath>
							<path class="st4" d="M409.7,123.3c-19.4,0-33.7-15-33.7-36.1c0-20.6,13.9-36.1,33.1-36.1c12.8,0,21,4.6,27.4,13.3l11.7-8.3
								c-8.4-11.9-20.8-18.9-38.7-18.9c-27.6,0-49.3,21.2-49.3,50s21.3,50,48.9,50c18.8,0,31.4-6.6,41.4-19.9l-11.8-8.2
								C431.4,118.5,422.2,123.3,409.7,123.3"/>
						</g>
						<g>
							<defs>
								<rect id="SVGID_11_" y="0" width="1057.8" height="174.1"/>
							</defs>
							<clipPath id="SVGID_12_">
								<use xlink:href="#SVGID_11_"  style="overflow:visible;"/>
							</clipPath>
							<path class="st5" d="M596.7,75.7c0-22.5-14.7-37.2-41.2-37.2h-24.7v97.4h15.3v-23.2h9.5c2.4,0,4.8-0.1,6.9-0.5l16.5,23.7
								h18.1l-19.6-27.6C590,102.4,596.7,90.8,596.7,75.7 M554.9,99.5H546V52.1h8.9c18.5,0,26.2,8.9,26.2,23.6
								C581.1,90.6,573.5,99.5,554.9,99.5"/>
						</g>
						<g>
							<defs>
								<rect id="SVGID_13_" y="0" width="1057.8" height="174.1"/>
							</defs>
							<clipPath id="SVGID_14_">
								<use xlink:href="#SVGID_13_"  style="overflow:visible;"/>
							</clipPath>
							<path class="st6" d="M643.3,36.5h-0.9L600,135.9h15.3l5.6-13.6h43.2l5.6,13.6h16L643.3,36.5z M626.7,108.7l16.1-38.5
								l15.8,38.5H626.7z"/>
						</g>
						<g>
							<defs>
								<rect id="SVGID_15_" y="0" width="1057.8" height="174.1"/>
							</defs>
							<clipPath id="SVGID_16_">
								<use xlink:href="#SVGID_15_"  style="overflow:visible;"/>
							</clipPath>
							<polygon class="st7" points="458.7,135.9 521.7,135.9 521.7,122.3 473.9,122.3 473.9,105.8 515,105.8 515,92.5 473.9,92.5 
								473.9,52.1 521.7,52.1 521.7,38.5 458.7,38.5 							"/>
						</g>
						<g>
							<defs>
								<rect id="SVGID_17_" y="0" width="1057.8" height="174.1"/>
							</defs>
							<clipPath id="SVGID_18_">
								<use xlink:href="#SVGID_17_"  style="overflow:visible;"/>
							</clipPath>
							<polygon class="st8" points="230.4,105.8 271.5,105.8 271.5,92.5 230.4,92.5 230.4,52.1 278.7,52.1 278.7,38.5 215.3,38.5 
								215.3,135.9 278.8,135.9 278.8,122.3 230.4,122.3 							"/>
						</g>
						<g>
							<defs>
								<rect id="SVGID_19_" y="0" width="1057.8" height="174.1"/>
							</defs>
							<clipPath id="SVGID_20_">
								<use xlink:href="#SVGID_19_"  style="overflow:visible;"/>
							</clipPath>
							<path class="st9" d="M90.3,36.5l-36.6,85.8H15.2V38.6H0V136h63.3l5.5-13.6h43.3l5.5,13.6h16.1L91.2,36.6L90.3,36.5L90.3,36.5
								z M74.6,108.7l16-38.5l15.8,38.5H74.6z"/>
						</g>
						<g>
							<defs>
								<rect id="SVGID_21_" y="0" width="1057.8" height="174.1"/>
							</defs>
							<clipPath id="SVGID_22_">
								<use xlink:href="#SVGID_21_"  style="overflow:visible;"/>
							</clipPath>
							<g class="st10">
								<g>
									<g>
										<defs>
											<rect id="SVGID_23_" x="891.9" y="38.5" width="65.6" height="97.1"/>
										</defs>
										<clipPath id="SVGID_24_">
											<use xlink:href="#SVGID_23_"  style="overflow:visible;"/>
										</clipPath>
										<path class="st11" d="M891.9,38.5h24.2c26.6,0,41.4,14.4,41.4,37c0,22.4-14.9,37-41.4,37h-9.2v23.1h-15V38.5z M915.5,99.1
											c19,0,26.6-9,26.6-23.7s-7.8-23.7-26.6-23.7h-8.6v47.4H915.5z"/>
									</g>
								</g>
							</g>
						</g>
						<g>
							<defs>
								<rect id="SVGID_25_" y="0" width="1057.8" height="174.1"/>
							</defs>
							<clipPath id="SVGID_26_">
								<use xlink:href="#SVGID_25_"  style="overflow:visible;"/>
							</clipPath>
							<g class="st12">
								<g>
									<g>
										<defs>
											<rect id="SVGID_27_" x="963" y="38" width="94.8" height="98.1"/>
										</defs>
										<clipPath id="SVGID_28_">
											<use xlink:href="#SVGID_27_"  style="overflow:visible;"/>
										</clipPath>
										<path class="st13" d="M963.1,38h1.6l46,54.2l45.6-54.2h1.6v98.1h-14.3V85.7c0-5.4,0.6-14,0.6-14s-4.7,7.3-8.6,11.7
											l-24.2,29.4h-1.7l-24.2-29.4c-3.7-4.4-8.5-11.7-8.5-11.7s0.6,8.6,0.6,14v50.4h-14.3V38H963.1z"/>
									</g>
								</g>
							</g>
						</g>
						<g>
							<defs>
								<rect id="SVGID_29_" y="0" width="1057.8" height="174.1"/>
							</defs>
							<clipPath id="SVGID_30_">
								<use xlink:href="#SVGID_29_"  style="overflow:visible;"/>
							</clipPath>
							<g class="st14">
								<g>
									<g>
										<defs>
											<rect id="SVGID_31_" x="702.5" y="0" width="172.7" height="174.1"/>
										</defs>
										<clipPath id="SVGID_32_">
											<use xlink:href="#SVGID_31_"  style="overflow:visible;"/>
										</clipPath>
										<path class="st15" d="M788.8,174c-47.6,0-86.4-39-86.4-87s38.8-87,86.4-87c47.6,0,86.4,39.1,86.4,87
											C875.2,135,836.5,174,788.8,174 M788.8,9.9c-42.2,0-76.5,34.6-76.5,77.1s34.3,77.1,76.5,77.1s76.5-34.6,76.5-77.1
											S831,9.9,788.8,9.9"/>
									</g>
									<g>
										<defs>
											<rect id="SVGID_33_" x="702.5" y="0" width="172.7" height="174.1"/>
										</defs>
										<clipPath id="SVGID_34_">
											<use xlink:href="#SVGID_33_"  style="overflow:visible;"/>
										</clipPath>
										<path class="st16" d="M788.8,174c-47.6,0-86.4-39-86.4-87s38.8-87,86.4-87c47.6,0,86.4,39,86.4,87
											C875.2,135,836.5,174,788.8,174 M788.8,9.9c-42.2,0-76.5,34.6-76.5,77.1s34.3,77.1,76.5,77.1s76.5-34.6,76.5-77.1
											S831,9.9,788.8,9.9"/>
									</g>
									<g>
										<defs>
											<rect id="SVGID_35_" x="702.5" y="0" width="172.7" height="174.1"/>
										</defs>
										<clipPath id="SVGID_36_">
											<use xlink:href="#SVGID_35_"  style="overflow:visible;"/>
										</clipPath>
										<path class="st17" d="M793.8,80.9c0,2.3-1.8,4.1-4,4.1s-4-1.8-4-4.1v-50c0-2.2,1.8-4.1,4-4.1s4,1.8,4,4.1V80.9z"/>
									</g>
									<g>
										<defs>
											<rect id="SVGID_37_" x="702.5" y="0" width="172.7" height="174.1"/>
										</defs>
										<clipPath id="SVGID_38_">
											<use xlink:href="#SVGID_37_"  style="overflow:visible;"/>
										</clipPath>
										<path class="st18" d="M813.6,51.3c1.2-1.2,3.4-0.9,5,0.7s1.9,3.9,0.7,5.1l-26.6,26.8c-1.2,1.2-3.5,0.9-5-0.7
											c-1.6-1.6-1.9-3.9-0.7-5.1L813.6,51.3z"/>
									</g>
								</g>
							</g>
						</g>
					</g>
				</g>
			</g>
		</g>
	</g>
</g>
</svg>
