<svg id="Layer_1" data-name="Layer 1" xmlns="http://www.w3.org/2000/svg" viewBox="0 0 790.88 252.22"><defs><style>.cls-2{fill:#fff}</style></defs><path fill="#df4a92" d="M449.35.29h341.54v251.93H449.35z"/><path class="cls-2" d="M601.55 87.87h-5.96V56.9h-11.4v-5.58h28.72v5.58h-11.36v30.97zM622 72.64c0 7.07 2.82 10.68 8.21 10.68s8.11-3.66 8.11-10.84V51.32h5.29v21.27c0 10.68-5.48 16.47-13.54 16.47-8.83 0-14.08-5.68-14.08-16.37V51.32h6zm-33.76 31.07h10.07c7.49 0 11.26 3.25 11.26 9.29a7.74 7.74 0 01-5.35 7.74c3.87 1 6.11 4.29 6.11 8.83 0 7.18-4.3 10.69-12.93 10.69h-9.16zm9.21 15.18c4 0 6.3-2.12 6.3-5.42 0-3.46-2.15-4.91-6.54-4.91H594v10.33zm.71 16.26c4 0 6.3-2.13 6.3-5.84 0-3.51-2.19-5.57-6.34-5.57H594v11.41zM621.64 125c0 7.07 2.82 10.68 8.21 10.68s8.11-3.66 8.11-10.84v-21.13h5.29V125c0 10.68-5.48 16.46-13.55 16.46-8.82 0-14.07-5.68-14.07-16.36v-21.39h6zm28.63-21.29h19.66v5.63h-13.88v8.98h11.92v5.57h-11.92v10.69h14.12v5.68h-19.9v-36.55zm25.77-1.19h.62l21.76 24.42v-23.23h5.77v37.73h-.62l-21.8-24.41v23.23h-5.73v-37.74zm30.5 37.74l16.6-37.74h.47l16 37.74h-6.26l-2.71-6.51h-15.33l-2.76 6.51zm22-11.72l-5.49-13.63-5.58 13.63zm-140.3 26.37h.62l21.76 24.42V156.1h5.77v37.73h-.62l-21.8-24.41v23.22h-5.73v-37.73zm36.76 7.44a16.08 16.08 0 0113.31-7.44 15.76 15.76 0 0111.88 5.58 20.72 20.72 0 014.92 13.88 20.49 20.49 0 01-4.92 13.83 15.34 15.34 0 01-23.71.05 20.45 20.45 0 01-5-13.88 21.2 21.2 0 013.48-12m13.31 25.29c6 0 10.74-5.57 10.74-13.27s-4.73-13.27-10.74-13.27-10.68 5.58-10.68 13.27 4.72 13.27 10.68 13.27m35.24 4.98h-5.96v-30.97h-11.4v-5.57h28.72v5.57h-11.36v30.97zm14.89-36.54h5.97v36.54h-5.97zm28.25 37.73a15.87 15.87 0 01-10.5-4c-4.15-3.62-6.53-9.09-6.53-15.49 0-11.25 7.39-19.51 17.17-19.51a16 16 0 019.92 3.46l-.62 7.12c-2.67-3.09-5.58-4.64-8.92-4.64-6.58 0-11.45 5.47-11.45 13.52 0 7.69 4.63 13.26 11.12 13.26 3.77 0 7-1.8 10.3-5.41l-.33 8.1a16.5 16.5 0 01-10.16 3.56m15.46-37.7h5.97v36.54h-5.97zm8.45 36.54l16.6-37.72h.48l16 37.72h-6.25l-2.72-6.5h-15.33l-2.77 6.5zm22-11.72l-5.48-13.62-5.59 13.62z"/><path d="M0 0h450.13c67.15 0 121.59 56.46 121.59 126.11s-54.44 126.11-121.59 126.11H0" fill="#0092d1"/><path class="cls-2" d="M377.71 136.88q0 26.3-12.14 43.41t-30.85 17.11q-18.87 0-30.92-17t-12.07-43.28q0-25.62 12.22-42t31.24-16.43q18.24 0 30.38 16.66t12.14 41.58m-30.6.91q0-39-12.57-39c-3.79 0-6.82 3.51-9.05 10.52s-3.37 16.43-3.37 28.22q0 18.15 3.37 28.9c2.23 7.17 5.26 10.76 9.05 10.76q6 0 9.28-10.43c2.19-6.95 3.29-16.59 3.29-29m95.38-50.18l-8.26 33.54a15.23 15.23 0 00-9.18-3c-7.23 0-12 5.07-14.29 15.19-.89 3.76-1.35 11-1.35 21.74v39.41h-29.68V81.31h29.68v26.26l2.27-7.24q6.75-21.78 15.92-21.77c4.42 0 9.37 3 14.89 9.07m70.23 107h-31.45a68.21 68.21 0 01-1.06-12.44q-10.63 15.21-23.37 15.21-9 0-15.73-10.2t-6.73-24.2q0-18.54 10.6-31.24c5.09-6.05 13.08-10.8 24.06-14.27l12.11-3.84q-4.2-11.34-13.29-11.35t-18.54 12.2L441 94.29q15.87-15.63 34.3-15.65 20.69 0 29.51 17.46 5.19 10.4 5.19 36.69v26.29q0 22.66 2.69 35.55m-31.57-48v-10.19q-1.8.66-6.29 2.48c-8.89 3.62-13.3 9.68-13.3 18.12a17.43 17.43 0 002.38 9.17c1.58 2.64 3.4 4 5.39 4a8.86 8.86 0 005.92-2.72 16.17 16.17 0 004.25-7.25 49.41 49.41 0 001.65-13.6m-190.57 47.91h-28.31v-65.57h-30.39v65.57h-28.42V51.16h28.42v50.42h30.39V51.16h28.31v143.39zM79.72 169.13V50.44h-29.7v144.2h16.25v.01h38.45v-25.52h-25z"/><path class="cls-2" d="M176.89 194.63h-31.46a68.33 68.33 0 01-1-12.44Q133.75 197.4 121 197.4c-6 0-11.24-3.41-15.73-10.2s-6.71-14.86-6.71-24.2q0-18.54 10.61-31.24 7.64-9.08 24-14.27l12.1-3.84q-4.19-11.34-13.29-11.35t-18.53 12.2l-8.36-20.16q15.91-15.68 34.37-15.7 20.67 0 29.5 17.46 5.25 10.4 5.24 36.69v26.29q0 22.66 2.69 35.55m-31.57-48v-10.19c-1.2.44-3.29 1.27-6.29 2.48-8.88 3.62-13.31 9.68-13.31 18.12a17.26 17.26 0 002.4 9.17c1.6 2.64 3.39 4 5.38 4a8.78 8.78 0 005.91-2.72 16 16 0 004.27-7.25 49.06 49.06 0 001.64-13.6"/></svg>