<?xml version="1.0" encoding="utf-8"?>
<!-- Generator: Adobe Illustrator 23.0.1, SVG Export Plug-In . SVG Version: 6.00 Build 0)  -->
<svg version="1.1" id="Layer_1" xmlns="http://www.w3.org/2000/svg" xmlns:xlink="http://www.w3.org/1999/xlink" x="0px" y="0px"
	 viewBox="0 0 653.3 139.7" style="enable-background:new 0 0 653.3 139.7;" xml:space="preserve">
<style type="text/css">
	.st0{fill:#B2292E;}
	.st1{fill:#FFFFFF;}
	.st2{fill:#1C1C1B;}
</style>
<title>Logo_Reportajes_color_RGB</title>
<rect y="37.9" class="st0" width="57.7" height="55.3"/>
<polygon class="st1" points="6.9,48 12.5,48 12.5,78.4 28.3,78.4 28.3,83.3 6.9,83.3 "/>
<polygon class="st1" points="34.7,52.9 24.2,52.9 24.2,48 50.7,48 50.7,52.9 40.2,52.9 40.2,83.3 34.7,83.3 "/>
<polygon class="st0" points="13.6,97.7 11.2,97.7 11.2,96.6 17.3,96.6 17.3,97.7 14.9,97.7 14.9,104.7 13.6,104.7 "/>
<path class="st0" d="M29.8,104.7h-1.5l-1.4-2c-0.2,0-0.4,0-0.6,0h-0.8v1.9h-1.3v-8.1h2.1c2.2,0,3.5,1.2,3.5,3.1
	c0.1,1.2-0.6,2.2-1.6,2.7L29.8,104.7z M26.2,101.7c1.6,0,2.2-0.7,2.2-2s-0.6-2-2.2-2h-0.8v4H26.2z"/>
<path class="st0" d="M30.3,100.7c-0.1-2.3,1.7-4.1,4-4.2c0.1,0,0.1,0,0.2,0c1.3-0.1,2.5,0.5,3.3,1.6l-1,0.7
	c-0.5-0.7-1.4-1.2-2.3-1.1c-1.7,0-3,1.3-3,3s1.3,3,3,3c1,0,1.9-0.4,2.4-1.2l1,0.7c-0.8,1.1-2.1,1.7-3.4,1.7c-2.2,0-4.1-1.8-4.1-4
	C30.3,100.8,30.3,100.7,30.3,100.7"/>
<path class="st0" d="M50.2,104.7h-1.5l-1.4-2c-0.2,0-0.4,0-0.6,0h-0.8v1.9h-1.3v-8.1h2.1c2.2,0,3.5,1.2,3.5,3.1
	c0.1,1.2-0.6,2.2-1.6,2.7L50.2,104.7z M46.6,101.7c1.6,0,2.2-0.7,2.2-2s-0.7-2-2.2-2h-0.8v4H46.6z"/>
<path class="st0" d="M51.7,104.7h-1.3l3.6-8.3h0.1l3.6,8.3h-1.4l-0.5-1.1h-3.6L51.7,104.7z M54,99.2l-1.4,3.2h2.7L54,99.2z"/>
<polygon class="st0" points="43.8,103.6 39.8,103.6 39.8,102.2 43.3,102.2 43.3,101.1 39.8,101.1 39.8,97.7 43.8,97.7 43.8,96.6 
	38.6,96.6 38.6,104.7 43.8,104.7 "/>
<polygon class="st0" points="19.4,102.2 22.8,102.2 22.8,101.1 19.4,101.1 19.4,97.7 23.4,97.7 23.4,96.6 18.1,96.6 18.1,104.7 
	23.4,104.7 23.4,103.6 19.4,103.6 "/>
<polygon class="st0" points="0,96.6 1.3,96.6 1.3,103.6 5,103.6 5,104.7 0,104.7 "/>
<path class="st0" d="M5.3,104.7H4l3.6-8.3h0.1l3.6,8.3H9.9l-0.5-1.1H5.8L5.3,104.7z M7.6,99.2l-1.4,3.2h2.7L7.6,99.2z"/>
<path class="st2" d="M66.9,37.8h21.2l-0.3,12.1c4.9-11,12.7-13.5,19.7-13.5c3.6,0,7.2,0.9,10.4,2.7l-6.8,19.3c-2.5-1.3-5.3-2-8.2-2
	c-9.6,0-14.8,4.4-14.8,18.7v29.7H66.9V37.8z"/>
<path class="st2" d="M151,88.6c6,0,11.9-1.9,16.8-5.3L180,96.3c-6.5,5.7-14.6,9.9-28.6,9.9c-23.9,0-39.3-14.5-39.3-35.1
	c0-20.3,16.2-34.8,37-34.8c24.1,0,37.1,17.9,35.6,41.4h-50.9C135.8,84.6,141.4,88.6,151,88.6z M163.1,65.4
	c-0.9-7.4-5.7-11.8-14-11.8s-14,3.8-15.7,11.8H163.1z"/>
<path class="st2" d="M187.2,37.8h21.2L208,48.1c4.1-7.2,11.2-11.8,21.5-11.8c16.2,0,29.9,14.2,29.9,34.8s-14,35.1-30.4,35.1
	c-10.2,0-17.1-4.2-20.6-10.4v42.3h-21.2V37.8z M237.5,71.1c0-9.9-5.7-16-14.6-16c-9.1,0-15.1,6.1-15.1,16c0,10.5,6,16.5,15.1,16.5
	C231.9,87.6,237.5,81.6,237.5,71.1L237.5,71.1z"/>
<path class="st2" d="M259.7,71.4c0-20.4,16.2-35.1,37-35.1s36.8,14.6,36.8,35.1c0,20.3-16,34.8-36.8,34.8S259.7,91.7,259.7,71.4z
	 M311.7,71.4c0-10.1-5.7-16.8-15.1-16.8s-15.2,6.8-15.2,16.8c0,9.9,5.8,16.8,15.2,16.8S311.8,81.3,311.7,71.4L311.7,71.4z"/>
<path class="st2" d="M336,37.8h21.2l-0.3,12.1c4.9-11,12.8-13.5,19.7-13.5c3.6,0,7.2,0.9,10.4,2.7l-6.8,19.3c-2.5-1.3-5.3-2-8.2-2
	c-9.6,0-14.8,4.4-14.8,18.7v29.7H336V37.8z"/>
<path class="st2" d="M392.3,79.6V55.4h-9.9V37.8h9.9V2.8h21.1v34.9h17.1v17.6h-17.1v24.9c0,6.8,2.2,8.2,5.5,8.2c3.5,0,6-1.9,7.4-2.8
	l8,14.8c-3.3,2.7-9,6.1-18.7,6.1C402,106.5,392.3,99.7,392.3,79.6z"/>
<path class="st2" d="M464,53.8c-8,0-12.3,3.5-15.3,6.1l-11.8-12.6c6.3-6.1,13.4-11,29.1-11c17.1,0,30.2,9.3,30.2,30.4v38.1h-21.1
	l0.5-9.3c-5,7.7-10.9,10.7-19.8,10.7c-12.3,0-23.6-5.5-23.6-21.1c0-14.3,10.9-20.1,27.4-20.1h15.6C474.9,57.3,471.1,53.8,464,53.8z
	 M460.7,77.5c-5.3,0-7.7,2.4-7.7,6.1s3.1,6,9.1,6c8.6,0,13-3.8,13-9.4v-2.7L460.7,77.5z"/>
<path class="st2" d="M480.8,131.7l10.5-12.6c1.7,1.6,3.5,2.5,5.2,2.5c3.3,0,4.9-1.9,4.9-5.4V37.8h21.2v77.7
	c0,15.4-8.3,24.2-24.1,24.2C490.7,139.7,484,135.6,480.8,131.7z M498.6,13.2c0-7.3,6-13.2,13.3-13.2c0.1,0,0.1,0,0.2,0
	c7.3,0,13.3,5.9,13.3,13.3s-5.9,13.3-13.3,13.3c0,0,0,0,0,0c-7.3,0.1-13.4-5.7-13.5-13.1C498.6,13.4,498.6,13.3,498.6,13.2z"/>
<path class="st2" d="M564.8,88.6c6,0,11.9-1.9,16.9-5.3l12.1,13.1c-6.4,5.7-14.6,9.9-28.6,9.9c-23.9,0-39.3-14.5-39.3-35.1
	c0-20.3,16.2-34.8,37-34.8c24.1,0,37.1,17.9,35.5,41.4h-50.8C549.6,84.6,555.2,88.6,564.8,88.6z M576.9,65.4
	c-0.9-7.4-5.7-11.8-14-11.8s-14,3.8-15.7,11.8H576.9z"/>
<path class="st2" d="M595.3,93.4l12.4-11c4.4,4.4,10.4,7,16.7,7.1c6.9,0,9.1-1.3,9.1-4.1c0-3.6-4.2-3.6-15.1-6.4
	c-9.1-2.4-19.3-7.4-19.3-21.4c0-15.1,11.6-21.2,26-21.2c11,0,18.9,3.6,24.4,9.3l-11.4,12.1c-3.6-3.1-8.2-4.9-12.9-5
	c-4.9,0-7.2,1.3-7.2,3.9c0,3.8,4.2,4.2,13.4,6.3c9.8,2.2,22,6.8,22,20.9c0,12.3-6.4,22.3-27.5,22.3
	C610.3,106.2,601.1,100.4,595.3,93.4z"/>
</svg>
