<?xml version="1.0" encoding="utf-8"?>
<!-- Generator: Adobe Illustrator 23.0.1, SVG Export Plug-In . SVG Version: 6.00 Build 0)  -->
<svg version="1.1" id="Layer_1" xmlns="http://www.w3.org/2000/svg" xmlns:xlink="http://www.w3.org/1999/xlink" x="0px" y="0px"
	 viewBox="0 0 962.8 158.5" style="enable-background:new 0 0 962.8 158.5;" xml:space="preserve">
<style type="text/css">
	.st0{fill:#FFFFFF;}
</style>
<title>Logo_PulsoTrader_white_RGB</title>
<path class="st0" d="M573.5,1.3V6h27.9v152h6.4V6h28.1V0.3h-62.4V1.3z"/>
<path class="st0" d="M692.3,103.8c-1.3-2.8-3.1-5.2-5.4-7.2c2.9-1.4,5.2-3.7,6.8-6.4c3-5,4-10.8,4.8-16.4c0.8-8,0.8-16,0.8-24.1V40
	c0-7.8,0-15.8-2.2-23.7c-1.4-5-3.8-8.8-7-11.2c-3.8-3-9-4.6-15.7-4.6h-23.3v157.6h6.4V98.8H679c3.8,0.2,6.2,4.2,7.6,7.2
	c2.4,5.8,3.4,12.2,4.2,19.3l4.2,32.7h6.4l-4.2-33.1C696.3,117.9,695.3,110.4,692.3,103.8z M657.4,6H674c4.6,0,8.4,1,11,3
	c2.6,2,4.5,4.8,5.4,8c1.4,5,2.2,10.1,2.2,15.2c0.2,5,0.2,10.2,0.2,15.2v8.2c0,7.6-0.2,15.6-1.6,23.3c-0.8,3.8-2,8.2-4.8,11.2
	c-2.1,2-4.9,3.1-7.8,3h-21V6H657.4z"/>
<path class="st0" d="M750.3,1.1V0.3h-12l-0.2,0.8c-7.6,52-15.2,103.7-22.9,155.6L715,158h6.6l5.4-38.1h34.5l5.4,38.1h6.6l-0.2-1.2
	C765.5,105,757.8,53.2,750.3,1.1z M744.9,6l15.4,108.5h-32.5c4.2-29.9,8.6-59.8,12.8-89.7L743.2,6H744.9z"/>
<path class="st0" d="M837.7,45.9c0-7.6,0-15.4-1.2-23.1c-1.4-8-3.8-13.4-7.8-17.2c-5-4.4-11.6-5.2-16.5-5.2h-23.9V158h25.3
	c7.2,0,13.4-2.8,17-7.4c5-6.6,6.2-15,6.8-22.7c0.4-7.2,0.4-14.4,0.4-21.5C837.7,103.7,837.7,47.7,837.7,45.9z M831.3,65.7v55.1
	c0.1,5.9-0.3,11.8-1.4,17.6c-1.2,4.8-3,8.4-5.8,10.4c-2.6,2.2-6.4,3.2-11,3.2h-18.3V5.6h18.5c4.6,0,8.6,1.4,11.2,4
	c2.8,2.6,4.6,6.6,5.6,12.4s1,12,1,17.8L831.3,65.7z"/>
<path class="st0" d="M856.5,158h41.1v-5.6h-34.7V82h32.5v-5.6h-32.5V6h34.7V0.3h-41.1V158z"/>
<path class="st0" d="M958.8,124.5c-0.5-5.3-1.5-10.5-3-15.6c-1.2-3.8-3.2-8.8-7.4-12.2c2-1,3.7-2.3,5.2-4c3.6-4.4,5-10.2,5.8-15.4
	c1.2-8.8,1.2-17.6,1.2-26.5V40.4c0-6.8,0-14-1.4-21.1c-1.4-6.4-3.6-11-7.2-14c-3.8-3.2-9-5-15.7-5h-23.9V158h6.4V98.6h20.7
	c1.7,0,3.3,0.5,4.6,1.6c2,2,3.5,4.4,4.4,7c2,5.4,2.8,11.4,3.6,17l4.2,33.7h6.4L958.8,124.5z M954.4,53.3c0,8.2,0,16.8-1.4,25.3
	c-1,4.6-2.2,9.2-5.6,12c-2,1.6-4.8,2.4-8.4,2.4h-19.7V6h17.7c3,0,8.4,0.8,11.8,4.6s4.6,9.2,5.2,13.4c0.7,6.3,0.9,12.6,0.8,18.8v5.2
	C954.4,49.8,954.3,51.5,954.4,53.3z"/>
<polygon class="st0" points="345.7,1.8 345.7,157 405.6,157 405.6,135.7 404.5,135.7 371.6,135.7 371.6,1.8 "/>
<path class="st0" d="M248.9,45.8c0,16.5,1.9,32.7-6.9,42.2c-7.5,8-15.2,11.2-38.4,10v59h-25.4V1.8h36.6c13.5,0,25.6,4.3,31,16.1
	C249,25,248.9,35.7,248.9,45.8 M223.5,45.5c0-6.6,0.4-12-0.3-15.2c-1.3-6.3-5.5-6.5-11.5-6.5h-8v52.5H214c3.9,0,8.3-1,9-5.2
	C223.8,66.7,223.5,59.5,223.5,45.5"/>
<path class="st0" d="M330.1,2h-25.4l0.3,126.5c0,0,0,7.2-10.5,7.5c-10.9,0.4-10-10.1-10-8.8V2h-25.8l0.4,124.5c0,0-2.2,31.3,34,32.1
	c5.9,0,35,0.1,37.1-28.6C330.5,120.7,330,2,330.1,2"/>
<path class="st0" d="M563.7,125.5c0,9.2-2.1,17.4-9.1,23.7s-16.9,8.6-26.5,8.6c-10.5,0-18.8-2.1-25.8-7.9s-10-14.1-10-23.9
	l-0.1-94.3c0-9.1,3.2-18.1,10.3-24.1c6.9-5.6,16-7.7,26.2-7.7c9.4,0,18.5,2.6,25.6,8.7s9.2,14.8,9.2,22.2L563.7,125.5z M538.1,125.2
	V32c0-2.2-0.4-9.6-10.1-9.6c-9.2,0-10.2,6.2-10.2,9.6v93.3c0,3.2,0.3,10.3,10.2,10.2S538.1,128.6,538.1,125.2"/>
<path class="st0" d="M481.4,119.2c0,15.4-1.4,21.3-7.2,28.3c-5.2,6.3-15.5,10.4-27.8,10.4c-9.6,0-19.1-1.7-26-7.5
	c-7.7-6-10.3-14.5-10.3-24v-25.2h25v17.2c0.1,5.8-0.7,10.1,1.3,13s4.6,4.4,9.9,4.1c4.7-0.2,7.9-2.1,9.2-4.7
	c1.2-2.5,0.5-5.6,0.5-10.9c0-8.6,0.4-15.8-11-24.1s-18.7-13-26.1-22.3c-10.5-13.2-8.2-31.2-8.3-35c-0.5-14.4,0.4-20.3,5.9-27.1
	c6.1-7.9,17.1-11.3,29.5-11.3c11,0,20.3,3,26.8,9.8c5.9,6.2,7.8,14.3,7.8,23.7v22.6h-24.7c0.3-1.8,0-9.7-0.1-15.3s0.5-9.8-0.5-12.4
	c-1.8-4.1-4.6-6-10.1-5.8c-2.5-0.1-4.9,0.7-6.9,2.2c-2.6,2.1-2.8,5.9-2.3,14.4c0.2,3.7-0.3,7.4,0.4,10.7c0.9,4.6,3.4,8.7,8.8,13.1
	c8.4,6.9,18.8,12.9,25.9,21.5C480.9,96.6,481.4,106.1,481.4,119.2"/>
<path class="st0" d="M0,1.7v154.8h161.3V1.7H0z M79.3,128.9h-60V30.2h15.5v84.9h44.5V128.9z M141.9,43.9h-29.3v84.9H97.1V43.9H67.7
	V30.2h74.2L141.9,43.9z"/>
</svg>
