<?xml version="1.0" encoding="utf-8"?>
<!-- Generator: Adobe Illustrator 23.0.1, SVG Export Plug-In . SVG Version: 6.00 Build 0)  -->
<svg version="1.1" id="Layer_1" xmlns="http://www.w3.org/2000/svg" xmlns:xlink="http://www.w3.org/1999/xlink" x="0px" y="0px"
	 viewBox="0 0 558.3 153" style="enable-background:new 0 0 558.3 153;" xml:space="preserve">
<style type="text/css">
	.st0{fill:#FFFFFF;}
</style>
<title>Logo_Paula_color_white_RGB</title>
<path class="st0" d="M530,150.5h28.3v-29.2H530V150.5z M477.6,112.2c0,13.7-15.4,19.7-27.5,19.7c-9.3,0-16.7-5.3-16.7-13.3
	c0-10.1,8-12.9,17.8-14.8l14.2-3c4.2-0.7,8.4-2,12.3-3.8V112.2z M503.4,76.1c0-30.4-23-35.1-46.1-35.1c-23.5,0-45.6,9.7-45.6,34.9
	l25.8,1.1c0-11.6,4.9-16.1,19.9-16.1c11.2,0,20.3,3,20.3,13.5v3.2c-6.5,2.3-18.6,4.4-27.9,6.3L438.9,86
	c-15.8,3.2-32.5,12.5-32.5,33.4c0,20.7,16.1,33.6,36.3,33.6c12.7,0.1,25.1-4.2,34.9-12.3c0,2.8,0.8,7.2,2.5,9.7h27.3
	c-1.5-2.3-4-7-4-18L503.4,76.1z M362.8,150.5h25.8V0h-25.8V150.5z M337.5,43.5h-25.8V101c0,12.9-5.9,27.1-25.4,27.1
	c-13.1,0-19-6.3-19-21.1V43.5h-25.8v70.8c0,31.1,20.9,38.7,39.1,38.7c14.6,0,24.9-5.7,30.6-13.1h0.4v10.6h25.8V43.5z M191.7,112.2
	c0,13.7-15.4,19.7-27.5,19.7c-9.3,0-16.7-5.3-16.7-13.3c0-10.1,8-12.9,17.8-14.8l14.2-3c4.2-0.7,8.4-2,12.3-3.8L191.7,112.2z
	 M217.5,76.1c0-30.4-23-35.1-46.1-35.1c-23.5,0-45.6,9.7-45.6,34.9l25.8,1.1c0-11.6,4.8-16.1,19.9-16.1c11.2,0,20.3,3,20.3,13.5v3.2
	c-6.5,2.3-18.6,4.4-27.9,6.3L153,86c-15.9,3.2-32.6,12.5-32.6,33.4c0,20.7,16.1,33.6,36.4,33.6c12.7,0.1,25.1-4.2,34.9-12.3
	c0,2.8,0.8,7.2,2.5,9.7h27.3c-1.5-2.3-4-7-4-18L217.5,76.1z M28.3,23.7h27.1c16.3,0,27.5,6.1,27.5,27c0,14.8-8.7,25.4-26.4,25.4
	H28.3V23.7z M0,150.5h28.3V99.7h33.4c29.8,0,50.7-19.2,50.7-49C112.4,21.6,95.1,0,59.8,0H0L0,150.5z"/>
</svg>
