<svg xmlns="http://www.w3.org/2000/svg" viewBox="0 0 706.4 108.4"><path d="M0 38.4v68.2h71V38.4H0zm34.9 56H8.5V50.9h6.8v37.4h19.6v6.1zM62.5 57H49.6v37.4h-6.8V57h-13v-6.1h32.7V57zm20.3 24V3.3h21.5v35.1h17.4v17.9h-17.4v25.3c0 6.9 2.2 8.3 5.6 8.3 3.5 0 6.1-1.9 7.5-2.9l8.2 15.1c-3.4 2.7-9.1 6.2-19 6.2-13.9.1-23.8-6.8-23.8-27.3z"/><path d="M161.1 90.1c6.1 0 12.1-1.9 17.1-5.5l12.4 13.3c-6.6 5.8-14.9 10.1-29.1 10.1-24.3.1-40-14.6-40.1-35.6 0-20.6 16.4-35.4 37.6-35.4 24.5 0 37.8 18.2 36.2 42l-51.7.1c2 7.1 7.8 11.1 17.6 11zm12.2-23.5c-1-7.5-5.8-12-14.3-12s-14.2 3.9-16 12h30.3zm211.3 23.5c6.1 0 12.1-1.9 17.1-5.5L414 97.9c-6.6 5.8-14.9 10.1-29.1 10.1-24.3.1-40-14.6-40.1-35.6 0-20.6 16.4-35.4 37.5-35.4 24.5 0 37.8 18.2 36.2 42l-51.7.1c2.2 7.1 8 11.1 17.8 11zm12.2-23.5c-1-7.5-5.8-12-14.3-12s-14.2 3.9-16 12h30.3zm-199-28.2h21.6l-.5 11.2c4.2-8.2 12.2-12.6 21.6-12.6 14.9 0 25.6 10.9 25.6 30.2v39.4h-21.6V68.7c0-7.7-3.7-12-11.4-12-8.6 0-13.8 4.8-13.8 13.4v36.5h-21.6V38.4zm70.6 33.9c0-21 14.1-35.4 30.6-35.4 10.9 0 17 4.3 21.3 11V3.3h21.6v103.3h-21.6l.5-9.9c-3.8 7.2-11 11.4-21.4 11.4-16.8-.1-31-14.8-31-35.8zm52.5 0c0-10.1-6.1-16.3-15.4-16.3-9.1 0-14.9 6.2-14.9 16.3 0 10.7 5.8 16.8 14.9 16.8 9.3.1 15.4-6 15.4-16.8zm100-33.9h21.6l-.5 11.2c4.2-8.2 12.2-12.6 21.6-12.6 14.9 0 25.6 10.9 25.6 30.2v39.4h-21.6V68.7c0-7.7-3.7-12-11.4-12-8.6 0-13.8 4.8-13.8 13.4v36.5h-21.6V38.4zm70.5 33.9c0-20.7 16-35.4 37.3-35.4 13.6 0 21.8 5 28.7 13.6L542 63c-3-4.5-7.9-7.2-13.3-7.2-9.8 0-15.2 6.9-15.2 16.5 0 9.9 5.5 17 15.2 17 6.9 0 10.6-3.2 13.8-6.4L557 95.7c-6.7 7.5-14.7 12.3-28.3 12.3-21.3 0-37.3-14.7-37.3-35.7zM556 13.4C556 6 562.1 0 569.5 0h.2c7.5-.2 13.7 5.7 13.9 13.2.2 7.5-5.7 13.7-13.2 13.9h-.7c-7.5.1-13.6-5.8-13.8-13.3.1-.1.1-.2.1-.4zm2.9 25h21.6v68.2h-21.6V38.4zm56.2 16.3c-8.2 0-12.5 3.5-15.5 6.2l-12-12.8c6.4-6.2 13.6-11.2 29.6-11.2 17.4 0 30.7 9.4 30.7 30.9v38.7h-21.4l.5-9.4c-5.1 7.8-11 10.9-20.2 10.9-12.5 0-24-5.6-24-21.4 0-14.6 11-20.5 27.8-20.5h15.8c-.3-7.8-4.1-11.4-11.3-11.4zm-3.4 24.2c-5.4 0-7.8 2.4-7.8 6.2 0 3.8 3.2 6.1 9.3 6.1 8.8 0 13.3-3.8 13.3-9.6v-2.7h-14.8z"/><path d="M647.4 95.1L660 83.9c4.5 4.5 10.6 7.1 17 7.2 7 0 9.3-1.3 9.3-4.2 0-3.7-4.3-3.7-15.4-6.6-9.3-2.4-19.7-7.5-19.7-21.8 0-15.4 11.8-21.6 26.4-21.6 11.2 0 19.2 3.7 24.8 9.4l-11.6 12.3c-3.7-3.2-8.3-5-13.1-5.1-5 0-7.4 1.3-7.4 4 0 3.8 4.3 4.3 13.6 6.4 9.9 2.2 22.4 6.9 22.4 21.3 0 12.5-6.6 22.7-28 22.7-15.7.1-25-5.8-30.9-12.8z"/></svg>