<svg id="Layer_1" data-name="Layer 1" xmlns="http://www.w3.org/2000/svg" viewBox="0 0 273.42 271.3"><title>Logo_Culto_corto_RGB</title><path d="M161.23,98.27A14.57,14.57,0,0,1,172.36,103l7.7-11.65s-5.93-7.66-19-7.66c-1.09,0-2.15.06-3.18.16a27.85,27.85,0,0,0-5.77,1.22c-8.2,2.65-14.09,9-17.19,17.19a37.45,37.45,0,0,0-1.77,6.32,43.07,43.07,0,0,0-.76,8c0,18.05,10.67,33,28.67,33,13.08,0,19-7.77,19-7.77l-7.7-11.65a14.57,14.57,0,0,1-11.13,4.72c-8.72,0-14.93-7.34-14.93-18.26S152.51,98.27,161.23,98.27Z"/><path d="M237.48,196l0-18.86v-1.64l-.38-141.68H75.62V75.35H35.94V237.54h170.2V196h31.29V196ZM39.17,78.58H62.72L39.17,102.13Zm0,28.11L67.28,78.58h8.34v19L39.17,134.08Zm0,31.95,36.45-36.45v27.4L39.17,166Zm0,32,36.45-36.45v27.39L39.17,198Zm0,32L75.62,166.1v27.39L39.17,229.94Zm.19,31.77L77.72,196h27.39L66.75,234.32Zm31.94,0L109.67,196h27.4L98.7,234.32Zm32,0L141.62,196H169l-38.37,38.37Zm32,0L173.58,196H201l-38.36,38.37Zm63.91,0h-32L203,198.51v35.81Zm7-41.59H78.85V37h155l.44,155.74Z"/></svg>