<svg xmlns="http://www.w3.org/2000/svg" viewBox="0 0 783.9 158.5"><path d="M394.7 1.2v4.6h27.9v152h6.4V5.9h28V.2h-62.3v1zm118.7 102.5c-1.3-2.8-3.1-5.2-5.4-7.2 2.9-1.4 5.2-3.7 6.8-6.4 3-5 4-10.8 4.8-16.4.8-8 .8-16 .8-24.1V40c0-7.8 0-15.8-2.2-23.7-1.4-5-3.8-8.8-7-11.2-3.8-3-9-4.6-15.6-4.6h-23.3v157.6h6.4V98.7h21.5c3.8.2 6.2 4.2 7.6 7.2 2.4 5.8 3.4 12.2 4.2 19.3l4.2 32.7h6.4l-4.2-33.1c-1-7-2-14.5-5-21.1zM478.5 5.9h16.7c4.6 0 8.4 1 11 3 2.6 2 4.5 4.8 5.4 8 1.4 5 2.2 10.1 2.2 15.2.2 5 .2 10.2.2 15.2v8.2c0 7.6-.2 15.7-1.6 23.3-.8 3.8-2 8.2-4.8 11.2-2.1 2-4.9 3.1-7.8 3h-21.1V5.9h-.2zM571.4 1V.2h-12l-.2.8c-7.6 52-15.2 103.7-22.9 155.6l-.2 1.2h6.6l5.4-38.1h34.5l5.4 38.1h6.6l-.2-1.2c-7.8-51.7-15.5-103.5-23-155.6zM566 5.9l15.5 108.5H549c4.2-29.9 8.6-59.8 12.8-89.7l2.6-18.8h1.6zm92.8 39.9c0-7.6 0-15.4-1.2-23.1-1.4-8-3.8-13.4-7.8-17.2-5-4.4-11.6-5.2-16.4-5.2h-23.9v157.6h25.3c7.2 0 13.4-2.8 17-7.4 5-6.6 6.2-15 6.8-22.7.4-7.2.4-14.4.4-21.5-.2-2.8-.2-58.7-.2-60.5zm-6.4 19.8v55.1c.1 5.9-.3 11.8-1.4 17.6-1.2 4.8-3 8.4-5.8 10.4-2.6 2.2-6.4 3.2-11 3.2h-18.3V5.5h18.5c4.6 0 8.6 1.4 11.2 4 2.8 2.6 4.6 6.6 5.6 12.4s1 12 1 17.8l.2 25.9zm25.3 92.3h41.1v-5.6h-34.7V81.9h32.5v-5.6h-32.5V5.9h34.7V.2h-41.1v157.7zm102.2-33.5c-.5-5.3-1.5-10.5-3-15.6-1.2-3.8-3.2-8.8-7.4-12.2 2-1 3.7-2.3 5.2-4 3.6-4.4 5-10.2 5.8-15.4 1.2-8.8 1.2-17.6 1.2-26.5V40.3c0-6.8 0-14-1.4-21.1-1.4-6.4-3.6-11-7.2-14-3.8-3.2-9-5-15.6-5h-23.9v157.6h6.4V98.5h20.7c1.7 0 3.3.5 4.6 1.6 2 2 3.5 4.4 4.4 7 2 5.4 2.8 11.4 3.6 17l4.2 33.8h6.4l-4-33.5zm-4.4-71.2c0 8.2 0 16.8-1.4 25.3-1 4.6-2.2 9.2-5.6 12-2 1.6-4.8 2.4-8.4 2.4h-19.7v-87h17.7c3 0 8.4.8 11.8 4.6s4.6 9.2 5.2 13.4c.7 6.3.9 12.6.8 18.8V48c-.3 1.7-.4 3.4-.4 5.2zm-608-51.4V157h59.9v-21.3h-34.1V1.8zm-96.8 44c0 16.5 1.9 32.7-6.9 42.2-7.5 8-15.2 11.2-38.4 10v59H0V1.8h36.6c13.6 0 25.6 4.3 31 16.1 3.2 7.1 3 17.8 3.1 27.9m-25.5-.3c0-6.6.3-12-.3-15.2-1.3-6.3-5.5-6.5-11.5-6.5h-8v52.5h10.4c3.9 0 8.3-1 9-5.2.7-4.4.4-11.6.4-25.6M151.8 2h-25.4l.3 126.5s.1 7.2-10.5 7.5c-10.9.4-10-10.1-10-8.8V2H80.4l.4 124.5s-2.2 31.3 34 32.1c5.9 0 35 .1 37.1-28.6.4-9.3-.1-128-.1-128m233.7 123.5c0 9.2-2.1 17.4-9.1 23.7s-16.9 8.6-26.5 8.6c-10.5 0-18.8-2.1-25.8-7.9s-10-14.1-10-23.9l-.1-94.3c0-9.1 3.2-18.1 10.3-24.1 6.9-5.6 16-7.7 26.2-7.7 9.4 0 18.5 2.6 25.6 8.7s9.2 14.8 9.2 22.2l.2 94.7zm-25.6-.3V32c0-2.2-.4-9.6-10.1-9.6-9.2 0-10.2 6.2-10.2 9.6v93.3c0 3.2.3 10.3 10.2 10.2s10.1-6.9 10.1-10.3m-56.8-6c0 15.4-1.4 21.3-7.2 28.3-5.2 6.3-15.5 10.4-27.8 10.4-9.6 0-19.1-1.7-26-7.5-7.7-6-10.3-14.5-10.3-24v-25.2h25v17.2c.1 5.8-.7 10.1 1.3 13s4.6 4.4 9.9 4.1c4.6-.2 7.9-2.1 9.2-4.7 1.2-2.5.5-5.6.5-10.9 0-8.6.4-15.8-11-24.1s-18.7-13-26.1-22.3c-10.5-13.2-8.2-31.2-8.3-35-.5-14.4.4-20.3 5.9-27.1C244.3 3.5 255.3.1 267.7.1c11 0 20.3 3 26.8 9.8 5.9 6.2 7.8 14.3 7.8 23.7v22.6h-24.7c.3-1.8 0-9.7-.1-15.3s.5-9.8-.5-12.4c-1.8-4.1-4.6-6-10.1-5.8-2.5-.1-4.9.7-6.9 2.2-2.6 2.1-2.8 5.9-2.4 14.4.2 3.7-.3 7.4.4 10.7.9 4.6 3.4 8.7 8.8 13.1 8.4 6.9 18.8 12.9 25.9 21.5 10 12 10.5 21.5 10.4 34.6" fill="#fff"/></svg>