<svg xmlns="http://www.w3.org/2000/svg" xmlns:xlink="http://www.w3.org/1999/xlink" viewBox="0 0 396 396"><path d="M186.7 113.5v31.3h-17.6v100.3c0 44.8-18.3 67.2-55.5 67.2-21.2 0-37-5-47.5-14.6L82.6 269c8.6 6.6 17.2 10 25.9 10 7.6 0 13.7-2.3 19-7.5 5.2-4.9 7.6-14.4 7.6-28.8v-10.5c-11 12.6-21.8 18.9-32.2 18.9-12.4 0-22.7-6.4-31.3-19.8-8.8-13-13.2-29.7-13.1-50.2S62.8 144 71.9 131s19.9-19.5 32.7-19.5c12.4 0 22.6 6.2 30.6 18.5v-16.6h51.5zm-51.4 68.4c0-11-1.9-19.8-5.8-26.1-3.8-6.4-8.9-9.5-15.4-9.5-6.9 0-12 3.3-15.6 9.7-3.5 6.6-5.2 15.1-5.2 25.4s1.7 18.5 5.4 25.1c3.8 6.6 8.7 9.8 15.3 9.8 5.8 0 10.8-3.1 15-9.1s6.3-14.6 6.3-25.3z"/><path d="M262 225c-36.1 0-65.4-29.3-65.4-65.4s29.3-65.4 65.4-65.4c36.1 0 65.4 29.3 65.4 65.4.1 36.1-29.1 65.3-65.2 65.4h-.2z" fill="#161617"/><linearGradient id="a" gradientUnits="userSpaceOnUse" x1="297.247" y1="221.882" x2="236.107" y2="269.442" gradientTransform="matrix(1 0 0 -1 -7.89 402.96)"><stop offset="0" stop-color="#d5dbd9"/><stop offset=".16" stop-color="#dee2e0"/><stop offset=".37" stop-color="#cfd4d3"/><stop offset=".64" stop-color="#b6bdbf"/><stop offset=".8" stop-color="#221e20"/><stop offset=".93" stop-color="#a7adb5"/><stop offset="1" stop-color="#fff"/></linearGradient><path d="M262 126c-18.6-.1-33.7 15-33.8 33.6s15 33.7 33.6 33.8c18.6.1 33.7-15 33.8-33.6v-.1c-.1-18.6-15.1-33.6-33.6-33.7zm0 64.5c-17.1 0-30.9-13.9-30.8-31 0-17.1 13.9-30.9 31-30.8 17.1 0 30.8 13.9 30.8 31 0 17-13.9 30.8-31 30.8z" opacity=".2" fill="url(#a)"/><linearGradient id="b" gradientUnits="userSpaceOnUse" x1="310.148" y1="197.03" x2="229.578" y2="290.171" gradientTransform="matrix(1 0 0 -1 -7.89 402.96)"><stop offset="0" stop-color="#e8eae8"/><stop offset=".06" stop-color="#e4e6e4"/><stop offset=".4" stop-color="#cfd5d3"/><stop offset=".62" stop-color="#c8cfcd"/><stop offset=".71" stop-color="#d1d6d4"/><stop offset="1" stop-color="#e8eae8"/></linearGradient><path d="M262 96.6c-34.8.1-62.9 28.4-62.8 63.2.1 34.8 28.4 62.9 63.2 62.8 34.7-.1 62.8-28.3 62.8-63s-28.1-63-62.8-63h-.4zm0 123.2c-33.2 0-60.1-26.9-60.1-60.1s26.9-60.1 60.1-60.1 60.1 26.9 60.1 60c.1 33.2-26.8 60.1-60 60.2h-.1z" opacity=".36" fill="url(#b)"/><linearGradient id="c" gradientUnits="userSpaceOnUse" x1="305.822" y1="196.335" x2="233.052" y2="291.315" gradientTransform="matrix(1 0 0 -1 -7.89 402.96)"><stop offset=".01" stop-color="#ececeb"/><stop offset=".2" stop-color="#b8b9b8"/><stop offset=".6" stop-color="#585859"/><stop offset=".87" stop-color="#1b1c1d"/><stop offset="1" stop-color="#030406"/></linearGradient><path d="M262 99.6c-33.2 0-60.1 26.9-60.1 60.1s26.9 60.1 60.1 60.1 60.1-26.9 60.1-60.1v-.1c0-33.1-26.9-60-60-60h-.1zm0 116.5c-31.2 0-56.5-25.2-56.5-56.4s25.2-56.5 56.4-56.5 56.5 25.2 56.5 56.4-25.3 56.5-56.4 56.5z" opacity=".63" fill="url(#c)"/><linearGradient id="d" gradientUnits="userSpaceOnUse" x1="292.488" y1="208.677" x2="241.638" y2="286.557" gradientTransform="matrix(1 0 0 -1 -7.89 402.96)"><stop offset=".01" stop-color="#ececeb"/><stop offset=".2" stop-color="#b8b9b8"/><stop offset=".6" stop-color="#585859"/><stop offset=".87" stop-color="#1b1c1d"/><stop offset="1" stop-color="#030406"/></linearGradient><path d="M262 103.2c-31.2 0-56.5 25.2-56.5 56.4s25.2 56.5 56.4 56.5 56.5-25.2 56.5-56.4v-.1c.1-31.1-25-56.3-56.1-56.4h-.3zm0 106.3c-27.5 0-49.9-22.4-49.8-49.9 0-27.5 22.4-49.9 49.9-49.8 27.5 0 49.8 22.3 49.8 49.8 0 27.6-22.3 49.9-49.9 49.9z" opacity=".8" fill="url(#d)"/><linearGradient id="e" gradientUnits="userSpaceOnUse" x1="232.47" y1="217.306" x2="306.281" y2="268.647" gradientTransform="matrix(1 0 0 -1 -7.89 402.96)"><stop offset="0" stop-color="#1b1b1f"/><stop offset=".13" stop-color="#3e4043"/><stop offset=".43" stop-color="#979d9e"/><stop offset=".55" stop-color="#bdc5c5"/><stop offset=".59" stop-color="#9fa5a6"/><stop offset=".66" stop-color="#767a7c"/><stop offset=".73" stop-color="#545659"/><stop offset=".79" stop-color="#3a3b3e"/><stop offset=".86" stop-color="#27272a"/><stop offset=".93" stop-color="#1c1b1f"/><stop offset="1" stop-color="#18171b"/></linearGradient><path d="M262 112.1c-26.3 0-47.6 21.3-47.6 47.5 0 26.3 21.3 47.6 47.6 47.6s47.6-21.3 47.6-47.5c.1-26.2-21.1-47.5-47.3-47.6h-.3zm0 88.2c-22.5 0-40.7-18.1-40.7-40.6s18.1-40.7 40.6-40.7 40.7 18.1 40.7 40.6-18.2 40.7-40.6 40.7z" opacity=".36" fill="url(#e)"/><linearGradient id="f" gradientUnits="userSpaceOnUse" x1="297.18" y1="216.634" x2="241.28" y2="271.204" gradientTransform="matrix(1 0 0 -1 -7.89 402.96)"><stop offset="0" stop-color="#d5dbd9"/><stop offset=".16" stop-color="#dee2e0"/><stop offset=".37" stop-color="#cfd4d3"/><stop offset=".64" stop-color="#b6bdbf"/><stop offset=".8" stop-color="#221e20"/><stop offset=".93" stop-color="#a7adb5"/><stop offset="1" stop-color="#fff"/></linearGradient><path d="M262 121.5c-21.1 0-38.2 17.1-38.2 38.2s17.1 38.2 38.2 38.2 38.2-17.1 38.2-38.2c-.1-21.1-17.1-38.2-38.2-38.2zm0 74.5c-20.1-.1-36.3-16.4-36.2-36.5.1-20.1 16.4-36.3 36.5-36.2 20 .1 36.2 16.3 36.2 36.3 0 20.1-16.2 36.4-36.3 36.4h-.2z" opacity=".6" fill="url(#f)"/><image width="141" height="140" xlink:href="BD5102CAF4692770.png" transform="translate(191.815 90.257) scale(.9929)" overflow="visible"/><path d="M262 134.4c13.9-.1 25.2 11.2 25.3 25.1.1 13.9-11.2 25.2-25.1 25.3-13.9.1-25.2-11.2-25.3-25.1-.1-13.8 10.9-25.1 24.7-25.3h.4m0-.1c-14 0-25.3 11.4-25.2 25.4 0 6.7 2.7 13.1 7.4 17.8 9.7 9.9 25.6 10 35.5.2 4.8-4.8 7.5-11.3 7.5-18 .1-6.7-2.6-13.2-7.3-18-4.7-4.8-11.2-7.5-17.9-7.4z" fill="#f0f2f1" opacity=".15"/><linearGradient id="g" gradientUnits="userSpaceOnUse" x1="257.207" y1="254.695" x2="284.517" y2="230.325" gradientTransform="matrix(1 0 0 -1 -7.89 402.96)"><stop offset=".01" stop-color="#ececeb"/><stop offset=".2" stop-color="#b8b9b8"/><stop offset=".6" stop-color="#585859"/><stop offset=".87" stop-color="#1b1c1d"/><stop offset="1" stop-color="#030406"/></linearGradient><path d="M284.6 159.6c0 12.5-10.2 22.6-22.6 22.5-12.5 0-22.6-10.2-22.5-22.6 0-12.5 10.1-22.5 22.6-22.5 12.5 0 22.6 10 22.6 22.5-.1 0-.1.1-.1.1z" opacity=".8" fill="url(#g)"/><linearGradient id="h" gradientUnits="userSpaceOnUse" x1="252.26" y1="222.359" x2="312.97" y2="294.319" gradientTransform="matrix(1 0 0 -1 -7.89 402.96)"><stop offset="0" stop-color="#1b1b1f"/><stop offset=".13" stop-color="#3e4043"/><stop offset=".43" stop-color="#979d9e"/><stop offset=".55" stop-color="#bdc5c5"/><stop offset=".59" stop-color="#9fa5a6"/><stop offset=".66" stop-color="#767a7c"/><stop offset=".73" stop-color="#545659"/><stop offset=".79" stop-color="#3a3b3e"/><stop offset=".86" stop-color="#27272a"/><stop offset=".93" stop-color="#1c1b1f"/><stop offset="1" stop-color="#18171b"/></linearGradient><path d="M280.1 159.6c0 10-8 18.1-18 18.2-10 0-18.1-8-18.2-18 0-10 8-18.1 18-18.2h.1c9.9.1 18 8.1 18.1 18z" opacity=".15" fill="url(#h)"/><linearGradient id="i" gradientUnits="userSpaceOnUse" x1="263.309" y1="250.094" x2="274.029" y2="239.114" gradientTransform="matrix(1 0 0 -1 -7.89 402.96)"><stop offset="0" stop-color="#fff"/><stop offset="1"/></linearGradient><path d="M276.9 159.6c0 8.2-6.7 14.9-14.9 14.9s-14.9-6.7-14.9-14.9 6.7-14.9 14.9-14.9c8.2-.1 14.8 6.5 14.9 14.6v.3z" opacity=".06" fill="url(#i)"/><path d="M262 219.8c-33.2 0-60.1-26.9-60.1-60.1s26.9-60.1 60.1-60.1 60.1 26.9 60.1 60c.1 33.2-26.8 60.1-60 60.2h-.1z" opacity=".8" fill="none" stroke="#e9ecea" stroke-width=".03"/><path d="M262 219.8c-33.2 0-60.1-26.9-60.1-60.1s26.9-60.1 60.1-60.1 60.1 26.9 60.1 60c.1 33.2-26.8 60.1-60 60.2h-.1z" opacity=".27" fill="none" stroke="#f0f2f1" stroke-width=".03"/><linearGradient id="j" gradientUnits="userSpaceOnUse" x1="293.25" y1="214.851" x2="247.51" y2="270.491" gradientTransform="matrix(1 0 0 -1 -7.89 402.96)"><stop offset="0" stop-color="#d5dbd9"/><stop offset=".16" stop-color="#dee2e0"/><stop offset=".37" stop-color="#cfd4d3"/><stop offset=".55" stop-color="#b6bdbf"/><stop offset=".69" stop-color="#221e20"/><stop offset=".84" stop-color="#a7adb5"/><stop offset=".87" stop-color="#c6cacf"/><stop offset=".9" stop-color="#dfe1e4"/><stop offset=".93" stop-color="#f1f2f3"/><stop offset=".96" stop-color="#fcfcfc"/><stop offset="1" stop-color="#fff"/></linearGradient><path d="M262 121.5c-21.1 0-38.2 17.1-38.2 38.2s17.1 38.2 38.2 38.2 38.2-17.1 38.2-38.2c-.1-21.1-17.1-38.2-38.2-38.2zm0 74.5c-20.1-.1-36.3-16.4-36.2-36.5.1-20.1 16.4-36.3 36.5-36.2 20 .1 36.2 16.3 36.2 36.3 0 20.1-16.2 36.4-36.3 36.4h-.2z" fill="url(#j)"/><linearGradient id="k" gradientUnits="userSpaceOnUse" x1="305.893" y1="199.643" x2="263.293" y2="251.203" gradientTransform="matrix(1 0 0 -1 -7.89 402.96)"><stop offset="0" stop-color="#fff"/><stop offset=".15" stop-color="#c4c4c4"/><stop offset=".32" stop-color="#898989"/><stop offset=".49" stop-color="#585858"/><stop offset=".64" stop-color="#323232"/><stop offset=".78" stop-color="#161616"/><stop offset=".91" stop-color="#060606"/><stop offset="1"/></linearGradient><path d="M262 119c-22.5 0-40.7 18.1-40.7 40.6s18.1 40.7 40.6 40.7 40.7-18.1 40.7-40.6v-.1c0-22.4-18.2-40.6-40.6-40.6zm0 78.8c-21.1 0-38.2-17.1-38.2-38.2s17.1-38.2 38.2-38.2 38.2 17.1 38.2 38.2c-.1 21.1-17.1 38.2-38.2 38.2z" opacity=".7" fill="url(#k)"/><path d="M262 200.3c-22.5 0-40.7-18.1-40.7-40.6s18.1-40.7 40.6-40.7 40.7 18.1 40.7 40.6c0 0 0 0 0 0 0 22.5-18.2 40.7-40.6 40.7z" opacity=".7" fill="none" stroke="#221e20" stroke-width=".05"/><path d="M262 197.8c-21.1 0-38.2-17.1-38.2-38.2s17.1-38.2 38.2-38.2 38.2 17.1 38.2 38.2-17.1 38.2-38.2 38.2z" opacity=".8" fill="none" stroke="#000" stroke-width=".05"/><path d="M253.1 137c1.1 1.4-.5 4.7-3.5 7.2s-6.4 3.4-7.8 2.1c-1.1-1.4.4-4.6 3.4-7.1s6.7-3.6 7.9-2.2z" opacity=".4" fill="#fff"/><path d="M271.3 166.7c.7.7.2 1.6-.8 2.4-.8.8-1.8.9-2.4.3-.3-.9 0-1.8.8-2.4.8-.7 2.1-1 2.4-.3z" opacity=".2" fill="#fff"/><path d="M257 147.7c.8 1.1-.2 2.8-2.1 4.5-1.8 1.7-4 2.2-4.6 1.4s.1-2.8 1.8-4.4c2.1-1.8 4.1-2.4 4.9-1.5z" opacity=".1" fill="#fff"/><linearGradient id="l" gradientUnits="userSpaceOnUse" x1="313.836" y1="185.268" x2="226.426" y2="301.018" gradientTransform="matrix(1 0 0 -1 -7.89 402.96)"><stop offset="0" stop-color="#c8cfcd"/><stop offset=".08" stop-color="#d1d6d4"/><stop offset=".33" stop-color="#e8eae8"/><stop offset=".62" stop-color="#c8cfcd"/><stop offset=".67" stop-color="#d1d6d4"/><stop offset=".82" stop-color="#e8eae8"/><stop offset="1" stop-color="#c8cfcd"/></linearGradient><path d="M262 84.3c-41.6.1-75.3 33.9-75.2 75.5.1 41.6 33.9 75.3 75.5 75.2 41.6-.1 75.2-33.8 75.2-75.4 0-41.6-33.7-75.3-75.3-75.3h-.2zm0 140.7c-36.1 0-65.4-29.3-65.4-65.4s29.3-65.4 65.4-65.4c36.1 0 65.4 29.3 65.4 65.4 0 36.1-29.1 65.3-65.2 65.4h-.2z" fill="url(#l)"/><linearGradient id="m" gradientUnits="userSpaceOnUse" x1="315.435" y1="183.152" x2="224.612" y2="303.42" gradientTransform="matrix(1 0 0 -1 -7.89 402.96)"><stop offset="0" stop-color="#221e20"/><stop offset=".03" stop-color="#383536"/><stop offset=".18" stop-color="#969595"/><stop offset=".28" stop-color="#d1d2d1"/><stop offset=".33" stop-color="#e8eae8"/><stop offset=".62" stop-color="#ececec"/><stop offset=".82" stop-color="#e8eae8"/><stop offset="1" stop-color="#221e20"/></linearGradient><path d="M262 84.3c-41.6.1-75.3 33.9-75.2 75.5.1 41.6 33.9 75.3 75.5 75.2 41.6-.1 75.2-33.8 75.2-75.4 0-41.6-33.7-75.3-75.3-75.3h-.2zm0 140.7c-36.1 0-65.4-29.3-65.4-65.4s29.3-65.4 65.4-65.4c36.1 0 65.4 29.3 65.4 65.4 0 36.1-29.1 65.3-65.2 65.4h-.2 0z" fill="url(#m)" stroke="#e8eae8" stroke-width=".03"/><path d="M262 225c-36.1 0-65.4-29.3-65.4-65.4s29.3-65.4 65.4-65.4c36.1 0 65.4 29.3 65.4 65.4.1 36.1-29.1 65.3-65.2 65.4h-.2z" fill="none" stroke="#e8eae8" stroke-width=".03"/><path d="M262 226c-36.6 0-66.2-29.7-66.2-66.2s29.7-66.2 66.2-66.2 66.1 29.6 66.2 66.1c.1 36.6-29.6 66.3-66.2 66.3 0 0 0 0 0 0z" opacity=".2" fill="none" stroke="#f0f2f1" stroke-width=".08"/></svg>