<svg id="Layer_1" data-name="Layer 1" xmlns="http://www.w3.org/2000/svg" viewBox="0 0 317.68 275.37"><defs><style>.cls-1{fill:#1d1d1b;}</style></defs><title>Logo_EmporioPaula_corto_RGB</title><path class="cls-1" d="M162.39,205.13h25.38V159.66H217.7c26.71,0,45.47-17.24,45.47-43.94,0-26.15-15.54-45.48-47.17-45.48H162.39ZM187.77,91.47H212c14.58,0,24.62,5.49,24.62,24.25,0,13.25-7.76,22.72-23.67,22.72h-25.2Z"/><path class="cls-1" d="M54.52,75.62A3.49,3.49,0,0,1,58,72.13h73.61a3.48,3.48,0,0,1,3.49,3.49v10.3a3.49,3.49,0,0,1-3.49,3.5H73.48V127h49.13a3.62,3.62,0,0,1,3.5,3.5v10.3a3.5,3.5,0,0,1-3.5,3.51H73.48v39.56h58.15a3.49,3.49,0,0,1,3.49,3.49v10.13a3.48,3.48,0,0,1-3.49,3.49H58a3.49,3.49,0,0,1-3.5-3.49Z"/></svg>