<svg id="Layer_1" data-name="Layer 1" xmlns="http://www.w3.org/2000/svg" viewBox="0 0 389.75 371.37"><title>Logo_MasDecoMarket_corto_01_RGB</title><polygon points="177.34 61.05 127.08 61.05 127.08 183.97 163.24 183.97 163.24 138.78 162.34 117.99 162.7 117.99 179.51 165.9 206.62 165.9 223.43 117.99 223.79 117.99 222.89 138.78 222.89 183.97 262.66 183.97 262.66 61.05 211.5 61.05 202.46 89.97 195.78 114.56 195.41 114.56 187.65 89.97 177.34 61.05"/><path d="M127.09,310.32V207.59H140.7L181,265.84l39.89-58.25h13.91V310.32H214.24V252.08L184.36,295h-7.09l-29.89-42.95v58.24Z"/></svg>