<?xml version="1.0" encoding="utf-8"?>
<!-- Generator: Adobe Illustrator 23.0.1, SVG Export Plug-In . SVG Version: 6.00 Build 0)  -->
<svg version="1.1" id="Layer_1" xmlns="http://www.w3.org/2000/svg" xmlns:xlink="http://www.w3.org/1999/xlink" x="0px" y="0px"
	 viewBox="0 0 396 396" style="enable-background:new 0 0 396 396;" xml:space="preserve">
<style type="text/css">
	.st0{fill:#161617;}
	.st1{opacity:0.2;fill:url(#SVGID_1_);enable-background:new    ;}
	.st2{opacity:0.36;fill:url(#SVGID_2_);enable-background:new    ;}
	.st3{opacity:0.63;fill:url(#SVGID_3_);enable-background:new    ;}
	.st4{opacity:0.8;fill:url(#SVGID_4_);enable-background:new    ;}
	.st5{opacity:0.36;fill:url(#SVGID_5_);enable-background:new    ;}
	.st6{opacity:0.6;fill:url(#SVGID_6_);enable-background:new    ;}
	.st7{opacity:0.15;}
	.st8{fill:#F0F2F1;}
	.st9{opacity:0.8;fill:url(#SVGID_7_);enable-background:new    ;}
	.st10{opacity:0.15;fill:url(#SVGID_8_);enable-background:new    ;}
	.st11{opacity:6.000000e-02;fill:url(#SVGID_9_);enable-background:new    ;}
	.st12{opacity:0.8;fill:none;stroke:#E9ECEA;stroke-width:3.000000e-02;enable-background:new    ;}
	.st13{opacity:0.27;fill:none;stroke:#F0F2F1;stroke-width:3.000000e-02;enable-background:new    ;}
	.st14{fill:url(#SVGID_10_);}
	.st15{opacity:0.7;fill:url(#SVGID_11_);enable-background:new    ;}
	.st16{opacity:0.7;fill:none;stroke:#221E20;stroke-width:5.000000e-02;enable-background:new    ;}
	.st17{opacity:0.8;fill:none;stroke:#000000;stroke-width:5.000000e-02;enable-background:new    ;}
	.st18{opacity:0.4;fill:#FFFFFF;enable-background:new    ;}
	.st19{opacity:0.2;fill:#FFFFFF;enable-background:new    ;}
	.st20{opacity:0.1;fill:#FFFFFF;enable-background:new    ;}
	.st21{fill:url(#SVGID_12_);}
	.st22{fill:url(#SVGID_13_);stroke:#E8EAE8;stroke-width:3.000000e-02;}
	.st23{fill:none;stroke:#E8EAE8;stroke-width:3.000000e-02;}
	.st24{opacity:0.2;fill:none;stroke:#F0F2F1;stroke-width:8.000000e-02;enable-background:new    ;}
</style>
<title>Logo_Glamorama_corto_02_RGB</title>
<g>
	<g>
		<path d="M186.7,113.5v31.3h-17.6v100.3c0,44.8-18.3,67.2-55.5,67.2c-21.2,0-37-5-47.5-14.6L82.6,269c8.6,6.6,17.2,10,25.9,10
			c7.6,0,13.7-2.3,19-7.5c5.2-4.9,7.6-14.4,7.6-28.8v-10.5c-11,12.6-21.8,18.9-32.2,18.9c-12.4,0-22.7-6.4-31.3-19.8
			c-8.8-13-13.2-29.7-13.1-50.2S62.8,144,71.9,131s19.9-19.5,32.7-19.5c12.4,0,22.6,6.2,30.6,18.5v-16.6H186.7z M135.3,181.9
			c0-11-1.9-19.8-5.8-26.1c-3.8-6.4-8.9-9.5-15.4-9.5c-6.9,0-12,3.3-15.6,9.7c-3.5,6.6-5.2,15.1-5.2,25.4s1.7,18.5,5.4,25.1
			c3.8,6.6,8.7,9.8,15.3,9.8c5.8,0,10.8-3.1,15-9.1S135.3,192.6,135.3,181.9L135.3,181.9z"/>
		<path class="st0" d="M262,225c-36.1,0-65.4-29.3-65.4-65.4s29.3-65.4,65.4-65.4c36.1,0,65.4,29.3,65.4,65.4
			c0.1,36.1-29.1,65.3-65.2,65.4C262.1,225,262.1,225,262,225z"/>
		
			<linearGradient id="SVGID_1_" gradientUnits="userSpaceOnUse" x1="297.2469" y1="221.8824" x2="236.1069" y2="269.4424" gradientTransform="matrix(1 0 0 -1 -7.89 402.96)">
			<stop  offset="0" style="stop-color:#D5DBD9"/>
			<stop  offset="0.16" style="stop-color:#DEE2E0"/>
			<stop  offset="0.37" style="stop-color:#CFD4D3"/>
			<stop  offset="0.64" style="stop-color:#B6BDBF"/>
			<stop  offset="0.8" style="stop-color:#221E20"/>
			<stop  offset="0.93" style="stop-color:#A7ADB5"/>
			<stop  offset="1" style="stop-color:#FFFFFF"/>
		</linearGradient>
		<path class="st1" d="M262,126c-18.6-0.1-33.7,15-33.8,33.6s15,33.7,33.6,33.8c18.6,0.1,33.7-15,33.8-33.6c0,0,0-0.1,0-0.1
			C295.5,141.1,280.5,126.1,262,126z M262,190.5c-17.1,0-30.9-13.9-30.8-31c0-17.1,13.9-30.9,31-30.8c17.1,0,30.8,13.9,30.8,31
			C293,176.7,279.1,190.5,262,190.5C262,190.5,262,190.5,262,190.5L262,190.5z"/>
		
			<linearGradient id="SVGID_2_" gradientUnits="userSpaceOnUse" x1="310.1481" y1="197.0305" x2="229.5781" y2="290.1705" gradientTransform="matrix(1 0 0 -1 -7.89 402.96)">
			<stop  offset="0" style="stop-color:#E8EAE8"/>
			<stop  offset="6.000000e-02" style="stop-color:#E4E6E4"/>
			<stop  offset="0.4" style="stop-color:#CFD5D3"/>
			<stop  offset="0.62" style="stop-color:#C8CFCD"/>
			<stop  offset="0.71" style="stop-color:#D1D6D4"/>
			<stop  offset="1" style="stop-color:#E8EAE8"/>
		</linearGradient>
		<path class="st2" d="M262,96.6c-34.8,0.1-62.9,28.4-62.8,63.2c0.1,34.8,28.4,62.9,63.2,62.8c34.7-0.1,62.8-28.3,62.8-63
			c0-34.7-28.1-63-62.8-63C262.2,96.6,262.1,96.6,262,96.6z M262,219.8c-33.2,0-60.1-26.9-60.1-60.1s26.9-60.1,60.1-60.1
			c33.2,0,60.1,26.9,60.1,60c0.1,33.2-26.8,60.1-60,60.2C262.1,219.8,262,219.8,262,219.8z"/>
		
			<linearGradient id="SVGID_3_" gradientUnits="userSpaceOnUse" x1="305.8223" y1="196.335" x2="233.0523" y2="291.3149" gradientTransform="matrix(1 0 0 -1 -7.89 402.96)">
			<stop  offset="1.000000e-02" style="stop-color:#ECECEB"/>
			<stop  offset="0.2" style="stop-color:#B8B9B8"/>
			<stop  offset="0.6" style="stop-color:#585859"/>
			<stop  offset="0.87" style="stop-color:#1B1C1D"/>
			<stop  offset="1" style="stop-color:#030406"/>
		</linearGradient>
		<path class="st3" d="M262,99.6c-33.2,0-60.1,26.9-60.1,60.1c0,33.2,26.9,60.1,60.1,60.1c33.2,0,60.1-26.9,60.1-60.1
			c0,0,0-0.1,0-0.1c0-33.1-26.9-60-60-60C262.1,99.6,262,99.6,262,99.6z M262,216.1c-31.2,0-56.5-25.2-56.5-56.4
			c0-31.2,25.2-56.5,56.4-56.5s56.5,25.2,56.5,56.4c0,0,0,0,0,0C318.4,190.8,293.1,216.1,262,216.1z"/>
		
			<linearGradient id="SVGID_4_" gradientUnits="userSpaceOnUse" x1="292.4877" y1="208.6765" x2="241.6377" y2="286.5565" gradientTransform="matrix(1 0 0 -1 -7.89 402.96)">
			<stop  offset="1.000000e-02" style="stop-color:#ECECEB"/>
			<stop  offset="0.2" style="stop-color:#B8B9B8"/>
			<stop  offset="0.6" style="stop-color:#585859"/>
			<stop  offset="0.87" style="stop-color:#1B1C1D"/>
			<stop  offset="1" style="stop-color:#030406"/>
		</linearGradient>
		<path class="st4" d="M262,103.2c-31.2,0-56.5,25.2-56.5,56.4s25.2,56.5,56.4,56.5s56.5-25.2,56.5-56.4c0,0,0,0,0-0.1
			c0.1-31.1-25-56.3-56.1-56.4C262.2,103.2,262.1,103.2,262,103.2z M262,209.5c-27.5,0-49.9-22.4-49.8-49.9
			c0-27.5,22.4-49.9,49.9-49.8c27.5,0,49.8,22.3,49.8,49.8C311.9,187.2,289.6,209.5,262,209.5C262,209.5,262,209.5,262,209.5
			L262,209.5z"/>
		
			<linearGradient id="SVGID_5_" gradientUnits="userSpaceOnUse" x1="232.4705" y1="217.3065" x2="306.2805" y2="268.6465" gradientTransform="matrix(1 0 0 -1 -7.89 402.96)">
			<stop  offset="0" style="stop-color:#1B1B1F"/>
			<stop  offset="0.13" style="stop-color:#3E4043"/>
			<stop  offset="0.43" style="stop-color:#979D9E"/>
			<stop  offset="0.55" style="stop-color:#BDC5C5"/>
			<stop  offset="0.59" style="stop-color:#9FA5A6"/>
			<stop  offset="0.66" style="stop-color:#767A7C"/>
			<stop  offset="0.73" style="stop-color:#545659"/>
			<stop  offset="0.79" style="stop-color:#3A3B3E"/>
			<stop  offset="0.86" style="stop-color:#27272A"/>
			<stop  offset="0.93" style="stop-color:#1C1B1F"/>
			<stop  offset="1" style="stop-color:#18171B"/>
		</linearGradient>
		<path class="st5" d="M262,112.1c-26.3,0-47.6,21.3-47.6,47.5c0,26.3,21.3,47.6,47.6,47.6c26.3,0,47.6-21.3,47.6-47.5c0,0,0,0,0,0
			c0.1-26.2-21.1-47.5-47.3-47.6C262.2,112.1,262.1,112.1,262,112.1z M262,200.3c-22.5,0-40.7-18.1-40.7-40.6s18.1-40.7,40.6-40.7
			c22.5,0,40.7,18.1,40.7,40.6c0,0,0,0,0,0C302.6,182.1,284.4,200.3,262,200.3z"/>
		
			<linearGradient id="SVGID_6_" gradientUnits="userSpaceOnUse" x1="297.1797" y1="216.6337" x2="241.2797" y2="271.2037" gradientTransform="matrix(1 0 0 -1 -7.89 402.96)">
			<stop  offset="0" style="stop-color:#D5DBD9"/>
			<stop  offset="0.16" style="stop-color:#DEE2E0"/>
			<stop  offset="0.37" style="stop-color:#CFD4D3"/>
			<stop  offset="0.64" style="stop-color:#B6BDBF"/>
			<stop  offset="0.8" style="stop-color:#221E20"/>
			<stop  offset="0.93" style="stop-color:#A7ADB5"/>
			<stop  offset="1" style="stop-color:#FFFFFF"/>
		</linearGradient>
		<path class="st6" d="M262,121.5c-21.1,0-38.2,17.1-38.2,38.2c0,21.1,17.1,38.2,38.2,38.2s38.2-17.1,38.2-38.2c0,0,0,0,0,0
			C300.1,138.6,283.1,121.5,262,121.5z M262,196c-20.1-0.1-36.3-16.4-36.2-36.5c0.1-20.1,16.4-36.3,36.5-36.2
			c20,0.1,36.2,16.3,36.2,36.3c0,20.1-16.2,36.4-36.3,36.4C262.1,196,262.1,196,262,196L262,196z"/>
		<g>
			
				<image style="overflow:visible;enable-background:new    ;" width="141" height="140" xlink:href="BD5102CAF4692770.png"  transform="matrix(0.9929 0 0 0.9929 191.815 90.2565)">
			</image>
		</g>
		<g class="st7">
			<path class="st8" d="M262,134.4c13.9-0.1,25.2,11.2,25.3,25.1c0.1,13.9-11.2,25.2-25.1,25.3c-13.9,0.1-25.2-11.2-25.3-25.1
				c0,0,0,0,0,0c-0.1-13.8,10.9-25.1,24.7-25.3C261.7,134.4,261.9,134.4,262,134.4 M262,134.3c-14,0-25.3,11.4-25.2,25.4
				c0,6.7,2.7,13.1,7.4,17.8c9.7,9.9,25.6,10,35.5,0.2c4.8-4.8,7.5-11.3,7.5-18c0.1-6.7-2.6-13.2-7.3-18
				C275.2,136.9,268.7,134.2,262,134.3L262,134.3z"/>
		</g>
		
			<linearGradient id="SVGID_7_" gradientUnits="userSpaceOnUse" x1="257.2068" y1="254.6945" x2="284.5168" y2="230.3245" gradientTransform="matrix(1 0 0 -1 -7.89 402.96)">
			<stop  offset="1.000000e-02" style="stop-color:#ECECEB"/>
			<stop  offset="0.2" style="stop-color:#B8B9B8"/>
			<stop  offset="0.6" style="stop-color:#585859"/>
			<stop  offset="0.87" style="stop-color:#1B1C1D"/>
			<stop  offset="1" style="stop-color:#030406"/>
		</linearGradient>
		<path class="st9" d="M284.6,159.6c0,12.5-10.2,22.6-22.6,22.5c-12.5,0-22.6-10.2-22.5-22.6c0-12.5,10.1-22.5,22.6-22.5
			c12.5,0,22.6,10,22.6,22.5C284.6,159.5,284.6,159.6,284.6,159.6z"/>
		
			<linearGradient id="SVGID_8_" gradientUnits="userSpaceOnUse" x1="252.2601" y1="222.3588" x2="312.9701" y2="294.3188" gradientTransform="matrix(1 0 0 -1 -7.89 402.96)">
			<stop  offset="0" style="stop-color:#1B1B1F"/>
			<stop  offset="0.13" style="stop-color:#3E4043"/>
			<stop  offset="0.43" style="stop-color:#979D9E"/>
			<stop  offset="0.55" style="stop-color:#BDC5C5"/>
			<stop  offset="0.59" style="stop-color:#9FA5A6"/>
			<stop  offset="0.66" style="stop-color:#767A7C"/>
			<stop  offset="0.73" style="stop-color:#545659"/>
			<stop  offset="0.79" style="stop-color:#3A3B3E"/>
			<stop  offset="0.86" style="stop-color:#27272A"/>
			<stop  offset="0.93" style="stop-color:#1C1B1F"/>
			<stop  offset="1" style="stop-color:#18171B"/>
		</linearGradient>
		<path class="st10" d="M280.1,159.6c0,10-8,18.1-18,18.2c-10,0-18.1-8-18.2-18c0-10,8-18.1,18-18.2c0,0,0,0,0.1,0
			C271.9,141.7,280,149.7,280.1,159.6z"/>
		
			<linearGradient id="SVGID_9_" gradientUnits="userSpaceOnUse" x1="263.3092" y1="250.0941" x2="274.0292" y2="239.1141" gradientTransform="matrix(1 0 0 -1 -7.89 402.96)">
			<stop  offset="0" style="stop-color:#FFFFFF"/>
			<stop  offset="1" style="stop-color:#000000"/>
		</linearGradient>
		<path class="st11" d="M276.9,159.6c0,8.2-6.7,14.9-14.9,14.9c-8.2,0-14.9-6.7-14.9-14.9c0-8.2,6.7-14.9,14.9-14.9
			c8.2-0.1,14.8,6.5,14.9,14.6C276.9,159.5,276.9,159.5,276.9,159.6z"/>
		<path class="st12" d="M262,219.8c-33.2,0-60.1-26.9-60.1-60.1s26.9-60.1,60.1-60.1c33.2,0,60.1,26.9,60.1,60
			c0.1,33.2-26.8,60.1-60,60.2C262.1,219.8,262,219.8,262,219.8z"/>
		<path class="st13" d="M262,219.8c-33.2,0-60.1-26.9-60.1-60.1s26.9-60.1,60.1-60.1c33.2,0,60.1,26.9,60.1,60
			c0.1,33.2-26.8,60.1-60,60.2C262.1,219.8,262,219.8,262,219.8z"/>
		
			<linearGradient id="SVGID_10_" gradientUnits="userSpaceOnUse" x1="293.2498" y1="214.851" x2="247.5098" y2="270.491" gradientTransform="matrix(1 0 0 -1 -7.89 402.96)">
			<stop  offset="0" style="stop-color:#D5DBD9"/>
			<stop  offset="0.16" style="stop-color:#DEE2E0"/>
			<stop  offset="0.37" style="stop-color:#CFD4D3"/>
			<stop  offset="0.55" style="stop-color:#B6BDBF"/>
			<stop  offset="0.69" style="stop-color:#221E20"/>
			<stop  offset="0.84" style="stop-color:#A7ADB5"/>
			<stop  offset="0.87" style="stop-color:#C6CACF"/>
			<stop  offset="0.9" style="stop-color:#DFE1E4"/>
			<stop  offset="0.93" style="stop-color:#F1F2F3"/>
			<stop  offset="0.96" style="stop-color:#FCFCFC"/>
			<stop  offset="1" style="stop-color:#FFFFFF"/>
		</linearGradient>
		<path class="st14" d="M262,121.5c-21.1,0-38.2,17.1-38.2,38.2c0,21.1,17.1,38.2,38.2,38.2s38.2-17.1,38.2-38.2c0,0,0,0,0,0
			C300.1,138.6,283.1,121.5,262,121.5z M262,196c-20.1-0.1-36.3-16.4-36.2-36.5c0.1-20.1,16.4-36.3,36.5-36.2
			c20,0.1,36.2,16.3,36.2,36.3c0,20.1-16.2,36.4-36.3,36.4C262.1,196,262.1,196,262,196L262,196z"/>
		
			<linearGradient id="SVGID_11_" gradientUnits="userSpaceOnUse" x1="305.8928" y1="199.6434" x2="263.2928" y2="251.2034" gradientTransform="matrix(1 0 0 -1 -7.89 402.96)">
			<stop  offset="0" style="stop-color:#FFFFFF"/>
			<stop  offset="0.15" style="stop-color:#C4C4C4"/>
			<stop  offset="0.32" style="stop-color:#898989"/>
			<stop  offset="0.49" style="stop-color:#585858"/>
			<stop  offset="0.64" style="stop-color:#323232"/>
			<stop  offset="0.78" style="stop-color:#161616"/>
			<stop  offset="0.91" style="stop-color:#060606"/>
			<stop  offset="1" style="stop-color:#000000"/>
		</linearGradient>
		<path class="st15" d="M262,119c-22.5,0-40.7,18.1-40.7,40.6c0,22.5,18.1,40.7,40.6,40.7c22.5,0,40.7-18.1,40.7-40.6
			c0,0,0-0.1,0-0.1C302.6,137.2,284.4,119,262,119C262,119,262,119,262,119z M262,197.8c-21.1,0-38.2-17.1-38.2-38.2
			c0-21.1,17.1-38.2,38.2-38.2c21.1,0,38.2,17.1,38.2,38.2C300.1,180.7,283.1,197.8,262,197.8L262,197.8z"/>
		<path class="st16" d="M262,200.3c-22.5,0-40.7-18.1-40.7-40.6s18.1-40.7,40.6-40.7c22.5,0,40.7,18.1,40.7,40.6c0,0,0,0,0,0
			C302.6,182.1,284.4,200.3,262,200.3z"/>
		<path class="st17" d="M262,197.8c-21.1,0-38.2-17.1-38.2-38.2c0-21.1,17.1-38.2,38.2-38.2c21.1,0,38.2,17.1,38.2,38.2
			C300.2,180.7,283.1,197.8,262,197.8z"/>
		<path class="st18" d="M253.1,137c1.1,1.4-0.5,4.7-3.5,7.2s-6.4,3.4-7.8,2.1c-1.1-1.4,0.4-4.6,3.4-7.1S251.9,135.6,253.1,137z"/>
		<path class="st19" d="M271.3,166.7c0.7,0.7,0.2,1.6-0.8,2.4c-0.8,0.8-1.8,0.9-2.4,0.3c-0.3-0.9,0-1.8,0.8-2.4
			C269.7,166.3,271,166,271.3,166.7z"/>
		<path class="st20" d="M257,147.7c0.8,1.1-0.2,2.8-2.1,4.5c-1.8,1.7-4,2.2-4.6,1.4s0.1-2.8,1.8-4.4
			C254.2,147.4,256.2,146.8,257,147.7z"/>
		
			<linearGradient id="SVGID_12_" gradientUnits="userSpaceOnUse" x1="313.8358" y1="185.2684" x2="226.4258" y2="301.0184" gradientTransform="matrix(1 0 0 -1 -7.89 402.96)">
			<stop  offset="0" style="stop-color:#C8CFCD"/>
			<stop  offset="8.000000e-02" style="stop-color:#D1D6D4"/>
			<stop  offset="0.33" style="stop-color:#E8EAE8"/>
			<stop  offset="0.62" style="stop-color:#C8CFCD"/>
			<stop  offset="0.67" style="stop-color:#D1D6D4"/>
			<stop  offset="0.82" style="stop-color:#E8EAE8"/>
			<stop  offset="1" style="stop-color:#C8CFCD"/>
		</linearGradient>
		<path class="st21" d="M262,84.3c-41.6,0.1-75.3,33.9-75.2,75.5c0.1,41.6,33.9,75.3,75.5,75.2c41.6-0.1,75.2-33.8,75.2-75.4
			c0-41.6-33.7-75.3-75.3-75.3C262.1,84.3,262,84.3,262,84.3z M262,225c-36.1,0-65.4-29.3-65.4-65.4s29.3-65.4,65.4-65.4
			c36.1,0,65.4,29.3,65.4,65.4c0,36.1-29.1,65.3-65.2,65.4C262.1,225,262,225,262,225L262,225z"/>
		
			<linearGradient id="SVGID_13_" gradientUnits="userSpaceOnUse" x1="315.4345" y1="183.1524" x2="224.6115" y2="303.4199" gradientTransform="matrix(1 0 0 -1 -7.89 402.96)">
			<stop  offset="0" style="stop-color:#221E20"/>
			<stop  offset="3.000000e-02" style="stop-color:#383536"/>
			<stop  offset="0.18" style="stop-color:#969595"/>
			<stop  offset="0.28" style="stop-color:#D1D2D1"/>
			<stop  offset="0.33" style="stop-color:#E8EAE8"/>
			<stop  offset="0.62" style="stop-color:#ECECEC"/>
			<stop  offset="0.82" style="stop-color:#E8EAE8"/>
			<stop  offset="1" style="stop-color:#221E20"/>
		</linearGradient>
		<path class="st22" d="M262,84.3c-41.6,0.1-75.3,33.9-75.2,75.5c0.1,41.6,33.9,75.3,75.5,75.2c41.6-0.1,75.2-33.8,75.2-75.4
			c0-41.6-33.7-75.3-75.3-75.3C262.1,84.3,262,84.3,262,84.3z M262,225c-36.1,0-65.4-29.3-65.4-65.4s29.3-65.4,65.4-65.4
			c36.1,0,65.4,29.3,65.4,65.4c0,36.1-29.1,65.3-65.2,65.4C262.1,225,262,225,262,225L262,225z"/>
		<path class="st23" d="M262,225c-36.1,0-65.4-29.3-65.4-65.4s29.3-65.4,65.4-65.4c36.1,0,65.4,29.3,65.4,65.4
			c0.1,36.1-29.1,65.3-65.2,65.4C262.1,225,262.1,225,262,225z"/>
		<path class="st24" d="M262,226c-36.6,0-66.2-29.7-66.2-66.2s29.7-66.2,66.2-66.2c36.5,0,66.1,29.6,66.2,66.1
			C328.3,196.3,298.6,226,262,226C262,226,262,226,262,226z"/>
	</g>
</g>
</svg>
