<?xml version="1.0" encoding="utf-8"?>
<!-- Generator: Adobe Illustrator 23.0.1, SVG Export Plug-In . SVG Version: 6.00 Build 0)  -->
<svg version="1.1" id="Layer_1" xmlns="http://www.w3.org/2000/svg" xmlns:xlink="http://www.w3.org/1999/xlink" x="0px" y="0px"
	 viewBox="0 0 873.8 116.9" style="enable-background:new 0 0 873.8 116.9;" xml:space="preserve">
<style type="text/css">
	.st0{fill:#FFFFFF;}
</style>
<title>Logo_MtMotores_white_sinLT_RGB</title>
<path class="st0" d="M851.3,114.3c4.4-1.4,8.5-3.5,12.2-6.4c3.2-2.6,5.9-5.8,7.7-9.5c1.8-3.7,2.7-7.7,2.7-11.8v-0.3
	c0.1-3.6-0.6-7.1-1.9-10.4c-1.4-3.3-3.7-6.1-6.5-8.2c-3.7-2.8-7.8-4.9-12.1-6.5c-6-2.2-12.2-3.9-18.5-5.1
	c-5.9-1.1-11.7-2.6-17.4-4.6c-4-1.3-7.8-3.2-11.2-5.7c-2.6-1.8-4.7-4.3-6-7.2c-1.2-2.9-1.8-6-1.8-9.2v-0.3c0-3.3,0.8-6.6,2.3-9.6
	c1.6-3.2,3.9-5.9,6.7-8.2c3.1-2.5,6.6-4.4,10.4-5.7c4.3-1.4,8.9-2.1,13.5-2.1c6.7-0.1,13.4,1.1,19.7,3.5c6,2.2,11.6,5.3,16.8,9.1
	l2.3-2.9c-5.3-4-11.2-7.2-17.5-9.5c-6.7-2.3-13.8-3.5-20.9-3.5c-5-0.1-10,0.7-14.8,2.3c-4.2,1.4-8.1,3.5-11.6,6.2
	c-3.2,2.5-5.8,5.6-7.7,9.2c-1.8,3.5-2.8,7.3-2.8,11.2v0.3c-0.1,3.6,0.6,7.2,2.1,10.6c1.5,3.2,3.8,6,6.7,8.2c3.7,2.7,7.7,4.8,12,6.2
	c5.8,2,11.8,3.6,17.8,4.8c6,1.2,12,2.8,17.8,4.8c4.1,1.3,7.9,3.2,11.4,5.7c2.6,1.9,4.7,4.4,6,7.3c1.2,2.9,1.8,6.1,1.8,9.3v0.3
	c0,3.7-0.8,7.3-2.4,10.6c-1.6,3.3-4,6.2-6.9,8.5c-3.3,2.5-7,4.4-11,5.6c-4.7,1.4-9.5,2.1-14.4,2c-7.9,0.1-15.8-1.5-23.1-4.5
	c-7.2-3.1-13.8-7.5-19.4-12.9l-2.6,2.6c5.9,5.7,12.8,10.2,20.4,13.4c7.7,3.2,16,4.8,24.3,4.7C840.8,116.7,846.1,115.9,851.3,114.3"
	/>
<path class="st0" d="M711.1,59.8h8.8l0,0h63.2v-3.2h-72 M720,5.2H790V2h-78.9v3.2L720,5.2z M790.9,115v-3.2h-79.8v3.2H790.9z"/>
<path class="st0" d="M699.6,46.7c1.9-4,2.8-8.3,2.7-12.8v-0.3c0-8.6-2.7-15.6-8.1-21C687.2,5.5,676.4,2,661.8,2h-46.2v113h3.5V5.2
	h42.3c11.7,0,20.9,2.5,27.4,7.5c6.6,5,9.9,12,9.8,21.1v0.3c0,3.8-0.8,7.6-2.3,11.1c-1.6,3.5-4.1,6.6-7.2,9c-3.6,2.8-7.7,4.8-12.1,6
	c-5.2,1.5-10.6,2.2-16,2.2v3.2l0,0l37.5,49.4h4.4l-37.6-49.4c5.1-0.3,10.2-1.2,15-2.8c4.2-1.4,8.2-3.6,11.6-6.4
	C695.2,53.8,697.8,50.5,699.6,46.7"/>
<path class="st0" d="M552.2,0c-15.5-0.3-30.4,6.1-40.9,17.6c-4.9,5.4-8.7,11.7-11.3,18.6c-2.6,7.1-4,14.6-4,22.1v0.3
	c0,7.5,1.3,15,4,22.1c2.5,6.9,6.4,13.2,11.3,18.6c10.5,11.5,25.4,17.9,40.9,17.6c8,0.1,15.9-1.5,23.2-4.8c6.7-3,12.8-7.4,17.8-12.8
	c4.9-5.4,8.8-11.7,11.3-18.6c2.2-5.9,3.5-12.2,3.9-18.5h-3.6c-0.3,6-1.5,11.9-3.6,17.5c-4.8,13.1-14.6,23.7-27.3,29.5
	c-13.7,6.1-29.3,6-43-0.1c-6.3-2.9-12-7.1-16.7-12.2c-4.7-5.1-8.3-11.1-10.7-17.6c-2.5-6.7-3.8-13.7-3.8-20.8v-0.3
	c0-7.1,1.2-14.2,3.7-20.8c2.4-6.5,6-12.4,10.7-17.5c4.7-5,10.3-9.1,16.5-12c6.8-3.1,14.1-4.6,21.5-4.5h0.2"/>
<path class="st0" d="M385.7,116.9c15.5,0.3,30.5-6.1,40.9-17.6c4.9-5.4,8.8-11.7,11.3-18.6c2.7-7.1,4-14.6,4-22.1v-0.3
	c0-7.6-1.3-15-4-22.1c-2.6-6.8-6.4-13.1-11.3-18.6C416.2,6.1,401.2-0.3,385.7,0c-8-0.1-15.9,1.5-23.2,4.8c-6.7,3-12.8,7.4-17.8,12.8
	c-4.9,5.4-8.7,11.7-11.3,18.6c-2.2,5.9-3.5,12.2-3.9,18.5h3.5c0.3-6,1.5-11.9,3.6-17.5c4.8-13.1,14.6-23.7,27.3-29.5
	c13.7-6.1,29.3-6,43,0.1c6.3,2.9,12,7.1,16.7,12.2c4.7,5.1,8.3,11.1,10.7,17.6c2.5,6.7,3.8,13.7,3.8,20.8v0.3
	c0,7.1-1.2,14.2-3.7,20.8c-4.8,13.1-14.6,23.7-27.2,29.5c-6.8,3.1-14.1,4.6-21.6,4.5h-0.2"/>
<polyline class="st0" points="467.2,115 470.7,115 470.7,5.2 511.6,5.2 511.6,2 426.3,2 426.3,5.2 467.2,5.2 "/>
<path class="st0" d="M216.3,115h3.5V34.4h-3.5V115z M321.4,115V2h-3.2L269,72l-38.1-54.2l-1.6,3.4l39.6,56.4h0.2L317.9,8V115H321.4z
	"/>
<polyline class="st0" points="219.6,28.6 232.9,1.2 90.9,1.2 62.4,65.8 32.1,1.2 0,1.2 0,115 32.2,115 32.1,57.6 54.3,115 69.9,115 
	92.1,57.6 92.3,115 124.2,115 124.2,28.6 155,28.6 155,28.5 155.1,28.5 155.1,115 190,115 190,28.6 "/>
</svg>
