<svg xmlns="http://www.w3.org/2000/svg" viewBox="0 0 763.3 76.8"><title>conexion-china</title><g id="Layer_2" data-name="Layer 2"><g id="Capa_1" data-name="Capa 1"><path d="M32,6H59.1V24.9H45.5L33.9,8.3h-.1c-9.9,3-17,13-17,25.2,0,14.9,10.2,25.9,23.5,25.9,10.4,0,20.4-7.4,23.6-17.7H64c-.1,19-13.6,35.1-32,35.1C14.1,76.8,0,61.1,0,41.5,0,21.5,14.4,6,32,6Z"/><path d="M97.7,25.4c14.7,0,26.6,10.5,26.6,25.6S112.4,76.61,97.7,76.61,71.1,66.11,71.1,51,83,25.4,97.7,25.4Zm0,49.4c4.2,0,7.5-10,7.5-23.8s-3.3-23.8-7.5-23.8-7.5,10-7.5,23.8S93.5,74.8,97.7,74.8Z"/><path d="M129.8,75.9l4.8-5.8V31.9l-4.8-5.8V26h23.8V40.1c2.8-9,6.9-14.7,15.2-14.7,7.9,0,13.1,6,13.1,14.7v30l4.8,5.8V76H162.9V47.4a4.92,4.92,0,0,0-9.3-2.5V70.1l4.8,5.8V76H129.8v-.1Z"/><path d="M217.2,25.4c11,0,20.1,5.7,23.2,15.7H207a18.16,18.16,0,0,0-.3,3.2c0,10.9,7.8,17.2,17.1,17.2,8,0,14.6-5.1,16.4-12.2h.1a25.12,25.12,0,0,1-24.9,27.3,24.63,24.63,0,0,1-24.9-25.1C190.5,34.9,202.3,25.4,217.2,25.4Zm4.7,13.4c-.1-3.6-.8-10.9-4.8-10.9-3.8,0-8.5,6.4-9.7,10.9Z"/><path d="M240.9,26.1V26h28.7v.1l-4.5,5.8L274,44.5l7.1-6.8-8.3-11.6V26h23.3v.1L275.2,46l21.9,29.9V76H268.6v-.1l3.9-3.8-9.8-13.6-5.8,5.6,8.9,11.8V76H241.1v-.1l20.4-19.1Z"/><path d="M300.3,75.9l4.8-5.8V31.9l-4.8-5.8V26h23.8V70.1l4.8,5.8V76H300.3Zm4.5-66.1a9.8,9.8,0,1,1,19.6,0,9.8,9.8,0,1,1-19.6,0Z"/><path d="M360,25.4c14.7,0,26.6,10.5,26.6,25.6S374.7,76.61,360,76.61,333.4,66.11,333.4,51,345.3,25.4,360,25.4ZM374.4,3,344.1,17.7v.1h30.3ZM360,74.8c4.2,0,7.5-10,7.5-23.8s-3.3-23.8-7.5-23.8-7.5,10-7.5,23.8S355.8,74.8,360,74.8Z"/><path d="M392.1,75.9l4.8-5.8V31.9l-4.8-5.8V26h23.8V40.1c2.8-9,6.9-14.7,15.2-14.7,7.9,0,13.1,6,13.1,14.7v30l4.8,5.8V76H425.2V47.4a4.92,4.92,0,0,0-9.3-2.5V70.1l4.8,5.8V76H392.1v-.1Z"/><path d="M516.5,6h27.1V24.9H530L518.4,8.3h-.1c-9.9,3-17,13-17,25.2,0,14.9,10.2,25.9,23.5,25.9,10.4,0,20.4-7.4,23.6-17.7h.1c-.1,19-13.6,35.1-32,35.1-17.9,0-32-15.7-32-35.3C484.5,21.5,498.9,6,516.5,6Z"/><path d="M555.1,75.9l4.8-5.8V11.9l-4.8-5.8V6h23.8V40.1c2.8-9,6.9-14.7,15.2-14.7,7.9,0,13.1,5.2,13.1,13.9V70.1l4.8,5.8V76H588.2V47.4a4.92,4.92,0,0,0-9.3-2.5V70.1l4.8,5.8V76H555.1Z"/><path d="M616.5,75.9l4.8-5.8V31.9l-4.8-5.8V26h23.8V70.1l4.8,5.8V76H616.5ZM621,9.8a9.8,9.8,0,0,1,19.6,0,9.8,9.8,0,0,1-19.6,0Z"/><path d="M649.6,75.9l4.8-5.8V31.9l-4.8-5.8V26h23.8V40.1c2.8-9,6.9-14.7,15.2-14.7,7.9,0,13.1,6,13.1,14.7v30l4.8,5.8V76H682.7V47.4a4.92,4.92,0,0,0-9.3-2.5V70.1l4.8,5.8V76H649.6v-.1Z"/><path d="M722.1,50.5l9.8-4.5c4.6-2.1,9.4-5.7,9.4-10.7,0-4.5-3.7-7.5-8.1-7.5h-.5V41.4H712L722.7,26h21a15.15,15.15,0,0,1,15,15.2v29l4.6,5.6V76h-8c-13.7,0-14.8-12.7-14.8-16.7-.4,9.3-6,17.3-15.3,17.3-6.6,0-12-5.2-12-12.9C713.2,57.1,717.3,52.7,722.1,50.5Zm12.8,11.6c2.4,0,4.2-2.2,4.3-4.9V43.5a25.4,25.4,0,0,1-2.3,2l-2.3,1.8a10.83,10.83,0,0,0-3.9,8.6C730.7,60.1,732.4,62.1,734.9,62.1Z"/></g></g></svg>