<svg xmlns="http://www.w3.org/2000/svg" viewBox="0 0 256.16 94.18"><defs><style>.cls-1{fill:#b2292e;}.cls-2{fill:#fff;}</style></defs><title>laboratorio-small</title><g id="Layer_2" data-name="Layer 2"><g id="Capa_1" data-name="Capa 1"><path d="M0,82.47V23.54H10V73H37v9.47Z"/><path d="M54.93,59.28,65.32,57.7c2.33-.33,3-1.49,3-2.91,0-3.41-2.33-6.15-7.65-6.15-5.07,0-7.89,3.24-8.31,7.32l-8.81-2c.75-7,7.06-13.22,17-13.22,12.47,0,17.21,7.07,17.21,15.13V76a35.76,35.76,0,0,0,.5,6.48h-9a22.43,22.43,0,0,1-.42-5.15C67,80.4,63,83.72,56.42,83.72c-8.48,0-13.71-5.82-13.71-12.22C42.71,64.27,48,60.28,54.93,59.28Zm13.38,6.4V63.85L57.75,65.43c-3,.5-5.4,2.16-5.4,5.49,0,2.74,2.08,5.24,5.9,5.24C63.66,76.16,68.31,73.58,68.31,65.68Z"/><path d="M86.21,82.47V22.29h9.47V47c1.83-3.16,6.49-6.07,12.72-6.07,12.14,0,18.71,9.23,18.71,21.11,0,12.23-7.24,21.45-19,21.45-5.74,0-10.14-2.49-12.47-6.4v5.4Zm20.28-33c-6.15,0-10.89,4.57-10.89,12.64s4.74,12.8,10.89,12.8c6.32,0,10.89-4.82,10.89-12.8S112.89,49.47,106.49,49.47Z"/><path d="M138.44,69.42a6.85,6.85,0,0,1,6.81,6.82,6.78,6.78,0,1,1-6.81-6.82Z"/><rect class="cls-1" x="158.07" width="98.1" height="94.18"/><polygon class="cls-2" points="169.81 17.29 179.26 17.29 179.26 68.94 206.29 68.94 206.29 77.33 169.81 77.33 169.81 17.29"/><polygon class="cls-2" points="217.1 25.67 199.27 25.67 199.27 17.29 244.39 17.29 244.39 25.67 226.55 25.67 226.55 77.33 217.1 77.33 217.1 25.67"/></g></g></svg>