<svg xmlns="http://www.w3.org/2000/svg" viewBox="0 0 137.98 137.98"><defs><style>.cls-1{fill:#fff;}</style></defs><title>laboratorio-circle-bn</title><g id="Layer_2" data-name="Layer 2"><g id="Capa_1" data-name="Capa 1"><circle cx="68.99" cy="68.99" r="68.99"/><rect class="cls-1" x="86.4" y="55.54" width="26.66" height="25.59"/><polygon points="89.59 60.24 92.16 60.24 92.16 74.27 99.51 74.27 99.51 76.55 89.59 76.55 89.59 60.24"/><polygon points="102.44 62.52 97.6 62.52 97.6 60.24 109.86 60.24 109.86 62.52 105.01 62.52 105.01 76.55 102.44 76.55 102.44 62.52"/><path class="cls-1" d="M25.81,58.24h4.4V76.29H40.42V80H25.81Z"/><path class="cls-1" d="M53.06,80a2,2,0,0,1-.31-.72,8.19,8.19,0,0,1-.18-1h-.06a5.1,5.1,0,0,1-.68.84,3.83,3.83,0,0,1-.91.65,5.54,5.54,0,0,1-1.27.44,7.84,7.84,0,0,1-1.73.17A6.1,6.1,0,0,1,44,79.11a4.28,4.28,0,0,1-1.52-3.55A4.48,4.48,0,0,1,43,73.4a4.16,4.16,0,0,1,1.34-1.46,6.72,6.72,0,0,1,2-.89,17.24,17.24,0,0,1,2.44-.5A18.77,18.77,0,0,0,51.6,70a1.17,1.17,0,0,0,.91-1.19,1.64,1.64,0,0,0-.65-1.35,3.23,3.23,0,0,0-2-.5,3.76,3.76,0,0,0-2.19.53,2.14,2.14,0,0,0-.82,1.66H43.21a5.07,5.07,0,0,1,.46-2,4.75,4.75,0,0,1,1.24-1.63A6.37,6.37,0,0,1,47,64.41a9,9,0,0,1,3-.43c2.33,0,4,.5,5,1.51a5.66,5.66,0,0,1,1.53,4.24v7.93c0,1.17.18,1.89.55,2.15V80Zm-4.13-2.52a4.26,4.26,0,0,0,1.56-.26,3.65,3.65,0,0,0,1.15-.66,2.73,2.73,0,0,0,.72-1,2.63,2.63,0,0,0,.24-1.1V72.13a4.72,4.72,0,0,1-1.32.53L49.72,73a8,8,0,0,0-2.44.85,1.72,1.72,0,0,0-.79,1.58A1.7,1.7,0,0,0,47.16,77,3.14,3.14,0,0,0,48.93,77.44Z"/><path class="cls-1" d="M68.21,80.42a5.66,5.66,0,0,1-2.8-.65A5.26,5.26,0,0,1,63.56,78H63.5V80h-4V58.24h4.13v8h.09a5.68,5.68,0,0,1,1.67-1.64A4.9,4.9,0,0,1,68.09,64a6.14,6.14,0,0,1,2.7.61,6.36,6.36,0,0,1,2.13,1.69,7.91,7.91,0,0,1,1.38,2.59,10.8,10.8,0,0,1,.5,3.35,11.38,11.38,0,0,1-.48,3.41A7.82,7.82,0,0,1,73,78.2a5.81,5.81,0,0,1-2.08,1.64A6.07,6.07,0,0,1,68.21,80.42ZM67.3,77a2.81,2.81,0,0,0,2.46-1.25,6.25,6.25,0,0,0,.85-3.52,6.44,6.44,0,0,0-.87-3.54,2.88,2.88,0,0,0-2.6-1.36,3.38,3.38,0,0,0-1.65.38,3.08,3.08,0,0,0-1.11,1,4.59,4.59,0,0,0-.62,1.56,9.64,9.64,0,0,0-.2,2,5.33,5.33,0,0,0,1,3.42A3.31,3.31,0,0,0,67.3,77Z"/><rect class="cls-1" x="76.74" y="75.93" width="4.15" height="4.15"/></g></g></svg>