<svg xmlns="http://www.w3.org/2000/svg" viewBox="0 0 263.39 94.18"><defs><style>.cls-1{fill:#b2292e;}.cls-2{fill:#fff;}</style></defs><title>laboratorio-full</title><g id="Layer_2" data-name="Layer 2"><g id="Capa_1" data-name="Capa 1"><path d="M32.05,26.87V10.66h3.16V23.85h7.22v3Z"/><path d="M47.27,20.4,50,20c.64-.09.84-.41.84-.8,0-.8-.61-1.46-1.89-1.46a2,2,0,0,0-2.15,1.83L44.14,19c.18-1.76,1.81-3.7,4.82-3.7,3.57,0,4.9,2,4.9,4.28v5.53A12.51,12.51,0,0,0,54,26.87H51.2a8.56,8.56,0,0,1-.11-1.35,3.76,3.76,0,0,1-3.31,1.67,3.56,3.56,0,0,1-3.87-3.38C43.91,21.8,45.4,20.68,47.27,20.4Zm3.61,1.92v-.5l-2.53.39A1.42,1.42,0,0,0,47,23.62a1.32,1.32,0,0,0,1.47,1.31A2.28,2.28,0,0,0,50.88,22.32Z"/><path d="M56.63,26.87V10.32h3v6.54A4,4,0,0,1,63,15.33c3.29,0,5.19,2.53,5.19,5.87s-2.11,5.94-5.31,5.94a3.79,3.79,0,0,1-3.33-1.64v1.37Zm5.76-8.82a2.84,2.84,0,0,0-2.81,3.17c0,2,1.28,3.2,2.81,3.2s2.79-1.14,2.79-3.2S63.94,18.05,62.39,18.05Z"/><path d="M81.49,21.25a5.9,5.9,0,1,1-11.8,0,5.9,5.9,0,1,1,11.8,0Zm-3,0a2.88,2.88,0,1,0-5.72,0,2.88,2.88,0,1,0,5.72,0Z"/><path d="M90.54,18.64a4.46,4.46,0,0,0-.92-.09c-1.55,0-2.9.75-2.9,3.18v5.14h-3V15.62h2.95v1.67a3.36,3.36,0,0,1,3.2-1.76c.25,0,.48,0,.71.05Z"/><path d="M95.16,20.4,97.92,20c.64-.09.85-.41.85-.8,0-.8-.62-1.46-1.9-1.46a2,2,0,0,0-2.15,1.83L92,19c.19-1.76,1.81-3.7,4.83-3.7,3.56,0,4.89,2,4.89,4.28v5.53a14.19,14.19,0,0,0,.13,1.78H99.09A7.43,7.43,0,0,1,99,25.52a3.75,3.75,0,0,1-3.31,1.67,3.56,3.56,0,0,1-3.87-3.38C91.79,21.8,93.28,20.68,95.16,20.4Zm3.61,1.92v-.5l-2.54.39a1.41,1.41,0,0,0-1.39,1.41,1.32,1.32,0,0,0,1.46,1.31A2.29,2.29,0,0,0,98.77,22.32Z"/><path d="M108.32,15.62h2.26v2.7h-2.26V23c0,1,.45,1.3,1.32,1.3a4.16,4.16,0,0,0,.94-.09v2.52a4.59,4.59,0,0,1-1.71.27,3.25,3.25,0,0,1-3.57-3.47V18.32h-2v-2.7h.57a1.61,1.61,0,0,0,1.73-1.78V12.26h2.75Z"/><path d="M123.65,21.25a5.9,5.9,0,1,1-11.8,0,5.9,5.9,0,1,1,11.8,0Zm-3,0a2.88,2.88,0,1,0-5.72,0,2.88,2.88,0,1,0,5.72,0Z"/><path d="M132.7,18.64a4.43,4.43,0,0,0-.91-.09c-1.56,0-2.91.75-2.91,3.18v5.14h-3V15.62h2.95v1.67a3.36,3.36,0,0,1,3.2-1.76c.25,0,.48,0,.71.05Z"/><path d="M135.92,10.05a1.88,1.88,0,0,1,0,3.75,1.88,1.88,0,1,1,0-3.75Zm-1.51,16.82V15.62h3V26.87Z"/><path d="M151.38,21.25a5.9,5.9,0,1,1-11.8,0,5.9,5.9,0,1,1,11.8,0Zm-3,0a2.88,2.88,0,1,0-5.72,0,2.88,2.88,0,1,0,5.72,0Z"/><path d="M11.57,52.26c0,.76,0,1.58.09,2H8.75A8.63,8.63,0,0,1,8.64,53a3.51,3.51,0,0,1-3.15,1.58C2.29,54.57,0,52.06,0,48.65s2.22-5.87,5.39-5.87c2,0,2.86.8,3.18,1.39V37.75h3Zm-5.72-.41c1.56,0,2.77-1.19,2.77-3.22S7.41,45.5,5.85,45.5s-2.79,1.14-2.79,3.15S4.25,51.85,5.85,51.85Z"/><path d="M24.68,51.07a5.07,5.07,0,0,1-5.12,3.57,5.7,5.7,0,0,1-5.81-6,5.64,5.64,0,0,1,5.53-5.92c3.48,0,5.56,2.22,5.56,5.83,0,.43-.05.89-.05.93h-8A2.74,2.74,0,0,0,19.58,52a2.48,2.48,0,0,0,2.56-1.71Zm-2.84-3.68a2.25,2.25,0,0,0-2.51-2.21,2.44,2.44,0,0,0-2.52,2.21Z"/><path d="M32.15,46.21a8.18,8.18,0,0,1,8.25-8.46c4.48,0,6.79,2.74,7.43,5.37l-3,.94a4.24,4.24,0,0,0-4.46-3.27c-2.42,0-5,1.74-5,5.42a5,5,0,0,0,5,5.34A4.49,4.49,0,0,0,45,48.24l2.95.89a7.37,7.37,0,0,1-7.49,5.51A8.09,8.09,0,0,1,32.15,46.21Z"/><path d="M61.27,48.67a5.9,5.9,0,1,1-5.9-6A5.77,5.77,0,0,1,61.27,48.67Zm-3,0a2.88,2.88,0,1,0-5.72,0,2.88,2.88,0,1,0,5.72,0Z"/><path d="M66.5,54.3h-3V43.05h2.95v1.4a3.75,3.75,0,0,1,3.25-1.7c2.79,0,4.07,2,4.07,4.46V54.3h-3V47.74a2,2,0,0,0-2.08-2.24,2.12,2.12,0,0,0-2.11,2.33Z"/><path d="M80.31,43.05h2.26v2.7H80.31v4.71c0,1,.45,1.3,1.32,1.3a4.85,4.85,0,0,0,.94-.09v2.51a4.39,4.39,0,0,1-1.72.28A3.26,3.26,0,0,1,77.29,51V45.75h-2v-2.7h.58a1.62,1.62,0,0,0,1.73-1.78V39.69h2.75Z"/><path d="M94.83,51.07a5.06,5.06,0,0,1-5.12,3.57,5.7,5.7,0,0,1-5.81-6,5.64,5.64,0,0,1,5.53-5.92c3.48,0,5.56,2.22,5.56,5.83,0,.43,0,.89,0,.93h-8A2.73,2.73,0,0,0,89.73,52a2.47,2.47,0,0,0,2.56-1.71ZM92,47.39a2.25,2.25,0,0,0-2.51-2.21A2.42,2.42,0,0,0,87,47.39Z"/><path d="M100.26,54.3h-3V43.05h3v1.4a3.72,3.72,0,0,1,3.24-1.7c2.79,0,4.07,2,4.07,4.46V54.3h-3V47.74a2,2,0,0,0-2.08-2.24,2.12,2.12,0,0,0-2.1,2.33Z"/><path d="M111.78,37.47a1.88,1.88,0,1,1-1.88,1.9A1.89,1.89,0,0,1,111.78,37.47ZM110.27,54.3V43.05h3V54.3Z"/><path d="M127,52.26c0,.76,0,1.58.09,2h-2.9a7.28,7.28,0,0,1-.12-1.31,3.5,3.5,0,0,1-3.15,1.58c-3.2,0-5.49-2.51-5.49-5.92s2.22-5.87,5.4-5.87c1.94,0,2.85.8,3.17,1.39V37.75h3Zm-5.72-.41c1.56,0,2.77-1.19,2.77-3.22s-1.21-3.13-2.77-3.13-2.79,1.14-2.79,3.15S119.69,51.85,121.29,51.85Z"/><path d="M141,48.67a5.9,5.9,0,1,1-5.9-6A5.77,5.77,0,0,1,141,48.67Zm-3,0a2.88,2.88,0,1,0-5.72,0,2.88,2.88,0,1,0,5.72,0Z"/><path d="M144.88,50.59a1.88,1.88,0,0,0,2.06,1.72c1,0,1.49-.53,1.49-1.12s-.35-.92-1.21-1.1l-1.49-.34c-2.17-.48-3.15-1.78-3.15-3.36a3.92,3.92,0,0,1,4.2-3.68c3.2,0,4.28,2,4.41,3.24l-2.53.58A1.72,1.72,0,0,0,146.8,45a1.29,1.29,0,0,0-1.44,1.12c0,.55.42.89,1,1l1.6.35c2.22.45,3.34,1.8,3.34,3.45,0,1.83-1.42,3.7-4.37,3.7-3.38,0-4.54-2.19-4.68-3.47Z"/><path d="M65.2,79.69c0,.75,0,1.58.1,2H62.39a8.35,8.35,0,0,1-.11-1.3A3.54,3.54,0,0,1,59.12,82c-3.2,0-5.48-2.52-5.48-5.92S55.86,70.2,59,70.2c1.95,0,2.86.8,3.18,1.4V65.18h3Zm-5.71-.41c1.55,0,2.77-1.19,2.77-3.22S61,72.92,59.49,72.92s-2.79,1.15-2.79,3.16S57.89,79.28,59.49,79.28Z"/><path d="M78.31,78.5a5.07,5.07,0,0,1-5.12,3.57,6,6,0,0,1-.27-11.93c3.47,0,5.55,2.21,5.55,5.82,0,.44,0,.9,0,.94H70.38a2.74,2.74,0,0,0,2.84,2.56,2.5,2.5,0,0,0,2.56-1.71Zm-2.83-3.68A2.27,2.27,0,0,0,73,72.6a2.44,2.44,0,0,0-2.52,2.22Z"/><path d="M101.72,81.72V70.36L97.06,81.72H94.43L89.76,70.46V81.72h-3V65.52h4.16l4.87,11.7,4.75-11.7h4.3v16.2Z"/><path d="M110.83,75.26l2.77-.42c.64-.09.85-.41.85-.8,0-.8-.62-1.46-1.9-1.46a2,2,0,0,0-2.15,1.83l-2.7-.57c.19-1.76,1.81-3.7,4.83-3.7,3.56,0,4.89,2,4.89,4.27v5.53a13.9,13.9,0,0,0,.13,1.78h-2.78a7.31,7.31,0,0,1-.12-1.34A3.75,3.75,0,0,1,111.34,82a3.56,3.56,0,0,1-3.87-3.38C107.47,76.65,109,75.53,110.83,75.26Zm3.62,1.92v-.51l-2.54.39a1.43,1.43,0,0,0-1.4,1.42,1.32,1.32,0,0,0,1.47,1.3A2.28,2.28,0,0,0,114.45,77.18Z"/><path d="M127.05,73.5a4.6,4.6,0,0,0-.92-.1c-1.55,0-2.9.76-2.9,3.18v5.14h-3V70.48h3v1.67a3.33,3.33,0,0,1,3.2-1.76c.25,0,.48,0,.71,0Z"/><path d="M131.17,76.1a2.9,2.9,0,0,0,2.88,3.18,2.56,2.56,0,0,0,2.58-1.9l2.68.89a5.22,5.22,0,0,1-5.26,3.8,5.83,5.83,0,0,1-5.92-6,5.76,5.76,0,0,1,5.83-6,5.14,5.14,0,0,1,5.28,3.79l-2.72.91A2.45,2.45,0,0,0,134,73,2.86,2.86,0,0,0,131.17,76.1Z"/><path d="M144.13,75.26l2.77-.42c.64-.09.84-.41.84-.8,0-.8-.62-1.46-1.9-1.46a2,2,0,0,0-2.14,1.83l-2.7-.57c.18-1.76,1.8-3.7,4.82-3.7,3.57,0,4.89,2,4.89,4.27v5.53a12.13,12.13,0,0,0,.14,1.78h-2.79a7.39,7.39,0,0,1-.11-1.34A3.76,3.76,0,0,1,144.63,82a3.55,3.55,0,0,1-3.86-3.38C140.77,76.65,142.26,75.53,144.13,75.26Zm3.61,1.92v-.51l-2.54.39a1.43,1.43,0,0,0-1.39,1.42,1.32,1.32,0,0,0,1.46,1.3A2.28,2.28,0,0,0,147.74,77.18Z"/><rect class="cls-1" x="165.3" width="98.1" height="94.18"/><polygon class="cls-2" points="177.04 17.29 186.49 17.29 186.49 68.94 213.52 68.94 213.52 77.33 177.04 77.33 177.04 17.29"/><polygon class="cls-2" points="224.33 25.67 206.5 25.67 206.5 17.29 251.62 17.29 251.62 25.67 233.78 25.67 233.78 77.33 224.33 77.33 224.33 25.67"/></g></g></svg>