<svg xmlns="http://www.w3.org/2000/svg" viewBox="0 0 137.98 137.98"><defs><style>.cls-1{fill:#fff;}</style></defs><title>laboratorio-circle-bn-full</title><g id="Layer_2" data-name="Layer 2"><g id="Capa_1" data-name="Capa 1"><circle cx="68.99" cy="68.99" r="68.99"/><path class="cls-1" d="M25.26,62.43V55.57H26.6v5.58h3.06v1.28Z"/><path class="cls-1" d="M31.71,59.69l1.17-.18c.27,0,.35-.17.35-.33,0-.34-.26-.62-.8-.62a.84.84,0,0,0-.91.77l-1.14-.24a1.89,1.89,0,0,1,2-1.57c1.51,0,2.07.85,2.07,1.81v2.34a5.33,5.33,0,0,0,.06.76H33.37a3.21,3.21,0,0,1,0-.58,1.59,1.59,0,0,1-1.4.71,1.51,1.51,0,0,1-1.64-1.43A1.46,1.46,0,0,1,31.71,59.69Zm1.52.81v-.21l-1.07.16a.6.6,0,0,0-.59.6.56.56,0,0,0,.62.55A1,1,0,0,0,33.23,60.5Z"/><path class="cls-1" d="M35.67,62.43v-7h1.26v2.77a1.71,1.71,0,0,1,1.44-.65A2.22,2.22,0,0,1,40.57,60a2.29,2.29,0,0,1-2.24,2.51,1.63,1.63,0,0,1-1.42-.69v.58Zm2.43-3.74a1.36,1.36,0,0,0,0,2.7,1.36,1.36,0,0,0,0-2.7Z"/><path class="cls-1" d="M46.19,60.05a2.5,2.5,0,1,1-2.5-2.53A2.44,2.44,0,0,1,46.19,60.05Zm-1.29,0a1.22,1.22,0,1,0-1.21,1.35A1.23,1.23,0,0,0,44.9,60.05Z"/><path class="cls-1" d="M50,58.94a1.91,1.91,0,0,0-.39,0c-.66,0-1.23.32-1.23,1.35v2.18H47.12V57.67h1.24v.7a1.41,1.41,0,0,1,1.36-.74l.3,0Z"/><path class="cls-1" d="M52,59.69l1.17-.18c.27,0,.36-.17.36-.33,0-.34-.26-.62-.8-.62a.84.84,0,0,0-.91.77l-1.14-.24a1.88,1.88,0,0,1,2-1.57c1.51,0,2.07.85,2.07,1.81v2.34a5.33,5.33,0,0,0,.06.76H53.64a3.21,3.21,0,0,1,0-.58,1.59,1.59,0,0,1-1.41.71,1.5,1.5,0,0,1-1.63-1.43A1.46,1.46,0,0,1,52,59.69Zm1.53.81v-.21l-1.07.16a.6.6,0,0,0-.59.6.56.56,0,0,0,.62.55A1,1,0,0,0,53.5,60.5Z"/><path class="cls-1" d="M57.54,57.67h1v1.14h-1v2c0,.42.2.55.56.55a1.82,1.82,0,0,0,.4,0v1.07a2,2,0,0,1-.73.11A1.37,1.37,0,0,1,56.27,61V58.81H55.4V57.67h.25a.69.69,0,0,0,.73-.76v-.67h1.16Z"/><path class="cls-1" d="M64,60.05a2.5,2.5,0,1,1-2.5-2.53A2.44,2.44,0,0,1,64,60.05Zm-1.29,0a1.21,1.21,0,1,0-1.21,1.35A1.23,1.23,0,0,0,62.74,60.05Z"/><path class="cls-1" d="M67.86,58.94a1.84,1.84,0,0,0-.39,0c-.65,0-1.22.32-1.22,1.35v2.18H65V57.67h1.25v.7a1.41,1.41,0,0,1,1.35-.74l.3,0Z"/><path class="cls-1" d="M69.22,55.31a.79.79,0,1,1-.79.8A.79.79,0,0,1,69.22,55.31Zm-.63,7.12V57.67h1.28v4.76Z"/><path class="cls-1" d="M75.77,60.05a2.5,2.5,0,1,1-2.5-2.53A2.44,2.44,0,0,1,75.77,60.05Zm-1.29,0a1.22,1.22,0,1,0-1.21,1.35A1.23,1.23,0,0,0,74.48,60.05Z"/><path class="cls-1" d="M16.59,73.17c0,.32,0,.67,0,.86H15.4a3.35,3.35,0,0,1,0-.55,1.5,1.5,0,0,1-1.34.67,2.5,2.5,0,0,1,0-5,1.45,1.45,0,0,1,1.35.59V67h1.26ZM14.17,73a1.21,1.21,0,0,0,1.18-1.37,1.18,1.18,0,0,0-1.18-1.32,1.36,1.36,0,0,0,0,2.69Z"/><path class="cls-1" d="M22.14,72.67A2.14,2.14,0,0,1,20,74.18a2.53,2.53,0,0,1-.11-5.05,2.22,2.22,0,0,1,2.35,2.47c0,.18,0,.37,0,.39h-3.4A1.15,1.15,0,0,0,20,73.08a1.06,1.06,0,0,0,1.09-.73Zm-1.2-1.56a1,1,0,0,0-1.06-.94,1,1,0,0,0-1.07.94Z"/><path class="cls-1" d="M25.3,70.61A3.47,3.47,0,0,1,28.8,67a3,3,0,0,1,3.14,2.27l-1.26.4a1.78,1.78,0,0,0-1.88-1.38,2.28,2.28,0,0,0,0,4.55,1.89,1.89,0,0,0,1.92-1.4l1.25.38a3.12,3.12,0,0,1-3.17,2.33A3.43,3.43,0,0,1,25.3,70.61Z"/><path class="cls-1" d="M37.63,71.65a2.5,2.5,0,1,1-2.5-2.52A2.45,2.45,0,0,1,37.63,71.65Zm-1.29,0a1.22,1.22,0,1,0-2.42,0,1.22,1.22,0,1,0,2.42,0Z"/><path class="cls-1" d="M39.84,74H38.56V69.27h1.25v.59a1.58,1.58,0,0,1,1.37-.71A1.67,1.67,0,0,1,42.9,71v3H41.62V71.26a.85.85,0,0,0-.89-1,.89.89,0,0,0-.89,1Z"/><path class="cls-1" d="M45.69,69.27h1v1.15h-1v2c0,.41.19.55.56.55a1.72,1.72,0,0,0,.39,0V74a2.06,2.06,0,0,1-.72.11,1.38,1.38,0,0,1-1.51-1.47V70.42h-.86V69.27h.24a.69.69,0,0,0,.74-.75v-.67h1.16Z"/><path class="cls-1" d="M51.83,72.67a2.14,2.14,0,0,1-2.16,1.51,2.41,2.41,0,0,1-2.46-2.55,2.39,2.39,0,0,1,2.34-2.5A2.22,2.22,0,0,1,51.9,71.6c0,.18,0,.37,0,.39h-3.4a1.16,1.16,0,0,0,1.2,1.09,1,1,0,0,0,1.08-.73Zm-1.2-1.56a1,1,0,0,0-1.06-.94,1,1,0,0,0-1.06.94Z"/><path class="cls-1" d="M54.13,74H52.84V69.27h1.25v.59a1.59,1.59,0,0,1,1.38-.71A1.67,1.67,0,0,1,57.19,71v3H55.9V71.26a.84.84,0,0,0-.88-1,.89.89,0,0,0-.89,1Z"/><path class="cls-1" d="M59,66.91a.8.8,0,1,1-.8.81A.8.8,0,0,1,59,66.91ZM58.37,74V69.27h1.28V74Z"/><path class="cls-1" d="M65.45,73.17c0,.32,0,.67,0,.86H64.26a3.12,3.12,0,0,1-.05-.55,1.47,1.47,0,0,1-1.33.67,2.5,2.5,0,0,1,0-5,1.45,1.45,0,0,1,1.35.59V67h1.26ZM63,73a1.21,1.21,0,0,0,1.17-1.37A1.17,1.17,0,0,0,63,70.31,1.36,1.36,0,0,0,63,73Z"/><path class="cls-1" d="M71.37,71.65a2.5,2.5,0,1,1-2.5-2.52A2.45,2.45,0,0,1,71.37,71.65Zm-1.29,0a1.22,1.22,0,1,0-2.42,0,1.22,1.22,0,1,0,2.42,0Z"/><path class="cls-1" d="M73,72.47a.79.79,0,0,0,.87.72c.43,0,.63-.22.63-.47s-.15-.39-.51-.47l-.63-.14A1.46,1.46,0,0,1,72,70.69a1.87,1.87,0,0,1,3.65-.19l-1.08.24a.71.71,0,0,0-.78-.63c-.34,0-.61.2-.61.47s.18.38.44.43l.67.14a1.53,1.53,0,0,1,1.42,1.46,1.64,1.64,0,0,1-1.85,1.57,1.78,1.78,0,0,1-2-1.47Z"/><path class="cls-1" d="M39.3,84.78c0,.32,0,.67,0,.86H38.11a3.12,3.12,0,0,1,0-.55,1.5,1.5,0,0,1-1.34.67,2.5,2.5,0,0,1,0-5,1.41,1.41,0,0,1,1.35.59V78.64H39.3Zm-2.42-.17a1.22,1.22,0,0,0,1.17-1.37,1.18,1.18,0,1,0-2.35,0A1.21,1.21,0,0,0,36.88,84.61Z"/><path class="cls-1" d="M44.84,84.28a2.14,2.14,0,0,1-2.16,1.51,2.41,2.41,0,0,1-2.46-2.55,2.38,2.38,0,0,1,2.34-2.5,2.22,2.22,0,0,1,2.35,2.46c0,.19,0,.38,0,.4h-3.4a1.16,1.16,0,0,0,1.2,1.08A1,1,0,0,0,43.77,84Zm-1.2-1.56a1,1,0,0,0-1.06-.94,1,1,0,0,0-1.06.94Z"/><path class="cls-1" d="M54.75,85.64V80.83l-2,4.81H51.66l-2-4.77v4.77H48.41V78.78h1.76l2.06,5,2-5h1.81v6.86Z"/><path class="cls-1" d="M58.61,82.9l1.17-.17c.27,0,.36-.17.36-.34,0-.34-.27-.62-.81-.62a.85.85,0,0,0-.91.78l-1.14-.25a1.9,1.9,0,0,1,2-1.56c1.51,0,2.07.85,2.07,1.81v2.34a5.06,5.06,0,0,0,.06.75H60.27a3.1,3.1,0,0,1-.05-.57,1.57,1.57,0,0,1-1.4.71,1.5,1.5,0,0,1-1.63-1.43A1.46,1.46,0,0,1,58.61,82.9Zm1.53.82V83.5l-1.08.17a.6.6,0,0,0-.59.6.56.56,0,0,0,.62.55A1,1,0,0,0,60.14,83.72Z"/><path class="cls-1" d="M65.47,82.16a1.91,1.91,0,0,0-.39,0c-.66,0-1.23.32-1.23,1.35v2.17H62.57V80.88h1.24v.71a1.42,1.42,0,0,1,1.36-.75l.3,0Z"/><path class="cls-1" d="M67.21,83.26a1.24,1.24,0,0,0,1.22,1.35,1.1,1.1,0,0,0,1.1-.81l1.13.38a2.22,2.22,0,0,1-2.23,1.61,2.46,2.46,0,0,1-2.5-2.53,2.43,2.43,0,0,1,2.47-2.52,2.17,2.17,0,0,1,2.23,1.6l-1.15.39a1,1,0,0,0-1.06-.8A1.21,1.21,0,0,0,67.21,83.26Z"/><path class="cls-1" d="M72.7,82.9l1.17-.17c.27,0,.36-.17.36-.34,0-.34-.26-.62-.8-.62a.84.84,0,0,0-.91.78l-1.15-.25a1.9,1.9,0,0,1,2-1.56c1.5,0,2.07.85,2.07,1.81v2.34a5.21,5.21,0,0,0,.05.75H74.36a3.18,3.18,0,0,1,0-.57,1.61,1.61,0,0,1-1.41.71,1.5,1.5,0,0,1-1.63-1.43A1.47,1.47,0,0,1,72.7,82.9Zm1.53.82V83.5l-1.08.17a.61.61,0,0,0-.59.6.56.56,0,0,0,.62.55A1,1,0,0,0,74.23,83.72Z"/><path class="cls-1" d="M83.17,52.81V87.53h37.34V52.81Zm18.34,28.82H87.76V59.36H91v19h10.48ZM115.92,62h-7.2V81.63h-3.28V62H98.89V59.36h17Z"/></g></g></svg>