<svg xmlns="http://www.w3.org/2000/svg" viewBox="0 0 1057.56 582.83"><defs><style>.cls-1{fill:#fff;}</style></defs><title>piensa-digital</title><g id="Layer_2" data-name="Layer 2"><g id="Capa_1" data-name="Capa 1"><path class="cls-1" d="M4.9,1.69H79.47A119.8,119.8,0,0,1,102.92,4q11.3,3,22.88,12.15,9.75,6.93,15.82,19.78Q148,48.3,148,65.26q0,22.88-16.1,41.66-16.53,19.78-48.31,20.34H36.11v80.37H4.9ZM36.11,97.74H82.3Q99.67,97.46,108.43,87a34.84,34.84,0,0,0,8.33-22.6q0-10.3-3.39-17.38a26,26,0,0,0-9.88-10,39.18,39.18,0,0,0-22.32-5.79H36.11Z"/><path class="cls-1" d="M176.37,1.69h31.21V207.63H176.37Z"/><path class="cls-1" d="M251,1.69H382.44V31.22H282.16V90h85.6v27.69h-85.6v60.45H382.44v29.52H251Z"/><path class="cls-1" d="M411.82,1.69H441.2L534.42,148H535V1.69H566.2V207.63H536.68L443.6,61.3H443V207.63H411.82Z"/><path class="cls-1" d="M670.73,178.11q40.11-.57,40.67-28.67.29-23-26.83-27.69-12.44-1.69-27.26-3.81-26.56-4.38-40.4-19.63-14.26-15.69-14.26-38.14,0-27,17.94-43.5Q638,.27,669.88,0q38.42.84,66.81,21.33L719.31,47a94.32,94.32,0,0,0-51-15.81q-14.42,0-24,7.2-10,7.48-10.31,22.32,0,8.9,6.92,16.1T663.1,87q8.48,1.41,23.16,3.25,28.95,3.94,42.8,20.76a58.42,58.42,0,0,1,13.7,38.42q-1.56,59-72.32,59.88-45.77,0-78.67-28.24l20.48-23.45Q636.82,177.83,670.73,178.11Z"/><path class="cls-1" d="M881.18,161.58H803.07l-15.82,46h-33L829.06,1.69h26.13l74.86,205.94H897.14Zm-8.9-27.68-29.8-90h-.57l-29.8,90Z"/><path class="cls-1" d="M4.9,238.37h72q41.8.28,62.71,34.75a62,62,0,0,1,9.47,24.29q1.54,12.7,1.55,43.92,0,33.21-2.4,46.33a51.32,51.32,0,0,1-3.39,11.87,109.12,109.12,0,0,1-5.79,10.59,71.56,71.56,0,0,1-25.14,24Q98,444.3,74.81,444.3H4.9ZM36.11,414.78H73.4q26.28,0,38.14-17.93,5.22-6.64,6.64-16.81,1.26-10,1.27-37.58,0-26.82-1.27-38.41-1.7-11.58-8.06-18.79-13-17.92-36.72-17.37H36.11Z"/><path class="cls-1" d="M187.1,238.37h31.22V444.3H187.1Z"/><path class="cls-1" d="M328.49,330.89h73.16v41.94q-.56,30.94-21.18,51.84T328.21,446q-24.3-.57-40.54-11.87-16.53-10.87-24-25.14-2.27-4.65-4.1-8.9a57.44,57.44,0,0,1-2.82-11q-2.13-12.43-2.12-47.75,0-35.86,2.12-48t6.92-19.63q7.48-14.26,24-25.42,16.24-11.31,40.54-11.59,29.79.29,48.58,17.66a77.63,77.63,0,0,1,23.73,43.36h-33a45.27,45.27,0,0,0-13.84-21.18q-10.45-8.34-25.42-8.62-11,.28-18.93,4.38a39.19,39.19,0,0,0-13,10.59q-6.07,6.64-8.06,17.09Q286,311,286,341.33t2.26,41.11q2,10.72,8.06,17.38a36.43,36.43,0,0,0,13,10.3q7.91,4.67,18.93,4.66,18.21,0,30.08-12.43,11.86-11.87,12.15-31.21V360.41H328.49Z"/><path class="cls-1" d="M438.09,238.37h31.22V444.3H438.09Z"/><path class="cls-1" d="M547.56,266.19H491.2V238.37H635.28v27.82H578.92V444.3H547.56Z"/><path class="cls-1" d="M741.41,398.26H663.3l-15.82,46H614.43l74.86-205.93h26.14L790.28,444.3H757.37Zm-8.9-27.69-29.8-90h-.56l-29.81,90Z"/><path class="cls-1" d="M812.32,238.37h31.21V414.78H943.82V444.3H812.32Z"/><path class="cls-1" d="M0,533.76H7.38v48.67H0Z"/><path class="cls-1" d="M17.63,533.76h17q9.89.06,14.83,8.2a14.63,14.63,0,0,1,2.23,5.75,97.21,97.21,0,0,1,.37,10.38A70.42,70.42,0,0,1,51.51,569a11.74,11.74,0,0,1-.8,2.81,25.38,25.38,0,0,1-1.37,2.5A16.87,16.87,0,0,1,43.4,580a16.8,16.8,0,0,1-9.25,2.41H17.63ZM25,575.45h8.81q6.21,0,9-4.24a8,8,0,0,0,1.57-4,85,85,0,0,0,.3-8.88c0-4.23-.1-7.25-.3-9.08a8.29,8.29,0,0,0-1.9-4.44,9.77,9.77,0,0,0-8.68-4.11H25Z"/><path class="cls-1" d="M60.69,533.76H91.78v7H68.07v13.89H88.3v6.54H68.07v14.29H91.78v7H60.69Z"/><path class="cls-1" d="M123.66,571.55H105.2l-3.74,10.88H93.65l17.69-48.67h6.18l17.69,48.67h-7.78Zm-2.1-6.55-7-21.26h-.13l-7,21.26Z"/><path class="cls-1" d="M154.84,575.45q9.48-.13,9.62-6.78.06-5.43-6.35-6.54l-6.44-.9q-6.27-1-9.55-4.64a12.9,12.9,0,0,1-3.37-9A13.31,13.31,0,0,1,143,537.29q4.11-3.87,11.65-3.93a27.29,27.29,0,0,1,15.79,5l-4.11,6.08a22.31,22.31,0,0,0-12-3.74,9.14,9.14,0,0,0-5.67,1.71,6.29,6.29,0,0,0-2.44,5.27,5.35,5.35,0,0,0,1.64,3.81,9.43,9.43,0,0,0,5.24,2.4c1.33.22,3.16.47,5.47.77q6.86.93,10.12,4.9a13.83,13.83,0,0,1,3.24,9.08q-.37,14-17.1,14.16a27.59,27.59,0,0,1-18.59-6.68l4.84-5.54A21.36,21.36,0,0,0,154.84,575.45Z"/><path class="cls-1" d="M196,533.76h17.62a27.94,27.94,0,0,1,5.55.53,14.79,14.79,0,0,1,5.41,2.87,11.69,11.69,0,0,1,3.73,4.67,15,15,0,0,1,1.51,6.94,14.79,14.79,0,0,1-3.81,9.86q-3.9,4.67-11.42,4.8H203.42v19H196Zm7.38,22.7h10.91a7.82,7.82,0,0,0,6.18-2.54,8.23,8.23,0,0,0,2-5.34,9.5,9.5,0,0,0-.8-4.11,6.19,6.19,0,0,0-2.34-2.37,9.25,9.25,0,0,0-5.27-1.37H203.42Z"/><path class="cls-1" d="M256.38,571.55H237.92l-3.74,10.88h-7.82l17.7-48.67h6.17l17.7,48.67h-7.78ZM254.27,565l-7-21.26h-.13l-7,21.26Z"/><path class="cls-1" d="M273.14,533.76h19a15,15,0,0,1,9.92,3.2q4.63,3.64,4.84,10.38-.13,9.92-9.42,13.49l11.29,21.6H300l-10.05-20.8h-9.42v20.8h-7.37Zm7.37,21.33h11.16q4.14-.08,6.2-2.41a7.5,7.5,0,0,0,2-5.34c0-2.54-.86-4.37-2.44-5.51a8.43,8.43,0,0,0-5.4-1.5H280.51Z"/><path class="cls-1" d="M339.77,571.55H321.31l-3.74,10.88h-7.81l17.69-48.67h6.18l17.69,48.67h-7.77Zm-2.1-6.55-7-21.26h-.14l-7,21.26Z"/><path class="cls-1" d="M397.86,571.55H379.4l-3.74,10.88h-7.81l17.69-48.67h6.18l17.69,48.67h-7.77Zm-2.1-6.55-7-21.26h-.14l-7,21.26Z"/><path class="cls-1" d="M446.21,568.81a18.22,18.22,0,0,1-6.11,10.41,17.32,17.32,0,0,1-11,3.61,17,17,0,0,1-9.58-2.81,16.28,16.28,0,0,1-5.68-5.93c-.36-.74-.68-1.44-1-2.11a13.7,13.7,0,0,1-.67-2.6,128.39,128.39,0,0,1,0-22.64,13.65,13.65,0,0,1,1.64-4.64,17.22,17.22,0,0,1,15.26-8.74,16.45,16.45,0,0,1,11.48,4.17,18.35,18.35,0,0,1,5.61,10.25H438.4a10.7,10.7,0,0,0-3.27-5,9.64,9.64,0,0,0-6-2,10.1,10.1,0,0,0-4.48,1,9.34,9.34,0,0,0-3.07,2.5,8,8,0,0,0-1.9,4,57.47,57.47,0,0,0-.54,9.78,56.3,56.3,0,0,0,.54,9.72,8,8,0,0,0,1.9,4.1,8.62,8.62,0,0,0,3.07,2.44,8.72,8.72,0,0,0,4.48,1.1q6.21,0,9.28-6.64Z"/><path class="cls-1" d="M451.42,533.76H482.5v7H458.8v13.89H479v6.54H458.8v14.29h23.7v7H451.42Z"/><path class="cls-1" d="M489.44,533.76h7.38v41.69h23.71v7H489.44Z"/><path class="cls-1" d="M527.47,533.76h31.08v7h-23.7v13.89h20.23v6.54H534.85v14.29h23.7v7H527.47Z"/><path class="cls-1" d="M565.5,533.76h19a15,15,0,0,1,9.92,3.2q4.64,3.64,4.84,10.38-.13,9.92-9.41,13.49l11.28,21.6h-8.78l-10.05-20.8h-9.41v20.8H565.5Zm7.38,21.33H584q4.13-.08,6.21-2.41a7.53,7.53,0,0,0,2-5.34c0-2.54-.86-4.37-2.43-5.51a8.5,8.5,0,0,0-5.41-1.5H572.88Z"/><path class="cls-1" d="M632.13,571.55H613.67l-3.74,10.88h-7.81l17.7-48.67H626l17.69,48.67h-7.77ZM630,565l-7-21.26h-.13l-7,21.26Z"/><path class="cls-1" d="M648.89,533.76h19a14.92,14.92,0,0,1,9.91,3.2q4.65,3.64,4.85,10.38-.15,9.92-9.42,13.49l11.29,21.6h-8.79l-10-20.8h-9.42v20.8h-7.38Zm7.38,21.33h11.15q4.14-.08,6.21-2.41a7.5,7.5,0,0,0,2-5.34c0-2.54-.86-4.37-2.44-5.51a8.48,8.48,0,0,0-5.41-1.5H656.27Z"/><path class="cls-1" d="M715.23,540.33H701.91v-6.57H736v6.57H722.64v42.1h-7.41Z"/><path class="cls-1" d="M740.27,533.76h7.37v31.38c.05,3.31,1,5.84,2.88,7.57a9.5,9.5,0,0,0,7,2.74,9.74,9.74,0,0,0,7.11-2.74c1.83-1.73,2.76-4.26,2.81-7.57V533.76h7.38v32.18c-.1,5.12-1.75,9.18-5,12.18a18.34,18.34,0,0,1-24.54,0q-5-4.5-5.07-12.18Z"/><path class="cls-1" d="M800.63,533.76h6.94l22,34.58h.13V533.76h7.38v48.67h-7l-22-34.59H808v34.59h-7.37Z"/><path class="cls-1" d="M847.4,533.76h31.08v7h-23.7v13.89H875v6.54H854.78v14.29h23.7v7H847.4Z"/><path class="cls-1" d="M901.22,555.62h17.29v9.92a17.16,17.16,0,0,1-17.36,17.29,17,17,0,0,1-9.58-2.81,16.36,16.36,0,0,1-5.68-5.93c-.35-.74-.67-1.44-1-2.11a14.57,14.57,0,0,1-.66-2.6,128.39,128.39,0,0,1,0-22.64,13.65,13.65,0,0,1,1.63-4.64,16.86,16.86,0,0,1,5.68-6,16.69,16.69,0,0,1,9.58-2.73,16.42,16.42,0,0,1,11.48,4.17,18.23,18.23,0,0,1,5.61,10.25h-7.81a10.7,10.7,0,0,0-3.27-5,9.64,9.64,0,0,0-6-2,10,10,0,0,0-4.47,1,9.38,9.38,0,0,0-3.08,2.5,8.06,8.06,0,0,0-1.9,4,57.8,57.8,0,0,0-.53,9.78,56.63,56.63,0,0,0,.53,9.72,8.11,8.11,0,0,0,1.9,4.1,10,10,0,0,0,7.55,3.54,9.37,9.37,0,0,0,7.11-2.94,10.17,10.17,0,0,0,2.87-7.37V562.6h-9.91Z"/><path class="cls-1" d="M925.45,558.09a79.77,79.77,0,0,1,.51-11.35,13.44,13.44,0,0,1,1.63-4.64,17.22,17.22,0,0,1,15.26-8.74,17,17,0,0,1,9.68,2.73,16.31,16.31,0,0,1,5.54,6,11,11,0,0,1,1.7,4.64,145.84,145.84,0,0,1,0,22.64,11.12,11.12,0,0,1-1.7,4.71,15.82,15.82,0,0,1-5.54,5.93,17.32,17.32,0,0,1-9.68,2.81,17,17,0,0,1-9.58-2.81,16.28,16.28,0,0,1-5.68-5.93c-.35-.74-.68-1.44-1-2.11a13.76,13.76,0,0,1-.66-2.6A80,80,0,0,1,925.45,558.09Zm7.41,0a56.3,56.3,0,0,0,.54,9.72,8,8,0,0,0,1.9,4.1,10,10,0,0,0,7.55,3.54,9.12,9.12,0,0,0,4.57-1.1,8.15,8.15,0,0,0,2.94-2.44,8.52,8.52,0,0,0,2-4.1,61.15,61.15,0,0,0,.5-9.72,62.43,62.43,0,0,0-.5-9.78,8.48,8.48,0,0,0-2-4,8.83,8.83,0,0,0-2.94-2.5,10.58,10.58,0,0,0-4.57-1,10,10,0,0,0-4.47,1,9.38,9.38,0,0,0-3.08,2.5,8,8,0,0,0-1.9,4A57.47,57.47,0,0,0,932.86,558.09Z"/><path class="cls-1" d="M1001.64,568.81a18.22,18.22,0,0,1-6.11,10.41,17.34,17.34,0,0,1-11,3.61A17,17,0,0,1,975,580a16.28,16.28,0,0,1-5.68-5.93c-.36-.74-.68-1.44-1-2.11a13.7,13.7,0,0,1-.67-2.6,128.39,128.39,0,0,1,0-22.64,13.65,13.65,0,0,1,1.64-4.64,17.22,17.22,0,0,1,15.26-8.74A16.45,16.45,0,0,1,996,537.53a18.35,18.35,0,0,1,5.61,10.25h-7.81a10.64,10.64,0,0,0-3.28-5,9.59,9.59,0,0,0-6-2,10.1,10.1,0,0,0-4.48,1,9.34,9.34,0,0,0-3.07,2.5,8,8,0,0,0-1.9,4,57.8,57.8,0,0,0-.53,9.78,56.63,56.63,0,0,0,.53,9.72,8,8,0,0,0,1.9,4.1,8.62,8.62,0,0,0,3.07,2.44,8.72,8.72,0,0,0,4.48,1.1q6.19,0,9.28-6.64Z"/><path class="cls-1" d="M1006.85,533.76h7.38v48.67h-7.38Z"/><path class="cls-1" d="M1022.8,558.09a79.77,79.77,0,0,1,.51-11.35,13.44,13.44,0,0,1,1.63-4.64,17.22,17.22,0,0,1,15.26-8.74,17,17,0,0,1,9.68,2.73,16.31,16.31,0,0,1,5.54,6,11,11,0,0,1,1.7,4.64,145.84,145.84,0,0,1,0,22.64,11.12,11.12,0,0,1-1.7,4.71,15.82,15.82,0,0,1-5.54,5.93,17.32,17.32,0,0,1-9.68,2.81,17,17,0,0,1-9.58-2.81,16.28,16.28,0,0,1-5.68-5.93c-.35-.74-.68-1.44-1-2.11a13,13,0,0,1-.67-2.6A80,80,0,0,1,1022.8,558.09Zm7.42,0a57.71,57.71,0,0,0,.53,9.72,8,8,0,0,0,1.91,4.1,8.53,8.53,0,0,0,3.07,2.44,8.66,8.66,0,0,0,4.47,1.1,9.12,9.12,0,0,0,4.57-1.1,8.06,8.06,0,0,0,2.94-2.44,8.52,8.52,0,0,0,2-4.1,59.93,59.93,0,0,0,.5-9.72,61.17,61.17,0,0,0-.5-9.78,8.48,8.48,0,0,0-2-4,8.73,8.73,0,0,0-2.94-2.5,10.58,10.58,0,0,0-4.57-1,10,10,0,0,0-4.47,1,9.24,9.24,0,0,0-3.07,2.5,8,8,0,0,0-1.91,4A58.92,58.92,0,0,0,1030.22,558.09Z"/></g></g></svg>