<?xml version="1.0" encoding="utf-8"?>
<!-- Generator: Adobe Illustrator 21.1.0, SVG Export Plug-In . SVG Version: 6.00 Build 0)  -->
<svg version="1.1" id="Layer_1" xmlns="http://www.w3.org/2000/svg" xmlns:xlink="http://www.w3.org/1999/xlink" x="0px" y="0px"
	 viewBox="0 0 1403.2 423.7" style="enable-background:new 0 0 1403.2 423.7;" xml:space="preserve">
<style type="text/css">
	.st0{fill:#FFFFFF;}
	.st1{fill:#A21521;}
</style>
<title>laboratoriodecontenidosdemarca</title>
<g id="Layer_2">
	<g id="grupo_copesa">
		<g id="ad21b69e-0c02-4ed6-b44c-9ea997463434">
			<path class="st0" d="M467.6,348c20.4,22.8,20.4,22.8,19.4,31.3c-7.3-3.2-27-21.4-36.4-34.1l-2.5,36.6c-3.7,1.1-7.6-1-8.7-4.7
				c-0.1-0.3-0.2-0.6-0.2-0.9c-4.9-16.3-9.1-32.7-13.5-49.1c0,0,0.5-0.6,1.1-1.5c7.4-1.4,7.6,7.3,12.7,9.7c1.2-2.2,2.3-4.5,3.5-6.7
				c5.9-12.7,19.8-19.7,33.5-17c8.5,1.8,14.4,9.4,14.1,18c0.3,9.7-3.8,15.3-12.8,17C474.7,347.2,471.9,347.5,467.6,348z
				 M474.4,329.9l-0.7-2.9l-9.8,2.7l0.5,2.1L474.4,329.9z"/>
			<path class="st0" d="M207.8,89.8c3,2.4,6.5,4.9,9.5,7.6c12.5,12,10.3,28-4.9,36.2c-9.9,5.6-21.6,7.1-32.7,4.3
				c-8.5-17.8-8.7-67.2,0.2-83.8c1.2,0.8,2.4,1.7,3.4,2.7c1,1.4,1.8,2.8,2.5,4.3c4-1.5,7.4-2.9,11-3.9c5.4-1.6,10.9-2.5,15.3,2
				c4.3,4.3,5.5,10.8,3.2,16.4C213.2,80.5,210.6,85.2,207.8,89.8z M183.2,101.7v19.5c3.7,2.7,7.9,4.9,12.3,6.4
				c4.3,0.1,8.5-0.5,12.6-1.8C209.5,108.6,201.3,100.8,183.2,101.7L183.2,101.7z M197.8,68.3c-14.6,2.9-16.7,6.9-12.8,21.6
				c15.1-5.3,16.1-7.1,12.5-21.7L197.8,68.3z"/>
			<path class="st0" d="M338.1,89.8c-1.6,9.7,7.7,18.4,2.4,28.9c-5.6-2.3-9.7-7.3-10.8-13.2c-2.7-11.2-4.9-22.7-6.7-32.7l13-8.9
				c0.7-0.5,1.2-1.2,1.9-1.7c9.7-8.1,23.9-9.7,29.7-3c8.2,9.2,7.7,22.5-1.6,33.1c5.9,5.3,16.4,5.4,18.6,14.6c0.3,3.4,0.3,6.8,0,10.2
				C368.5,107.1,349.5,106.7,338.1,89.8z M347.9,78.5l11.9-4.2c-6.5-1.7-6.5-1.7-11.7,4.2H347.9z"/>
			<path class="st0" d="M256.9,398.5c-11-7.5-7.6-19.9-13.6-30c-3.3,7.4-6.1,13.8-9,20.3s-3.5,13.7-11.7,19.5
				c-0.4-4.2-1.7-7.6-0.7-10c7.3-18.1,15-36.1,22.6-54.1c0.2-0.6,1.4-0.8,3.6-1.9c7.6,9.7,6.4,23.3,12.1,35.3
				c10-13.5,9.7-32.2,25-43.5c2.7,3.3,6.1,5.6,7.1,8.7c3.6,11.5,6.8,23.1,9.4,34.9c1.3,5.8,0,7-7.5,14.4
				c-5.4-11.9-4.1-25.6-12.2-37.4C272.1,368.9,271.7,387.9,256.9,398.5z"/>
			<path class="st0" d="M648.2,50.9l7.2,9c3.2-2.6,6.6-5,10.1-7.1c6-3.9,14.1-2.1,18,3.9c0.9,1.4,1.5,2.9,1.8,4.4
				c0.7,2.3,1.2,4.7,1.5,7.1c1.3,9.8-0.5,17.7-12.5,20.8c10.4,7.7,22.2,13.7,17,29.2c-13.5-6.9-25.7-16.2-35.9-27.5V114
				c0,1-1.4,1.9-2.3,3c-4.1-1.4-6.7-5.4-6.5-9.7c-0.9-16.2-1.3-32.5-1.6-48.7C644.9,57,646.2,55.5,648.2,50.9z M675.1,70.4l-1.3-2
				l-5.7,2.9l0.7,1.5L675.1,70.4z"/>
			<path class="st0" d="M567.6,91.1c0.9-7.9,2.2-15.7,3.9-23.4c2.3-8.2,6.1-15.8,17.1-14.6c2.3,0.2,4.9-1.4,7.3-1.7
				c11.7-2.2,22.9,5.5,25.1,17.2c0.1,0.5,0.2,1,0.2,1.5c2,12.5-0.1,25.3-6,36.5c-5.2,9.4-12,12.5-22.9,10.5
				c-2.1-0.2-4.1-0.7-6.1-1.3C574.2,111.4,566.1,105.3,567.6,91.1z M580.5,71.6c-0.5,3.5-0.7,6.8-1.4,10c-1.8,7.9,2.1,12.6,8.8,15.9
				s13.2,5.2,19.1,1.8s4.2-11.3,3.9-17.2c-0.1-8.1-6.8-14.5-14.8-14.4c-1.1,0-2.2,0.2-3.3,0.4c-4.1,1-8.2,2.2-12.2,3.6L580.5,71.6z"
				/>
			<path class="st0" d="M677.6,391.7l-13.8-31l-35.3-1.6c-4.5,7.7-3.9,19.5-16.4,23.8c-0.2-3.1-1.3-5.6-0.5-7.5
				c7.8-18.4,15.7-36.8,24.1-54.9c1.7-3.6,4.7-6.6,8.3-8.3c5.3-2.3,11.5,0.2,13.7,5.5l0,0c9,17.3,18,34.8,26.2,52.5
				C688,378,685.2,387.5,677.6,391.7z M659.1,351.2c-5.5-9-7.9-17.4-16-24.4l-11.5,24.4H659.1z"/>
			<path class="st0" d="M0.7,386.6c0.4-5,0.4-10,0-15c-1.8-12,7.2-17.1,14.6-22.9c4.4-3.6,18.9,0,24.4,5.5c1.8,1.7,3.1,3.9,4.9,5.8
				c8.6,9.1,2.9,44.5-5.9,52c-7.4,6.2-26.2,8.2-34.1,2c-2.3-2.2-3.7-5.3-3.9-8.5c-0.8-6.1-0.5-12.5-0.5-18.8L0.7,386.6z M8.8,398.5
				c5.4,0.9,10.9,1.4,16.4,1.4c9.3-0.6,12.8-5.5,13.8-17.5c0.6-9.7-2.1-13.9-11.4-16c-5.1-1.1-10.4-1.6-16.2-2.5L8.8,398.5z"/>
			<path class="st0" d="M5.3,273.9c-1.3-4.8-2-9.7-2-14.6c2.2-18,0-36.5,4.5-54.2l2.9-0.5c1.1,2.1,3.2,4.3,3.2,6.5
				c0,10.9-0.5,21.7-0.8,32.6v14.1c10.9,0.2,21.2-5.4,27-14.6c2.2-3.4,2.8-7.6,1.6-11.5c-3-7.5-8.8-13.5-16.2-16.6
				c-12.3-4.6-12.4-4.9-8-17.8c23.4,1.8,35.9,18.6,33.8,45.7C49.9,263,30.8,276.4,5.3,273.9z"/>
			<path class="st0" d="M756.7,95.6c-0.1-2.1,0.1-4.2,0.3-6.2c1.9-20.8,13.9-29.2,34.4-24.3c10.5,2.5,18.1,11.5,18.8,22.2
				c0.6,8.8-1.9,17.6-7.1,24.7c-8.5,11.9-25.1,14.6-37,6c-1.9-1.3-3.6-2.9-5-4.7c-3.5-4.5-3.9-11.3-5.8-17L756.7,95.6z M768.2,80.9
				c-2.5,17.4,6.5,26.8,21.2,24.6c5.7-0.2,10.2-5,10.1-10.7c-0.1-2.1-0.8-4.1-2-5.8c-2.2-4.6-6.7-7.6-11.7-8.1
				C780.1,80.7,774.4,81,768.2,80.9L768.2,80.9z"/>
			<path class="st0" d="M133.2,197.8c-10,9.3-22.3,4.9-34.4,7.6l-3.9,16.8c11.7,4.9,24.3-1.8,36.9,3.8c-11.5,10.8-24.1,7-35.9,6.5
				c-2.4,9.7-2,10.8,6,11.6s17.3,2.8,19.9-10.2c7.5,12.2,2.1,25.8-9.1,27.9c-0.8,0.1-1.7,0.1-2.5,0c-21-1.2-27.5-2.2-25.8-26.3
				c0.6-8.7,2.7-17.3,3.7-26c0.2-4.5,0.2-9.1,0-13.6C103.5,196.6,118.3,192.3,133.2,197.8z"/>
			<path class="st0" d="M486.5,94.6c2.9,5.1,3.3,11.2,1.3,16.8c-0.2,3-2.7,5.3-5.7,5.1c-1.6-0.1-3.1-0.9-4-2.2
				c-3.3-3.2-6-6.8-8.3-10.8c-3.2-5.3-5.9-11-9.1-17h-27.2c-7.6,5.2,0,17.3-8.6,24.3c-1.5-1.8-3.9-3.4-4-5.3
				c-2-20.3,5.9-37.4,19-52.3c4.2-4.9,9.4-4.2,13.7,1.4c6,7.9,11.5,16.3,17.1,24.4c2,3.1,3.4,6.7,5.3,9.7
				C478.6,94.1,479.2,94.3,486.5,94.6z M455,78.2l-9.7-11.6l-8.1,11.6H455z"/>
			<path class="st0" d="M594.8,204.5c-5.8,13.9-5.2,29.5-15.4,41.5c-6.3-3.6-3.9-9.2-3-13.4c3-13.4,6.6-26.7,10.5-39.8
				c1-3.4,3.2-6.4,6.3-8.2c1.7-0.8,6.2,2.1,7.9,4.6c4.9,7.2,9.1,14.9,13.3,22.5c2.8,4.9,5.3,10.1,8.8,16.9
				c8.4-14.6,4.9-31.4,11.8-44.5h3.1c1.4,2.7,2.2,5.7,2.4,8.8c-1.9,13.2-4.3,26.4-6.8,39.4c-0.7,2.8-1.9,5.5-3.4,8
				c-3.4,5.9-8.6,6.8-13.2,1.7c-2.6-3.2-4.8-6.8-6.5-10.6c-3.9-7.4-7.5-14.9-11.3-22.3C598,207.4,596.5,205.9,594.8,204.5z"/>
			<path class="st0" d="M93.8,98.5c-2.7,7.3-5.4,14.6-8.1,22.1c-1.3,3.3-1.4,7.7-6.3,8.3c-4.9-2.2-3.8-6.6-2.6-9.7
				c7-19.5,14.2-39.2,22.1-58.4c3.2-7.8,9.7-7.5,13.6,0.5c6.1,12.3,11.2,25.1,16.6,37.8c1.7,3.8,3.1,7.7,4.4,11.7
				c2.6,6.4,1.3,13.7-3.4,18.7c-7.8-5.6-6.1-16.1-13.2-23.4h-16c-4.6,0-8.3-1.8-7.3-7.7c6.7-0.8,13.8,0.6,20.7-3.1
				c-3.3-7-4.9-14.2-11.5-21.2L93.8,98.5z"/>
			<path class="st0" d="M286.1,229.5c1.7-6.4,3-12.9,5.2-19.1c4-11.4,8.6-14.2,20.6-13.4c3.3,0.2,6.5,0.7,9.7,1.4
				c8.5,1.8,13.7,7,13.1,15.5c-0.6,8.7-2.4,17.2-5.4,25.3c-4.3,11.4-12.4,14.3-25.6,11.5C291.6,248,287.4,242.6,286.1,229.5z
				 M311.7,213.8h-4.9c-4.5-0.8-8.8,2.3-9.6,6.8c-0.1,0.3-0.1,0.6-0.1,1c-1.3,4.7,1.3,9.6,5.9,11.1c4.4,1.2,9,1.8,13.5,1.7
				c5.8,0,7.4-4.4,8.1-9.3c0.9-4.2-1.5-8.4-5.6-9.7C316.7,214.5,314.2,214.1,311.7,213.8L311.7,213.8z"/>
			<path class="st0" d="M128.7,352.4c-11.8,7.2-22.6,6.6-34.5,6.6l-4.9,14.3c12.2,2.9,24.3-0.9,36.2,6.2
				c-12.5,8.2-24.3,1.6-36.1,2.5c-0.9,5.9,2.4,11.6,8,13.8c7.9,3.4,16.1,4.1,22.3-4.2c6.5,11.1,0.4,23.5-11,23.8
				c-19,0.5-29.8-9.7-29.6-29.2c0.1-10.5,2.2-20.8,6.2-30.4c1.6-3.7,3.5-5.7,7-5.9c9.7-0.5,19.9-0.7,29.9-0.7
				C123.8,349.3,125.1,350.6,128.7,352.4z"/>
			<path class="st0" d="M713.8,244.3c-1-5.2-1.7-10.4-2-15.6c0.2-10.9,1.4-21.7,1.8-32.6c0.1-4.6,2.1-9,5.5-12c2.6-2.5,3.9-7,8.5-6
				s10.7,1.8,13.6,4.9c11.1,11.4,14.9,28,9.7,43.1c-3.4,10.8-12.6,16.4-23.6,18.1C722.9,244.5,718.3,244.6,713.8,244.3z
				 M722.6,225.9c12,0,20.9-6,21-14.2c0-9.7-8.3-16.7-21-16.3V225.9z"/>
			<path class="st0" d="M414.3,235.5c4.9-32.1,4.9-32.1,11.7-34.1c3.1,14.1-2.1,46.1-9.7,56.6c-8.4-2.3-11.1-10.5-15.6-16.5
				s-8.1-13.3-12.7-21c-5.8,11.5-4.5,24.4-12.3,34.4c-3.6-2.1-5.1-6.5-3.6-10.3c3-12.6,5.6-25.3,9.1-37.7c1.3-3.3,4-5.9,7.4-7.2
				c1.5-0.5,5.3,3.2,6.9,5.8c5.2,8.1,9.7,16.6,14.6,24.8C411.4,232.1,412.8,233.9,414.3,235.5z"/>
			<path class="st0" d="M809.7,235.9c-16.6-1.5-23.2-8.9-21.6-24.8c0.1-3.8,0.7-7.5,1.8-11.1c6.7-18.8,9.7-21,29.2-16.8
				c9.7,2.1,13.5,9.4,15.6,17.6c1.9,11.8-2.9,23.7-12.4,30.9C818.3,233.6,814.1,235.1,809.7,235.9z M800,199.2
				c-1,6.7-3.3,11.5,2,15.5c5,4,11.7,5.2,17.8,3.3c3.3-0.7,5.4-4,4.7-7.3c-0.1-0.6-0.3-1.2-0.6-1.7c-1.5-5.4-6.1-9.3-11.7-9.7
				c-3.9-0.3-7.6-0.1-12.4-0.1L800,199.2z"/>
			<path class="st0" d="M394.5,384l-10.8-25.6l-19.5-2.4c-2.7,6.1-5.5,12.5-8.2,18.9s-4.9,12.4-11.5,15.2c-4-3.1-2.7-6.4-1.4-9.4
				c7.5-17.2,15.1-34.3,22.7-51.5c0.8-1.9,1.9-3.7,3.1-5.5c4.5-6.4,9.1-6.7,14.1-0.5c2.4,3,4.3,6.2,5.8,9.7
				c4.2,10,8.2,20.1,11.8,30.3S403.8,373,394.5,384z M373,335.3l-6.2,14.7l13.1-1.8L373,335.3z"/>
			<path class="st0" d="M277.9,113.9c-21.7,0-27.3-7.9-23.6-28.5c0.9-4.1,2.4-8,4.4-11.6c5.8-11.5,8.6-13,20.6-11
				c10.4,1.7,16.9,7.7,16.8,18.6c-0.3,8.8-1.8,17.4-4.4,25.8C289.8,113.8,283.4,114.5,277.9,113.9z M286.2,95.7
				c-0.4-12.5-3.9-16.3-13.5-16.3c-4.7,0.4-8.5,3.7-9.7,8.3c-0.7,3.7,2.4,7.3,7.7,7.9C275.8,95.9,281,95.9,286.2,95.7L286.2,95.7z"
				/>
			<path class="st0" d="M860.4,238.6c4.6-1.4,8.5-2.5,12.4-3.8c4.9-1.5,9.7-2.8,14.2-4.9c8.3-3.5,8.2-3.7,7.3-15
				c-8.9-1.8-17.9-4.9-19.5-15.7c-1.2-8.7-1.7-17.6,7.5-23.5c6.6,2.2,7.9,8,10.1,13.9l-8.6,5.4c1,1,2.1,1.8,3.3,2.4
				c13.8,4.5,24,23.4,19.5,36.9c-0.5,2-1.6,3.9-3.1,5.4c-9.8,7.9-22.1,12.1-34.7,11.8C863.2,252,862,245.8,860.4,238.6z"/>
			<path class="st0" d="M34.6,38c3.8,6.6,1.5,12.4,0,18.3c-3.9,14-8.1,28-11.8,42.1c-1,4.5-1.7,9-2.2,13.6
				c11.1,7.4,23.4,1.7,34.1,4.9c0.6,11.8-2,16-11.8,16.4c-7.4,0.3-14.9-0.3-22.2-1.8c-8.3-1.8-10.6-4.9-9.7-13.3
				c1.1-11.6,3-23.1,5.7-34.5c2.9-12.7,6.9-25.2,10.6-37.4C28.1,42.4,30.9,39.3,34.6,38z"/>
			<path class="st0" d="M519.6,189.3c11.2-6.8,28.6-9.2,36.9-4.4c-6.7,9.7-18.5,5.6-27.6,10.1v8c8.7,2.1,17.5-5.6,26.4,1.8
				c-8.3,7.4-17.7,6-27.5,5.3c-3,3.5-2.8,8.7,0.3,12.1c3.9,4.2,13.9,3.1,22.3-2c0.4,0.7,0.8,1.4,1,2.2c2,18.2-7,24.7-25.8,17.5
				c-5.4-1.9-8.9-7-8.6-12.7c0-8.3,0.7-16.7,1.2-24.9C518.5,198.2,519.1,194,519.6,189.3z"/>
			<path class="st0" d="M262.6,248.4c-6.9,16.2-16.2,19.5-29.7,12.2c-7.5-4.1-12.6-11.5-13.7-20c-1.6-9.6-0.2-19.4,4-28.1
				c4.9-10.4,12.6-14.2,23.2-11.4c-2,6.3-6.8,11.2-13.1,13.3C228.9,239.8,237.6,250.3,262.6,248.4z"/>
			<path class="st0" d="M574.1,368.4c-2,11-8.4,18.1-16.8,18.9s-19.5-6.6-23.1-16.2c-5.1-13.1,2.9-37.2,15.2-44.4
				c2.3-1.3,5.1-1.6,7.6-0.6c3.4,2.1,1,5.2-0.7,7.5c-1.4,2-3.1,3.8-4.9,5.5c-7.3,7.1-7.9,18.7-1.3,26.5c5.9,6.4,10.2,7.2,18.6,3.4
				c1.1-0.5,2.3-0.9,3.5-1.2C572.3,367.6,572.7,367.9,574.1,368.4z"/>
			<path class="st0" d="M520,49.6l3.8-15.5c8.1,2.8,3.9,10.2,7.4,14c6.3,3.1,14.2-3.8,20.2,3.6c-5.4,6.8-13.4,6.1-21,8.2
				c-1,17.1,6.8,34.1,0,52c-6.9-3.6-6.7-8.9-7-14.3c-0.6-12-1.5-24-2.3-36.8l-21.8,2.5C503.6,52.7,513.7,54.1,520,49.6z"/>
			<path class="st0" d="M476.5,206.1c0-9.7-3.3-19.5,1-31.2c10.9,8.7,6.1,20.6,9.7,31l15.2,5.3l-13,5.6c-4.9,9.7,6.1,20.4-0.5,31.8
				c-10.1-8.7-7-21.3-11.8-31l-16.7-4.5C464.2,205.2,471.8,210.6,476.5,206.1z"/>
			<path class="st0" d="M723.1,118.4c-6.9-11.2-4.9-23.2-6.1-34.5c-1.8-14.4-0.7-18.2,3.8-28.2c1.6,2.3,2.9,4.8,3.8,7.5
				c1.6,14.6,3,29.2,4.2,43.5C729.9,111.5,727.5,116.4,723.1,118.4z"/>
			<path class="st0" d="M677.8,179.6c2.5,3.8,4.9,5.9,5.4,8.3c2,14.4,3.5,28.7,4.9,43.2c0,1.1-1.8,2.4-3,4c-9.2-6.3-7.2-16.2-8-24
				C676,201.4,671.2,191.1,677.8,179.6z"/>
			<rect x="961.8" class="st1" width="441.4" height="423.7"/>
			<polygon class="st0" points="1014.7,77.8 1057.2,77.8 1057.2,310.2 1178.8,310.2 1178.8,347.9 1014.7,347.9 			"/>
			<polygon class="st0" points="1227.4,115.5 1147.2,115.5 1147.2,77.8 1350.2,77.8 1350.2,115.5 1269.9,115.5 1269.9,347.9 
				1227.4,347.9 			"/>
		</g>
	</g>
</g>
</svg>
