<svg xmlns="http://www.w3.org/2000/svg" viewBox="0 0 856.46 110.23">
  <title>latercera-alt</title>
  <g id="6cba5af3-83b7-491a-bad8-688f356c5898" data-name="Layer 2">
    <g id="2c06b094-dc1c-4a16-8b9d-8dac63ee7282" data-name="Capa 1">
      <g>
        <rect width="115.24" height="110.23" style="fill: #91252f"/>
        <polyline points="14.05 20.04 25.09 20.04 25.09 80.41 56.68 80.41 56.68 90.21 14.05 90.21 14.05 20.04" style="fill: #fff"/>
        <polyline points="69.31 29.84 48.46 29.84 48.46 20.04 101.19 20.04 101.19 29.84 80.35 29.84 80.35 90.21 69.31 90.21 69.31 29.84" style="fill: #fff"/>
        <polyline points="313.04 19.36 283.3 19.36 283.3 5.37 358.6 5.37 358.6 19.36 328.81 19.36 328.81 105.59 313.04 105.59 313.04 19.36" style="fill: #fff"/>
        <path d="M512.62,105.59H493.89l-17.1-24.35a50.4,50.4,0,0,1-7.21.46h-9.89v23.88H443.93V5.37h25.65c27.56,0,42.74,15.17,42.74,38.31,0,15.49-6.92,27.42-20.06,33.49l20.36,28.43M469,68.15c19.27,0,27.07-9.13,27.07-24.47,0-15.15-7.94-24.32-27.07-24.32h-9.35V68.15Z" style="fill: #fff"/>
        <path d="M518.79,55.48c0-29.62,22.56-51.42,51.15-51.42,18.59,0,31.4,7.21,40.11,19.44L598,32c-6.67-9-15.19-13.72-28.44-13.72-19.91,0-34.36,15.93-34.36,37.16,0,21.69,14.78,37.16,34.93,37.16,13,0,22.56-4.9,30.08-14.63l12.24,8.43c-10.32,13.71-23.44,20.48-42.89,20.48-28.61,0-50.72-21.82-50.72-51.43" style="fill: #fff"/>
        <path d="M764.36,105.59H745.63L728.5,81.25a50.28,50.28,0,0,1-7.18.46h-9.83v23.88H695.67V5.37h25.65c27.55,0,42.76,15.17,42.76,38.31,0,15.49-6.94,27.42-20.07,33.49l20.35,28.43M720.7,68.15c19.33,0,27.13-9.13,27.13-24.47,0-15.15-8-24.32-27.13-24.32h-9.21V68.15Z" style="fill: #fff"/>
        <path d="M783.48,105.6H767.56L811.49,3.32h.89L856.46,105.6H839.81l-5.76-14h-44.8l-5.77,14m28.33-67.67L795.13,77.59h33Z" style="fill: #fff"/>
        <polyline points="686.22 91.6 636.72 91.6 636.72 74.63 679.28 74.63 679.28 60.92 636.72 60.92 636.72 19.36 686.22 19.36 686.22 5.37 620.94 5.37 620.94 105.59 686.22 105.59 686.22 91.6" style="fill: #fff"/>
        <polyline points="384.24 74.64 426.84 74.64 426.84 60.92 384.24 60.92 384.24 19.36 434.28 19.36 434.28 5.37 368.5 5.37 368.5 105.59 434.38 105.59 434.38 91.6 384.24 91.6 384.24 74.64" style="fill: #fff"/>
        <polyline points="145.31 5.43 161.06 5.43 161.06 91.62 206.32 91.62 206.32 105.64 145.31 105.64 145.31 5.43" style="fill: #fff"/>
        <path d="M211,105.63H195L239,3.35h.94l44,102.28H267.25l-5.72-14H216.69l-5.73,14M239.26,38,222.62,77.61h33Z" style="fill: #fff"/>
      </g>
    </g>
  </g>
</svg>
