<?xml version="1.0" encoding="utf-8"?>
<!-- Generator: Adobe Illustrator 21.1.0, SVG Export Plug-In . SVG Version: 6.00 Build 0)  -->
<svg version="1.1" id="Layer_1" xmlns="http://www.w3.org/2000/svg" xmlns:xlink="http://www.w3.org/1999/xlink" x="0px" y="0px"
	 viewBox="0 0 873.4 167.3" style="enable-background:new 0 0 873.4 167.3;" xml:space="preserve">
<style type="text/css">
	.st0{fill:#A21521;}
	.st1{fill:#FFFFFF;}
</style>
<title>lt-eldeportivo</title>
<g id="_x34_2269485-c527-445c-956e-b23d28050c55">
	<g id="_x31_1b07600-86a6-43b3-9bf9-6f97b3aa70dc">
		<g>
			<g>
				<rect y="45.8" class="st0" width="69.8" height="67.1"/>
				<polygon class="st1" points="8.4,58.2 15.1,58.2 15.1,94.9 34.3,94.9 34.3,100.9 8.4,100.9 				"/>
				<polygon class="st1" points="42,64.1 29.3,64.1 29.3,58.2 61.5,58.2 61.5,64.1 48.8,64.1 48.8,100.9 42,100.9 				"/>
				<g>
					<polygon class="st0" points="16.5,118.4 13.6,118.4 13.6,117 21,117 21,118.4 18,118.4 18,126.9 16.5,126.9 					"/>
					<path class="st0" d="M36.1,126.9h-1.8l-1.7-2.4c-0.2,0-0.5,0-0.7,0h-1v2.3h-1.5V117h2.5c2.7,0,4.2,1.5,4.2,3.8
						c0.1,1.4-0.7,2.7-2,3.3L36.1,126.9z M31.8,123.2c1.9,0,2.7-0.9,2.7-2.4s-0.8-2.4-2.7-2.4h-0.9v4.8H31.8z"/>
					<path class="st0" d="M36.7,121.9c-0.1-2.7,2.1-5,4.8-5c0.1,0,0.1,0,0.2,0c1.6-0.1,3,0.6,3.9,1.9l-1.2,0.8
						c-0.6-0.9-1.7-1.4-2.8-1.3c-2,0.2-3.5,1.9-3.3,3.9c0.1,1.8,1.6,3.2,3.4,3.4c1.2,0.1,2.3-0.5,3-1.4l1.2,0.8
						c-1,1.3-2.6,2.1-4.2,2c-2.7,0.1-5-2.1-5-4.8C36.7,122.1,36.7,122,36.7,121.9"/>
					<path class="st0" d="M60.8,126.9H59l-1.7-2.4c-0.2,0-0.5,0-0.7,0h-1v2.3h-1.5V117h2.5c2.7,0,4.2,1.5,4.2,3.8
						c0.1,1.4-0.7,2.7-2,3.3L60.8,126.9z M56.5,123.2c1.9,0,2.7-0.9,2.7-2.4s-0.8-2.4-2.7-2.4h-0.9v4.8H56.5z"/>
					<path class="st0" d="M62.7,126.9h-1.6l4.3-10h0.1l4.3,10h-1.6l-0.6-1.4h-4.4L62.7,126.9z M65.5,120.2l-1.6,3.9h3.2L65.5,120.2z
						"/>
					<polygon class="st0" points="53.1,125.5 48.3,125.5 48.3,123.8 52.5,123.8 52.5,122.5 48.3,122.5 48.3,118.4 53.1,118.4 
						53.1,117 46.7,117 46.7,126.9 53.1,126.9 					"/>
					<polygon class="st0" points="23.5,123.8 27.6,123.8 27.6,122.5 23.5,122.5 23.5,118.4 28.4,118.4 28.4,117 21.9,117 
						21.9,126.9 28.4,126.9 28.4,125.5 23.5,125.5 					"/>
					<polygon class="st0" points="0,117 1.5,117 1.5,125.5 6,125.5 6,126.9 0,126.9 					"/>
					<path class="st0" d="M6.4,126.9H4.9l4.3-10h0.1l4.3,10H12l-0.6-1.4H7L6.4,126.9z M9.2,120.2l-1.6,3.9h3.2L9.2,120.2z"/>
				</g>
			</g>
			<g>
				<path class="st1" d="M125.4,107.3c7.3,0,14.4-2.3,20.4-6.5l14.7,15.8c-7.8,6.9-17.7,12-34.7,12c-29,0-47.6-17.5-47.6-42.5
					c0-24.6,19.6-42.1,44.8-42.1c29.2,0,45,21.7,43.1,50.1h-61.6C106.9,102.5,113.8,107.3,125.4,107.3z M140.1,79.3
					c-1.1-9-6.9-14.3-17-14.3s-17,4.6-19.1,14.3H140.1z"/>
				<path class="st1" d="M169.8,3.9h25.5v123h-25.5V3.9z"/>
				<path class="st1" d="M199.2,86.1c0-25,16.8-42.1,36.4-42.1c13,0,20.2,5.2,25.4,13.2V3.9h25.7v123h-25.7l0.6-11.8
					c-4.6,8.6-13.1,13.5-25.5,13.5C216.1,128.6,199.2,111.1,199.2,86.1z M261.7,86.1c0-12-7.2-19.4-18.3-19.4
					c-10.9,0-17.7,7.4-17.7,19.4c0,12.8,6.9,20,17.7,20C254.4,106.1,261.7,98.9,261.7,86.1L261.7,86.1z"/>
				<path class="st1" d="M336.9,107.3c7.3,0,14.4-2.3,20.4-6.5l14.7,15.8c-7.8,6.9-17.7,12-34.7,12c-29,0-47.6-17.5-47.6-42.5
					c0-24.6,19.6-42.1,44.8-42.1c29.2,0,45,21.7,43.1,50.1H316C318.5,102.5,325.3,107.3,336.9,107.3z M351.6,79.3
					c-1.1-9-6.9-14.3-17-14.3s-17,4.6-19.1,14.3H351.6z"/>
				<path class="st1" d="M380.8,45.7h25.7l-0.6,12.6c5-8.8,13.5-14.3,26.1-14.3c19.6,0,36.2,17.2,36.2,42.1s-17,42.5-36.8,42.5
					c-12.4,0-20.8-5.2-25-12.6v51.3h-25.7V45.7z M441.8,86.1c0-12-6.9-19.4-17.7-19.4c-11,0-18.3,7.4-18.3,19.4
					c0,12.8,7.2,20,18.3,20C434.9,106.1,441.8,98.9,441.8,86.1L441.8,86.1z"/>
				<path class="st1" d="M468.6,86.5c0-24.8,19.6-42.5,44.8-42.5S558,61.7,558,86.5c0,24.6-19.4,42.1-44.6,42.1
					S468.6,111.1,468.6,86.5z M531.7,86.5c0-12.2-6.9-20.4-18.3-20.4s-18.5,8.2-18.5,20.4c0,12,7,20.4,18.5,20.4
					C524.8,106.9,531.7,98.5,531.7,86.5z"/>
				<path class="st1" d="M561,45.7h25.7l-0.4,14.7c6-13.3,15.5-16.4,23.9-16.4c4.4,0,8.7,1.1,12.6,3.2l-8.2,23.5
					c-3.1-1.6-6.5-2.4-9.9-2.5c-11.6,0-17.9,5.3-17.9,22.7v36H561V45.7z"/>
				<path class="st1" d="M629.3,96.4V67.1h-12V45.7h12V3.4h25.5v42.3h20.8v21.3h-20.8v30.1c0,8.2,2.7,9.9,6.7,9.9
					c4.2,0,7.2-2.3,9-3.4l9.7,17.9c-4,3.2-10.9,7.4-22.7,7.4C641.1,129,629.3,120.8,629.3,96.4z"/>
				<path class="st1" d="M676.5,16c0-9.3,7.6-16,16.4-16c8.8-0.2,16,6.8,16.2,15.6c0,0.1,0,0.3,0,0.4c0,9-7.3,16.3-16.3,16.3
					C683.8,32.3,676.5,25,676.5,16L676.5,16z M680,45.7h25.7v81.2H680V45.7z"/>
				<path class="st1" d="M704.2,45.7h28.4L744,69.9c3.8,8.2,6.7,21.5,6.7,21.5s2.7-13.3,6.3-21.5l11-24.2h26.1l-43.5,82.9h-2.5
					L704.2,45.7z"/>
				<path class="st1" d="M784,86.5c0-24.8,19.6-42.5,44.8-42.5s44.6,17.7,44.6,42.5c0,24.6-19.4,42.1-44.6,42.1S784,111.1,784,86.5z
					 M847.1,86.5c0-12.2-6.9-20.4-18.3-20.4s-18.5,8.2-18.5,20.4c0,12,7,20.4,18.5,20.4S847.1,98.5,847.1,86.5z"/>
			</g>
		</g>
	</g>
</g>
</svg>
