<?xml version="1.0" encoding="utf-8"?>
<!-- Generator: Adobe Illustrator 23.0.1, SVG Export Plug-In . SVG Version: 6.00 Build 0)  -->
<svg version="1.1" id="Layer_1" xmlns="http://www.w3.org/2000/svg" xmlns:xlink="http://www.w3.org/1999/xlink" x="0px" y="0px"
	 viewBox="0 0 854.3 263.8" style="enable-background:new 0 0 854.3 263.8;" xml:space="preserve">
<style type="text/css">
	.st0{fill:#A21521;}
	.st1{fill:#FFFFFF;}
</style>
<title>lt-finde</title>
<g>
	<g>
		<g>
			<g>
				<rect y="108.2" class="st0" width="128.1" height="123"/>
				<polygon class="st1" points="15.3,130.8 27.7,130.8 27.7,198.2 63,198.2 63,209.2 15.3,209.2 				"/>
				<polygon class="st1" points="77.1,141.7 53.8,141.7 53.8,130.8 112.7,130.8 112.7,141.7 89.4,141.7 89.4,209.2 77.1,209.2 				
					"/>
				<g>
					<polygon class="st0" points="30.2,241.2 24.9,241.2 24.9,238.7 38.4,238.7 38.4,241.2 33,241.2 33,256.8 30.2,256.8 					"/>
					<path class="st0" d="M66.2,256.8h-3.4l-3.1-4.4c-0.4,0.1-0.9,0.1-1.3,0.1h-1.8v4.3h-2.8v-18h4.6c5,0,7.7,2.7,7.7,6.9
						c0.1,2.6-1.3,4.9-3.6,6L66.2,256.8z M58.3,250c3.5,0,4.9-1.6,4.9-4.4s-1.4-4.4-4.9-4.4h-1.7v8.8H58.3z"/>
					<path class="st0" d="M67.3,247.7c-0.1-5,3.9-9.1,8.9-9.3c0.1,0,0.2,0,0.4,0c2.8-0.2,5.6,1.2,7.2,3.5l-2.2,1.5
						c-1.2-1.7-3.1-2.6-5.1-2.5c-3.6,0-6.2,2.9-6.2,6.7s2.7,6.7,6.3,6.7c2.1,0.1,4.2-0.9,5.4-2.6l2.2,1.5c-1.8,2.5-4.7,3.9-7.7,3.7
						c-5,0.1-9.1-3.9-9.1-8.9C67.3,248,67.3,247.9,67.3,247.7"/>
					<path class="st0" d="M111.5,256.8h-3.4l-3.1-4.4c-0.4,0.1-0.9,0.1-1.3,0.1H102v4.3h-2.9v-18.1h4.6c5,0,7.7,2.7,7.7,6.9
						c0.1,2.6-1.3,4.9-3.6,6L111.5,256.8z M103.6,250c3.5,0,4.9-1.6,4.9-4.4s-1.4-4.4-4.9-4.4H102v8.8H103.6z"/>
					<path class="st0" d="M115,256.8h-2.9l7.9-18.4h0.2l7.9,18.4h-3l-1-2.5H116L115,256.8z M120.1,244.6l-3,7.1h6L120.1,244.6z"/>
					<polygon class="st0" points="97.4,254.2 88.5,254.2 88.5,251.2 96.2,251.2 96.2,248.7 88.5,248.7 88.5,241.2 97.4,241.2 
						97.4,238.7 85.7,238.7 85.7,256.8 97.4,256.8 					"/>
					<polygon class="st0" points="43,251.2 50.7,251.2 50.7,248.7 43,248.7 43,241.2 52.1,241.2 52.1,238.7 40.2,238.7 40.2,256.8 
						52.1,256.8 52.1,254.2 43,254.2 					"/>
					<polygon class="st0" points="0,238.7 2.8,238.7 2.8,254.3 11,254.3 11,256.8 0,256.8 					"/>
					<path class="st0" d="M11.8,256.8H9l7.9-18.4H17l8,18.4h-3l-1-2.5h-8.1L11.8,256.8z M16.9,244.6l-3,7.1h5.9L16.9,244.6z"/>
				</g>
			</g>
			<path class="st1" d="M173.4,147.1h-24.8V108h24.8V58c0-38.4,18.2-58,54.9-58c21,0,34.9,6.3,45.8,18.9l-25.5,31.5
				c-3.5-4.2-7.7-8-15-8c-7.7,0-12.9,4.2-12.9,15V108h40.1v39.1h-40.2v109.7h-47.2V147.1z"/>
			<path class="st1" d="M265.4,53.5c0-17.1,14-29.4,30-29.4s29.7,12.2,29.7,29.4c0,17.5-13.6,29.7-29.7,29.7S265.4,70.9,265.4,53.5z
				 M271.6,108h47.2v148.9h-47.2V108z"/>
			<path class="st1" d="M328,108h47.2l-1,24.5c9.1-17.8,26.6-27.6,47.2-27.6c32.5,0,55.9,23.8,55.9,66v86H430V174
				c0-16.8-8-26.2-24.8-26.2c-18.9,0-30,10.5-30,29.4v79.7H328V108z"/>
			<path class="st1" d="M481,185.9c0-45.8,30.8-77.2,66.8-77.2c23.8,0,37,9.4,46.5,24.1V8.4h47.2v252.3h-47.2l1.1-21.7
				c-8.4,15.7-24.1,24.8-46.8,24.8C512.1,263.8,481,231.7,481,185.9z M595.6,185.9c0-22-13.3-35.6-33.5-35.6
				c-19.9,0-32.5,13.6-32.5,35.6c0,23.4,12.6,36.7,32.5,36.7C582.3,222.6,595.6,209.3,595.6,185.9L595.6,185.9z"/>
			<path class="st1" d="M729.3,224.2c13.4-0.1,26.4-4.3,37.3-12.1l27.1,28.8c-14.2,12.7-32.4,22.2-63.5,22.4
				c-53.1,0.3-87.6-31.6-87.9-77.4c-0.3-45.1,35.5-77.5,81.6-77.8c53.5-0.3,82.7,39.3,79.5,91.4l-112.9,0.7
				C695.3,215.7,708,224.4,729.3,224.2z M755.9,172.7c-2.2-16.4-12.8-26.1-31.3-26s-31,8.6-34.8,26.4L755.9,172.7z"/>
			<path class="st1" d="M795.3,229.2c0-17.1,13.6-29.4,29.7-29.4c16.3,0,29.6,13.2,29.6,29.6S841.3,259,825,259l0,0
				C808.9,259,795.3,246.7,795.3,229.2z"/>
		</g>
	</g>
</g>
</svg>
