<?xml version="1.0" encoding="utf-8"?>
<!-- Generator: Adobe Illustrator 23.0.1, SVG Export Plug-In . SVG Version: 6.00 Build 0)  -->
<svg version="1.1" id="Layer_1" xmlns="http://www.w3.org/2000/svg" xmlns:xlink="http://www.w3.org/1999/xlink" x="0px" y="0px"
	 viewBox="0 0 680.8 200.3" style="enable-background:new 0 0 680.8 200.3;" xml:space="preserve">
<style type="text/css">
	.st0{fill:#A21521;}
	.st1{fill:#FFFFFF;}
</style>
<title>lt-pulso</title>
<g>
	<g>
		<g>
			<g>
				<rect y="2.8" class="st0" width="169.1" height="162.4"/>
				<polygon class="st1" points="20.2,32.6 36.5,32.6 36.5,121.7 83.2,121.7 83.2,136.1 20.2,136.1 				"/>
				<polygon class="st1" points="101.8,47 71,47 71,32.6 148.8,32.6 148.8,47 118.1,47 118.1,136.1 101.8,136.1 				"/>
				<g>
					<polygon class="st0" points="39.9,178.5 32.8,178.5 32.8,175.1 50.7,175.1 50.7,178.5 43.7,178.5 43.7,199 39.9,199 					"/>
					<path class="st0" d="M87.4,199h-4.4l-4.1-5.8c-0.6,0.1-1.1,0.1-1.7,0.1h-2.4v5.7H71v-23.9h6.1c6.6,0,10.2,3.6,10.2,9.1
						c0,3.7-1.7,6.5-4.8,8L87.4,199z M77,190.1c4.6,0,6.4-2.2,6.4-5.8s-1.9-5.8-6.4-5.8h-2.2v11.6L77,190.1z"/>
					<path class="st0" d="M88.8,187c-0.1-6.6,5.2-12.1,11.8-12.2c0.1,0,0.2,0,0.4,0c4.4,0,7.5,1.7,9.5,4.6l-2.9,2
						c-1.5-2.2-4.1-3.4-6.8-3.3c-4.7,0-8.2,3.8-8.2,8.8s3.5,8.8,8.3,8.8c2.8,0.1,5.5-1.2,7.2-3.5l2.9,2c-2.5,3.3-5.6,4.9-10.2,4.9
						c-6.6,0.1-12-5.1-12.1-11.7C88.8,187.4,88.8,187.2,88.8,187"/>
					<path class="st0" d="M147.2,199h-4.4l-4.1-5.8c-0.6,0.1-1.1,0.1-1.7,0.1h-2.4v5.7h-3.8v-23.9h6.1c6.6,0,10.2,3.6,10.2,9.1
						c0,3.7-1.7,6.5-4.8,8L147.2,199z M136.8,190.1c4.6,0,6.5-2.2,6.5-5.8s-1.9-5.8-6.5-5.8h-2.2v11.6L136.8,190.1z"/>
					<path class="st0" d="M151.8,199H148l10.4-24.3h0.2l10.5,24.3h-4l-1.4-3.3h-10.6L151.8,199z M158.5,182.9l-4,9.4h7.9
						L158.5,182.9z"/>
					<polygon class="st0" points="128.6,195.6 116.9,195.6 116.9,191.6 127,191.6 127,188.3 116.9,188.3 116.9,178.5 128.6,178.5 
						128.6,175.1 113.1,175.1 113.1,199 128.6,199 					"/>
					<polygon class="st0" points="56.8,191.6 67,191.6 67,188.3 56.8,188.3 56.8,178.5 68.7,178.5 68.7,175.1 53.1,175.1 53.1,199 
						68.8,199 68.8,195.6 56.8,195.6 					"/>
					<polygon class="st0" points="0,175.1 3.8,175.1 3.8,195.6 14.5,195.6 14.5,199 0,199 					"/>
					<path class="st0" d="M15.6,199h-3.8l10.4-24.3h0.2L33,199h-4l-1.4-3.3H17L15.6,199z M22.3,182.9l-4,9.4h7.8L22.3,182.9z"/>
				</g>
			</g>
			<g>
				<path class="st1" d="M269.5,10.7l-75.6,0.2v11.7l85.3-0.3C277,17.7,273.6,13.7,269.5,10.7"/>
				<path class="st1" d="M276.3,109.5l-82.1,0.2l0.1,11.8l65-0.2C266,119.2,271.9,115.1,276.3,109.5"/>
				<polygon class="st1" points="194.1,84.5 226.2,84.3 226.2,72.5 194.1,72.7 				"/>
				<path class="st1" d="M282,97.2l-87.8,0.2v11.7l82.6-0.3C279.3,105.3,281,101.4,282,97.2"/>
				<path class="st1" d="M283.5,85.3v-0.4l-32.1,0.1v0.4c0,7.9-3.8,11.3-11,11.3h-14V85h-32.1l0.1,11.7l88-0.2
					c0.8-3.7,1.3-7.5,1.3-11.2"/>
				<path class="st1" d="M226.4,124h14c5.6,0.1,11.2-0.6,16.6-2l-62.7,0.1v11.7l32.1-0.1L226.4,124"/>
				<polygon class="st1" points="194.1,72.1 226.2,71.9 226.1,60.2 194.1,60.4 				"/>
				<polygon class="st1" points="194.4,146.2 226.4,146.2 226.4,134.4 194.3,134.4 				"/>
				<polygon class="st1" points="194.4,195.6 226.5,195.5 226.5,183.9 194.4,183.9 				"/>
				<polygon class="st1" points="194.4,199 226.5,198.9 226.5,196.1 194.4,196.2 				"/>
				<polygon class="st1" points="194.4,183.3 226.5,183.1 226.4,171.5 194.4,171.5 				"/>
				<polygon class="st1" points="194.4,158.5 226.4,158.4 226.4,146.8 194.4,146.9 				"/>
				<polygon class="st1" points="194.4,170.9 226.4,170.8 226.4,159.1 194.4,159.2 				"/>
				<polygon class="st1" points="251.3,59.6 283.4,59.4 283.4,47.7 251.3,47.8 				"/>
				<path class="st1" d="M226.1,30.3h14c4.4,0,7.8,1.6,9.6,4.6l33.2-0.2c-0.5-4-1.6-7.9-3.2-11.6L194,23.3l0,11.7l32.1-0.2
					L226.1,30.3"/>
				<path class="st1" d="M283.4,41.4c-0.1-2-0.2-4.1-0.4-6h-33c0.9,1.9,1.3,3.9,1.3,6v5.7h32.1L283.4,41.4"/>
				<polygon class="st1" points="251.3,84.2 283.5,84.2 283.4,72.5 251.3,72.5 				"/>
				<polygon class="st1" points="251.3,71.8 283.3,71.8 283.3,60 251.3,60.1 				"/>
				<polygon class="st1" points="194.1,47.3 226.1,47.2 226.1,35.6 194,35.7 				"/>
				<polygon class="st1" points="194.1,59.7 226.1,59.6 226.1,47.9 194.1,48 				"/>
				<path class="st1" d="M240,2.8L193.9,3v7.2l74.5-0.2C261.5,5.4,252.1,2.7,240,2.8"/>
				<polygon class="st1" points="295.8,10 327.8,9.9 327.8,2.5 295.7,2.6 				"/>
				<polygon class="st1" points="353.8,22 385.9,22.1 385.9,10.3 353.7,10.3 				"/>
				<polygon class="st1" points="295.8,22.3 327.9,22.2 327.8,10.5 295.8,10.5 				"/>
				<path class="st1" d="M386.3,158.7h-32.1l-0.1,2c0.1,4.9-2,8.1-5.5,9.9l36.7-0.2c0.7-3.2,1-6.5,1-9.7V158.7"/>
				<polygon class="st1" points="354.1,145.7 386.2,145.5 386.2,133.9 354.1,134 				"/>
				<polygon class="st1" points="354,96.4 386.1,96.2 386.1,84.5 353.9,84.6 				"/>
				<polygon class="st1" points="354,108.6 386.1,108.5 386.1,96.8 354,96.9 				"/>
				<polygon class="st1" points="354,121 386.2,120.9 386.1,109.2 354,109.3 				"/>
				<polygon class="st1" points="354.1,133.3 386.2,133.3 386.2,121.6 354,121.6 				"/>
				<polygon class="st1" points="296,108.8 328.1,108.7 328.1,97 296,97 				"/>
				<polygon class="st1" points="296.1,133.6 328.2,133.4 328.2,121.7 296,121.8 				"/>
				<polygon class="st1" points="354.2,158.1 386.3,158 386.2,146.3 354.1,146.3 				"/>
				<polygon class="st1" points="296,121.1 328.1,121.1 328.1,109.4 296,109.5 				"/>
				<polygon class="st1" points="295.9,59.4 328,59.3 327.9,47.6 295.8,47.7 				"/>
				<path class="st1" d="M328.3,160.8v-2h-32.1v2c0,3.3,0.4,6.6,1.1,9.8l36.6-0.1C330.3,168.9,328.3,165.7,328.3,160.8"/>
				<polygon class="st1" points="353.9,71.5 386,71.5 386,59.9 353.9,59.9 				"/>
				<polygon class="st1" points="296.2,146 328.2,145.8 328.2,134.1 296.1,134.1 				"/>
				<polygon class="st1" points="353.9,83.9 386.1,83.8 386,72.1 353.9,72.2 				"/>
				<path class="st1" d="M341.3,171.9c-2,0-3.9-0.3-5.8-0.8h-38.1c0.9,4.2,2.5,8.2,4.9,11.8l78-0.3c2.3-3.5,4-7.5,4.9-11.6
					l-38.1,0.1"/>
				<polygon class="st1" points="296.2,158.3 328.3,158.1 328.2,146.5 296.2,146.5 				"/>
				<polygon class="st1" points="295.9,71.8 328,71.7 328,60 295.9,60 				"/>
				<path class="st1" d="M379.9,183.3l-77.2,0.2c3.6,5,8.4,9.1,14,11.7l49.3-0.1C371.6,192.5,376.4,188.4,379.9,183.3"/>
				<path class="st1" d="M341.5,200.3c9.1-0.2,16.8-1.8,23.2-4.5l-46.7,0.1C324.5,198.7,332.2,200.3,341.5,200.3"/>
				<polygon class="st1" points="353.9,59.2 386,59.1 386,47.4 353.9,47.5 				"/>
				<polygon class="st1" points="295.8,34.7 328,34.6 327.9,23 295.8,23 				"/>
				<polygon class="st1" points="295.8,46.9 328,46.8 328,35.2 295.8,35.3 				"/>
				<polygon class="st1" points="353.8,34.6 386,34.5 385.9,22.7 353.8,22.7 				"/>
				<polygon class="st1" points="353.9,46.8 386,46.6 386,35 353.8,35.2 				"/>
				<polygon class="st1" points="295.9,84.2 328.1,84 328,72.3 295.9,72.4 				"/>
				<polygon class="st1" points="296,96.5 328.1,96.4 328.1,84.7 295.9,84.7 				"/>
				<polygon class="st1" points="353.7,9.8 385.9,9.7 385.8,2.4 353.7,2.5 				"/>
				<polygon class="st1" points="406,170.3 438.2,170.2 438.1,158.4 406,158.6 				"/>
				<polygon class="st1" points="405.9,120.9 438.1,120.9 438,109.1 405.8,109.1 				"/>
				<polygon class="st1" points="405.8,83.8 437.9,83.6 437.9,71.9 405.7,72 				"/>
				<polygon class="st1" points="438.2,171.1 438.1,170.8 406,170.9 406,182.6 481.2,182.4 481.1,170.9 				"/>
				<polygon class="st1" points="406,145.5 438.1,145.5 438.1,133.7 406,133.9 				"/>
				<polygon class="st1" points="405.8,108.5 438,108.4 437.9,96.6 405.8,96.8 				"/>
				<polygon class="st1" points="406,133.2 438.1,133.1 438.1,121.3 405.9,121.5 				"/>
				<polygon class="st1" points="405.9,96.1 437.9,96.1 437.9,84.3 405.8,84.5 				"/>
				<polygon class="st1" points="406,157.9 438.1,157.8 438.1,146.2 406,146.2 				"/>
				<polygon class="st1" points="406.2,198.3 481.2,198 481.2,195.4 406.1,195.6 				"/>
				<polygon class="st1" points="405.7,59.1 437.9,59 437.9,47.2 405.7,47.3 				"/>
				<polygon class="st1" points="405.8,71.3 437.9,71.3 437.9,59.6 405.7,59.7 				"/>
				<polygon class="st1" points="406.2,195 481.2,194.7 481.2,183.1 406,183.3 				"/>
				<polygon class="st1" points="405.6,34.4 437.8,34.3 437.8,22.5 405.6,22.7 				"/>
				<polygon class="st1" points="405.7,46.6 437.9,46.5 437.8,34.9 405.6,35 				"/>
				<polygon class="st1" points="405.6,21.9 437.8,21.9 437.8,10.2 405.6,10.2 				"/>
				<polygon class="st1" points="405.6,9.7 437.8,9.6 437.8,2.2 405.6,2.4 				"/>
				<path class="st1" d="M531.4,0.3c-13.8,0.1-24.2,3.3-31.6,9.1l62.3-0.2C554.9,3.6,544.6,0.2,531.4,0.3"/>
				<path class="st1" d="M531.9,171.4c-2,0-4-0.3-6-0.8h-38c0.8,4.2,2.5,8.1,4.8,11.7l78.2-0.2c2.3-3.6,3.9-7.5,4.8-11.7h-38.2
					C535.8,171.1,533.9,171.4,531.9,171.4"/>
				<path class="st1" d="M541.5,132.8h34.3c-0.7-4-1.8-8-3.3-11.8l-41.7,0.2C535.2,124.8,539,128.4,541.5,132.8"/>
				<polygon class="st1" points="544.5,58.7 575.6,58.5 575.6,46.8 544.4,46.9 				"/>
				<path class="st1" d="M486.7,160.3c0,3.3,0.3,6.5,1,9.7l36.5-0.1c-3.7-1.6-6-4.7-6-9.7v-1.9l-31.5,0.1V160.3"/>
				<path class="st1" d="M492.3,83.6l43.2-0.2c-4.8-3.7-9.1-7.4-12.1-11.6h-34.9C489.3,75.8,490.6,79.8,492.3,83.6"/>
				<path class="st1" d="M529.9,120.6l42.2-0.1c-1.8-4.2-4.2-8.2-7-11.8l-50.9,0.2C519.7,113,525.2,116.7,529.9,120.6"/>
				<path class="st1" d="M513.4,108.2l51.2-0.1c-3.5-4.3-7.5-8.2-11.9-11.7l-52,0.2C504.6,100.8,508.8,104.8,513.4,108.2"/>
				<polygon class="st1" points="544.5,71 575.6,70.9 575.6,59.3 544.4,59.4 				"/>
				<path class="st1" d="M487.2,46.5h32.1v-8c0-1.3,0.2-2.6,0.7-3.8h-32.6c-0.1,1.3-0.2,2.6-0.2,3.7V46.5"/>
				<path class="st1" d="M544.7,144.4v0.8l32.1-0.2v-1.8c0-3.3-0.3-6.7-0.8-10l-34,0.1C543.8,136.7,544.7,140.5,544.7,144.4"/>
				<polygon class="st1" points="486.7,157.7 518.2,157.7 518.1,146 486.6,146 				"/>
				<polygon class="st1" points="544.7,157.5 576.8,157.5 576.8,145.7 544.7,145.9 				"/>
				<polygon class="st1" points="487.2,58.7 519.3,58.7 519.2,47.1 487.2,47.1 				"/>
				<path class="st1" d="M500.2,96l51.8-0.3c-5.2-4.2-10.7-7.9-15.6-11.5h-43.8C494.6,88.4,497.2,92.4,500.2,96"/>
				<path class="st1" d="M570.6,182.8l-77.6,0.3c3.5,5,8.3,9,13.8,11.6l49.7-0.1C562.2,192,567,187.9,570.6,182.8"/>
				<polygon class="st1" points="486.6,145.4 518.1,145.2 518.1,133.6 486.6,133.6 				"/>
				<path class="st1" d="M487.2,59.6c0,3.9,0.4,7.8,1.2,11.6L523,71c-2.3-3.4-3.6-7.5-3.7-11.6L487.2,59.6"/>
				<path class="st1" d="M487.3,34.2l32.8-0.1c1.7-3.5,5.7-5.4,11.3-5.4c5.2-0.1,9.3,1.8,11.4,5.3h32.4c-0.5-4.1-1.5-8-3.1-11.8
					l-82,0.2C488.6,26.2,487.6,30.2,487.3,34.2"/>
				<path class="st1" d="M531.4,199.6c9.4,0,17.4-1.6,23.9-4.5l-47,0.1C515.5,198.3,523.4,199.8,531.4,199.6"/>
				<path class="st1" d="M576.8,158.1l-32.1,0.2l0,3.3c0.1,3.6-2,6.9-5.3,8.3l36.5-0.1c0.6-2.9,0.9-5.8,0.9-8.8L576.8,158.1"/>
				<polygon class="st1" points="486.6,133 518.1,133 518.1,128 486.6,128.1 				"/>
				<path class="st1" d="M544.4,39.8v6.5h31.2v-6.7c0-1.7-0.1-3.3-0.3-5h-32.1C544,36.2,544.4,38,544.4,39.8"/>
				<path class="st1" d="M490.4,21.8l81.4-0.3c-2.1-4.5-5.1-8.5-8.9-11.7L499.1,10C495.3,13.2,492.3,17.2,490.4,21.8"/>
				<path class="st1" d="M594.3,21.5l82.2-0.1c-2.1-4.6-5.3-8.6-9.2-11.7l-63.7,0.2C599.6,12.9,596.4,16.9,594.3,21.5"/>
				<polygon class="st1" points="648.6,132.5 680.7,132.4 680.7,120.7 648.6,120.9 				"/>
				<polygon class="st1" points="648.7,144.9 680.7,144.8 680.7,133 648.6,133.2 				"/>
				<polygon class="st1" points="648.5,107.8 680.7,107.7 680.6,96 648.5,96.1 				"/>
				<polygon class="st1" points="648.6,120.2 680.7,120.1 680.7,108.4 648.5,108.5 				"/>
				<polygon class="st1" points="648.5,95.4 680.6,95.4 680.6,83.6 648.5,83.8 				"/>
				<polygon class="st1" points="648.7,157.3 680.8,157.1 680.8,145.4 648.7,145.5 				"/>
				<polygon class="st1" points="590.4,70.9 622.6,70.8 622.5,59.1 590.4,59.2 				"/>
				<path class="st1" d="M648.7,159.8c0.1,4.2-2.2,8-6,9.8l37-0.1c0.7-3.2,1-6.5,1-9.9v-2l-32.1,0.1L648.7,159.8"/>
				<polygon class="st1" points="590.7,145.1 622.8,145 622.7,133.2 590.6,133.3 				"/>
				<polygon class="st1" points="590.7,157.4 622.8,157.3 622.8,145.5 590.7,145.7 				"/>
				<polygon class="st1" points="590.6,132.8 622.7,132.6 622.6,120.9 590.6,120.9 				"/>
				<path class="st1" d="M611.2,194.4l49.3-0.1c5.6-2.6,10.5-6.6,14-11.7l-77.2,0.3C600.8,187.8,605.6,191.8,611.2,194.4"/>
				<polygon class="st1" points="648.5,83.1 680.6,82.9 680.5,71.2 648.5,71.3 				"/>
				<path class="st1" d="M635.6,171.1c-1.8,0-3.5-0.3-5.2-0.8l-38.5,0.1c1,4.2,2.7,8.1,5,11.7l77.9-0.2c2.3-3.6,4-7.5,4.9-11.7
					l-38.6,0.1C639.3,170.8,637.5,171.1,635.6,171.1"/>
				<path class="st1" d="M590.7,33.8l33.2-0.1c2.1-3.4,6.1-5.3,11.3-5.4c5.4,0,9.5,2,11.7,5.4h33.2c-0.5-4-1.6-8-3.3-11.7l-82.9,0.2
					C592.3,25.8,591.2,29.8,590.7,33.8"/>
				<polygon class="st1" points="590.6,120.4 622.7,120.3 622.7,108.5 590.5,108.7 				"/>
				<path class="st1" d="M648.3,39.4l0.2,6.6l32-0.1v-6.5c0-1.7-0.1-3.4-0.3-5.1l-33,0.2C647.9,35.9,648.3,37.6,648.3,39.4"/>
				<polygon class="st1" points="590.5,95.6 622.6,95.6 622.6,83.8 590.4,83.9 				"/>
				<polygon class="st1" points="590.4,83.2 622.6,83.1 622.6,71.3 590.4,71.5 				"/>
				<polygon class="st1" points="648.5,58.3 680.6,58.2 680.5,46.5 648.5,46.6 				"/>
				<path class="st1" d="M590.4,46.2l32.1-0.1v-6.6c0-1.8,0.4-3.5,1.1-5.1l-33,0.1c-0.2,1.7-0.2,3.4-0.2,5.1L590.4,46.2"/>
				<polygon class="st1" points="648.5,70.8 680.5,70.6 680.6,58.9 648.5,59.1 				"/>
				<path class="st1" d="M590.7,160c0,3.3,0.3,6.5,1,9.7h37c-3.8-1.7-6.1-5.6-6-9.7v-2h-32.2L590.7,160"/>
				<polygon class="st1" points="590.5,107.9 622.7,107.8 622.6,96.1 590.5,96.2 				"/>
				<polygon class="st1" points="590.4,58.5 622.5,58.4 622.5,46.6 590.4,46.8 				"/>
				<path class="st1" d="M635.7,199.4c9.2,0,17-1.6,23.4-4.5l-46.6,0.1C618.9,197.9,626.6,199.4,635.7,199.4"/>
				<path class="st1" d="M635.1,0c-13.1,0-23.5,3.3-30.9,9.1L666.4,9C658.9,3.3,648.5,0,635.1,0"/>
			</g>
		</g>
	</g>
</g>
</svg>
