<?xml version="1.0" encoding="utf-8"?>
<!-- Generator: Adobe Illustrator 21.1.0, SVG Export Plug-In . SVG Version: 6.00 Build 0)  -->
<svg version="1.1" id="Layer_1" xmlns="http://www.w3.org/2000/svg" xmlns:xlink="http://www.w3.org/1999/xlink" x="0px" y="0px"
	 viewBox="0 0 828.4 166.6" style="enable-background:new 0 0 828.4 166.6;" xml:space="preserve">
<style type="text/css">
	.st0{fill:#FFFFFF;}
</style>
<title>masdeco</title>
<g id="a79c9355-4e84-4981-88ea-a4e90f3110fa">
	<g id="_x33_742f8fa-4990-4214-ac90-fbc7025077d1">
		<g>
			<polygon class="st0" points="62.5,11.2 0,11.2 0,164.4 45,164.4 45,108.1 43.9,82.2 44.3,82.2 65.2,141.8 99,141.8 120,82.2 
				120.5,82.2 119.3,108.1 119.3,164.4 168.8,164.4 168.9,11.2 105.2,11.2 93.9,47.3 85.6,77.9 85.1,77.9 75.4,47.3 62.5,11.2 			
				"/>
			<path class="st0" d="M771,81c9.4,0,10.1,10.6,10.1,27.1s-0.6,27.1-10.1,27.1s-10.2-10.7-10.2-27.1S761.5,81,771,81z M771,166.6
				c41.6,0,57.3-26.9,57.3-58.5S812.7,49.6,771,49.6c-41.9,0-57.5,26.9-57.4,58.5S729.1,166.6,771,166.6L771,166.6z"/>
			<polygon class="st0" points="260.3,24.7 246.8,0 208.5,24.7 219.8,42.8 260.3,24.7 			"/>
			<path class="st0" d="M218.8,80c7.5,0,12,3.8,12,9.5v4c-34.9,2.2-60.8,16.8-60.8,43.9c0,18,11.9,29.2,30.4,29.2
				c10.4,0,21.9-3.4,29.9-13.5h0.5l4.6,11.3h40.5V87.8c0-23.6-19.6-38.2-49.5-38.2c-14.8,0-27.7,1.3-50.6,9l9,30.4
				C196.3,83.3,209.8,80,218.8,80L218.8,80z M230.8,130.6c-2.1,1.5-4.6,2.3-7.1,2.2c-2.4,0-7.5-1-7.5-6.7c0-5.9,5.7-10.2,14.6-11.2
				V130.6L230.8,130.6z"/>
			<path class="st0" d="M376,127.2c0-35.5-47.3-34.9-47.3-43.9c0-2.8,3.2-3.3,5-3.3c9.6,0,25.4,4.7,33.4,7.8l6.1-32.3
				c-14.5-3.9-29.4-5.9-44.4-5.8c-30.4,0-51.8,12.3-51.8,37.8c0,38.5,46.2,36,46.1,45.2c0,3-3.3,3.6-6.7,3.6c-9.1,0-20.2-3.5-34.7-8
				l-7,32.8c12.6,3.5,31.5,5.7,48.5,5.7C354.7,166.6,376,153.5,376,127.2L376,127.2z"/>
			<path class="st0" d="M434,164.4c51.7,0,74.2-32.4,74.2-76.6S485.7,11.2,434,11.2h-60.8l0.1,153.1L434,164.4z M420.5,123.9V51.8
				H434c15.7,0,24.7,9,24.7,36s-9,36.1-24.7,36.1L420.5,123.9z"/>
			<path class="st0" d="M620.8,117c1.4-7,2.1-14.2,2.2-21.4c0-28.2-19.9-46.1-52.9-46.1c-38.3,0-62,24.7-62,58.5
				c0,33.7,20.3,58.5,65.3,58.5c7.9,0,25.9-1,42.7-7.8l-4.4-31.8c-9.2,4-20.9,5.8-29.3,5.8c-19.1,0-25.5-7.8-27-15.7L620.8,117z
				 M569,78.7c8.4,0,11.3,4.8,11.3,10.2c0,1.5-0.3,3-0.7,4.5h-24C555.6,85.6,560.5,78.7,569,78.7L569,78.7z"/>
			<path class="st0" d="M620.8,108.1c0,35.9,22.5,58.5,60.8,58.5c12.3-0.1,24.6-2.1,36.3-5.9l-6-32.4c-11.3,3.4-16.9,4.4-24.7,4.4
				c-12.4,0-19.2-8.8-19.2-24.6s6.8-24.9,19.2-24.9c7.8,0,13.5,1.2,24.7,4.5l6-32.3c-11.8-3.8-24-5.7-36.4-5.8
				C643.3,49.6,620.8,72,620.8,108.1L620.8,108.1z"/>
		</g>
	</g>
</g>
</svg>
