<?xml version="1.0" encoding="utf-8"?>
<!-- Generator: Adobe Illustrator 23.0.1, SVG Export Plug-In . SVG Version: 6.00 Build 0)  -->
<svg version="1.1" id="Layer_1" xmlns="http://www.w3.org/2000/svg" xmlns:xlink="http://www.w3.org/1999/xlink" x="0px" y="0px"
	 viewBox="0 0 644.7 176.7" style="enable-background:new 0 0 644.7 176.7;" xml:space="preserve">
<style type="text/css">
	.st0{fill:#FFFFFF;}
</style>
<title>paula</title>
<g>
	<g id="cf1098b7-82a8-4e73-b952-81aa22fb4469">
		<path class="st0" d="M612,173.7h32.7v-33.7H612V173.7z M551.5,129.6c0,15.9-17.8,22.7-31.7,22.7c-10.7,0-19.3-6.1-19.3-15.4
			c0-11.7,9.3-14.9,20.5-17.1l16.3-3.4c4.9-0.8,9.6-2.3,14.1-4.4L551.5,129.6z M581.3,87.8c0-35.1-26.6-40.5-53.2-40.5
			c-27.1,0-52.7,11.2-52.7,40.3l29.8,1.2c0-13.4,5.6-18.6,22.9-18.6c12.9,0,23.4,3.4,23.4,15.6v3.7c-7.6,2.7-21.5,5.1-32.2,7.3
			l-12.5,2.4c-18.3,3.7-37.6,14.4-37.6,38.6c0,23.9,18.5,38.8,42,38.8c14.7,0.2,28.9-4.8,40.3-14.1c0,3.2,1,8.3,2.9,11.2h31.5
			c-1.7-2.7-4.6-8.1-4.6-20.7L581.3,87.8z M419,173.7h29.8V0H419V173.7z M389.7,50.3h-29.8v66.4c0,14.9-6.8,31.2-29.3,31.2
			c-15.1,0-22-7.3-22-24.4V50.3h-29.7V132c0,35.9,24.2,44.7,45.1,44.7c16.8,0,28.8-6.6,35.4-15.1h0.5v12.2h29.8L389.7,50.3z
			 M221.3,129.6c0,15.9-17.8,22.7-31.7,22.7c-10.7,0-19.3-6.1-19.3-15.4c0-11.7,9.3-14.9,20.5-17.1l16.4-3.4
			c4.9-0.8,9.7-2.3,14.1-4.4V129.6z M251.1,87.8c0-35.1-26.6-40.5-53.2-40.5c-27.1,0-52.7,11.2-52.7,40.3l29.8,1.2
			c0-13.4,5.6-18.5,22.9-18.5c12.9,0,23.4,3.4,23.4,15.6v3.7c-7.6,2.7-21.5,5.1-32.2,7.3l-12.4,2.4c-18.3,3.7-37.6,14.4-37.6,38.6
			c0,23.9,18.5,38.8,42,38.8c14.7,0.2,28.9-4.8,40.3-14.1c0,3.2,1,8.3,2.9,11.2h31.5c-1.7-2.7-4.6-8.1-4.6-20.7L251.1,87.8z
			 M32.7,27.3h31.2c18.8,0,31.7,7.1,31.7,31.2c0,17.1-10,29.3-30.5,29.3H32.7V27.3z M0,173.7h32.7v-58.6h38.5
			c34.4,0,58.6-22.2,58.6-56.6c0-33.7-20-58.6-60.8-58.6H0V173.7z"/>
	</g>
</g>
</svg>
