<?xml version="1.0" encoding="utf-8"?>
<!-- Generator: Adobe Illustrator 21.1.0, SVG Export Plug-In . SVG Version: 6.00 Build 0)  -->
<svg version="1.1" id="Layer_1" xmlns="http://www.w3.org/2000/svg" xmlns:xlink="http://www.w3.org/1999/xlink" x="0px" y="0px"
	 viewBox="0 0 487 200.3" style="enable-background:new 0 0 487 200.3;" xml:space="preserve">
<style type="text/css">
	.st0{fill:#FFFFFF;}
</style>
<title>lt-pulso</title>
<g>
	<g>
		<g>
			<g>
				<path class="st0" d="M75.8,10.7L0.1,10.9v11.7l85.3-0.3C83.2,17.7,79.9,13.7,75.8,10.7"/>
				<path class="st0" d="M82.5,109.5l-82.1,0.2l0.1,11.8l65-0.2C72.2,119.2,78.1,115.1,82.5,109.5"/>
				<polygon class="st0" points="0.4,84.5 32.4,84.3 32.4,72.5 0.4,72.7 				"/>
				<path class="st0" d="M88.2,97.2L0.4,97.4v11.7l82.6-0.3C85.5,105.3,87.2,101.4,88.2,97.2"/>
				<path class="st0" d="M89.8,85.3v-0.4L57.6,85v0.4c0,7.9-3.8,11.3-11,11.3h-14V85H0.5l0.1,11.7l88-0.2c0.8-3.7,1.3-7.5,1.3-11.2"
					/>
				<path class="st0" d="M32.6,124h14c5.6,0.1,11.2-0.6,16.6-2l-62.7,0.1v11.7l32.1-0.1V124"/>
				<polygon class="st0" points="0.4,72.1 32.4,71.9 32.4,60.2 0.4,60.4 				"/>
				<polygon class="st0" points="0.6,146.2 32.6,146.2 32.6,134.4 0.6,134.4 				"/>
				<polygon class="st0" points="0.6,195.6 32.8,195.5 32.8,183.9 0.6,183.9 				"/>
				<polygon class="st0" points="0.6,199 32.8,198.9 32.8,196.1 0.6,196.2 				"/>
				<polygon class="st0" points="0.6,183.3 32.8,183.1 32.6,171.5 0.6,171.5 				"/>
				<polygon class="st0" points="0.6,158.5 32.6,158.4 32.6,146.8 0.6,146.9 				"/>
				<polygon class="st0" points="0.6,170.9 32.6,170.8 32.6,159.1 0.6,159.2 				"/>
				<polygon class="st0" points="57.6,59.6 89.6,59.4 89.6,47.7 57.6,47.8 				"/>
				<path class="st0" d="M32.4,30.3h14c4.4,0,7.8,1.6,9.6,4.6l33.2-0.2c-0.5-4-1.6-7.9-3.2-11.6L0.2,23.3V35l32.1-0.2V30.3"/>
				<path class="st0" d="M89.6,41.4c-0.1-2-0.2-4.1-0.4-6h-33c0.9,1.9,1.3,3.9,1.3,6v5.7h32.1V41.4"/>
				<polygon class="st0" points="57.6,84.2 89.8,84.2 89.6,72.5 57.6,72.5 				"/>
				<polygon class="st0" points="57.6,71.8 89.5,71.8 89.5,60 57.6,60.1 				"/>
				<polygon class="st0" points="0.4,47.3 32.4,47.2 32.4,35.6 0.2,35.7 				"/>
				<polygon class="st0" points="0.4,59.7 32.4,59.6 32.4,47.9 0.4,48 				"/>
				<path class="st0" d="M46.2,2.8L0.1,3v7.2L74.6,10C67.8,5.4,58.4,2.7,46.2,2.8"/>
				<polygon class="st0" points="102,10 134,9.9 134,2.5 102,2.6 				"/>
				<polygon class="st0" points="160,22 192.1,22.1 192.1,10.3 160,10.3 				"/>
				<polygon class="st0" points="102,22.3 134.1,22.2 134,10.5 102,10.5 				"/>
				<path class="st0" d="M192.5,158.7h-32.1l-0.1,2c0.1,4.9-2,8.1-5.5,9.9l36.7-0.2c0.7-3.2,1-6.5,1-9.7V158.7"/>
				<polygon class="st0" points="160.4,145.7 192.5,145.5 192.5,133.9 160.4,134 				"/>
				<polygon class="st0" points="160.2,96.4 192.4,96.2 192.4,84.5 160.1,84.6 				"/>
				<polygon class="st0" points="160.2,108.6 192.4,108.5 192.4,96.8 160.2,96.9 				"/>
				<polygon class="st0" points="160.2,121 192.5,120.9 192.4,109.2 160.2,109.3 				"/>
				<polygon class="st0" points="160.4,133.3 192.5,133.3 192.5,121.6 160.2,121.6 				"/>
				<polygon class="st0" points="102.2,108.8 134.4,108.7 134.4,97 102.2,97 				"/>
				<polygon class="st0" points="102.4,133.6 134.5,133.4 134.5,121.7 102.2,121.8 				"/>
				<polygon class="st0" points="160.5,158.1 192.5,158 192.5,146.3 160.4,146.3 				"/>
				<polygon class="st0" points="102.2,121.1 134.4,121.1 134.4,109.4 102.2,109.5 				"/>
				<polygon class="st0" points="102.1,59.4 134.2,59.3 134.1,47.6 102,47.7 				"/>
				<path class="st0" d="M134.5,160.8v-2h-32.1v2c0,3.3,0.4,6.6,1.1,9.8l36.6-0.1C136.5,168.9,134.5,165.7,134.5,160.8"/>
				<polygon class="st0" points="160.1,71.5 192.2,71.5 192.2,59.9 160.1,59.9 				"/>
				<polygon class="st0" points="102.5,146 134.5,145.8 134.5,134.1 102.4,134.1 				"/>
				<polygon class="st0" points="160.1,83.9 192.4,83.8 192.2,72.1 160.1,72.2 				"/>
				<path class="st0" d="M147.5,171.9c-2,0-3.9-0.3-5.8-0.8h-38.1c0.9,4.2,2.5,8.2,4.9,11.8l78-0.3c2.3-3.5,4-7.5,4.9-11.6
					l-38.1,0.1"/>
				<polygon class="st0" points="102.5,158.3 134.5,158.1 134.5,146.5 102.5,146.5 				"/>
				<polygon class="st0" points="102.1,71.8 134.2,71.7 134.2,60 102.1,60 				"/>
				<path class="st0" d="M186.1,183.3l-77.2,0.2c3.6,5,8.4,9.1,14,11.7l49.3-0.1C177.9,192.5,182.6,188.4,186.1,183.3"/>
				<path class="st0" d="M147.8,200.3c9.1-0.2,16.8-1.8,23.2-4.5l-46.7,0.1C130.8,198.7,138.5,200.3,147.8,200.3"/>
				<polygon class="st0" points="160.1,59.2 192.2,59.1 192.2,47.4 160.1,47.5 				"/>
				<polygon class="st0" points="102,34.7 134.2,34.6 134.1,23 102,23 				"/>
				<polygon class="st0" points="102,46.9 134.2,46.8 134.2,35.2 102,35.3 				"/>
				<polygon class="st0" points="160,34.6 192.2,34.5 192.1,22.7 160,22.7 				"/>
				<polygon class="st0" points="160.1,46.8 192.2,46.6 192.2,35 160,35.2 				"/>
				<polygon class="st0" points="102.1,84.2 134.4,84 134.2,72.3 102.1,72.4 				"/>
				<polygon class="st0" points="102.2,96.5 134.4,96.4 134.4,84.7 102.1,84.7 				"/>
				<polygon class="st0" points="160,9.8 192.1,9.7 192,2.4 160,2.5 				"/>
				<polygon class="st0" points="212.2,170.3 244.5,170.2 244.4,158.4 212.2,158.6 				"/>
				<polygon class="st0" points="212.1,120.9 244.4,120.9 244.2,109.1 212,109.1 				"/>
				<polygon class="st0" points="212,83.8 244.1,83.6 244.1,71.9 212,72 				"/>
				<polygon class="st0" points="244.5,171.1 244.4,170.8 212.2,170.9 212.2,182.6 287.5,182.4 287.4,170.9 				"/>
				<polygon class="st0" points="212.2,145.5 244.4,145.5 244.4,133.7 212.2,133.9 				"/>
				<polygon class="st0" points="212,108.5 244.2,108.4 244.1,96.6 212,96.8 				"/>
				<polygon class="st0" points="212.2,133.2 244.4,133.1 244.4,121.3 212.1,121.5 				"/>
				<polygon class="st0" points="212.1,96.1 244.1,96.1 244.1,84.3 212,84.5 				"/>
				<polygon class="st0" points="212.2,157.9 244.4,157.8 244.4,146.2 212.2,146.2 				"/>
				<polygon class="st0" points="212.5,198.3 287.5,198 287.5,195.4 212.4,195.6 				"/>
				<polygon class="st0" points="212,59.1 244.1,59 244.1,47.2 212,47.3 				"/>
				<polygon class="st0" points="212,71.3 244.1,71.3 244.1,59.6 212,59.7 				"/>
				<polygon class="st0" points="212.5,195 287.5,194.7 287.5,183.1 212.2,183.3 				"/>
				<polygon class="st0" points="211.9,34.4 244,34.3 244,22.5 211.9,22.7 				"/>
				<polygon class="st0" points="212,46.6 244.1,46.5 244,34.9 211.9,35 				"/>
				<polygon class="st0" points="211.9,21.9 244,21.9 244,10.2 211.9,10.2 				"/>
				<polygon class="st0" points="211.9,9.7 244,9.6 244,2.2 211.9,2.4 				"/>
				<path class="st0" d="M337.7,0.3c-13.8,0.1-24.2,3.3-31.6,9.1l62.3-0.2C361.2,3.6,350.8,0.2,337.7,0.3"/>
				<path class="st0" d="M338.2,171.4c-2,0-4-0.3-6-0.8h-38c0.8,4.2,2.5,8.1,4.8,11.7l78.2-0.2c2.3-3.6,3.9-7.5,4.8-11.7h-38.2
					C342,171.1,340.2,171.4,338.2,171.4"/>
				<path class="st0" d="M347.8,132.8H382c-0.7-4-1.8-8-3.3-11.8l-41.7,0.2C341.5,124.8,345.2,128.4,347.8,132.8"/>
				<polygon class="st0" points="350.8,58.7 381.8,58.5 381.8,46.8 350.7,46.9 				"/>
				<path class="st0" d="M293,160.3c0,3.3,0.3,6.5,1,9.7l36.5-0.1c-3.7-1.6-6-4.7-6-9.7v-1.9l-31.5,0.1V160.3"/>
				<path class="st0" d="M298.5,83.6l43.2-0.2c-4.8-3.7-9.1-7.4-12.1-11.6h-34.9C295.5,75.8,296.9,79.8,298.5,83.6"/>
				<path class="st0" d="M336.2,120.6l42.2-0.1c-1.8-4.2-4.2-8.2-7-11.8l-50.9,0.2C326,113,331.5,116.7,336.2,120.6"/>
				<path class="st0" d="M319.7,108.2l51.2-0.1c-3.5-4.3-7.5-8.2-11.9-11.7l-52,0.2C310.9,100.8,315,104.8,319.7,108.2"/>
				<polygon class="st0" points="350.8,71 381.8,70.9 381.8,59.3 350.7,59.4 				"/>
				<path class="st0" d="M293.5,46.5h32.1v-8c0-1.3,0.2-2.6,0.7-3.8h-32.6c-0.1,1.3-0.2,2.6-0.2,3.7L293.5,46.5"/>
				<path class="st0" d="M351,144.4v0.8L383,145v-1.8c0-3.3-0.3-6.7-0.8-10l-34,0.1C350,136.7,351,140.5,351,144.4"/>
				<polygon class="st0" points="293,157.7 324.5,157.7 324.3,146 292.9,146 				"/>
				<polygon class="st0" points="351,157.5 383,157.5 383,145.7 351,145.9 				"/>
				<polygon class="st0" points="293.5,58.7 325.5,58.7 325.5,47.1 293.5,47.1 				"/>
				<path class="st0" d="M306.5,96l51.8-0.3c-5.2-4.2-10.7-7.9-15.6-11.5h-43.8C300.9,88.4,303.5,92.4,306.5,96"/>
				<path class="st0" d="M376.8,182.8l-77.6,0.3c3.5,5,8.3,9,13.8,11.6l49.7-0.1C368.5,192,373.2,187.9,376.8,182.8"/>
				<polygon class="st0" points="292.9,145.4 324.3,145.2 324.3,133.6 292.9,133.6 				"/>
				<path class="st0" d="M293.5,59.6c0,3.9,0.4,7.8,1.2,11.6l34.6-0.2c-2.3-3.4-3.6-7.5-3.7-11.6L293.5,59.6"/>
				<path class="st0" d="M293.5,34.2l32.8-0.1c1.7-3.5,5.7-5.4,11.3-5.4c5.2-0.1,9.3,1.8,11.4,5.3h32.4c-0.5-4.1-1.5-8-3.1-11.8
					l-82,0.2C294.9,26.2,293.9,30.2,293.5,34.2"/>
				<path class="st0" d="M337.7,199.6c9.4,0,17.4-1.6,23.9-4.5l-47,0.1C321.8,198.3,329.7,199.8,337.7,199.6"/>
				<path class="st0" d="M383,158.1l-32.1,0.2v3.3c0.1,3.6-2,6.9-5.3,8.3l36.5-0.1c0.6-2.9,0.9-5.8,0.9-8.8L383,158.1"/>
				<polygon class="st0" points="292.9,133 324.3,133 324.3,128 292.9,128.1 				"/>
				<path class="st0" d="M350.7,39.8v6.5h31.2v-6.7c0-1.7-0.1-3.3-0.3-5h-32.1C350.2,36.2,350.7,38,350.7,39.8"/>
				<path class="st0" d="M296.6,21.8l81.4-0.3C376,17,373,13,369.1,9.8L305.4,10C301.5,13.2,298.5,17.2,296.6,21.8"/>
				<path class="st0" d="M400.5,21.5l82.2-0.1c-2.1-4.6-5.3-8.6-9.2-11.7l-63.7,0.2C405.8,12.9,402.7,16.9,400.5,21.5"/>
				<polygon class="st0" points="454.8,132.5 487,132.4 487,120.7 454.8,120.9 				"/>
				<polygon class="st0" points="455,144.9 487,144.8 487,133 454.8,133.2 				"/>
				<polygon class="st0" points="454.8,107.8 487,107.7 486.8,96 454.8,96.1 				"/>
				<polygon class="st0" points="454.8,120.2 487,120.1 487,108.4 454.8,108.5 				"/>
				<polygon class="st0" points="454.8,95.4 486.8,95.4 486.8,83.6 454.8,83.8 				"/>
				<polygon class="st0" points="455,157.3 487,157.1 487,145.4 455,145.5 				"/>
				<polygon class="st0" points="396.7,70.9 428.8,70.8 428.8,59.1 396.7,59.2 				"/>
				<path class="st0" d="M455,159.8c0.1,4.2-2.2,8-6,9.8l37-0.1c0.7-3.2,1-6.5,1-9.9v-2l-32.1,0.1L455,159.8"/>
				<polygon class="st0" points="397,145.1 429,145 429,133.2 396.8,133.3 				"/>
				<polygon class="st0" points="397,157.4 429,157.3 429,145.5 397,145.7 				"/>
				<polygon class="st0" points="396.8,132.8 429,132.6 428.8,120.9 396.8,120.9 				"/>
				<path class="st0" d="M417.5,194.4l49.3-0.1c5.6-2.6,10.5-6.6,14-11.7l-77.2,0.3C407,187.8,411.8,191.8,417.5,194.4"/>
				<polygon class="st0" points="454.8,83.1 486.8,82.9 486.8,71.2 454.8,71.3 				"/>
				<path class="st0" d="M441.8,171.1c-1.8,0-3.5-0.3-5.2-0.8l-38.5,0.1c1,4.2,2.7,8.1,5,11.7l77.9-0.2c2.3-3.6,4-7.5,4.9-11.7
					l-38.6,0.1C445.5,170.8,443.8,171.1,441.8,171.1"/>
				<path class="st0" d="M397,33.8l33.2-0.1c2.1-3.4,6.1-5.3,11.3-5.4c5.4,0,9.5,2,11.7,5.4h33.2c-0.5-4-1.6-8-3.3-11.7l-82.9,0.2
					C398.5,25.8,397.5,29.8,397,33.8"/>
				<polygon class="st0" points="396.8,120.4 429,120.3 429,108.5 396.8,108.7 				"/>
				<path class="st0" d="M454.5,39.4l0.2,6.6l32-0.1v-6.5c0-1.7-0.1-3.4-0.3-5.1l-33,0.2C454.2,35.9,454.5,37.6,454.5,39.4"/>
				<polygon class="st0" points="396.8,95.6 428.8,95.6 428.8,83.8 396.7,83.9 				"/>
				<polygon class="st0" points="396.7,83.2 428.8,83.1 428.8,71.3 396.7,71.5 				"/>
				<polygon class="st0" points="454.8,58.3 486.8,58.2 486.8,46.5 454.8,46.6 				"/>
				<path class="st0" d="M396.7,46.2l32.1-0.1v-6.6c0-1.8,0.4-3.5,1.1-5.1l-33,0.1c-0.2,1.7-0.2,3.4-0.2,5.1L396.7,46.2"/>
				<polygon class="st0" points="454.8,70.8 486.8,70.6 486.8,58.9 454.8,59.1 				"/>
				<path class="st0" d="M397,160c0,3.3,0.3,6.5,1,9.7h37c-3.8-1.7-6.1-5.6-6-9.7v-2h-32.2L397,160"/>
				<polygon class="st0" points="396.8,107.9 429,107.8 428.8,96.1 396.8,96.2 				"/>
				<polygon class="st0" points="396.7,58.5 428.8,58.4 428.8,46.6 396.7,46.8 				"/>
				<path class="st0" d="M442,199.4c9.2,0,17-1.6,23.4-4.5l-46.6,0.1C425.2,197.9,432.8,199.4,442,199.4"/>
				<path class="st0" d="M441.3,0c-13.1,0-23.5,3.3-30.9,9.1L472.7,9C465.2,3.3,454.8,0,441.3,0"/>
			</g>
		</g>
	</g>
</g>
</svg>
