<?xml version="1.0" encoding="utf-8"?>
<!-- Generator: Adobe Illustrator 21.1.0, SVG Export Plug-In . SVG Version: 6.00 Build 0)  -->
<svg version="1.1" id="Layer_1" xmlns="http://www.w3.org/2000/svg" xmlns:xlink="http://www.w3.org/1999/xlink" x="0px" y="0px"
	 viewBox="0 0 360.7 225.6" style="enable-background:new 0 0 360.7 225.6;" xml:space="preserve">
<style type="text/css">
	.st0{fill:#FFFFFF;}
</style>
<title>quepasa</title>
<g id="Layer_2">
	<g id="Capa_1">
		<g>
			<path class="st0" d="M239.2,140.1c1.4-1.7,2.4-6.4,2.4-10.9c0-10.5,0.2-40,0-50c0-3.8-1-7.1-3.8-8.1c-2.2-0.8-4.5-1.5-6.9-1.9
				c-3.1-0.7-4.3-1.9-4.3-3.3s2.4-1.7,4.3-1.7c4.5,0,27.4-1.7,28.6-1.7s1.9,2.4,1.9,7.6c0,10.2-0.7,23.3-0.7,65.7
				c0,11.2,1,13.6,4.8,13.6c3.3-0.2,11.4-1.9,12.6-1.9c0.9,0.1,1.6,0.8,1.7,1.7c0,1-0.7,4.3-2.1,4.5c-8.3,1.2-22.6,4.8-27.8,6.2
				c-1.8,0.7-3.8,1.1-5.7,1.2c-1,0-2.1-2.1-2.1-4.3c0-4.3,0.2-10,0.5-12.6c0-0.5-1-0.5-1.2-0.2c-2.1,1.7-10.9,9.3-17.6,12.6
				c-4.9,2.5-10.3,3.7-15.7,3.6c-7.9,0-14.8-2.9-19.3-7.9c-3.8-4-6.2-10.7-6.2-19c0-19.5,0.5-45.4-0.2-53.5
				c-0.5-6.2-0.2-7.6-7.6-10.2c-1.9-0.7-4.5-1.9-4.5-3.3s1.9-1.9,5.2-1.9c12.9,0,20.9-1.4,26.4-1.4c0.5,0,1.4,1.4,1.2,3.3
				c-0.5,15.2-1.2,42.3-1.2,58.1c0,10.7,1.9,16.4,6.7,19.5c3.6,2.6,8.8,3.8,14.3,3.6C232.6,147.3,236.1,143.5,239.2,140.1"/>
			<path class="st0" d="M181.2,173.7c1.9,0,15.5-0.3,19.3-0.3c6.8,0,10.1-0.3,14.2,1.7c3.9,1.9,5.8,5.1,5.8,7.7
				c0,6-3.5,9.2-6.9,11.1c-6.6,3.6-11.6,3.9-12.7,3.8s-1.8-0.1-2-0.9c0-0.5,0.3-1,0.8-1.1c5.2-2.2,11.2-4.4,11.2-12
				c0-6.6-5.3-7.9-11.6-7.9c-1,0-2,0.3-2.9,0.7c-0.2,0.1-0.6,0.6-0.7,1.4c-0.1,7.8-0.1,32.4,0.2,35.4c0.4,6.2,0.6,7.2,5.8,8.5
				c1.6,0.3,2.1,0.7,2.1,1.3s-1.2,1.1-2.4,1.1c-3,0-17.7-0.1-19.9-0.1c-1.3,0-2.4-0.4-2.4-1s0.7-1.1,2.2-1.4c4.1-0.9,5-2.2,5.2-6.8
				c0.1-3.8,0.3-7.9,0.3-18.6c0-8.9-0.3-13-0.4-15.4s-0.6-4-5.1-4.9c-1.8-0.4-2.3-1-2.3-1.4S179.4,173.7,181.2,173.7"/>
			<path class="st0" d="M241.1,178c0.3-0.7,0.5-1.4,0.6-2.2v-1c0.2-0.5,0.5-1,1-1.3c1.7-0.2,3.3-0.2,5,0c0.3,0,0.9,0.7,0.9,1
				c0.4,1.6,0.9,3.1,1.6,4.6c1.8,4.9,11.4,29.9,13.6,34.7c2.4,5.3,3,6.6,7.6,8.5c1.4,0.6,2.1,0.9,2.1,1.4s-1.2,0.5-2.4,0.5h-19.4
				c-1.9,0-2.4-0.6-2.4-1.2s1-1.1,2.4-1.4c2.4-0.8,3.3-1.4,3.3-3.2c0-1.1-2.3-6.8-3.9-11.2c-0.2-0.9-1-1.5-1.9-1.7
				c-2.4-0.2-12.4-0.1-13.6,0c-0.8,0-1.4,0.9-1.7,1.3c-0.9,2.2-3.2,9.3-3.2,10.7c0,2,1.1,3,5.3,4.1c1.3,0.4,2,1,2,1.4
				c0,0.8-1.2,1.1-2.3,1.1H220c-1.8,0-3-0.3-3-1s0.7-1.3,2.4-1.7c3.9-1,5.1-2,8.3-8.9C230.4,207,239.6,182.3,241.1,178 M242.8,183.8
				c-0.2-0.2-0.7-0.1-0.9,0.3c-1.4,3.8-5,13.6-5.8,16c-0.1,0.4,0.1,1.2,0.4,1.2c1.3,0.1,9.5,0.1,11.7-0.1c0.2,0,0.7-0.3,0.4-1
				C247.2,196,244.8,188.8,242.8,183.8"/>
			<path class="st0" d="M298.7,172.7c1.7,0.3,3.4,0.6,5.1,0.7c0.8,0.1,1.2,1.2,1.3,2.4c0,1.8,0.4,6.1,0.4,7.6
				c0.1,0.9-0.4,1.8-1.1,2.3c-0.8,0-1-0.7-1.5-2.2c-0.6-2.5-2.1-4.8-4.1-6.4c-1.9-1.6-4.3-2.5-6.8-2.6c-4.6-0.2-8.5,3.3-8.7,7.9
				c0,0.2,0,0.5,0,0.7c0,4.1,2.3,6.4,5.6,8.3c3.4,2.1,6.2,3.5,9.4,5.5c4.8,2.9,9,7.4,9,13.2c-0.1,4.9-2.6,9.4-6.8,12.1
				c-3.9,2.2-8.4,3.3-12.9,3.3c-2,0-4.1-0.2-6.1-0.6c-4-0.8-7.2-3.7-8.3-7.6c-0.4-1.7-0.7-3.5-0.9-5.2c0-1,0.1-2.6,1-2.6
				c1.1,0,2.7,3.6,3.2,4.8c2.5,5,6.4,8.6,12.2,8.6s9.4-4.6,9.4-8.6c0-3.7-2.1-6.4-6.3-9.1c-2.7-1.8-4.6-2.9-6.9-4.2
				c-5.2-3-10.2-8.1-10.2-14.5c0-7.6,6.6-14.5,17.7-14.5C294.7,172.2,296.7,172.4,298.7,172.7"/>
			<path class="st0" d="M328.5,178c0.3-0.7,0.5-1.4,0.6-2.2v-1c0.2-0.5,0.5-1,1-1.3c1.7-0.2,3.3-0.2,5,0c0.3,0,0.9,0.7,0.9,1
				c0.4,1.6,0.9,3.1,1.5,4.6c1.8,4.9,11.4,29.9,13.6,34.7c2.4,5.3,2.4,6.2,7.6,7.9c1.4,0.6,2,0.8,2,1.3c0,0.8-1.2,1.2-2.4,1.2h-19.4
				c-1.9,0-2.4-0.6-2.4-1.2s1-1.1,2.4-1.4c2.4-0.8,3.3-1.4,3.3-3.2c0-1.1-2.3-6.8-3.9-11.2c-0.2-0.9-1-1.5-1.9-1.7
				c-2.4-0.2-12.4-0.1-13.6,0c-0.8,0-1.4,0.9-1.7,1.3c-0.9,2.2-3.2,9.3-3.2,10.7c0,2,1.1,3,5.3,4.1c1.3,0.4,2,1,2,1.4
				c0,0.8-1.2,1.1-2.3,1.1h-15.6c-1.8,0-3.1-0.3-3-1c0-0.5,0.9-0.4,2.7-1c3.9-1.5,4.8-2.6,8-9.5C317.7,207.1,326.9,182.4,328.5,178
				 M330.1,183.8c-0.2-0.2-0.7-0.1-0.9,0.3c-1.4,3.8-5,13.6-5.8,16c-0.1,0.4,0.1,1.2,0.4,1.2c1.3,0.1,9.5,0.1,11.7-0.1
				c0.2,0,0.7-0.3,0.4-1C334.5,196,332.1,188.8,330.1,183.8"/>
			<path class="st0" d="M355.9,89.2c0,2.6-3.3,4.5-6.7,4.3c-15.2-0.7-40.5-0.7-48.8,0c-1.3,0.5-2.4,1.5-2.9,2.9
				c-0.5,1.7-0.5,5.7-0.5,9.5c0,19,15.2,39.7,35.5,39.7c13.1,0,18.3-5,23.3-11.7c1.4-1.9,3.3-1.9,3.3,1.2c0,2.1-2.1,5-3.3,6.4
				c-8.3,10.9-21.6,18.8-35.2,18.8c-26.2,0-41.2-22.4-41.2-47.3c0-16.7,6.7-35.9,25.7-46.6c5-3.1,11.9-5.2,20.7-5.2
				C343.3,61.1,355.9,72.8,355.9,89.2 M299,86.8c0,0.5,0.5,1.9,1.2,1.9c9.5,0,23.3-0.5,29-0.5c6-0.7,8.8-1.9,8.8-7.8
				c-0.2-8.6-9.3-15-14.8-15C313.2,65.4,302.8,74,299,86.8 M315,50c0.2,1.6,2.3,2.7,3.9,2.5L347.3,23c2.3-2.3,3.6-4.8,3.6-6.1
				c0-1.8-1.6-4.1-3.9-5.9c-2.7-2.3-5.5-3.4-7-3.4c-2.3,0-4.1,3-5.5,5.5L315,50z"/>
			<path class="st0" d="M87.8,154.9c-46-1.6-62.8-51.7-63.7-77.8C22.4,28.8,47.9,6.4,73.6,6.4c42.7,0,64.4,41.2,64.4,79.9
				C138,140.4,105.9,155.5,87.8,154.9 M181.4,200.3c-3.3,1.4-11.1,2.1-13.4,2.1c-7.4,0.1-14.8-1-21.8-3.3
				c-18.8-6.1-41.5-25.2-44.1-38.7c-0.4-2,1.4-2.4,2.7-2.8c33.2-11,57.9-39.7,58-77.1C163,39.2,130.6,0,81.5,0C38,0-1,32.2,0,80.7
				c0.7,31.9,18.1,59.9,49.9,73.7c6.6,2.9,13.5,4.9,20.6,6.1c6.6,1.2,4.7,2.3,11.7,9.3c8.7,8.4,19.6,22.9,38.8,31.8
				c13.8,6.3,22.4,8.3,33.2,8.3c8.2,0,20.6-3.2,28.2-7.1C183.9,202,183,199.6,181.4,200.3"/>
		</g>
	</g>
</g>
</svg>
